<?xml version="1.0" encoding="utf-8" standalone="no"?>
<!DOCTYPE svg PUBLIC "-//W3C//DTD SVG 1.1//EN"
  "http://www.w3.org/Graphics/SVG/1.1/DTD/svg11.dtd">
<svg xmlns:xlink="http://www.w3.org/1999/xlink" width="460.8pt" height="345.6pt" viewBox="0 0 460.8 345.6" xmlns="http://www.w3.org/2000/svg" version="1.1">
 <metadata>
  <rdf:RDF xmlns:dc="http://purl.org/dc/elements/1.1/" xmlns:cc="http://creativecommons.org/ns#" xmlns:rdf="http://www.w3.org/1999/02/22-rdf-syntax-ns#">
   <cc:Work>
    <dc:type rdf:resource="http://purl.org/dc/dcmitype/StillImage"/>
    <dc:date>2025-03-13T14:47:31.251239</dc:date>
    <dc:format>image/svg+xml</dc:format>
    <dc:creator>
     <cc:Agent>
      <dc:title>Matplotlib v3.9.2, https://matplotlib.org/</dc:title>
     </cc:Agent>
    </dc:creator>
   </cc:Work>
  </rdf:RDF>
 </metadata>
 <defs>
  <style type="text/css">*{stroke-linejoin: round; stroke-linecap: butt}</style>
 </defs>
 <g id="figure_1">
  <g id="patch_1">
   <path d="M 0 345.6 
L 460.8 345.6 
L 460.8 0 
L 0 0 
z
" style="fill: #ffffff"/>
  </g>
  <g id="axes_1">
   <g id="patch_2">
    <path d="M 73.832727 188.055273 
C 77.420202 188.055273 80.861226 186.629954 83.397954 184.093226 
C 85.934681 181.556499 87.36 178.115475 87.36 174.528 
C 87.36 170.940525 85.934681 167.499501 83.397954 164.962774 
C 80.861226 162.426046 77.420202 161.000727 73.832727 161.000727 
C 70.245253 161.000727 66.804229 162.426046 64.267501 164.962774 
C 61.730773 167.499501 60.305455 170.940525 60.305455 174.528 
C 60.305455 178.115475 61.730773 181.556499 64.267501 184.093226 
C 66.804229 186.629954 70.245253 188.055273 73.832727 188.055273 
z
" clip-path="url(#p8a3cc4b7f8)" style="fill: #313695; stroke: #ffffff; stroke-linejoin: miter"/>
   </g>
   <g id="patch_3">
    <path d="M 100.887273 188.055273 
C 104.474747 188.055273 107.915771 186.629954 110.452499 184.093226 
C 112.989227 181.556499 114.414545 178.115475 114.414545 174.528 
C 114.414545 170.940525 112.989227 167.499501 110.452499 164.962774 
C 107.915771 162.426046 104.474747 161.000727 100.887273 161.000727 
C 97.299798 161.000727 93.858774 162.426046 91.322046 164.962774 
C 88.785319 167.499501 87.36 170.940525 87.36 174.528 
C 87.36 178.115475 88.785319 181.556499 91.322046 184.093226 
C 93.858774 186.629954 97.299798 188.055273 100.887273 188.055273 
z
" clip-path="url(#p8a3cc4b7f8)" style="fill: #313695; stroke: #ffffff; stroke-linejoin: miter"/>
   </g>
   <g id="patch_4">
    <path d="M 127.941818 188.055273 
C 131.529293 188.055273 134.970317 186.629954 137.507044 184.093226 
C 140.043772 181.556499 141.469091 178.115475 141.469091 174.528 
C 141.469091 170.940525 140.043772 167.499501 137.507044 164.962774 
C 134.970317 162.426046 131.529293 161.000727 127.941818 161.000727 
C 124.354344 161.000727 120.91332 162.426046 118.376592 164.962774 
C 115.839864 167.499501 114.414545 170.940525 114.414545 174.528 
C 114.414545 178.115475 115.839864 181.556499 118.376592 184.093226 
C 120.91332 186.629954 124.354344 188.055273 127.941818 188.055273 
z
" clip-path="url(#p8a3cc4b7f8)" style="fill: #6399c7; stroke: #ffffff; stroke-linejoin: miter"/>
   </g>
   <g id="patch_5">
    <path d="M 154.996364 188.055273 
C 158.583838 188.055273 162.024862 186.629954 164.56159 184.093226 
C 167.098318 181.556499 168.523636 178.115475 168.523636 174.528 
C 168.523636 170.940525 167.098318 167.499501 164.56159 164.962774 
C 162.024862 162.426046 158.583838 161.000727 154.996364 161.000727 
C 151.408889 161.000727 147.967865 162.426046 145.431137 164.962774 
C 142.89441 167.499501 141.469091 170.940525 141.469091 174.528 
C 141.469091 178.115475 142.89441 181.556499 145.431137 184.093226 
C 147.967865 186.629954 151.408889 188.055273 154.996364 188.055273 
z
" clip-path="url(#p8a3cc4b7f8)" style="fill: #6399c7; stroke: #ffffff; stroke-linejoin: miter"/>
   </g>
   <g id="patch_6">
    <path d="M 182.050909 188.055273 
C 185.638384 188.055273 189.079408 186.629954 191.616135 184.093226 
C 194.152863 181.556499 195.578182 178.115475 195.578182 174.528 
C 195.578182 170.940525 194.152863 167.499501 191.616135 164.962774 
C 189.079408 162.426046 185.638384 161.000727 182.050909 161.000727 
C 178.463434 161.000727 175.02241 162.426046 172.485683 164.962774 
C 169.948955 167.499501 168.523636 170.940525 168.523636 174.528 
C 168.523636 178.115475 169.948955 181.556499 172.485683 184.093226 
C 175.02241 186.629954 178.463434 188.055273 182.050909 188.055273 
z
" clip-path="url(#p8a3cc4b7f8)" style="fill: #bde2ee; stroke: #ffffff; stroke-linejoin: miter"/>
   </g>
   <g id="patch_7">
    <path d="M 209.105455 188.055273 
C 212.692929 188.055273 216.133953 186.629954 218.670681 184.093226 
C 221.207408 181.556499 222.632727 178.115475 222.632727 174.528 
C 222.632727 170.940525 221.207408 167.499501 218.670681 164.962774 
C 216.133953 162.426046 212.692929 161.000727 209.105455 161.000727 
C 205.51798 161.000727 202.076956 162.426046 199.540228 164.962774 
C 197.003501 167.499501 195.578182 170.940525 195.578182 174.528 
C 195.578182 178.115475 197.003501 181.556499 199.540228 184.093226 
C 202.076956 186.629954 205.51798 188.055273 209.105455 188.055273 
z
" clip-path="url(#p8a3cc4b7f8)" style="fill: #bde2ee; stroke: #ffffff; stroke-linejoin: miter"/>
   </g>
   <g id="patch_8">
    <path d="M 236.16 188.055273 
C 239.747475 188.055273 243.188499 186.629954 245.725226 184.093226 
C 248.261954 181.556499 249.687273 178.115475 249.687273 174.528 
C 249.687273 170.940525 248.261954 167.499501 245.725226 164.962774 
C 243.188499 162.426046 239.747475 161.000727 236.16 161.000727 
C 232.572525 161.000727 229.131501 162.426046 226.594774 164.962774 
C 224.058046 167.499501 222.632727 170.940525 222.632727 174.528 
C 222.632727 178.115475 224.058046 181.556499 226.594774 184.093226 
C 229.131501 186.629954 232.572525 188.055273 236.16 188.055273 
z
" clip-path="url(#p8a3cc4b7f8)" style="fill: #fffebe; stroke: #ffffff; stroke-linejoin: miter"/>
   </g>
   <g id="patch_9">
    <path d="M 263.214545 188.055273 
C 266.80202 188.055273 270.243044 186.629954 272.779772 184.093226 
C 275.316499 181.556499 276.741818 178.115475 276.741818 174.528 
C 276.741818 170.940525 275.316499 167.499501 272.779772 164.962774 
C 270.243044 162.426046 266.80202 161.000727 263.214545 161.000727 
C 259.627071 161.000727 256.186047 162.426046 253.649319 164.962774 
C 251.112592 167.499501 249.687273 170.940525 249.687273 174.528 
C 249.687273 178.115475 251.112592 181.556499 253.649319 184.093226 
C 256.186047 186.629954 259.627071 188.055273 263.214545 188.055273 
z
" clip-path="url(#p8a3cc4b7f8)" style="fill: #fffebe; stroke: #ffffff; stroke-linejoin: miter"/>
   </g>
   <g id="patch_10">
    <path d="M 290.269091 188.055273 
C 293.856566 188.055273 297.29759 186.629954 299.834317 184.093226 
C 302.371045 181.556499 303.796364 178.115475 303.796364 174.528 
C 303.796364 170.940525 302.371045 167.499501 299.834317 164.962774 
C 297.29759 162.426046 293.856566 161.000727 290.269091 161.000727 
C 286.681616 161.000727 283.240592 162.426046 280.703865 164.962774 
C 278.167137 167.499501 276.741818 170.940525 276.741818 174.528 
C 276.741818 178.115475 278.167137 181.556499 280.703865 184.093226 
C 283.240592 186.629954 286.681616 188.055273 290.269091 188.055273 
z
" clip-path="url(#p8a3cc4b7f8)" style="fill: #fdbf71; stroke: #ffffff; stroke-linejoin: miter"/>
   </g>
   <g id="patch_11">
    <path d="M 317.323636 188.055273 
C 320.911111 188.055273 324.352135 186.629954 326.888863 184.093226 
C 329.42559 181.556499 330.850909 178.115475 330.850909 174.528 
C 330.850909 170.940525 329.42559 167.499501 326.888863 164.962774 
C 324.352135 162.426046 320.911111 161.000727 317.323636 161.000727 
C 313.736162 161.000727 310.295138 162.426046 307.75841 164.962774 
C 305.221682 167.499501 303.796364 170.940525 303.796364 174.528 
C 303.796364 178.115475 305.221682 181.556499 307.75841 184.093226 
C 310.295138 186.629954 313.736162 188.055273 317.323636 188.055273 
z
" clip-path="url(#p8a3cc4b7f8)" style="fill: #fdbf71; stroke: #ffffff; stroke-linejoin: miter"/>
   </g>
   <g id="patch_12">
    <path d="M 344.378182 188.055273 
C 347.965656 188.055273 351.40668 186.629954 353.943408 184.093226 
C 356.480136 181.556499 357.905455 178.115475 357.905455 174.528 
C 357.905455 170.940525 356.480136 167.499501 353.943408 164.962774 
C 351.40668 162.426046 347.965656 161.000727 344.378182 161.000727 
C 340.790707 161.000727 337.349683 162.426046 334.812956 164.962774 
C 332.276228 167.499501 330.850909 170.940525 330.850909 174.528 
C 330.850909 178.115475 332.276228 181.556499 334.812956 184.093226 
C 337.349683 186.629954 340.790707 188.055273 344.378182 188.055273 
z
" clip-path="url(#p8a3cc4b7f8)" style="fill: #ea5739; stroke: #ffffff; stroke-linejoin: miter"/>
   </g>
   <g id="patch_13">
    <path d="M 371.432727 188.055273 
C 375.020202 188.055273 378.461226 186.629954 380.997954 184.093226 
C 383.534681 181.556499 384.96 178.115475 384.96 174.528 
C 384.96 170.940525 383.534681 167.499501 380.997954 164.962774 
C 378.461226 162.426046 375.020202 161.000727 371.432727 161.000727 
C 367.845253 161.000727 364.404229 162.426046 361.867501 164.962774 
C 359.330773 167.499501 357.905455 170.940525 357.905455 174.528 
C 357.905455 178.115475 359.330773 181.556499 361.867501 184.093226 
C 364.404229 186.629954 367.845253 188.055273 371.432727 188.055273 
z
" clip-path="url(#p8a3cc4b7f8)" style="fill: #ea5739; stroke: #ffffff; stroke-linejoin: miter"/>
   </g>
   <g id="text_1">
    <!-- -3.0 -->
    <g transform="translate(64.077259 177.287375) scale(0.1 -0.1)">
     <defs>
      <path id="DejaVuSans-2d" d="M 313 2009 
L 1997 2009 
L 1997 1497 
L 313 1497 
L 313 2009 
z
" transform="scale(0.015625)"/>
      <path id="DejaVuSans-33" d="M 2597 2516 
Q 3050 2419 3304 2112 
Q 3559 1806 3559 1356 
Q 3559 666 3084 287 
Q 2609 -91 1734 -91 
Q 1441 -91 1130 -33 
Q 819 25 488 141 
L 488 750 
Q 750 597 1062 519 
Q 1375 441 1716 441 
Q 2309 441 2620 675 
Q 2931 909 2931 1356 
Q 2931 1769 2642 2001 
Q 2353 2234 1838 2234 
L 1294 2234 
L 1294 2753 
L 1863 2753 
Q 2328 2753 2575 2939 
Q 2822 3125 2822 3475 
Q 2822 3834 2567 4026 
Q 2313 4219 1838 4219 
Q 1578 4219 1281 4162 
Q 984 4106 628 3988 
L 628 4550 
Q 988 4650 1302 4700 
Q 1616 4750 1894 4750 
Q 2613 4750 3031 4423 
Q 3450 4097 3450 3541 
Q 3450 3153 3228 2886 
Q 3006 2619 2597 2516 
z
" transform="scale(0.015625)"/>
      <path id="DejaVuSans-2e" d="M 684 794 
L 1344 794 
L 1344 0 
L 684 0 
L 684 794 
z
" transform="scale(0.015625)"/>
      <path id="DejaVuSans-30" d="M 2034 4250 
Q 1547 4250 1301 3770 
Q 1056 3291 1056 2328 
Q 1056 1369 1301 889 
Q 1547 409 2034 409 
Q 2525 409 2770 889 
Q 3016 1369 3016 2328 
Q 3016 3291 2770 3770 
Q 2525 4250 2034 4250 
z
M 2034 4750 
Q 2819 4750 3233 4129 
Q 3647 3509 3647 2328 
Q 3647 1150 3233 529 
Q 2819 -91 2034 -91 
Q 1250 -91 836 529 
Q 422 1150 422 2328 
Q 422 3509 836 4129 
Q 1250 4750 2034 4750 
z
" transform="scale(0.015625)"/>
     </defs>
     <use xlink:href="#DejaVuSans-2d"/>
     <use xlink:href="#DejaVuSans-33" x="36.083984"/>
     <use xlink:href="#DejaVuSans-2e" x="99.707031"/>
     <use xlink:href="#DejaVuSans-30" x="131.494141"/>
    </g>
   </g>
   <g id="text_2">
    <!-- -3.0 -->
    <g transform="translate(91.131804 177.287375) scale(0.1 -0.1)">
     <use xlink:href="#DejaVuSans-2d"/>
     <use xlink:href="#DejaVuSans-33" x="36.083984"/>
     <use xlink:href="#DejaVuSans-2e" x="99.707031"/>
     <use xlink:href="#DejaVuSans-30" x="131.494141"/>
    </g>
   </g>
   <g id="text_3">
    <!-- -2.0 -->
    <g transform="translate(118.186349 177.287375) scale(0.1 -0.1)">
     <defs>
      <path id="DejaVuSans-32" d="M 1228 531 
L 3431 531 
L 3431 0 
L 469 0 
L 469 531 
Q 828 903 1448 1529 
Q 2069 2156 2228 2338 
Q 2531 2678 2651 2914 
Q 2772 3150 2772 3378 
Q 2772 3750 2511 3984 
Q 2250 4219 1831 4219 
Q 1534 4219 1204 4116 
Q 875 4013 500 3803 
L 500 4441 
Q 881 4594 1212 4672 
Q 1544 4750 1819 4750 
Q 2544 4750 2975 4387 
Q 3406 4025 3406 3419 
Q 3406 3131 3298 2873 
Q 3191 2616 2906 2266 
Q 2828 2175 2409 1742 
Q 1991 1309 1228 531 
z
" transform="scale(0.015625)"/>
     </defs>
     <use xlink:href="#DejaVuSans-2d"/>
     <use xlink:href="#DejaVuSans-32" x="36.083984"/>
     <use xlink:href="#DejaVuSans-2e" x="99.707031"/>
     <use xlink:href="#DejaVuSans-30" x="131.494141"/>
    </g>
   </g>
   <g id="text_4">
    <!-- -2.0 -->
    <g transform="translate(145.240895 177.287375) scale(0.1 -0.1)">
     <use xlink:href="#DejaVuSans-2d"/>
     <use xlink:href="#DejaVuSans-32" x="36.083984"/>
     <use xlink:href="#DejaVuSans-2e" x="99.707031"/>
     <use xlink:href="#DejaVuSans-30" x="131.494141"/>
    </g>
   </g>
   <g id="text_5">
    <!-- -1.0 -->
    <g transform="translate(172.29544 177.287375) scale(0.1 -0.1)">
     <defs>
      <path id="DejaVuSans-31" d="M 794 531 
L 1825 531 
L 1825 4091 
L 703 3866 
L 703 4441 
L 1819 4666 
L 2450 4666 
L 2450 531 
L 3481 531 
L 3481 0 
L 794 0 
L 794 531 
z
" transform="scale(0.015625)"/>
     </defs>
     <use xlink:href="#DejaVuSans-2d"/>
     <use xlink:href="#DejaVuSans-31" x="36.083984"/>
     <use xlink:href="#DejaVuSans-2e" x="99.707031"/>
     <use xlink:href="#DejaVuSans-30" x="131.494141"/>
    </g>
   </g>
   <g id="text_6">
    <!-- -1.0 -->
    <g transform="translate(199.349986 177.287375) scale(0.1 -0.1)">
     <use xlink:href="#DejaVuSans-2d"/>
     <use xlink:href="#DejaVuSans-31" x="36.083984"/>
     <use xlink:href="#DejaVuSans-2e" x="99.707031"/>
     <use xlink:href="#DejaVuSans-30" x="131.494141"/>
    </g>
   </g>
   <g id="text_7">
    <!-- 0.0 -->
    <g transform="translate(228.208438 177.287375) scale(0.1 -0.1)">
     <use xlink:href="#DejaVuSans-30"/>
     <use xlink:href="#DejaVuSans-2e" x="63.623047"/>
     <use xlink:href="#DejaVuSans-30" x="95.410156"/>
    </g>
   </g>
   <g id="text_8">
    <!-- 0.0 -->
    <g transform="translate(255.262983 177.287375) scale(0.1 -0.1)">
     <use xlink:href="#DejaVuSans-30"/>
     <use xlink:href="#DejaVuSans-2e" x="63.623047"/>
     <use xlink:href="#DejaVuSans-30" x="95.410156"/>
    </g>
   </g>
   <g id="text_9">
    <!-- 1.0 -->
    <g transform="translate(282.317528 177.287375) scale(0.1 -0.1)">
     <use xlink:href="#DejaVuSans-31"/>
     <use xlink:href="#DejaVuSans-2e" x="63.623047"/>
     <use xlink:href="#DejaVuSans-30" x="95.410156"/>
    </g>
   </g>
   <g id="text_10">
    <!-- 1.0 -->
    <g transform="translate(309.372074 177.287375) scale(0.1 -0.1)">
     <use xlink:href="#DejaVuSans-31"/>
     <use xlink:href="#DejaVuSans-2e" x="63.623047"/>
     <use xlink:href="#DejaVuSans-30" x="95.410156"/>
    </g>
   </g>
   <g id="text_11">
    <!-- 2.0 -->
    <g transform="translate(336.426619 177.287375) scale(0.1 -0.1)">
     <use xlink:href="#DejaVuSans-32"/>
     <use xlink:href="#DejaVuSans-2e" x="63.623047"/>
     <use xlink:href="#DejaVuSans-30" x="95.410156"/>
    </g>
   </g>
   <g id="text_12">
    <!-- 2.0 -->
    <g transform="translate(363.481165 177.287375) scale(0.1 -0.1)">
     <use xlink:href="#DejaVuSans-32"/>
     <use xlink:href="#DejaVuSans-2e" x="63.623047"/>
     <use xlink:href="#DejaVuSans-30" x="95.410156"/>
    </g>
   </g>
  </g>
 </g>
 <defs>
  <clipPath id="p8a3cc4b7f8">
   <rect x="57.6" y="158.295273" width="357.12" height="32.465455"/>
  </clipPath>
 </defs>
</svg>
