<?xml version="1.0" encoding="utf-8" standalone="no"?>
<!DOCTYPE svg PUBLIC "-//W3C//DTD SVG 1.1//EN"
  "http://www.w3.org/Graphics/SVG/1.1/DTD/svg11.dtd">
<svg xmlns:xlink="http://www.w3.org/1999/xlink" width="460.8pt" height="345.6pt" viewBox="0 0 460.8 345.6" xmlns="http://www.w3.org/2000/svg" version="1.1">
 <metadata>
  <rdf:RDF xmlns:dc="http://purl.org/dc/elements/1.1/" xmlns:cc="http://creativecommons.org/ns#" xmlns:rdf="http://www.w3.org/1999/02/22-rdf-syntax-ns#">
   <cc:Work>
    <dc:type rdf:resource="http://purl.org/dc/dcmitype/StillImage"/>
    <dc:date>2025-03-13T14:47:33.742589</dc:date>
    <dc:format>image/svg+xml</dc:format>
    <dc:creator>
     <cc:Agent>
      <dc:title>Matplotlib v3.9.2, https://matplotlib.org/</dc:title>
     </cc:Agent>
    </dc:creator>
   </cc:Work>
  </rdf:RDF>
 </metadata>
 <defs>
  <style type="text/css">*{stroke-linejoin: round; stroke-linecap: butt}</style>
 </defs>
 <g id="figure_1">
  <g id="patch_1">
   <path d="M 0 345.6 
L 460.8 345.6 
L 460.8 0 
L 0 0 
z
" style="fill: #ffffff"/>
  </g>
  <g id="axes_1">
   <g id="patch_2">
    <path d="M 68.76 183.828 
C 71.226389 183.828 73.592093 182.848093 75.336093 181.104093 
C 77.080093 179.360093 78.06 176.994389 78.06 174.528 
C 78.06 172.061611 77.080093 169.695907 75.336093 167.951907 
C 73.592093 166.207907 71.226389 165.228 68.76 165.228 
C 66.293611 165.228 63.927907 166.207907 62.183907 167.951907 
C 60.439907 169.695907 59.46 172.061611 59.46 174.528 
C 59.46 176.994389 60.439907 179.360093 62.183907 181.104093 
C 63.927907 182.848093 66.293611 183.828 68.76 183.828 
z
" clip-path="url(#p6e1b4fb776)" style="fill: #313695; stroke: #ffffff; stroke-linejoin: miter"/>
   </g>
   <g id="patch_3">
    <path d="M 87.36 183.828 
C 89.826389 183.828 92.192093 182.848093 93.936093 181.104093 
C 95.680093 179.360093 96.66 176.994389 96.66 174.528 
C 96.66 172.061611 95.680093 169.695907 93.936093 167.951907 
C 92.192093 166.207907 89.826389 165.228 87.36 165.228 
C 84.893611 165.228 82.527907 166.207907 80.783907 167.951907 
C 79.039907 169.695907 78.06 172.061611 78.06 174.528 
C 78.06 176.994389 79.039907 179.360093 80.783907 181.104093 
C 82.527907 182.848093 84.893611 183.828 87.36 183.828 
z
" clip-path="url(#p6e1b4fb776)" style="fill: #313695; stroke: #ffffff; stroke-linejoin: miter"/>
   </g>
   <g id="patch_4">
    <path d="M 105.96 183.828 
C 108.426389 183.828 110.792093 182.848093 112.536093 181.104093 
C 114.280093 179.360093 115.26 176.994389 115.26 174.528 
C 115.26 172.061611 114.280093 169.695907 112.536093 167.951907 
C 110.792093 166.207907 108.426389 165.228 105.96 165.228 
C 103.493611 165.228 101.127907 166.207907 99.383907 167.951907 
C 97.639907 169.695907 96.66 172.061611 96.66 174.528 
C 96.66 176.994389 97.639907 179.360093 99.383907 181.104093 
C 101.127907 182.848093 103.493611 183.828 105.96 183.828 
z
" clip-path="url(#p6e1b4fb776)" style="fill: #313695; stroke: #ffffff; stroke-linejoin: miter"/>
   </g>
   <g id="patch_5">
    <path d="M 124.56 183.828 
C 127.026389 183.828 129.392093 182.848093 131.136093 181.104093 
C 132.880093 179.360093 133.86 176.994389 133.86 174.528 
C 133.86 172.061611 132.880093 169.695907 131.136093 167.951907 
C 129.392093 166.207907 127.026389 165.228 124.56 165.228 
C 122.093611 165.228 119.727907 166.207907 117.983907 167.951907 
C 116.239907 169.695907 115.26 172.061611 115.26 174.528 
C 115.26 176.994389 116.239907 179.360093 117.983907 181.104093 
C 119.727907 182.848093 122.093611 183.828 124.56 183.828 
z
" clip-path="url(#p6e1b4fb776)" style="fill: #6399c7; stroke: #ffffff; stroke-linejoin: miter"/>
   </g>
   <g id="patch_6">
    <path d="M 143.16 183.828 
C 145.626389 183.828 147.992093 182.848093 149.736093 181.104093 
C 151.480093 179.360093 152.46 176.994389 152.46 174.528 
C 152.46 172.061611 151.480093 169.695907 149.736093 167.951907 
C 147.992093 166.207907 145.626389 165.228 143.16 165.228 
C 140.693611 165.228 138.327907 166.207907 136.583907 167.951907 
C 134.839907 169.695907 133.86 172.061611 133.86 174.528 
C 133.86 176.994389 134.839907 179.360093 136.583907 181.104093 
C 138.327907 182.848093 140.693611 183.828 143.16 183.828 
z
" clip-path="url(#p6e1b4fb776)" style="fill: #6399c7; stroke: #ffffff; stroke-linejoin: miter"/>
   </g>
   <g id="patch_7">
    <path d="M 161.76 183.828 
C 164.226389 183.828 166.592093 182.848093 168.336093 181.104093 
C 170.080093 179.360093 171.06 176.994389 171.06 174.528 
C 171.06 172.061611 170.080093 169.695907 168.336093 167.951907 
C 166.592093 166.207907 164.226389 165.228 161.76 165.228 
C 159.293611 165.228 156.927907 166.207907 155.183907 167.951907 
C 153.439907 169.695907 152.46 172.061611 152.46 174.528 
C 152.46 176.994389 153.439907 179.360093 155.183907 181.104093 
C 156.927907 182.848093 159.293611 183.828 161.76 183.828 
z
" clip-path="url(#p6e1b4fb776)" style="fill: #6399c7; stroke: #ffffff; stroke-linejoin: miter"/>
   </g>
   <g id="patch_8">
    <path d="M 180.36 183.828 
C 182.826389 183.828 185.192093 182.848093 186.936093 181.104093 
C 188.680093 179.360093 189.66 176.994389 189.66 174.528 
C 189.66 172.061611 188.680093 169.695907 186.936093 167.951907 
C 185.192093 166.207907 182.826389 165.228 180.36 165.228 
C 177.893611 165.228 175.527907 166.207907 173.783907 167.951907 
C 172.039907 169.695907 171.06 172.061611 171.06 174.528 
C 171.06 176.994389 172.039907 179.360093 173.783907 181.104093 
C 175.527907 182.848093 177.893611 183.828 180.36 183.828 
z
" clip-path="url(#p6e1b4fb776)" style="fill: #bde2ee; stroke: #ffffff; stroke-linejoin: miter"/>
   </g>
   <g id="patch_9">
    <path d="M 198.96 183.828 
C 201.426389 183.828 203.792093 182.848093 205.536093 181.104093 
C 207.280093 179.360093 208.26 176.994389 208.26 174.528 
C 208.26 172.061611 207.280093 169.695907 205.536093 167.951907 
C 203.792093 166.207907 201.426389 165.228 198.96 165.228 
C 196.493611 165.228 194.127907 166.207907 192.383907 167.951907 
C 190.639907 169.695907 189.66 172.061611 189.66 174.528 
C 189.66 176.994389 190.639907 179.360093 192.383907 181.104093 
C 194.127907 182.848093 196.493611 183.828 198.96 183.828 
z
" clip-path="url(#p6e1b4fb776)" style="fill: #bde2ee; stroke: #ffffff; stroke-linejoin: miter"/>
   </g>
   <g id="patch_10">
    <path d="M 217.56 183.828 
C 220.026389 183.828 222.392093 182.848093 224.136093 181.104093 
C 225.880093 179.360093 226.86 176.994389 226.86 174.528 
C 226.86 172.061611 225.880093 169.695907 224.136093 167.951907 
C 222.392093 166.207907 220.026389 165.228 217.56 165.228 
C 215.093611 165.228 212.727907 166.207907 210.983907 167.951907 
C 209.239907 169.695907 208.26 172.061611 208.26 174.528 
C 208.26 176.994389 209.239907 179.360093 210.983907 181.104093 
C 212.727907 182.848093 215.093611 183.828 217.56 183.828 
z
" clip-path="url(#p6e1b4fb776)" style="fill: #bde2ee; stroke: #ffffff; stroke-linejoin: miter"/>
   </g>
   <g id="patch_11">
    <path d="M 236.16 183.828 
C 238.626389 183.828 240.992093 182.848093 242.736093 181.104093 
C 244.480093 179.360093 245.46 176.994389 245.46 174.528 
C 245.46 172.061611 244.480093 169.695907 242.736093 167.951907 
C 240.992093 166.207907 238.626389 165.228 236.16 165.228 
C 233.693611 165.228 231.327907 166.207907 229.583907 167.951907 
C 227.839907 169.695907 226.86 172.061611 226.86 174.528 
C 226.86 176.994389 227.839907 179.360093 229.583907 181.104093 
C 231.327907 182.848093 233.693611 183.828 236.16 183.828 
z
" clip-path="url(#p6e1b4fb776)" style="fill: #fffebe; stroke: #ffffff; stroke-linejoin: miter"/>
   </g>
   <g id="patch_12">
    <path d="M 254.76 183.828 
C 257.226389 183.828 259.592093 182.848093 261.336093 181.104093 
C 263.080093 179.360093 264.06 176.994389 264.06 174.528 
C 264.06 172.061611 263.080093 169.695907 261.336093 167.951907 
C 259.592093 166.207907 257.226389 165.228 254.76 165.228 
C 252.293611 165.228 249.927907 166.207907 248.183907 167.951907 
C 246.439907 169.695907 245.46 172.061611 245.46 174.528 
C 245.46 176.994389 246.439907 179.360093 248.183907 181.104093 
C 249.927907 182.848093 252.293611 183.828 254.76 183.828 
z
" clip-path="url(#p6e1b4fb776)" style="fill: #fffebe; stroke: #ffffff; stroke-linejoin: miter"/>
   </g>
   <g id="patch_13">
    <path d="M 273.36 183.828 
C 275.826389 183.828 278.192093 182.848093 279.936093 181.104093 
C 281.680093 179.360093 282.66 176.994389 282.66 174.528 
C 282.66 172.061611 281.680093 169.695907 279.936093 167.951907 
C 278.192093 166.207907 275.826389 165.228 273.36 165.228 
C 270.893611 165.228 268.527907 166.207907 266.783907 167.951907 
C 265.039907 169.695907 264.06 172.061611 264.06 174.528 
C 264.06 176.994389 265.039907 179.360093 266.783907 181.104093 
C 268.527907 182.848093 270.893611 183.828 273.36 183.828 
z
" clip-path="url(#p6e1b4fb776)" style="fill: #fffebe; stroke: #ffffff; stroke-linejoin: miter"/>
   </g>
   <g id="patch_14">
    <path d="M 291.96 183.828 
C 294.426389 183.828 296.792093 182.848093 298.536093 181.104093 
C 300.280093 179.360093 301.26 176.994389 301.26 174.528 
C 301.26 172.061611 300.280093 169.695907 298.536093 167.951907 
C 296.792093 166.207907 294.426389 165.228 291.96 165.228 
C 289.493611 165.228 287.127907 166.207907 285.383907 167.951907 
C 283.639907 169.695907 282.66 172.061611 282.66 174.528 
C 282.66 176.994389 283.639907 179.360093 285.383907 181.104093 
C 287.127907 182.848093 289.493611 183.828 291.96 183.828 
z
" clip-path="url(#p6e1b4fb776)" style="fill: #fdbf71; stroke: #ffffff; stroke-linejoin: miter"/>
   </g>
   <g id="patch_15">
    <path d="M 310.56 183.828 
C 313.026389 183.828 315.392093 182.848093 317.136093 181.104093 
C 318.880093 179.360093 319.86 176.994389 319.86 174.528 
C 319.86 172.061611 318.880093 169.695907 317.136093 167.951907 
C 315.392093 166.207907 313.026389 165.228 310.56 165.228 
C 308.093611 165.228 305.727907 166.207907 303.983907 167.951907 
C 302.239907 169.695907 301.26 172.061611 301.26 174.528 
C 301.26 176.994389 302.239907 179.360093 303.983907 181.104093 
C 305.727907 182.848093 308.093611 183.828 310.56 183.828 
z
" clip-path="url(#p6e1b4fb776)" style="fill: #fdbf71; stroke: #ffffff; stroke-linejoin: miter"/>
   </g>
   <g id="patch_16">
    <path d="M 329.16 183.828 
C 331.626389 183.828 333.992093 182.848093 335.736093 181.104093 
C 337.480093 179.360093 338.46 176.994389 338.46 174.528 
C 338.46 172.061611 337.480093 169.695907 335.736093 167.951907 
C 333.992093 166.207907 331.626389 165.228 329.16 165.228 
C 326.693611 165.228 324.327907 166.207907 322.583907 167.951907 
C 320.839907 169.695907 319.86 172.061611 319.86 174.528 
C 319.86 176.994389 320.839907 179.360093 322.583907 181.104093 
C 324.327907 182.848093 326.693611 183.828 329.16 183.828 
z
" clip-path="url(#p6e1b4fb776)" style="fill: #fdbf71; stroke: #ffffff; stroke-linejoin: miter"/>
   </g>
   <g id="patch_17">
    <path d="M 347.76 183.828 
C 350.226389 183.828 352.592093 182.848093 354.336093 181.104093 
C 356.080093 179.360093 357.06 176.994389 357.06 174.528 
C 357.06 172.061611 356.080093 169.695907 354.336093 167.951907 
C 352.592093 166.207907 350.226389 165.228 347.76 165.228 
C 345.293611 165.228 342.927907 166.207907 341.183907 167.951907 
C 339.439907 169.695907 338.46 172.061611 338.46 174.528 
C 338.46 176.994389 339.439907 179.360093 341.183907 181.104093 
C 342.927907 182.848093 345.293611 183.828 347.76 183.828 
z
" clip-path="url(#p6e1b4fb776)" style="fill: #ea5739; stroke: #ffffff; stroke-linejoin: miter"/>
   </g>
   <g id="patch_18">
    <path d="M 366.36 183.828 
C 368.826389 183.828 371.192093 182.848093 372.936093 181.104093 
C 374.680093 179.360093 375.66 176.994389 375.66 174.528 
C 375.66 172.061611 374.680093 169.695907 372.936093 167.951907 
C 371.192093 166.207907 368.826389 165.228 366.36 165.228 
C 363.893611 165.228 361.527907 166.207907 359.783907 167.951907 
C 358.039907 169.695907 357.06 172.061611 357.06 174.528 
C 357.06 176.994389 358.039907 179.360093 359.783907 181.104093 
C 361.527907 182.848093 363.893611 183.828 366.36 183.828 
z
" clip-path="url(#p6e1b4fb776)" style="fill: #ea5739; stroke: #ffffff; stroke-linejoin: miter"/>
   </g>
   <g id="patch_19">
    <path d="M 384.96 183.828 
C 387.426389 183.828 389.792093 182.848093 391.536093 181.104093 
C 393.280093 179.360093 394.26 176.994389 394.26 174.528 
C 394.26 172.061611 393.280093 169.695907 391.536093 167.951907 
C 389.792093 166.207907 387.426389 165.228 384.96 165.228 
C 382.493611 165.228 380.127907 166.207907 378.383907 167.951907 
C 376.639907 169.695907 375.66 172.061611 375.66 174.528 
C 375.66 176.994389 376.639907 179.360093 378.383907 181.104093 
C 380.127907 182.848093 382.493611 183.828 384.96 183.828 
z
" clip-path="url(#p6e1b4fb776)" style="fill: #ea5739; stroke: #ffffff; stroke-linejoin: miter"/>
   </g>
   <g id="text_1">
    <!-- -3.0 -->
    <g transform="translate(59.004531 177.287375) scale(0.1 -0.1)">
     <defs>
      <path id="DejaVuSans-2d" d="M 313 2009 
L 1997 2009 
L 1997 1497 
L 313 1497 
L 313 2009 
z
" transform="scale(0.015625)"/>
      <path id="DejaVuSans-33" d="M 2597 2516 
Q 3050 2419 3304 2112 
Q 3559 1806 3559 1356 
Q 3559 666 3084 287 
Q 2609 -91 1734 -91 
Q 1441 -91 1130 -33 
Q 819 25 488 141 
L 488 750 
Q 750 597 1062 519 
Q 1375 441 1716 441 
Q 2309 441 2620 675 
Q 2931 909 2931 1356 
Q 2931 1769 2642 2001 
Q 2353 2234 1838 2234 
L 1294 2234 
L 1294 2753 
L 1863 2753 
Q 2328 2753 2575 2939 
Q 2822 3125 2822 3475 
Q 2822 3834 2567 4026 
Q 2313 4219 1838 4219 
Q 1578 4219 1281 4162 
Q 984 4106 628 3988 
L 628 4550 
Q 988 4650 1302 4700 
Q 1616 4750 1894 4750 
Q 2613 4750 3031 4423 
Q 3450 4097 3450 3541 
Q 3450 3153 3228 2886 
Q 3006 2619 2597 2516 
z
" transform="scale(0.015625)"/>
      <path id="DejaVuSans-2e" d="M 684 794 
L 1344 794 
L 1344 0 
L 684 0 
L 684 794 
z
" transform="scale(0.015625)"/>
      <path id="DejaVuSans-30" d="M 2034 4250 
Q 1547 4250 1301 3770 
Q 1056 3291 1056 2328 
Q 1056 1369 1301 889 
Q 1547 409 2034 409 
Q 2525 409 2770 889 
Q 3016 1369 3016 2328 
Q 3016 3291 2770 3770 
Q 2525 4250 2034 4250 
z
M 2034 4750 
Q 2819 4750 3233 4129 
Q 3647 3509 3647 2328 
Q 3647 1150 3233 529 
Q 2819 -91 2034 -91 
Q 1250 -91 836 529 
Q 422 1150 422 2328 
Q 422 3509 836 4129 
Q 1250 4750 2034 4750 
z
" transform="scale(0.015625)"/>
     </defs>
     <use xlink:href="#DejaVuSans-2d"/>
     <use xlink:href="#DejaVuSans-33" x="36.083984"/>
     <use xlink:href="#DejaVuSans-2e" x="99.707031"/>
     <use xlink:href="#DejaVuSans-30" x="131.494141"/>
    </g>
   </g>
   <g id="text_2">
    <!-- -3.0 -->
    <g transform="translate(77.604531 177.287375) scale(0.1 -0.1)">
     <use xlink:href="#DejaVuSans-2d"/>
     <use xlink:href="#DejaVuSans-33" x="36.083984"/>
     <use xlink:href="#DejaVuSans-2e" x="99.707031"/>
     <use xlink:href="#DejaVuSans-30" x="131.494141"/>
    </g>
   </g>
   <g id="text_3">
    <!-- -3.0 -->
    <g transform="translate(96.204531 177.287375) scale(0.1 -0.1)">
     <use xlink:href="#DejaVuSans-2d"/>
     <use xlink:href="#DejaVuSans-33" x="36.083984"/>
     <use xlink:href="#DejaVuSans-2e" x="99.707031"/>
     <use xlink:href="#DejaVuSans-30" x="131.494141"/>
    </g>
   </g>
   <g id="text_4">
    <!-- -2.0 -->
    <g transform="translate(114.804531 177.287375) scale(0.1 -0.1)">
     <defs>
      <path id="DejaVuSans-32" d="M 1228 531 
L 3431 531 
L 3431 0 
L 469 0 
L 469 531 
Q 828 903 1448 1529 
Q 2069 2156 2228 2338 
Q 2531 2678 2651 2914 
Q 2772 3150 2772 3378 
Q 2772 3750 2511 3984 
Q 2250 4219 1831 4219 
Q 1534 4219 1204 4116 
Q 875 4013 500 3803 
L 500 4441 
Q 881 4594 1212 4672 
Q 1544 4750 1819 4750 
Q 2544 4750 2975 4387 
Q 3406 4025 3406 3419 
Q 3406 3131 3298 2873 
Q 3191 2616 2906 2266 
Q 2828 2175 2409 1742 
Q 1991 1309 1228 531 
z
" transform="scale(0.015625)"/>
     </defs>
     <use xlink:href="#DejaVuSans-2d"/>
     <use xlink:href="#DejaVuSans-32" x="36.083984"/>
     <use xlink:href="#DejaVuSans-2e" x="99.707031"/>
     <use xlink:href="#DejaVuSans-30" x="131.494141"/>
    </g>
   </g>
   <g id="text_5">
    <!-- -2.0 -->
    <g transform="translate(133.404531 177.287375) scale(0.1 -0.1)">
     <use xlink:href="#DejaVuSans-2d"/>
     <use xlink:href="#DejaVuSans-32" x="36.083984"/>
     <use xlink:href="#DejaVuSans-2e" x="99.707031"/>
     <use xlink:href="#DejaVuSans-30" x="131.494141"/>
    </g>
   </g>
   <g id="text_6">
    <!-- -2.0 -->
    <g transform="translate(152.004531 177.287375) scale(0.1 -0.1)">
     <use xlink:href="#DejaVuSans-2d"/>
     <use xlink:href="#DejaVuSans-32" x="36.083984"/>
     <use xlink:href="#DejaVuSans-2e" x="99.707031"/>
     <use xlink:href="#DejaVuSans-30" x="131.494141"/>
    </g>
   </g>
   <g id="text_7">
    <!-- -1.0 -->
    <g transform="translate(170.604531 177.287375) scale(0.1 -0.1)">
     <defs>
      <path id="DejaVuSans-31" d="M 794 531 
L 1825 531 
L 1825 4091 
L 703 3866 
L 703 4441 
L 1819 4666 
L 2450 4666 
L 2450 531 
L 3481 531 
L 3481 0 
L 794 0 
L 794 531 
z
" transform="scale(0.015625)"/>
     </defs>
     <use xlink:href="#DejaVuSans-2d"/>
     <use xlink:href="#DejaVuSans-31" x="36.083984"/>
     <use xlink:href="#DejaVuSans-2e" x="99.707031"/>
     <use xlink:href="#DejaVuSans-30" x="131.494141"/>
    </g>
   </g>
   <g id="text_8">
    <!-- -1.0 -->
    <g transform="translate(189.204531 177.287375) scale(0.1 -0.1)">
     <use xlink:href="#DejaVuSans-2d"/>
     <use xlink:href="#DejaVuSans-31" x="36.083984"/>
     <use xlink:href="#DejaVuSans-2e" x="99.707031"/>
     <use xlink:href="#DejaVuSans-30" x="131.494141"/>
    </g>
   </g>
   <g id="text_9">
    <!-- -1.0 -->
    <g transform="translate(207.804531 177.287375) scale(0.1 -0.1)">
     <use xlink:href="#DejaVuSans-2d"/>
     <use xlink:href="#DejaVuSans-31" x="36.083984"/>
     <use xlink:href="#DejaVuSans-2e" x="99.707031"/>
     <use xlink:href="#DejaVuSans-30" x="131.494141"/>
    </g>
   </g>
   <g id="text_10">
    <!-- 0.0 -->
    <g transform="translate(228.208437 177.287375) scale(0.1 -0.1)">
     <use xlink:href="#DejaVuSans-30"/>
     <use xlink:href="#DejaVuSans-2e" x="63.623047"/>
     <use xlink:href="#DejaVuSans-30" x="95.410156"/>
    </g>
   </g>
   <g id="text_11">
    <!-- 0.0 -->
    <g transform="translate(246.808437 177.287375) scale(0.1 -0.1)">
     <use xlink:href="#DejaVuSans-30"/>
     <use xlink:href="#DejaVuSans-2e" x="63.623047"/>
     <use xlink:href="#DejaVuSans-30" x="95.410156"/>
    </g>
   </g>
   <g id="text_12">
    <!-- 0.0 -->
    <g transform="translate(265.408437 177.287375) scale(0.1 -0.1)">
     <use xlink:href="#DejaVuSans-30"/>
     <use xlink:href="#DejaVuSans-2e" x="63.623047"/>
     <use xlink:href="#DejaVuSans-30" x="95.410156"/>
    </g>
   </g>
   <g id="text_13">
    <!-- 1.0 -->
    <g transform="translate(284.008437 177.287375) scale(0.1 -0.1)">
     <use xlink:href="#DejaVuSans-31"/>
     <use xlink:href="#DejaVuSans-2e" x="63.623047"/>
     <use xlink:href="#DejaVuSans-30" x="95.410156"/>
    </g>
   </g>
   <g id="text_14">
    <!-- 1.0 -->
    <g transform="translate(302.608437 177.287375) scale(0.1 -0.1)">
     <use xlink:href="#DejaVuSans-31"/>
     <use xlink:href="#DejaVuSans-2e" x="63.623047"/>
     <use xlink:href="#DejaVuSans-30" x="95.410156"/>
    </g>
   </g>
   <g id="text_15">
    <!-- 1.0 -->
    <g transform="translate(321.208437 177.287375) scale(0.1 -0.1)">
     <use xlink:href="#DejaVuSans-31"/>
     <use xlink:href="#DejaVuSans-2e" x="63.623047"/>
     <use xlink:href="#DejaVuSans-30" x="95.410156"/>
    </g>
   </g>
   <g id="text_16">
    <!-- 2.0 -->
    <g transform="translate(339.808437 177.287375) scale(0.1 -0.1)">
     <use xlink:href="#DejaVuSans-32"/>
     <use xlink:href="#DejaVuSans-2e" x="63.623047"/>
     <use xlink:href="#DejaVuSans-30" x="95.410156"/>
    </g>
   </g>
   <g id="text_17">
    <!-- 2.0 -->
    <g transform="translate(358.408437 177.287375) scale(0.1 -0.1)">
     <use xlink:href="#DejaVuSans-32"/>
     <use xlink:href="#DejaVuSans-2e" x="63.623047"/>
     <use xlink:href="#DejaVuSans-30" x="95.410156"/>
    </g>
   </g>
   <g id="text_18">
    <!-- 2.0 -->
    <g transform="translate(377.008437 177.287375) scale(0.1 -0.1)">
     <use xlink:href="#DejaVuSans-32"/>
     <use xlink:href="#DejaVuSans-2e" x="63.623047"/>
     <use xlink:href="#DejaVuSans-30" x="95.410156"/>
    </g>
   </g>
  </g>
 </g>
 <defs>
  <clipPath id="p6e1b4fb776">
   <rect x="57.6" y="163.368" width="357.12" height="22.32"/>
  </clipPath>
 </defs>
</svg>
