<?xml version="1.0" encoding="utf-8" standalone="no"?>
<!DOCTYPE svg PUBLIC "-//W3C//DTD SVG 1.1//EN"
  "http://www.w3.org/Graphics/SVG/1.1/DTD/svg11.dtd">
<svg xmlns:xlink="http://www.w3.org/1999/xlink" width="460.8pt" height="345.6pt" viewBox="0 0 460.8 345.6" xmlns="http://www.w3.org/2000/svg" version="1.1">
 <metadata>
  <rdf:RDF xmlns:dc="http://purl.org/dc/elements/1.1/" xmlns:cc="http://creativecommons.org/ns#" xmlns:rdf="http://www.w3.org/1999/02/22-rdf-syntax-ns#">
   <cc:Work>
    <dc:type rdf:resource="http://purl.org/dc/dcmitype/StillImage"/>
    <dc:date>2025-04-10T17:06:15.124265</dc:date>
    <dc:format>image/svg+xml</dc:format>
    <dc:creator>
     <cc:Agent>
      <dc:title>Matplotlib v3.9.2, https://matplotlib.org/</dc:title>
     </cc:Agent>
    </dc:creator>
   </cc:Work>
  </rdf:RDF>
 </metadata>
 <defs>
  <style type="text/css">*{stroke-linejoin: round; stroke-linecap: butt}</style>
 </defs>
 <g id="figure_1">
  <g id="patch_1">
   <path d="M 0 345.6 
L 460.8 345.6 
L 460.8 0 
L 0 0 
z
" style="fill: #ffffff"/>
  </g>
  <g id="patch_2">
   <path d="M 103.104 307.584 
L 369.216 307.584 
L 369.216 41.472 
L 103.104 41.472 
z
" style="fill: #ffffff"/>
  </g>
  <g id="pane3d_1">
   <g id="patch_3">
    <path d="M 347.853082 253.944876 
L 268.720605 185.41414 
L 268.720605 48.35267 
L 347.853082 116.883405 
" style="fill: #f2f2f2; opacity: 0.5; stroke: #f2f2f2; stroke-linejoin: miter"/>
   </g>
  </g>
  <g id="pane3d_2">
   <g id="patch_4">
    <path d="M 131.659134 224.980379 
L 268.720605 185.41414 
L 268.720605 48.35267 
L 131.659134 87.918908 
" style="fill: #e6e6e6; opacity: 0.5; stroke: #e6e6e6; stroke-linejoin: miter"/>
   </g>
  </g>
  <g id="pane3d_3">
   <g id="patch_5">
    <path d="M 210.791611 293.511114 
L 347.853082 253.944876 
L 268.720605 185.41414 
L 131.659134 224.980379 
" style="fill: #ececec; opacity: 0.5; stroke: #ececec; stroke-linejoin: miter"/>
   </g>
  </g>
  <g id="axis3d_1">
   <g id="line2d_1">
    <path d="M 347.853082 253.944876 
L 210.791611 293.511114 
" style="fill: none; stroke: #000000; stroke-width: 0.8; stroke-linecap: square"/>
   </g>
   <g id="xtick_1">
    <g id="line2d_2">
     <path d="M 210.158551 292.962868 
L 212.057731 294.607606 
" style="fill: none; stroke: #000000; stroke-width: 0.8; stroke-linecap: square"/>
    </g>
    <g id="text_1">
     <!-- −3 -->
     <g transform="translate(209.986344 318.168068) scale(0.1 -0.1)">
      <defs>
       <path id="DejaVuSans-2212" d="M 678 2272 
L 4684 2272 
L 4684 1741 
L 678 1741 
L 678 2272 
z
" transform="scale(0.015625)"/>
       <path id="DejaVuSans-33" d="M 2597 2516 
Q 3050 2419 3304 2112 
Q 3559 1806 3559 1356 
Q 3559 666 3084 287 
Q 2609 -91 1734 -91 
Q 1441 -91 1130 -33 
Q 819 25 488 141 
L 488 750 
Q 750 597 1062 519 
Q 1375 441 1716 441 
Q 2309 441 2620 675 
Q 2931 909 2931 1356 
Q 2931 1769 2642 2001 
Q 2353 2234 1838 2234 
L 1294 2234 
L 1294 2753 
L 1863 2753 
Q 2328 2753 2575 2939 
Q 2822 3125 2822 3475 
Q 2822 3834 2567 4026 
Q 2313 4219 1838 4219 
Q 1578 4219 1281 4162 
Q 984 4106 628 3988 
L 628 4550 
Q 988 4650 1302 4700 
Q 1616 4750 1894 4750 
Q 2613 4750 3031 4423 
Q 3450 4097 3450 3541 
Q 3450 3153 3228 2886 
Q 3006 2619 2597 2516 
z
" transform="scale(0.015625)"/>
      </defs>
      <use xlink:href="#DejaVuSans-2212"/>
      <use xlink:href="#DejaVuSans-33" x="83.789062"/>
     </g>
    </g>
   </g>
   <g id="xtick_2">
    <g id="line2d_3">
     <path d="M 233.00213 286.368495 
L 234.901309 288.013233 
" style="fill: none; stroke: #000000; stroke-width: 0.8; stroke-linecap: square"/>
    </g>
    <g id="text_2">
     <!-- −2 -->
     <g transform="translate(232.829922 311.573695) scale(0.1 -0.1)">
      <defs>
       <path id="DejaVuSans-32" d="M 1228 531 
L 3431 531 
L 3431 0 
L 469 0 
L 469 531 
Q 828 903 1448 1529 
Q 2069 2156 2228 2338 
Q 2531 2678 2651 2914 
Q 2772 3150 2772 3378 
Q 2772 3750 2511 3984 
Q 2250 4219 1831 4219 
Q 1534 4219 1204 4116 
Q 875 4013 500 3803 
L 500 4441 
Q 881 4594 1212 4672 
Q 1544 4750 1819 4750 
Q 2544 4750 2975 4387 
Q 3406 4025 3406 3419 
Q 3406 3131 3298 2873 
Q 3191 2616 2906 2266 
Q 2828 2175 2409 1742 
Q 1991 1309 1228 531 
z
" transform="scale(0.015625)"/>
      </defs>
      <use xlink:href="#DejaVuSans-2212"/>
      <use xlink:href="#DejaVuSans-32" x="83.789062"/>
     </g>
    </g>
   </g>
   <g id="xtick_3">
    <g id="line2d_4">
     <path d="M 255.845708 279.774122 
L 257.744888 281.41886 
" style="fill: none; stroke: #000000; stroke-width: 0.8; stroke-linecap: square"/>
    </g>
    <g id="text_3">
     <!-- −1 -->
     <g transform="translate(255.6735 304.979322) scale(0.1 -0.1)">
      <defs>
       <path id="DejaVuSans-31" d="M 794 531 
L 1825 531 
L 1825 4091 
L 703 3866 
L 703 4441 
L 1819 4666 
L 2450 4666 
L 2450 531 
L 3481 531 
L 3481 0 
L 794 0 
L 794 531 
z
" transform="scale(0.015625)"/>
      </defs>
      <use xlink:href="#DejaVuSans-2212"/>
      <use xlink:href="#DejaVuSans-31" x="83.789062"/>
     </g>
    </g>
   </g>
   <g id="xtick_4">
    <g id="line2d_5">
     <path d="M 278.689287 273.179749 
L 280.588466 274.824487 
" style="fill: none; stroke: #000000; stroke-width: 0.8; stroke-linecap: square"/>
    </g>
    <g id="text_4">
     <!-- 0 -->
     <g transform="translate(282.706923 298.384949) scale(0.1 -0.1)">
      <defs>
       <path id="DejaVuSans-30" d="M 2034 4250 
Q 1547 4250 1301 3770 
Q 1056 3291 1056 2328 
Q 1056 1369 1301 889 
Q 1547 409 2034 409 
Q 2525 409 2770 889 
Q 3016 1369 3016 2328 
Q 3016 3291 2770 3770 
Q 2525 4250 2034 4250 
z
M 2034 4750 
Q 2819 4750 3233 4129 
Q 3647 3509 3647 2328 
Q 3647 1150 3233 529 
Q 2819 -91 2034 -91 
Q 1250 -91 836 529 
Q 422 1150 422 2328 
Q 422 3509 836 4129 
Q 1250 4750 2034 4750 
z
" transform="scale(0.015625)"/>
      </defs>
      <use xlink:href="#DejaVuSans-30"/>
     </g>
    </g>
   </g>
   <g id="xtick_5">
    <g id="line2d_6">
     <path d="M 301.532865 266.585376 
L 303.432045 268.230113 
" style="fill: none; stroke: #000000; stroke-width: 0.8; stroke-linecap: square"/>
    </g>
    <g id="text_5">
     <!-- 1 -->
     <g transform="translate(305.550501 291.790576) scale(0.1 -0.1)">
      <use xlink:href="#DejaVuSans-31"/>
     </g>
    </g>
   </g>
   <g id="xtick_6">
    <g id="line2d_7">
     <path d="M 324.376444 259.991003 
L 326.275623 261.63574 
" style="fill: none; stroke: #000000; stroke-width: 0.8; stroke-linecap: square"/>
    </g>
    <g id="text_6">
     <!-- 2 -->
     <g transform="translate(328.394079 285.196202) scale(0.1 -0.1)">
      <use xlink:href="#DejaVuSans-32"/>
     </g>
    </g>
   </g>
   <g id="xtick_7">
    <g id="line2d_8">
     <path d="M 347.220022 253.39663 
L 349.119201 255.041367 
" style="fill: none; stroke: #000000; stroke-width: 0.8; stroke-linecap: square"/>
    </g>
    <g id="text_7">
     <!-- 3 -->
     <g transform="translate(351.237658 278.601829) scale(0.1 -0.1)">
      <use xlink:href="#DejaVuSans-33"/>
     </g>
    </g>
   </g>
   <g id="text_8">
    <!-- x1 -->
    <g transform="translate(287.455256 313.571101) scale(0.1 -0.1)">
     <defs>
      <path id="DejaVuSans-78" d="M 3513 3500 
L 2247 1797 
L 3578 0 
L 2900 0 
L 1881 1375 
L 863 0 
L 184 0 
L 1544 1831 
L 300 3500 
L 978 3500 
L 1906 2253 
L 2834 3500 
L 3513 3500 
z
" transform="scale(0.015625)"/>
     </defs>
     <use xlink:href="#DejaVuSans-78"/>
     <use xlink:href="#DejaVuSans-31" x="59.179688"/>
    </g>
   </g>
  </g>
  <g id="axis3d_2">
   <g id="line2d_9">
    <path d="M 131.659134 224.980379 
L 210.791611 293.511114 
" style="fill: none; stroke: #000000; stroke-width: 0.8; stroke-linecap: square"/>
   </g>
   <g id="xtick_8">
    <g id="line2d_10">
     <path d="M 211.888103 293.194584 
L 208.598628 294.144174 
" style="fill: none; stroke: #000000; stroke-width: 0.8; stroke-linecap: square"/>
    </g>
    <g id="text_9">
     <!-- −3 -->
     <g transform="translate(192.048173 315.764809) scale(0.1 -0.1)">
      <use xlink:href="#DejaVuSans-2212"/>
      <use xlink:href="#DejaVuSans-33" x="83.789062"/>
     </g>
    </g>
   </g>
   <g id="xtick_9">
    <g id="line2d_11">
     <path d="M 198.699357 281.772795 
L 195.409882 282.722385 
" style="fill: none; stroke: #000000; stroke-width: 0.8; stroke-linecap: square"/>
    </g>
    <g id="text_10">
     <!-- −2 -->
     <g transform="translate(178.859427 304.34302) scale(0.1 -0.1)">
      <use xlink:href="#DejaVuSans-2212"/>
      <use xlink:href="#DejaVuSans-32" x="83.789062"/>
     </g>
    </g>
   </g>
   <g id="xtick_10">
    <g id="line2d_12">
     <path d="M 185.510611 270.351006 
L 182.221135 271.300595 
" style="fill: none; stroke: #000000; stroke-width: 0.8; stroke-linecap: square"/>
    </g>
    <g id="text_11">
     <!-- −1 -->
     <g transform="translate(165.670681 292.92123) scale(0.1 -0.1)">
      <use xlink:href="#DejaVuSans-2212"/>
      <use xlink:href="#DejaVuSans-31" x="83.789062"/>
     </g>
    </g>
   </g>
   <g id="xtick_11">
    <g id="line2d_13">
     <path d="M 172.321865 258.929216 
L 169.032389 259.878806 
" style="fill: none; stroke: #000000; stroke-width: 0.8; stroke-linecap: square"/>
    </g>
    <g id="text_12">
     <!-- 0 -->
     <g transform="translate(156.671779 281.499441) scale(0.1 -0.1)">
      <use xlink:href="#DejaVuSans-30"/>
     </g>
    </g>
   </g>
   <g id="xtick_12">
    <g id="line2d_14">
     <path d="M 159.133118 247.507427 
L 155.843643 248.457017 
" style="fill: none; stroke: #000000; stroke-width: 0.8; stroke-linecap: square"/>
    </g>
    <g id="text_13">
     <!-- 1 -->
     <g transform="translate(143.483032 270.077652) scale(0.1 -0.1)">
      <use xlink:href="#DejaVuSans-31"/>
     </g>
    </g>
   </g>
   <g id="xtick_13">
    <g id="line2d_15">
     <path d="M 145.944372 236.085638 
L 142.654897 237.035228 
" style="fill: none; stroke: #000000; stroke-width: 0.8; stroke-linecap: square"/>
    </g>
    <g id="text_14">
     <!-- 2 -->
     <g transform="translate(130.294286 258.655863) scale(0.1 -0.1)">
      <use xlink:href="#DejaVuSans-32"/>
     </g>
    </g>
   </g>
   <g id="xtick_14">
    <g id="line2d_16">
     <path d="M 132.755626 224.663849 
L 129.466151 225.613439 
" style="fill: none; stroke: #000000; stroke-width: 0.8; stroke-linecap: square"/>
    </g>
    <g id="text_15">
     <!-- 3 -->
     <g transform="translate(117.10554 247.234073) scale(0.1 -0.1)">
      <use xlink:href="#DejaVuSans-33"/>
     </g>
    </g>
   </g>
   <g id="text_16">
    <!-- x2 -->
    <g transform="translate(140.36226 293.864376) scale(0.1 -0.1)">
     <use xlink:href="#DejaVuSans-78"/>
     <use xlink:href="#DejaVuSans-32" x="59.179688"/>
    </g>
   </g>
  </g>
  <g id="axis3d_3">
   <g id="line2d_17">
    <path d="M 131.659134 224.980379 
L 131.659134 87.918908 
" style="fill: none; stroke: #000000; stroke-width: 0.8; stroke-linecap: square"/>
   </g>
   <g id="xtick_15">
    <g id="line2d_18">
     <path d="M 132.755626 224.663849 
L 129.466151 225.613439 
" style="fill: none; stroke: #000000; stroke-width: 0.8; stroke-linecap: square"/>
    </g>
    <g id="text_17">
     <!-- 0.0 -->
     <g transform="translate(105.769402 230.175557) scale(0.1 -0.1)">
      <defs>
       <path id="DejaVuSans-2e" d="M 684 794 
L 1344 794 
L 1344 0 
L 684 0 
L 684 794 
z
" transform="scale(0.015625)"/>
      </defs>
      <use xlink:href="#DejaVuSans-30"/>
      <use xlink:href="#DejaVuSans-2e" x="63.623047"/>
      <use xlink:href="#DejaVuSans-30" x="95.410156"/>
     </g>
    </g>
   </g>
   <g id="xtick_16">
    <g id="line2d_19">
     <path d="M 132.755626 197.251555 
L 129.466151 198.201144 
" style="fill: none; stroke: #000000; stroke-width: 0.8; stroke-linecap: square"/>
    </g>
    <g id="text_18">
     <!-- 0.2 -->
     <g transform="translate(105.769402 202.763263) scale(0.1 -0.1)">
      <use xlink:href="#DejaVuSans-30"/>
      <use xlink:href="#DejaVuSans-2e" x="63.623047"/>
      <use xlink:href="#DejaVuSans-32" x="95.410156"/>
     </g>
    </g>
   </g>
   <g id="xtick_17">
    <g id="line2d_20">
     <path d="M 132.755626 169.839261 
L 129.466151 170.78885 
" style="fill: none; stroke: #000000; stroke-width: 0.8; stroke-linecap: square"/>
    </g>
    <g id="text_19">
     <!-- 0.4 -->
     <g transform="translate(105.769402 175.350969) scale(0.1 -0.1)">
      <defs>
       <path id="DejaVuSans-34" d="M 2419 4116 
L 825 1625 
L 2419 1625 
L 2419 4116 
z
M 2253 4666 
L 3047 4666 
L 3047 1625 
L 3713 1625 
L 3713 1100 
L 3047 1100 
L 3047 0 
L 2419 0 
L 2419 1100 
L 313 1100 
L 313 1709 
L 2253 4666 
z
" transform="scale(0.015625)"/>
      </defs>
      <use xlink:href="#DejaVuSans-30"/>
      <use xlink:href="#DejaVuSans-2e" x="63.623047"/>
      <use xlink:href="#DejaVuSans-34" x="95.410156"/>
     </g>
    </g>
   </g>
   <g id="xtick_18">
    <g id="line2d_21">
     <path d="M 132.755626 142.426967 
L 129.466151 143.376556 
" style="fill: none; stroke: #000000; stroke-width: 0.8; stroke-linecap: square"/>
    </g>
    <g id="text_20">
     <!-- 0.6 -->
     <g transform="translate(105.769402 147.938675) scale(0.1 -0.1)">
      <defs>
       <path id="DejaVuSans-36" d="M 2113 2584 
Q 1688 2584 1439 2293 
Q 1191 2003 1191 1497 
Q 1191 994 1439 701 
Q 1688 409 2113 409 
Q 2538 409 2786 701 
Q 3034 994 3034 1497 
Q 3034 2003 2786 2293 
Q 2538 2584 2113 2584 
z
M 3366 4563 
L 3366 3988 
Q 3128 4100 2886 4159 
Q 2644 4219 2406 4219 
Q 1781 4219 1451 3797 
Q 1122 3375 1075 2522 
Q 1259 2794 1537 2939 
Q 1816 3084 2150 3084 
Q 2853 3084 3261 2657 
Q 3669 2231 3669 1497 
Q 3669 778 3244 343 
Q 2819 -91 2113 -91 
Q 1303 -91 875 529 
Q 447 1150 447 2328 
Q 447 3434 972 4092 
Q 1497 4750 2381 4750 
Q 2619 4750 2861 4703 
Q 3103 4656 3366 4563 
z
" transform="scale(0.015625)"/>
      </defs>
      <use xlink:href="#DejaVuSans-30"/>
      <use xlink:href="#DejaVuSans-2e" x="63.623047"/>
      <use xlink:href="#DejaVuSans-36" x="95.410156"/>
     </g>
    </g>
   </g>
   <g id="xtick_19">
    <g id="line2d_22">
     <path d="M 132.755626 115.014672 
L 129.466151 115.964262 
" style="fill: none; stroke: #000000; stroke-width: 0.8; stroke-linecap: square"/>
    </g>
    <g id="text_21">
     <!-- 0.8 -->
     <g transform="translate(105.769402 120.526381) scale(0.1 -0.1)">
      <defs>
       <path id="DejaVuSans-38" d="M 2034 2216 
Q 1584 2216 1326 1975 
Q 1069 1734 1069 1313 
Q 1069 891 1326 650 
Q 1584 409 2034 409 
Q 2484 409 2743 651 
Q 3003 894 3003 1313 
Q 3003 1734 2745 1975 
Q 2488 2216 2034 2216 
z
M 1403 2484 
Q 997 2584 770 2862 
Q 544 3141 544 3541 
Q 544 4100 942 4425 
Q 1341 4750 2034 4750 
Q 2731 4750 3128 4425 
Q 3525 4100 3525 3541 
Q 3525 3141 3298 2862 
Q 3072 2584 2669 2484 
Q 3125 2378 3379 2068 
Q 3634 1759 3634 1313 
Q 3634 634 3220 271 
Q 2806 -91 2034 -91 
Q 1263 -91 848 271 
Q 434 634 434 1313 
Q 434 1759 690 2068 
Q 947 2378 1403 2484 
z
M 1172 3481 
Q 1172 3119 1398 2916 
Q 1625 2713 2034 2713 
Q 2441 2713 2670 2916 
Q 2900 3119 2900 3481 
Q 2900 3844 2670 4047 
Q 2441 4250 2034 4250 
Q 1625 4250 1398 4047 
Q 1172 3844 1172 3481 
z
" transform="scale(0.015625)"/>
      </defs>
      <use xlink:href="#DejaVuSans-30"/>
      <use xlink:href="#DejaVuSans-2e" x="63.623047"/>
      <use xlink:href="#DejaVuSans-38" x="95.410156"/>
     </g>
    </g>
   </g>
   <g id="xtick_20">
    <g id="line2d_23">
     <path d="M 132.755626 87.602378 
L 129.466151 88.551968 
" style="fill: none; stroke: #000000; stroke-width: 0.8; stroke-linecap: square"/>
    </g>
    <g id="text_22">
     <!-- 1.0 -->
     <g transform="translate(105.769402 93.114087) scale(0.1 -0.1)">
      <use xlink:href="#DejaVuSans-31"/>
      <use xlink:href="#DejaVuSans-2e" x="63.623047"/>
      <use xlink:href="#DejaVuSans-30" x="95.410156"/>
     </g>
    </g>
   </g>
   <g id="text_23">
    <!-- f(x1,x2) -->
    <g transform="translate(95.422487 170.757198) rotate(-90) scale(0.1 -0.1)">
     <defs>
      <path id="DejaVuSans-66" d="M 2375 4863 
L 2375 4384 
L 1825 4384 
Q 1516 4384 1395 4259 
Q 1275 4134 1275 3809 
L 1275 3500 
L 2222 3500 
L 2222 3053 
L 1275 3053 
L 1275 0 
L 697 0 
L 697 3053 
L 147 3053 
L 147 3500 
L 697 3500 
L 697 3744 
Q 697 4328 969 4595 
Q 1241 4863 1831 4863 
L 2375 4863 
z
" transform="scale(0.015625)"/>
      <path id="DejaVuSans-28" d="M 1984 4856 
Q 1566 4138 1362 3434 
Q 1159 2731 1159 2009 
Q 1159 1288 1364 580 
Q 1569 -128 1984 -844 
L 1484 -844 
Q 1016 -109 783 600 
Q 550 1309 550 2009 
Q 550 2706 781 3412 
Q 1013 4119 1484 4856 
L 1984 4856 
z
" transform="scale(0.015625)"/>
      <path id="DejaVuSans-2c" d="M 750 794 
L 1409 794 
L 1409 256 
L 897 -744 
L 494 -744 
L 750 256 
L 750 794 
z
" transform="scale(0.015625)"/>
      <path id="DejaVuSans-29" d="M 513 4856 
L 1013 4856 
Q 1481 4119 1714 3412 
Q 1947 2706 1947 2009 
Q 1947 1309 1714 600 
Q 1481 -109 1013 -844 
L 513 -844 
Q 928 -128 1133 580 
Q 1338 1288 1338 2009 
Q 1338 2731 1133 3434 
Q 928 4138 513 4856 
z
" transform="scale(0.015625)"/>
     </defs>
     <use xlink:href="#DejaVuSans-66"/>
     <use xlink:href="#DejaVuSans-28" x="35.205078"/>
     <use xlink:href="#DejaVuSans-78" x="74.21875"/>
     <use xlink:href="#DejaVuSans-31" x="133.398438"/>
     <use xlink:href="#DejaVuSans-2c" x="197.021484"/>
     <use xlink:href="#DejaVuSans-78" x="228.808594"/>
     <use xlink:href="#DejaVuSans-32" x="287.988281"/>
     <use xlink:href="#DejaVuSans-29" x="351.611328"/>
    </g>
   </g>
  </g>
  <g id="axes_1">
   <g id="Line3DCollection_1">
    <path d="M 210.791611 293.511112 
L 347.853082 253.944873 
L 347.853082 253.944873 
" clip-path="url(#p7c79977eba)" style="fill: none; stroke: #1f77b4; stroke-width: 1.5"/>
    <path d="M 206.834987 290.084566 
L 343.896458 250.518327 
L 343.896458 250.518327 
" clip-path="url(#p7c79977eba)" style="fill: none; stroke: #1f77b4; stroke-width: 1.5"/>
    <path d="M 202.878364 286.657987 
L 244.682112 274.480469 
L 278.262172 264.501886 
L 324.863072 251.44228 
L 339.939834 247.091749 
L 339.939834 247.091749 
" clip-path="url(#p7c79977eba)" style="fill: none; stroke: #1f77b4; stroke-width: 1.5"/>
    <path d="M 198.92174 283.231298 
L 229.760571 274.219626 
L 240.040181 270.966909 
L 249.634484 267.68532 
L 261.970016 263.458278 
L 268.137782 261.586045 
L 274.305549 259.947457 
L 282.529237 258.018398 
L 295.550076 254.970334 
L 305.144379 252.458195 
L 318.850526 248.6005 
L 335.98321 243.66506 
L 335.98321 243.66506 
" clip-path="url(#p7c79977eba)" style="fill: none; stroke: #1f77b4; stroke-width: 1.5"/>
    <path d="M 194.965116 279.804304 
L 218.950873 272.761092 
L 226.489254 270.315652 
L 231.971713 268.322744 
L 237.454172 266.075935 
L 242.936631 263.568847 
L 256.642778 257.094304 
L 260.069314 255.762571 
L 263.495851 254.653987 
L 266.922388 253.784259 
L 270.348925 253.13768 
L 274.460769 252.593308 
L 281.99915 251.895178 
L 288.166916 251.22791 
L 292.964067 250.498643 
L 298.446526 249.415849 
L 304.614292 247.94175 
L 312.837981 245.727471 
L 330.655972 240.633445 
L 332.026586 240.238066 
L 332.026586 240.238066 
" clip-path="url(#p7c79977eba)" style="fill: none; stroke: #1f77b4; stroke-width: 1.5"/>
    <path d="M 191.008492 276.376647 
L 209.511791 270.917635 
L 215.679557 268.894456 
L 220.476708 267.095741 
L 224.588552 265.294388 
L 228.015089 263.544338 
L 231.441626 261.524328 
L 234.868163 259.217449 
L 238.294699 256.644886 
L 243.091851 252.74096 
L 248.57431 248.287231 
L 251.315539 246.279092 
L 254.056769 244.540376 
L 256.112691 243.459704 
L 258.168613 242.596713 
L 260.224535 241.964303 
L 262.280457 241.564348 
L 264.336379 241.387553 
L 266.392301 241.414191 
L 269.13353 241.715699 
L 272.560067 242.39772 
L 282.839677 244.765025 
L 286.266214 245.204981 
L 289.007443 245.353028 
L 292.43398 245.283063 
L 295.860517 244.957301 
L 299.972361 244.293545 
L 304.769513 243.251939 
L 310.937279 241.666531 
L 322.587504 238.387738 
L 328.069963 236.810409 
L 328.069963 236.810409 
" clip-path="url(#p7c79977eba)" style="fill: none; stroke: #1f77b4; stroke-width: 1.5"/>
    <path d="M 187.051868 272.947886 
L 202.12863 268.463617 
L 207.611089 266.622234 
L 211.722933 265.016113 
L 215.14947 263.425248 
L 217.890699 261.915636 
L 220.631929 260.132867 
L 223.373158 258.019396 
L 225.42908 256.187219 
L 227.485002 254.12687 
L 230.226231 251.016628 
L 232.967461 247.510695 
L 236.393998 242.672155 
L 245.302993 229.615437 
L 247.358915 227.016362 
L 249.414837 224.758688 
L 251.470759 222.917379 
L 252.841374 221.950702 
L 254.211989 221.207465 
L 255.582603 220.695107 
L 256.953218 220.41614 
L 258.323833 220.368052 
L 259.694448 220.543405 
L 261.065062 220.930091 
L 262.435677 221.511765 
L 264.491599 222.705259 
L 266.547521 224.212374 
L 269.288751 226.556042 
L 277.512439 233.917491 
L 280.253668 235.93175 
L 282.30959 237.192491 
L 284.365512 238.221739 
L 286.421434 239.017938 
L 288.477356 239.589887 
L 290.533278 239.954086 
L 292.589201 240.132093 
L 295.33043 240.121809 
L 298.071659 239.882192 
L 301.498196 239.342687 
L 305.61004 238.458803 
L 311.777806 236.87017 
L 323.428031 233.578693 
L 324.113339 233.381647 
L 324.113339 233.381647 
" clip-path="url(#p7c79977eba)" style="fill: none; stroke: #1f77b4; stroke-width: 1.5"/>
    <path d="M 183.095244 269.517832 
L 195.430777 265.820859 
L 200.913236 263.940419 
L 204.339772 262.552688 
L 207.081002 261.24066 
L 209.822231 259.668391 
L 211.878153 258.263423 
L 213.934075 256.616407 
L 215.989997 254.680888 
L 218.045919 252.410584 
L 220.101841 249.762878 
L 222.157763 246.703089 
L 224.213686 243.209312 
L 226.269608 239.277452 
L 228.32553 234.925959 
L 231.066759 228.552886 
L 234.493296 219.946706 
L 239.975755 206.096817 
L 242.031677 201.399352 
L 244.087599 197.236658 
L 245.458213 194.836591 
L 246.828828 192.784632 
L 248.199443 191.115064 
L 249.570058 189.854716 
L 250.940672 189.022019 
L 252.311287 188.626356 
L 253.681902 188.667729 
L 255.052516 189.136752 
L 256.423131 190.014995 
L 257.793746 191.275629 
L 259.164361 192.884372 
L 260.534975 194.800662 
L 262.590897 198.151294 
L 265.332127 203.246264 
L 273.555815 219.151624 
L 275.611737 222.572707 
L 277.667659 225.60095 
L 279.723581 228.200641 
L 281.779503 230.361331 
L 283.835425 232.093604 
L 285.891347 233.424181 
L 287.947269 234.390906 
L 290.003191 235.038055 
L 292.059113 235.412315 
L 294.115035 235.559573 
L 296.856265 235.476093 
L 299.597494 235.152917 
L 303.024031 234.518957 
L 307.821183 233.376544 
L 315.359563 231.318553 
L 320.156715 229.951594 
L 320.156715 229.951594 
" clip-path="url(#p7c79977eba)" style="fill: none; stroke: #1f77b4; stroke-width: 1.5"/>
    <path d="M 179.138621 266.087019 
L 189.418231 262.987945 
L 194.215382 261.346085 
L 197.641919 259.967337 
L 200.383148 258.648825 
L 203.124378 257.040875 
L 205.1803 255.574576 
L 207.236222 253.819352 
L 209.292144 251.708119 
L 211.348066 249.16891 
L 213.403988 246.128508 
L 215.45991 242.51747 
L 217.515832 238.276448 
L 219.571754 233.363536 
L 221.627676 227.762131 
L 223.683598 221.488624 
L 225.739521 214.599022 
L 228.48075 204.634408 
L 237.389746 171.187897 
L 239.445668 164.688607 
L 240.816282 160.89976 
L 242.186897 157.626153 
L 243.557512 154.926726 
L 244.928126 152.849609 
L 246.298741 151.430449 
L 246.984048 150.975012 
L 247.669356 150.691157 
L 248.354663 150.57935 
L 249.039971 150.639125 
L 249.725278 150.869094 
L 250.410585 151.266959 
L 251.095893 151.829529 
L 252.466507 153.431748 
L 253.837122 155.633676 
L 255.207737 158.381546 
L 256.578351 161.611747 
L 258.634273 167.203873 
L 261.375503 175.644097 
L 269.599191 201.937826 
L 271.655113 207.640441 
L 273.711035 212.726961 
L 275.766957 217.141378 
L 277.822879 220.867304 
L 279.193494 222.975827 
L 280.564109 224.796707 
L 281.934723 226.345388 
L 283.305338 227.640249 
L 284.675953 228.70164 
L 286.046568 229.551026 
L 287.417182 230.210229 
L 289.473104 230.88938 
L 291.529026 231.257956 
L 293.584948 231.378429 
L 295.64087 231.305184 
L 298.3821 230.984055 
L 301.808637 230.339356 
L 306.605788 229.179267 
L 314.829476 226.91139 
L 316.200091 226.52078 
L 316.200091 226.52078 
" clip-path="url(#p7c79977eba)" style="fill: none; stroke: #1f77b4; stroke-width: 1.5"/>
    <path d="M 175.181997 262.656824 
L 184.7763 259.741585 
L 189.573451 258.062379 
L 192.999988 256.621996 
L 195.741217 255.214732 
L 197.797139 253.939731 
L 199.853061 252.410967 
L 201.908983 250.557197 
L 203.964906 248.296584 
L 205.33552 246.519085 
L 206.706135 244.492454 
L 208.07675 242.188103 
L 209.447364 239.577916 
L 210.817979 236.635232 
L 212.873901 231.546129 
L 214.929823 225.592002 
L 216.985745 218.738902 
L 219.041667 210.992836 
L 221.097589 202.409043 
L 223.838819 189.862263 
L 227.950663 169.624647 
L 232.062507 149.676366 
L 234.118429 140.651538 
L 236.174351 132.72536 
L 237.544966 128.211782 
L 238.91558 124.413369 
L 240.286195 121.400553 
L 241.65681 119.228452 
L 242.342117 118.470216 
L 243.027425 117.93493 
L 243.712732 117.624412 
L 244.398039 117.539268 
L 245.083347 117.678892 
L 245.768654 118.041464 
L 246.453961 118.623974 
L 247.139269 119.422242 
L 247.824576 120.430958 
L 249.195191 123.053146 
L 250.565805 126.427489 
L 251.93642 130.476776 
L 253.307035 135.112265 
L 255.362957 142.950106 
L 258.104186 154.506531 
L 264.95726 184.008204 
L 267.013182 191.905197 
L 269.069104 199.032261 
L 271.125026 205.297219 
L 273.180948 210.662163 
L 274.551563 213.741322 
L 275.922178 216.435414 
L 277.292792 218.762258 
L 278.663407 220.74417 
L 280.034022 222.406666 
L 281.404636 223.777267 
L 282.775251 224.884439 
L 284.145866 225.756683 
L 285.51648 226.421791 
L 286.887095 226.906262 
L 288.943017 227.347909 
L 290.998939 227.51329 
L 293.054861 227.466126 
L 295.796091 227.161856 
L 299.222627 226.523359 
L 304.019779 225.362267 
L 312.243467 223.090586 
L 312.243467 223.090586 
" clip-path="url(#p7c79977eba)" style="fill: none; stroke: #1f77b4; stroke-width: 1.5"/>
    <path d="M 171.225373 259.228832 
L 180.819676 256.299881 
L 185.616827 254.59295 
L 189.043364 253.110074 
L 191.784593 251.644804 
L 193.840515 250.305623 
L 195.896438 248.68878 
L 197.95236 246.716324 
L 200.008282 244.298711 
L 201.378896 242.391079 
L 202.749511 240.210853 
L 204.120126 237.726753 
L 205.49074 234.908014 
L 206.861355 231.725466 
L 208.23197 228.152769 
L 210.287892 222.01527 
L 212.343814 214.902208 
L 214.399736 206.804373 
L 216.455658 197.763243 
L 219.196888 184.424662 
L 222.623424 166.313135 
L 228.105883 137.154861 
L 230.161805 127.336018 
L 232.217727 118.719289 
L 233.588342 113.817909 
L 234.958957 109.699044 
L 236.329571 106.439761 
L 237.700186 104.100364 
L 238.385493 103.289353 
L 239.070801 102.722288 
L 239.756108 102.401157 
L 240.441415 102.326625 
L 241.126723 102.498028 
L 241.81203 102.913377 
L 242.497338 103.569374 
L 243.182645 104.461449 
L 243.867952 105.583791 
L 245.238567 108.490183 
L 246.609182 112.219563 
L 247.979796 116.687451 
L 249.350411 121.796744 
L 251.406333 130.4286 
L 254.147563 143.147866 
L 261.000636 175.614144 
L 263.056558 184.310722 
L 265.11248 192.164865 
L 267.168402 199.075712 
L 269.224324 205.001788 
L 270.594939 208.408185 
L 271.965554 211.393253 
L 273.336168 213.976488 
L 274.706783 216.182306 
L 276.077398 218.038627 
L 277.448012 219.575565 
L 278.818627 220.824265 
L 280.189242 221.815913 
L 281.559857 222.580919 
L 282.930471 223.148275 
L 284.986393 223.687406 
L 287.042315 223.924253 
L 289.098237 223.92854 
L 291.839467 223.670137 
L 295.266004 223.064664 
L 300.063155 221.92464 
L 307.601536 219.857107 
L 308.286843 219.662593 
L 308.286843 219.662593 
" clip-path="url(#p7c79977eba)" style="fill: none; stroke: #1f77b4; stroke-width: 1.5"/>
    <path d="M 167.268749 255.803751 
L 176.863052 252.888512 
L 181.660203 251.209305 
L 185.08674 249.768923 
L 187.82797 248.361658 
L 189.883892 247.086658 
L 191.939814 245.557894 
L 193.995736 243.704123 
L 196.051658 241.44351 
L 197.422273 239.666012 
L 198.792887 237.63938 
L 200.163502 235.335029 
L 201.534117 232.724842 
L 202.904731 229.782158 
L 204.960653 224.693055 
L 207.016575 218.738928 
L 209.072498 211.885829 
L 211.12842 204.139762 
L 213.184342 195.555969 
L 215.925571 183.00919 
L 220.037415 162.771574 
L 224.149259 142.823293 
L 226.205181 133.798465 
L 228.261103 125.872287 
L 229.631718 121.358708 
L 231.002333 117.560295 
L 232.372948 114.54748 
L 233.743562 112.375378 
L 234.42887 111.617143 
L 235.114177 111.081857 
L 235.799484 110.771338 
L 236.484792 110.686195 
L 237.170099 110.825818 
L 237.855406 111.188391 
L 238.540714 111.770901 
L 239.226021 112.569168 
L 239.911328 113.577884 
L 241.281943 116.200072 
L 242.652558 119.574415 
L 244.023172 123.623703 
L 245.393787 128.259191 
L 247.449709 136.097032 
L 250.190939 147.653458 
L 257.044012 177.15513 
L 259.099934 185.052123 
L 261.155856 192.179188 
L 263.211778 198.444146 
L 265.2677 203.80909 
L 266.638315 206.888248 
L 268.00893 209.582341 
L 269.379545 211.909185 
L 270.750159 213.891097 
L 272.120774 215.553593 
L 273.491389 216.924194 
L 274.862003 218.031365 
L 276.232618 218.903609 
L 277.603233 219.568718 
L 278.973847 220.053188 
L 281.02977 220.494836 
L 283.085692 220.660216 
L 285.141614 220.613052 
L 287.882843 220.308782 
L 291.30938 219.670285 
L 296.106531 218.509193 
L 304.33022 216.237512 
L 304.33022 216.237512 
" clip-path="url(#p7c79977eba)" style="fill: none; stroke: #1f77b4; stroke-width: 1.5"/>
    <path d="M 163.312125 252.380872 
L 173.591735 249.281798 
L 178.388887 247.639938 
L 181.815424 246.26119 
L 184.556653 244.942678 
L 187.297883 243.334728 
L 189.353805 241.868428 
L 191.409727 240.113205 
L 193.465649 238.001972 
L 195.521571 235.462763 
L 197.577493 232.422361 
L 199.633415 228.811323 
L 201.689337 224.570301 
L 203.745259 219.657389 
L 205.801181 214.055984 
L 207.857103 207.782477 
L 209.913025 200.892875 
L 212.654255 190.928261 
L 221.56325 157.48175 
L 223.619172 150.98246 
L 224.989787 147.193613 
L 226.360402 143.920006 
L 227.731016 141.220579 
L 229.101631 139.143462 
L 230.472246 137.724302 
L 231.157553 137.268865 
L 231.84286 136.98501 
L 232.528168 136.873203 
L 233.213475 136.932978 
L 233.898782 137.162947 
L 234.58409 137.560812 
L 235.269397 138.123382 
L 236.640012 139.725601 
L 238.010627 141.927528 
L 239.381241 144.675399 
L 240.751856 147.9056 
L 242.807778 153.497726 
L 245.549007 161.93795 
L 253.772696 188.231679 
L 255.828618 193.934294 
L 257.88454 199.020814 
L 259.940462 203.435231 
L 261.996384 207.161156 
L 263.366999 209.26968 
L 264.737613 211.09056 
L 266.108228 212.639241 
L 267.478843 213.934102 
L 268.849457 214.995493 
L 270.220072 215.844879 
L 271.590687 216.504082 
L 273.646609 217.183233 
L 275.702531 217.551809 
L 277.758453 217.672282 
L 279.814375 217.599037 
L 282.555605 217.277908 
L 285.982141 216.633209 
L 290.779293 215.47312 
L 299.002981 213.205243 
L 300.373596 212.814633 
L 300.373596 212.814633 
" clip-path="url(#p7c79977eba)" style="fill: none; stroke: #1f77b4; stroke-width: 1.5"/>
    <path d="M 159.355501 248.958611 
L 171.691034 245.261639 
L 177.173492 243.381199 
L 180.600029 241.993467 
L 183.341259 240.681439 
L 186.082488 239.10917 
L 188.13841 237.704203 
L 190.194332 236.057186 
L 192.250254 234.121667 
L 194.306176 231.851364 
L 196.362098 229.203657 
L 198.41802 226.143868 
L 200.473942 222.650092 
L 202.529865 218.718231 
L 204.585787 214.366739 
L 207.327016 207.993666 
L 210.753553 199.387485 
L 216.236012 185.537596 
L 218.291934 180.840132 
L 220.347856 176.677437 
L 221.71847 174.27737 
L 223.089085 172.225411 
L 224.4597 170.555844 
L 225.830315 169.295495 
L 227.200929 168.462798 
L 228.571544 168.067136 
L 229.942159 168.108508 
L 231.312773 168.577532 
L 232.683388 169.455774 
L 234.054003 170.716409 
L 235.424617 172.325151 
L 236.795232 174.241441 
L 238.851154 177.592073 
L 241.592384 182.687044 
L 249.816072 198.592404 
L 251.871994 202.013487 
L 253.927916 205.041729 
L 255.983838 207.641421 
L 258.03976 209.80211 
L 260.095682 211.534383 
L 262.151604 212.864961 
L 264.207526 213.831685 
L 266.263448 214.478835 
L 268.31937 214.853095 
L 270.375292 215.000352 
L 273.116522 214.916873 
L 275.857751 214.593697 
L 279.284288 213.959736 
L 284.081439 212.817323 
L 291.61982 210.759333 
L 296.416972 209.392373 
L 296.416972 209.392373 
" clip-path="url(#p7c79977eba)" style="fill: none; stroke: #1f77b4; stroke-width: 1.5"/>
    <path d="M 155.398877 245.535592 
L 170.475639 241.051323 
L 175.958098 239.20994 
L 180.069942 237.603819 
L 183.496479 236.012954 
L 186.237708 234.503342 
L 188.978938 232.720573 
L 191.720167 230.607102 
L 193.776089 228.774925 
L 195.832011 226.714576 
L 198.573241 223.604334 
L 201.31447 220.0984 
L 204.741007 215.259861 
L 213.650002 202.203143 
L 215.705925 199.604067 
L 217.761847 197.346394 
L 219.817769 195.505085 
L 221.188383 194.538408 
L 222.558998 193.79517 
L 223.929613 193.282813 
L 225.300227 193.003846 
L 226.670842 192.955758 
L 228.041457 193.131111 
L 229.412072 193.517796 
L 230.782686 194.099471 
L 232.838608 195.292965 
L 234.89453 196.80008 
L 237.63576 199.143748 
L 245.859448 206.505197 
L 248.600677 208.519456 
L 250.656599 209.780197 
L 252.712522 210.809445 
L 254.768444 211.605644 
L 256.824366 212.177593 
L 258.880288 212.541792 
L 260.93621 212.719799 
L 263.677439 212.709515 
L 266.418669 212.469898 
L 269.845205 211.930393 
L 273.957049 211.046509 
L 280.124816 209.457876 
L 291.775041 206.166398 
L 292.460348 205.969353 
L 292.460348 205.969353 
" clip-path="url(#p7c79977eba)" style="fill: none; stroke: #1f77b4; stroke-width: 1.5"/>
    <path d="M 151.442254 242.11128 
L 169.945552 236.652267 
L 176.113318 234.629089 
L 180.91047 232.830374 
L 185.022314 231.02902 
L 188.448851 229.27897 
L 191.875387 227.25896 
L 195.301924 224.952082 
L 198.728461 222.379519 
L 203.525612 218.475593 
L 209.008071 214.021863 
L 211.749301 212.013724 
L 214.49053 210.275009 
L 216.546452 209.194336 
L 218.602374 208.331346 
L 220.658296 207.698935 
L 222.714218 207.29898 
L 224.77014 207.122185 
L 226.826062 207.148824 
L 229.567292 207.450331 
L 232.993829 208.132352 
L 243.273439 210.499657 
L 246.699976 210.939614 
L 249.441205 211.08766 
L 252.867742 211.017695 
L 256.294279 210.691934 
L 260.406123 210.028177 
L 265.203274 208.986571 
L 271.37104 207.401164 
L 283.021265 204.12237 
L 288.503724 202.545041 
L 288.503724 202.545041 
" clip-path="url(#p7c79977eba)" style="fill: none; stroke: #1f77b4; stroke-width: 1.5"/>
    <path d="M 147.48563 238.685863 
L 171.471387 231.642651 
L 179.009768 229.197211 
L 184.492227 227.204303 
L 189.974686 224.957494 
L 195.457144 222.450406 
L 209.163292 215.975863 
L 212.589828 214.64413 
L 216.016365 213.535546 
L 219.442902 212.665818 
L 222.869439 212.019239 
L 226.981283 211.474867 
L 234.519664 210.776737 
L 240.68743 210.109469 
L 245.484581 209.380202 
L 250.96704 208.297408 
L 257.134806 206.823309 
L 265.358494 204.60903 
L 283.176486 199.515004 
L 284.5471 199.119625 
L 284.5471 199.119625 
" clip-path="url(#p7c79977eba)" style="fill: none; stroke: #1f77b4; stroke-width: 1.5"/>
    <path d="M 143.529006 235.259783 
L 174.367837 226.248112 
L 184.647447 222.995394 
L 194.24175 219.713805 
L 206.577282 215.486763 
L 212.745049 213.614531 
L 218.912815 211.975942 
L 227.136503 210.046883 
L 240.157343 206.998819 
L 249.751646 204.48668 
L 263.457793 200.628985 
L 280.590476 195.693545 
L 280.590476 195.693545 
" clip-path="url(#p7c79977eba)" style="fill: none; stroke: #1f77b4; stroke-width: 1.5"/>
    <path d="M 139.572382 231.833399 
L 181.376131 219.655881 
L 214.956191 209.677298 
L 261.557091 196.617691 
L 276.633853 192.267161 
L 276.633853 192.267161 
" clip-path="url(#p7c79977eba)" style="fill: none; stroke: #1f77b4; stroke-width: 1.5"/>
    <path d="M 135.615758 228.406904 
L 272.677229 188.840666 
L 272.677229 188.840666 
" clip-path="url(#p7c79977eba)" style="fill: none; stroke: #1f77b4; stroke-width: 1.5"/>
    <path d="M 131.659134 224.980377 
L 268.720605 185.414138 
L 268.720605 185.414138 
" clip-path="url(#p7c79977eba)" style="fill: none; stroke: #1f77b4; stroke-width: 1.5"/>
    <path d="M 210.791611 293.511112 
L 131.659134 224.980377 
L 131.659134 224.980377 
" clip-path="url(#p7c79977eba)" style="fill: none; stroke: #1f77b4; stroke-width: 1.5"/>
    <path d="M 217.644685 291.532791 
L 138.512208 223.002055 
L 138.512208 223.002055 
" clip-path="url(#p7c79977eba)" style="fill: none; stroke: #1f77b4; stroke-width: 1.5"/>
    <path d="M 224.497758 289.554437 
L 198.779703 267.138594 
L 181.370558 251.803708 
L 149.717568 224.792599 
L 145.365281 221.023702 
L 145.365281 221.023702 
" clip-path="url(#p7c79977eba)" style="fill: none; stroke: #1f77b4; stroke-width: 1.5"/>
    <path d="M 231.350832 287.575973 
L 212.359037 270.982659 
L 206.028439 265.127405 
L 191.388931 251.303649 
L 187.432307 248.047512 
L 181.101709 243.194719 
L 174.375449 237.942332 
L 168.04485 232.686343 
L 155.779316 222.12836 
L 152.218355 219.045237 
L 152.218355 219.045237 
" clip-path="url(#p7c79977eba)" style="fill: none; stroke: #1f77b4; stroke-width: 1.5"/>
    <path d="M 238.203905 285.597204 
L 223.564397 272.768861 
L 218.816449 268.291228 
L 215.255487 264.626678 
L 211.694526 260.625654 
L 206.155252 253.964104 
L 202.594291 249.85318 
L 200.220316 247.411996 
L 197.846342 245.29862 
L 195.472368 243.523861 
L 193.098394 242.035563 
L 189.537432 240.116942 
L 184.789484 237.557276 
L 181.624184 235.581927 
L 178.458885 233.340553 
L 174.502262 230.242089 
L 168.567326 225.26116 
L 159.071429 217.066469 
L 159.071429 217.066469 
" clip-path="url(#p7c79977eba)" style="fill: none; stroke: #1f77b4; stroke-width: 1.5"/>
    <path d="M 245.056979 283.617772 
L 233.58277 273.527929 
L 229.626146 269.748669 
L 226.856509 266.81038 
L 224.482535 263.985212 
L 222.108561 260.792618 
L 219.734586 257.189935 
L 216.96495 252.514177 
L 210.238689 240.775838 
L 208.260377 237.929823 
L 206.677728 236.052516 
L 205.095078 234.578356 
L 203.908091 233.743934 
L 202.721104 233.132671 
L 201.534117 232.724842 
L 199.951467 232.44706 
L 197.973155 232.404968 
L 192.038219 232.599936 
L 190.059907 232.31578 
L 188.477258 231.884537 
L 186.498946 231.090459 
L 184.520634 230.040585 
L 182.14666 228.507894 
L 179.377023 226.452531 
L 175.024737 222.900301 
L 165.924502 215.087036 
L 165.924502 215.087036 
" clip-path="url(#p7c79977eba)" style="fill: none; stroke: #1f77b4; stroke-width: 1.5"/>
    <path d="M 251.910052 281.637235 
L 242.809818 273.60386 
L 239.248856 270.1703 
L 236.874882 267.599355 
L 234.89657 265.162876 
L 232.918258 262.345261 
L 231.335608 259.740261 
L 229.752959 256.766509 
L 228.170309 253.388109 
L 226.191997 248.586199 
L 223.818023 242.078835 
L 217.091763 222.961332 
L 215.509113 219.46107 
L 214.322126 217.337975 
L 213.135139 215.70421 
L 212.343814 214.902208 
L 211.552489 214.333595 
L 210.761164 213.995863 
L 209.96984 213.88157 
L 209.178515 213.978611 
L 208.38719 214.270641 
L 207.200203 215.029667 
L 206.013216 216.102315 
L 204.430566 217.866693 
L 199.682618 223.490272 
L 198.099968 224.925241 
L 196.912981 225.751515 
L 195.725994 226.346296 
L 194.539007 226.708027 
L 193.35202 226.845509 
L 192.165032 226.77524 
L 190.978045 226.51878 
L 189.395396 225.929206 
L 187.812746 225.110299 
L 185.834434 223.846681 
L 183.064798 221.784456 
L 178.712511 218.201612 
L 172.777576 213.1065 
L 172.777576 213.1065 
" clip-path="url(#p7c79977eba)" style="fill: none; stroke: #1f77b4; stroke-width: 1.5"/>
    <path d="M 258.763126 279.655406 
L 251.245541 272.986295 
L 248.080242 269.907529 
L 245.706267 267.282498 
L 243.727955 264.72496 
L 242.145306 262.318453 
L 240.562656 259.481348 
L 238.980007 256.10375 
L 237.397357 252.080038 
L 235.814708 247.325204 
L 234.232058 241.7947 
L 232.649409 235.505249 
L 230.671097 226.731007 
L 224.340499 197.482291 
L 223.153511 193.099064 
L 221.966524 189.453715 
L 220.779537 186.666995 
L 219.988212 185.329077 
L 219.196888 184.424662 
L 218.405563 183.958463 
L 217.614238 183.925766 
L 216.822913 184.312602 
L 216.031588 185.09624 
L 215.240264 186.245991 
L 214.053277 188.573295 
L 212.866289 191.48946 
L 211.28364 196.00514 
L 206.535691 210.17263 
L 204.953042 214.069809 
L 203.766055 216.523379 
L 202.579067 218.542295 
L 201.39208 220.123635 
L 200.205093 221.283922 
L 199.018106 222.054134 
L 197.831119 222.474751 
L 196.644132 222.591265 
L 195.457144 222.450406 
L 194.270157 222.097239 
L 192.687508 221.366905 
L 190.709196 220.152524 
L 188.335222 218.415239 
L 184.378598 215.186723 
L 179.630649 211.124671 
L 179.630649 211.124671 
" clip-path="url(#p7c79977eba)" style="fill: none; stroke: #1f77b4; stroke-width: 1.5"/>
    <path d="M 265.6162 277.672818 
L 258.889939 271.665462 
L 256.120302 268.932567 
L 254.14199 266.723853 
L 252.559341 264.694465 
L 250.976691 262.31969 
L 249.394042 259.467429 
L 248.207055 256.921729 
L 247.020067 253.948052 
L 245.83308 250.473182 
L 244.646093 246.427677 
L 243.459106 241.752188 
L 241.876456 234.469289 
L 240.293807 225.96905 
L 238.315495 213.774626 
L 235.941521 197.500371 
L 232.380559 172.955182 
L 230.79791 163.530027 
L 229.610923 157.60159 
L 228.423935 152.899211 
L 227.632611 150.532449 
L 226.841286 148.823645 
L 226.049961 147.794708 
L 225.654299 147.538078 
L 225.258636 147.45303 
L 224.862974 147.538177 
L 224.467312 147.79122 
L 223.675987 148.787367 
L 222.884662 150.405825 
L 222.093337 152.598462 
L 220.90635 156.832605 
L 219.719363 161.990264 
L 217.741051 171.92546 
L 213.388765 194.407056 
L 211.806115 201.297986 
L 210.223466 207.056995 
L 209.036479 210.577583 
L 207.849491 213.417543 
L 206.662504 215.611229 
L 205.475517 217.21303 
L 204.684192 217.984776 
L 203.892868 218.544517 
L 203.101543 218.914075 
L 201.914556 219.158759 
L 200.727568 219.092867 
L 199.540581 218.778873 
L 197.957932 218.067031 
L 195.97962 216.849208 
L 193.605646 215.096541 
L 189.649022 211.848092 
L 186.483723 209.142082 
L 186.483723 209.142082 
" clip-path="url(#p7c79977eba)" style="fill: none; stroke: #1f77b4; stroke-width: 1.5"/>
    <path d="M 272.469273 275.690848 
L 266.534337 270.378644 
L 263.764701 267.643353 
L 261.786389 265.419732 
L 260.203739 263.358521 
L 258.62109 260.918156 
L 257.434102 258.746851 
L 256.247115 256.197065 
L 255.060128 253.180919 
L 253.873141 249.604139 
L 252.686154 245.370815 
L 251.499167 240.389978 
L 250.312179 234.583886 
L 248.72953 225.468389 
L 247.14688 214.75822 
L 245.564231 202.565277 
L 243.190257 182.178235 
L 239.233633 147.436146 
L 237.650983 135.51437 
L 236.463996 128.066959 
L 235.277009 122.225642 
L 234.485684 119.337689 
L 233.694359 117.311637 
L 233.298697 116.631528 
L 232.903035 116.176187 
L 232.507372 115.946221 
L 232.11171 115.941022 
L 231.716047 116.158772 
L 231.320385 116.596459 
L 230.52906 118.113798 
L 229.737736 120.446341 
L 228.946411 123.531039 
L 227.759424 129.396247 
L 226.572436 136.471228 
L 224.594125 150.017034 
L 220.241838 180.635441 
L 218.659189 190.087156 
L 217.076539 198.056095 
L 215.889552 202.986571 
L 214.702565 207.02545 
L 213.515578 210.217732 
L 212.328591 212.634665 
L 211.537266 213.858046 
L 210.745941 214.803708 
L 209.954616 215.500237 
L 209.163292 215.975863 
L 208.371967 216.257795 
L 207.580642 216.371711 
L 206.393655 216.27902 
L 205.206668 215.932566 
L 203.624018 215.177891 
L 201.645706 213.915849 
L 198.87607 211.811662 
L 194.128121 207.838801 
L 193.336796 207.160113 
L 193.336796 207.160113 
" clip-path="url(#p7c79977eba)" style="fill: none; stroke: #1f77b4; stroke-width: 1.5"/>
    <path d="M 279.322347 273.71108 
L 273.387411 268.382641 
L 270.617774 265.615639 
L 268.639462 263.343957 
L 267.056813 261.217709 
L 265.474163 258.676601 
L 264.287176 256.397622 
L 263.100189 253.70452 
L 261.913202 250.501139 
L 260.726214 246.684325 
L 259.539227 242.149138 
L 258.35224 236.796042 
L 257.165253 230.539972 
L 255.978266 223.320861 
L 254.395616 212.162805 
L 252.812967 199.334651 
L 250.834655 181.374304 
L 245.295381 129.363532 
L 244.108394 120.312337 
L 242.921407 112.814062 
L 242.130082 108.8267 
L 241.338758 105.731314 
L 240.547433 103.578998 
L 240.15177 102.86711 
L 239.756108 102.401157 
L 239.360446 102.181803 
L 238.964783 102.208383 
L 238.569121 102.478909 
L 238.173459 102.990085 
L 237.382134 104.714856 
L 236.590809 107.331603 
L 235.799484 110.771338 
L 234.612497 117.285705 
L 233.42551 125.123776 
L 231.447198 140.106594 
L 227.094912 173.963428 
L 225.512262 184.434328 
L 223.929613 193.282813 
L 222.742626 198.774421 
L 221.555638 203.290465 
L 220.368651 206.880186 
L 219.181664 209.621539 
L 217.994677 211.610328 
L 217.203352 212.569383 
L 216.412027 213.271386 
L 215.620703 213.746747 
L 214.829378 214.024458 
L 214.038053 214.131623 
L 212.851066 214.026402 
L 211.664079 213.666761 
L 210.081429 212.896041 
L 208.103117 211.618437 
L 205.333481 209.500938 
L 200.585532 205.519681 
L 200.18987 205.180345 
L 200.18987 205.180345 
" clip-path="url(#p7c79977eba)" style="fill: none; stroke: #1f77b4; stroke-width: 1.5"/>
    <path d="M 286.17542 271.734224 
L 280.240484 266.42202 
L 277.470848 263.686729 
L 275.492536 261.463108 
L 273.909886 259.401897 
L 272.327237 256.961532 
L 271.140249 254.790227 
L 269.953262 252.240441 
L 268.766275 249.224296 
L 267.579288 245.647516 
L 266.392301 241.414191 
L 265.205314 236.433355 
L 264.018327 230.627262 
L 262.435677 221.511765 
L 260.853027 210.801596 
L 259.270378 198.608653 
L 256.896404 178.221611 
L 252.93978 143.479522 
L 251.35713 131.557746 
L 250.170143 124.110335 
L 248.983156 118.269018 
L 248.191831 115.381065 
L 247.400506 113.355013 
L 247.004844 112.674904 
L 246.609182 112.219563 
L 246.213519 111.989597 
L 245.817857 111.984398 
L 245.422194 112.202148 
L 245.026532 112.639835 
L 244.235207 114.157174 
L 243.443883 116.489717 
L 242.652558 119.574415 
L 241.465571 125.439623 
L 240.278583 132.514604 
L 238.300272 146.060411 
L 233.947985 176.678817 
L 232.365336 186.130532 
L 230.782686 194.099471 
L 229.595699 199.029948 
L 228.408712 203.068826 
L 227.221725 206.261108 
L 226.034738 208.678041 
L 225.243413 209.901422 
L 224.452088 210.847084 
L 223.660763 211.543613 
L 222.869439 212.019239 
L 222.078114 212.301171 
L 221.286789 212.415087 
L 220.099802 212.322396 
L 218.912815 211.975942 
L 217.330165 211.221268 
L 215.351853 209.959225 
L 212.582217 207.855038 
L 207.834268 203.882177 
L 207.042943 203.203489 
L 207.042943 203.203489 
" clip-path="url(#p7c79977eba)" style="fill: none; stroke: #1f77b4; stroke-width: 1.5"/>
    <path d="M 293.028494 269.75957 
L 286.302233 263.752214 
L 283.532596 261.019319 
L 281.554284 258.810606 
L 279.971635 256.781218 
L 278.388985 254.406442 
L 276.806336 251.554182 
L 275.619349 249.008481 
L 274.432362 246.034804 
L 273.245374 242.559934 
L 272.058387 238.514429 
L 270.8714 233.83894 
L 269.288751 226.556042 
L 267.706101 218.055803 
L 265.727789 205.861378 
L 263.353815 189.587123 
L 259.792853 165.041934 
L 258.210204 155.616779 
L 257.023217 149.688342 
L 255.836229 144.985964 
L 255.044905 142.619201 
L 254.25358 140.910397 
L 253.462255 139.88146 
L 253.066593 139.62483 
L 252.67093 139.539782 
L 252.275268 139.624929 
L 251.879606 139.877972 
L 251.088281 140.87412 
L 250.296956 142.492577 
L 249.505631 144.685214 
L 248.318644 148.919357 
L 247.131657 154.077016 
L 245.153345 164.012213 
L 240.801059 186.493809 
L 239.218409 193.384738 
L 237.63576 199.143748 
L 236.448773 202.664335 
L 235.261785 205.504296 
L 234.074798 207.697982 
L 232.887811 209.299782 
L 232.096486 210.071529 
L 231.305162 210.631269 
L 230.513837 211.000828 
L 229.32685 211.245511 
L 228.139863 211.17962 
L 226.952875 210.865625 
L 225.370226 210.153784 
L 223.391914 208.93596 
L 221.01794 207.183293 
L 217.061316 203.934845 
L 213.896017 201.228835 
L 213.896017 201.228835 
" clip-path="url(#p7c79977eba)" style="fill: none; stroke: #1f77b4; stroke-width: 1.5"/>
    <path d="M 299.881567 267.785534 
L 292.363982 261.116424 
L 289.198683 258.037657 
L 286.824708 255.412626 
L 284.846397 252.855089 
L 283.263747 250.448581 
L 281.681097 247.611477 
L 280.098448 244.233879 
L 278.515798 240.210166 
L 276.933149 235.455332 
L 275.350499 229.924829 
L 273.76785 223.635378 
L 271.789538 214.861136 
L 265.45894 185.612419 
L 264.271953 181.229193 
L 263.084965 177.583843 
L 261.897978 174.797124 
L 261.106653 173.459206 
L 260.315329 172.554791 
L 259.524004 172.088591 
L 258.732679 172.055894 
L 257.941354 172.44273 
L 257.15003 173.226368 
L 256.358705 174.376119 
L 255.171718 176.703424 
L 253.984731 179.619588 
L 252.402081 184.135268 
L 247.654132 198.302759 
L 246.071483 202.199937 
L 244.884496 204.653507 
L 243.697509 206.672424 
L 242.510521 208.253763 
L 241.323534 209.41405 
L 240.136547 210.184262 
L 238.94956 210.60488 
L 237.762573 210.721394 
L 236.575586 210.580535 
L 235.388598 210.227367 
L 233.805949 209.497033 
L 231.827637 208.282652 
L 229.453663 206.545367 
L 225.497039 203.316852 
L 220.74909 199.254799 
L 220.74909 199.254799 
" clip-path="url(#p7c79977eba)" style="fill: none; stroke: #1f77b4; stroke-width: 1.5"/>
    <path d="M 306.734641 265.81074 
L 297.634406 257.777364 
L 294.073444 254.343805 
L 291.69947 251.772859 
L 289.721158 249.336381 
L 287.742846 246.518765 
L 286.160197 243.913766 
L 284.577547 240.940013 
L 282.994898 237.561613 
L 281.016586 232.759703 
L 278.642611 226.25234 
L 271.916351 207.134837 
L 270.333701 203.634575 
L 269.146714 201.51148 
L 267.959727 199.877715 
L 267.168402 199.075712 
L 266.377077 198.5071 
L 265.585753 198.169368 
L 264.794428 198.055075 
L 264.003103 198.152116 
L 263.211778 198.444146 
L 262.024791 199.203172 
L 260.837804 200.27582 
L 259.255155 202.040197 
L 254.507206 207.663777 
L 252.924556 209.098746 
L 251.737569 209.925019 
L 250.550582 210.5198 
L 249.363595 210.881531 
L 248.176608 211.019013 
L 246.989621 210.948744 
L 245.802633 210.692285 
L 244.219984 210.10271 
L 242.637334 209.283804 
L 240.659022 208.020186 
L 237.889386 205.957961 
L 233.5371 202.375117 
L 227.602164 197.280004 
L 227.602164 197.280004 
" clip-path="url(#p7c79977eba)" style="fill: none; stroke: #1f77b4; stroke-width: 1.5"/>
    <path d="M 313.587714 263.834652 
L 302.113505 253.74481 
L 298.156881 249.965549 
L 295.387244 247.027261 
L 293.01327 244.202093 
L 290.639296 241.009499 
L 288.265322 237.406815 
L 285.495685 232.731058 
L 278.769424 220.992718 
L 276.791112 218.146703 
L 275.208463 216.269397 
L 273.625813 214.795237 
L 272.438826 213.960814 
L 271.251839 213.349552 
L 270.064852 212.941723 
L 268.482202 212.663941 
L 266.50389 212.621849 
L 260.568955 212.816817 
L 258.590643 212.532661 
L 257.007993 212.101418 
L 255.029681 211.30734 
L 253.051369 210.257466 
L 250.677395 208.724775 
L 247.907758 206.669412 
L 243.555472 203.117182 
L 234.455237 195.303917 
L 234.455237 195.303917 
" clip-path="url(#p7c79977eba)" style="fill: none; stroke: #1f77b4; stroke-width: 1.5"/>
    <path d="M 320.440788 261.857461 
L 305.801279 249.029118 
L 301.053331 244.551485 
L 297.492369 240.886935 
L 293.931408 236.885911 
L 288.392135 230.224361 
L 284.831173 226.113437 
L 282.457199 223.672253 
L 280.083224 221.558877 
L 277.70925 219.784118 
L 275.335276 218.29582 
L 271.774314 216.377198 
L 267.026366 213.817533 
L 263.861067 211.842184 
L 260.695768 209.60081 
L 256.739144 206.502346 
L 250.804208 201.521417 
L 241.308311 193.326726 
L 241.308311 193.326726 
" clip-path="url(#p7c79977eba)" style="fill: none; stroke: #1f77b4; stroke-width: 1.5"/>
    <path d="M 327.293861 259.879606 
L 308.302067 243.286292 
L 301.971469 237.431038 
L 287.33196 223.607282 
L 283.375337 220.351145 
L 277.044738 215.498352 
L 270.318478 210.245965 
L 263.98788 204.989976 
L 251.722346 194.431993 
L 248.161384 191.34887 
L 248.161384 191.34887 
" clip-path="url(#p7c79977eba)" style="fill: none; stroke: #1f77b4; stroke-width: 1.5"/>
    <path d="M 334.146935 257.901446 
L 308.42888 235.485604 
L 291.019735 220.150718 
L 259.366744 193.139608 
L 255.014458 189.370711 
L 255.014458 189.370711 
" clip-path="url(#p7c79977eba)" style="fill: none; stroke: #1f77b4; stroke-width: 1.5"/>
    <path d="M 341.000008 255.923176 
L 261.867531 187.392441 
L 261.867531 187.392441 
" clip-path="url(#p7c79977eba)" style="fill: none; stroke: #1f77b4; stroke-width: 1.5"/>
    <path d="M 347.853082 253.944873 
L 268.720605 185.414138 
L 268.720605 185.414138 
" clip-path="url(#p7c79977eba)" style="fill: none; stroke: #1f77b4; stroke-width: 1.5"/>
   </g>
  </g>
 </g>
 <defs>
  <clipPath id="p7c79977eba">
   <rect x="103.104" y="41.472" width="266.112" height="266.112"/>
  </clipPath>
 </defs>
</svg>
