<?xml version="1.0" encoding="utf-8" standalone="no"?>
<!DOCTYPE svg PUBLIC "-//W3C//DTD SVG 1.1//EN"
  "http://www.w3.org/Graphics/SVG/1.1/DTD/svg11.dtd">
<svg xmlns:xlink="http://www.w3.org/1999/xlink" width="360pt" height="360pt" viewBox="0 0 360 360" xmlns="http://www.w3.org/2000/svg" version="1.1">
 <metadata>
  <rdf:RDF xmlns:dc="http://purl.org/dc/elements/1.1/" xmlns:cc="http://creativecommons.org/ns#" xmlns:rdf="http://www.w3.org/1999/02/22-rdf-syntax-ns#">
   <cc:Work>
    <dc:type rdf:resource="http://purl.org/dc/dcmitype/StillImage"/>
    <dc:date>2025-11-22T17:56:13.310040</dc:date>
    <dc:format>image/svg+xml</dc:format>
    <dc:creator>
     <cc:Agent>
      <dc:title>Matplotlib v3.8.2, https://matplotlib.org/</dc:title>
     </cc:Agent>
    </dc:creator>
   </cc:Work>
  </rdf:RDF>
 </metadata>
 <defs>
  <style type="text/css">*{stroke-linejoin: round; stroke-linecap: butt}</style>
 </defs>
 <g id="figure_1">
  <g id="patch_1">
   <path d="M 0 360 
L 360 360 
L 360 0 
L 0 0 
z
" style="fill: #ffffff"/>
  </g>
  <g id="axes_1">
   <g id="patch_2">
    <path d="M 45 320.4 
L 324 320.4 
L 324 43.2 
L 45 43.2 
z
" style="fill: #ffffff"/>
   </g>
   <g id="QuadMesh_1">
    <path d="M 45 43.2 
L 324 43.2 
L 324 68.4 
L 45 68.4 
L 45 43.2 
" clip-path="url(#p17cb64867b)" style="fill: #313695"/>
    <path d="M 45 68.4 
L 324 68.4 
L 324 93.6 
L 45 93.6 
L 45 68.4 
" clip-path="url(#p17cb64867b)" style="fill: #4574b3"/>
    <path d="M 45 93.6 
L 324 93.6 
L 324 118.8 
L 45 118.8 
L 45 93.6 
" clip-path="url(#p17cb64867b)" style="fill: #74add1"/>
    <path d="M 45 118.8 
L 324 118.8 
L 324 144 
L 45 144 
L 45 118.8 
" clip-path="url(#p17cb64867b)" style="fill: #aad8e9"/>
    <path d="M 45 144 
L 324 144 
L 324 169.2 
L 45 169.2 
L 45 144 
" clip-path="url(#p17cb64867b)" style="fill: #e0f3f8"/>
    <path d="M 45 169.2 
L 324 169.2 
L 324 194.4 
L 45 194.4 
L 45 169.2 
" clip-path="url(#p17cb64867b)" style="fill: #fffebe"/>
    <path d="M 45 194.4 
L 324 194.4 
L 324 219.6 
L 45 219.6 
L 45 194.4 
" clip-path="url(#p17cb64867b)" style="fill: #fee090"/>
    <path d="M 45 219.6 
L 324 219.6 
L 324 244.8 
L 45 244.8 
L 45 219.6 
" clip-path="url(#p17cb64867b)" style="fill: #fdad60"/>
    <path d="M 45 244.8 
L 324 244.8 
L 324 270 
L 45 270 
L 45 244.8 
" clip-path="url(#p17cb64867b)" style="fill: #f46d43"/>
    <path d="M 45 270 
L 324 270 
L 324 295.2 
L 45 295.2 
L 45 270 
" clip-path="url(#p17cb64867b)" style="fill: #d62f27"/>
    <path d="M 45 295.2 
L 324 295.2 
L 324 320.4 
L 45 320.4 
L 45 295.2 
" clip-path="url(#p17cb64867b)" style="fill: #a50026"/>
   </g>
   <g id="matplotlib.axis_1"/>
   <g id="matplotlib.axis_2"/>
   <g id="text_1">
    <!-- 0.0 -->
    <g style="fill: #ffffff" transform="translate(176.548438 58.559375) scale(0.1 -0.1)">
     <defs>
      <path id="DejaVuSans-30" d="M 2034 4250 
Q 1547 4250 1301 3770 
Q 1056 3291 1056 2328 
Q 1056 1369 1301 889 
Q 1547 409 2034 409 
Q 2525 409 2770 889 
Q 3016 1369 3016 2328 
Q 3016 3291 2770 3770 
Q 2525 4250 2034 4250 
z
M 2034 4750 
Q 2819 4750 3233 4129 
Q 3647 3509 3647 2328 
Q 3647 1150 3233 529 
Q 2819 -91 2034 -91 
Q 1250 -91 836 529 
Q 422 1150 422 2328 
Q 422 3509 836 4129 
Q 1250 4750 2034 4750 
z
" transform="scale(0.015625)"/>
      <path id="DejaVuSans-2e" d="M 684 794 
L 1344 794 
L 1344 0 
L 684 0 
L 684 794 
z
" transform="scale(0.015625)"/>
     </defs>
     <use xlink:href="#DejaVuSans-30"/>
     <use xlink:href="#DejaVuSans-2e" x="63.623047"/>
     <use xlink:href="#DejaVuSans-30" x="95.410156"/>
    </g>
   </g>
   <g id="text_2">
    <!-- 0.1 -->
    <g style="fill: #ffffff" transform="translate(176.548438 83.759375) scale(0.1 -0.1)">
     <defs>
      <path id="DejaVuSans-31" d="M 794 531 
L 1825 531 
L 1825 4091 
L 703 3866 
L 703 4441 
L 1819 4666 
L 2450 4666 
L 2450 531 
L 3481 531 
L 3481 0 
L 794 0 
L 794 531 
z
" transform="scale(0.015625)"/>
     </defs>
     <use xlink:href="#DejaVuSans-30"/>
     <use xlink:href="#DejaVuSans-2e" x="63.623047"/>
     <use xlink:href="#DejaVuSans-31" x="95.410156"/>
    </g>
   </g>
   <g id="text_3">
    <!-- 0.2 -->
    <g style="fill: #ffffff" transform="translate(176.548438 108.959375) scale(0.1 -0.1)">
     <defs>
      <path id="DejaVuSans-32" d="M 1228 531 
L 3431 531 
L 3431 0 
L 469 0 
L 469 531 
Q 828 903 1448 1529 
Q 2069 2156 2228 2338 
Q 2531 2678 2651 2914 
Q 2772 3150 2772 3378 
Q 2772 3750 2511 3984 
Q 2250 4219 1831 4219 
Q 1534 4219 1204 4116 
Q 875 4013 500 3803 
L 500 4441 
Q 881 4594 1212 4672 
Q 1544 4750 1819 4750 
Q 2544 4750 2975 4387 
Q 3406 4025 3406 3419 
Q 3406 3131 3298 2873 
Q 3191 2616 2906 2266 
Q 2828 2175 2409 1742 
Q 1991 1309 1228 531 
z
" transform="scale(0.015625)"/>
     </defs>
     <use xlink:href="#DejaVuSans-30"/>
     <use xlink:href="#DejaVuSans-2e" x="63.623047"/>
     <use xlink:href="#DejaVuSans-32" x="95.410156"/>
    </g>
   </g>
   <g id="text_4">
    <!-- 0.3 -->
    <g style="fill: #262626" transform="translate(176.548438 134.159375) scale(0.1 -0.1)">
     <defs>
      <path id="DejaVuSans-33" d="M 2597 2516 
Q 3050 2419 3304 2112 
Q 3559 1806 3559 1356 
Q 3559 666 3084 287 
Q 2609 -91 1734 -91 
Q 1441 -91 1130 -33 
Q 819 25 488 141 
L 488 750 
Q 750 597 1062 519 
Q 1375 441 1716 441 
Q 2309 441 2620 675 
Q 2931 909 2931 1356 
Q 2931 1769 2642 2001 
Q 2353 2234 1838 2234 
L 1294 2234 
L 1294 2753 
L 1863 2753 
Q 2328 2753 2575 2939 
Q 2822 3125 2822 3475 
Q 2822 3834 2567 4026 
Q 2313 4219 1838 4219 
Q 1578 4219 1281 4162 
Q 984 4106 628 3988 
L 628 4550 
Q 988 4650 1302 4700 
Q 1616 4750 1894 4750 
Q 2613 4750 3031 4423 
Q 3450 4097 3450 3541 
Q 3450 3153 3228 2886 
Q 3006 2619 2597 2516 
z
" transform="scale(0.015625)"/>
     </defs>
     <use xlink:href="#DejaVuSans-30"/>
     <use xlink:href="#DejaVuSans-2e" x="63.623047"/>
     <use xlink:href="#DejaVuSans-33" x="95.410156"/>
    </g>
   </g>
   <g id="text_5">
    <!-- 0.4 -->
    <g style="fill: #262626" transform="translate(176.548438 159.359375) scale(0.1 -0.1)">
     <defs>
      <path id="DejaVuSans-34" d="M 2419 4116 
L 825 1625 
L 2419 1625 
L 2419 4116 
z
M 2253 4666 
L 3047 4666 
L 3047 1625 
L 3713 1625 
L 3713 1100 
L 3047 1100 
L 3047 0 
L 2419 0 
L 2419 1100 
L 313 1100 
L 313 1709 
L 2253 4666 
z
" transform="scale(0.015625)"/>
     </defs>
     <use xlink:href="#DejaVuSans-30"/>
     <use xlink:href="#DejaVuSans-2e" x="63.623047"/>
     <use xlink:href="#DejaVuSans-34" x="95.410156"/>
    </g>
   </g>
   <g id="text_6">
    <!-- 0.5 -->
    <g style="fill: #262626" transform="translate(176.548438 184.559375) scale(0.1 -0.1)">
     <defs>
      <path id="DejaVuSans-35" d="M 691 4666 
L 3169 4666 
L 3169 4134 
L 1269 4134 
L 1269 2991 
Q 1406 3038 1543 3061 
Q 1681 3084 1819 3084 
Q 2600 3084 3056 2656 
Q 3513 2228 3513 1497 
Q 3513 744 3044 326 
Q 2575 -91 1722 -91 
Q 1428 -91 1123 -41 
Q 819 9 494 109 
L 494 744 
Q 775 591 1075 516 
Q 1375 441 1709 441 
Q 2250 441 2565 725 
Q 2881 1009 2881 1497 
Q 2881 1984 2565 2268 
Q 2250 2553 1709 2553 
Q 1456 2553 1204 2497 
Q 953 2441 691 2322 
L 691 4666 
z
" transform="scale(0.015625)"/>
     </defs>
     <use xlink:href="#DejaVuSans-30"/>
     <use xlink:href="#DejaVuSans-2e" x="63.623047"/>
     <use xlink:href="#DejaVuSans-35" x="95.410156"/>
    </g>
   </g>
   <g id="text_7">
    <!-- 0.6 -->
    <g style="fill: #262626" transform="translate(176.548438 209.759375) scale(0.1 -0.1)">
     <defs>
      <path id="DejaVuSans-36" d="M 2113 2584 
Q 1688 2584 1439 2293 
Q 1191 2003 1191 1497 
Q 1191 994 1439 701 
Q 1688 409 2113 409 
Q 2538 409 2786 701 
Q 3034 994 3034 1497 
Q 3034 2003 2786 2293 
Q 2538 2584 2113 2584 
z
M 3366 4563 
L 3366 3988 
Q 3128 4100 2886 4159 
Q 2644 4219 2406 4219 
Q 1781 4219 1451 3797 
Q 1122 3375 1075 2522 
Q 1259 2794 1537 2939 
Q 1816 3084 2150 3084 
Q 2853 3084 3261 2657 
Q 3669 2231 3669 1497 
Q 3669 778 3244 343 
Q 2819 -91 2113 -91 
Q 1303 -91 875 529 
Q 447 1150 447 2328 
Q 447 3434 972 4092 
Q 1497 4750 2381 4750 
Q 2619 4750 2861 4703 
Q 3103 4656 3366 4563 
z
" transform="scale(0.015625)"/>
     </defs>
     <use xlink:href="#DejaVuSans-30"/>
     <use xlink:href="#DejaVuSans-2e" x="63.623047"/>
     <use xlink:href="#DejaVuSans-36" x="95.410156"/>
    </g>
   </g>
   <g id="text_8">
    <!-- 0.7 -->
    <g style="fill: #262626" transform="translate(176.548438 234.959375) scale(0.1 -0.1)">
     <defs>
      <path id="DejaVuSans-37" d="M 525 4666 
L 3525 4666 
L 3525 4397 
L 1831 0 
L 1172 0 
L 2766 4134 
L 525 4134 
L 525 4666 
z
" transform="scale(0.015625)"/>
     </defs>
     <use xlink:href="#DejaVuSans-30"/>
     <use xlink:href="#DejaVuSans-2e" x="63.623047"/>
     <use xlink:href="#DejaVuSans-37" x="95.410156"/>
    </g>
   </g>
   <g id="text_9">
    <!-- 0.8 -->
    <g style="fill: #ffffff" transform="translate(176.548438 260.159375) scale(0.1 -0.1)">
     <defs>
      <path id="DejaVuSans-38" d="M 2034 2216 
Q 1584 2216 1326 1975 
Q 1069 1734 1069 1313 
Q 1069 891 1326 650 
Q 1584 409 2034 409 
Q 2484 409 2743 651 
Q 3003 894 3003 1313 
Q 3003 1734 2745 1975 
Q 2488 2216 2034 2216 
z
M 1403 2484 
Q 997 2584 770 2862 
Q 544 3141 544 3541 
Q 544 4100 942 4425 
Q 1341 4750 2034 4750 
Q 2731 4750 3128 4425 
Q 3525 4100 3525 3541 
Q 3525 3141 3298 2862 
Q 3072 2584 2669 2484 
Q 3125 2378 3379 2068 
Q 3634 1759 3634 1313 
Q 3634 634 3220 271 
Q 2806 -91 2034 -91 
Q 1263 -91 848 271 
Q 434 634 434 1313 
Q 434 1759 690 2068 
Q 947 2378 1403 2484 
z
M 1172 3481 
Q 1172 3119 1398 2916 
Q 1625 2713 2034 2713 
Q 2441 2713 2670 2916 
Q 2900 3119 2900 3481 
Q 2900 3844 2670 4047 
Q 2441 4250 2034 4250 
Q 1625 4250 1398 4047 
Q 1172 3844 1172 3481 
z
" transform="scale(0.015625)"/>
     </defs>
     <use xlink:href="#DejaVuSans-30"/>
     <use xlink:href="#DejaVuSans-2e" x="63.623047"/>
     <use xlink:href="#DejaVuSans-38" x="95.410156"/>
    </g>
   </g>
   <g id="text_10">
    <!-- 0.9 -->
    <g style="fill: #ffffff" transform="translate(176.548438 285.359375) scale(0.1 -0.1)">
     <defs>
      <path id="DejaVuSans-39" d="M 703 97 
L 703 672 
Q 941 559 1184 500 
Q 1428 441 1663 441 
Q 2288 441 2617 861 
Q 2947 1281 2994 2138 
Q 2813 1869 2534 1725 
Q 2256 1581 1919 1581 
Q 1219 1581 811 2004 
Q 403 2428 403 3163 
Q 403 3881 828 4315 
Q 1253 4750 1959 4750 
Q 2769 4750 3195 4129 
Q 3622 3509 3622 2328 
Q 3622 1225 3098 567 
Q 2575 -91 1691 -91 
Q 1453 -91 1209 -44 
Q 966 3 703 97 
z
M 1959 2075 
Q 2384 2075 2632 2365 
Q 2881 2656 2881 3163 
Q 2881 3666 2632 3958 
Q 2384 4250 1959 4250 
Q 1534 4250 1286 3958 
Q 1038 3666 1038 3163 
Q 1038 2656 1286 2365 
Q 1534 2075 1959 2075 
z
" transform="scale(0.015625)"/>
     </defs>
     <use xlink:href="#DejaVuSans-30"/>
     <use xlink:href="#DejaVuSans-2e" x="63.623047"/>
     <use xlink:href="#DejaVuSans-39" x="95.410156"/>
    </g>
   </g>
   <g id="text_11">
    <!-- 1.0 -->
    <g style="fill: #ffffff" transform="translate(176.548438 310.559375) scale(0.1 -0.1)">
     <use xlink:href="#DejaVuSans-31"/>
     <use xlink:href="#DejaVuSans-2e" x="63.623047"/>
     <use xlink:href="#DejaVuSans-30" x="95.410156"/>
    </g>
   </g>
   <g id="text_12">
    <!-- RGB: (49, 54, 149) -->
    <g transform="translate(45 58.559375) scale(0.1 -0.1)">
     <defs>
      <path id="DejaVuSans-52" d="M 2841 2188 
Q 3044 2119 3236 1894 
Q 3428 1669 3622 1275 
L 4263 0 
L 3584 0 
L 2988 1197 
Q 2756 1666 2539 1819 
Q 2322 1972 1947 1972 
L 1259 1972 
L 1259 0 
L 628 0 
L 628 4666 
L 2053 4666 
Q 2853 4666 3247 4331 
Q 3641 3997 3641 3322 
Q 3641 2881 3436 2590 
Q 3231 2300 2841 2188 
z
M 1259 4147 
L 1259 2491 
L 2053 2491 
Q 2509 2491 2742 2702 
Q 2975 2913 2975 3322 
Q 2975 3731 2742 3939 
Q 2509 4147 2053 4147 
L 1259 4147 
z
" transform="scale(0.015625)"/>
      <path id="DejaVuSans-47" d="M 3809 666 
L 3809 1919 
L 2778 1919 
L 2778 2438 
L 4434 2438 
L 4434 434 
Q 4069 175 3628 42 
Q 3188 -91 2688 -91 
Q 1594 -91 976 548 
Q 359 1188 359 2328 
Q 359 3472 976 4111 
Q 1594 4750 2688 4750 
Q 3144 4750 3555 4637 
Q 3966 4525 4313 4306 
L 4313 3634 
Q 3963 3931 3569 4081 
Q 3175 4231 2741 4231 
Q 1884 4231 1454 3753 
Q 1025 3275 1025 2328 
Q 1025 1384 1454 906 
Q 1884 428 2741 428 
Q 3075 428 3337 486 
Q 3600 544 3809 666 
z
" transform="scale(0.015625)"/>
      <path id="DejaVuSans-42" d="M 1259 2228 
L 1259 519 
L 2272 519 
Q 2781 519 3026 730 
Q 3272 941 3272 1375 
Q 3272 1813 3026 2020 
Q 2781 2228 2272 2228 
L 1259 2228 
z
M 1259 4147 
L 1259 2741 
L 2194 2741 
Q 2656 2741 2882 2914 
Q 3109 3088 3109 3444 
Q 3109 3797 2882 3972 
Q 2656 4147 2194 4147 
L 1259 4147 
z
M 628 4666 
L 2241 4666 
Q 2963 4666 3353 4366 
Q 3744 4066 3744 3513 
Q 3744 3084 3544 2831 
Q 3344 2578 2956 2516 
Q 3422 2416 3680 2098 
Q 3938 1781 3938 1306 
Q 3938 681 3513 340 
Q 3088 0 2303 0 
L 628 0 
L 628 4666 
z
" transform="scale(0.015625)"/>
      <path id="DejaVuSans-3a" d="M 750 794 
L 1409 794 
L 1409 0 
L 750 0 
L 750 794 
z
M 750 3309 
L 1409 3309 
L 1409 2516 
L 750 2516 
L 750 3309 
z
" transform="scale(0.015625)"/>
      <path id="DejaVuSans-20" transform="scale(0.015625)"/>
      <path id="DejaVuSans-28" d="M 1984 4856 
Q 1566 4138 1362 3434 
Q 1159 2731 1159 2009 
Q 1159 1288 1364 580 
Q 1569 -128 1984 -844 
L 1484 -844 
Q 1016 -109 783 600 
Q 550 1309 550 2009 
Q 550 2706 781 3412 
Q 1013 4119 1484 4856 
L 1984 4856 
z
" transform="scale(0.015625)"/>
      <path id="DejaVuSans-2c" d="M 750 794 
L 1409 794 
L 1409 256 
L 897 -744 
L 494 -744 
L 750 256 
L 750 794 
z
" transform="scale(0.015625)"/>
      <path id="DejaVuSans-29" d="M 513 4856 
L 1013 4856 
Q 1481 4119 1714 3412 
Q 1947 2706 1947 2009 
Q 1947 1309 1714 600 
Q 1481 -109 1013 -844 
L 513 -844 
Q 928 -128 1133 580 
Q 1338 1288 1338 2009 
Q 1338 2731 1133 3434 
Q 928 4138 513 4856 
z
" transform="scale(0.015625)"/>
     </defs>
     <use xlink:href="#DejaVuSans-52"/>
     <use xlink:href="#DejaVuSans-47" x="69.482422"/>
     <use xlink:href="#DejaVuSans-42" x="146.972656"/>
     <use xlink:href="#DejaVuSans-3a" x="215.576172"/>
     <use xlink:href="#DejaVuSans-20" x="249.267578"/>
     <use xlink:href="#DejaVuSans-28" x="281.054688"/>
     <use xlink:href="#DejaVuSans-34" x="320.068359"/>
     <use xlink:href="#DejaVuSans-39" x="383.691406"/>
     <use xlink:href="#DejaVuSans-2c" x="447.314453"/>
     <use xlink:href="#DejaVuSans-20" x="479.101562"/>
     <use xlink:href="#DejaVuSans-35" x="510.888672"/>
     <use xlink:href="#DejaVuSans-34" x="574.511719"/>
     <use xlink:href="#DejaVuSans-2c" x="638.134766"/>
     <use xlink:href="#DejaVuSans-20" x="669.921875"/>
     <use xlink:href="#DejaVuSans-31" x="701.708984"/>
     <use xlink:href="#DejaVuSans-34" x="765.332031"/>
     <use xlink:href="#DejaVuSans-39" x="828.955078"/>
     <use xlink:href="#DejaVuSans-29" x="892.578125"/>
    </g>
   </g>
   <g id="text_13">
    <!-- RGB: (68, 115, 179) -->
    <g transform="translate(45 83.759375) scale(0.1 -0.1)">
     <use xlink:href="#DejaVuSans-52"/>
     <use xlink:href="#DejaVuSans-47" x="69.482422"/>
     <use xlink:href="#DejaVuSans-42" x="146.972656"/>
     <use xlink:href="#DejaVuSans-3a" x="215.576172"/>
     <use xlink:href="#DejaVuSans-20" x="249.267578"/>
     <use xlink:href="#DejaVuSans-28" x="281.054688"/>
     <use xlink:href="#DejaVuSans-36" x="320.068359"/>
     <use xlink:href="#DejaVuSans-38" x="383.691406"/>
     <use xlink:href="#DejaVuSans-2c" x="447.314453"/>
     <use xlink:href="#DejaVuSans-20" x="479.101562"/>
     <use xlink:href="#DejaVuSans-31" x="510.888672"/>
     <use xlink:href="#DejaVuSans-31" x="574.511719"/>
     <use xlink:href="#DejaVuSans-35" x="638.134766"/>
     <use xlink:href="#DejaVuSans-2c" x="701.757812"/>
     <use xlink:href="#DejaVuSans-20" x="733.544922"/>
     <use xlink:href="#DejaVuSans-31" x="765.332031"/>
     <use xlink:href="#DejaVuSans-37" x="828.955078"/>
     <use xlink:href="#DejaVuSans-39" x="892.578125"/>
     <use xlink:href="#DejaVuSans-29" x="956.201172"/>
    </g>
   </g>
   <g id="text_14">
    <!-- RGB: (116, 173, 209) -->
    <g transform="translate(45 108.959375) scale(0.1 -0.1)">
     <use xlink:href="#DejaVuSans-52"/>
     <use xlink:href="#DejaVuSans-47" x="69.482422"/>
     <use xlink:href="#DejaVuSans-42" x="146.972656"/>
     <use xlink:href="#DejaVuSans-3a" x="215.576172"/>
     <use xlink:href="#DejaVuSans-20" x="249.267578"/>
     <use xlink:href="#DejaVuSans-28" x="281.054688"/>
     <use xlink:href="#DejaVuSans-31" x="320.068359"/>
     <use xlink:href="#DejaVuSans-31" x="383.691406"/>
     <use xlink:href="#DejaVuSans-36" x="447.314453"/>
     <use xlink:href="#DejaVuSans-2c" x="510.9375"/>
     <use xlink:href="#DejaVuSans-20" x="542.724609"/>
     <use xlink:href="#DejaVuSans-31" x="574.511719"/>
     <use xlink:href="#DejaVuSans-37" x="638.134766"/>
     <use xlink:href="#DejaVuSans-33" x="701.757812"/>
     <use xlink:href="#DejaVuSans-2c" x="765.380859"/>
     <use xlink:href="#DejaVuSans-20" x="797.167969"/>
     <use xlink:href="#DejaVuSans-32" x="828.955078"/>
     <use xlink:href="#DejaVuSans-30" x="892.578125"/>
     <use xlink:href="#DejaVuSans-39" x="956.201172"/>
     <use xlink:href="#DejaVuSans-29" x="1019.824219"/>
    </g>
   </g>
   <g id="text_15">
    <!-- RGB: (169, 216, 232) -->
    <g transform="translate(45 134.159375) scale(0.1 -0.1)">
     <use xlink:href="#DejaVuSans-52"/>
     <use xlink:href="#DejaVuSans-47" x="69.482422"/>
     <use xlink:href="#DejaVuSans-42" x="146.972656"/>
     <use xlink:href="#DejaVuSans-3a" x="215.576172"/>
     <use xlink:href="#DejaVuSans-20" x="249.267578"/>
     <use xlink:href="#DejaVuSans-28" x="281.054688"/>
     <use xlink:href="#DejaVuSans-31" x="320.068359"/>
     <use xlink:href="#DejaVuSans-36" x="383.691406"/>
     <use xlink:href="#DejaVuSans-39" x="447.314453"/>
     <use xlink:href="#DejaVuSans-2c" x="510.9375"/>
     <use xlink:href="#DejaVuSans-20" x="542.724609"/>
     <use xlink:href="#DejaVuSans-32" x="574.511719"/>
     <use xlink:href="#DejaVuSans-31" x="638.134766"/>
     <use xlink:href="#DejaVuSans-36" x="701.757812"/>
     <use xlink:href="#DejaVuSans-2c" x="765.380859"/>
     <use xlink:href="#DejaVuSans-20" x="797.167969"/>
     <use xlink:href="#DejaVuSans-32" x="828.955078"/>
     <use xlink:href="#DejaVuSans-33" x="892.578125"/>
     <use xlink:href="#DejaVuSans-32" x="956.201172"/>
     <use xlink:href="#DejaVuSans-29" x="1019.824219"/>
    </g>
   </g>
   <g id="text_16">
    <!-- RGB: (224, 243, 247) -->
    <g transform="translate(45 159.359375) scale(0.1 -0.1)">
     <use xlink:href="#DejaVuSans-52"/>
     <use xlink:href="#DejaVuSans-47" x="69.482422"/>
     <use xlink:href="#DejaVuSans-42" x="146.972656"/>
     <use xlink:href="#DejaVuSans-3a" x="215.576172"/>
     <use xlink:href="#DejaVuSans-20" x="249.267578"/>
     <use xlink:href="#DejaVuSans-28" x="281.054688"/>
     <use xlink:href="#DejaVuSans-32" x="320.068359"/>
     <use xlink:href="#DejaVuSans-32" x="383.691406"/>
     <use xlink:href="#DejaVuSans-34" x="447.314453"/>
     <use xlink:href="#DejaVuSans-2c" x="510.9375"/>
     <use xlink:href="#DejaVuSans-20" x="542.724609"/>
     <use xlink:href="#DejaVuSans-32" x="574.511719"/>
     <use xlink:href="#DejaVuSans-34" x="638.134766"/>
     <use xlink:href="#DejaVuSans-33" x="701.757812"/>
     <use xlink:href="#DejaVuSans-2c" x="765.380859"/>
     <use xlink:href="#DejaVuSans-20" x="797.167969"/>
     <use xlink:href="#DejaVuSans-32" x="828.955078"/>
     <use xlink:href="#DejaVuSans-34" x="892.578125"/>
     <use xlink:href="#DejaVuSans-37" x="956.201172"/>
     <use xlink:href="#DejaVuSans-29" x="1019.824219"/>
    </g>
   </g>
   <g id="text_17">
    <!-- RGB: (254, 254, 190) -->
    <g transform="translate(45 184.559375) scale(0.1 -0.1)">
     <use xlink:href="#DejaVuSans-52"/>
     <use xlink:href="#DejaVuSans-47" x="69.482422"/>
     <use xlink:href="#DejaVuSans-42" x="146.972656"/>
     <use xlink:href="#DejaVuSans-3a" x="215.576172"/>
     <use xlink:href="#DejaVuSans-20" x="249.267578"/>
     <use xlink:href="#DejaVuSans-28" x="281.054688"/>
     <use xlink:href="#DejaVuSans-32" x="320.068359"/>
     <use xlink:href="#DejaVuSans-35" x="383.691406"/>
     <use xlink:href="#DejaVuSans-34" x="447.314453"/>
     <use xlink:href="#DejaVuSans-2c" x="510.9375"/>
     <use xlink:href="#DejaVuSans-20" x="542.724609"/>
     <use xlink:href="#DejaVuSans-32" x="574.511719"/>
     <use xlink:href="#DejaVuSans-35" x="638.134766"/>
     <use xlink:href="#DejaVuSans-34" x="701.757812"/>
     <use xlink:href="#DejaVuSans-2c" x="765.380859"/>
     <use xlink:href="#DejaVuSans-20" x="797.167969"/>
     <use xlink:href="#DejaVuSans-31" x="828.955078"/>
     <use xlink:href="#DejaVuSans-39" x="892.578125"/>
     <use xlink:href="#DejaVuSans-30" x="956.201172"/>
     <use xlink:href="#DejaVuSans-29" x="1019.824219"/>
    </g>
   </g>
   <g id="text_18">
    <!-- RGB: (254, 224, 144) -->
    <g transform="translate(45 209.759375) scale(0.1 -0.1)">
     <use xlink:href="#DejaVuSans-52"/>
     <use xlink:href="#DejaVuSans-47" x="69.482422"/>
     <use xlink:href="#DejaVuSans-42" x="146.972656"/>
     <use xlink:href="#DejaVuSans-3a" x="215.576172"/>
     <use xlink:href="#DejaVuSans-20" x="249.267578"/>
     <use xlink:href="#DejaVuSans-28" x="281.054688"/>
     <use xlink:href="#DejaVuSans-32" x="320.068359"/>
     <use xlink:href="#DejaVuSans-35" x="383.691406"/>
     <use xlink:href="#DejaVuSans-34" x="447.314453"/>
     <use xlink:href="#DejaVuSans-2c" x="510.9375"/>
     <use xlink:href="#DejaVuSans-20" x="542.724609"/>
     <use xlink:href="#DejaVuSans-32" x="574.511719"/>
     <use xlink:href="#DejaVuSans-32" x="638.134766"/>
     <use xlink:href="#DejaVuSans-34" x="701.757812"/>
     <use xlink:href="#DejaVuSans-2c" x="765.380859"/>
     <use xlink:href="#DejaVuSans-20" x="797.167969"/>
     <use xlink:href="#DejaVuSans-31" x="828.955078"/>
     <use xlink:href="#DejaVuSans-34" x="892.578125"/>
     <use xlink:href="#DejaVuSans-34" x="956.201172"/>
     <use xlink:href="#DejaVuSans-29" x="1019.824219"/>
    </g>
   </g>
   <g id="text_19">
    <!-- RGB: (252, 172, 96) -->
    <g transform="translate(45 234.959375) scale(0.1 -0.1)">
     <use xlink:href="#DejaVuSans-52"/>
     <use xlink:href="#DejaVuSans-47" x="69.482422"/>
     <use xlink:href="#DejaVuSans-42" x="146.972656"/>
     <use xlink:href="#DejaVuSans-3a" x="215.576172"/>
     <use xlink:href="#DejaVuSans-20" x="249.267578"/>
     <use xlink:href="#DejaVuSans-28" x="281.054688"/>
     <use xlink:href="#DejaVuSans-32" x="320.068359"/>
     <use xlink:href="#DejaVuSans-35" x="383.691406"/>
     <use xlink:href="#DejaVuSans-32" x="447.314453"/>
     <use xlink:href="#DejaVuSans-2c" x="510.9375"/>
     <use xlink:href="#DejaVuSans-20" x="542.724609"/>
     <use xlink:href="#DejaVuSans-31" x="574.511719"/>
     <use xlink:href="#DejaVuSans-37" x="638.134766"/>
     <use xlink:href="#DejaVuSans-32" x="701.757812"/>
     <use xlink:href="#DejaVuSans-2c" x="765.380859"/>
     <use xlink:href="#DejaVuSans-20" x="797.167969"/>
     <use xlink:href="#DejaVuSans-39" x="828.955078"/>
     <use xlink:href="#DejaVuSans-36" x="892.578125"/>
     <use xlink:href="#DejaVuSans-29" x="956.201172"/>
    </g>
   </g>
   <g id="text_20">
    <!-- RGB: (244, 109, 67) -->
    <g transform="translate(45 260.159375) scale(0.1 -0.1)">
     <use xlink:href="#DejaVuSans-52"/>
     <use xlink:href="#DejaVuSans-47" x="69.482422"/>
     <use xlink:href="#DejaVuSans-42" x="146.972656"/>
     <use xlink:href="#DejaVuSans-3a" x="215.576172"/>
     <use xlink:href="#DejaVuSans-20" x="249.267578"/>
     <use xlink:href="#DejaVuSans-28" x="281.054688"/>
     <use xlink:href="#DejaVuSans-32" x="320.068359"/>
     <use xlink:href="#DejaVuSans-34" x="383.691406"/>
     <use xlink:href="#DejaVuSans-34" x="447.314453"/>
     <use xlink:href="#DejaVuSans-2c" x="510.9375"/>
     <use xlink:href="#DejaVuSans-20" x="542.724609"/>
     <use xlink:href="#DejaVuSans-31" x="574.511719"/>
     <use xlink:href="#DejaVuSans-30" x="638.134766"/>
     <use xlink:href="#DejaVuSans-39" x="701.757812"/>
     <use xlink:href="#DejaVuSans-2c" x="765.380859"/>
     <use xlink:href="#DejaVuSans-20" x="797.167969"/>
     <use xlink:href="#DejaVuSans-36" x="828.955078"/>
     <use xlink:href="#DejaVuSans-37" x="892.578125"/>
     <use xlink:href="#DejaVuSans-29" x="956.201172"/>
    </g>
   </g>
   <g id="text_21">
    <!-- RGB: (214, 47, 38) -->
    <g transform="translate(45 285.359375) scale(0.1 -0.1)">
     <use xlink:href="#DejaVuSans-52"/>
     <use xlink:href="#DejaVuSans-47" x="69.482422"/>
     <use xlink:href="#DejaVuSans-42" x="146.972656"/>
     <use xlink:href="#DejaVuSans-3a" x="215.576172"/>
     <use xlink:href="#DejaVuSans-20" x="249.267578"/>
     <use xlink:href="#DejaVuSans-28" x="281.054688"/>
     <use xlink:href="#DejaVuSans-32" x="320.068359"/>
     <use xlink:href="#DejaVuSans-31" x="383.691406"/>
     <use xlink:href="#DejaVuSans-34" x="447.314453"/>
     <use xlink:href="#DejaVuSans-2c" x="510.9375"/>
     <use xlink:href="#DejaVuSans-20" x="542.724609"/>
     <use xlink:href="#DejaVuSans-34" x="574.511719"/>
     <use xlink:href="#DejaVuSans-37" x="638.134766"/>
     <use xlink:href="#DejaVuSans-2c" x="701.757812"/>
     <use xlink:href="#DejaVuSans-20" x="733.544922"/>
     <use xlink:href="#DejaVuSans-33" x="765.332031"/>
     <use xlink:href="#DejaVuSans-38" x="828.955078"/>
     <use xlink:href="#DejaVuSans-29" x="892.578125"/>
    </g>
   </g>
   <g id="text_22">
    <!-- RGB: (165, 0, 38) -->
    <g transform="translate(45 310.559375) scale(0.1 -0.1)">
     <use xlink:href="#DejaVuSans-52"/>
     <use xlink:href="#DejaVuSans-47" x="69.482422"/>
     <use xlink:href="#DejaVuSans-42" x="146.972656"/>
     <use xlink:href="#DejaVuSans-3a" x="215.576172"/>
     <use xlink:href="#DejaVuSans-20" x="249.267578"/>
     <use xlink:href="#DejaVuSans-28" x="281.054688"/>
     <use xlink:href="#DejaVuSans-31" x="320.068359"/>
     <use xlink:href="#DejaVuSans-36" x="383.691406"/>
     <use xlink:href="#DejaVuSans-35" x="447.314453"/>
     <use xlink:href="#DejaVuSans-2c" x="510.9375"/>
     <use xlink:href="#DejaVuSans-20" x="542.724609"/>
     <use xlink:href="#DejaVuSans-30" x="574.511719"/>
     <use xlink:href="#DejaVuSans-2c" x="638.134766"/>
     <use xlink:href="#DejaVuSans-20" x="669.921875"/>
     <use xlink:href="#DejaVuSans-33" x="701.708984"/>
     <use xlink:href="#DejaVuSans-38" x="765.332031"/>
     <use xlink:href="#DejaVuSans-29" x="828.955078"/>
    </g>
   </g>
  </g>
 </g>
 <defs>
  <clipPath id="p17cb64867b">
   <rect x="45" y="43.2" width="279" height="277.2"/>
  </clipPath>
 </defs>
</svg>
