<?xml version="1.0" encoding="utf-8" standalone="no"?>
<!DOCTYPE svg PUBLIC "-//W3C//DTD SVG 1.1//EN"
  "http://www.w3.org/Graphics/SVG/1.1/DTD/svg11.dtd">
<svg xmlns:xlink="http://www.w3.org/1999/xlink" width="432pt" height="432pt" viewBox="0 0 432 432" xmlns="http://www.w3.org/2000/svg" version="1.1">
 <metadata>
  <rdf:RDF xmlns:dc="http://purl.org/dc/elements/1.1/" xmlns:cc="http://creativecommons.org/ns#" xmlns:rdf="http://www.w3.org/1999/02/22-rdf-syntax-ns#">
   <cc:Work>
    <dc:type rdf:resource="http://purl.org/dc/dcmitype/StillImage"/>
    <dc:date>2025-11-18T17:45:49.041410</dc:date>
    <dc:format>image/svg+xml</dc:format>
    <dc:creator>
     <cc:Agent>
      <dc:title>Matplotlib v3.8.2, https://matplotlib.org/</dc:title>
     </cc:Agent>
    </dc:creator>
   </cc:Work>
  </rdf:RDF>
 </metadata>
 <defs>
  <style type="text/css">*{stroke-linejoin: round; stroke-linecap: butt}</style>
 </defs>
 <g id="figure_1">
  <g id="patch_1">
   <path d="M 0 432 
L 432 432 
L 432 0 
L 0 0 
z
" style="fill: #ffffff"/>
  </g>
  <g id="axes_1">
   <g id="patch_2">
    <path d="M 54 278.64 
L 282.272727 278.64 
L 282.272727 51.84 
L 54 51.84 
z
" style="fill: #ffffff"/>
   </g>
   <g id="matplotlib.axis_1">
    <g id="xtick_1">
     <g id="line2d_1">
      <path d="M 54 278.64 
L 54 51.84 
" clip-path="url(#p8e31dd67f1)" style="fill: none; stroke: #808080; stroke-width: 0.5; stroke-linecap: square"/>
     </g>
     <g id="line2d_2">
      <defs>
       <path id="mc7c1496f5d" d="M 0 0 
L 0 3.5 
" style="stroke: #000000; stroke-width: 0.8"/>
      </defs>
      <g>
       <use xlink:href="#mc7c1496f5d" x="54" y="278.64" style="stroke: #000000; stroke-width: 0.8"/>
      </g>
     </g>
     <g id="text_1">
      <!-- 0.0 -->
      <g transform="translate(46.048437 293.238437) scale(0.1 -0.1)">
       <defs>
        <path id="DejaVuSans-30" d="M 2034 4250 
Q 1547 4250 1301 3770 
Q 1056 3291 1056 2328 
Q 1056 1369 1301 889 
Q 1547 409 2034 409 
Q 2525 409 2770 889 
Q 3016 1369 3016 2328 
Q 3016 3291 2770 3770 
Q 2525 4250 2034 4250 
z
M 2034 4750 
Q 2819 4750 3233 4129 
Q 3647 3509 3647 2328 
Q 3647 1150 3233 529 
Q 2819 -91 2034 -91 
Q 1250 -91 836 529 
Q 422 1150 422 2328 
Q 422 3509 836 4129 
Q 1250 4750 2034 4750 
z
" transform="scale(0.015625)"/>
        <path id="DejaVuSans-2e" d="M 684 794 
L 1344 794 
L 1344 0 
L 684 0 
L 684 794 
z
" transform="scale(0.015625)"/>
       </defs>
       <use xlink:href="#DejaVuSans-30"/>
       <use xlink:href="#DejaVuSans-2e" x="63.623047"/>
       <use xlink:href="#DejaVuSans-30" x="95.410156"/>
      </g>
     </g>
    </g>
    <g id="xtick_2">
     <g id="line2d_3">
      <path d="M 99.654545 278.64 
L 99.654545 51.84 
" clip-path="url(#p8e31dd67f1)" style="fill: none; stroke: #808080; stroke-width: 0.5; stroke-linecap: square"/>
     </g>
     <g id="line2d_4">
      <g>
       <use xlink:href="#mc7c1496f5d" x="99.654545" y="278.64" style="stroke: #000000; stroke-width: 0.8"/>
      </g>
     </g>
     <g id="text_2">
      <!-- 0.2 -->
      <g transform="translate(91.702983 293.238437) scale(0.1 -0.1)">
       <defs>
        <path id="DejaVuSans-32" d="M 1228 531 
L 3431 531 
L 3431 0 
L 469 0 
L 469 531 
Q 828 903 1448 1529 
Q 2069 2156 2228 2338 
Q 2531 2678 2651 2914 
Q 2772 3150 2772 3378 
Q 2772 3750 2511 3984 
Q 2250 4219 1831 4219 
Q 1534 4219 1204 4116 
Q 875 4013 500 3803 
L 500 4441 
Q 881 4594 1212 4672 
Q 1544 4750 1819 4750 
Q 2544 4750 2975 4387 
Q 3406 4025 3406 3419 
Q 3406 3131 3298 2873 
Q 3191 2616 2906 2266 
Q 2828 2175 2409 1742 
Q 1991 1309 1228 531 
z
" transform="scale(0.015625)"/>
       </defs>
       <use xlink:href="#DejaVuSans-30"/>
       <use xlink:href="#DejaVuSans-2e" x="63.623047"/>
       <use xlink:href="#DejaVuSans-32" x="95.410156"/>
      </g>
     </g>
    </g>
    <g id="xtick_3">
     <g id="line2d_5">
      <path d="M 145.309091 278.64 
L 145.309091 51.84 
" clip-path="url(#p8e31dd67f1)" style="fill: none; stroke: #808080; stroke-width: 0.5; stroke-linecap: square"/>
     </g>
     <g id="line2d_6">
      <g>
       <use xlink:href="#mc7c1496f5d" x="145.309091" y="278.64" style="stroke: #000000; stroke-width: 0.8"/>
      </g>
     </g>
     <g id="text_3">
      <!-- 0.4 -->
      <g transform="translate(137.357528 293.238437) scale(0.1 -0.1)">
       <defs>
        <path id="DejaVuSans-34" d="M 2419 4116 
L 825 1625 
L 2419 1625 
L 2419 4116 
z
M 2253 4666 
L 3047 4666 
L 3047 1625 
L 3713 1625 
L 3713 1100 
L 3047 1100 
L 3047 0 
L 2419 0 
L 2419 1100 
L 313 1100 
L 313 1709 
L 2253 4666 
z
" transform="scale(0.015625)"/>
       </defs>
       <use xlink:href="#DejaVuSans-30"/>
       <use xlink:href="#DejaVuSans-2e" x="63.623047"/>
       <use xlink:href="#DejaVuSans-34" x="95.410156"/>
      </g>
     </g>
    </g>
    <g id="xtick_4">
     <g id="line2d_7">
      <path d="M 190.963636 278.64 
L 190.963636 51.84 
" clip-path="url(#p8e31dd67f1)" style="fill: none; stroke: #808080; stroke-width: 0.5; stroke-linecap: square"/>
     </g>
     <g id="line2d_8">
      <g>
       <use xlink:href="#mc7c1496f5d" x="190.963636" y="278.64" style="stroke: #000000; stroke-width: 0.8"/>
      </g>
     </g>
     <g id="text_4">
      <!-- 0.6 -->
      <g transform="translate(183.012074 293.238437) scale(0.1 -0.1)">
       <defs>
        <path id="DejaVuSans-36" d="M 2113 2584 
Q 1688 2584 1439 2293 
Q 1191 2003 1191 1497 
Q 1191 994 1439 701 
Q 1688 409 2113 409 
Q 2538 409 2786 701 
Q 3034 994 3034 1497 
Q 3034 2003 2786 2293 
Q 2538 2584 2113 2584 
z
M 3366 4563 
L 3366 3988 
Q 3128 4100 2886 4159 
Q 2644 4219 2406 4219 
Q 1781 4219 1451 3797 
Q 1122 3375 1075 2522 
Q 1259 2794 1537 2939 
Q 1816 3084 2150 3084 
Q 2853 3084 3261 2657 
Q 3669 2231 3669 1497 
Q 3669 778 3244 343 
Q 2819 -91 2113 -91 
Q 1303 -91 875 529 
Q 447 1150 447 2328 
Q 447 3434 972 4092 
Q 1497 4750 2381 4750 
Q 2619 4750 2861 4703 
Q 3103 4656 3366 4563 
z
" transform="scale(0.015625)"/>
       </defs>
       <use xlink:href="#DejaVuSans-30"/>
       <use xlink:href="#DejaVuSans-2e" x="63.623047"/>
       <use xlink:href="#DejaVuSans-36" x="95.410156"/>
      </g>
     </g>
    </g>
    <g id="xtick_5">
     <g id="line2d_9">
      <path d="M 236.618182 278.64 
L 236.618182 51.84 
" clip-path="url(#p8e31dd67f1)" style="fill: none; stroke: #808080; stroke-width: 0.5; stroke-linecap: square"/>
     </g>
     <g id="line2d_10">
      <g>
       <use xlink:href="#mc7c1496f5d" x="236.618182" y="278.64" style="stroke: #000000; stroke-width: 0.8"/>
      </g>
     </g>
     <g id="text_5">
      <!-- 0.8 -->
      <g transform="translate(228.666619 293.238437) scale(0.1 -0.1)">
       <defs>
        <path id="DejaVuSans-38" d="M 2034 2216 
Q 1584 2216 1326 1975 
Q 1069 1734 1069 1313 
Q 1069 891 1326 650 
Q 1584 409 2034 409 
Q 2484 409 2743 651 
Q 3003 894 3003 1313 
Q 3003 1734 2745 1975 
Q 2488 2216 2034 2216 
z
M 1403 2484 
Q 997 2584 770 2862 
Q 544 3141 544 3541 
Q 544 4100 942 4425 
Q 1341 4750 2034 4750 
Q 2731 4750 3128 4425 
Q 3525 4100 3525 3541 
Q 3525 3141 3298 2862 
Q 3072 2584 2669 2484 
Q 3125 2378 3379 2068 
Q 3634 1759 3634 1313 
Q 3634 634 3220 271 
Q 2806 -91 2034 -91 
Q 1263 -91 848 271 
Q 434 634 434 1313 
Q 434 1759 690 2068 
Q 947 2378 1403 2484 
z
M 1172 3481 
Q 1172 3119 1398 2916 
Q 1625 2713 2034 2713 
Q 2441 2713 2670 2916 
Q 2900 3119 2900 3481 
Q 2900 3844 2670 4047 
Q 2441 4250 2034 4250 
Q 1625 4250 1398 4047 
Q 1172 3844 1172 3481 
z
" transform="scale(0.015625)"/>
       </defs>
       <use xlink:href="#DejaVuSans-30"/>
       <use xlink:href="#DejaVuSans-2e" x="63.623047"/>
       <use xlink:href="#DejaVuSans-38" x="95.410156"/>
      </g>
     </g>
    </g>
    <g id="xtick_6">
     <g id="line2d_11">
      <path d="M 282.272727 278.64 
L 282.272727 51.84 
" clip-path="url(#p8e31dd67f1)" style="fill: none; stroke: #808080; stroke-width: 0.5; stroke-linecap: square"/>
     </g>
     <g id="line2d_12">
      <g>
       <use xlink:href="#mc7c1496f5d" x="282.272727" y="278.64" style="stroke: #000000; stroke-width: 0.8"/>
      </g>
     </g>
     <g id="text_6">
      <!-- 1.0 -->
      <g transform="translate(274.321165 293.238437) scale(0.1 -0.1)">
       <defs>
        <path id="DejaVuSans-31" d="M 794 531 
L 1825 531 
L 1825 4091 
L 703 3866 
L 703 4441 
L 1819 4666 
L 2450 4666 
L 2450 531 
L 3481 531 
L 3481 0 
L 794 0 
L 794 531 
z
" transform="scale(0.015625)"/>
       </defs>
       <use xlink:href="#DejaVuSans-31"/>
       <use xlink:href="#DejaVuSans-2e" x="63.623047"/>
       <use xlink:href="#DejaVuSans-30" x="95.410156"/>
      </g>
     </g>
    </g>
    <g id="xtick_7">
     <g id="line2d_13">
      <defs>
       <path id="m5aab79f520" d="M 0 0 
L 0 2 
" style="stroke: #000000; stroke-width: 0.6"/>
      </defs>
      <g>
       <use xlink:href="#m5aab79f520" x="65.413636" y="278.64" style="stroke: #000000; stroke-width: 0.6"/>
      </g>
     </g>
    </g>
    <g id="xtick_8">
     <g id="line2d_14">
      <g>
       <use xlink:href="#m5aab79f520" x="76.827273" y="278.64" style="stroke: #000000; stroke-width: 0.6"/>
      </g>
     </g>
    </g>
    <g id="xtick_9">
     <g id="line2d_15">
      <g>
       <use xlink:href="#m5aab79f520" x="88.240909" y="278.64" style="stroke: #000000; stroke-width: 0.6"/>
      </g>
     </g>
    </g>
    <g id="xtick_10">
     <g id="line2d_16">
      <g>
       <use xlink:href="#m5aab79f520" x="111.068182" y="278.64" style="stroke: #000000; stroke-width: 0.6"/>
      </g>
     </g>
    </g>
    <g id="xtick_11">
     <g id="line2d_17">
      <g>
       <use xlink:href="#m5aab79f520" x="122.481818" y="278.64" style="stroke: #000000; stroke-width: 0.6"/>
      </g>
     </g>
    </g>
    <g id="xtick_12">
     <g id="line2d_18">
      <g>
       <use xlink:href="#m5aab79f520" x="133.895455" y="278.64" style="stroke: #000000; stroke-width: 0.6"/>
      </g>
     </g>
    </g>
    <g id="xtick_13">
     <g id="line2d_19">
      <g>
       <use xlink:href="#m5aab79f520" x="156.722727" y="278.64" style="stroke: #000000; stroke-width: 0.6"/>
      </g>
     </g>
    </g>
    <g id="xtick_14">
     <g id="line2d_20">
      <g>
       <use xlink:href="#m5aab79f520" x="168.136364" y="278.64" style="stroke: #000000; stroke-width: 0.6"/>
      </g>
     </g>
    </g>
    <g id="xtick_15">
     <g id="line2d_21">
      <g>
       <use xlink:href="#m5aab79f520" x="179.55" y="278.64" style="stroke: #000000; stroke-width: 0.6"/>
      </g>
     </g>
    </g>
    <g id="xtick_16">
     <g id="line2d_22">
      <g>
       <use xlink:href="#m5aab79f520" x="202.377273" y="278.64" style="stroke: #000000; stroke-width: 0.6"/>
      </g>
     </g>
    </g>
    <g id="xtick_17">
     <g id="line2d_23">
      <g>
       <use xlink:href="#m5aab79f520" x="213.790909" y="278.64" style="stroke: #000000; stroke-width: 0.6"/>
      </g>
     </g>
    </g>
    <g id="xtick_18">
     <g id="line2d_24">
      <g>
       <use xlink:href="#m5aab79f520" x="225.204545" y="278.64" style="stroke: #000000; stroke-width: 0.6"/>
      </g>
     </g>
    </g>
    <g id="xtick_19">
     <g id="line2d_25">
      <g>
       <use xlink:href="#m5aab79f520" x="248.031818" y="278.64" style="stroke: #000000; stroke-width: 0.6"/>
      </g>
     </g>
    </g>
    <g id="xtick_20">
     <g id="line2d_26">
      <g>
       <use xlink:href="#m5aab79f520" x="259.445455" y="278.64" style="stroke: #000000; stroke-width: 0.6"/>
      </g>
     </g>
    </g>
    <g id="xtick_21">
     <g id="line2d_27">
      <g>
       <use xlink:href="#m5aab79f520" x="270.859091" y="278.64" style="stroke: #000000; stroke-width: 0.6"/>
      </g>
     </g>
    </g>
   </g>
   <g id="matplotlib.axis_2">
    <g id="ytick_1">
     <g id="line2d_28">
      <path d="M 54 278.64 
L 282.272727 278.64 
" clip-path="url(#p8e31dd67f1)" style="fill: none; stroke: #808080; stroke-width: 0.5; stroke-linecap: square"/>
     </g>
     <g id="line2d_29">
      <defs>
       <path id="mbe06c33624" d="M 0 0 
L -3.5 0 
" style="stroke: #000000; stroke-width: 0.8"/>
      </defs>
      <g>
       <use xlink:href="#mbe06c33624" x="54" y="278.64" style="stroke: #000000; stroke-width: 0.8"/>
      </g>
     </g>
     <g id="text_7">
      <!-- 0.0 -->
      <g transform="translate(31.096875 282.439219) scale(0.1 -0.1)">
       <use xlink:href="#DejaVuSans-30"/>
       <use xlink:href="#DejaVuSans-2e" x="63.623047"/>
       <use xlink:href="#DejaVuSans-30" x="95.410156"/>
      </g>
     </g>
    </g>
    <g id="ytick_2">
     <g id="line2d_30">
      <path d="M 54 233.28 
L 282.272727 233.28 
" clip-path="url(#p8e31dd67f1)" style="fill: none; stroke: #808080; stroke-width: 0.5; stroke-linecap: square"/>
     </g>
     <g id="line2d_31">
      <g>
       <use xlink:href="#mbe06c33624" x="54" y="233.28" style="stroke: #000000; stroke-width: 0.8"/>
      </g>
     </g>
     <g id="text_8">
      <!-- 0.2 -->
      <g transform="translate(31.096875 237.079219) scale(0.1 -0.1)">
       <use xlink:href="#DejaVuSans-30"/>
       <use xlink:href="#DejaVuSans-2e" x="63.623047"/>
       <use xlink:href="#DejaVuSans-32" x="95.410156"/>
      </g>
     </g>
    </g>
    <g id="ytick_3">
     <g id="line2d_32">
      <path d="M 54 187.92 
L 282.272727 187.92 
" clip-path="url(#p8e31dd67f1)" style="fill: none; stroke: #808080; stroke-width: 0.5; stroke-linecap: square"/>
     </g>
     <g id="line2d_33">
      <g>
       <use xlink:href="#mbe06c33624" x="54" y="187.92" style="stroke: #000000; stroke-width: 0.8"/>
      </g>
     </g>
     <g id="text_9">
      <!-- 0.4 -->
      <g transform="translate(31.096875 191.719219) scale(0.1 -0.1)">
       <use xlink:href="#DejaVuSans-30"/>
       <use xlink:href="#DejaVuSans-2e" x="63.623047"/>
       <use xlink:href="#DejaVuSans-34" x="95.410156"/>
      </g>
     </g>
    </g>
    <g id="ytick_4">
     <g id="line2d_34">
      <path d="M 54 142.56 
L 282.272727 142.56 
" clip-path="url(#p8e31dd67f1)" style="fill: none; stroke: #808080; stroke-width: 0.5; stroke-linecap: square"/>
     </g>
     <g id="line2d_35">
      <g>
       <use xlink:href="#mbe06c33624" x="54" y="142.56" style="stroke: #000000; stroke-width: 0.8"/>
      </g>
     </g>
     <g id="text_10">
      <!-- 0.6 -->
      <g transform="translate(31.096875 146.359219) scale(0.1 -0.1)">
       <use xlink:href="#DejaVuSans-30"/>
       <use xlink:href="#DejaVuSans-2e" x="63.623047"/>
       <use xlink:href="#DejaVuSans-36" x="95.410156"/>
      </g>
     </g>
    </g>
    <g id="ytick_5">
     <g id="line2d_36">
      <path d="M 54 97.2 
L 282.272727 97.2 
" clip-path="url(#p8e31dd67f1)" style="fill: none; stroke: #808080; stroke-width: 0.5; stroke-linecap: square"/>
     </g>
     <g id="line2d_37">
      <g>
       <use xlink:href="#mbe06c33624" x="54" y="97.2" style="stroke: #000000; stroke-width: 0.8"/>
      </g>
     </g>
     <g id="text_11">
      <!-- 0.8 -->
      <g transform="translate(31.096875 100.999219) scale(0.1 -0.1)">
       <use xlink:href="#DejaVuSans-30"/>
       <use xlink:href="#DejaVuSans-2e" x="63.623047"/>
       <use xlink:href="#DejaVuSans-38" x="95.410156"/>
      </g>
     </g>
    </g>
    <g id="ytick_6">
     <g id="line2d_38">
      <path d="M 54 51.84 
L 282.272727 51.84 
" clip-path="url(#p8e31dd67f1)" style="fill: none; stroke: #808080; stroke-width: 0.5; stroke-linecap: square"/>
     </g>
     <g id="line2d_39">
      <g>
       <use xlink:href="#mbe06c33624" x="54" y="51.84" style="stroke: #000000; stroke-width: 0.8"/>
      </g>
     </g>
     <g id="text_12">
      <!-- 1.0 -->
      <g transform="translate(31.096875 55.639219) scale(0.1 -0.1)">
       <use xlink:href="#DejaVuSans-31"/>
       <use xlink:href="#DejaVuSans-2e" x="63.623047"/>
       <use xlink:href="#DejaVuSans-30" x="95.410156"/>
      </g>
     </g>
    </g>
    <g id="ytick_7">
     <g id="line2d_40">
      <defs>
       <path id="m49c334d001" d="M 0 0 
L -2 0 
" style="stroke: #000000; stroke-width: 0.6"/>
      </defs>
      <g>
       <use xlink:href="#m49c334d001" x="54" y="267.3" style="stroke: #000000; stroke-width: 0.6"/>
      </g>
     </g>
    </g>
    <g id="ytick_8">
     <g id="line2d_41">
      <g>
       <use xlink:href="#m49c334d001" x="54" y="255.96" style="stroke: #000000; stroke-width: 0.6"/>
      </g>
     </g>
    </g>
    <g id="ytick_9">
     <g id="line2d_42">
      <g>
       <use xlink:href="#m49c334d001" x="54" y="244.62" style="stroke: #000000; stroke-width: 0.6"/>
      </g>
     </g>
    </g>
    <g id="ytick_10">
     <g id="line2d_43">
      <g>
       <use xlink:href="#m49c334d001" x="54" y="221.94" style="stroke: #000000; stroke-width: 0.6"/>
      </g>
     </g>
    </g>
    <g id="ytick_11">
     <g id="line2d_44">
      <g>
       <use xlink:href="#m49c334d001" x="54" y="210.6" style="stroke: #000000; stroke-width: 0.6"/>
      </g>
     </g>
    </g>
    <g id="ytick_12">
     <g id="line2d_45">
      <g>
       <use xlink:href="#m49c334d001" x="54" y="199.26" style="stroke: #000000; stroke-width: 0.6"/>
      </g>
     </g>
    </g>
    <g id="ytick_13">
     <g id="line2d_46">
      <g>
       <use xlink:href="#m49c334d001" x="54" y="176.58" style="stroke: #000000; stroke-width: 0.6"/>
      </g>
     </g>
    </g>
    <g id="ytick_14">
     <g id="line2d_47">
      <g>
       <use xlink:href="#m49c334d001" x="54" y="165.24" style="stroke: #000000; stroke-width: 0.6"/>
      </g>
     </g>
    </g>
    <g id="ytick_15">
     <g id="line2d_48">
      <g>
       <use xlink:href="#m49c334d001" x="54" y="153.9" style="stroke: #000000; stroke-width: 0.6"/>
      </g>
     </g>
    </g>
    <g id="ytick_16">
     <g id="line2d_49">
      <g>
       <use xlink:href="#m49c334d001" x="54" y="131.22" style="stroke: #000000; stroke-width: 0.6"/>
      </g>
     </g>
    </g>
    <g id="ytick_17">
     <g id="line2d_50">
      <g>
       <use xlink:href="#m49c334d001" x="54" y="119.88" style="stroke: #000000; stroke-width: 0.6"/>
      </g>
     </g>
    </g>
    <g id="ytick_18">
     <g id="line2d_51">
      <g>
       <use xlink:href="#m49c334d001" x="54" y="108.54" style="stroke: #000000; stroke-width: 0.6"/>
      </g>
     </g>
    </g>
    <g id="ytick_19">
     <g id="line2d_52">
      <g>
       <use xlink:href="#m49c334d001" x="54" y="85.86" style="stroke: #000000; stroke-width: 0.6"/>
      </g>
     </g>
    </g>
    <g id="ytick_20">
     <g id="line2d_53">
      <g>
       <use xlink:href="#m49c334d001" x="54" y="74.52" style="stroke: #000000; stroke-width: 0.6"/>
      </g>
     </g>
    </g>
    <g id="ytick_21">
     <g id="line2d_54">
      <g>
       <use xlink:href="#m49c334d001" x="54" y="63.18" style="stroke: #000000; stroke-width: 0.6"/>
      </g>
     </g>
    </g>
   </g>
   <g id="QuadContourSet_1">
    <path d="M 54 278.64 
L 281.131364 278.64 
L 281.131364 278.64 
" clip-path="url(#p8e31dd67f1)" style="fill: none; stroke: #313695; stroke-width: 1.5"/>
    <path d="M 54 275.7672 
L 92.806364 275.159547 
L 122.481818 274.479158 
L 144.167727 273.78 
L 162.429545 272.97 
L 176.125909 272.140244 
L 186.398182 271.324901 
L 195.529091 270.385967 
L 202.377273 269.482415 
L 208.591364 268.434 
L 213.790909 267.3 
L 218.356364 265.994182 
L 221.780455 264.708 
L 224.063182 263.6145 
L 226.345909 262.197 
L 227.487273 261.296471 
L 228.628636 260.172 
L 229.77 258.640364 
L 230.023636 258.228 
L 230.550933 257.094 
L 230.911364 255.96 
L 231.128766 254.826 
L 231.209111 252.558 
L 230.911364 250.29 
L 230.319545 248.022 
L 229.494498 245.754 
L 228.481364 243.486 
L 226.681604 240.084 
L 223.882967 235.548 
L 220.639091 230.865677 
L 217.215 226.287 
L 212.649545 220.536 
L 207.203038 214.002 
L 196.26762 201.528 
L 184.115455 188.230685 
L 175.347707 178.848 
L 150.440086 152.766 
L 116.180205 117.612 
L 60.848182 61.608 
L 54 54.7128 
L 54 54.7128 
" clip-path="url(#p8e31dd67f1)" style="fill: none; stroke: #3a54a4; stroke-width: 1.5"/>
    <path d="M 54 272.82 
L 81.392727 271.973455 
L 103.078636 271.09575 
L 121.340455 270.144 
L 136.178182 269.159351 
L 148.733182 268.11 
L 159.005455 267.03931 
L 168.136364 265.856727 
L 174.984545 264.769043 
L 181.832727 263.433246 
L 186.398182 262.351636 
L 190.963636 261.051429 
L 194.387727 259.877455 
L 197.811818 258.460615 
L 200.094545 257.3208 
L 201.235909 256.66875 
L 203.518636 255.15 
L 204.66 254.23632 
L 205.801364 253.176545 
L 206.942727 251.901474 
L 207.323182 251.424 
L 208.084091 250.29 
L 208.084091 250.29 
L 208.698671 249.156 
L 209.551558 246.888 
L 209.986364 244.62 
L 210.081477 242.352 
L 209.896845 240.084 
L 209.479091 237.816 
L 208.865024 235.548 
L 207.638681 232.146 
L 206.112645 228.744 
L 203.708864 224.208 
L 200.972517 219.672 
L 197.811818 214.903385 
L 193.938666 209.466 
L 188.680909 202.555019 
L 182.974091 195.4422 
L 176.696591 187.92 
L 166.868182 176.58 
L 156.722727 165.24 
L 144.167727 151.544769 
L 129.33 135.679765 
L 111.068182 116.469723 
L 88.129557 92.664 
L 57.186307 60.912 
L 54 57.66 
L 54 57.66 
" clip-path="url(#p8e31dd67f1)" style="fill: none; stroke: #4574b3; stroke-width: 1.5"/>
    <path d="M 54 269.78867 
L 75.685909 268.765902 
L 93.947727 267.688356 
L 108.785455 266.607481 
L 121.340455 265.493288 
L 132.754091 264.261736 
L 141.885 263.071125 
L 149.874545 261.825517 
L 157.008068 260.496 
L 163.570909 259.01687 
L 169.277727 257.459806 
L 173.843182 255.96 
L 177.267273 254.617714 
L 180.691364 253.021909 
L 183.544773 251.424 
L 185.256818 250.29 
L 185.256818 250.29 
L 187.539545 248.4756 
L 189.170065 246.888 
L 190.137132 245.754 
L 191.663182 243.486 
L 192.727562 241.218 
L 193.409416 238.95 
L 193.770774 236.682 
L 193.860944 234.414 
L 193.719612 232.146 
L 193.246364 229.248 
L 192.865909 227.61 
L 191.819659 224.208 
L 190.493663 220.806 
L 188.680909 216.9 
L 187.179115 214.002 
L 184.583227 209.466 
L 181.002645 203.796 
L 176.316136 196.992 
L 170.419091 189.03541 
L 164.207949 181.116 
L 156.722727 171.986582 
L 148.090472 161.838 
L 136.128557 148.23 
L 123.623182 134.387379 
L 109.926818 119.531077 
L 94.315909 102.87 
L 65.137702 72.252 
L 54 60.69133 
L 54 60.69133 
" clip-path="url(#p8e31dd67f1)" style="fill: none; stroke: #5c90c2; stroke-width: 1.5"/>
    <path d="M 54 266.66648 
L 72.261818 265.482783 
L 87.099545 264.317425 
L 100.795909 263.021727 
L 112.209545 261.7245 
L 121.340455 260.496 
L 130.471364 259.038 
L 138.460909 257.514472 
L 144.167727 256.236585 
L 149.874545 254.748329 
L 154.44 253.353493 
L 159.005455 251.721443 
L 162.429545 250.29 
L 165.853636 248.600571 
L 168.788571 246.888 
L 170.458448 245.754 
L 172.701818 243.972 
L 174.413864 242.352 
L 176.125909 240.345692 
L 177.104221 238.95 
L 178.346941 236.682 
L 179.228077 234.414 
L 179.800543 232.146 
L 180.10741 229.878 
L 180.184091 227.61 
L 180.059971 225.342 
L 179.759638 223.074 
L 179.023217 219.672 
L 177.993595 216.27 
L 176.71627 212.868 
L 174.984545 208.957655 
L 173.557841 206.064 
L 171.090481 201.528 
L 168.136364 196.5888 
L 164.712273 191.278385 
L 160.842772 185.652 
L 155.581364 178.435636 
L 150.700213 172.044 
L 143.473957 162.972 
L 133.895455 151.441011 
L 124.764545 140.8104 
L 115.328692 130.086 
L 101.032053 114.21 
L 80.113017 91.53 
L 59.706818 69.827586 
L 54 63.81352 
L 54 63.81352 
" clip-path="url(#p8e31dd67f1)" style="fill: none; stroke: #74add1; stroke-width: 1.5"/>
    <path d="M 54 263.445711 
L 69.979091 262.09949 
L 83.675455 260.718042 
L 95.089091 259.353209 
L 105.361364 257.901254 
L 114.492273 256.38 
L 122.481818 254.814309 
L 129.33 253.233303 
L 135.036818 251.700585 
L 139.602273 250.29 
L 144.167727 248.655706 
L 148.407078 246.888 
L 152.157273 245.032364 
L 154.845 243.486 
L 157.864091 241.424182 
L 159.542567 240.084 
L 161.288182 238.464 
L 162.923108 236.682 
L 164.59521 234.414 
L 165.881475 232.146 
L 166.83574 229.878 
L 167.502273 227.61 
L 167.917805 225.342 
L 168.113071 223.074 
L 168.113984 220.806 
L 167.942547 218.538 
L 167.40263 215.136 
L 166.569407 211.734 
L 165.485455 208.332 
L 164.18549 204.93 
L 162.164881 200.394 
L 159.865386 195.858 
L 157.330466 191.322 
L 153.883237 185.652 
L 149.874545 179.539932 
L 146.251957 174.312 
L 140.743636 166.762356 
L 136.134283 160.704 
L 128.963133 151.632 
L 120.199091 140.965663 
L 111.946154 131.22 
L 100.795909 118.398484 
L 88.994358 105.138 
L 72.498195 86.994 
L 54 67.034289 
L 54 67.034289 
" clip-path="url(#p8e31dd67f1)" style="fill: none; stroke: #90c3dd; stroke-width: 1.5"/>
    <path d="M 54 260.115737 
L 67.696364 258.672706 
L 79.11 257.262894 
L 89.382273 255.782812 
L 98.513182 254.24939 
L 106.502727 252.693248 
L 113.350909 251.149091 
L 120.199091 249.355385 
L 124.764545 247.981012 
L 129.33 246.416727 
L 133.895455 244.62 
L 137.319545 243.06075 
L 140.847397 241.218 
L 144.167727 239.168077 
L 146.450455 237.520174 
L 148.793254 235.548 
L 151.015909 233.28 
L 151.015909 233.28 
L 152.809481 231.012 
L 154.232479 228.744 
L 155.333241 226.476 
L 156.152045 224.208 
L 156.722727 221.94 
L 157.073916 219.672 
L 157.23 217.404 
L 157.211883 215.136 
L 156.896834 211.734 
L 156.280909 208.332 
L 155.405769 204.93 
L 154.305722 201.528 
L 153.009277 198.126 
L 151.015909 193.59 
L 148.733182 189 
L 146.285438 184.518 
L 142.922603 178.848 
L 139.307727 173.178 
L 134.69095 166.374 
L 129.33 158.907273 
L 124.733698 152.766 
L 117.676581 143.694 
L 109.427472 133.488 
L 98.989434 121.014 
L 85.958182 105.930947 
L 74.210488 92.664 
L 57.804545 74.52 
L 54 70.364263 
L 54 70.364263 
" clip-path="url(#p8e31dd67f1)" style="fill: none; stroke: #aad8e9; stroke-width: 1.5"/>
    <path d="M 54 256.664348 
L 65.413636 255.198926 
L 75.685909 253.675324 
L 84.816818 252.108 
L 92.806364 250.532308 
L 99.654545 248.98643 
L 106.502727 247.208727 
L 112.209545 245.502 
L 117.916364 243.526988 
L 121.340455 242.172947 
L 125.973048 240.084 
L 129.33 238.32 
L 132.075442 236.682 
L 135.329476 234.414 
L 138.043337 232.146 
L 140.2924 229.878 
L 142.138636 227.61 
L 143.633472 225.342 
L 144.819935 223.074 
L 145.734305 220.806 
L 146.450455 218.349 
L 146.865496 216.27 
L 147.131268 214.002 
L 147.22426 211.734 
L 147.076364 208.332 
L 146.626049 204.93 
L 145.913342 201.528 
L 144.971504 198.126 
L 143.828403 194.724 
L 142.031329 190.188 
L 139.602273 184.9149 
L 137.664609 181.116 
L 134.510035 175.446 
L 131.089602 169.776 
L 126.689198 162.972 
L 122.016818 156.168 
L 116.278755 148.23 
L 109.407173 139.158 
L 101.349298 128.952 
L 91.665 117.131492 
L 82.504055 106.272 
L 70.730721 92.664 
L 56.282727 76.360075 
L 54 73.815652 
L 54 73.815652 
" clip-path="url(#p8e31dd67f1)" style="fill: none; stroke: #c5e6f0; stroke-width: 1.5"/>
    <path d="M 54 253.077445 
L 64.652727 251.424 
L 74.544545 249.640763 
L 82.534091 247.9842 
L 90.523636 246.070703 
L 96.230455 244.508824 
L 101.937273 242.733979 
L 106.502727 241.126759 
L 111.068182 239.3 
L 114.492273 237.754703 
L 118.757368 235.548 
L 121.340455 234.011613 
L 124.124268 232.146 
L 127.047273 229.854857 
L 129.456818 227.61 
L 131.612727 225.188757 
L 133.173367 223.074 
L 134.544465 220.806 
L 135.639803 218.538 
L 136.489463 216.27 
L 137.119306 214.002 
L 137.551687 211.734 
L 137.806028 209.466 
L 137.899286 207.198 
L 137.769174 203.796 
L 137.319545 200.205 
L 136.685455 196.992 
L 135.797727 193.59 
L 134.714895 190.188 
L 133.004634 185.652 
L 131.028774 181.116 
L 128.822727 176.58 
L 125.785766 170.91 
L 122.481818 165.24 
L 118.217856 158.436 
L 112.896384 150.498 
L 107.263636 142.56 
L 100.510568 133.488 
L 92.806364 123.56815 
L 85.958182 115.033846 
L 77.804519 105.138 
L 67.250953 92.664 
L 54 77.402555 
L 54 77.402555 
" clip-path="url(#p8e31dd67f1)" style="fill: none; stroke: #e0f3f8; stroke-width: 1.5"/>
    <path d="M 54 249.338658 
L 63.130909 247.649518 
L 72.065031 245.754 
L 79.11 244.038462 
L 85.958182 242.140037 
L 92.403529 240.084 
L 97.371818 238.264615 
L 101.937273 236.367759 
L 106.502727 234.1872 
L 110.2052 232.146 
L 113.749059 229.878 
L 116.775 227.61 
L 119.349139 225.342 
L 121.5268 223.074 
L 123.623182 220.428 
L 124.872221 218.538 
L 126.11343 216.27 
L 127.107344 214.002 
L 127.879114 211.734 
L 128.450589 209.466 
L 128.840844 207.198 
L 129.066608 204.93 
L 129.128583 201.528 
L 128.89596 198.126 
L 128.40457 194.724 
L 127.684658 191.322 
L 126.761932 187.92 
L 125.253701 183.384 
L 123.467541 178.848 
L 121.340455 174.105818 
L 119.057727 169.50384 
L 116.142165 164.106 
L 112.834065 158.436 
L 108.58164 151.632 
L 104.065239 144.828 
L 98.513182 136.89 
L 98.513182 136.89 
L 92.702603 128.952 
L 85.79513 119.88 
L 77.738832 109.674 
L 68.493165 98.334 
L 57.424091 85.15125 
L 54 81.141342 
L 54 81.141342 
" clip-path="url(#p8e31dd67f1)" style="fill: none; stroke: #f0f9db; stroke-width: 1.5"/>
    <path d="M 54 245.424255 
L 62.799545 243.486 
L 69.979091 241.677223 
L 76.827273 239.716216 
L 82.660909 237.816 
L 88.240909 235.738989 
L 91.665 234.310909 
L 96.286131 232.146 
L 100.477389 229.878 
L 104.093182 227.61 
L 107.206973 225.342 
L 109.926818 223.030385 
L 112.209545 220.756696 
L 114.492273 218.0277 
L 115.737397 216.27 
L 117.095383 214.002 
L 118.206541 211.734 
L 119.095149 209.466 
L 119.782403 207.198 
L 120.286888 204.93 
L 120.624973 202.662 
L 120.851299 199.26 
L 120.77759 195.858 
L 120.439378 192.456 
L 119.866795 189.054 
L 119.057727 185.548909 
L 117.916364 181.62 
L 116.569811 177.714 
L 114.762273 173.178 
L 112.209545 167.557304 
L 110.49185 164.106 
L 107.450274 158.436 
L 104.168587 152.766 
L 99.956958 145.962 
L 94.720909 138.024 
L 89.190593 130.086 
L 82.534091 120.970385 
L 75.67038 111.942 
L 67.637832 101.736 
L 58.427941 90.396 
L 54 85.055745 
L 54 85.055745 
" clip-path="url(#p8e31dd67f1)" style="fill: none; stroke: #fffebe; stroke-width: 1.5"/>
    <path d="M 54 241.3104 
L 60.848182 239.53968 
L 67.696364 237.539896 
L 73.703541 235.548 
L 79.11 233.509091 
L 83.675455 231.560308 
L 87.205719 229.878 
L 91.665 227.460789 
L 95.089091 225.325565 
L 98.513182 222.854516 
L 100.974947 220.806 
L 103.337058 218.538 
L 105.361364 216.27 
L 105.361364 216.27 
L 107.083421 214.002 
L 108.785455 211.287273 
L 109.926818 209.061 
L 110.723961 207.198 
L 111.507168 204.93 
L 112.209545 202.176 
L 112.540375 200.394 
L 112.907045 196.992 
L 112.970455 193.59 
L 112.765594 190.188 
L 112.322273 186.786 
L 111.666039 183.384 
L 110.818918 179.982 
L 109.42512 175.446 
L 107.644091 170.611579 
L 105.868636 166.374 
L 103.765671 161.838 
L 100.795909 156.011586 
L 97.371818 149.852492 
L 93.947727 144.1035 
L 90.118636 138.024 
L 84.816818 130.0608 
L 79.11 121.918909 
L 72.637061 113.076 
L 63.979615 101.736 
L 54.990099 90.396 
L 54 89.1696 
L 54 89.1696 
" clip-path="url(#p8e31dd67f1)" style="fill: none; stroke: #fff0a8; stroke-width: 1.5"/>
    <path d="M 54 236.958803 
L 59.706818 235.221254 
L 65.413636 233.28 
L 65.413636 233.28 
L 71.283506 231.012 
L 76.412231 228.744 
L 80.896482 226.476 
L 84.816818 224.208 
L 84.816818 224.208 
L 88.240909 221.94 
L 88.240909 221.94 
L 91.665 219.306194 
L 93.947727 217.2825 
L 96.230455 214.95456 
L 98.001536 212.868 
L 99.654545 210.6 
L 99.654545 210.6 
L 101.053636 208.332 
L 102.222614 206.064 
L 103.182397 203.796 
L 103.951444 201.528 
L 104.546104 199.26 
L 105.142472 195.858 
L 105.421435 192.456 
L 105.419154 189.054 
L 105.166497 185.652 
L 104.689973 182.25 
L 104.012479 178.848 
L 102.830514 174.312 
L 101.366591 169.776 
L 99.654545 165.24 
L 99.654545 165.24 
L 97.371818 159.931915 
L 95.596364 156.168 
L 92.695257 150.498 
L 89.382273 144.527824 
L 85.516364 138.024 
L 81.217133 131.22 
L 75.91918 123.282 
L 69.54616 114.21 
L 62.884733 105.138 
L 55.099091 94.932 
L 54 93.521197 
L 54 93.521197 
" clip-path="url(#p8e31dd67f1)" style="fill: none; stroke: #fee090; stroke-width: 1.5"/>
    <path d="M 54 232.327059 
L 58.565455 230.685081 
L 64.272273 228.388235 
L 68.837727 226.307106 
L 73.403182 223.944279 
L 76.827273 221.94 
L 76.827273 221.94 
L 80.251364 219.672 
L 80.251364 219.672 
L 83.675455 217.055077 
L 85.958182 215.059119 
L 88.240909 212.782415 
L 90.523636 210.117447 
L 91.849091 208.332 
L 93.30571 206.064 
L 94.535702 203.796 
L 95.559064 201.528 
L 96.393506 199.26 
L 97.054773 196.992 
L 97.752273 193.59 
L 98.132727 190.188 
L 98.231364 186.786 
L 98.078377 183.384 
L 97.699796 179.982 
L 97.118182 176.58 
L 96.230455 172.7055 
L 95.077324 168.642 
L 93.540905 164.106 
L 91.665 159.312273 
L 89.382273 154.1268 
L 87.644976 150.498 
L 84.720092 144.828 
L 81.392727 138.854535 
L 77.526247 132.354 
L 73.234091 125.55 
L 67.953572 117.612 
L 61.609091 108.54 
L 54.98244 99.468 
L 54 98.152941 
L 54 98.152941 
" clip-path="url(#p8e31dd67f1)" style="fill: none; stroke: #fdc778; stroke-width: 1.5"/>
    <path d="M 54 227.349908 
L 58.638308 225.342 
L 63.293961 223.074 
L 67.696364 220.632565 
L 71.120455 218.479846 
L 74.544545 216.030423 
L 77.047536 214.002 
L 79.516248 211.734 
L 81.67339 209.466 
L 83.675455 207.029106 
L 85.168007 204.93 
L 86.554417 202.662 
L 87.728123 200.394 
L 88.7071 198.126 
L 89.507354 195.858 
L 90.143182 193.59 
L 90.816294 190.188 
L 91.185909 186.786 
L 91.284545 183.384 
L 91.140235 179.982 
L 90.777273 176.58 
L 90.216818 173.178 
L 89.194007 168.642 
L 87.89059 164.106 
L 86.338636 159.57 
L 84.565509 155.034 
L 82.073541 149.364 
L 79.11 143.303607 
L 76.311818 138.024 
L 72.437413 131.22 
L 67.588059 123.282 
L 62.433409 115.344 
L 56.222656 106.272 
L 54 103.130092 
L 54 103.130092 
" clip-path="url(#p8e31dd67f1)" style="fill: none; stroke: #fdad60; stroke-width: 1.5"/>
    <path d="M 54 221.94 
L 58.565455 219.522462 
L 62.116364 217.404 
L 65.495162 215.136 
L 68.837727 212.5764 
L 71.120455 210.6 
L 73.44 208.332 
L 75.685909 205.802308 
L 77.242314 203.796 
L 79.11 200.974829 
L 80.251364 198.945 
L 81.392727 196.553032 
L 82.133071 194.724 
L 82.894522 192.456 
L 83.747693 189.054 
L 84.287894 185.652 
L 84.548262 182.25 
L 84.557417 178.848 
L 84.340205 175.446 
L 83.918298 172.044 
L 83.310689 168.642 
L 82.240275 164.106 
L 80.903571 159.57 
L 79.11 154.453171 
L 77.544413 150.498 
L 75.047519 144.828 
L 72.261818 139.104 
L 68.837727 132.6456 
L 66.108753 127.818 
L 61.989545 120.934884 
L 57.001943 113.076 
L 54 108.54 
L 54 108.54 
" clip-path="url(#p8e31dd67f1)" style="fill: none; stroke: #f88c51; stroke-width: 1.5"/>
    <path d="M 54 215.951461 
L 57.424091 213.725415 
L 60.848182 211.2048 
L 63.130909 209.318087 
L 65.431753 207.198 
L 67.696364 204.830526 
L 69.979091 202.061647 
L 71.186621 200.394 
L 72.631556 198.126 
L 73.872235 195.858 
L 74.925 193.59 
L 75.804492 191.322 
L 76.827273 187.92 
L 76.827273 187.92 
L 77.528593 184.518 
L 77.942093 181.116 
L 78.096879 177.714 
L 78.018261 174.312 
L 77.728349 170.91 
L 77.246549 167.508 
L 76.33492 162.972 
L 75.14753 158.436 
L 73.714463 153.9 
L 72.061579 149.364 
L 69.720126 143.694 
L 67.107273 138.024 
L 64.254577 132.354 
L 60.552273 125.55 
L 56.282727 118.252376 
L 54 114.528539 
L 54 114.528539 
" clip-path="url(#p8e31dd67f1)" style="fill: none; stroke: #f46d43; stroke-width: 1.5"/>
    <path d="M 54 209.156727 
L 55.030909 208.332 
L 55.141364 208.240054 
L 56.282727 207.275671 
L 56.373312 207.198 
L 57.424091 206.2584 
L 57.638097 206.064 
L 58.565455 205.183881 
L 58.828846 204.93 
L 59.706818 204.044062 
L 59.948926 203.796 
L 60.848182 202.829311 
L 61.001499 202.662 
L 61.989545 201.528 
L 61.989545 201.528 
L 62.91587 200.394 
L 63.130909 200.115849 
L 63.783117 199.26 
L 64.272273 198.5796 
L 64.593784 198.126 
L 65.350227 196.992 
L 65.413636 196.8912 
L 66.054676 195.858 
L 66.555 194.994 
L 66.709238 194.724 
L 67.315909 193.59 
L 67.696364 192.823784 
L 67.876579 192.456 
L 68.39304 191.322 
L 68.837727 190.258875 
L 68.866993 190.188 
L 69.300052 189.054 
L 69.69375 187.92 
L 69.979091 187.0128 
L 70.049545 186.786 
L 70.368825 185.652 
L 70.652908 184.518 
L 70.903052 183.384 
L 71.120455 182.25 
L 71.120455 182.25 
L 71.306258 181.116 
L 71.461552 179.982 
L 71.587376 178.848 
L 71.684724 177.714 
L 71.754545 176.58 
L 71.797747 175.446 
L 71.815198 174.312 
L 71.807727 173.178 
L 71.776132 172.044 
L 71.721172 170.91 
L 71.64358 169.776 
L 71.544053 168.642 
L 71.423265 167.508 
L 71.28186 166.374 
L 71.120455 165.24 
L 71.120455 165.24 
L 70.939644 164.106 
L 70.74 162.972 
L 70.52207 161.838 
L 70.286381 160.704 
L 70.033442 159.57 
L 69.979091 159.3432 
L 69.763739 158.436 
L 69.477744 157.302 
L 69.175909 156.168 
L 68.85867 155.034 
L 68.837727 154.963125 
L 68.526446 153.9 
L 68.179644 152.766 
L 67.818653 151.632 
L 67.696364 151.264216 
L 67.44385 150.498 
L 67.055598 149.364 
L 66.654249 148.23 
L 66.555 147.96 
L 66.240141 147.096 
L 65.813601 145.962 
L 65.413636 144.9288 
L 65.374946 144.828 
L 64.924481 143.694 
L 64.4625 142.56 
L 64.272273 142.1064 
L 63.98929 141.426 
L 63.505127 140.292 
L 63.130909 139.436151 
L 63.010277 139.158 
L 62.505 138.024 
L 61.989545 136.89 
L 61.989545 136.89 
L 61.464156 135.756 
L 60.929066 134.622 
L 60.848182 134.454689 
L 60.384503 133.488 
L 59.830687 132.354 
L 59.706818 132.105938 
L 59.267832 131.22 
L 58.696145 130.086 
L 58.565455 129.832119 
L 58.115826 128.952 
L 57.527071 127.818 
L 57.424091 127.6236 
L 56.930068 126.684 
L 56.325 125.55 
L 56.282727 125.472329 
L 55.712045 124.416 
L 55.141364 123.373946 
L 55.091377 123.282 
L 54.463162 122.148 
L 54 121.323273 
" clip-path="url(#p8e31dd67f1)" style="fill: none; stroke: #e54e35; stroke-width: 1.5"/>
    <path d="M 54 201.096 
L 54.645119 200.394 
L 55.141364 199.827 
L 55.630519 199.26 
L 56.282727 198.464211 
L 56.556012 198.126 
L 57.424091 196.992 
L 57.424091 196.992 
L 58.237117 195.858 
L 58.565455 195.372 
L 58.997322 194.724 
L 59.706818 193.59 
L 59.706818 193.59 
L 60.367608 192.456 
L 60.848182 191.570927 
L 60.981588 191.322 
L 61.550559 190.188 
L 61.989545 189.243 
L 62.076231 189.054 
L 62.560227 187.92 
L 63.004091 186.786 
L 63.130909 186.434069 
L 63.40929 185.652 
L 63.777223 184.518 
L 64.109221 183.384 
L 64.272273 182.765455 
L 64.406551 182.25 
L 64.670423 181.116 
L 64.901991 179.982 
L 65.102355 178.848 
L 65.272569 177.714 
L 65.413636 176.58 
L 65.413636 176.58 
L 65.526518 175.446 
L 65.612134 174.312 
L 65.671364 173.178 
L 65.705048 172.044 
L 65.713995 170.91 
L 65.698977 169.776 
L 65.660736 168.642 
L 65.599981 167.508 
L 65.517397 166.374 
L 65.413636 165.24 
L 65.413636 165.24 
L 65.289329 164.106 
L 65.14508 162.972 
L 64.98147 161.838 
L 64.799056 160.704 
L 64.598377 159.57 
L 64.379949 158.436 
L 64.272273 157.920545 
L 64.144269 157.302 
L 63.891818 156.168 
L 63.623057 155.034 
L 63.33843 153.9 
L 63.130909 153.117931 
L 63.038366 152.766 
L 62.723279 151.632 
L 62.393568 150.498 
L 62.049617 149.364 
L 61.989545 149.175 
L 61.691798 148.23 
L 61.32047 147.096 
L 60.935979 145.962 
L 60.848182 145.713073 
L 60.538659 144.828 
L 60.128835 143.694 
L 59.706818 142.56 
L 59.706818 142.56 
L 59.272911 141.426 
L 58.827407 140.292 
L 58.565455 139.644 
L 58.370588 139.158 
L 57.902727 138.024 
L 57.424091 136.89 
L 57.424091 136.89 
L 56.934935 135.756 
L 56.435508 134.622 
L 56.282727 134.283789 
L 55.926051 133.488 
L 55.406797 132.354 
L 55.141364 131.787 
L 54.877972 131.22 
L 54.339795 130.086 
L 54 129.384 
" clip-path="url(#p8e31dd67f1)" style="fill: none; stroke: #d62f27; stroke-width: 1.5"/>
    <path d="M 54 190.5912 
L 54.234126 190.188 
L 54.852411 189.054 
L 55.141364 188.487 
L 55.426705 187.92 
L 55.958636 186.786 
L 56.282727 186.0408 
L 56.449756 185.652 
L 56.901539 184.518 
L 57.31539 183.384 
L 57.424091 183.06 
L 57.692647 182.25 
L 58.034588 181.116 
L 58.342429 179.982 
L 58.565455 179.064 
L 58.617335 178.848 
L 58.860414 177.714 
L 59.072727 176.58 
L 59.25529 175.446 
L 59.409071 174.312 
L 59.535 173.178 
L 59.633965 172.044 
L 59.706818 170.91 
L 59.706818 170.91 
L 59.754375 169.776 
L 59.777418 168.642 
L 59.776698 167.508 
L 59.752934 166.374 
L 59.706818 165.24 
L 59.706818 165.24 
L 59.639014 164.106 
L 59.55016 162.972 
L 59.440869 161.838 
L 59.311731 160.704 
L 59.163312 159.57 
L 58.996158 158.436 
L 58.810794 157.302 
L 58.607727 156.168 
L 58.565455 155.952 
L 58.387444 155.034 
L 58.150413 153.9 
L 57.897088 152.766 
L 57.627906 151.632 
L 57.424091 150.822 
L 57.343286 150.498 
L 57.043636 149.364 
L 56.729348 148.23 
L 56.400799 147.096 
L 56.282727 146.7072 
L 56.058357 145.962 
L 55.702373 144.828 
L 55.333189 143.694 
L 55.141364 143.127 
L 54.951136 142.56 
L 54.556533 141.426 
L 54.149687 140.292 
L 54 139.8888 
" clip-path="url(#p8e31dd67f1)" style="fill: none; stroke: #bd1726; stroke-width: 1.5"/>
    <path clip-path="url(#p8e31dd67f1)" style="fill: none; stroke: #a50026; stroke-width: 1.5"/>
   </g>
   <g id="patch_3">
    <path d="M 54 278.64 
L 54 51.84 
" style="fill: none; stroke: #000000; stroke-width: 0.8; stroke-linejoin: miter; stroke-linecap: square"/>
   </g>
   <g id="patch_4">
    <path d="M 282.272727 278.64 
L 282.272727 51.84 
" style="fill: none; stroke: #000000; stroke-width: 0.8; stroke-linejoin: miter; stroke-linecap: square"/>
   </g>
   <g id="patch_5">
    <path d="M 54 278.64 
L 282.272727 278.64 
" style="fill: none; stroke: #000000; stroke-width: 0.8; stroke-linejoin: miter; stroke-linecap: square"/>
   </g>
   <g id="patch_6">
    <path d="M 54 51.84 
L 282.272727 51.84 
" style="fill: none; stroke: #000000; stroke-width: 0.8; stroke-linejoin: miter; stroke-linecap: square"/>
   </g>
   <g id="text_13">
    <!-- Dirichlet(1,2,2) -->
    <g transform="translate(122.955426 45.84) scale(0.12 -0.12)">
     <defs>
      <path id="DejaVuSans-44" d="M 1259 4147 
L 1259 519 
L 2022 519 
Q 2988 519 3436 956 
Q 3884 1394 3884 2338 
Q 3884 3275 3436 3711 
Q 2988 4147 2022 4147 
L 1259 4147 
z
M 628 4666 
L 1925 4666 
Q 3281 4666 3915 4102 
Q 4550 3538 4550 2338 
Q 4550 1131 3912 565 
Q 3275 0 1925 0 
L 628 0 
L 628 4666 
z
" transform="scale(0.015625)"/>
      <path id="DejaVuSans-69" d="M 603 3500 
L 1178 3500 
L 1178 0 
L 603 0 
L 603 3500 
z
M 603 4863 
L 1178 4863 
L 1178 4134 
L 603 4134 
L 603 4863 
z
" transform="scale(0.015625)"/>
      <path id="DejaVuSans-72" d="M 2631 2963 
Q 2534 3019 2420 3045 
Q 2306 3072 2169 3072 
Q 1681 3072 1420 2755 
Q 1159 2438 1159 1844 
L 1159 0 
L 581 0 
L 581 3500 
L 1159 3500 
L 1159 2956 
Q 1341 3275 1631 3429 
Q 1922 3584 2338 3584 
Q 2397 3584 2469 3576 
Q 2541 3569 2628 3553 
L 2631 2963 
z
" transform="scale(0.015625)"/>
      <path id="DejaVuSans-63" d="M 3122 3366 
L 3122 2828 
Q 2878 2963 2633 3030 
Q 2388 3097 2138 3097 
Q 1578 3097 1268 2742 
Q 959 2388 959 1747 
Q 959 1106 1268 751 
Q 1578 397 2138 397 
Q 2388 397 2633 464 
Q 2878 531 3122 666 
L 3122 134 
Q 2881 22 2623 -34 
Q 2366 -91 2075 -91 
Q 1284 -91 818 406 
Q 353 903 353 1747 
Q 353 2603 823 3093 
Q 1294 3584 2113 3584 
Q 2378 3584 2631 3529 
Q 2884 3475 3122 3366 
z
" transform="scale(0.015625)"/>
      <path id="DejaVuSans-68" d="M 3513 2113 
L 3513 0 
L 2938 0 
L 2938 2094 
Q 2938 2591 2744 2837 
Q 2550 3084 2163 3084 
Q 1697 3084 1428 2787 
Q 1159 2491 1159 1978 
L 1159 0 
L 581 0 
L 581 4863 
L 1159 4863 
L 1159 2956 
Q 1366 3272 1645 3428 
Q 1925 3584 2291 3584 
Q 2894 3584 3203 3211 
Q 3513 2838 3513 2113 
z
" transform="scale(0.015625)"/>
      <path id="DejaVuSans-6c" d="M 603 4863 
L 1178 4863 
L 1178 0 
L 603 0 
L 603 4863 
z
" transform="scale(0.015625)"/>
      <path id="DejaVuSans-65" d="M 3597 1894 
L 3597 1613 
L 953 1613 
Q 991 1019 1311 708 
Q 1631 397 2203 397 
Q 2534 397 2845 478 
Q 3156 559 3463 722 
L 3463 178 
Q 3153 47 2828 -22 
Q 2503 -91 2169 -91 
Q 1331 -91 842 396 
Q 353 884 353 1716 
Q 353 2575 817 3079 
Q 1281 3584 2069 3584 
Q 2775 3584 3186 3129 
Q 3597 2675 3597 1894 
z
M 3022 2063 
Q 3016 2534 2758 2815 
Q 2500 3097 2075 3097 
Q 1594 3097 1305 2825 
Q 1016 2553 972 2059 
L 3022 2063 
z
" transform="scale(0.015625)"/>
      <path id="DejaVuSans-74" d="M 1172 4494 
L 1172 3500 
L 2356 3500 
L 2356 3053 
L 1172 3053 
L 1172 1153 
Q 1172 725 1289 603 
Q 1406 481 1766 481 
L 2356 481 
L 2356 0 
L 1766 0 
Q 1100 0 847 248 
Q 594 497 594 1153 
L 594 3053 
L 172 3053 
L 172 3500 
L 594 3500 
L 594 4494 
L 1172 4494 
z
" transform="scale(0.015625)"/>
      <path id="DejaVuSans-28" d="M 1984 4856 
Q 1566 4138 1362 3434 
Q 1159 2731 1159 2009 
Q 1159 1288 1364 580 
Q 1569 -128 1984 -844 
L 1484 -844 
Q 1016 -109 783 600 
Q 550 1309 550 2009 
Q 550 2706 781 3412 
Q 1013 4119 1484 4856 
L 1984 4856 
z
" transform="scale(0.015625)"/>
      <path id="DejaVuSans-2c" d="M 750 794 
L 1409 794 
L 1409 256 
L 897 -744 
L 494 -744 
L 750 256 
L 750 794 
z
" transform="scale(0.015625)"/>
      <path id="DejaVuSans-29" d="M 513 4856 
L 1013 4856 
Q 1481 4119 1714 3412 
Q 1947 2706 1947 2009 
Q 1947 1309 1714 600 
Q 1481 -109 1013 -844 
L 513 -844 
Q 928 -128 1133 580 
Q 1338 1288 1338 2009 
Q 1338 2731 1133 3434 
Q 928 4138 513 4856 
z
" transform="scale(0.015625)"/>
     </defs>
     <use xlink:href="#DejaVuSans-44"/>
     <use xlink:href="#DejaVuSans-69" x="77.001953"/>
     <use xlink:href="#DejaVuSans-72" x="104.785156"/>
     <use xlink:href="#DejaVuSans-69" x="145.898438"/>
     <use xlink:href="#DejaVuSans-63" x="173.681641"/>
     <use xlink:href="#DejaVuSans-68" x="228.662109"/>
     <use xlink:href="#DejaVuSans-6c" x="292.041016"/>
     <use xlink:href="#DejaVuSans-65" x="319.824219"/>
     <use xlink:href="#DejaVuSans-74" x="381.347656"/>
     <use xlink:href="#DejaVuSans-28" x="420.556641"/>
     <use xlink:href="#DejaVuSans-31" x="459.570312"/>
     <use xlink:href="#DejaVuSans-2c" x="523.193359"/>
     <use xlink:href="#DejaVuSans-32" x="554.980469"/>
     <use xlink:href="#DejaVuSans-2c" x="618.603516"/>
     <use xlink:href="#DejaVuSans-32" x="650.390625"/>
     <use xlink:href="#DejaVuSans-29" x="714.013672"/>
    </g>
   </g>
  </g>
  <g id="axes_2">
   <g id="patch_7">
    <path d="M 312.709091 278.64 
L 388.8 278.64 
L 388.8 51.84 
L 312.709091 51.84 
z
" style="fill: #ffffff"/>
   </g>
   <g id="PolyCollection_1">
    <path d="M 388.8 278.64 
L 388.8 278.64 
L 387.896017 277.506 
L 387.010159 276.372 
L 386.142289 275.238 
L 385.29227 274.104 
L 384.459965 272.97 
L 383.645237 271.836 
L 382.847948 270.702 
L 382.067963 269.568 
L 381.305144 268.434 
L 380.559355 267.3 
L 379.830457 266.166 
L 379.118314 265.032 
L 378.42279 263.898 
L 377.743747 262.764 
L 377.081049 261.63 
L 376.434558 260.496 
L 375.804137 259.362 
L 375.18965 258.228 
L 374.590959 257.094 
L 374.007927 255.96 
L 373.440418 254.826 
L 372.888295 253.692 
L 372.351421 252.558 
L 371.829658 251.424 
L 371.322869 250.29 
L 370.830919 249.156 
L 370.353669 248.022 
L 369.890983 246.888 
L 369.442724 245.754 
L 369.008755 244.62 
L 368.588938 243.486 
L 368.183138 242.352 
L 367.791216 241.218 
L 367.413037 240.084 
L 367.048462 238.95 
L 366.697356 237.816 
L 366.359581 236.682 
L 366.035 235.548 
L 365.723476 234.414 
L 365.424873 233.28 
L 365.139052 232.146 
L 364.865878 231.012 
L 364.605214 229.878 
L 364.356922 228.744 
L 364.120865 227.61 
L 363.896906 226.476 
L 363.68491 225.342 
L 363.484737 224.208 
L 363.296252 223.074 
L 363.119318 221.94 
L 362.953798 220.806 
L 362.799554 219.672 
L 362.65645 218.538 
L 362.524348 217.404 
L 362.403112 216.27 
L 362.292606 215.136 
L 362.192691 214.002 
L 362.103231 212.868 
L 362.024088 211.734 
L 361.955127 210.6 
L 361.89621 209.466 
L 361.8472 208.332 
L 361.80796 207.198 
L 361.778353 206.064 
L 361.758242 204.93 
L 361.74749 203.796 
L 361.745961 202.662 
L 361.753517 201.528 
L 361.770021 200.394 
L 361.795336 199.26 
L 361.829326 198.126 
L 361.871853 196.992 
L 361.922781 195.858 
L 361.981972 194.724 
L 362.04929 193.59 
L 362.124597 192.456 
L 362.207757 191.322 
L 362.298632 190.188 
L 362.397086 189.054 
L 362.502982 187.92 
L 362.616182 186.786 
L 362.73655 185.652 
L 362.863949 184.518 
L 362.998242 183.384 
L 363.139292 182.25 
L 363.286962 181.116 
L 363.441114 179.982 
L 363.601613 178.848 
L 363.76832 177.714 
L 363.9411 176.58 
L 364.119815 175.446 
L 364.304328 174.312 
L 364.494502 173.178 
L 364.6902 172.044 
L 364.891285 170.91 
L 365.097621 169.776 
L 365.30907 168.642 
L 365.525495 167.508 
L 365.74676 166.374 
L 365.972727 165.24 
L 366.20326 164.106 
L 366.438221 162.972 
L 366.677474 161.838 
L 366.920881 160.704 
L 367.168306 159.57 
L 367.419611 158.436 
L 367.67466 157.302 
L 367.933316 156.168 
L 368.195442 155.034 
L 368.4609 153.9 
L 368.729554 152.766 
L 369.001267 151.632 
L 369.275902 150.498 
L 369.553322 149.364 
L 369.83339 148.23 
L 370.115969 147.096 
L 370.400921 145.962 
L 370.688111 144.828 
L 370.977401 143.694 
L 371.268655 142.56 
L 371.561734 141.426 
L 371.856502 140.292 
L 372.152823 139.158 
L 372.450559 138.024 
L 372.749574 136.89 
L 373.04973 135.756 
L 373.35089 134.622 
L 373.652918 133.488 
L 373.955676 132.354 
L 374.259027 131.22 
L 374.562835 130.086 
L 374.866963 128.952 
L 375.171274 127.818 
L 375.47563 126.684 
L 375.779894 125.55 
L 376.083931 124.416 
L 376.387602 123.282 
L 376.690771 122.148 
L 376.993301 121.014 
L 377.295055 119.88 
L 377.595895 118.746 
L 377.895686 117.612 
L 378.194289 116.478 
L 378.491569 115.344 
L 378.787387 114.21 
L 379.081608 113.076 
L 379.374094 111.942 
L 379.664708 110.808 
L 379.953313 109.674 
L 380.239773 108.54 
L 380.523949 107.406 
L 380.805706 106.272 
L 381.084907 105.138 
L 381.361414 104.004 
L 381.63509 102.87 
L 381.905798 101.736 
L 382.173403 100.602 
L 382.437765 99.468 
L 382.698749 98.334 
L 382.956218 97.2 
L 383.210035 96.066 
L 383.460062 94.932 
L 383.706163 93.798 
L 383.9482 92.664 
L 384.186037 91.53 
L 384.419538 90.396 
L 384.648564 89.262 
L 384.872979 88.128 
L 385.092645 86.994 
L 385.307427 85.86 
L 385.517187 84.726 
L 385.721788 83.592 
L 385.921093 82.458 
L 386.114965 81.324 
L 386.303267 80.19 
L 386.485862 79.056 
L 386.662614 77.922 
L 386.833385 76.788 
L 386.998038 75.654 
L 387.156436 74.52 
L 387.308443 73.386 
L 387.453921 72.252 
L 387.592734 71.118 
L 387.724744 69.984 
L 387.849815 68.85 
L 387.967809 67.716 
L 388.07859 66.582 
L 388.18202 65.448 
L 388.277963 64.314 
L 388.366282 63.18 
L 388.446839 62.046 
L 388.519498 60.912 
L 388.584122 59.778 
L 388.640574 58.644 
L 388.688717 57.51 
L 388.728414 56.376 
L 388.759527 55.242 
L 388.781921 54.108 
L 388.795457 52.974 
L 388.8 51.84 
L 388.8 278.64 
L 388.8 278.64 
L 388.795457 278.64 
L 388.781921 278.64 
L 388.759527 278.64 
L 388.728414 278.64 
L 388.688717 278.64 
L 388.640574 278.64 
L 388.584122 278.64 
L 388.519498 278.64 
L 388.446839 278.64 
L 388.366282 278.64 
L 388.277963 278.64 
L 388.18202 278.64 
L 388.07859 278.64 
L 387.967809 278.64 
L 387.849815 278.64 
L 387.724744 278.64 
L 387.592734 278.64 
L 387.453921 278.64 
L 387.308443 278.64 
L 387.156436 278.64 
L 386.998038 278.64 
L 386.833385 278.64 
L 386.662614 278.64 
L 386.485862 278.64 
L 386.303267 278.64 
L 386.114965 278.64 
L 385.921093 278.64 
L 385.721788 278.64 
L 385.517187 278.64 
L 385.307427 278.64 
L 385.092645 278.64 
L 384.872979 278.64 
L 384.648564 278.64 
L 384.419538 278.64 
L 384.186037 278.64 
L 383.9482 278.64 
L 383.706163 278.64 
L 383.460062 278.64 
L 383.210035 278.64 
L 382.956218 278.64 
L 382.698749 278.64 
L 382.437765 278.64 
L 382.173403 278.64 
L 381.905798 278.64 
L 381.63509 278.64 
L 381.361414 278.64 
L 381.084907 278.64 
L 380.805706 278.64 
L 380.523949 278.64 
L 380.239773 278.64 
L 379.953313 278.64 
L 379.664708 278.64 
L 379.374094 278.64 
L 379.081608 278.64 
L 378.787387 278.64 
L 378.491569 278.64 
L 378.194289 278.64 
L 377.895686 278.64 
L 377.595895 278.64 
L 377.295055 278.64 
L 376.993301 278.64 
L 376.690771 278.64 
L 376.387602 278.64 
L 376.083931 278.64 
L 375.779894 278.64 
L 375.47563 278.64 
L 375.171274 278.64 
L 374.866963 278.64 
L 374.562835 278.64 
L 374.259027 278.64 
L 373.955676 278.64 
L 373.652918 278.64 
L 373.35089 278.64 
L 373.04973 278.64 
L 372.749574 278.64 
L 372.450559 278.64 
L 372.152823 278.64 
L 371.856502 278.64 
L 371.561734 278.64 
L 371.268655 278.64 
L 370.977401 278.64 
L 370.688111 278.64 
L 370.400921 278.64 
L 370.115969 278.64 
L 369.83339 278.64 
L 369.553322 278.64 
L 369.275902 278.64 
L 369.001267 278.64 
L 368.729554 278.64 
L 368.4609 278.64 
L 368.195442 278.64 
L 367.933316 278.64 
L 367.67466 278.64 
L 367.419611 278.64 
L 367.168306 278.64 
L 366.920881 278.64 
L 366.677474 278.64 
L 366.438221 278.64 
L 366.20326 278.64 
L 365.972727 278.64 
L 365.74676 278.64 
L 365.525495 278.64 
L 365.30907 278.64 
L 365.097621 278.64 
L 364.891285 278.64 
L 364.6902 278.64 
L 364.494502 278.64 
L 364.304328 278.64 
L 364.119815 278.64 
L 363.9411 278.64 
L 363.76832 278.64 
L 363.601613 278.64 
L 363.441114 278.64 
L 363.286962 278.64 
L 363.139292 278.64 
L 362.998242 278.64 
L 362.863949 278.64 
L 362.73655 278.64 
L 362.616182 278.64 
L 362.502982 278.64 
L 362.397086 278.64 
L 362.298632 278.64 
L 362.207757 278.64 
L 362.124597 278.64 
L 362.04929 278.64 
L 361.981972 278.64 
L 361.922781 278.64 
L 361.871853 278.64 
L 361.829326 278.64 
L 361.795336 278.64 
L 361.770021 278.64 
L 361.753517 278.64 
L 361.745961 278.64 
L 361.74749 278.64 
L 361.758242 278.64 
L 361.778353 278.64 
L 361.80796 278.64 
L 361.8472 278.64 
L 361.89621 278.64 
L 361.955127 278.64 
L 362.024088 278.64 
L 362.103231 278.64 
L 362.192691 278.64 
L 362.292606 278.64 
L 362.403112 278.64 
L 362.524348 278.64 
L 362.65645 278.64 
L 362.799554 278.64 
L 362.953798 278.64 
L 363.119318 278.64 
L 363.296252 278.64 
L 363.484737 278.64 
L 363.68491 278.64 
L 363.896906 278.64 
L 364.120865 278.64 
L 364.356922 278.64 
L 364.605214 278.64 
L 364.865878 278.64 
L 365.139052 278.64 
L 365.424873 278.64 
L 365.723476 278.64 
L 366.035 278.64 
L 366.359581 278.64 
L 366.697356 278.64 
L 367.048462 278.64 
L 367.413037 278.64 
L 367.791216 278.64 
L 368.183138 278.64 
L 368.588938 278.64 
L 369.008755 278.64 
L 369.442724 278.64 
L 369.890983 278.64 
L 370.353669 278.64 
L 370.830919 278.64 
L 371.322869 278.64 
L 371.829658 278.64 
L 372.351421 278.64 
L 372.888295 278.64 
L 373.440418 278.64 
L 374.007927 278.64 
L 374.590959 278.64 
L 375.18965 278.64 
L 375.804137 278.64 
L 376.434558 278.64 
L 377.081049 278.64 
L 377.743747 278.64 
L 378.42279 278.64 
L 379.118314 278.64 
L 379.830457 278.64 
L 380.559355 278.64 
L 381.305144 278.64 
L 382.067963 278.64 
L 382.847948 278.64 
L 383.645237 278.64 
L 384.459965 278.64 
L 385.29227 278.64 
L 386.142289 278.64 
L 387.010159 278.64 
L 387.896017 278.64 
L 388.8 278.64 
z
" clip-path="url(#p33c7803289)" style="fill: #0070c0; fill-opacity: 0.2"/>
   </g>
   <g id="matplotlib.axis_3">
    <g id="xtick_22">
     <g id="line2d_55">
      <path d="M 388.8 278.64 
L 388.8 51.84 
" clip-path="url(#p33c7803289)" style="fill: none; stroke: #808080; stroke-width: 0.5; stroke-linecap: square"/>
     </g>
     <g id="line2d_56">
      <g>
       <use xlink:href="#mc7c1496f5d" x="388.8" y="278.64" style="stroke: #000000; stroke-width: 0.8"/>
      </g>
     </g>
     <g id="text_14">
      <!-- 0 -->
      <g transform="translate(385.61875 293.238437) scale(0.1 -0.1)">
       <use xlink:href="#DejaVuSans-30"/>
      </g>
     </g>
    </g>
    <g id="xtick_23">
     <g id="line2d_57">
      <path d="M 373.581818 278.64 
L 373.581818 51.84 
" clip-path="url(#p33c7803289)" style="fill: none; stroke: #808080; stroke-width: 0.5; stroke-linecap: square"/>
     </g>
     <g id="line2d_58">
      <g>
       <use xlink:href="#mc7c1496f5d" x="373.581818" y="278.64" style="stroke: #000000; stroke-width: 0.8"/>
      </g>
     </g>
     <g id="text_15">
      <!-- 1 -->
      <g transform="translate(370.400568 293.238437) scale(0.1 -0.1)">
       <use xlink:href="#DejaVuSans-31"/>
      </g>
     </g>
    </g>
    <g id="xtick_24">
     <g id="line2d_59">
      <path d="M 358.363636 278.64 
L 358.363636 51.84 
" clip-path="url(#p33c7803289)" style="fill: none; stroke: #808080; stroke-width: 0.5; stroke-linecap: square"/>
     </g>
     <g id="line2d_60">
      <g>
       <use xlink:href="#mc7c1496f5d" x="358.363636" y="278.64" style="stroke: #000000; stroke-width: 0.8"/>
      </g>
     </g>
     <g id="text_16">
      <!-- 2 -->
      <g transform="translate(355.182386 293.238437) scale(0.1 -0.1)">
       <use xlink:href="#DejaVuSans-32"/>
      </g>
     </g>
    </g>
    <g id="xtick_25">
     <g id="line2d_61">
      <path d="M 343.145455 278.64 
L 343.145455 51.84 
" clip-path="url(#p33c7803289)" style="fill: none; stroke: #808080; stroke-width: 0.5; stroke-linecap: square"/>
     </g>
     <g id="line2d_62">
      <g>
       <use xlink:href="#mc7c1496f5d" x="343.145455" y="278.64" style="stroke: #000000; stroke-width: 0.8"/>
      </g>
     </g>
     <g id="text_17">
      <!-- 3 -->
      <g transform="translate(339.964205 293.238437) scale(0.1 -0.1)">
       <defs>
        <path id="DejaVuSans-33" d="M 2597 2516 
Q 3050 2419 3304 2112 
Q 3559 1806 3559 1356 
Q 3559 666 3084 287 
Q 2609 -91 1734 -91 
Q 1441 -91 1130 -33 
Q 819 25 488 141 
L 488 750 
Q 750 597 1062 519 
Q 1375 441 1716 441 
Q 2309 441 2620 675 
Q 2931 909 2931 1356 
Q 2931 1769 2642 2001 
Q 2353 2234 1838 2234 
L 1294 2234 
L 1294 2753 
L 1863 2753 
Q 2328 2753 2575 2939 
Q 2822 3125 2822 3475 
Q 2822 3834 2567 4026 
Q 2313 4219 1838 4219 
Q 1578 4219 1281 4162 
Q 984 4106 628 3988 
L 628 4550 
Q 988 4650 1302 4700 
Q 1616 4750 1894 4750 
Q 2613 4750 3031 4423 
Q 3450 4097 3450 3541 
Q 3450 3153 3228 2886 
Q 3006 2619 2597 2516 
z
" transform="scale(0.015625)"/>
       </defs>
       <use xlink:href="#DejaVuSans-33"/>
      </g>
     </g>
    </g>
    <g id="xtick_26">
     <g id="line2d_63">
      <path d="M 327.927273 278.64 
L 327.927273 51.84 
" clip-path="url(#p33c7803289)" style="fill: none; stroke: #808080; stroke-width: 0.5; stroke-linecap: square"/>
     </g>
     <g id="line2d_64">
      <g>
       <use xlink:href="#mc7c1496f5d" x="327.927273" y="278.64" style="stroke: #000000; stroke-width: 0.8"/>
      </g>
     </g>
     <g id="text_18">
      <!-- 4 -->
      <g transform="translate(324.746023 293.238437) scale(0.1 -0.1)">
       <use xlink:href="#DejaVuSans-34"/>
      </g>
     </g>
    </g>
    <g id="xtick_27">
     <g id="line2d_65">
      <path d="M 312.709091 278.64 
L 312.709091 51.84 
" clip-path="url(#p33c7803289)" style="fill: none; stroke: #808080; stroke-width: 0.5; stroke-linecap: square"/>
     </g>
     <g id="line2d_66">
      <g>
       <use xlink:href="#mc7c1496f5d" x="312.709091" y="278.64" style="stroke: #000000; stroke-width: 0.8"/>
      </g>
     </g>
     <g id="text_19">
      <!-- 5 -->
      <g transform="translate(309.527841 293.238437) scale(0.1 -0.1)">
       <defs>
        <path id="DejaVuSans-35" d="M 691 4666 
L 3169 4666 
L 3169 4134 
L 1269 4134 
L 1269 2991 
Q 1406 3038 1543 3061 
Q 1681 3084 1819 3084 
Q 2600 3084 3056 2656 
Q 3513 2228 3513 1497 
Q 3513 744 3044 326 
Q 2575 -91 1722 -91 
Q 1428 -91 1123 -41 
Q 819 9 494 109 
L 494 744 
Q 775 591 1075 516 
Q 1375 441 1709 441 
Q 2250 441 2565 725 
Q 2881 1009 2881 1497 
Q 2881 1984 2565 2268 
Q 2250 2553 1709 2553 
Q 1456 2553 1204 2497 
Q 953 2441 691 2322 
L 691 4666 
z
" transform="scale(0.015625)"/>
       </defs>
       <use xlink:href="#DejaVuSans-35"/>
      </g>
     </g>
    </g>
    <g id="xtick_28">
     <g id="line2d_67">
      <g>
       <use xlink:href="#m5aab79f520" x="385.756364" y="278.64" style="stroke: #000000; stroke-width: 0.6"/>
      </g>
     </g>
    </g>
    <g id="xtick_29">
     <g id="line2d_68">
      <g>
       <use xlink:href="#m5aab79f520" x="382.712727" y="278.64" style="stroke: #000000; stroke-width: 0.6"/>
      </g>
     </g>
    </g>
    <g id="xtick_30">
     <g id="line2d_69">
      <g>
       <use xlink:href="#m5aab79f520" x="379.669091" y="278.64" style="stroke: #000000; stroke-width: 0.6"/>
      </g>
     </g>
    </g>
    <g id="xtick_31">
     <g id="line2d_70">
      <g>
       <use xlink:href="#m5aab79f520" x="376.625455" y="278.64" style="stroke: #000000; stroke-width: 0.6"/>
      </g>
     </g>
    </g>
    <g id="xtick_32">
     <g id="line2d_71">
      <g>
       <use xlink:href="#m5aab79f520" x="370.538182" y="278.64" style="stroke: #000000; stroke-width: 0.6"/>
      </g>
     </g>
    </g>
    <g id="xtick_33">
     <g id="line2d_72">
      <g>
       <use xlink:href="#m5aab79f520" x="367.494545" y="278.64" style="stroke: #000000; stroke-width: 0.6"/>
      </g>
     </g>
    </g>
    <g id="xtick_34">
     <g id="line2d_73">
      <g>
       <use xlink:href="#m5aab79f520" x="364.450909" y="278.64" style="stroke: #000000; stroke-width: 0.6"/>
      </g>
     </g>
    </g>
    <g id="xtick_35">
     <g id="line2d_74">
      <g>
       <use xlink:href="#m5aab79f520" x="361.407273" y="278.64" style="stroke: #000000; stroke-width: 0.6"/>
      </g>
     </g>
    </g>
    <g id="xtick_36">
     <g id="line2d_75">
      <g>
       <use xlink:href="#m5aab79f520" x="355.32" y="278.64" style="stroke: #000000; stroke-width: 0.6"/>
      </g>
     </g>
    </g>
    <g id="xtick_37">
     <g id="line2d_76">
      <g>
       <use xlink:href="#m5aab79f520" x="352.276364" y="278.64" style="stroke: #000000; stroke-width: 0.6"/>
      </g>
     </g>
    </g>
    <g id="xtick_38">
     <g id="line2d_77">
      <g>
       <use xlink:href="#m5aab79f520" x="349.232727" y="278.64" style="stroke: #000000; stroke-width: 0.6"/>
      </g>
     </g>
    </g>
    <g id="xtick_39">
     <g id="line2d_78">
      <g>
       <use xlink:href="#m5aab79f520" x="346.189091" y="278.64" style="stroke: #000000; stroke-width: 0.6"/>
      </g>
     </g>
    </g>
    <g id="xtick_40">
     <g id="line2d_79">
      <g>
       <use xlink:href="#m5aab79f520" x="340.101818" y="278.64" style="stroke: #000000; stroke-width: 0.6"/>
      </g>
     </g>
    </g>
    <g id="xtick_41">
     <g id="line2d_80">
      <g>
       <use xlink:href="#m5aab79f520" x="337.058182" y="278.64" style="stroke: #000000; stroke-width: 0.6"/>
      </g>
     </g>
    </g>
    <g id="xtick_42">
     <g id="line2d_81">
      <g>
       <use xlink:href="#m5aab79f520" x="334.014545" y="278.64" style="stroke: #000000; stroke-width: 0.6"/>
      </g>
     </g>
    </g>
    <g id="xtick_43">
     <g id="line2d_82">
      <g>
       <use xlink:href="#m5aab79f520" x="330.970909" y="278.64" style="stroke: #000000; stroke-width: 0.6"/>
      </g>
     </g>
    </g>
    <g id="xtick_44">
     <g id="line2d_83">
      <g>
       <use xlink:href="#m5aab79f520" x="324.883636" y="278.64" style="stroke: #000000; stroke-width: 0.6"/>
      </g>
     </g>
    </g>
    <g id="xtick_45">
     <g id="line2d_84">
      <g>
       <use xlink:href="#m5aab79f520" x="321.84" y="278.64" style="stroke: #000000; stroke-width: 0.6"/>
      </g>
     </g>
    </g>
    <g id="xtick_46">
     <g id="line2d_85">
      <g>
       <use xlink:href="#m5aab79f520" x="318.796364" y="278.64" style="stroke: #000000; stroke-width: 0.6"/>
      </g>
     </g>
    </g>
    <g id="xtick_47">
     <g id="line2d_86">
      <g>
       <use xlink:href="#m5aab79f520" x="315.752727" y="278.64" style="stroke: #000000; stroke-width: 0.6"/>
      </g>
     </g>
    </g>
    <g id="text_20">
     <!-- PDF -->
     <g transform="translate(341.01392 306.916562) scale(0.1 -0.1)">
      <defs>
       <path id="DejaVuSans-50" d="M 1259 4147 
L 1259 2394 
L 2053 2394 
Q 2494 2394 2734 2622 
Q 2975 2850 2975 3272 
Q 2975 3691 2734 3919 
Q 2494 4147 2053 4147 
L 1259 4147 
z
M 628 4666 
L 2053 4666 
Q 2838 4666 3239 4311 
Q 3641 3956 3641 3272 
Q 3641 2581 3239 2228 
Q 2838 1875 2053 1875 
L 1259 1875 
L 1259 0 
L 628 0 
L 628 4666 
z
" transform="scale(0.015625)"/>
       <path id="DejaVuSans-46" d="M 628 4666 
L 3309 4666 
L 3309 4134 
L 1259 4134 
L 1259 2759 
L 3109 2759 
L 3109 2228 
L 1259 2228 
L 1259 0 
L 628 0 
L 628 4666 
z
" transform="scale(0.015625)"/>
      </defs>
      <use xlink:href="#DejaVuSans-50"/>
      <use xlink:href="#DejaVuSans-44" x="60.302734"/>
      <use xlink:href="#DejaVuSans-46" x="137.304688"/>
     </g>
    </g>
   </g>
   <g id="matplotlib.axis_4">
    <g id="ytick_22">
     <g id="line2d_87">
      <path d="M 312.709091 278.64 
L 388.8 278.64 
" clip-path="url(#p33c7803289)" style="fill: none; stroke: #808080; stroke-width: 0.5; stroke-linecap: square"/>
     </g>
     <g id="line2d_88">
      <defs>
       <path id="m32c08b9e9e" d="M 0 0 
L 3.5 0 
" style="stroke: #000000; stroke-width: 0.8"/>
      </defs>
      <g>
       <use xlink:href="#m32c08b9e9e" x="388.8" y="278.64" style="stroke: #000000; stroke-width: 0.8"/>
      </g>
     </g>
     <g id="text_21">
      <!-- 0.0 -->
      <g transform="translate(395.8 282.439219) scale(0.1 -0.1)">
       <use xlink:href="#DejaVuSans-30"/>
       <use xlink:href="#DejaVuSans-2e" x="63.623047"/>
       <use xlink:href="#DejaVuSans-30" x="95.410156"/>
      </g>
     </g>
    </g>
    <g id="ytick_23">
     <g id="line2d_89">
      <path d="M 312.709091 233.28 
L 388.8 233.28 
" clip-path="url(#p33c7803289)" style="fill: none; stroke: #808080; stroke-width: 0.5; stroke-linecap: square"/>
     </g>
     <g id="line2d_90">
      <g>
       <use xlink:href="#m32c08b9e9e" x="388.8" y="233.28" style="stroke: #000000; stroke-width: 0.8"/>
      </g>
     </g>
     <g id="text_22">
      <!-- 0.2 -->
      <g transform="translate(395.8 237.079219) scale(0.1 -0.1)">
       <use xlink:href="#DejaVuSans-30"/>
       <use xlink:href="#DejaVuSans-2e" x="63.623047"/>
       <use xlink:href="#DejaVuSans-32" x="95.410156"/>
      </g>
     </g>
    </g>
    <g id="ytick_24">
     <g id="line2d_91">
      <path d="M 312.709091 187.92 
L 388.8 187.92 
" clip-path="url(#p33c7803289)" style="fill: none; stroke: #808080; stroke-width: 0.5; stroke-linecap: square"/>
     </g>
     <g id="line2d_92">
      <g>
       <use xlink:href="#m32c08b9e9e" x="388.8" y="187.92" style="stroke: #000000; stroke-width: 0.8"/>
      </g>
     </g>
     <g id="text_23">
      <!-- 0.4 -->
      <g transform="translate(395.8 191.719219) scale(0.1 -0.1)">
       <use xlink:href="#DejaVuSans-30"/>
       <use xlink:href="#DejaVuSans-2e" x="63.623047"/>
       <use xlink:href="#DejaVuSans-34" x="95.410156"/>
      </g>
     </g>
    </g>
    <g id="ytick_25">
     <g id="line2d_93">
      <path d="M 312.709091 142.56 
L 388.8 142.56 
" clip-path="url(#p33c7803289)" style="fill: none; stroke: #808080; stroke-width: 0.5; stroke-linecap: square"/>
     </g>
     <g id="line2d_94">
      <g>
       <use xlink:href="#m32c08b9e9e" x="388.8" y="142.56" style="stroke: #000000; stroke-width: 0.8"/>
      </g>
     </g>
     <g id="text_24">
      <!-- 0.6 -->
      <g transform="translate(395.8 146.359219) scale(0.1 -0.1)">
       <use xlink:href="#DejaVuSans-30"/>
       <use xlink:href="#DejaVuSans-2e" x="63.623047"/>
       <use xlink:href="#DejaVuSans-36" x="95.410156"/>
      </g>
     </g>
    </g>
    <g id="ytick_26">
     <g id="line2d_95">
      <path d="M 312.709091 97.2 
L 388.8 97.2 
" clip-path="url(#p33c7803289)" style="fill: none; stroke: #808080; stroke-width: 0.5; stroke-linecap: square"/>
     </g>
     <g id="line2d_96">
      <g>
       <use xlink:href="#m32c08b9e9e" x="388.8" y="97.2" style="stroke: #000000; stroke-width: 0.8"/>
      </g>
     </g>
     <g id="text_25">
      <!-- 0.8 -->
      <g transform="translate(395.8 100.999219) scale(0.1 -0.1)">
       <use xlink:href="#DejaVuSans-30"/>
       <use xlink:href="#DejaVuSans-2e" x="63.623047"/>
       <use xlink:href="#DejaVuSans-38" x="95.410156"/>
      </g>
     </g>
    </g>
    <g id="ytick_27">
     <g id="line2d_97">
      <path d="M 312.709091 51.84 
L 388.8 51.84 
" clip-path="url(#p33c7803289)" style="fill: none; stroke: #808080; stroke-width: 0.5; stroke-linecap: square"/>
     </g>
     <g id="line2d_98">
      <g>
       <use xlink:href="#m32c08b9e9e" x="388.8" y="51.84" style="stroke: #000000; stroke-width: 0.8"/>
      </g>
     </g>
     <g id="text_26">
      <!-- 1.0 -->
      <g transform="translate(395.8 55.639219) scale(0.1 -0.1)">
       <use xlink:href="#DejaVuSans-31"/>
       <use xlink:href="#DejaVuSans-2e" x="63.623047"/>
       <use xlink:href="#DejaVuSans-30" x="95.410156"/>
      </g>
     </g>
    </g>
    <g id="ytick_28">
     <g id="line2d_99">
      <defs>
       <path id="mdf7a19b5e4" d="M 0 0 
L 2 0 
" style="stroke: #000000; stroke-width: 0.6"/>
      </defs>
      <g>
       <use xlink:href="#mdf7a19b5e4" x="388.8" y="267.3" style="stroke: #000000; stroke-width: 0.6"/>
      </g>
     </g>
    </g>
    <g id="ytick_29">
     <g id="line2d_100">
      <g>
       <use xlink:href="#mdf7a19b5e4" x="388.8" y="255.96" style="stroke: #000000; stroke-width: 0.6"/>
      </g>
     </g>
    </g>
    <g id="ytick_30">
     <g id="line2d_101">
      <g>
       <use xlink:href="#mdf7a19b5e4" x="388.8" y="244.62" style="stroke: #000000; stroke-width: 0.6"/>
      </g>
     </g>
    </g>
    <g id="ytick_31">
     <g id="line2d_102">
      <g>
       <use xlink:href="#mdf7a19b5e4" x="388.8" y="221.94" style="stroke: #000000; stroke-width: 0.6"/>
      </g>
     </g>
    </g>
    <g id="ytick_32">
     <g id="line2d_103">
      <g>
       <use xlink:href="#mdf7a19b5e4" x="388.8" y="210.6" style="stroke: #000000; stroke-width: 0.6"/>
      </g>
     </g>
    </g>
    <g id="ytick_33">
     <g id="line2d_104">
      <g>
       <use xlink:href="#mdf7a19b5e4" x="388.8" y="199.26" style="stroke: #000000; stroke-width: 0.6"/>
      </g>
     </g>
    </g>
    <g id="ytick_34">
     <g id="line2d_105">
      <g>
       <use xlink:href="#mdf7a19b5e4" x="388.8" y="176.58" style="stroke: #000000; stroke-width: 0.6"/>
      </g>
     </g>
    </g>
    <g id="ytick_35">
     <g id="line2d_106">
      <g>
       <use xlink:href="#mdf7a19b5e4" x="388.8" y="165.24" style="stroke: #000000; stroke-width: 0.6"/>
      </g>
     </g>
    </g>
    <g id="ytick_36">
     <g id="line2d_107">
      <g>
       <use xlink:href="#mdf7a19b5e4" x="388.8" y="153.9" style="stroke: #000000; stroke-width: 0.6"/>
      </g>
     </g>
    </g>
    <g id="ytick_37">
     <g id="line2d_108">
      <g>
       <use xlink:href="#mdf7a19b5e4" x="388.8" y="131.22" style="stroke: #000000; stroke-width: 0.6"/>
      </g>
     </g>
    </g>
    <g id="ytick_38">
     <g id="line2d_109">
      <g>
       <use xlink:href="#mdf7a19b5e4" x="388.8" y="119.88" style="stroke: #000000; stroke-width: 0.6"/>
      </g>
     </g>
    </g>
    <g id="ytick_39">
     <g id="line2d_110">
      <g>
       <use xlink:href="#mdf7a19b5e4" x="388.8" y="108.54" style="stroke: #000000; stroke-width: 0.6"/>
      </g>
     </g>
    </g>
    <g id="ytick_40">
     <g id="line2d_111">
      <g>
       <use xlink:href="#mdf7a19b5e4" x="388.8" y="85.86" style="stroke: #000000; stroke-width: 0.6"/>
      </g>
     </g>
    </g>
    <g id="ytick_41">
     <g id="line2d_112">
      <g>
       <use xlink:href="#mdf7a19b5e4" x="388.8" y="74.52" style="stroke: #000000; stroke-width: 0.6"/>
      </g>
     </g>
    </g>
    <g id="ytick_42">
     <g id="line2d_113">
      <g>
       <use xlink:href="#mdf7a19b5e4" x="388.8" y="63.18" style="stroke: #000000; stroke-width: 0.6"/>
      </g>
     </g>
    </g>
   </g>
   <g id="line2d_114">
    <path d="M 388.8 278.64 
L 385.29227 274.104 
L 382.067963 269.568 
L 379.118314 265.032 
L 376.434558 260.496 
L 374.007927 255.96 
L 371.829658 251.424 
L 369.890983 246.888 
L 368.183138 242.352 
L 366.697356 237.816 
L 365.424873 233.28 
L 364.356922 228.744 
L 363.484737 224.208 
L 362.799554 219.672 
L 362.192691 214.002 
L 361.8472 208.332 
L 361.745961 202.662 
L 361.871853 196.992 
L 362.207757 191.322 
L 362.863949 184.518 
L 363.76832 177.714 
L 364.891285 170.91 
L 366.438221 162.972 
L 368.4609 153.9 
L 370.977401 143.694 
L 374.866963 128.952 
L 380.239773 108.54 
L 382.698749 98.334 
L 384.648564 89.262 
L 386.114965 81.324 
L 387.156436 74.52 
L 387.967809 67.716 
L 388.446839 62.046 
L 388.728414 56.376 
L 388.8 51.84 
L 388.8 51.84 
" clip-path="url(#p33c7803289)" style="fill: none; stroke: #0070c0; stroke-width: 1.5; stroke-linecap: square"/>
   </g>
   <g id="patch_8">
    <path d="M 312.709091 278.64 
L 312.709091 51.84 
" style="fill: none; stroke: #000000; stroke-width: 0.8; stroke-linejoin: miter; stroke-linecap: square"/>
   </g>
   <g id="patch_9">
    <path d="M 388.8 278.64 
L 388.8 51.84 
" style="fill: none; stroke: #000000; stroke-width: 0.8; stroke-linejoin: miter; stroke-linecap: square"/>
   </g>
   <g id="patch_10">
    <path d="M 312.709091 278.64 
L 388.8 278.64 
" style="fill: none; stroke: #000000; stroke-width: 0.8; stroke-linejoin: miter; stroke-linecap: square"/>
   </g>
   <g id="patch_11">
    <path d="M 312.709091 51.84 
L 388.8 51.84 
" style="fill: none; stroke: #000000; stroke-width: 0.8; stroke-linejoin: miter; stroke-linecap: square"/>
   </g>
  </g>
  <g id="axes_3">
   <g id="patch_12">
    <path d="M 54 384.48 
L 282.272727 384.48 
L 282.272727 308.88 
L 54 308.88 
z
" style="fill: #ffffff"/>
   </g>
   <g id="PolyCollection_2">
    <path d="M 54 384.48 
L 54 324 
L 55.141364 324.902672 
L 56.282727 325.796316 
L 57.424091 326.68098 
L 58.565455 327.556708 
L 59.706818 328.423545 
L 60.848182 329.281537 
L 61.989545 330.130729 
L 63.130909 330.971167 
L 64.272273 331.802895 
L 65.413636 332.62596 
L 66.555 333.440406 
L 67.696364 334.24628 
L 68.837727 335.043625 
L 69.979091 335.832489 
L 71.120455 336.612915 
L 72.261818 337.38495 
L 73.403182 338.148638 
L 74.544545 338.904026 
L 75.685909 339.651158 
L 76.827273 340.39008 
L 77.968636 341.120837 
L 79.11 341.843475 
L 80.251364 342.558039 
L 81.392727 343.264573 
L 82.534091 343.963125 
L 83.675455 344.653739 
L 84.816818 345.336459 
L 85.958182 346.011333 
L 87.099545 346.678405 
L 88.240909 347.33772 
L 89.382273 347.989324 
L 90.523636 348.633262 
L 91.665 349.26958 
L 92.806364 349.898322 
L 93.947727 350.519535 
L 95.089091 351.133263 
L 96.230455 351.739553 
L 97.371818 352.338448 
L 98.513182 352.929996 
L 99.654545 353.51424 
L 100.795909 354.091227 
L 101.937273 354.661001 
L 103.078636 355.223609 
L 104.22 355.779095 
L 105.361364 356.327505 
L 106.502727 356.868884 
L 107.644091 357.403278 
L 108.785455 357.930732 
L 109.926818 358.45129 
L 111.068182 358.965 
L 112.209545 359.471906 
L 113.350909 359.972052 
L 114.492273 360.465486 
L 115.633636 360.952252 
L 116.775 361.432395 
L 117.916364 361.905961 
L 119.057727 362.372995 
L 120.199091 362.833543 
L 121.340455 363.287649 
L 122.481818 363.73536 
L 123.623182 364.17672 
L 124.764545 364.611776 
L 125.905909 365.040571 
L 127.047273 365.463153 
L 128.188636 365.879565 
L 129.33 366.289854 
L 130.471364 366.694064 
L 131.612727 367.092242 
L 132.754091 367.484432 
L 133.895455 367.87068 
L 135.036818 368.251031 
L 136.178182 368.625531 
L 137.319545 368.994225 
L 138.460909 369.357157 
L 139.602273 369.714375 
L 140.743636 370.065923 
L 141.885 370.411845 
L 143.026364 370.752189 
L 144.167727 371.086999 
L 145.309091 371.41632 
L 146.450455 371.740198 
L 147.591818 372.058678 
L 148.733182 372.371806 
L 149.874545 372.679626 
L 151.015909 372.982185 
L 152.157273 373.279527 
L 153.298636 373.571699 
L 154.44 373.858744 
L 155.581364 374.14071 
L 156.722727 374.41764 
L 157.864091 374.689581 
L 159.005455 374.956577 
L 160.146818 375.218675 
L 161.288182 375.475919 
L 162.429545 375.728355 
L 163.570909 375.976028 
L 164.712273 376.218984 
L 165.853636 376.457268 
L 166.995 376.690924 
L 168.136364 376.92 
L 169.277727 377.14454 
L 170.419091 377.364588 
L 171.560455 377.580192 
L 172.701818 377.791396 
L 173.843182 377.998245 
L 174.984545 378.200785 
L 176.125909 378.399061 
L 177.267273 378.593119 
L 178.408636 378.783003 
L 179.55 378.96876 
L 180.691364 379.150434 
L 181.832727 379.328072 
L 182.974091 379.501717 
L 184.115455 379.671417 
L 185.256818 379.837215 
L 186.398182 379.999158 
L 187.539545 380.15729 
L 188.680909 380.311658 
L 189.822273 380.462306 
L 190.963636 380.60928 
L 192.105 380.752625 
L 193.246364 380.892387 
L 194.387727 381.028611 
L 195.529091 381.161341 
L 196.670455 381.290625 
L 197.811818 381.416507 
L 198.953182 381.539031 
L 200.094545 381.658245 
L 201.235909 381.774193 
L 202.377273 381.88692 
L 203.518636 381.996472 
L 204.66 382.102894 
L 205.801364 382.206232 
L 206.942727 382.30653 
L 208.084091 382.403835 
L 209.225455 382.498191 
L 210.366818 382.589645 
L 211.508182 382.67824 
L 212.649545 382.764024 
L 213.790909 382.84704 
L 214.932273 382.927335 
L 216.073636 383.004953 
L 217.215 383.079941 
L 218.356364 383.152343 
L 219.497727 383.222205 
L 220.639091 383.289572 
L 221.780455 383.35449 
L 222.921818 383.417004 
L 224.063182 383.477158 
L 225.204545 383.535 
L 226.345909 383.590574 
L 227.487273 383.643924 
L 228.628636 383.695098 
L 229.77 383.74414 
L 230.911364 383.791095 
L 232.052727 383.836009 
L 233.194091 383.878927 
L 234.335455 383.919895 
L 235.476818 383.958957 
L 236.618182 383.99616 
L 237.759545 384.031548 
L 238.900909 384.065168 
L 240.042273 384.097063 
L 241.183636 384.127281 
L 242.325 384.155865 
L 243.466364 384.182862 
L 244.607727 384.208316 
L 245.749091 384.232274 
L 246.890455 384.25478 
L 248.031818 384.27588 
L 249.173182 384.295619 
L 250.314545 384.314043 
L 251.455909 384.331197 
L 252.597273 384.347125 
L 253.738636 384.361875 
L 254.88 384.375491 
L 256.021364 384.388017 
L 257.162727 384.399501 
L 258.304091 384.409987 
L 259.445455 384.41952 
L 260.586818 384.428146 
L 261.728182 384.43591 
L 262.869545 384.442858 
L 264.010909 384.449034 
L 265.152273 384.454485 
L 266.293636 384.459255 
L 267.435 384.463391 
L 268.576364 384.466936 
L 269.717727 384.469938 
L 270.859091 384.47244 
L 272.000455 384.474489 
L 273.141818 384.476129 
L 274.283182 384.477407 
L 275.424545 384.478367 
L 276.565909 384.479055 
L 277.707273 384.479516 
L 278.848636 384.479796 
L 279.99 384.47994 
L 281.131364 384.479992 
L 282.272727 384.48 
L 282.272727 384.48 
L 282.272727 384.48 
L 281.131364 384.48 
L 279.99 384.48 
L 278.848636 384.48 
L 277.707273 384.48 
L 276.565909 384.48 
L 275.424545 384.48 
L 274.283182 384.48 
L 273.141818 384.48 
L 272.000455 384.48 
L 270.859091 384.48 
L 269.717727 384.48 
L 268.576364 384.48 
L 267.435 384.48 
L 266.293636 384.48 
L 265.152273 384.48 
L 264.010909 384.48 
L 262.869545 384.48 
L 261.728182 384.48 
L 260.586818 384.48 
L 259.445455 384.48 
L 258.304091 384.48 
L 257.162727 384.48 
L 256.021364 384.48 
L 254.88 384.48 
L 253.738636 384.48 
L 252.597273 384.48 
L 251.455909 384.48 
L 250.314545 384.48 
L 249.173182 384.48 
L 248.031818 384.48 
L 246.890455 384.48 
L 245.749091 384.48 
L 244.607727 384.48 
L 243.466364 384.48 
L 242.325 384.48 
L 241.183636 384.48 
L 240.042273 384.48 
L 238.900909 384.48 
L 237.759545 384.48 
L 236.618182 384.48 
L 235.476818 384.48 
L 234.335455 384.48 
L 233.194091 384.48 
L 232.052727 384.48 
L 230.911364 384.48 
L 229.77 384.48 
L 228.628636 384.48 
L 227.487273 384.48 
L 226.345909 384.48 
L 225.204545 384.48 
L 224.063182 384.48 
L 222.921818 384.48 
L 221.780455 384.48 
L 220.639091 384.48 
L 219.497727 384.48 
L 218.356364 384.48 
L 217.215 384.48 
L 216.073636 384.48 
L 214.932273 384.48 
L 213.790909 384.48 
L 212.649545 384.48 
L 211.508182 384.48 
L 210.366818 384.48 
L 209.225455 384.48 
L 208.084091 384.48 
L 206.942727 384.48 
L 205.801364 384.48 
L 204.66 384.48 
L 203.518636 384.48 
L 202.377273 384.48 
L 201.235909 384.48 
L 200.094545 384.48 
L 198.953182 384.48 
L 197.811818 384.48 
L 196.670455 384.48 
L 195.529091 384.48 
L 194.387727 384.48 
L 193.246364 384.48 
L 192.105 384.48 
L 190.963636 384.48 
L 189.822273 384.48 
L 188.680909 384.48 
L 187.539545 384.48 
L 186.398182 384.48 
L 185.256818 384.48 
L 184.115455 384.48 
L 182.974091 384.48 
L 181.832727 384.48 
L 180.691364 384.48 
L 179.55 384.48 
L 178.408636 384.48 
L 177.267273 384.48 
L 176.125909 384.48 
L 174.984545 384.48 
L 173.843182 384.48 
L 172.701818 384.48 
L 171.560455 384.48 
L 170.419091 384.48 
L 169.277727 384.48 
L 168.136364 384.48 
L 166.995 384.48 
L 165.853636 384.48 
L 164.712273 384.48 
L 163.570909 384.48 
L 162.429545 384.48 
L 161.288182 384.48 
L 160.146818 384.48 
L 159.005455 384.48 
L 157.864091 384.48 
L 156.722727 384.48 
L 155.581364 384.48 
L 154.44 384.48 
L 153.298636 384.48 
L 152.157273 384.48 
L 151.015909 384.48 
L 149.874545 384.48 
L 148.733182 384.48 
L 147.591818 384.48 
L 146.450455 384.48 
L 145.309091 384.48 
L 144.167727 384.48 
L 143.026364 384.48 
L 141.885 384.48 
L 140.743636 384.48 
L 139.602273 384.48 
L 138.460909 384.48 
L 137.319545 384.48 
L 136.178182 384.48 
L 135.036818 384.48 
L 133.895455 384.48 
L 132.754091 384.48 
L 131.612727 384.48 
L 130.471364 384.48 
L 129.33 384.48 
L 128.188636 384.48 
L 127.047273 384.48 
L 125.905909 384.48 
L 124.764545 384.48 
L 123.623182 384.48 
L 122.481818 384.48 
L 121.340455 384.48 
L 120.199091 384.48 
L 119.057727 384.48 
L 117.916364 384.48 
L 116.775 384.48 
L 115.633636 384.48 
L 114.492273 384.48 
L 113.350909 384.48 
L 112.209545 384.48 
L 111.068182 384.48 
L 109.926818 384.48 
L 108.785455 384.48 
L 107.644091 384.48 
L 106.502727 384.48 
L 105.361364 384.48 
L 104.22 384.48 
L 103.078636 384.48 
L 101.937273 384.48 
L 100.795909 384.48 
L 99.654545 384.48 
L 98.513182 384.48 
L 97.371818 384.48 
L 96.230455 384.48 
L 95.089091 384.48 
L 93.947727 384.48 
L 92.806364 384.48 
L 91.665 384.48 
L 90.523636 384.48 
L 89.382273 384.48 
L 88.240909 384.48 
L 87.099545 384.48 
L 85.958182 384.48 
L 84.816818 384.48 
L 83.675455 384.48 
L 82.534091 384.48 
L 81.392727 384.48 
L 80.251364 384.48 
L 79.11 384.48 
L 77.968636 384.48 
L 76.827273 384.48 
L 75.685909 384.48 
L 74.544545 384.48 
L 73.403182 384.48 
L 72.261818 384.48 
L 71.120455 384.48 
L 69.979091 384.48 
L 68.837727 384.48 
L 67.696364 384.48 
L 66.555 384.48 
L 65.413636 384.48 
L 64.272273 384.48 
L 63.130909 384.48 
L 61.989545 384.48 
L 60.848182 384.48 
L 59.706818 384.48 
L 58.565455 384.48 
L 57.424091 384.48 
L 56.282727 384.48 
L 55.141364 384.48 
L 54 384.48 
z
" clip-path="url(#p29441406b7)" style="fill: #0070c0; fill-opacity: 0.2"/>
   </g>
   <g id="matplotlib.axis_5">
    <g id="xtick_48">
     <g id="line2d_115">
      <path d="M 54 384.48 
L 54 308.88 
" clip-path="url(#p29441406b7)" style="fill: none; stroke: #808080; stroke-width: 0.5; stroke-linecap: square"/>
     </g>
     <g id="line2d_116">
      <g>
       <use xlink:href="#mc7c1496f5d" x="54" y="384.48" style="stroke: #000000; stroke-width: 0.8"/>
      </g>
     </g>
     <g id="text_27">
      <!-- 0.0 -->
      <g transform="translate(46.048437 399.078437) scale(0.1 -0.1)">
       <use xlink:href="#DejaVuSans-30"/>
       <use xlink:href="#DejaVuSans-2e" x="63.623047"/>
       <use xlink:href="#DejaVuSans-30" x="95.410156"/>
      </g>
     </g>
    </g>
    <g id="xtick_49">
     <g id="line2d_117">
      <path d="M 99.654545 384.48 
L 99.654545 308.88 
" clip-path="url(#p29441406b7)" style="fill: none; stroke: #808080; stroke-width: 0.5; stroke-linecap: square"/>
     </g>
     <g id="line2d_118">
      <g>
       <use xlink:href="#mc7c1496f5d" x="99.654545" y="384.48" style="stroke: #000000; stroke-width: 0.8"/>
      </g>
     </g>
     <g id="text_28">
      <!-- 0.2 -->
      <g transform="translate(91.702983 399.078437) scale(0.1 -0.1)">
       <use xlink:href="#DejaVuSans-30"/>
       <use xlink:href="#DejaVuSans-2e" x="63.623047"/>
       <use xlink:href="#DejaVuSans-32" x="95.410156"/>
      </g>
     </g>
    </g>
    <g id="xtick_50">
     <g id="line2d_119">
      <path d="M 145.309091 384.48 
L 145.309091 308.88 
" clip-path="url(#p29441406b7)" style="fill: none; stroke: #808080; stroke-width: 0.5; stroke-linecap: square"/>
     </g>
     <g id="line2d_120">
      <g>
       <use xlink:href="#mc7c1496f5d" x="145.309091" y="384.48" style="stroke: #000000; stroke-width: 0.8"/>
      </g>
     </g>
     <g id="text_29">
      <!-- 0.4 -->
      <g transform="translate(137.357528 399.078437) scale(0.1 -0.1)">
       <use xlink:href="#DejaVuSans-30"/>
       <use xlink:href="#DejaVuSans-2e" x="63.623047"/>
       <use xlink:href="#DejaVuSans-34" x="95.410156"/>
      </g>
     </g>
    </g>
    <g id="xtick_51">
     <g id="line2d_121">
      <path d="M 190.963636 384.48 
L 190.963636 308.88 
" clip-path="url(#p29441406b7)" style="fill: none; stroke: #808080; stroke-width: 0.5; stroke-linecap: square"/>
     </g>
     <g id="line2d_122">
      <g>
       <use xlink:href="#mc7c1496f5d" x="190.963636" y="384.48" style="stroke: #000000; stroke-width: 0.8"/>
      </g>
     </g>
     <g id="text_30">
      <!-- 0.6 -->
      <g transform="translate(183.012074 399.078437) scale(0.1 -0.1)">
       <use xlink:href="#DejaVuSans-30"/>
       <use xlink:href="#DejaVuSans-2e" x="63.623047"/>
       <use xlink:href="#DejaVuSans-36" x="95.410156"/>
      </g>
     </g>
    </g>
    <g id="xtick_52">
     <g id="line2d_123">
      <path d="M 236.618182 384.48 
L 236.618182 308.88 
" clip-path="url(#p29441406b7)" style="fill: none; stroke: #808080; stroke-width: 0.5; stroke-linecap: square"/>
     </g>
     <g id="line2d_124">
      <g>
       <use xlink:href="#mc7c1496f5d" x="236.618182" y="384.48" style="stroke: #000000; stroke-width: 0.8"/>
      </g>
     </g>
     <g id="text_31">
      <!-- 0.8 -->
      <g transform="translate(228.666619 399.078437) scale(0.1 -0.1)">
       <use xlink:href="#DejaVuSans-30"/>
       <use xlink:href="#DejaVuSans-2e" x="63.623047"/>
       <use xlink:href="#DejaVuSans-38" x="95.410156"/>
      </g>
     </g>
    </g>
    <g id="xtick_53">
     <g id="line2d_125">
      <path d="M 282.272727 384.48 
L 282.272727 308.88 
" clip-path="url(#p29441406b7)" style="fill: none; stroke: #808080; stroke-width: 0.5; stroke-linecap: square"/>
     </g>
     <g id="line2d_126">
      <g>
       <use xlink:href="#mc7c1496f5d" x="282.272727" y="384.48" style="stroke: #000000; stroke-width: 0.8"/>
      </g>
     </g>
     <g id="text_32">
      <!-- 1.0 -->
      <g transform="translate(274.321165 399.078437) scale(0.1 -0.1)">
       <use xlink:href="#DejaVuSans-31"/>
       <use xlink:href="#DejaVuSans-2e" x="63.623047"/>
       <use xlink:href="#DejaVuSans-30" x="95.410156"/>
      </g>
     </g>
    </g>
    <g id="xtick_54">
     <g id="line2d_127">
      <g>
       <use xlink:href="#m5aab79f520" x="65.413636" y="384.48" style="stroke: #000000; stroke-width: 0.6"/>
      </g>
     </g>
    </g>
    <g id="xtick_55">
     <g id="line2d_128">
      <g>
       <use xlink:href="#m5aab79f520" x="76.827273" y="384.48" style="stroke: #000000; stroke-width: 0.6"/>
      </g>
     </g>
    </g>
    <g id="xtick_56">
     <g id="line2d_129">
      <g>
       <use xlink:href="#m5aab79f520" x="88.240909" y="384.48" style="stroke: #000000; stroke-width: 0.6"/>
      </g>
     </g>
    </g>
    <g id="xtick_57">
     <g id="line2d_130">
      <g>
       <use xlink:href="#m5aab79f520" x="111.068182" y="384.48" style="stroke: #000000; stroke-width: 0.6"/>
      </g>
     </g>
    </g>
    <g id="xtick_58">
     <g id="line2d_131">
      <g>
       <use xlink:href="#m5aab79f520" x="122.481818" y="384.48" style="stroke: #000000; stroke-width: 0.6"/>
      </g>
     </g>
    </g>
    <g id="xtick_59">
     <g id="line2d_132">
      <g>
       <use xlink:href="#m5aab79f520" x="133.895455" y="384.48" style="stroke: #000000; stroke-width: 0.6"/>
      </g>
     </g>
    </g>
    <g id="xtick_60">
     <g id="line2d_133">
      <g>
       <use xlink:href="#m5aab79f520" x="156.722727" y="384.48" style="stroke: #000000; stroke-width: 0.6"/>
      </g>
     </g>
    </g>
    <g id="xtick_61">
     <g id="line2d_134">
      <g>
       <use xlink:href="#m5aab79f520" x="168.136364" y="384.48" style="stroke: #000000; stroke-width: 0.6"/>
      </g>
     </g>
    </g>
    <g id="xtick_62">
     <g id="line2d_135">
      <g>
       <use xlink:href="#m5aab79f520" x="179.55" y="384.48" style="stroke: #000000; stroke-width: 0.6"/>
      </g>
     </g>
    </g>
    <g id="xtick_63">
     <g id="line2d_136">
      <g>
       <use xlink:href="#m5aab79f520" x="202.377273" y="384.48" style="stroke: #000000; stroke-width: 0.6"/>
      </g>
     </g>
    </g>
    <g id="xtick_64">
     <g id="line2d_137">
      <g>
       <use xlink:href="#m5aab79f520" x="213.790909" y="384.48" style="stroke: #000000; stroke-width: 0.6"/>
      </g>
     </g>
    </g>
    <g id="xtick_65">
     <g id="line2d_138">
      <g>
       <use xlink:href="#m5aab79f520" x="225.204545" y="384.48" style="stroke: #000000; stroke-width: 0.6"/>
      </g>
     </g>
    </g>
    <g id="xtick_66">
     <g id="line2d_139">
      <g>
       <use xlink:href="#m5aab79f520" x="248.031818" y="384.48" style="stroke: #000000; stroke-width: 0.6"/>
      </g>
     </g>
    </g>
    <g id="xtick_67">
     <g id="line2d_140">
      <g>
       <use xlink:href="#m5aab79f520" x="259.445455" y="384.48" style="stroke: #000000; stroke-width: 0.6"/>
      </g>
     </g>
    </g>
    <g id="xtick_68">
     <g id="line2d_141">
      <g>
       <use xlink:href="#m5aab79f520" x="270.859091" y="384.48" style="stroke: #000000; stroke-width: 0.6"/>
      </g>
     </g>
    </g>
   </g>
   <g id="matplotlib.axis_6">
    <g id="ytick_43">
     <g id="line2d_142">
      <path d="M 54 384.48 
L 282.272727 384.48 
" clip-path="url(#p29441406b7)" style="fill: none; stroke: #808080; stroke-width: 0.5; stroke-linecap: square"/>
     </g>
     <g id="line2d_143">
      <g>
       <use xlink:href="#mbe06c33624" x="54" y="384.48" style="stroke: #000000; stroke-width: 0.8"/>
      </g>
     </g>
     <g id="text_33">
      <!-- 0 -->
      <g transform="translate(40.6375 388.279219) scale(0.1 -0.1)">
       <use xlink:href="#DejaVuSans-30"/>
      </g>
     </g>
    </g>
    <g id="ytick_44">
     <g id="line2d_144">
      <path d="M 54 369.36 
L 282.272727 369.36 
" clip-path="url(#p29441406b7)" style="fill: none; stroke: #808080; stroke-width: 0.5; stroke-linecap: square"/>
     </g>
     <g id="line2d_145">
      <g>
       <use xlink:href="#mbe06c33624" x="54" y="369.36" style="stroke: #000000; stroke-width: 0.8"/>
      </g>
     </g>
     <g id="text_34">
      <!-- 1 -->
      <g transform="translate(40.6375 373.159219) scale(0.1 -0.1)">
       <use xlink:href="#DejaVuSans-31"/>
      </g>
     </g>
    </g>
    <g id="ytick_45">
     <g id="line2d_146">
      <path d="M 54 354.24 
L 282.272727 354.24 
" clip-path="url(#p29441406b7)" style="fill: none; stroke: #808080; stroke-width: 0.5; stroke-linecap: square"/>
     </g>
     <g id="line2d_147">
      <g>
       <use xlink:href="#mbe06c33624" x="54" y="354.24" style="stroke: #000000; stroke-width: 0.8"/>
      </g>
     </g>
     <g id="text_35">
      <!-- 2 -->
      <g transform="translate(40.6375 358.039219) scale(0.1 -0.1)">
       <use xlink:href="#DejaVuSans-32"/>
      </g>
     </g>
    </g>
    <g id="ytick_46">
     <g id="line2d_148">
      <path d="M 54 339.12 
L 282.272727 339.12 
" clip-path="url(#p29441406b7)" style="fill: none; stroke: #808080; stroke-width: 0.5; stroke-linecap: square"/>
     </g>
     <g id="line2d_149">
      <g>
       <use xlink:href="#mbe06c33624" x="54" y="339.12" style="stroke: #000000; stroke-width: 0.8"/>
      </g>
     </g>
     <g id="text_36">
      <!-- 3 -->
      <g transform="translate(40.6375 342.919219) scale(0.1 -0.1)">
       <use xlink:href="#DejaVuSans-33"/>
      </g>
     </g>
    </g>
    <g id="ytick_47">
     <g id="line2d_150">
      <path d="M 54 324 
L 282.272727 324 
" clip-path="url(#p29441406b7)" style="fill: none; stroke: #808080; stroke-width: 0.5; stroke-linecap: square"/>
     </g>
     <g id="line2d_151">
      <g>
       <use xlink:href="#mbe06c33624" x="54" y="324" style="stroke: #000000; stroke-width: 0.8"/>
      </g>
     </g>
     <g id="text_37">
      <!-- 4 -->
      <g transform="translate(40.6375 327.799219) scale(0.1 -0.1)">
       <use xlink:href="#DejaVuSans-34"/>
      </g>
     </g>
    </g>
    <g id="ytick_48">
     <g id="line2d_152">
      <path d="M 54 308.88 
L 282.272727 308.88 
" clip-path="url(#p29441406b7)" style="fill: none; stroke: #808080; stroke-width: 0.5; stroke-linecap: square"/>
     </g>
     <g id="line2d_153">
      <g>
       <use xlink:href="#mbe06c33624" x="54" y="308.88" style="stroke: #000000; stroke-width: 0.8"/>
      </g>
     </g>
     <g id="text_38">
      <!-- 5 -->
      <g transform="translate(40.6375 312.679219) scale(0.1 -0.1)">
       <use xlink:href="#DejaVuSans-35"/>
      </g>
     </g>
    </g>
    <g id="ytick_49">
     <g id="line2d_154">
      <g>
       <use xlink:href="#m49c334d001" x="54" y="381.456" style="stroke: #000000; stroke-width: 0.6"/>
      </g>
     </g>
    </g>
    <g id="ytick_50">
     <g id="line2d_155">
      <g>
       <use xlink:href="#m49c334d001" x="54" y="378.432" style="stroke: #000000; stroke-width: 0.6"/>
      </g>
     </g>
    </g>
    <g id="ytick_51">
     <g id="line2d_156">
      <g>
       <use xlink:href="#m49c334d001" x="54" y="375.408" style="stroke: #000000; stroke-width: 0.6"/>
      </g>
     </g>
    </g>
    <g id="ytick_52">
     <g id="line2d_157">
      <g>
       <use xlink:href="#m49c334d001" x="54" y="372.384" style="stroke: #000000; stroke-width: 0.6"/>
      </g>
     </g>
    </g>
    <g id="ytick_53">
     <g id="line2d_158">
      <g>
       <use xlink:href="#m49c334d001" x="54" y="366.336" style="stroke: #000000; stroke-width: 0.6"/>
      </g>
     </g>
    </g>
    <g id="ytick_54">
     <g id="line2d_159">
      <g>
       <use xlink:href="#m49c334d001" x="54" y="363.312" style="stroke: #000000; stroke-width: 0.6"/>
      </g>
     </g>
    </g>
    <g id="ytick_55">
     <g id="line2d_160">
      <g>
       <use xlink:href="#m49c334d001" x="54" y="360.288" style="stroke: #000000; stroke-width: 0.6"/>
      </g>
     </g>
    </g>
    <g id="ytick_56">
     <g id="line2d_161">
      <g>
       <use xlink:href="#m49c334d001" x="54" y="357.264" style="stroke: #000000; stroke-width: 0.6"/>
      </g>
     </g>
    </g>
    <g id="ytick_57">
     <g id="line2d_162">
      <g>
       <use xlink:href="#m49c334d001" x="54" y="351.216" style="stroke: #000000; stroke-width: 0.6"/>
      </g>
     </g>
    </g>
    <g id="ytick_58">
     <g id="line2d_163">
      <g>
       <use xlink:href="#m49c334d001" x="54" y="348.192" style="stroke: #000000; stroke-width: 0.6"/>
      </g>
     </g>
    </g>
    <g id="ytick_59">
     <g id="line2d_164">
      <g>
       <use xlink:href="#m49c334d001" x="54" y="345.168" style="stroke: #000000; stroke-width: 0.6"/>
      </g>
     </g>
    </g>
    <g id="ytick_60">
     <g id="line2d_165">
      <g>
       <use xlink:href="#m49c334d001" x="54" y="342.144" style="stroke: #000000; stroke-width: 0.6"/>
      </g>
     </g>
    </g>
    <g id="ytick_61">
     <g id="line2d_166">
      <g>
       <use xlink:href="#m49c334d001" x="54" y="336.096" style="stroke: #000000; stroke-width: 0.6"/>
      </g>
     </g>
    </g>
    <g id="ytick_62">
     <g id="line2d_167">
      <g>
       <use xlink:href="#m49c334d001" x="54" y="333.072" style="stroke: #000000; stroke-width: 0.6"/>
      </g>
     </g>
    </g>
    <g id="ytick_63">
     <g id="line2d_168">
      <g>
       <use xlink:href="#m49c334d001" x="54" y="330.048" style="stroke: #000000; stroke-width: 0.6"/>
      </g>
     </g>
    </g>
    <g id="ytick_64">
     <g id="line2d_169">
      <g>
       <use xlink:href="#m49c334d001" x="54" y="327.024" style="stroke: #000000; stroke-width: 0.6"/>
      </g>
     </g>
    </g>
    <g id="ytick_65">
     <g id="line2d_170">
      <g>
       <use xlink:href="#m49c334d001" x="54" y="320.976" style="stroke: #000000; stroke-width: 0.6"/>
      </g>
     </g>
    </g>
    <g id="ytick_66">
     <g id="line2d_171">
      <g>
       <use xlink:href="#m49c334d001" x="54" y="317.952" style="stroke: #000000; stroke-width: 0.6"/>
      </g>
     </g>
    </g>
    <g id="ytick_67">
     <g id="line2d_172">
      <g>
       <use xlink:href="#m49c334d001" x="54" y="314.928" style="stroke: #000000; stroke-width: 0.6"/>
      </g>
     </g>
    </g>
    <g id="ytick_68">
     <g id="line2d_173">
      <g>
       <use xlink:href="#m49c334d001" x="54" y="311.904" style="stroke: #000000; stroke-width: 0.6"/>
      </g>
     </g>
    </g>
    <g id="text_39">
     <!-- PDF -->
     <g transform="translate(34.557813 356.420625) rotate(-90) scale(0.1 -0.1)">
      <use xlink:href="#DejaVuSans-50"/>
      <use xlink:href="#DejaVuSans-44" x="60.302734"/>
      <use xlink:href="#DejaVuSans-46" x="137.304688"/>
     </g>
    </g>
   </g>
   <g id="line2d_174">
    <path d="M 54 324 
L 60.848182 329.281537 
L 67.696364 334.24628 
L 74.544545 338.904026 
L 81.392727 343.264573 
L 88.240909 347.33772 
L 95.089091 351.133263 
L 101.937273 354.661001 
L 108.785455 357.930732 
L 115.633636 360.952252 
L 122.481818 363.73536 
L 129.33 366.289854 
L 136.178182 368.625531 
L 143.026364 370.752189 
L 151.015909 372.982185 
L 159.005455 374.956577 
L 166.995 376.690924 
L 174.984545 378.200785 
L 182.974091 379.501717 
L 192.105 380.752625 
L 201.235909 381.774193 
L 211.508182 382.67824 
L 221.780455 383.35449 
L 233.194091 383.878927 
L 245.749091 384.232274 
L 260.586818 384.428146 
L 282.272727 384.48 
L 282.272727 384.48 
" clip-path="url(#p29441406b7)" style="fill: none; stroke: #0070c0; stroke-width: 1.5; stroke-linecap: square"/>
   </g>
   <g id="patch_13">
    <path d="M 54 384.48 
L 54 308.88 
" style="fill: none; stroke: #000000; stroke-width: 0.8; stroke-linejoin: miter; stroke-linecap: square"/>
   </g>
   <g id="patch_14">
    <path d="M 282.272727 384.48 
L 282.272727 308.88 
" style="fill: none; stroke: #000000; stroke-width: 0.8; stroke-linejoin: miter; stroke-linecap: square"/>
   </g>
   <g id="patch_15">
    <path d="M 54 384.48 
L 282.272727 384.48 
" style="fill: none; stroke: #000000; stroke-width: 0.8; stroke-linejoin: miter; stroke-linecap: square"/>
   </g>
   <g id="patch_16">
    <path d="M 54 308.88 
L 282.272727 308.88 
" style="fill: none; stroke: #000000; stroke-width: 0.8; stroke-linejoin: miter; stroke-linecap: square"/>
   </g>
  </g>
 </g>
 <defs>
  <clipPath id="p8e31dd67f1">
   <rect x="54" y="51.84" width="228.272727" height="226.8"/>
  </clipPath>
  <clipPath id="p33c7803289">
   <rect x="312.709091" y="51.84" width="76.090909" height="226.8"/>
  </clipPath>
  <clipPath id="p29441406b7">
   <rect x="54" y="308.88" width="228.272727" height="75.6"/>
  </clipPath>
 </defs>
</svg>
