<?xml version="1.0" encoding="utf-8" standalone="no"?>
<!DOCTYPE svg PUBLIC "-//W3C//DTD SVG 1.1//EN"
  "http://www.w3.org/Graphics/SVG/1.1/DTD/svg11.dtd">
<svg xmlns:xlink="http://www.w3.org/1999/xlink" width="288pt" height="288pt" viewBox="0 0 288 288" xmlns="http://www.w3.org/2000/svg" version="1.1">
 <metadata>
  <rdf:RDF xmlns:dc="http://purl.org/dc/elements/1.1/" xmlns:cc="http://creativecommons.org/ns#" xmlns:rdf="http://www.w3.org/1999/02/22-rdf-syntax-ns#">
   <cc:Work>
    <dc:type rdf:resource="http://purl.org/dc/dcmitype/StillImage"/>
    <dc:date>2025-12-01T15:39:37.504310</dc:date>
    <dc:format>image/svg+xml</dc:format>
    <dc:creator>
     <cc:Agent>
      <dc:title>Matplotlib v3.10.6, https://matplotlib.org/</dc:title>
     </cc:Agent>
    </dc:creator>
   </cc:Work>
  </rdf:RDF>
 </metadata>
 <defs>
  <style type="text/css">*{stroke-linejoin: round; stroke-linecap: butt}</style>
 </defs>
 <g id="figure_1">
  <g id="patch_1">
   <path d="M 0 288 
L 288 288 
L 288 0 
L 0 0 
z
" style="fill: #ffffff"/>
  </g>
  <g id="axes_1">
   <g id="patch_2">
    <path d="M 36 256.32 
L 259.2 256.32 
L 259.2 34.56 
L 36 34.56 
z
" style="fill: #ffffff"/>
   </g>
   <g id="QuadMesh_1">
    <path d="M 110.4 182.4 
L 114.12 182.4 
L 114.12 178.704 
L 110.4 178.704 
L 110.4 182.4 
" clip-path="url(#p26a46aebb4)" style="fill: none; stroke: #8000ff"/>
    <path d="M 114.12 182.4 
L 117.84 182.4 
L 117.84 178.704 
L 114.12 178.704 
L 114.12 182.4 
" clip-path="url(#p26a46aebb4)" style="fill: none; stroke: #8000ff"/>
    <path d="M 117.84 182.4 
L 121.56 182.4 
L 121.56 178.704 
L 117.84 178.704 
L 117.84 182.4 
" clip-path="url(#p26a46aebb4)" style="fill: none; stroke: #7e03ff"/>
    <path d="M 121.56 182.4 
L 125.28 182.4 
L 125.28 178.704 
L 121.56 178.704 
L 121.56 182.4 
" clip-path="url(#p26a46aebb4)" style="fill: none; stroke: #7e03ff"/>
    <path d="M 125.28 182.4 
L 129 182.4 
L 129 178.704 
L 125.28 178.704 
L 125.28 182.4 
" clip-path="url(#p26a46aebb4)" style="fill: none; stroke: #7c06ff"/>
    <path d="M 129 182.4 
L 132.72 182.4 
L 132.72 178.704 
L 129 178.704 
L 129 182.4 
" clip-path="url(#p26a46aebb4)" style="fill: none; stroke: #7a09ff"/>
    <path d="M 132.72 182.4 
L 136.44 182.4 
L 136.44 178.704 
L 132.72 178.704 
L 132.72 182.4 
" clip-path="url(#p26a46aebb4)" style="fill: none; stroke: #7a09ff"/>
    <path d="M 136.44 182.4 
L 140.16 182.4 
L 140.16 178.704 
L 136.44 178.704 
L 136.44 182.4 
" clip-path="url(#p26a46aebb4)" style="fill: none; stroke: #780dff"/>
    <path d="M 140.16 182.4 
L 143.88 182.4 
L 143.88 178.704 
L 140.16 178.704 
L 140.16 182.4 
" clip-path="url(#p26a46aebb4)" style="fill: none; stroke: #7610ff"/>
    <path d="M 143.88 182.4 
L 147.6 182.4 
L 147.6 178.704 
L 143.88 178.704 
L 143.88 182.4 
" clip-path="url(#p26a46aebb4)" style="fill: none; stroke: #7610ff"/>
    <path d="M 147.6 182.4 
L 151.32 182.4 
L 151.32 178.704 
L 147.6 178.704 
L 147.6 182.4 
" clip-path="url(#p26a46aebb4)" style="fill: none; stroke: #7413ff"/>
    <path d="M 151.32 182.4 
L 155.04 182.4 
L 155.04 178.704 
L 151.32 178.704 
L 151.32 182.4 
" clip-path="url(#p26a46aebb4)" style="fill: none; stroke: #7216ff"/>
    <path d="M 155.04 182.4 
L 158.76 182.4 
L 158.76 178.704 
L 155.04 178.704 
L 155.04 182.4 
" clip-path="url(#p26a46aebb4)" style="fill: none; stroke: #7216ff"/>
    <path d="M 158.76 182.4 
L 162.48 182.4 
L 162.48 178.704 
L 158.76 178.704 
L 158.76 182.4 
" clip-path="url(#p26a46aebb4)" style="fill: none; stroke: #7019ff"/>
    <path d="M 162.48 182.4 
L 166.2 182.4 
L 166.2 178.704 
L 162.48 178.704 
L 162.48 182.4 
" clip-path="url(#p26a46aebb4)" style="fill: none; stroke: #7019ff"/>
    <path d="M 166.2 182.4 
L 169.92 182.4 
L 169.92 178.704 
L 166.2 178.704 
L 166.2 182.4 
" clip-path="url(#p26a46aebb4)" style="fill: none; stroke: #6e1cff"/>
    <path d="M 169.92 182.4 
L 173.64 182.4 
L 173.64 178.704 
L 169.92 178.704 
L 169.92 182.4 
" clip-path="url(#p26a46aebb4)" style="fill: none; stroke: #6c1fff"/>
    <path d="M 173.64 182.4 
L 177.36 182.4 
L 177.36 178.704 
L 173.64 178.704 
L 173.64 182.4 
" clip-path="url(#p26a46aebb4)" style="fill: none; stroke: #6c1fff"/>
    <path d="M 177.36 182.4 
L 181.08 182.4 
L 181.08 178.704 
L 177.36 178.704 
L 177.36 182.4 
" clip-path="url(#p26a46aebb4)" style="fill: none; stroke: #6a22fe"/>
    <path d="M 181.08 182.4 
L 184.8 182.4 
L 184.8 178.704 
L 181.08 178.704 
L 181.08 182.4 
" clip-path="url(#p26a46aebb4)" style="fill: none; stroke: #6826fe"/>
    <path d="M 110.4 178.704 
L 114.12 178.704 
L 114.12 175.008 
L 110.4 175.008 
L 110.4 178.704 
" clip-path="url(#p26a46aebb4)" style="fill: none; stroke: #6826fe"/>
    <path d="M 114.12 178.704 
L 117.84 178.704 
L 117.84 175.008 
L 114.12 175.008 
L 114.12 178.704 
" clip-path="url(#p26a46aebb4)" style="fill: none; stroke: #6629fe"/>
    <path d="M 117.84 178.704 
L 121.56 178.704 
L 121.56 175.008 
L 117.84 175.008 
L 117.84 178.704 
" clip-path="url(#p26a46aebb4)" style="fill: none; stroke: #642cfe"/>
    <path d="M 121.56 178.704 
L 125.28 178.704 
L 125.28 175.008 
L 121.56 175.008 
L 121.56 178.704 
" clip-path="url(#p26a46aebb4)" style="fill: none; stroke: #642cfe"/>
    <path d="M 125.28 178.704 
L 129 178.704 
L 129 175.008 
L 125.28 175.008 
L 125.28 178.704 
" clip-path="url(#p26a46aebb4)" style="fill: none; stroke: #622ffe"/>
    <path d="M 129 178.704 
L 132.72 178.704 
L 132.72 175.008 
L 129 175.008 
L 129 178.704 
" clip-path="url(#p26a46aebb4)" style="fill: none; stroke: #6032fe"/>
    <path d="M 132.72 178.704 
L 136.44 178.704 
L 136.44 175.008 
L 132.72 175.008 
L 132.72 178.704 
" clip-path="url(#p26a46aebb4)" style="fill: none; stroke: #6032fe"/>
    <path d="M 136.44 178.704 
L 140.16 178.704 
L 140.16 175.008 
L 136.44 175.008 
L 136.44 178.704 
" clip-path="url(#p26a46aebb4)" style="fill: none; stroke: #5e35fe"/>
    <path d="M 140.16 178.704 
L 143.88 178.704 
L 143.88 175.008 
L 140.16 175.008 
L 140.16 178.704 
" clip-path="url(#p26a46aebb4)" style="fill: none; stroke: #5e35fe"/>
    <path d="M 143.88 178.704 
L 147.6 178.704 
L 147.6 175.008 
L 143.88 175.008 
L 143.88 178.704 
" clip-path="url(#p26a46aebb4)" style="fill: none; stroke: #5c38fd"/>
    <path d="M 147.6 178.704 
L 151.32 178.704 
L 151.32 175.008 
L 147.6 175.008 
L 147.6 178.704 
" clip-path="url(#p26a46aebb4)" style="fill: none; stroke: #5a3bfd"/>
    <path d="M 151.32 178.704 
L 155.04 178.704 
L 155.04 175.008 
L 151.32 175.008 
L 151.32 178.704 
" clip-path="url(#p26a46aebb4)" style="fill: none; stroke: #5a3bfd"/>
    <path d="M 155.04 178.704 
L 158.76 178.704 
L 158.76 175.008 
L 155.04 175.008 
L 155.04 178.704 
" clip-path="url(#p26a46aebb4)" style="fill: none; stroke: #583efd"/>
    <path d="M 158.76 178.704 
L 162.48 178.704 
L 162.48 175.008 
L 158.76 175.008 
L 158.76 178.704 
" clip-path="url(#p26a46aebb4)" style="fill: none; stroke: #5641fd"/>
    <path d="M 162.48 178.704 
L 166.2 178.704 
L 166.2 175.008 
L 162.48 175.008 
L 162.48 178.704 
" clip-path="url(#p26a46aebb4)" style="fill: none; stroke: #5641fd"/>
    <path d="M 166.2 178.704 
L 169.92 178.704 
L 169.92 175.008 
L 166.2 175.008 
L 166.2 178.704 
" clip-path="url(#p26a46aebb4)" style="fill: none; stroke: #5444fd"/>
    <path d="M 169.92 178.704 
L 173.64 178.704 
L 173.64 175.008 
L 169.92 175.008 
L 169.92 178.704 
" clip-path="url(#p26a46aebb4)" style="fill: none; stroke: #5247fc"/>
    <path d="M 173.64 178.704 
L 177.36 178.704 
L 177.36 175.008 
L 173.64 175.008 
L 173.64 178.704 
" clip-path="url(#p26a46aebb4)" style="fill: none; stroke: #5247fc"/>
    <path d="M 177.36 178.704 
L 181.08 178.704 
L 181.08 175.008 
L 177.36 175.008 
L 177.36 178.704 
" clip-path="url(#p26a46aebb4)" style="fill: none; stroke: #504afc"/>
    <path d="M 181.08 178.704 
L 184.8 178.704 
L 184.8 175.008 
L 181.08 175.008 
L 181.08 178.704 
" clip-path="url(#p26a46aebb4)" style="fill: none; stroke: #4e4dfc"/>
    <path d="M 110.4 175.008 
L 114.12 175.008 
L 114.12 171.312 
L 110.4 171.312 
L 110.4 175.008 
" clip-path="url(#p26a46aebb4)" style="fill: none; stroke: #4e4dfc"/>
    <path d="M 114.12 175.008 
L 117.84 175.008 
L 117.84 171.312 
L 114.12 171.312 
L 114.12 175.008 
" clip-path="url(#p26a46aebb4)" style="fill: none; stroke: #4c50fc"/>
    <path d="M 117.84 175.008 
L 121.56 175.008 
L 121.56 171.312 
L 117.84 171.312 
L 117.84 175.008 
" clip-path="url(#p26a46aebb4)" style="fill: none; stroke: #4c50fc"/>
    <path d="M 121.56 175.008 
L 125.28 175.008 
L 125.28 171.312 
L 121.56 171.312 
L 121.56 175.008 
" clip-path="url(#p26a46aebb4)" style="fill: none; stroke: #4a53fb"/>
    <path d="M 125.28 175.008 
L 129 175.008 
L 129 171.312 
L 125.28 171.312 
L 125.28 175.008 
" clip-path="url(#p26a46aebb4)" style="fill: none; stroke: #4856fb"/>
    <path d="M 129 175.008 
L 132.72 175.008 
L 132.72 171.312 
L 129 171.312 
L 129 175.008 
" clip-path="url(#p26a46aebb4)" style="fill: none; stroke: #4856fb"/>
    <path d="M 132.72 175.008 
L 136.44 175.008 
L 136.44 171.312 
L 132.72 171.312 
L 132.72 175.008 
" clip-path="url(#p26a46aebb4)" style="fill: none; stroke: #4659fb"/>
    <path d="M 136.44 175.008 
L 140.16 175.008 
L 140.16 171.312 
L 136.44 171.312 
L 136.44 175.008 
" clip-path="url(#p26a46aebb4)" style="fill: none; stroke: #445cfb"/>
    <path d="M 140.16 175.008 
L 143.88 175.008 
L 143.88 171.312 
L 140.16 171.312 
L 140.16 175.008 
" clip-path="url(#p26a46aebb4)" style="fill: none; stroke: #445cfb"/>
    <path d="M 143.88 175.008 
L 147.6 175.008 
L 147.6 171.312 
L 143.88 171.312 
L 143.88 175.008 
" clip-path="url(#p26a46aebb4)" style="fill: none; stroke: #425ffa"/>
    <path d="M 147.6 175.008 
L 151.32 175.008 
L 151.32 171.312 
L 147.6 171.312 
L 147.6 175.008 
" clip-path="url(#p26a46aebb4)" style="fill: none; stroke: #4062fa"/>
    <path d="M 151.32 175.008 
L 155.04 175.008 
L 155.04 171.312 
L 151.32 171.312 
L 151.32 175.008 
" clip-path="url(#p26a46aebb4)" style="fill: none; stroke: #4062fa"/>
    <path d="M 155.04 175.008 
L 158.76 175.008 
L 158.76 171.312 
L 155.04 171.312 
L 155.04 175.008 
" clip-path="url(#p26a46aebb4)" style="fill: none; stroke: #3e65fa"/>
    <path d="M 158.76 175.008 
L 162.48 175.008 
L 162.48 171.312 
L 158.76 171.312 
L 158.76 175.008 
" clip-path="url(#p26a46aebb4)" style="fill: none; stroke: #3c68f9"/>
    <path d="M 162.48 175.008 
L 166.2 175.008 
L 166.2 171.312 
L 162.48 171.312 
L 162.48 175.008 
" clip-path="url(#p26a46aebb4)" style="fill: none; stroke: #3c68f9"/>
    <path d="M 166.2 175.008 
L 169.92 175.008 
L 169.92 171.312 
L 166.2 171.312 
L 166.2 175.008 
" clip-path="url(#p26a46aebb4)" style="fill: none; stroke: #396bf9"/>
    <path d="M 169.92 175.008 
L 173.64 175.008 
L 173.64 171.312 
L 169.92 171.312 
L 169.92 175.008 
" clip-path="url(#p26a46aebb4)" style="fill: none; stroke: #396bf9"/>
    <path d="M 173.64 175.008 
L 177.36 175.008 
L 177.36 171.312 
L 173.64 171.312 
L 173.64 175.008 
" clip-path="url(#p26a46aebb4)" style="fill: none; stroke: #386df9"/>
    <path d="M 177.36 175.008 
L 181.08 175.008 
L 181.08 171.312 
L 177.36 171.312 
L 177.36 175.008 
" clip-path="url(#p26a46aebb4)" style="fill: none; stroke: #3670f8"/>
    <path d="M 181.08 175.008 
L 184.8 175.008 
L 184.8 171.312 
L 181.08 171.312 
L 181.08 175.008 
" clip-path="url(#p26a46aebb4)" style="fill: none; stroke: #3670f8"/>
    <path d="M 110.4 171.312 
L 114.12 171.312 
L 114.12 167.616 
L 110.4 167.616 
L 110.4 171.312 
" clip-path="url(#p26a46aebb4)" style="fill: none; stroke: #3473f8"/>
    <path d="M 114.12 171.312 
L 117.84 171.312 
L 117.84 167.616 
L 114.12 167.616 
L 114.12 171.312 
" clip-path="url(#p26a46aebb4)" style="fill: none; stroke: #3176f8"/>
    <path d="M 117.84 171.312 
L 121.56 171.312 
L 121.56 167.616 
L 117.84 167.616 
L 117.84 171.312 
" clip-path="url(#p26a46aebb4)" style="fill: none; stroke: #3176f8"/>
    <path d="M 121.56 171.312 
L 125.28 171.312 
L 125.28 167.616 
L 121.56 167.616 
L 121.56 171.312 
" clip-path="url(#p26a46aebb4)" style="fill: none; stroke: #3079f7"/>
    <path d="M 125.28 171.312 
L 129 171.312 
L 129 167.616 
L 125.28 167.616 
L 125.28 171.312 
" clip-path="url(#p26a46aebb4)" style="fill: none; stroke: #2e7bf7"/>
    <path d="M 129 171.312 
L 132.72 171.312 
L 132.72 167.616 
L 129 167.616 
L 129 171.312 
" clip-path="url(#p26a46aebb4)" style="fill: none; stroke: #2e7bf7"/>
    <path d="M 132.72 171.312 
L 136.44 171.312 
L 136.44 167.616 
L 132.72 167.616 
L 132.72 171.312 
" clip-path="url(#p26a46aebb4)" style="fill: none; stroke: #2c7ef7"/>
    <path d="M 136.44 171.312 
L 140.16 171.312 
L 140.16 167.616 
L 136.44 167.616 
L 136.44 171.312 
" clip-path="url(#p26a46aebb4)" style="fill: none; stroke: #2c7ef7"/>
    <path d="M 140.16 171.312 
L 143.88 171.312 
L 143.88 167.616 
L 140.16 167.616 
L 140.16 171.312 
" clip-path="url(#p26a46aebb4)" style="fill: none; stroke: #2981f6"/>
    <path d="M 143.88 171.312 
L 147.6 171.312 
L 147.6 167.616 
L 143.88 167.616 
L 143.88 171.312 
" clip-path="url(#p26a46aebb4)" style="fill: none; stroke: #2884f6"/>
    <path d="M 147.6 171.312 
L 151.32 171.312 
L 151.32 167.616 
L 147.6 167.616 
L 147.6 171.312 
" clip-path="url(#p26a46aebb4)" style="fill: none; stroke: #2884f6"/>
    <path d="M 151.32 171.312 
L 155.04 171.312 
L 155.04 167.616 
L 151.32 167.616 
L 151.32 171.312 
" clip-path="url(#p26a46aebb4)" style="fill: none; stroke: #2686f5"/>
    <path d="M 155.04 171.312 
L 158.76 171.312 
L 158.76 167.616 
L 155.04 167.616 
L 155.04 171.312 
" clip-path="url(#p26a46aebb4)" style="fill: none; stroke: #2489f5"/>
    <path d="M 158.76 171.312 
L 162.48 171.312 
L 162.48 167.616 
L 158.76 167.616 
L 158.76 171.312 
" clip-path="url(#p26a46aebb4)" style="fill: none; stroke: #2489f5"/>
    <path d="M 162.48 171.312 
L 166.2 171.312 
L 166.2 167.616 
L 162.48 167.616 
L 162.48 171.312 
" clip-path="url(#p26a46aebb4)" style="fill: none; stroke: #218cf4"/>
    <path d="M 166.2 171.312 
L 169.92 171.312 
L 169.92 167.616 
L 166.2 167.616 
L 166.2 171.312 
" clip-path="url(#p26a46aebb4)" style="fill: none; stroke: #208ef4"/>
    <path d="M 169.92 171.312 
L 173.64 171.312 
L 173.64 167.616 
L 169.92 167.616 
L 169.92 171.312 
" clip-path="url(#p26a46aebb4)" style="fill: none; stroke: #208ef4"/>
    <path d="M 173.64 171.312 
L 177.36 171.312 
L 177.36 167.616 
L 173.64 167.616 
L 173.64 171.312 
" clip-path="url(#p26a46aebb4)" style="fill: none; stroke: #1e91f3"/>
    <path d="M 177.36 171.312 
L 181.08 171.312 
L 181.08 167.616 
L 177.36 167.616 
L 177.36 171.312 
" clip-path="url(#p26a46aebb4)" style="fill: none; stroke: #1c93f3"/>
    <path d="M 181.08 171.312 
L 184.8 171.312 
L 184.8 167.616 
L 181.08 167.616 
L 181.08 171.312 
" clip-path="url(#p26a46aebb4)" style="fill: none; stroke: #1c93f3"/>
    <path d="M 110.4 167.616 
L 114.12 167.616 
L 114.12 163.92 
L 110.4 163.92 
L 110.4 167.616 
" clip-path="url(#p26a46aebb4)" style="fill: none; stroke: #1996f3"/>
    <path d="M 114.12 167.616 
L 117.84 167.616 
L 117.84 163.92 
L 114.12 163.92 
L 114.12 167.616 
" clip-path="url(#p26a46aebb4)" style="fill: none; stroke: #1996f3"/>
    <path d="M 117.84 167.616 
L 121.56 167.616 
L 121.56 163.92 
L 117.84 163.92 
L 117.84 167.616 
" clip-path="url(#p26a46aebb4)" style="fill: none; stroke: #1898f2"/>
    <path d="M 121.56 167.616 
L 125.28 167.616 
L 125.28 163.92 
L 121.56 163.92 
L 121.56 167.616 
" clip-path="url(#p26a46aebb4)" style="fill: none; stroke: #169bf2"/>
    <path d="M 125.28 167.616 
L 129 167.616 
L 129 163.92 
L 125.28 163.92 
L 125.28 167.616 
" clip-path="url(#p26a46aebb4)" style="fill: none; stroke: #169bf2"/>
    <path d="M 129 167.616 
L 132.72 167.616 
L 132.72 163.92 
L 129 163.92 
L 129 167.616 
" clip-path="url(#p26a46aebb4)" style="fill: none; stroke: #149df1"/>
    <path d="M 132.72 167.616 
L 136.44 167.616 
L 136.44 163.92 
L 132.72 163.92 
L 132.72 167.616 
" clip-path="url(#p26a46aebb4)" style="fill: none; stroke: #11a0f1"/>
    <path d="M 136.44 167.616 
L 140.16 167.616 
L 140.16 163.92 
L 136.44 163.92 
L 136.44 167.616 
" clip-path="url(#p26a46aebb4)" style="fill: none; stroke: #11a0f1"/>
    <path d="M 140.16 167.616 
L 143.88 167.616 
L 143.88 163.92 
L 140.16 163.92 
L 140.16 167.616 
" clip-path="url(#p26a46aebb4)" style="fill: none; stroke: #10a2f0"/>
    <path d="M 143.88 167.616 
L 147.6 167.616 
L 147.6 163.92 
L 143.88 163.92 
L 143.88 167.616 
" clip-path="url(#p26a46aebb4)" style="fill: none; stroke: #0ea5ef"/>
    <path d="M 147.6 167.616 
L 151.32 167.616 
L 151.32 163.92 
L 147.6 163.92 
L 147.6 167.616 
" clip-path="url(#p26a46aebb4)" style="fill: none; stroke: #0ea5ef"/>
    <path d="M 151.32 167.616 
L 155.04 167.616 
L 155.04 163.92 
L 151.32 163.92 
L 151.32 167.616 
" clip-path="url(#p26a46aebb4)" style="fill: none; stroke: #0ca7ef"/>
    <path d="M 155.04 167.616 
L 158.76 167.616 
L 158.76 163.92 
L 155.04 163.92 
L 155.04 167.616 
" clip-path="url(#p26a46aebb4)" style="fill: none; stroke: #09a9ee"/>
    <path d="M 158.76 167.616 
L 162.48 167.616 
L 162.48 163.92 
L 158.76 163.92 
L 158.76 167.616 
" clip-path="url(#p26a46aebb4)" style="fill: none; stroke: #09a9ee"/>
    <path d="M 162.48 167.616 
L 166.2 167.616 
L 166.2 163.92 
L 162.48 163.92 
L 162.48 167.616 
" clip-path="url(#p26a46aebb4)" style="fill: none; stroke: #08acee"/>
    <path d="M 166.2 167.616 
L 169.92 167.616 
L 169.92 163.92 
L 166.2 163.92 
L 166.2 167.616 
" clip-path="url(#p26a46aebb4)" style="fill: none; stroke: #08acee"/>
    <path d="M 169.92 167.616 
L 173.64 167.616 
L 173.64 163.92 
L 169.92 163.92 
L 169.92 167.616 
" clip-path="url(#p26a46aebb4)" style="fill: none; stroke: #06aeed"/>
    <path d="M 173.64 167.616 
L 177.36 167.616 
L 177.36 163.92 
L 173.64 163.92 
L 173.64 167.616 
" clip-path="url(#p26a46aebb4)" style="fill: none; stroke: #04b0ed"/>
    <path d="M 177.36 167.616 
L 181.08 167.616 
L 181.08 163.92 
L 177.36 163.92 
L 177.36 167.616 
" clip-path="url(#p26a46aebb4)" style="fill: none; stroke: #04b0ed"/>
    <path d="M 181.08 167.616 
L 184.8 167.616 
L 184.8 163.92 
L 181.08 163.92 
L 181.08 167.616 
" clip-path="url(#p26a46aebb4)" style="fill: none; stroke: #01b3ec"/>
    <path d="M 110.4 163.92 
L 114.12 163.92 
L 114.12 160.224 
L 110.4 160.224 
L 110.4 163.92 
" clip-path="url(#p26a46aebb4)" style="fill: none; stroke: #00b5eb"/>
    <path d="M 114.12 163.92 
L 117.84 163.92 
L 117.84 160.224 
L 114.12 160.224 
L 114.12 163.92 
" clip-path="url(#p26a46aebb4)" style="fill: none; stroke: #00b5eb"/>
    <path d="M 117.84 163.92 
L 121.56 163.92 
L 121.56 160.224 
L 117.84 160.224 
L 117.84 163.92 
" clip-path="url(#p26a46aebb4)" style="fill: none; stroke: #02b7eb"/>
    <path d="M 121.56 163.92 
L 125.28 163.92 
L 125.28 160.224 
L 121.56 160.224 
L 121.56 163.92 
" clip-path="url(#p26a46aebb4)" style="fill: none; stroke: #04b9ea"/>
    <path d="M 125.28 163.92 
L 129 163.92 
L 129 160.224 
L 125.28 160.224 
L 125.28 163.92 
" clip-path="url(#p26a46aebb4)" style="fill: none; stroke: #04b9ea"/>
    <path d="M 129 163.92 
L 132.72 163.92 
L 132.72 160.224 
L 129 160.224 
L 129 163.92 
" clip-path="url(#p26a46aebb4)" style="fill: none; stroke: #07bbea"/>
    <path d="M 132.72 163.92 
L 136.44 163.92 
L 136.44 160.224 
L 132.72 160.224 
L 132.72 163.92 
" clip-path="url(#p26a46aebb4)" style="fill: none; stroke: #08bee9"/>
    <path d="M 136.44 163.92 
L 140.16 163.92 
L 140.16 160.224 
L 136.44 160.224 
L 136.44 163.92 
" clip-path="url(#p26a46aebb4)" style="fill: none; stroke: #08bee9"/>
    <path d="M 140.16 163.92 
L 143.88 163.92 
L 143.88 160.224 
L 140.16 160.224 
L 140.16 163.92 
" clip-path="url(#p26a46aebb4)" style="fill: none; stroke: #0ac0e8"/>
    <path d="M 143.88 163.92 
L 147.6 163.92 
L 147.6 160.224 
L 143.88 160.224 
L 143.88 163.92 
" clip-path="url(#p26a46aebb4)" style="fill: none; stroke: #0ac0e8"/>
    <path d="M 147.6 163.92 
L 151.32 163.92 
L 151.32 160.224 
L 147.6 160.224 
L 147.6 163.92 
" clip-path="url(#p26a46aebb4)" style="fill: none; stroke: #0dc2e8"/>
    <path d="M 151.32 163.92 
L 155.04 163.92 
L 155.04 160.224 
L 151.32 160.224 
L 151.32 163.92 
" clip-path="url(#p26a46aebb4)" style="fill: none; stroke: #0fc4e7"/>
    <path d="M 155.04 163.92 
L 158.76 163.92 
L 158.76 160.224 
L 155.04 160.224 
L 155.04 163.92 
" clip-path="url(#p26a46aebb4)" style="fill: none; stroke: #0fc4e7"/>
    <path d="M 158.76 163.92 
L 162.48 163.92 
L 162.48 160.224 
L 158.76 160.224 
L 158.76 163.92 
" clip-path="url(#p26a46aebb4)" style="fill: none; stroke: #10c6e6"/>
    <path d="M 162.48 163.92 
L 166.2 163.92 
L 166.2 160.224 
L 162.48 160.224 
L 162.48 163.92 
" clip-path="url(#p26a46aebb4)" style="fill: none; stroke: #12c8e6"/>
    <path d="M 166.2 163.92 
L 169.92 163.92 
L 169.92 160.224 
L 166.2 160.224 
L 166.2 163.92 
" clip-path="url(#p26a46aebb4)" style="fill: none; stroke: #12c8e6"/>
    <path d="M 169.92 163.92 
L 173.64 163.92 
L 173.64 160.224 
L 169.92 160.224 
L 169.92 163.92 
" clip-path="url(#p26a46aebb4)" style="fill: none; stroke: #14cae5"/>
    <path d="M 173.64 163.92 
L 177.36 163.92 
L 177.36 160.224 
L 173.64 160.224 
L 173.64 163.92 
" clip-path="url(#p26a46aebb4)" style="fill: none; stroke: #17cbe4"/>
    <path d="M 177.36 163.92 
L 181.08 163.92 
L 181.08 160.224 
L 177.36 160.224 
L 177.36 163.92 
" clip-path="url(#p26a46aebb4)" style="fill: none; stroke: #17cbe4"/>
    <path d="M 181.08 163.92 
L 184.8 163.92 
L 184.8 160.224 
L 181.08 160.224 
L 181.08 163.92 
" clip-path="url(#p26a46aebb4)" style="fill: none; stroke: #18cde4"/>
    <path d="M 110.4 160.224 
L 114.12 160.224 
L 114.12 156.528 
L 110.4 156.528 
L 110.4 160.224 
" clip-path="url(#p26a46aebb4)" style="fill: none; stroke: #18cde4"/>
    <path d="M 114.12 160.224 
L 117.84 160.224 
L 117.84 156.528 
L 114.12 156.528 
L 114.12 160.224 
" clip-path="url(#p26a46aebb4)" style="fill: none; stroke: #1acfe3"/>
    <path d="M 117.84 160.224 
L 121.56 160.224 
L 121.56 156.528 
L 117.84 156.528 
L 117.84 160.224 
" clip-path="url(#p26a46aebb4)" style="fill: none; stroke: #1dd1e2"/>
    <path d="M 121.56 160.224 
L 125.28 160.224 
L 125.28 156.528 
L 121.56 156.528 
L 121.56 160.224 
" clip-path="url(#p26a46aebb4)" style="fill: none; stroke: #1dd1e2"/>
    <path d="M 125.28 160.224 
L 129 160.224 
L 129 156.528 
L 125.28 156.528 
L 125.28 160.224 
" clip-path="url(#p26a46aebb4)" style="fill: none; stroke: #1fd3e1"/>
    <path d="M 129 160.224 
L 132.72 160.224 
L 132.72 156.528 
L 129 156.528 
L 129 160.224 
" clip-path="url(#p26a46aebb4)" style="fill: none; stroke: #20d5e1"/>
    <path d="M 132.72 160.224 
L 136.44 160.224 
L 136.44 156.528 
L 132.72 156.528 
L 132.72 160.224 
" clip-path="url(#p26a46aebb4)" style="fill: none; stroke: #20d5e1"/>
    <path d="M 136.44 160.224 
L 140.16 160.224 
L 140.16 156.528 
L 136.44 156.528 
L 136.44 160.224 
" clip-path="url(#p26a46aebb4)" style="fill: none; stroke: #22d6e0"/>
    <path d="M 140.16 160.224 
L 143.88 160.224 
L 143.88 156.528 
L 140.16 156.528 
L 140.16 160.224 
" clip-path="url(#p26a46aebb4)" style="fill: none; stroke: #24d8df"/>
    <path d="M 143.88 160.224 
L 147.6 160.224 
L 147.6 156.528 
L 143.88 156.528 
L 143.88 160.224 
" clip-path="url(#p26a46aebb4)" style="fill: none; stroke: #24d8df"/>
    <path d="M 147.6 160.224 
L 151.32 160.224 
L 151.32 156.528 
L 147.6 156.528 
L 147.6 160.224 
" clip-path="url(#p26a46aebb4)" style="fill: none; stroke: #27dade"/>
    <path d="M 151.32 160.224 
L 155.04 160.224 
L 155.04 156.528 
L 151.32 156.528 
L 151.32 160.224 
" clip-path="url(#p26a46aebb4)" style="fill: none; stroke: #28dbde"/>
    <path d="M 155.04 160.224 
L 158.76 160.224 
L 158.76 156.528 
L 155.04 156.528 
L 155.04 160.224 
" clip-path="url(#p26a46aebb4)" style="fill: none; stroke: #28dbde"/>
    <path d="M 158.76 160.224 
L 162.48 160.224 
L 162.48 156.528 
L 158.76 156.528 
L 158.76 160.224 
" clip-path="url(#p26a46aebb4)" style="fill: none; stroke: #2adddd"/>
    <path d="M 162.48 160.224 
L 166.2 160.224 
L 166.2 156.528 
L 162.48 156.528 
L 162.48 160.224 
" clip-path="url(#p26a46aebb4)" style="fill: none; stroke: #2adddd"/>
    <path d="M 166.2 160.224 
L 169.92 160.224 
L 169.92 156.528 
L 166.2 156.528 
L 166.2 160.224 
" clip-path="url(#p26a46aebb4)" style="fill: none; stroke: #2ddedc"/>
    <path d="M 169.92 160.224 
L 173.64 160.224 
L 173.64 156.528 
L 169.92 156.528 
L 169.92 160.224 
" clip-path="url(#p26a46aebb4)" style="fill: none; stroke: #2fe0db"/>
    <path d="M 173.64 160.224 
L 177.36 160.224 
L 177.36 156.528 
L 173.64 156.528 
L 173.64 160.224 
" clip-path="url(#p26a46aebb4)" style="fill: none; stroke: #2fe0db"/>
    <path d="M 177.36 160.224 
L 181.08 160.224 
L 181.08 156.528 
L 177.36 156.528 
L 177.36 160.224 
" clip-path="url(#p26a46aebb4)" style="fill: none; stroke: #30e1da"/>
    <path d="M 181.08 160.224 
L 184.8 160.224 
L 184.8 156.528 
L 181.08 156.528 
L 181.08 160.224 
" clip-path="url(#p26a46aebb4)" style="fill: none; stroke: #32e3da"/>
    <path d="M 110.4 156.528 
L 114.12 156.528 
L 114.12 152.832 
L 110.4 152.832 
L 110.4 156.528 
" clip-path="url(#p26a46aebb4)" style="fill: none; stroke: #32e3da"/>
    <path d="M 114.12 156.528 
L 117.84 156.528 
L 117.84 152.832 
L 114.12 152.832 
L 114.12 156.528 
" clip-path="url(#p26a46aebb4)" style="fill: none; stroke: #34e4d9"/>
    <path d="M 117.84 156.528 
L 121.56 156.528 
L 121.56 152.832 
L 117.84 152.832 
L 117.84 156.528 
" clip-path="url(#p26a46aebb4)" style="fill: none; stroke: #37e6d8"/>
    <path d="M 121.56 156.528 
L 125.28 156.528 
L 125.28 152.832 
L 121.56 152.832 
L 121.56 156.528 
" clip-path="url(#p26a46aebb4)" style="fill: none; stroke: #37e6d8"/>
    <path d="M 125.28 156.528 
L 129 156.528 
L 129 152.832 
L 125.28 152.832 
L 125.28 156.528 
" clip-path="url(#p26a46aebb4)" style="fill: none; stroke: #38e7d7"/>
    <path d="M 129 156.528 
L 132.72 156.528 
L 132.72 152.832 
L 129 152.832 
L 129 156.528 
" clip-path="url(#p26a46aebb4)" style="fill: none; stroke: #3ae8d6"/>
    <path d="M 132.72 156.528 
L 136.44 156.528 
L 136.44 152.832 
L 132.72 152.832 
L 132.72 156.528 
" clip-path="url(#p26a46aebb4)" style="fill: none; stroke: #3ae8d6"/>
    <path d="M 136.44 156.528 
L 140.16 156.528 
L 140.16 152.832 
L 136.44 152.832 
L 136.44 156.528 
" clip-path="url(#p26a46aebb4)" style="fill: none; stroke: #3dead5"/>
    <path d="M 140.16 156.528 
L 143.88 156.528 
L 143.88 152.832 
L 140.16 152.832 
L 140.16 156.528 
" clip-path="url(#p26a46aebb4)" style="fill: none; stroke: #3dead5"/>
    <path d="M 143.88 156.528 
L 147.6 156.528 
L 147.6 152.832 
L 143.88 152.832 
L 143.88 156.528 
" clip-path="url(#p26a46aebb4)" style="fill: none; stroke: #3febd5"/>
    <path d="M 147.6 156.528 
L 151.32 156.528 
L 151.32 152.832 
L 147.6 152.832 
L 147.6 156.528 
" clip-path="url(#p26a46aebb4)" style="fill: none; stroke: #40ecd4"/>
    <path d="M 151.32 156.528 
L 155.04 156.528 
L 155.04 152.832 
L 151.32 152.832 
L 151.32 156.528 
" clip-path="url(#p26a46aebb4)" style="fill: none; stroke: #40ecd4"/>
    <path d="M 155.04 156.528 
L 158.76 156.528 
L 158.76 152.832 
L 155.04 152.832 
L 155.04 156.528 
" clip-path="url(#p26a46aebb4)" style="fill: none; stroke: #42edd3"/>
    <path d="M 158.76 156.528 
L 162.48 156.528 
L 162.48 152.832 
L 158.76 152.832 
L 158.76 156.528 
" clip-path="url(#p26a46aebb4)" style="fill: none; stroke: #44eed2"/>
    <path d="M 162.48 156.528 
L 166.2 156.528 
L 166.2 152.832 
L 162.48 152.832 
L 162.48 156.528 
" clip-path="url(#p26a46aebb4)" style="fill: none; stroke: #44eed2"/>
    <path d="M 166.2 156.528 
L 169.92 156.528 
L 169.92 152.832 
L 166.2 152.832 
L 166.2 156.528 
" clip-path="url(#p26a46aebb4)" style="fill: none; stroke: #46efd1"/>
    <path d="M 169.92 156.528 
L 173.64 156.528 
L 173.64 152.832 
L 169.92 152.832 
L 169.92 156.528 
" clip-path="url(#p26a46aebb4)" style="fill: none; stroke: #48f1d0"/>
    <path d="M 173.64 156.528 
L 177.36 156.528 
L 177.36 152.832 
L 173.64 152.832 
L 173.64 156.528 
" clip-path="url(#p26a46aebb4)" style="fill: none; stroke: #48f1d0"/>
    <path d="M 177.36 156.528 
L 181.08 156.528 
L 181.08 152.832 
L 177.36 152.832 
L 177.36 156.528 
" clip-path="url(#p26a46aebb4)" style="fill: none; stroke: #4af2cf"/>
    <path d="M 181.08 156.528 
L 184.8 156.528 
L 184.8 152.832 
L 181.08 152.832 
L 181.08 156.528 
" clip-path="url(#p26a46aebb4)" style="fill: none; stroke: #4df3ce"/>
    <path d="M 110.4 152.832 
L 114.12 152.832 
L 114.12 149.136 
L 110.4 149.136 
L 110.4 152.832 
" clip-path="url(#p26a46aebb4)" style="fill: none; stroke: #4df3ce"/>
    <path d="M 114.12 152.832 
L 117.84 152.832 
L 117.84 149.136 
L 114.12 149.136 
L 114.12 152.832 
" clip-path="url(#p26a46aebb4)" style="fill: none; stroke: #4ef3cd"/>
    <path d="M 117.84 152.832 
L 121.56 152.832 
L 121.56 149.136 
L 117.84 149.136 
L 117.84 152.832 
" clip-path="url(#p26a46aebb4)" style="fill: none; stroke: #4ef3cd"/>
    <path d="M 121.56 152.832 
L 125.28 152.832 
L 125.28 149.136 
L 121.56 149.136 
L 121.56 152.832 
" clip-path="url(#p26a46aebb4)" style="fill: none; stroke: #50f4cc"/>
    <path d="M 125.28 152.832 
L 129 152.832 
L 129 149.136 
L 125.28 149.136 
L 125.28 152.832 
" clip-path="url(#p26a46aebb4)" style="fill: none; stroke: #52f5cb"/>
    <path d="M 129 152.832 
L 132.72 152.832 
L 132.72 149.136 
L 129 149.136 
L 129 152.832 
" clip-path="url(#p26a46aebb4)" style="fill: none; stroke: #52f5cb"/>
    <path d="M 132.72 152.832 
L 136.44 152.832 
L 136.44 149.136 
L 132.72 149.136 
L 132.72 152.832 
" clip-path="url(#p26a46aebb4)" style="fill: none; stroke: #54f6cb"/>
    <path d="M 136.44 152.832 
L 140.16 152.832 
L 140.16 149.136 
L 136.44 149.136 
L 136.44 152.832 
" clip-path="url(#p26a46aebb4)" style="fill: none; stroke: #56f7ca"/>
    <path d="M 140.16 152.832 
L 143.88 152.832 
L 143.88 149.136 
L 140.16 149.136 
L 140.16 152.832 
" clip-path="url(#p26a46aebb4)" style="fill: none; stroke: #56f7ca"/>
    <path d="M 143.88 152.832 
L 147.6 152.832 
L 147.6 149.136 
L 143.88 149.136 
L 143.88 152.832 
" clip-path="url(#p26a46aebb4)" style="fill: none; stroke: #58f8c9"/>
    <path d="M 147.6 152.832 
L 151.32 152.832 
L 151.32 149.136 
L 147.6 149.136 
L 147.6 152.832 
" clip-path="url(#p26a46aebb4)" style="fill: none; stroke: #5af8c8"/>
    <path d="M 151.32 152.832 
L 155.04 152.832 
L 155.04 149.136 
L 151.32 149.136 
L 151.32 152.832 
" clip-path="url(#p26a46aebb4)" style="fill: none; stroke: #5af8c8"/>
    <path d="M 155.04 152.832 
L 158.76 152.832 
L 158.76 149.136 
L 155.04 149.136 
L 155.04 152.832 
" clip-path="url(#p26a46aebb4)" style="fill: none; stroke: #5df9c7"/>
    <path d="M 158.76 152.832 
L 162.48 152.832 
L 162.48 149.136 
L 158.76 149.136 
L 158.76 152.832 
" clip-path="url(#p26a46aebb4)" style="fill: none; stroke: #5df9c7"/>
    <path d="M 162.48 152.832 
L 166.2 152.832 
L 166.2 149.136 
L 162.48 149.136 
L 162.48 152.832 
" clip-path="url(#p26a46aebb4)" style="fill: none; stroke: #5efac6"/>
    <path d="M 166.2 152.832 
L 169.92 152.832 
L 169.92 149.136 
L 166.2 149.136 
L 166.2 152.832 
" clip-path="url(#p26a46aebb4)" style="fill: none; stroke: #60fac5"/>
    <path d="M 169.92 152.832 
L 173.64 152.832 
L 173.64 149.136 
L 169.92 149.136 
L 169.92 152.832 
" clip-path="url(#p26a46aebb4)" style="fill: none; stroke: #60fac5"/>
    <path d="M 173.64 152.832 
L 177.36 152.832 
L 177.36 149.136 
L 173.64 149.136 
L 173.64 152.832 
" clip-path="url(#p26a46aebb4)" style="fill: none; stroke: #62fbc4"/>
    <path d="M 177.36 152.832 
L 181.08 152.832 
L 181.08 149.136 
L 177.36 149.136 
L 177.36 152.832 
" clip-path="url(#p26a46aebb4)" style="fill: none; stroke: #64fbc3"/>
    <path d="M 181.08 152.832 
L 184.8 152.832 
L 184.8 149.136 
L 181.08 149.136 
L 181.08 152.832 
" clip-path="url(#p26a46aebb4)" style="fill: none; stroke: #64fbc3"/>
    <path d="M 110.4 149.136 
L 114.12 149.136 
L 114.12 145.44 
L 110.4 145.44 
L 110.4 149.136 
" clip-path="url(#p26a46aebb4)" style="fill: none; stroke: #66fcc2"/>
    <path d="M 114.12 149.136 
L 117.84 149.136 
L 117.84 145.44 
L 114.12 145.44 
L 114.12 149.136 
" clip-path="url(#p26a46aebb4)" style="fill: none; stroke: #68fcc1"/>
    <path d="M 117.84 149.136 
L 121.56 149.136 
L 121.56 145.44 
L 117.84 145.44 
L 117.84 149.136 
" clip-path="url(#p26a46aebb4)" style="fill: none; stroke: #68fcc1"/>
    <path d="M 121.56 149.136 
L 125.28 149.136 
L 125.28 145.44 
L 121.56 145.44 
L 121.56 149.136 
" clip-path="url(#p26a46aebb4)" style="fill: none; stroke: #6afdc0"/>
    <path d="M 125.28 149.136 
L 129 149.136 
L 129 145.44 
L 125.28 145.44 
L 125.28 149.136 
" clip-path="url(#p26a46aebb4)" style="fill: none; stroke: #6dfdbf"/>
    <path d="M 129 149.136 
L 132.72 149.136 
L 132.72 145.44 
L 129 145.44 
L 129 149.136 
" clip-path="url(#p26a46aebb4)" style="fill: none; stroke: #6dfdbf"/>
    <path d="M 132.72 149.136 
L 136.44 149.136 
L 136.44 145.44 
L 132.72 145.44 
L 132.72 149.136 
" clip-path="url(#p26a46aebb4)" style="fill: none; stroke: #6efebe"/>
    <path d="M 136.44 149.136 
L 140.16 149.136 
L 140.16 145.44 
L 136.44 145.44 
L 136.44 149.136 
" clip-path="url(#p26a46aebb4)" style="fill: none; stroke: #6efebe"/>
    <path d="M 140.16 149.136 
L 143.88 149.136 
L 143.88 145.44 
L 140.16 145.44 
L 140.16 149.136 
" clip-path="url(#p26a46aebb4)" style="fill: none; stroke: #70febc"/>
    <path d="M 143.88 149.136 
L 147.6 149.136 
L 147.6 145.44 
L 143.88 145.44 
L 143.88 149.136 
" clip-path="url(#p26a46aebb4)" style="fill: none; stroke: #72febb"/>
    <path d="M 147.6 149.136 
L 151.32 149.136 
L 151.32 145.44 
L 147.6 145.44 
L 147.6 149.136 
" clip-path="url(#p26a46aebb4)" style="fill: none; stroke: #72febb"/>
    <path d="M 151.32 149.136 
L 155.04 149.136 
L 155.04 145.44 
L 151.32 145.44 
L 151.32 149.136 
" clip-path="url(#p26a46aebb4)" style="fill: none; stroke: #74feba"/>
    <path d="M 155.04 149.136 
L 158.76 149.136 
L 158.76 145.44 
L 155.04 145.44 
L 155.04 149.136 
" clip-path="url(#p26a46aebb4)" style="fill: none; stroke: #76ffb9"/>
    <path d="M 158.76 149.136 
L 162.48 149.136 
L 162.48 145.44 
L 158.76 145.44 
L 158.76 149.136 
" clip-path="url(#p26a46aebb4)" style="fill: none; stroke: #76ffb9"/>
    <path d="M 162.48 149.136 
L 166.2 149.136 
L 166.2 145.44 
L 162.48 145.44 
L 162.48 149.136 
" clip-path="url(#p26a46aebb4)" style="fill: none; stroke: #78ffb8"/>
    <path d="M 166.2 149.136 
L 169.92 149.136 
L 169.92 145.44 
L 166.2 145.44 
L 166.2 149.136 
" clip-path="url(#p26a46aebb4)" style="fill: none; stroke: #7affb7"/>
    <path d="M 169.92 149.136 
L 173.64 149.136 
L 173.64 145.44 
L 169.92 145.44 
L 169.92 149.136 
" clip-path="url(#p26a46aebb4)" style="fill: none; stroke: #7affb7"/>
    <path d="M 173.64 149.136 
L 177.36 149.136 
L 177.36 145.44 
L 173.64 145.44 
L 173.64 149.136 
" clip-path="url(#p26a46aebb4)" style="fill: none; stroke: #7dffb6"/>
    <path d="M 177.36 149.136 
L 181.08 149.136 
L 181.08 145.44 
L 177.36 145.44 
L 177.36 149.136 
" clip-path="url(#p26a46aebb4)" style="fill: none; stroke: #7effb5"/>
    <path d="M 181.08 149.136 
L 184.8 149.136 
L 184.8 145.44 
L 181.08 145.44 
L 181.08 149.136 
" clip-path="url(#p26a46aebb4)" style="fill: none; stroke: #7effb5"/>
    <path d="M 110.4 145.44 
L 114.12 145.44 
L 114.12 141.744 
L 110.4 141.744 
L 110.4 145.44 
" clip-path="url(#p26a46aebb4)" style="fill: none; stroke: #80ffb4"/>
    <path d="M 114.12 145.44 
L 117.84 145.44 
L 117.84 141.744 
L 114.12 141.744 
L 114.12 145.44 
" clip-path="url(#p26a46aebb4)" style="fill: none; stroke: #80ffb4"/>
    <path d="M 117.84 145.44 
L 121.56 145.44 
L 121.56 141.744 
L 117.84 141.744 
L 117.84 145.44 
" clip-path="url(#p26a46aebb4)" style="fill: none; stroke: #82ffb3"/>
    <path d="M 121.56 145.44 
L 125.28 145.44 
L 125.28 141.744 
L 121.56 141.744 
L 121.56 145.44 
" clip-path="url(#p26a46aebb4)" style="fill: none; stroke: #84ffb2"/>
    <path d="M 125.28 145.44 
L 129 145.44 
L 129 141.744 
L 125.28 141.744 
L 125.28 145.44 
" clip-path="url(#p26a46aebb4)" style="fill: none; stroke: #84ffb2"/>
    <path d="M 129 145.44 
L 132.72 145.44 
L 132.72 141.744 
L 129 141.744 
L 129 145.44 
" clip-path="url(#p26a46aebb4)" style="fill: none; stroke: #86ffb0"/>
    <path d="M 132.72 145.44 
L 136.44 145.44 
L 136.44 141.744 
L 132.72 141.744 
L 132.72 145.44 
" clip-path="url(#p26a46aebb4)" style="fill: none; stroke: #88ffaf"/>
    <path d="M 136.44 145.44 
L 140.16 145.44 
L 140.16 141.744 
L 136.44 141.744 
L 136.44 145.44 
" clip-path="url(#p26a46aebb4)" style="fill: none; stroke: #88ffaf"/>
    <path d="M 140.16 145.44 
L 143.88 145.44 
L 143.88 141.744 
L 140.16 141.744 
L 140.16 145.44 
" clip-path="url(#p26a46aebb4)" style="fill: none; stroke: #8bfeae"/>
    <path d="M 143.88 145.44 
L 147.6 145.44 
L 147.6 141.744 
L 143.88 141.744 
L 143.88 145.44 
" clip-path="url(#p26a46aebb4)" style="fill: none; stroke: #8cfead"/>
    <path d="M 147.6 145.44 
L 151.32 145.44 
L 151.32 141.744 
L 147.6 141.744 
L 147.6 145.44 
" clip-path="url(#p26a46aebb4)" style="fill: none; stroke: #8cfead"/>
    <path d="M 151.32 145.44 
L 155.04 145.44 
L 155.04 141.744 
L 151.32 141.744 
L 151.32 145.44 
" clip-path="url(#p26a46aebb4)" style="fill: none; stroke: #8efeac"/>
    <path d="M 155.04 145.44 
L 158.76 145.44 
L 158.76 141.744 
L 155.04 141.744 
L 155.04 145.44 
" clip-path="url(#p26a46aebb4)" style="fill: none; stroke: #90feab"/>
    <path d="M 158.76 145.44 
L 162.48 145.44 
L 162.48 141.744 
L 158.76 141.744 
L 158.76 145.44 
" clip-path="url(#p26a46aebb4)" style="fill: none; stroke: #90feab"/>
    <path d="M 162.48 145.44 
L 166.2 145.44 
L 166.2 141.744 
L 162.48 141.744 
L 162.48 145.44 
" clip-path="url(#p26a46aebb4)" style="fill: none; stroke: #92fda9"/>
    <path d="M 166.2 145.44 
L 169.92 145.44 
L 169.92 141.744 
L 166.2 141.744 
L 166.2 145.44 
" clip-path="url(#p26a46aebb4)" style="fill: none; stroke: #92fda9"/>
    <path d="M 169.92 145.44 
L 173.64 145.44 
L 173.64 141.744 
L 169.92 141.744 
L 169.92 145.44 
" clip-path="url(#p26a46aebb4)" style="fill: none; stroke: #94fda8"/>
    <path d="M 173.64 145.44 
L 177.36 145.44 
L 177.36 141.744 
L 173.64 141.744 
L 173.64 145.44 
" clip-path="url(#p26a46aebb4)" style="fill: none; stroke: #96fca7"/>
    <path d="M 177.36 145.44 
L 181.08 145.44 
L 181.08 141.744 
L 177.36 141.744 
L 177.36 145.44 
" clip-path="url(#p26a46aebb4)" style="fill: none; stroke: #96fca7"/>
    <path d="M 181.08 145.44 
L 184.8 145.44 
L 184.8 141.744 
L 181.08 141.744 
L 181.08 145.44 
" clip-path="url(#p26a46aebb4)" style="fill: none; stroke: #99fca6"/>
    <path d="M 110.4 141.744 
L 114.12 141.744 
L 114.12 138.048 
L 110.4 138.048 
L 110.4 141.744 
" clip-path="url(#p26a46aebb4)" style="fill: none; stroke: #9bfba5"/>
    <path d="M 114.12 141.744 
L 117.84 141.744 
L 117.84 138.048 
L 114.12 138.048 
L 114.12 141.744 
" clip-path="url(#p26a46aebb4)" style="fill: none; stroke: #9bfba5"/>
    <path d="M 117.84 141.744 
L 121.56 141.744 
L 121.56 138.048 
L 117.84 138.048 
L 117.84 141.744 
" clip-path="url(#p26a46aebb4)" style="fill: none; stroke: #9cfba4"/>
    <path d="M 121.56 141.744 
L 125.28 141.744 
L 125.28 138.048 
L 121.56 138.048 
L 121.56 141.744 
" clip-path="url(#p26a46aebb4)" style="fill: none; stroke: #9efaa2"/>
    <path d="M 125.28 141.744 
L 129 141.744 
L 129 138.048 
L 125.28 138.048 
L 125.28 141.744 
" clip-path="url(#p26a46aebb4)" style="fill: none; stroke: #9efaa2"/>
    <path d="M 129 141.744 
L 132.72 141.744 
L 132.72 138.048 
L 129 138.048 
L 129 141.744 
" clip-path="url(#p26a46aebb4)" style="fill: none; stroke: #a0faa1"/>
    <path d="M 132.72 141.744 
L 136.44 141.744 
L 136.44 138.048 
L 132.72 138.048 
L 132.72 141.744 
" clip-path="url(#p26a46aebb4)" style="fill: none; stroke: #a2f9a0"/>
    <path d="M 136.44 141.744 
L 140.16 141.744 
L 140.16 138.048 
L 136.44 138.048 
L 136.44 141.744 
" clip-path="url(#p26a46aebb4)" style="fill: none; stroke: #a2f9a0"/>
    <path d="M 140.16 141.744 
L 143.88 141.744 
L 143.88 138.048 
L 140.16 138.048 
L 140.16 141.744 
" clip-path="url(#p26a46aebb4)" style="fill: none; stroke: #a4f89f"/>
    <path d="M 143.88 141.744 
L 147.6 141.744 
L 147.6 138.048 
L 143.88 138.048 
L 143.88 141.744 
" clip-path="url(#p26a46aebb4)" style="fill: none; stroke: #a4f89f"/>
    <path d="M 147.6 141.744 
L 151.32 141.744 
L 151.32 138.048 
L 147.6 138.048 
L 147.6 141.744 
" clip-path="url(#p26a46aebb4)" style="fill: none; stroke: #a6f89d"/>
    <path d="M 151.32 141.744 
L 155.04 141.744 
L 155.04 138.048 
L 151.32 138.048 
L 151.32 141.744 
" clip-path="url(#p26a46aebb4)" style="fill: none; stroke: #a8f79c"/>
    <path d="M 155.04 141.744 
L 158.76 141.744 
L 158.76 138.048 
L 155.04 138.048 
L 155.04 141.744 
" clip-path="url(#p26a46aebb4)" style="fill: none; stroke: #a8f79c"/>
    <path d="M 158.76 141.744 
L 162.48 141.744 
L 162.48 138.048 
L 158.76 138.048 
L 158.76 141.744 
" clip-path="url(#p26a46aebb4)" style="fill: none; stroke: #abf69b"/>
    <path d="M 162.48 141.744 
L 166.2 141.744 
L 166.2 138.048 
L 162.48 138.048 
L 162.48 141.744 
" clip-path="url(#p26a46aebb4)" style="fill: none; stroke: #acf59a"/>
    <path d="M 166.2 141.744 
L 169.92 141.744 
L 169.92 138.048 
L 166.2 138.048 
L 166.2 141.744 
" clip-path="url(#p26a46aebb4)" style="fill: none; stroke: #acf59a"/>
    <path d="M 169.92 141.744 
L 173.64 141.744 
L 173.64 138.048 
L 169.92 138.048 
L 169.92 141.744 
" clip-path="url(#p26a46aebb4)" style="fill: none; stroke: #aef498"/>
    <path d="M 173.64 141.744 
L 177.36 141.744 
L 177.36 138.048 
L 173.64 138.048 
L 173.64 141.744 
" clip-path="url(#p26a46aebb4)" style="fill: none; stroke: #b0f397"/>
    <path d="M 177.36 141.744 
L 181.08 141.744 
L 181.08 138.048 
L 177.36 138.048 
L 177.36 141.744 
" clip-path="url(#p26a46aebb4)" style="fill: none; stroke: #b0f397"/>
    <path d="M 181.08 141.744 
L 184.8 141.744 
L 184.8 138.048 
L 181.08 138.048 
L 181.08 141.744 
" clip-path="url(#p26a46aebb4)" style="fill: none; stroke: #b2f396"/>
    <path d="M 110.4 138.048 
L 114.12 138.048 
L 114.12 134.352 
L 110.4 134.352 
L 110.4 138.048 
" clip-path="url(#p26a46aebb4)" style="fill: none; stroke: #b2f396"/>
    <path d="M 114.12 138.048 
L 117.84 138.048 
L 117.84 134.352 
L 114.12 134.352 
L 114.12 138.048 
" clip-path="url(#p26a46aebb4)" style="fill: none; stroke: #b4f295"/>
    <path d="M 117.84 138.048 
L 121.56 138.048 
L 121.56 134.352 
L 117.84 134.352 
L 117.84 138.048 
" clip-path="url(#p26a46aebb4)" style="fill: none; stroke: #b6f193"/>
    <path d="M 121.56 138.048 
L 125.28 138.048 
L 125.28 134.352 
L 121.56 134.352 
L 121.56 138.048 
" clip-path="url(#p26a46aebb4)" style="fill: none; stroke: #b6f193"/>
    <path d="M 125.28 138.048 
L 129 138.048 
L 129 134.352 
L 125.28 134.352 
L 125.28 138.048 
" clip-path="url(#p26a46aebb4)" style="fill: none; stroke: #b9ef92"/>
    <path d="M 129 138.048 
L 132.72 138.048 
L 132.72 134.352 
L 129 134.352 
L 129 138.048 
" clip-path="url(#p26a46aebb4)" style="fill: none; stroke: #bbee91"/>
    <path d="M 132.72 138.048 
L 136.44 138.048 
L 136.44 134.352 
L 132.72 134.352 
L 132.72 138.048 
" clip-path="url(#p26a46aebb4)" style="fill: none; stroke: #bbee91"/>
    <path d="M 136.44 138.048 
L 140.16 138.048 
L 140.16 134.352 
L 136.44 134.352 
L 136.44 138.048 
" clip-path="url(#p26a46aebb4)" style="fill: none; stroke: #bced8f"/>
    <path d="M 140.16 138.048 
L 143.88 138.048 
L 143.88 134.352 
L 140.16 134.352 
L 140.16 138.048 
" clip-path="url(#p26a46aebb4)" style="fill: none; stroke: #beec8e"/>
    <path d="M 143.88 138.048 
L 147.6 138.048 
L 147.6 134.352 
L 143.88 134.352 
L 143.88 138.048 
" clip-path="url(#p26a46aebb4)" style="fill: none; stroke: #beec8e"/>
    <path d="M 147.6 138.048 
L 151.32 138.048 
L 151.32 134.352 
L 147.6 134.352 
L 147.6 138.048 
" clip-path="url(#p26a46aebb4)" style="fill: none; stroke: #c0eb8d"/>
    <path d="M 151.32 138.048 
L 155.04 138.048 
L 155.04 134.352 
L 151.32 134.352 
L 151.32 138.048 
" clip-path="url(#p26a46aebb4)" style="fill: none; stroke: #c2ea8c"/>
    <path d="M 155.04 138.048 
L 158.76 138.048 
L 158.76 134.352 
L 155.04 134.352 
L 155.04 138.048 
" clip-path="url(#p26a46aebb4)" style="fill: none; stroke: #c2ea8c"/>
    <path d="M 158.76 138.048 
L 162.48 138.048 
L 162.48 134.352 
L 158.76 134.352 
L 158.76 138.048 
" clip-path="url(#p26a46aebb4)" style="fill: none; stroke: #c4e88a"/>
    <path d="M 162.48 138.048 
L 166.2 138.048 
L 166.2 134.352 
L 162.48 134.352 
L 162.48 138.048 
" clip-path="url(#p26a46aebb4)" style="fill: none; stroke: #c4e88a"/>
    <path d="M 166.2 138.048 
L 169.92 138.048 
L 169.92 134.352 
L 166.2 134.352 
L 166.2 138.048 
" clip-path="url(#p26a46aebb4)" style="fill: none; stroke: #c6e789"/>
    <path d="M 169.92 138.048 
L 173.64 138.048 
L 173.64 134.352 
L 169.92 134.352 
L 169.92 138.048 
" clip-path="url(#p26a46aebb4)" style="fill: none; stroke: #c8e688"/>
    <path d="M 173.64 138.048 
L 177.36 138.048 
L 177.36 134.352 
L 173.64 134.352 
L 173.64 138.048 
" clip-path="url(#p26a46aebb4)" style="fill: none; stroke: #c8e688"/>
    <path d="M 177.36 138.048 
L 181.08 138.048 
L 181.08 134.352 
L 177.36 134.352 
L 177.36 138.048 
" clip-path="url(#p26a46aebb4)" style="fill: none; stroke: #cbe486"/>
    <path d="M 181.08 138.048 
L 184.8 138.048 
L 184.8 134.352 
L 181.08 134.352 
L 181.08 138.048 
" clip-path="url(#p26a46aebb4)" style="fill: none; stroke: #cce385"/>
    <path d="M 110.4 134.352 
L 114.12 134.352 
L 114.12 130.656 
L 110.4 130.656 
L 110.4 134.352 
" clip-path="url(#p26a46aebb4)" style="fill: none; stroke: #cce385"/>
    <path d="M 114.12 134.352 
L 117.84 134.352 
L 117.84 130.656 
L 114.12 130.656 
L 114.12 134.352 
" clip-path="url(#p26a46aebb4)" style="fill: none; stroke: #cee184"/>
    <path d="M 117.84 134.352 
L 121.56 134.352 
L 121.56 130.656 
L 117.84 130.656 
L 117.84 134.352 
" clip-path="url(#p26a46aebb4)" style="fill: none; stroke: #d0e082"/>
    <path d="M 121.56 134.352 
L 125.28 134.352 
L 125.28 130.656 
L 121.56 130.656 
L 121.56 134.352 
" clip-path="url(#p26a46aebb4)" style="fill: none; stroke: #d0e082"/>
    <path d="M 125.28 134.352 
L 129 134.352 
L 129 130.656 
L 125.28 130.656 
L 125.28 134.352 
" clip-path="url(#p26a46aebb4)" style="fill: none; stroke: #d2de81"/>
    <path d="M 129 134.352 
L 132.72 134.352 
L 132.72 130.656 
L 129 130.656 
L 129 134.352 
" clip-path="url(#p26a46aebb4)" style="fill: none; stroke: #d4dd80"/>
    <path d="M 132.72 134.352 
L 136.44 134.352 
L 136.44 130.656 
L 132.72 130.656 
L 132.72 134.352 
" clip-path="url(#p26a46aebb4)" style="fill: none; stroke: #d4dd80"/>
    <path d="M 136.44 134.352 
L 140.16 134.352 
L 140.16 130.656 
L 136.44 130.656 
L 136.44 134.352 
" clip-path="url(#p26a46aebb4)" style="fill: none; stroke: #d6db7e"/>
    <path d="M 140.16 134.352 
L 143.88 134.352 
L 143.88 130.656 
L 140.16 130.656 
L 140.16 134.352 
" clip-path="url(#p26a46aebb4)" style="fill: none; stroke: #d6db7e"/>
    <path d="M 143.88 134.352 
L 147.6 134.352 
L 147.6 130.656 
L 143.88 130.656 
L 143.88 134.352 
" clip-path="url(#p26a46aebb4)" style="fill: none; stroke: #d9da7d"/>
    <path d="M 147.6 134.352 
L 151.32 134.352 
L 151.32 130.656 
L 147.6 130.656 
L 147.6 134.352 
" clip-path="url(#p26a46aebb4)" style="fill: none; stroke: #dbd87b"/>
    <path d="M 151.32 134.352 
L 155.04 134.352 
L 155.04 130.656 
L 151.32 130.656 
L 151.32 134.352 
" clip-path="url(#p26a46aebb4)" style="fill: none; stroke: #dbd87b"/>
    <path d="M 155.04 134.352 
L 158.76 134.352 
L 158.76 130.656 
L 155.04 130.656 
L 155.04 134.352 
" clip-path="url(#p26a46aebb4)" style="fill: none; stroke: #dcd67a"/>
    <path d="M 158.76 134.352 
L 162.48 134.352 
L 162.48 130.656 
L 158.76 130.656 
L 158.76 134.352 
" clip-path="url(#p26a46aebb4)" style="fill: none; stroke: #ded579"/>
    <path d="M 162.48 134.352 
L 166.2 134.352 
L 166.2 130.656 
L 162.48 130.656 
L 162.48 134.352 
" clip-path="url(#p26a46aebb4)" style="fill: none; stroke: #ded579"/>
    <path d="M 166.2 134.352 
L 169.92 134.352 
L 169.92 130.656 
L 166.2 130.656 
L 166.2 134.352 
" clip-path="url(#p26a46aebb4)" style="fill: none; stroke: #e0d377"/>
    <path d="M 169.92 134.352 
L 173.64 134.352 
L 173.64 130.656 
L 169.92 130.656 
L 169.92 134.352 
" clip-path="url(#p26a46aebb4)" style="fill: none; stroke: #e2d176"/>
    <path d="M 173.64 134.352 
L 177.36 134.352 
L 177.36 130.656 
L 173.64 130.656 
L 173.64 134.352 
" clip-path="url(#p26a46aebb4)" style="fill: none; stroke: #e2d176"/>
    <path d="M 177.36 134.352 
L 181.08 134.352 
L 181.08 130.656 
L 177.36 130.656 
L 177.36 134.352 
" clip-path="url(#p26a46aebb4)" style="fill: none; stroke: #e4cf74"/>
    <path d="M 181.08 134.352 
L 184.8 134.352 
L 184.8 130.656 
L 181.08 130.656 
L 181.08 134.352 
" clip-path="url(#p26a46aebb4)" style="fill: none; stroke: #e6cd73"/>
    <path d="M 110.4 130.656 
L 114.12 130.656 
L 114.12 126.96 
L 110.4 126.96 
L 110.4 130.656 
" clip-path="url(#p26a46aebb4)" style="fill: none; stroke: #e6cd73"/>
    <path d="M 114.12 130.656 
L 117.84 130.656 
L 117.84 126.96 
L 114.12 126.96 
L 114.12 130.656 
" clip-path="url(#p26a46aebb4)" style="fill: none; stroke: #e8cb72"/>
    <path d="M 117.84 130.656 
L 121.56 130.656 
L 121.56 126.96 
L 117.84 126.96 
L 117.84 130.656 
" clip-path="url(#p26a46aebb4)" style="fill: none; stroke: #e8cb72"/>
    <path d="M 121.56 130.656 
L 125.28 130.656 
L 125.28 126.96 
L 121.56 126.96 
L 121.56 130.656 
" clip-path="url(#p26a46aebb4)" style="fill: none; stroke: #ebca70"/>
    <path d="M 125.28 130.656 
L 129 130.656 
L 129 126.96 
L 125.28 126.96 
L 125.28 130.656 
" clip-path="url(#p26a46aebb4)" style="fill: none; stroke: #ecc86f"/>
    <path d="M 129 130.656 
L 132.72 130.656 
L 132.72 126.96 
L 129 126.96 
L 129 130.656 
" clip-path="url(#p26a46aebb4)" style="fill: none; stroke: #ecc86f"/>
    <path d="M 132.72 130.656 
L 136.44 130.656 
L 136.44 126.96 
L 132.72 126.96 
L 132.72 130.656 
" clip-path="url(#p26a46aebb4)" style="fill: none; stroke: #eec66d"/>
    <path d="M 136.44 130.656 
L 140.16 130.656 
L 140.16 126.96 
L 136.44 126.96 
L 136.44 130.656 
" clip-path="url(#p26a46aebb4)" style="fill: none; stroke: #f0c46c"/>
    <path d="M 140.16 130.656 
L 143.88 130.656 
L 143.88 126.96 
L 140.16 126.96 
L 140.16 130.656 
" clip-path="url(#p26a46aebb4)" style="fill: none; stroke: #f0c46c"/>
    <path d="M 143.88 130.656 
L 147.6 130.656 
L 147.6 126.96 
L 143.88 126.96 
L 143.88 130.656 
" clip-path="url(#p26a46aebb4)" style="fill: none; stroke: #f2c26b"/>
    <path d="M 147.6 130.656 
L 151.32 130.656 
L 151.32 126.96 
L 147.6 126.96 
L 147.6 130.656 
" clip-path="url(#p26a46aebb4)" style="fill: none; stroke: #f4c069"/>
    <path d="M 151.32 130.656 
L 155.04 130.656 
L 155.04 126.96 
L 151.32 126.96 
L 151.32 130.656 
" clip-path="url(#p26a46aebb4)" style="fill: none; stroke: #f4c069"/>
    <path d="M 155.04 130.656 
L 158.76 130.656 
L 158.76 126.96 
L 155.04 126.96 
L 155.04 130.656 
" clip-path="url(#p26a46aebb4)" style="fill: none; stroke: #f6be68"/>
    <path d="M 158.76 130.656 
L 162.48 130.656 
L 162.48 126.96 
L 158.76 126.96 
L 158.76 130.656 
" clip-path="url(#p26a46aebb4)" style="fill: none; stroke: #f6be68"/>
    <path d="M 162.48 130.656 
L 166.2 130.656 
L 166.2 126.96 
L 162.48 126.96 
L 162.48 130.656 
" clip-path="url(#p26a46aebb4)" style="fill: none; stroke: #f9bb66"/>
    <path d="M 166.2 130.656 
L 169.92 130.656 
L 169.92 126.96 
L 166.2 126.96 
L 166.2 130.656 
" clip-path="url(#p26a46aebb4)" style="fill: none; stroke: #fbb965"/>
    <path d="M 169.92 130.656 
L 173.64 130.656 
L 173.64 126.96 
L 169.92 126.96 
L 169.92 130.656 
" clip-path="url(#p26a46aebb4)" style="fill: none; stroke: #fbb965"/>
    <path d="M 173.64 130.656 
L 177.36 130.656 
L 177.36 126.96 
L 173.64 126.96 
L 173.64 130.656 
" clip-path="url(#p26a46aebb4)" style="fill: none; stroke: #fcb763"/>
    <path d="M 177.36 130.656 
L 181.08 130.656 
L 181.08 126.96 
L 177.36 126.96 
L 177.36 130.656 
" clip-path="url(#p26a46aebb4)" style="fill: none; stroke: #feb562"/>
    <path d="M 181.08 130.656 
L 184.8 130.656 
L 184.8 126.96 
L 181.08 126.96 
L 181.08 130.656 
" clip-path="url(#p26a46aebb4)" style="fill: none; stroke: #feb562"/>
    <path d="M 110.4 126.96 
L 114.12 126.96 
L 114.12 123.264 
L 110.4 123.264 
L 110.4 126.96 
" clip-path="url(#p26a46aebb4)" style="fill: none; stroke: #ffb360"/>
    <path d="M 114.12 126.96 
L 117.84 126.96 
L 117.84 123.264 
L 114.12 123.264 
L 114.12 126.96 
" clip-path="url(#p26a46aebb4)" style="fill: none; stroke: #ffb05f"/>
    <path d="M 117.84 126.96 
L 121.56 126.96 
L 121.56 123.264 
L 117.84 123.264 
L 117.84 126.96 
" clip-path="url(#p26a46aebb4)" style="fill: none; stroke: #ffb05f"/>
    <path d="M 121.56 126.96 
L 125.28 126.96 
L 125.28 123.264 
L 121.56 123.264 
L 121.56 126.96 
" clip-path="url(#p26a46aebb4)" style="fill: none; stroke: #ffae5e"/>
    <path d="M 125.28 126.96 
L 129 126.96 
L 129 123.264 
L 125.28 123.264 
L 125.28 126.96 
" clip-path="url(#p26a46aebb4)" style="fill: none; stroke: #ffac5c"/>
    <path d="M 129 126.96 
L 132.72 126.96 
L 132.72 123.264 
L 129 123.264 
L 129 126.96 
" clip-path="url(#p26a46aebb4)" style="fill: none; stroke: #ffac5c"/>
    <path d="M 132.72 126.96 
L 136.44 126.96 
L 136.44 123.264 
L 132.72 123.264 
L 132.72 126.96 
" clip-path="url(#p26a46aebb4)" style="fill: none; stroke: #ffa95b"/>
    <path d="M 136.44 126.96 
L 140.16 126.96 
L 140.16 123.264 
L 136.44 123.264 
L 136.44 126.96 
" clip-path="url(#p26a46aebb4)" style="fill: none; stroke: #ffa95b"/>
    <path d="M 140.16 126.96 
L 143.88 126.96 
L 143.88 123.264 
L 140.16 123.264 
L 140.16 126.96 
" clip-path="url(#p26a46aebb4)" style="fill: none; stroke: #ffa759"/>
    <path d="M 143.88 126.96 
L 147.6 126.96 
L 147.6 123.264 
L 143.88 123.264 
L 143.88 126.96 
" clip-path="url(#p26a46aebb4)" style="fill: none; stroke: #ffa558"/>
    <path d="M 147.6 126.96 
L 151.32 126.96 
L 151.32 123.264 
L 147.6 123.264 
L 147.6 126.96 
" clip-path="url(#p26a46aebb4)" style="fill: none; stroke: #ffa558"/>
    <path d="M 151.32 126.96 
L 155.04 126.96 
L 155.04 123.264 
L 151.32 123.264 
L 151.32 126.96 
" clip-path="url(#p26a46aebb4)" style="fill: none; stroke: #ffa256"/>
    <path d="M 155.04 126.96 
L 158.76 126.96 
L 158.76 123.264 
L 155.04 123.264 
L 155.04 126.96 
" clip-path="url(#p26a46aebb4)" style="fill: none; stroke: #ffa055"/>
    <path d="M 158.76 126.96 
L 162.48 126.96 
L 162.48 123.264 
L 158.76 123.264 
L 158.76 126.96 
" clip-path="url(#p26a46aebb4)" style="fill: none; stroke: #ffa055"/>
    <path d="M 162.48 126.96 
L 166.2 126.96 
L 166.2 123.264 
L 162.48 123.264 
L 162.48 126.96 
" clip-path="url(#p26a46aebb4)" style="fill: none; stroke: #ff9d53"/>
    <path d="M 166.2 126.96 
L 169.92 126.96 
L 169.92 123.264 
L 166.2 123.264 
L 166.2 126.96 
" clip-path="url(#p26a46aebb4)" style="fill: none; stroke: #ff9b52"/>
    <path d="M 169.92 126.96 
L 173.64 126.96 
L 173.64 123.264 
L 169.92 123.264 
L 169.92 126.96 
" clip-path="url(#p26a46aebb4)" style="fill: none; stroke: #ff9b52"/>
    <path d="M 173.64 126.96 
L 177.36 126.96 
L 177.36 123.264 
L 173.64 123.264 
L 173.64 126.96 
" clip-path="url(#p26a46aebb4)" style="fill: none; stroke: #ff9850"/>
    <path d="M 177.36 126.96 
L 181.08 126.96 
L 181.08 123.264 
L 177.36 123.264 
L 177.36 126.96 
" clip-path="url(#p26a46aebb4)" style="fill: none; stroke: #ff964f"/>
    <path d="M 181.08 126.96 
L 184.8 126.96 
L 184.8 123.264 
L 181.08 123.264 
L 181.08 126.96 
" clip-path="url(#p26a46aebb4)" style="fill: none; stroke: #ff964f"/>
    <path d="M 110.4 123.264 
L 114.12 123.264 
L 114.12 119.568 
L 110.4 119.568 
L 110.4 123.264 
" clip-path="url(#p26a46aebb4)" style="fill: none; stroke: #ff934d"/>
    <path d="M 114.12 123.264 
L 117.84 123.264 
L 117.84 119.568 
L 114.12 119.568 
L 114.12 123.264 
" clip-path="url(#p26a46aebb4)" style="fill: none; stroke: #ff934d"/>
    <path d="M 117.84 123.264 
L 121.56 123.264 
L 121.56 119.568 
L 117.84 119.568 
L 117.84 123.264 
" clip-path="url(#p26a46aebb4)" style="fill: none; stroke: #ff914c"/>
    <path d="M 121.56 123.264 
L 125.28 123.264 
L 125.28 119.568 
L 121.56 119.568 
L 121.56 123.264 
" clip-path="url(#p26a46aebb4)" style="fill: none; stroke: #ff8e4a"/>
    <path d="M 125.28 123.264 
L 129 123.264 
L 129 119.568 
L 125.28 119.568 
L 125.28 123.264 
" clip-path="url(#p26a46aebb4)" style="fill: none; stroke: #ff8e4a"/>
    <path d="M 129 123.264 
L 132.72 123.264 
L 132.72 119.568 
L 129 119.568 
L 129 123.264 
" clip-path="url(#p26a46aebb4)" style="fill: none; stroke: #ff8c49"/>
    <path d="M 132.72 123.264 
L 136.44 123.264 
L 136.44 119.568 
L 132.72 119.568 
L 132.72 123.264 
" clip-path="url(#p26a46aebb4)" style="fill: none; stroke: #ff8947"/>
    <path d="M 136.44 123.264 
L 140.16 123.264 
L 140.16 119.568 
L 136.44 119.568 
L 136.44 123.264 
" clip-path="url(#p26a46aebb4)" style="fill: none; stroke: #ff8947"/>
    <path d="M 140.16 123.264 
L 143.88 123.264 
L 143.88 119.568 
L 140.16 119.568 
L 140.16 123.264 
" clip-path="url(#p26a46aebb4)" style="fill: none; stroke: #ff8646"/>
    <path d="M 143.88 123.264 
L 147.6 123.264 
L 147.6 119.568 
L 143.88 119.568 
L 143.88 123.264 
" clip-path="url(#p26a46aebb4)" style="fill: none; stroke: #ff8444"/>
    <path d="M 147.6 123.264 
L 151.32 123.264 
L 151.32 119.568 
L 147.6 119.568 
L 147.6 123.264 
" clip-path="url(#p26a46aebb4)" style="fill: none; stroke: #ff8444"/>
    <path d="M 151.32 123.264 
L 155.04 123.264 
L 155.04 119.568 
L 151.32 119.568 
L 151.32 123.264 
" clip-path="url(#p26a46aebb4)" style="fill: none; stroke: #ff8143"/>
    <path d="M 155.04 123.264 
L 158.76 123.264 
L 158.76 119.568 
L 155.04 119.568 
L 155.04 123.264 
" clip-path="url(#p26a46aebb4)" style="fill: none; stroke: #ff7e41"/>
    <path d="M 158.76 123.264 
L 162.48 123.264 
L 162.48 119.568 
L 158.76 119.568 
L 158.76 123.264 
" clip-path="url(#p26a46aebb4)" style="fill: none; stroke: #ff7e41"/>
    <path d="M 162.48 123.264 
L 166.2 123.264 
L 166.2 119.568 
L 162.48 119.568 
L 162.48 123.264 
" clip-path="url(#p26a46aebb4)" style="fill: none; stroke: #ff7b40"/>
    <path d="M 166.2 123.264 
L 169.92 123.264 
L 169.92 119.568 
L 166.2 119.568 
L 166.2 123.264 
" clip-path="url(#p26a46aebb4)" style="fill: none; stroke: #ff7b40"/>
    <path d="M 169.92 123.264 
L 173.64 123.264 
L 173.64 119.568 
L 169.92 119.568 
L 169.92 123.264 
" clip-path="url(#p26a46aebb4)" style="fill: none; stroke: #ff793e"/>
    <path d="M 173.64 123.264 
L 177.36 123.264 
L 177.36 119.568 
L 173.64 119.568 
L 173.64 123.264 
" clip-path="url(#p26a46aebb4)" style="fill: none; stroke: #ff763d"/>
    <path d="M 177.36 123.264 
L 181.08 123.264 
L 181.08 119.568 
L 177.36 119.568 
L 177.36 123.264 
" clip-path="url(#p26a46aebb4)" style="fill: none; stroke: #ff763d"/>
    <path d="M 181.08 123.264 
L 184.8 123.264 
L 184.8 119.568 
L 181.08 119.568 
L 181.08 123.264 
" clip-path="url(#p26a46aebb4)" style="fill: none; stroke: #ff733b"/>
    <path d="M 110.4 119.568 
L 114.12 119.568 
L 114.12 115.872 
L 110.4 115.872 
L 110.4 119.568 
" clip-path="url(#p26a46aebb4)" style="fill: none; stroke: #ff703a"/>
    <path d="M 114.12 119.568 
L 117.84 119.568 
L 117.84 115.872 
L 114.12 115.872 
L 114.12 119.568 
" clip-path="url(#p26a46aebb4)" style="fill: none; stroke: #ff703a"/>
    <path d="M 117.84 119.568 
L 121.56 119.568 
L 121.56 115.872 
L 117.84 115.872 
L 117.84 119.568 
" clip-path="url(#p26a46aebb4)" style="fill: none; stroke: #ff6d38"/>
    <path d="M 121.56 119.568 
L 125.28 119.568 
L 125.28 115.872 
L 121.56 115.872 
L 121.56 119.568 
" clip-path="url(#p26a46aebb4)" style="fill: none; stroke: #ff6b37"/>
    <path d="M 125.28 119.568 
L 129 119.568 
L 129 115.872 
L 125.28 115.872 
L 125.28 119.568 
" clip-path="url(#p26a46aebb4)" style="fill: none; stroke: #ff6b37"/>
    <path d="M 129 119.568 
L 132.72 119.568 
L 132.72 115.872 
L 129 115.872 
L 129 119.568 
" clip-path="url(#p26a46aebb4)" style="fill: none; stroke: #ff6835"/>
    <path d="M 132.72 119.568 
L 136.44 119.568 
L 136.44 115.872 
L 132.72 115.872 
L 132.72 119.568 
" clip-path="url(#p26a46aebb4)" style="fill: none; stroke: #ff6835"/>
    <path d="M 136.44 119.568 
L 140.16 119.568 
L 140.16 115.872 
L 136.44 115.872 
L 136.44 119.568 
" clip-path="url(#p26a46aebb4)" style="fill: none; stroke: #ff6533"/>
    <path d="M 140.16 119.568 
L 143.88 119.568 
L 143.88 115.872 
L 140.16 115.872 
L 140.16 119.568 
" clip-path="url(#p26a46aebb4)" style="fill: none; stroke: #ff6232"/>
    <path d="M 143.88 119.568 
L 147.6 119.568 
L 147.6 115.872 
L 143.88 115.872 
L 143.88 119.568 
" clip-path="url(#p26a46aebb4)" style="fill: none; stroke: #ff6232"/>
    <path d="M 147.6 119.568 
L 151.32 119.568 
L 151.32 115.872 
L 147.6 115.872 
L 147.6 119.568 
" clip-path="url(#p26a46aebb4)" style="fill: none; stroke: #ff5f30"/>
    <path d="M 151.32 119.568 
L 155.04 119.568 
L 155.04 115.872 
L 151.32 115.872 
L 151.32 119.568 
" clip-path="url(#p26a46aebb4)" style="fill: none; stroke: #ff5c2f"/>
    <path d="M 155.04 119.568 
L 158.76 119.568 
L 158.76 115.872 
L 155.04 115.872 
L 155.04 119.568 
" clip-path="url(#p26a46aebb4)" style="fill: none; stroke: #ff5c2f"/>
    <path d="M 158.76 119.568 
L 162.48 119.568 
L 162.48 115.872 
L 158.76 115.872 
L 158.76 119.568 
" clip-path="url(#p26a46aebb4)" style="fill: none; stroke: #ff592d"/>
    <path d="M 162.48 119.568 
L 166.2 119.568 
L 166.2 115.872 
L 162.48 115.872 
L 162.48 119.568 
" clip-path="url(#p26a46aebb4)" style="fill: none; stroke: #ff562c"/>
    <path d="M 166.2 119.568 
L 169.92 119.568 
L 169.92 115.872 
L 166.2 115.872 
L 166.2 119.568 
" clip-path="url(#p26a46aebb4)" style="fill: none; stroke: #ff562c"/>
    <path d="M 169.92 119.568 
L 173.64 119.568 
L 173.64 115.872 
L 169.92 115.872 
L 169.92 119.568 
" clip-path="url(#p26a46aebb4)" style="fill: none; stroke: #ff532a"/>
    <path d="M 173.64 119.568 
L 177.36 119.568 
L 177.36 115.872 
L 173.64 115.872 
L 173.64 119.568 
" clip-path="url(#p26a46aebb4)" style="fill: none; stroke: #ff5029"/>
    <path d="M 177.36 119.568 
L 181.08 119.568 
L 181.08 115.872 
L 177.36 115.872 
L 177.36 119.568 
" clip-path="url(#p26a46aebb4)" style="fill: none; stroke: #ff5029"/>
    <path d="M 181.08 119.568 
L 184.8 119.568 
L 184.8 115.872 
L 181.08 115.872 
L 181.08 119.568 
" clip-path="url(#p26a46aebb4)" style="fill: none; stroke: #ff4d27"/>
    <path d="M 110.4 115.872 
L 114.12 115.872 
L 114.12 112.176 
L 110.4 112.176 
L 110.4 115.872 
" clip-path="url(#p26a46aebb4)" style="fill: none; stroke: #ff4d27"/>
    <path d="M 114.12 115.872 
L 117.84 115.872 
L 117.84 112.176 
L 114.12 112.176 
L 114.12 115.872 
" clip-path="url(#p26a46aebb4)" style="fill: none; stroke: #ff4a26"/>
    <path d="M 117.84 115.872 
L 121.56 115.872 
L 121.56 112.176 
L 117.84 112.176 
L 117.84 115.872 
" clip-path="url(#p26a46aebb4)" style="fill: none; stroke: #ff4724"/>
    <path d="M 121.56 115.872 
L 125.28 115.872 
L 125.28 112.176 
L 121.56 112.176 
L 121.56 115.872 
" clip-path="url(#p26a46aebb4)" style="fill: none; stroke: #ff4724"/>
    <path d="M 125.28 115.872 
L 129 115.872 
L 129 112.176 
L 125.28 112.176 
L 125.28 115.872 
" clip-path="url(#p26a46aebb4)" style="fill: none; stroke: #ff4422"/>
    <path d="M 129 115.872 
L 132.72 115.872 
L 132.72 112.176 
L 129 112.176 
L 129 115.872 
" clip-path="url(#p26a46aebb4)" style="fill: none; stroke: #ff4121"/>
    <path d="M 132.72 115.872 
L 136.44 115.872 
L 136.44 112.176 
L 132.72 112.176 
L 132.72 115.872 
" clip-path="url(#p26a46aebb4)" style="fill: none; stroke: #ff4121"/>
    <path d="M 136.44 115.872 
L 140.16 115.872 
L 140.16 112.176 
L 136.44 112.176 
L 136.44 115.872 
" clip-path="url(#p26a46aebb4)" style="fill: none; stroke: #ff3e1f"/>
    <path d="M 140.16 115.872 
L 143.88 115.872 
L 143.88 112.176 
L 140.16 112.176 
L 140.16 115.872 
" clip-path="url(#p26a46aebb4)" style="fill: none; stroke: #ff3b1e"/>
    <path d="M 143.88 115.872 
L 147.6 115.872 
L 147.6 112.176 
L 143.88 112.176 
L 143.88 115.872 
" clip-path="url(#p26a46aebb4)" style="fill: none; stroke: #ff3b1e"/>
    <path d="M 147.6 115.872 
L 151.32 115.872 
L 151.32 112.176 
L 147.6 112.176 
L 147.6 115.872 
" clip-path="url(#p26a46aebb4)" style="fill: none; stroke: #ff381c"/>
    <path d="M 151.32 115.872 
L 155.04 115.872 
L 155.04 112.176 
L 151.32 112.176 
L 151.32 115.872 
" clip-path="url(#p26a46aebb4)" style="fill: none; stroke: #ff351b"/>
    <path d="M 155.04 115.872 
L 158.76 115.872 
L 158.76 112.176 
L 155.04 112.176 
L 155.04 115.872 
" clip-path="url(#p26a46aebb4)" style="fill: none; stroke: #ff351b"/>
    <path d="M 158.76 115.872 
L 162.48 115.872 
L 162.48 112.176 
L 158.76 112.176 
L 158.76 115.872 
" clip-path="url(#p26a46aebb4)" style="fill: none; stroke: #ff3219"/>
    <path d="M 162.48 115.872 
L 166.2 115.872 
L 166.2 112.176 
L 162.48 112.176 
L 162.48 115.872 
" clip-path="url(#p26a46aebb4)" style="fill: none; stroke: #ff3219"/>
    <path d="M 166.2 115.872 
L 169.92 115.872 
L 169.92 112.176 
L 166.2 112.176 
L 166.2 115.872 
" clip-path="url(#p26a46aebb4)" style="fill: none; stroke: #ff2f18"/>
    <path d="M 169.92 115.872 
L 173.64 115.872 
L 173.64 112.176 
L 169.92 112.176 
L 169.92 115.872 
" clip-path="url(#p26a46aebb4)" style="fill: none; stroke: #ff2c16"/>
    <path d="M 173.64 115.872 
L 177.36 115.872 
L 177.36 112.176 
L 173.64 112.176 
L 173.64 115.872 
" clip-path="url(#p26a46aebb4)" style="fill: none; stroke: #ff2c16"/>
    <path d="M 177.36 115.872 
L 181.08 115.872 
L 181.08 112.176 
L 177.36 112.176 
L 177.36 115.872 
" clip-path="url(#p26a46aebb4)" style="fill: none; stroke: #ff2914"/>
    <path d="M 181.08 115.872 
L 184.8 115.872 
L 184.8 112.176 
L 181.08 112.176 
L 181.08 115.872 
" clip-path="url(#p26a46aebb4)" style="fill: none; stroke: #ff2613"/>
    <path d="M 110.4 112.176 
L 114.12 112.176 
L 114.12 108.48 
L 110.4 108.48 
L 110.4 112.176 
" clip-path="url(#p26a46aebb4)" style="fill: none; stroke: #ff2613"/>
    <path d="M 114.12 112.176 
L 117.84 112.176 
L 117.84 108.48 
L 114.12 108.48 
L 114.12 112.176 
" clip-path="url(#p26a46aebb4)" style="fill: none; stroke: #ff2211"/>
    <path d="M 117.84 112.176 
L 121.56 112.176 
L 121.56 108.48 
L 117.84 108.48 
L 117.84 112.176 
" clip-path="url(#p26a46aebb4)" style="fill: none; stroke: #ff1f10"/>
    <path d="M 121.56 112.176 
L 125.28 112.176 
L 125.28 108.48 
L 121.56 108.48 
L 121.56 112.176 
" clip-path="url(#p26a46aebb4)" style="fill: none; stroke: #ff1f10"/>
    <path d="M 125.28 112.176 
L 129 112.176 
L 129 108.48 
L 125.28 108.48 
L 125.28 112.176 
" clip-path="url(#p26a46aebb4)" style="fill: none; stroke: #ff1c0e"/>
    <path d="M 129 112.176 
L 132.72 112.176 
L 132.72 108.48 
L 129 108.48 
L 129 112.176 
" clip-path="url(#p26a46aebb4)" style="fill: none; stroke: #ff190d"/>
    <path d="M 132.72 112.176 
L 136.44 112.176 
L 136.44 108.48 
L 132.72 108.48 
L 132.72 112.176 
" clip-path="url(#p26a46aebb4)" style="fill: none; stroke: #ff190d"/>
    <path d="M 136.44 112.176 
L 140.16 112.176 
L 140.16 108.48 
L 136.44 108.48 
L 136.44 112.176 
" clip-path="url(#p26a46aebb4)" style="fill: none; stroke: #ff160b"/>
    <path d="M 140.16 112.176 
L 143.88 112.176 
L 143.88 108.48 
L 140.16 108.48 
L 140.16 112.176 
" clip-path="url(#p26a46aebb4)" style="fill: none; stroke: #ff160b"/>
    <path d="M 143.88 112.176 
L 147.6 112.176 
L 147.6 108.48 
L 143.88 108.48 
L 143.88 112.176 
" clip-path="url(#p26a46aebb4)" style="fill: none; stroke: #ff1309"/>
    <path d="M 147.6 112.176 
L 151.32 112.176 
L 151.32 108.48 
L 147.6 108.48 
L 147.6 112.176 
" clip-path="url(#p26a46aebb4)" style="fill: none; stroke: #ff1008"/>
    <path d="M 151.32 112.176 
L 155.04 112.176 
L 155.04 108.48 
L 151.32 108.48 
L 151.32 112.176 
" clip-path="url(#p26a46aebb4)" style="fill: none; stroke: #ff1008"/>
    <path d="M 155.04 112.176 
L 158.76 112.176 
L 158.76 108.48 
L 155.04 108.48 
L 155.04 112.176 
" clip-path="url(#p26a46aebb4)" style="fill: none; stroke: #ff0d06"/>
    <path d="M 158.76 112.176 
L 162.48 112.176 
L 162.48 108.48 
L 158.76 108.48 
L 158.76 112.176 
" clip-path="url(#p26a46aebb4)" style="fill: none; stroke: #ff0905"/>
    <path d="M 162.48 112.176 
L 166.2 112.176 
L 166.2 108.48 
L 162.48 108.48 
L 162.48 112.176 
" clip-path="url(#p26a46aebb4)" style="fill: none; stroke: #ff0905"/>
    <path d="M 166.2 112.176 
L 169.92 112.176 
L 169.92 108.48 
L 166.2 108.48 
L 166.2 112.176 
" clip-path="url(#p26a46aebb4)" style="fill: none; stroke: #ff0603"/>
    <path d="M 169.92 112.176 
L 173.64 112.176 
L 173.64 108.48 
L 169.92 108.48 
L 169.92 112.176 
" clip-path="url(#p26a46aebb4)" style="fill: none; stroke: #ff0302"/>
    <path d="M 173.64 112.176 
L 177.36 112.176 
L 177.36 108.48 
L 173.64 108.48 
L 173.64 112.176 
" clip-path="url(#p26a46aebb4)" style="fill: none; stroke: #ff0302"/>
    <path d="M 177.36 112.176 
L 181.08 112.176 
L 181.08 108.48 
L 177.36 108.48 
L 177.36 112.176 
" clip-path="url(#p26a46aebb4)" style="fill: none; stroke: #ff0000"/>
    <path d="M 181.08 112.176 
L 184.8 112.176 
L 184.8 108.48 
L 181.08 108.48 
L 181.08 112.176 
" clip-path="url(#p26a46aebb4)" style="fill: none; stroke: #ff0000"/>
   </g>
   <g id="matplotlib.axis_1">
    <g id="xtick_1">
     <g id="line2d_1">
      <defs>
       <path id="m2737b561ec" d="M 0 0 
L 0 3.5 
" style="stroke: #000000; stroke-width: 0.8"/>
      </defs>
      <g>
       <use xlink:href="#m2737b561ec" x="36" y="256.32" style="stroke: #000000; stroke-width: 0.8"/>
      </g>
     </g>
     <g id="text_1">
      <!-- −3 -->
      <g transform="translate(28.628906 270.918437) scale(0.1 -0.1)">
       <defs>
        <path id="DejaVuSans-2212" d="M 678 2272 
L 4684 2272 
L 4684 1741 
L 678 1741 
L 678 2272 
z
" transform="scale(0.015625)"/>
        <path id="DejaVuSans-33" d="M 2597 2516 
Q 3050 2419 3304 2112 
Q 3559 1806 3559 1356 
Q 3559 666 3084 287 
Q 2609 -91 1734 -91 
Q 1441 -91 1130 -33 
Q 819 25 488 141 
L 488 750 
Q 750 597 1062 519 
Q 1375 441 1716 441 
Q 2309 441 2620 675 
Q 2931 909 2931 1356 
Q 2931 1769 2642 2001 
Q 2353 2234 1838 2234 
L 1294 2234 
L 1294 2753 
L 1863 2753 
Q 2328 2753 2575 2939 
Q 2822 3125 2822 3475 
Q 2822 3834 2567 4026 
Q 2313 4219 1838 4219 
Q 1578 4219 1281 4162 
Q 984 4106 628 3988 
L 628 4550 
Q 988 4650 1302 4700 
Q 1616 4750 1894 4750 
Q 2613 4750 3031 4423 
Q 3450 4097 3450 3541 
Q 3450 3153 3228 2886 
Q 3006 2619 2597 2516 
z
" transform="scale(0.015625)"/>
       </defs>
       <use xlink:href="#DejaVuSans-2212"/>
       <use xlink:href="#DejaVuSans-33" transform="translate(83.789062 0)"/>
      </g>
     </g>
    </g>
    <g id="xtick_2">
     <g id="line2d_2">
      <g>
       <use xlink:href="#m2737b561ec" x="73.2" y="256.32" style="stroke: #000000; stroke-width: 0.8"/>
      </g>
     </g>
     <g id="text_2">
      <!-- −2 -->
      <g transform="translate(65.828906 270.918437) scale(0.1 -0.1)">
       <defs>
        <path id="DejaVuSans-32" d="M 1228 531 
L 3431 531 
L 3431 0 
L 469 0 
L 469 531 
Q 828 903 1448 1529 
Q 2069 2156 2228 2338 
Q 2531 2678 2651 2914 
Q 2772 3150 2772 3378 
Q 2772 3750 2511 3984 
Q 2250 4219 1831 4219 
Q 1534 4219 1204 4116 
Q 875 4013 500 3803 
L 500 4441 
Q 881 4594 1212 4672 
Q 1544 4750 1819 4750 
Q 2544 4750 2975 4387 
Q 3406 4025 3406 3419 
Q 3406 3131 3298 2873 
Q 3191 2616 2906 2266 
Q 2828 2175 2409 1742 
Q 1991 1309 1228 531 
z
" transform="scale(0.015625)"/>
       </defs>
       <use xlink:href="#DejaVuSans-2212"/>
       <use xlink:href="#DejaVuSans-32" transform="translate(83.789062 0)"/>
      </g>
     </g>
    </g>
    <g id="xtick_3">
     <g id="line2d_3">
      <g>
       <use xlink:href="#m2737b561ec" x="110.4" y="256.32" style="stroke: #000000; stroke-width: 0.8"/>
      </g>
     </g>
     <g id="text_3">
      <!-- −1 -->
      <g transform="translate(103.028906 270.918437) scale(0.1 -0.1)">
       <defs>
        <path id="DejaVuSans-31" d="M 794 531 
L 1825 531 
L 1825 4091 
L 703 3866 
L 703 4441 
L 1819 4666 
L 2450 4666 
L 2450 531 
L 3481 531 
L 3481 0 
L 794 0 
L 794 531 
z
" transform="scale(0.015625)"/>
       </defs>
       <use xlink:href="#DejaVuSans-2212"/>
       <use xlink:href="#DejaVuSans-31" transform="translate(83.789062 0)"/>
      </g>
     </g>
    </g>
    <g id="xtick_4">
     <g id="line2d_4">
      <g>
       <use xlink:href="#m2737b561ec" x="147.6" y="256.32" style="stroke: #000000; stroke-width: 0.8"/>
      </g>
     </g>
     <g id="text_4">
      <!-- 0 -->
      <g transform="translate(144.41875 270.918437) scale(0.1 -0.1)">
       <defs>
        <path id="DejaVuSans-30" d="M 2034 4250 
Q 1547 4250 1301 3770 
Q 1056 3291 1056 2328 
Q 1056 1369 1301 889 
Q 1547 409 2034 409 
Q 2525 409 2770 889 
Q 3016 1369 3016 2328 
Q 3016 3291 2770 3770 
Q 2525 4250 2034 4250 
z
M 2034 4750 
Q 2819 4750 3233 4129 
Q 3647 3509 3647 2328 
Q 3647 1150 3233 529 
Q 2819 -91 2034 -91 
Q 1250 -91 836 529 
Q 422 1150 422 2328 
Q 422 3509 836 4129 
Q 1250 4750 2034 4750 
z
" transform="scale(0.015625)"/>
       </defs>
       <use xlink:href="#DejaVuSans-30"/>
      </g>
     </g>
    </g>
    <g id="xtick_5">
     <g id="line2d_5">
      <g>
       <use xlink:href="#m2737b561ec" x="184.8" y="256.32" style="stroke: #000000; stroke-width: 0.8"/>
      </g>
     </g>
     <g id="text_5">
      <!-- 1 -->
      <g transform="translate(181.61875 270.918437) scale(0.1 -0.1)">
       <use xlink:href="#DejaVuSans-31"/>
      </g>
     </g>
    </g>
    <g id="xtick_6">
     <g id="line2d_6">
      <g>
       <use xlink:href="#m2737b561ec" x="222" y="256.32" style="stroke: #000000; stroke-width: 0.8"/>
      </g>
     </g>
     <g id="text_6">
      <!-- 2 -->
      <g transform="translate(218.81875 270.918437) scale(0.1 -0.1)">
       <use xlink:href="#DejaVuSans-32"/>
      </g>
     </g>
    </g>
    <g id="xtick_7">
     <g id="line2d_7">
      <g>
       <use xlink:href="#m2737b561ec" x="259.2" y="256.32" style="stroke: #000000; stroke-width: 0.8"/>
      </g>
     </g>
     <g id="text_7">
      <!-- 3 -->
      <g transform="translate(256.01875 270.918437) scale(0.1 -0.1)">
       <use xlink:href="#DejaVuSans-33"/>
      </g>
     </g>
    </g>
    <g id="xtick_8">
     <g id="line2d_8">
      <defs>
       <path id="m398f188d63" d="M 0 0 
L 0 2 
" style="stroke: #000000; stroke-width: 0.6"/>
      </defs>
      <g>
       <use xlink:href="#m398f188d63" x="43.44" y="256.32" style="stroke: #000000; stroke-width: 0.6"/>
      </g>
     </g>
    </g>
    <g id="xtick_9">
     <g id="line2d_9">
      <g>
       <use xlink:href="#m398f188d63" x="50.88" y="256.32" style="stroke: #000000; stroke-width: 0.6"/>
      </g>
     </g>
    </g>
    <g id="xtick_10">
     <g id="line2d_10">
      <g>
       <use xlink:href="#m398f188d63" x="58.32" y="256.32" style="stroke: #000000; stroke-width: 0.6"/>
      </g>
     </g>
    </g>
    <g id="xtick_11">
     <g id="line2d_11">
      <g>
       <use xlink:href="#m398f188d63" x="65.76" y="256.32" style="stroke: #000000; stroke-width: 0.6"/>
      </g>
     </g>
    </g>
    <g id="xtick_12">
     <g id="line2d_12">
      <g>
       <use xlink:href="#m398f188d63" x="80.64" y="256.32" style="stroke: #000000; stroke-width: 0.6"/>
      </g>
     </g>
    </g>
    <g id="xtick_13">
     <g id="line2d_13">
      <g>
       <use xlink:href="#m398f188d63" x="88.08" y="256.32" style="stroke: #000000; stroke-width: 0.6"/>
      </g>
     </g>
    </g>
    <g id="xtick_14">
     <g id="line2d_14">
      <g>
       <use xlink:href="#m398f188d63" x="95.52" y="256.32" style="stroke: #000000; stroke-width: 0.6"/>
      </g>
     </g>
    </g>
    <g id="xtick_15">
     <g id="line2d_15">
      <g>
       <use xlink:href="#m398f188d63" x="102.96" y="256.32" style="stroke: #000000; stroke-width: 0.6"/>
      </g>
     </g>
    </g>
    <g id="xtick_16">
     <g id="line2d_16">
      <g>
       <use xlink:href="#m398f188d63" x="117.84" y="256.32" style="stroke: #000000; stroke-width: 0.6"/>
      </g>
     </g>
    </g>
    <g id="xtick_17">
     <g id="line2d_17">
      <g>
       <use xlink:href="#m398f188d63" x="125.28" y="256.32" style="stroke: #000000; stroke-width: 0.6"/>
      </g>
     </g>
    </g>
    <g id="xtick_18">
     <g id="line2d_18">
      <g>
       <use xlink:href="#m398f188d63" x="132.72" y="256.32" style="stroke: #000000; stroke-width: 0.6"/>
      </g>
     </g>
    </g>
    <g id="xtick_19">
     <g id="line2d_19">
      <g>
       <use xlink:href="#m398f188d63" x="140.16" y="256.32" style="stroke: #000000; stroke-width: 0.6"/>
      </g>
     </g>
    </g>
    <g id="xtick_20">
     <g id="line2d_20">
      <g>
       <use xlink:href="#m398f188d63" x="155.04" y="256.32" style="stroke: #000000; stroke-width: 0.6"/>
      </g>
     </g>
    </g>
    <g id="xtick_21">
     <g id="line2d_21">
      <g>
       <use xlink:href="#m398f188d63" x="162.48" y="256.32" style="stroke: #000000; stroke-width: 0.6"/>
      </g>
     </g>
    </g>
    <g id="xtick_22">
     <g id="line2d_22">
      <g>
       <use xlink:href="#m398f188d63" x="169.92" y="256.32" style="stroke: #000000; stroke-width: 0.6"/>
      </g>
     </g>
    </g>
    <g id="xtick_23">
     <g id="line2d_23">
      <g>
       <use xlink:href="#m398f188d63" x="177.36" y="256.32" style="stroke: #000000; stroke-width: 0.6"/>
      </g>
     </g>
    </g>
    <g id="xtick_24">
     <g id="line2d_24">
      <g>
       <use xlink:href="#m398f188d63" x="192.24" y="256.32" style="stroke: #000000; stroke-width: 0.6"/>
      </g>
     </g>
    </g>
    <g id="xtick_25">
     <g id="line2d_25">
      <g>
       <use xlink:href="#m398f188d63" x="199.68" y="256.32" style="stroke: #000000; stroke-width: 0.6"/>
      </g>
     </g>
    </g>
    <g id="xtick_26">
     <g id="line2d_26">
      <g>
       <use xlink:href="#m398f188d63" x="207.12" y="256.32" style="stroke: #000000; stroke-width: 0.6"/>
      </g>
     </g>
    </g>
    <g id="xtick_27">
     <g id="line2d_27">
      <g>
       <use xlink:href="#m398f188d63" x="214.56" y="256.32" style="stroke: #000000; stroke-width: 0.6"/>
      </g>
     </g>
    </g>
    <g id="xtick_28">
     <g id="line2d_28">
      <g>
       <use xlink:href="#m398f188d63" x="229.44" y="256.32" style="stroke: #000000; stroke-width: 0.6"/>
      </g>
     </g>
    </g>
    <g id="xtick_29">
     <g id="line2d_29">
      <g>
       <use xlink:href="#m398f188d63" x="236.88" y="256.32" style="stroke: #000000; stroke-width: 0.6"/>
      </g>
     </g>
    </g>
    <g id="xtick_30">
     <g id="line2d_30">
      <g>
       <use xlink:href="#m398f188d63" x="244.32" y="256.32" style="stroke: #000000; stroke-width: 0.6"/>
      </g>
     </g>
    </g>
    <g id="xtick_31">
     <g id="line2d_31">
      <g>
       <use xlink:href="#m398f188d63" x="251.76" y="256.32" style="stroke: #000000; stroke-width: 0.6"/>
      </g>
     </g>
    </g>
   </g>
   <g id="matplotlib.axis_2">
    <g id="ytick_1">
     <g id="line2d_32">
      <defs>
       <path id="m9f41842f0f" d="M 0 0 
L -3.5 0 
" style="stroke: #000000; stroke-width: 0.8"/>
      </defs>
      <g>
       <use xlink:href="#m9f41842f0f" x="36" y="256.32" style="stroke: #000000; stroke-width: 0.8"/>
      </g>
     </g>
     <g id="text_8">
      <!-- −3 -->
      <g transform="translate(14.257812 260.119219) scale(0.1 -0.1)">
       <use xlink:href="#DejaVuSans-2212"/>
       <use xlink:href="#DejaVuSans-33" transform="translate(83.789062 0)"/>
      </g>
     </g>
    </g>
    <g id="ytick_2">
     <g id="line2d_33">
      <g>
       <use xlink:href="#m9f41842f0f" x="36" y="219.36" style="stroke: #000000; stroke-width: 0.8"/>
      </g>
     </g>
     <g id="text_9">
      <!-- −2 -->
      <g transform="translate(14.257812 223.159219) scale(0.1 -0.1)">
       <use xlink:href="#DejaVuSans-2212"/>
       <use xlink:href="#DejaVuSans-32" transform="translate(83.789062 0)"/>
      </g>
     </g>
    </g>
    <g id="ytick_3">
     <g id="line2d_34">
      <g>
       <use xlink:href="#m9f41842f0f" x="36" y="182.4" style="stroke: #000000; stroke-width: 0.8"/>
      </g>
     </g>
     <g id="text_10">
      <!-- −1 -->
      <g transform="translate(14.257812 186.199219) scale(0.1 -0.1)">
       <use xlink:href="#DejaVuSans-2212"/>
       <use xlink:href="#DejaVuSans-31" transform="translate(83.789062 0)"/>
      </g>
     </g>
    </g>
    <g id="ytick_4">
     <g id="line2d_35">
      <g>
       <use xlink:href="#m9f41842f0f" x="36" y="145.44" style="stroke: #000000; stroke-width: 0.8"/>
      </g>
     </g>
     <g id="text_11">
      <!-- 0 -->
      <g transform="translate(22.6375 149.239219) scale(0.1 -0.1)">
       <use xlink:href="#DejaVuSans-30"/>
      </g>
     </g>
    </g>
    <g id="ytick_5">
     <g id="line2d_36">
      <g>
       <use xlink:href="#m9f41842f0f" x="36" y="108.48" style="stroke: #000000; stroke-width: 0.8"/>
      </g>
     </g>
     <g id="text_12">
      <!-- 1 -->
      <g transform="translate(22.6375 112.279219) scale(0.1 -0.1)">
       <use xlink:href="#DejaVuSans-31"/>
      </g>
     </g>
    </g>
    <g id="ytick_6">
     <g id="line2d_37">
      <g>
       <use xlink:href="#m9f41842f0f" x="36" y="71.52" style="stroke: #000000; stroke-width: 0.8"/>
      </g>
     </g>
     <g id="text_13">
      <!-- 2 -->
      <g transform="translate(22.6375 75.319219) scale(0.1 -0.1)">
       <use xlink:href="#DejaVuSans-32"/>
      </g>
     </g>
    </g>
    <g id="ytick_7">
     <g id="line2d_38">
      <g>
       <use xlink:href="#m9f41842f0f" x="36" y="34.56" style="stroke: #000000; stroke-width: 0.8"/>
      </g>
     </g>
     <g id="text_14">
      <!-- 3 -->
      <g transform="translate(22.6375 38.359219) scale(0.1 -0.1)">
       <use xlink:href="#DejaVuSans-33"/>
      </g>
     </g>
    </g>
    <g id="ytick_8">
     <g id="line2d_39">
      <defs>
       <path id="m89e9070a53" d="M 0 0 
L -2 0 
" style="stroke: #000000; stroke-width: 0.6"/>
      </defs>
      <g>
       <use xlink:href="#m89e9070a53" x="36" y="248.928" style="stroke: #000000; stroke-width: 0.6"/>
      </g>
     </g>
    </g>
    <g id="ytick_9">
     <g id="line2d_40">
      <g>
       <use xlink:href="#m89e9070a53" x="36" y="241.536" style="stroke: #000000; stroke-width: 0.6"/>
      </g>
     </g>
    </g>
    <g id="ytick_10">
     <g id="line2d_41">
      <g>
       <use xlink:href="#m89e9070a53" x="36" y="234.144" style="stroke: #000000; stroke-width: 0.6"/>
      </g>
     </g>
    </g>
    <g id="ytick_11">
     <g id="line2d_42">
      <g>
       <use xlink:href="#m89e9070a53" x="36" y="226.752" style="stroke: #000000; stroke-width: 0.6"/>
      </g>
     </g>
    </g>
    <g id="ytick_12">
     <g id="line2d_43">
      <g>
       <use xlink:href="#m89e9070a53" x="36" y="211.968" style="stroke: #000000; stroke-width: 0.6"/>
      </g>
     </g>
    </g>
    <g id="ytick_13">
     <g id="line2d_44">
      <g>
       <use xlink:href="#m89e9070a53" x="36" y="204.576" style="stroke: #000000; stroke-width: 0.6"/>
      </g>
     </g>
    </g>
    <g id="ytick_14">
     <g id="line2d_45">
      <g>
       <use xlink:href="#m89e9070a53" x="36" y="197.184" style="stroke: #000000; stroke-width: 0.6"/>
      </g>
     </g>
    </g>
    <g id="ytick_15">
     <g id="line2d_46">
      <g>
       <use xlink:href="#m89e9070a53" x="36" y="189.792" style="stroke: #000000; stroke-width: 0.6"/>
      </g>
     </g>
    </g>
    <g id="ytick_16">
     <g id="line2d_47">
      <g>
       <use xlink:href="#m89e9070a53" x="36" y="175.008" style="stroke: #000000; stroke-width: 0.6"/>
      </g>
     </g>
    </g>
    <g id="ytick_17">
     <g id="line2d_48">
      <g>
       <use xlink:href="#m89e9070a53" x="36" y="167.616" style="stroke: #000000; stroke-width: 0.6"/>
      </g>
     </g>
    </g>
    <g id="ytick_18">
     <g id="line2d_49">
      <g>
       <use xlink:href="#m89e9070a53" x="36" y="160.224" style="stroke: #000000; stroke-width: 0.6"/>
      </g>
     </g>
    </g>
    <g id="ytick_19">
     <g id="line2d_50">
      <g>
       <use xlink:href="#m89e9070a53" x="36" y="152.832" style="stroke: #000000; stroke-width: 0.6"/>
      </g>
     </g>
    </g>
    <g id="ytick_20">
     <g id="line2d_51">
      <g>
       <use xlink:href="#m89e9070a53" x="36" y="138.048" style="stroke: #000000; stroke-width: 0.6"/>
      </g>
     </g>
    </g>
    <g id="ytick_21">
     <g id="line2d_52">
      <g>
       <use xlink:href="#m89e9070a53" x="36" y="130.656" style="stroke: #000000; stroke-width: 0.6"/>
      </g>
     </g>
    </g>
    <g id="ytick_22">
     <g id="line2d_53">
      <g>
       <use xlink:href="#m89e9070a53" x="36" y="123.264" style="stroke: #000000; stroke-width: 0.6"/>
      </g>
     </g>
    </g>
    <g id="ytick_23">
     <g id="line2d_54">
      <g>
       <use xlink:href="#m89e9070a53" x="36" y="115.872" style="stroke: #000000; stroke-width: 0.6"/>
      </g>
     </g>
    </g>
    <g id="ytick_24">
     <g id="line2d_55">
      <g>
       <use xlink:href="#m89e9070a53" x="36" y="101.088" style="stroke: #000000; stroke-width: 0.6"/>
      </g>
     </g>
    </g>
    <g id="ytick_25">
     <g id="line2d_56">
      <g>
       <use xlink:href="#m89e9070a53" x="36" y="93.696" style="stroke: #000000; stroke-width: 0.6"/>
      </g>
     </g>
    </g>
    <g id="ytick_26">
     <g id="line2d_57">
      <g>
       <use xlink:href="#m89e9070a53" x="36" y="86.304" style="stroke: #000000; stroke-width: 0.6"/>
      </g>
     </g>
    </g>
    <g id="ytick_27">
     <g id="line2d_58">
      <g>
       <use xlink:href="#m89e9070a53" x="36" y="78.912" style="stroke: #000000; stroke-width: 0.6"/>
      </g>
     </g>
    </g>
    <g id="ytick_28">
     <g id="line2d_59">
      <g>
       <use xlink:href="#m89e9070a53" x="36" y="64.128" style="stroke: #000000; stroke-width: 0.6"/>
      </g>
     </g>
    </g>
    <g id="ytick_29">
     <g id="line2d_60">
      <g>
       <use xlink:href="#m89e9070a53" x="36" y="56.736" style="stroke: #000000; stroke-width: 0.6"/>
      </g>
     </g>
    </g>
    <g id="ytick_30">
     <g id="line2d_61">
      <g>
       <use xlink:href="#m89e9070a53" x="36" y="49.344" style="stroke: #000000; stroke-width: 0.6"/>
      </g>
     </g>
    </g>
    <g id="ytick_31">
     <g id="line2d_62">
      <g>
       <use xlink:href="#m89e9070a53" x="36" y="41.952" style="stroke: #000000; stroke-width: 0.6"/>
      </g>
     </g>
    </g>
   </g>
   <g id="patch_3">
    <path d="M 36 256.32 
L 36 34.56 
" style="fill: none; stroke: #000000; stroke-width: 0.8; stroke-linejoin: miter; stroke-linecap: square"/>
   </g>
   <g id="patch_4">
    <path d="M 259.2 256.32 
L 259.2 34.56 
" style="fill: none; stroke: #000000; stroke-width: 0.8; stroke-linejoin: miter; stroke-linecap: square"/>
   </g>
   <g id="patch_5">
    <path d="M 36 256.32 
L 259.2 256.32 
" style="fill: none; stroke: #000000; stroke-width: 0.8; stroke-linejoin: miter; stroke-linecap: square"/>
   </g>
   <g id="patch_6">
    <path d="M 36 34.56 
L 259.2 34.56 
" style="fill: none; stroke: #000000; stroke-width: 0.8; stroke-linejoin: miter; stroke-linecap: square"/>
   </g>
  </g>
 </g>
 <defs>
  <clipPath id="p26a46aebb4">
   <rect x="36" y="34.56" width="223.2" height="221.76"/>
  </clipPath>
 </defs>
</svg>
