<?xml version="1.0" encoding="utf-8" standalone="no"?>
<!DOCTYPE svg PUBLIC "-//W3C//DTD SVG 1.1//EN"
  "http://www.w3.org/Graphics/SVG/1.1/DTD/svg11.dtd">
<svg xmlns:xlink="http://www.w3.org/1999/xlink" width="460.8pt" height="345.6pt" viewBox="0 0 460.8 345.6" xmlns="http://www.w3.org/2000/svg" version="1.1">
 <metadata>
  <rdf:RDF xmlns:dc="http://purl.org/dc/elements/1.1/" xmlns:cc="http://creativecommons.org/ns#" xmlns:rdf="http://www.w3.org/1999/02/22-rdf-syntax-ns#">
   <cc:Work>
    <dc:type rdf:resource="http://purl.org/dc/dcmitype/StillImage"/>
    <dc:date>2025-12-16T14:45:48.265849</dc:date>
    <dc:format>image/svg+xml</dc:format>
    <dc:creator>
     <cc:Agent>
      <dc:title>Matplotlib v3.10.6, https://matplotlib.org/</dc:title>
     </cc:Agent>
    </dc:creator>
   </cc:Work>
  </rdf:RDF>
 </metadata>
 <defs>
  <style type="text/css">*{stroke-linejoin: round; stroke-linecap: butt}</style>
 </defs>
 <g id="figure_1">
  <g id="patch_1">
   <path d="M 0 345.6 
L 460.8 345.6 
L 460.8 0 
L 0 0 
z
" style="fill: #ffffff"/>
  </g>
  <g id="patch_2">
   <path d="M 103.104 307.584 
L 369.216 307.584 
L 369.216 41.472 
L 103.104 41.472 
z
" style="fill: #ffffff"/>
  </g>
  <g id="pane3d_1">
   <g id="patch_3">
    <path d="M 347.853082 253.944876 
L 268.720605 185.41414 
L 268.720605 48.35267 
L 347.853082 116.883405 
" style="fill: #f2f2f2; opacity: 0.5; stroke: #f2f2f2; stroke-linejoin: miter"/>
   </g>
  </g>
  <g id="pane3d_2">
   <g id="patch_4">
    <path d="M 131.659134 224.980379 
L 268.720605 185.41414 
L 268.720605 48.35267 
L 131.659134 87.918908 
" style="fill: #e6e6e6; opacity: 0.5; stroke: #e6e6e6; stroke-linejoin: miter"/>
   </g>
  </g>
  <g id="pane3d_3">
   <g id="patch_5">
    <path d="M 210.791611 293.511114 
L 347.853082 253.944876 
L 268.720605 185.41414 
L 131.659134 224.980379 
" style="fill: #ececec; opacity: 0.5; stroke: #ececec; stroke-linejoin: miter"/>
   </g>
  </g>
  <g id="axis3d_1">
   <g id="line2d_1">
    <path d="M 347.853082 253.944876 
L 210.791611 293.511114 
" style="fill: none; stroke: #000000; stroke-width: 0.8; stroke-linecap: square"/>
   </g>
   <g id="text_1">
    <!-- x -->
    <g transform="translate(290.636506 313.571101) scale(0.1 -0.1)">
     <defs>
      <path id="DejaVuSans-78" d="M 3513 3500 
L 2247 1797 
L 3578 0 
L 2900 0 
L 1881 1375 
L 863 0 
L 184 0 
L 1544 1831 
L 300 3500 
L 978 3500 
L 1906 2253 
L 2834 3500 
L 3513 3500 
z
" transform="scale(0.015625)"/>
     </defs>
     <use xlink:href="#DejaVuSans-78"/>
    </g>
   </g>
  </g>
  <g id="axis3d_2">
   <g id="line2d_2">
    <path d="M 131.659134 224.980379 
L 210.791611 293.511114 
" style="fill: none; stroke: #000000; stroke-width: 0.8; stroke-linecap: square"/>
   </g>
   <g id="text_2">
    <!-- y -->
    <g transform="translate(143.54351 293.864376) scale(0.1 -0.1)">
     <defs>
      <path id="DejaVuSans-79" d="M 2059 -325 
Q 1816 -950 1584 -1140 
Q 1353 -1331 966 -1331 
L 506 -1331 
L 506 -850 
L 844 -850 
Q 1081 -850 1212 -737 
Q 1344 -625 1503 -206 
L 1606 56 
L 191 3500 
L 800 3500 
L 1894 763 
L 2988 3500 
L 3597 3500 
L 2059 -325 
z
" transform="scale(0.015625)"/>
     </defs>
     <use xlink:href="#DejaVuSans-79"/>
    </g>
   </g>
  </g>
  <g id="axis3d_3">
   <g id="line2d_3">
    <path d="M 131.659134 224.980379 
L 131.659134 87.918908 
" style="fill: none; stroke: #000000; stroke-width: 0.8; stroke-linecap: square"/>
   </g>
   <g id="text_3">
    <!-- z -->
    <g transform="translate(90.038893 153.984542) scale(0.1 -0.1)">
     <defs>
      <path id="DejaVuSans-7a" d="M 353 3500 
L 3084 3500 
L 3084 2975 
L 922 459 
L 3084 459 
L 3084 0 
L 275 0 
L 275 525 
L 2438 3041 
L 353 3041 
L 353 3500 
z
" transform="scale(0.015625)"/>
     </defs>
     <use xlink:href="#DejaVuSans-7a"/>
    </g>
   </g>
  </g>
  <g id="axes_1">
   <g id="Poly3DCollection_1">
    <path d="M 262.927706 182.517691 
L 276.633853 178.561067 
L 268.720605 171.707993 
L 255.014458 175.664617 
z
" clip-path="url(#p7a6ac4f348)" style="fill: #0000c3; fill-opacity: 0.1"/>
    <path d="M 249.221559 186.474314 
L 262.927706 182.517691 
L 255.014458 175.664617 
L 241.308311 179.621241 
z
" clip-path="url(#p7a6ac4f348)" style="fill: #0000c3; fill-opacity: 0.1"/>
    <path d="M 270.840953 189.370764 
L 284.5471 185.41414 
L 276.633853 178.561067 
L 262.927706 182.517691 
z
" clip-path="url(#p7a6ac4f348)" style="fill: #0000c3; fill-opacity: 0.1"/>
    <path d="M 235.515411 190.430938 
L 249.221559 186.474314 
L 241.308311 179.621241 
L 227.602164 183.577865 
z
" clip-path="url(#p7a6ac4f348)" style="fill: #0000c3; fill-opacity: 0.1"/>
    <path d="M 257.134806 193.327388 
L 270.840953 189.370764 
L 262.927706 182.517691 
L 249.221559 186.474314 
z
" clip-path="url(#p7a6ac4f348)" style="fill: #0000c3; fill-opacity: 0.1"/>
    <path d="M 221.809264 194.387562 
L 235.515411 190.430938 
L 227.602164 183.577865 
L 213.896017 187.534489 
z
" clip-path="url(#p7a6ac4f348)" style="fill: #0000c3; fill-opacity: 0.1"/>
    <path d="M 278.754201 196.223838 
L 292.460348 192.267214 
L 284.5471 185.41414 
L 270.840953 189.370764 
z
" clip-path="url(#p7a6ac4f348)" style="fill: #0000c3; fill-opacity: 0.1"/>
    <path d="M 243.428659 197.284012 
L 257.134806 193.327388 
L 249.221559 186.474314 
L 235.515411 190.430938 
z
" clip-path="url(#p7a6ac4f348)" style="fill: #0000c3; fill-opacity: 0.1"/>
    <path d="M 208.103117 198.344186 
L 221.809264 194.387562 
L 213.896017 187.534489 
L 200.18987 191.491112 
z
" clip-path="url(#p7a6ac4f348)" style="fill: #0000c3; fill-opacity: 0.1"/>
    <path d="M 265.048054 200.180462 
L 278.754201 196.223838 
L 270.840953 189.370764 
L 257.134806 193.327388 
z
" clip-path="url(#p7a6ac4f348)" style="fill: #0000c3; fill-opacity: 0.1"/>
    <path d="M 229.722512 201.240636 
L 243.428659 197.284012 
L 235.515411 190.430938 
L 221.809264 194.387562 
z
" clip-path="url(#p7a6ac4f348)" style="fill: #0000c3; fill-opacity: 0.1"/>
    <path d="M 194.39697 202.30081 
L 208.103117 198.344186 
L 200.18987 191.491112 
L 186.483723 195.447736 
z
" clip-path="url(#p7a6ac4f348)" style="fill: #0000c3; fill-opacity: 0.1"/>
    <path d="M 286.667449 203.076911 
L 300.373596 199.120287 
L 292.460348 192.267214 
L 278.754201 196.223838 
z
" clip-path="url(#p7a6ac4f348)" style="fill: #0000c3; fill-opacity: 0.1"/>
    <path d="M 251.341907 204.137085 
L 265.048054 200.180462 
L 257.134806 193.327388 
L 243.428659 197.284012 
z
" clip-path="url(#p7a6ac4f348)" style="fill: #0000c3; fill-opacity: 0.1"/>
    <path d="M 216.016365 205.19726 
L 229.722512 201.240636 
L 221.809264 194.387562 
L 208.103117 198.344186 
z
" clip-path="url(#p7a6ac4f348)" style="fill: #0000c3; fill-opacity: 0.1"/>
    <path d="M 180.690823 206.257434 
L 194.39697 202.30081 
L 186.483723 195.447736 
L 172.777576 199.40436 
z
" clip-path="url(#p7a6ac4f348)" style="fill: #0000c3; fill-opacity: 0.1"/>
    <path d="M 272.961302 207.033535 
L 286.667449 203.076911 
L 278.754201 196.223838 
L 265.048054 200.180462 
z
" clip-path="url(#p7a6ac4f348)" style="fill: #0000c3; fill-opacity: 0.1"/>
    <path d="M 237.63576 208.093709 
L 251.341907 204.137085 
L 243.428659 197.284012 
L 229.722512 201.240636 
z
" clip-path="url(#p7a6ac4f348)" style="fill: #0000c3; fill-opacity: 0.1"/>
    <path d="M 202.310218 209.153883 
L 216.016365 205.19726 
L 208.103117 198.344186 
L 194.39697 202.30081 
z
" clip-path="url(#p7a6ac4f348)" style="fill: #0000c3; fill-opacity: 0.1"/>
    <path d="M 294.580696 209.929985 
L 308.286843 205.973361 
L 300.373596 199.120287 
L 286.667449 203.076911 
z
" clip-path="url(#p7a6ac4f348)" style="fill: #0000c3; fill-opacity: 0.1"/>
    <path d="M 166.984676 210.214058 
L 180.690823 206.257434 
L 172.777576 199.40436 
L 159.071429 203.360984 
z
" clip-path="url(#p7a6ac4f348)" style="fill: #0000c3; fill-opacity: 0.1"/>
    <path d="M 259.255155 210.990159 
L 272.961302 207.033535 
L 265.048054 200.180462 
L 251.341907 204.137085 
z
" clip-path="url(#p7a6ac4f348)" style="fill: #0000c3; fill-opacity: 0.1"/>
    <path d="M 223.929613 212.050333 
L 237.63576 208.093709 
L 229.722512 201.240636 
L 216.016365 205.19726 
z
" clip-path="url(#p7a6ac4f348)" style="fill: #0000c3; fill-opacity: 0.1"/>
    <path d="M 188.604071 213.110507 
L 202.310218 209.153883 
L 194.39697 202.30081 
L 180.690823 206.257434 
z
" clip-path="url(#p7a6ac4f348)" style="fill: #0000c3; fill-opacity: 0.1"/>
    <path d="M 280.874549 213.886609 
L 294.580696 209.929985 
L 286.667449 203.076911 
L 272.961302 207.033535 
z
" clip-path="url(#p7a6ac4f348)" style="fill: #0000c3; fill-opacity: 0.1"/>
    <path d="M 153.278529 214.170681 
L 166.984676 210.214058 
L 159.071429 203.360984 
L 145.365281 207.317608 
z
" clip-path="url(#p7a6ac4f348)" style="fill: #0000c3; fill-opacity: 0.1"/>
    <path d="M 245.549007 214.946783 
L 259.255155 210.990159 
L 251.341907 204.137085 
L 237.63576 208.093709 
z
" clip-path="url(#p7a6ac4f348)" style="fill: #0000c3; fill-opacity: 0.1"/>
    <path d="M 210.223466 216.006957 
L 223.929613 212.050333 
L 216.016365 205.19726 
L 202.310218 209.153883 
z
" clip-path="url(#p7a6ac4f348)" style="fill: #0000c3; fill-opacity: 0.1"/>
    <path d="M 302.493944 216.783058 
L 316.200091 212.826434 
L 308.286843 205.973361 
L 294.580696 209.929985 
z
" clip-path="url(#p7a6ac4f348)" style="fill: #0000c3; fill-opacity: 0.1"/>
    <path d="M 174.897924 217.067131 
L 188.604071 213.110507 
L 180.690823 206.257434 
L 166.984676 210.214058 
z
" clip-path="url(#p7a6ac4f348)" style="fill: #0000c3; fill-opacity: 0.1"/>
    <path d="M 267.168402 217.843232 
L 280.874549 213.886609 
L 272.961302 207.033535 
L 259.255155 210.990159 
z
" clip-path="url(#p7a6ac4f348)" style="fill: #0000c3; fill-opacity: 0.1"/>
    <path d="M 139.572382 218.127305 
L 153.278529 214.170681 
L 145.365281 207.317608 
L 131.659134 211.274232 
z
" clip-path="url(#p7a6ac4f348)" style="fill: #0000c3; fill-opacity: 0.1"/>
    <path d="M 231.84286 218.903407 
L 245.549007 214.946783 
L 237.63576 208.093709 
L 223.929613 212.050333 
z
" clip-path="url(#p7a6ac4f348)" style="fill: #0000c3; fill-opacity: 0.1"/>
    <path d="M 196.517319 219.963581 
L 210.223466 216.006957 
L 202.310218 209.153883 
L 188.604071 213.110507 
z
" clip-path="url(#p7a6ac4f348)" style="fill: #0000c3; fill-opacity: 0.1"/>
    <path d="M 288.787797 220.739682 
L 302.493944 216.783058 
L 294.580696 209.929985 
L 280.874549 213.886609 
z
" clip-path="url(#p7a6ac4f348)" style="fill: #0000c3; fill-opacity: 0.1"/>
    <path d="M 161.191777 221.023755 
L 174.897924 217.067131 
L 166.984676 210.214058 
L 153.278529 214.170681 
z
" clip-path="url(#p7a6ac4f348)" style="fill: #0000c3; fill-opacity: 0.1"/>
    <path d="M 253.462255 221.799856 
L 267.168402 217.843232 
L 259.255155 210.990159 
L 245.549007 214.946783 
z
" clip-path="url(#p7a6ac4f348)" style="fill: #0000c3; fill-opacity: 0.1"/>
    <path d="M 218.136713 222.86003 
L 231.84286 218.903407 
L 223.929613 212.050333 
L 210.223466 216.006957 
z
" clip-path="url(#p7a6ac4f348)" style="fill: #0000c3; fill-opacity: 0.1"/>
    <path d="M 310.407192 223.636132 
L 324.113339 219.679508 
L 316.200091 212.826434 
L 302.493944 216.783058 
z
" clip-path="url(#p7a6ac4f348)" style="fill: #0000c3; fill-opacity: 0.1"/>
    <path d="M 182.811172 223.920205 
L 196.517319 219.963581 
L 188.604071 213.110507 
L 174.897924 217.067131 
z
" clip-path="url(#p7a6ac4f348)" style="fill: #0000c3; fill-opacity: 0.1"/>
    <path d="M 275.08165 224.696306 
L 288.787797 220.739682 
L 280.874549 213.886609 
L 267.168402 217.843232 
z
" clip-path="url(#p7a6ac4f348)" style="fill: #0000c3; fill-opacity: 0.1"/>
    <path d="M 147.48563 224.980379 
L 161.191777 221.023755 
L 153.278529 214.170681 
L 139.572382 218.127305 
z
" clip-path="url(#p7a6ac4f348)" style="fill: #0000c3; fill-opacity: 0.1"/>
    <path d="M 239.756108 225.75648 
L 253.462255 221.799856 
L 245.549007 214.946783 
L 231.84286 218.903407 
z
" clip-path="url(#p7a6ac4f348)" style="fill: #0000c3; fill-opacity: 0.1"/>
    <path d="M 204.430566 226.816654 
L 218.136713 222.86003 
L 210.223466 216.006957 
L 196.517319 219.963581 
z
" clip-path="url(#p7a6ac4f348)" style="fill: #0000c3; fill-opacity: 0.1"/>
    <path d="M 296.701045 227.592756 
L 310.407192 223.636132 
L 302.493944 216.783058 
L 288.787797 220.739682 
z
" clip-path="url(#p7a6ac4f348)" style="fill: #0000c3; fill-opacity: 0.1"/>
    <path d="M 169.105025 227.876828 
L 182.811172 223.920205 
L 174.897924 217.067131 
L 161.191777 221.023755 
z
" clip-path="url(#p7a6ac4f348)" style="fill: #0000c3; fill-opacity: 0.1"/>
    <path d="M 261.375503 228.65293 
L 275.08165 224.696306 
L 267.168402 217.843232 
L 253.462255 221.799856 
z
" clip-path="url(#p7a6ac4f348)" style="fill: #0000c3; fill-opacity: 0.1"/>
    <path d="M 226.049961 229.713104 
L 239.756108 225.75648 
L 231.84286 218.903407 
L 218.136713 222.86003 
z
" clip-path="url(#p7a6ac4f348)" style="fill: #0000c3; fill-opacity: 0.1"/>
    <path d="M 318.320439 230.489205 
L 332.026586 226.532581 
L 324.113339 219.679508 
L 310.407192 223.636132 
z
" clip-path="url(#p7a6ac4f348)" style="fill: #0000c3; fill-opacity: 0.1"/>
    <path d="M 190.724419 230.773278 
L 204.430566 226.816654 
L 196.517319 219.963581 
L 182.811172 223.920205 
z
" clip-path="url(#p7a6ac4f348)" style="fill: #0000c3; fill-opacity: 0.1"/>
    <path d="M 282.994898 231.549379 
L 296.701045 227.592756 
L 288.787797 220.739682 
L 275.08165 224.696306 
z
" clip-path="url(#p7a6ac4f348)" style="fill: #0000c3; fill-opacity: 0.1"/>
    <path d="M 155.398877 231.833452 
L 169.105025 227.876828 
L 161.191777 221.023755 
L 147.48563 224.980379 
z
" clip-path="url(#p7a6ac4f348)" style="fill: #0000c3; fill-opacity: 0.1"/>
    <path d="M 247.669356 232.609554 
L 261.375503 228.65293 
L 253.462255 221.799856 
L 239.756108 225.75648 
z
" clip-path="url(#p7a6ac4f348)" style="fill: #0000c3; fill-opacity: 0.1"/>
    <path d="M 212.343814 233.669728 
L 226.049961 229.713104 
L 218.136713 222.86003 
L 204.430566 226.816654 
z
" clip-path="url(#p7a6ac4f348)" style="fill: #0000c3; fill-opacity: 0.1"/>
    <path d="M 304.614292 234.445829 
L 318.320439 230.489205 
L 310.407192 223.636132 
L 296.701045 227.592756 
z
" clip-path="url(#p7a6ac4f348)" style="fill: #0000c3; fill-opacity: 0.1"/>
    <path d="M 177.018272 234.729902 
L 190.724419 230.773278 
L 182.811172 223.920205 
L 169.105025 227.876828 
z
" clip-path="url(#p7a6ac4f348)" style="fill: #0000c3; fill-opacity: 0.1"/>
    <path d="M 269.288751 235.506003 
L 282.994898 231.549379 
L 275.08165 224.696306 
L 261.375503 228.65293 
z
" clip-path="url(#p7a6ac4f348)" style="fill: #0000c3; fill-opacity: 0.1"/>
    <path d="M 233.963209 236.566177 
L 247.669356 232.609554 
L 239.756108 225.75648 
L 226.049961 229.713104 
z
" clip-path="url(#p7a6ac4f348)" style="fill: #0000c3; fill-opacity: 0.1"/>
    <path d="M 326.233687 237.342279 
L 339.939834 233.385655 
L 332.026586 226.532581 
L 318.320439 230.489205 
z
" clip-path="url(#p7a6ac4f348)" style="fill: #0000c3; fill-opacity: 0.1"/>
    <path d="M 198.637667 237.626352 
L 212.343814 233.669728 
L 204.430566 226.816654 
L 190.724419 230.773278 
z
" clip-path="url(#p7a6ac4f348)" style="fill: #0000c3; fill-opacity: 0.1"/>
    <path d="M 290.908145 238.402453 
L 304.614292 234.445829 
L 296.701045 227.592756 
L 282.994898 231.549379 
z
" clip-path="url(#p7a6ac4f348)" style="fill: #0000c3; fill-opacity: 0.1"/>
    <path d="M 163.312125 238.686526 
L 177.018272 234.729902 
L 169.105025 227.876828 
L 155.398877 231.833452 
z
" clip-path="url(#p7a6ac4f348)" style="fill: #0000c3; fill-opacity: 0.1"/>
    <path d="M 255.582603 239.462627 
L 269.288751 235.506003 
L 261.375503 228.65293 
L 247.669356 232.609554 
z
" clip-path="url(#p7a6ac4f348)" style="fill: #0000c3; fill-opacity: 0.1"/>
    <path d="M 220.257062 240.522801 
L 233.963209 236.566177 
L 226.049961 229.713104 
L 212.343814 233.669728 
z
" clip-path="url(#p7a6ac4f348)" style="fill: #0000c3; fill-opacity: 0.1"/>
    <path d="M 312.52754 241.298903 
L 326.233687 237.342279 
L 318.320439 230.489205 
L 304.614292 234.445829 
z
" clip-path="url(#p7a6ac4f348)" style="fill: #0000c3; fill-opacity: 0.1"/>
    <path d="M 184.93152 241.582975 
L 198.637667 237.626352 
L 190.724419 230.773278 
L 177.018272 234.729902 
z
" clip-path="url(#p7a6ac4f348)" style="fill: #0000c3; fill-opacity: 0.1"/>
    <path d="M 277.201998 242.359077 
L 290.908145 238.402453 
L 282.994898 231.549379 
L 269.288751 235.506003 
z
" clip-path="url(#p7a6ac4f348)" style="fill: #0000c3; fill-opacity: 0.1"/>
    <path d="M 241.876456 243.419251 
L 255.582603 239.462627 
L 247.669356 232.609554 
L 233.963209 236.566177 
z
" clip-path="url(#p7a6ac4f348)" style="fill: #0000c3; fill-opacity: 0.1"/>
    <path d="M 334.146935 244.195352 
L 347.853082 240.238728 
L 339.939834 233.385655 
L 326.233687 237.342279 
z
" clip-path="url(#p7a6ac4f348)" style="fill: #0000c3; fill-opacity: 0.1"/>
    <path d="M 206.550915 244.479425 
L 220.257062 240.522801 
L 212.343814 233.669728 
L 198.637667 237.626352 
z
" clip-path="url(#p7a6ac4f348)" style="fill: #0000c3; fill-opacity: 0.1"/>
    <path d="M 298.821393 245.255526 
L 312.52754 241.298903 
L 304.614292 234.445829 
L 290.908145 238.402453 
z
" clip-path="url(#p7a6ac4f348)" style="fill: #0000c3; fill-opacity: 0.1"/>
    <path d="M 171.225373 245.539599 
L 184.93152 241.582975 
L 177.018272 234.729902 
L 163.312125 238.686526 
z
" clip-path="url(#p7a6ac4f348)" style="fill: #0000c3; fill-opacity: 0.1"/>
    <path d="M 263.495851 246.315701 
L 277.201998 242.359077 
L 269.288751 235.506003 
L 255.582603 239.462627 
z
" clip-path="url(#p7a6ac4f348)" style="fill: #0000c3; fill-opacity: 0.1"/>
    <path d="M 228.170309 247.375875 
L 241.876456 243.419251 
L 233.963209 236.566177 
L 220.257062 240.522801 
z
" clip-path="url(#p7a6ac4f348)" style="fill: #0000c3; fill-opacity: 0.1"/>
    <path d="M 320.440788 248.151976 
L 334.146935 244.195352 
L 326.233687 237.342279 
L 312.52754 241.298903 
z
" clip-path="url(#p7a6ac4f348)" style="fill: #0000c3; fill-opacity: 0.1"/>
    <path d="M 192.844768 248.436049 
L 206.550915 244.479425 
L 198.637667 237.626352 
L 184.93152 241.582975 
z
" clip-path="url(#p7a6ac4f348)" style="fill: #0000c3; fill-opacity: 0.1"/>
    <path d="M 285.115246 249.21215 
L 298.821393 245.255526 
L 290.908145 238.402453 
L 277.201998 242.359077 
z
" clip-path="url(#p7a6ac4f348)" style="fill: #0000c3; fill-opacity: 0.1"/>
    <path d="M 249.789704 250.272325 
L 263.495851 246.315701 
L 255.582603 239.462627 
L 241.876456 243.419251 
z
" clip-path="url(#p7a6ac4f348)" style="fill: #0000c3; fill-opacity: 0.1"/>
    <path d="M 214.464162 251.332499 
L 228.170309 247.375875 
L 220.257062 240.522801 
L 206.550915 244.479425 
z
" clip-path="url(#p7a6ac4f348)" style="fill: #0000c3; fill-opacity: 0.1"/>
    <path d="M 306.734641 252.1086 
L 320.440788 248.151976 
L 312.52754 241.298903 
L 298.821393 245.255526 
z
" clip-path="url(#p7a6ac4f348)" style="fill: #0000c3; fill-opacity: 0.1"/>
    <path d="M 179.138621 252.392673 
L 192.844768 248.436049 
L 184.93152 241.582975 
L 171.225373 245.539599 
z
" clip-path="url(#p7a6ac4f348)" style="fill: #0000c3; fill-opacity: 0.1"/>
    <path d="M 271.409099 253.168774 
L 285.115246 249.21215 
L 277.201998 242.359077 
L 263.495851 246.315701 
z
" clip-path="url(#p7a6ac4f348)" style="fill: #0000c3; fill-opacity: 0.1"/>
    <path d="M 236.083557 254.228948 
L 249.789704 250.272325 
L 241.876456 243.419251 
L 228.170309 247.375875 
z
" clip-path="url(#p7a6ac4f348)" style="fill: #0000c3; fill-opacity: 0.1"/>
    <path d="M 200.758015 255.289123 
L 214.464162 251.332499 
L 206.550915 244.479425 
L 192.844768 248.436049 
z
" clip-path="url(#p7a6ac4f348)" style="fill: #0000c3; fill-opacity: 0.1"/>
    <path d="M 293.028494 256.065224 
L 306.734641 252.1086 
L 298.821393 245.255526 
L 285.115246 249.21215 
z
" clip-path="url(#p7a6ac4f348)" style="fill: #0000c3; fill-opacity: 0.1"/>
    <path d="M 257.702952 257.125398 
L 271.409099 253.168774 
L 263.495851 246.315701 
L 249.789704 250.272325 
z
" clip-path="url(#p7a6ac4f348)" style="fill: #0000c3; fill-opacity: 0.1"/>
    <path d="M 222.37741 258.185572 
L 236.083557 254.228948 
L 228.170309 247.375875 
L 214.464162 251.332499 
z
" clip-path="url(#p7a6ac4f348)" style="fill: #0000c3; fill-opacity: 0.1"/>
    <path d="M 187.051868 259.245746 
L 200.758015 255.289123 
L 192.844768 248.436049 
L 179.138621 252.392673 
z
" clip-path="url(#p7a6ac4f348)" style="fill: #0000c3; fill-opacity: 0.1"/>
    <path d="M 279.322347 260.021848 
L 293.028494 256.065224 
L 285.115246 249.21215 
L 271.409099 253.168774 
z
" clip-path="url(#p7a6ac4f348)" style="fill: #0000c3; fill-opacity: 0.1"/>
    <path d="M 243.996805 261.082022 
L 257.702952 257.125398 
L 249.789704 250.272325 
L 236.083557 254.228948 
z
" clip-path="url(#p7a6ac4f348)" style="fill: #0000c3; fill-opacity: 0.1"/>
    <path d="M 208.671263 262.142196 
L 222.37741 258.185572 
L 214.464162 251.332499 
L 200.758015 255.289123 
z
" clip-path="url(#p7a6ac4f348)" style="fill: #0000c3; fill-opacity: 0.1"/>
    <path d="M 265.6162 263.978472 
L 279.322347 260.021848 
L 271.409099 253.168774 
L 257.702952 257.125398 
z
" clip-path="url(#p7a6ac4f348)" style="fill: #0000c3; fill-opacity: 0.1"/>
    <path d="M 230.290658 265.038646 
L 243.996805 261.082022 
L 236.083557 254.228948 
L 222.37741 258.185572 
z
" clip-path="url(#p7a6ac4f348)" style="fill: #0000c3; fill-opacity: 0.1"/>
    <path d="M 194.965116 266.09882 
L 208.671263 262.142196 
L 200.758015 255.289123 
L 187.051868 259.245746 
z
" clip-path="url(#p7a6ac4f348)" style="fill: #0000c3; fill-opacity: 0.1"/>
    <path d="M 251.910052 267.935095 
L 265.6162 263.978472 
L 257.702952 257.125398 
L 243.996805 261.082022 
z
" clip-path="url(#p7a6ac4f348)" style="fill: #0000c3; fill-opacity: 0.1"/>
    <path d="M 216.584511 268.99527 
L 230.290658 265.038646 
L 222.37741 258.185572 
L 208.671263 262.142196 
z
" clip-path="url(#p7a6ac4f348)" style="fill: #0000c3; fill-opacity: 0.1"/>
    <path d="M 238.203905 271.891719 
L 251.910052 267.935095 
L 243.996805 261.082022 
L 230.290658 265.038646 
z
" clip-path="url(#p7a6ac4f348)" style="fill: #0000c3; fill-opacity: 0.1"/>
    <path d="M 202.878364 272.951893 
L 216.584511 268.99527 
L 208.671263 262.142196 
L 194.965116 266.09882 
z
" clip-path="url(#p7a6ac4f348)" style="fill: #0000c3; fill-opacity: 0.1"/>
    <path d="M 224.497758 275.848343 
L 238.203905 271.891719 
L 230.290658 265.038646 
L 216.584511 268.99527 
z
" clip-path="url(#p7a6ac4f348)" style="fill: #0000c3; fill-opacity: 0.1"/>
    <path d="M 210.791611 279.804967 
L 224.497758 275.848343 
L 216.584511 268.99527 
L 202.878364 272.951893 
z
" clip-path="url(#p7a6ac4f348)" style="fill: #0000c3; fill-opacity: 0.1"/>
   </g>
   <g id="Line3DCollection_1">
    <path d="M 210.791611 279.804967 
L 224.497758 275.848343 
L 238.203905 271.891719 
L 251.910052 267.935095 
L 265.6162 263.978472 
L 279.322347 260.021848 
L 293.028494 256.065224 
L 306.734641 252.1086 
L 320.440788 248.151976 
L 334.146935 244.195352 
L 347.853082 240.238728 
" clip-path="url(#p7a6ac4f348)" style="fill: none; stroke: #1f77b4; stroke-width: 1.5"/>
    <path d="M 202.878364 272.951893 
L 216.584511 268.99527 
L 230.290658 265.038646 
L 243.996805 261.082022 
L 257.702952 257.125398 
L 271.409099 253.168774 
L 285.115246 249.21215 
L 298.821393 245.255526 
L 312.52754 241.298903 
L 326.233687 237.342279 
L 339.939834 233.385655 
" clip-path="url(#p7a6ac4f348)" style="fill: none; stroke: #1f77b4; stroke-width: 1.5"/>
    <path d="M 194.965116 266.09882 
L 208.671263 262.142196 
L 222.37741 258.185572 
L 236.083557 254.228948 
L 249.789704 250.272325 
L 263.495851 246.315701 
L 277.201998 242.359077 
L 290.908145 238.402453 
L 304.614292 234.445829 
L 318.320439 230.489205 
L 332.026586 226.532581 
" clip-path="url(#p7a6ac4f348)" style="fill: none; stroke: #1f77b4; stroke-width: 1.5"/>
    <path d="M 187.051868 259.245746 
L 200.758015 255.289123 
L 214.464162 251.332499 
L 228.170309 247.375875 
L 241.876456 243.419251 
L 255.582603 239.462627 
L 269.288751 235.506003 
L 282.994898 231.549379 
L 296.701045 227.592756 
L 310.407192 223.636132 
L 324.113339 219.679508 
" clip-path="url(#p7a6ac4f348)" style="fill: none; stroke: #1f77b4; stroke-width: 1.5"/>
    <path d="M 179.138621 252.392673 
L 192.844768 248.436049 
L 206.550915 244.479425 
L 220.257062 240.522801 
L 233.963209 236.566177 
L 247.669356 232.609554 
L 261.375503 228.65293 
L 275.08165 224.696306 
L 288.787797 220.739682 
L 302.493944 216.783058 
L 316.200091 212.826434 
" clip-path="url(#p7a6ac4f348)" style="fill: none; stroke: #1f77b4; stroke-width: 1.5"/>
    <path d="M 171.225373 245.539599 
L 184.93152 241.582975 
L 198.637667 237.626352 
L 212.343814 233.669728 
L 226.049961 229.713104 
L 239.756108 225.75648 
L 253.462255 221.799856 
L 267.168402 217.843232 
L 280.874549 213.886609 
L 294.580696 209.929985 
L 308.286843 205.973361 
" clip-path="url(#p7a6ac4f348)" style="fill: none; stroke: #1f77b4; stroke-width: 1.5"/>
    <path d="M 163.312125 238.686526 
L 177.018272 234.729902 
L 190.724419 230.773278 
L 204.430566 226.816654 
L 218.136713 222.86003 
L 231.84286 218.903407 
L 245.549007 214.946783 
L 259.255155 210.990159 
L 272.961302 207.033535 
L 286.667449 203.076911 
L 300.373596 199.120287 
" clip-path="url(#p7a6ac4f348)" style="fill: none; stroke: #1f77b4; stroke-width: 1.5"/>
    <path d="M 155.398877 231.833452 
L 169.105025 227.876828 
L 182.811172 223.920205 
L 196.517319 219.963581 
L 210.223466 216.006957 
L 223.929613 212.050333 
L 237.63576 208.093709 
L 251.341907 204.137085 
L 265.048054 200.180462 
L 278.754201 196.223838 
L 292.460348 192.267214 
" clip-path="url(#p7a6ac4f348)" style="fill: none; stroke: #1f77b4; stroke-width: 1.5"/>
    <path d="M 147.48563 224.980379 
L 161.191777 221.023755 
L 174.897924 217.067131 
L 188.604071 213.110507 
L 202.310218 209.153883 
L 216.016365 205.19726 
L 229.722512 201.240636 
L 243.428659 197.284012 
L 257.134806 193.327388 
L 270.840953 189.370764 
L 284.5471 185.41414 
" clip-path="url(#p7a6ac4f348)" style="fill: none; stroke: #1f77b4; stroke-width: 1.5"/>
    <path d="M 139.572382 218.127305 
L 153.278529 214.170681 
L 166.984676 210.214058 
L 180.690823 206.257434 
L 194.39697 202.30081 
L 208.103117 198.344186 
L 221.809264 194.387562 
L 235.515411 190.430938 
L 249.221559 186.474314 
L 262.927706 182.517691 
L 276.633853 178.561067 
" clip-path="url(#p7a6ac4f348)" style="fill: none; stroke: #1f77b4; stroke-width: 1.5"/>
    <path d="M 131.659134 211.274232 
L 145.365281 207.317608 
L 159.071429 203.360984 
L 172.777576 199.40436 
L 186.483723 195.447736 
L 200.18987 191.491112 
L 213.896017 187.534489 
L 227.602164 183.577865 
L 241.308311 179.621241 
L 255.014458 175.664617 
L 268.720605 171.707993 
" clip-path="url(#p7a6ac4f348)" style="fill: none; stroke: #1f77b4; stroke-width: 1.5"/>
    <path d="M 210.791611 279.804967 
L 202.878364 272.951893 
L 194.965116 266.09882 
L 187.051868 259.245746 
L 179.138621 252.392673 
L 171.225373 245.539599 
L 163.312125 238.686526 
L 155.398877 231.833452 
L 147.48563 224.980379 
L 139.572382 218.127305 
L 131.659134 211.274232 
" clip-path="url(#p7a6ac4f348)" style="fill: none; stroke: #1f77b4; stroke-width: 1.5"/>
    <path d="M 224.497758 275.848343 
L 216.584511 268.99527 
L 208.671263 262.142196 
L 200.758015 255.289123 
L 192.844768 248.436049 
L 184.93152 241.582975 
L 177.018272 234.729902 
L 169.105025 227.876828 
L 161.191777 221.023755 
L 153.278529 214.170681 
L 145.365281 207.317608 
" clip-path="url(#p7a6ac4f348)" style="fill: none; stroke: #1f77b4; stroke-width: 1.5"/>
    <path d="M 238.203905 271.891719 
L 230.290658 265.038646 
L 222.37741 258.185572 
L 214.464162 251.332499 
L 206.550915 244.479425 
L 198.637667 237.626352 
L 190.724419 230.773278 
L 182.811172 223.920205 
L 174.897924 217.067131 
L 166.984676 210.214058 
L 159.071429 203.360984 
" clip-path="url(#p7a6ac4f348)" style="fill: none; stroke: #1f77b4; stroke-width: 1.5"/>
    <path d="M 251.910052 267.935095 
L 243.996805 261.082022 
L 236.083557 254.228948 
L 228.170309 247.375875 
L 220.257062 240.522801 
L 212.343814 233.669728 
L 204.430566 226.816654 
L 196.517319 219.963581 
L 188.604071 213.110507 
L 180.690823 206.257434 
L 172.777576 199.40436 
" clip-path="url(#p7a6ac4f348)" style="fill: none; stroke: #1f77b4; stroke-width: 1.5"/>
    <path d="M 265.6162 263.978472 
L 257.702952 257.125398 
L 249.789704 250.272325 
L 241.876456 243.419251 
L 233.963209 236.566177 
L 226.049961 229.713104 
L 218.136713 222.86003 
L 210.223466 216.006957 
L 202.310218 209.153883 
L 194.39697 202.30081 
L 186.483723 195.447736 
" clip-path="url(#p7a6ac4f348)" style="fill: none; stroke: #1f77b4; stroke-width: 1.5"/>
    <path d="M 279.322347 260.021848 
L 271.409099 253.168774 
L 263.495851 246.315701 
L 255.582603 239.462627 
L 247.669356 232.609554 
L 239.756108 225.75648 
L 231.84286 218.903407 
L 223.929613 212.050333 
L 216.016365 205.19726 
L 208.103117 198.344186 
L 200.18987 191.491112 
" clip-path="url(#p7a6ac4f348)" style="fill: none; stroke: #1f77b4; stroke-width: 1.5"/>
    <path d="M 293.028494 256.065224 
L 285.115246 249.21215 
L 277.201998 242.359077 
L 269.288751 235.506003 
L 261.375503 228.65293 
L 253.462255 221.799856 
L 245.549007 214.946783 
L 237.63576 208.093709 
L 229.722512 201.240636 
L 221.809264 194.387562 
L 213.896017 187.534489 
" clip-path="url(#p7a6ac4f348)" style="fill: none; stroke: #1f77b4; stroke-width: 1.5"/>
    <path d="M 306.734641 252.1086 
L 298.821393 245.255526 
L 290.908145 238.402453 
L 282.994898 231.549379 
L 275.08165 224.696306 
L 267.168402 217.843232 
L 259.255155 210.990159 
L 251.341907 204.137085 
L 243.428659 197.284012 
L 235.515411 190.430938 
L 227.602164 183.577865 
" clip-path="url(#p7a6ac4f348)" style="fill: none; stroke: #1f77b4; stroke-width: 1.5"/>
    <path d="M 320.440788 248.151976 
L 312.52754 241.298903 
L 304.614292 234.445829 
L 296.701045 227.592756 
L 288.787797 220.739682 
L 280.874549 213.886609 
L 272.961302 207.033535 
L 265.048054 200.180462 
L 257.134806 193.327388 
L 249.221559 186.474314 
L 241.308311 179.621241 
" clip-path="url(#p7a6ac4f348)" style="fill: none; stroke: #1f77b4; stroke-width: 1.5"/>
    <path d="M 334.146935 244.195352 
L 326.233687 237.342279 
L 318.320439 230.489205 
L 310.407192 223.636132 
L 302.493944 216.783058 
L 294.580696 209.929985 
L 286.667449 203.076911 
L 278.754201 196.223838 
L 270.840953 189.370764 
L 262.927706 182.517691 
L 255.014458 175.664617 
" clip-path="url(#p7a6ac4f348)" style="fill: none; stroke: #1f77b4; stroke-width: 1.5"/>
    <path d="M 347.853082 240.238728 
L 339.939834 233.385655 
L 332.026586 226.532581 
L 324.113339 219.679508 
L 316.200091 212.826434 
L 308.286843 205.973361 
L 300.373596 199.120287 
L 292.460348 192.267214 
L 284.5471 185.41414 
L 276.633853 178.561067 
L 268.720605 171.707993 
" clip-path="url(#p7a6ac4f348)" style="fill: none; stroke: #1f77b4; stroke-width: 1.5"/>
   </g>
  </g>
 </g>
 <defs>
  <clipPath id="p7a6ac4f348">
   <rect x="103.104" y="41.472" width="266.112" height="266.112"/>
  </clipPath>
 </defs>
</svg>
