<?xml version="1.0" encoding="utf-8" standalone="no"?>
<!DOCTYPE svg PUBLIC "-//W3C//DTD SVG 1.1//EN"
  "http://www.w3.org/Graphics/SVG/1.1/DTD/svg11.dtd">
<svg xmlns:xlink="http://www.w3.org/1999/xlink" width="460.8pt" height="345.6pt" viewBox="0 0 460.8 345.6" xmlns="http://www.w3.org/2000/svg" version="1.1">
 <metadata>
  <rdf:RDF xmlns:dc="http://purl.org/dc/elements/1.1/" xmlns:cc="http://creativecommons.org/ns#" xmlns:rdf="http://www.w3.org/1999/02/22-rdf-syntax-ns#">
   <cc:Work>
    <dc:type rdf:resource="http://purl.org/dc/dcmitype/StillImage"/>
    <dc:date>2025-12-16T15:39:46.421763</dc:date>
    <dc:format>image/svg+xml</dc:format>
    <dc:creator>
     <cc:Agent>
      <dc:title>Matplotlib v3.10.6, https://matplotlib.org/</dc:title>
     </cc:Agent>
    </dc:creator>
   </cc:Work>
  </rdf:RDF>
 </metadata>
 <defs>
  <style type="text/css">*{stroke-linejoin: round; stroke-linecap: butt}</style>
 </defs>
 <g id="figure_1">
  <g id="patch_1">
   <path d="M 0 345.6 
L 460.8 345.6 
L 460.8 0 
L 0 0 
z
" style="fill: #ffffff"/>
  </g>
  <g id="patch_2">
   <path d="M 103.104 307.584 
L 369.216 307.584 
L 369.216 41.472 
L 103.104 41.472 
z
" style="fill: #ffffff"/>
  </g>
  <g id="pane3d_1">
   <g id="patch_3">
    <path d="M 347.853082 253.944876 
L 268.720605 185.41414 
L 268.720605 48.35267 
L 347.853082 116.883405 
" style="fill: #f2f2f2; opacity: 0.5; stroke: #f2f2f2; stroke-linejoin: miter"/>
   </g>
  </g>
  <g id="pane3d_2">
   <g id="patch_4">
    <path d="M 131.659134 224.980379 
L 268.720605 185.41414 
L 268.720605 48.35267 
L 131.659134 87.918908 
" style="fill: #e6e6e6; opacity: 0.5; stroke: #e6e6e6; stroke-linejoin: miter"/>
   </g>
  </g>
  <g id="pane3d_3">
   <g id="patch_5">
    <path d="M 210.791611 293.511114 
L 347.853082 253.944876 
L 268.720605 185.41414 
L 131.659134 224.980379 
" style="fill: #ececec; opacity: 0.5; stroke: #ececec; stroke-linejoin: miter"/>
   </g>
  </g>
  <g id="axis3d_1">
   <g id="line2d_1">
    <path d="M 347.853082 253.944876 
L 210.791611 293.511114 
" style="fill: none; stroke: #000000; stroke-width: 0.8; stroke-linecap: square"/>
   </g>
  </g>
  <g id="axis3d_2">
   <g id="line2d_2">
    <path d="M 131.659134 224.980379 
L 210.791611 293.511114 
" style="fill: none; stroke: #000000; stroke-width: 0.8; stroke-linecap: square"/>
   </g>
  </g>
  <g id="axis3d_3">
   <g id="line2d_3">
    <path d="M 131.659134 224.980379 
L 131.659134 87.918908 
" style="fill: none; stroke: #000000; stroke-width: 0.8; stroke-linecap: square"/>
   </g>
  </g>
  <g id="axes_1">
   <g id="Poly3DCollection_1">
    <path d="M 210.791611 293.511114 
L 347.853082 253.944876 
L 268.720605 185.41414 
L 131.659134 224.980379 
z
" clip-path="url(#p8022f0a2db)" style="fill: #0000c3; fill-opacity: 0.1"/>
   </g>
   <g id="Line3DCollection_1">
    <path d="M 210.791611 293.511114 
L 347.853082 253.944876 
" clip-path="url(#p8022f0a2db)" style="fill: none; stroke: #1f77b4; stroke-width: 0.25"/>
    <path d="M 131.659134 224.980379 
L 268.720605 185.41414 
" clip-path="url(#p8022f0a2db)" style="fill: none; stroke: #1f77b4; stroke-width: 0.25"/>
    <path d="M 210.791611 293.511114 
L 131.659134 224.980379 
" clip-path="url(#p8022f0a2db)" style="fill: none; stroke: #1f77b4; stroke-width: 0.25"/>
    <path d="M 347.853082 253.944876 
L 268.720605 185.41414 
" clip-path="url(#p8022f0a2db)" style="fill: none; stroke: #1f77b4; stroke-width: 0.25"/>
   </g>
   <g id="Poly3DCollection_2">
    <path d="M 210.791611 279.804967 
L 347.853082 240.238728 
L 268.720605 171.707993 
L 131.659134 211.274232 
z
" clip-path="url(#p8022f0a2db)" style="fill: #0000c3; fill-opacity: 0.1"/>
   </g>
   <g id="Line3DCollection_2">
    <path d="M 210.791611 279.804967 
L 347.853082 240.238728 
" clip-path="url(#p8022f0a2db)" style="fill: none; stroke: #1f77b4; stroke-width: 0.25"/>
    <path d="M 131.659134 211.274232 
L 268.720605 171.707993 
" clip-path="url(#p8022f0a2db)" style="fill: none; stroke: #1f77b4; stroke-width: 0.25"/>
    <path d="M 210.791611 279.804967 
L 131.659134 211.274232 
" clip-path="url(#p8022f0a2db)" style="fill: none; stroke: #1f77b4; stroke-width: 0.25"/>
    <path d="M 347.853082 240.238728 
L 268.720605 171.707993 
" clip-path="url(#p8022f0a2db)" style="fill: none; stroke: #1f77b4; stroke-width: 0.25"/>
   </g>
   <g id="Poly3DCollection_3">
    <path d="M 210.791611 266.09882 
L 347.853082 226.532581 
L 268.720605 158.001846 
L 131.659134 197.568085 
z
" clip-path="url(#p8022f0a2db)" style="fill: #0000c3; fill-opacity: 0.1"/>
   </g>
   <g id="Line3DCollection_3">
    <path d="M 210.791611 266.09882 
L 347.853082 226.532581 
" clip-path="url(#p8022f0a2db)" style="fill: none; stroke: #1f77b4; stroke-width: 0.25"/>
    <path d="M 131.659134 197.568085 
L 268.720605 158.001846 
" clip-path="url(#p8022f0a2db)" style="fill: none; stroke: #1f77b4; stroke-width: 0.25"/>
    <path d="M 210.791611 266.09882 
L 131.659134 197.568085 
" clip-path="url(#p8022f0a2db)" style="fill: none; stroke: #1f77b4; stroke-width: 0.25"/>
    <path d="M 347.853082 226.532581 
L 268.720605 158.001846 
" clip-path="url(#p8022f0a2db)" style="fill: none; stroke: #1f77b4; stroke-width: 0.25"/>
   </g>
   <g id="Poly3DCollection_4">
    <path d="M 210.791611 252.392673 
L 347.853082 212.826434 
L 268.720605 144.295699 
L 131.659134 183.861938 
z
" clip-path="url(#p8022f0a2db)" style="fill: #0000c3; fill-opacity: 0.1"/>
   </g>
   <g id="Line3DCollection_4">
    <path d="M 210.791611 252.392673 
L 347.853082 212.826434 
" clip-path="url(#p8022f0a2db)" style="fill: none; stroke: #1f77b4; stroke-width: 0.25"/>
    <path d="M 131.659134 183.861938 
L 268.720605 144.295699 
" clip-path="url(#p8022f0a2db)" style="fill: none; stroke: #1f77b4; stroke-width: 0.25"/>
    <path d="M 210.791611 252.392673 
L 131.659134 183.861938 
" clip-path="url(#p8022f0a2db)" style="fill: none; stroke: #1f77b4; stroke-width: 0.25"/>
    <path d="M 347.853082 212.826434 
L 268.720605 144.295699 
" clip-path="url(#p8022f0a2db)" style="fill: none; stroke: #1f77b4; stroke-width: 0.25"/>
   </g>
   <g id="Poly3DCollection_5">
    <path d="M 210.791611 238.686526 
L 347.853082 199.120287 
L 268.720605 130.589552 
L 131.659134 170.155791 
z
" clip-path="url(#p8022f0a2db)" style="fill: #0000c3; fill-opacity: 0.1"/>
   </g>
   <g id="Line3DCollection_5">
    <path d="M 210.791611 238.686526 
L 347.853082 199.120287 
" clip-path="url(#p8022f0a2db)" style="fill: none; stroke: #1f77b4; stroke-width: 0.25"/>
    <path d="M 131.659134 170.155791 
L 268.720605 130.589552 
" clip-path="url(#p8022f0a2db)" style="fill: none; stroke: #1f77b4; stroke-width: 0.25"/>
    <path d="M 210.791611 238.686526 
L 131.659134 170.155791 
" clip-path="url(#p8022f0a2db)" style="fill: none; stroke: #1f77b4; stroke-width: 0.25"/>
    <path d="M 347.853082 199.120287 
L 268.720605 130.589552 
" clip-path="url(#p8022f0a2db)" style="fill: none; stroke: #1f77b4; stroke-width: 0.25"/>
   </g>
   <g id="Poly3DCollection_6">
    <path d="M 210.791611 224.980379 
L 347.853082 185.41414 
L 268.720605 116.883405 
L 131.659134 156.449643 
z
" clip-path="url(#p8022f0a2db)" style="fill: #0000c3; fill-opacity: 0.1"/>
   </g>
   <g id="Line3DCollection_6">
    <path d="M 210.791611 224.980379 
L 347.853082 185.41414 
" clip-path="url(#p8022f0a2db)" style="fill: none; stroke: #1f77b4; stroke-width: 0.25"/>
    <path d="M 131.659134 156.449643 
L 268.720605 116.883405 
" clip-path="url(#p8022f0a2db)" style="fill: none; stroke: #1f77b4; stroke-width: 0.25"/>
    <path d="M 210.791611 224.980379 
L 131.659134 156.449643 
" clip-path="url(#p8022f0a2db)" style="fill: none; stroke: #1f77b4; stroke-width: 0.25"/>
    <path d="M 347.853082 185.41414 
L 268.720605 116.883405 
" clip-path="url(#p8022f0a2db)" style="fill: none; stroke: #1f77b4; stroke-width: 0.25"/>
   </g>
   <g id="Poly3DCollection_7">
    <path d="M 210.791611 211.274232 
L 347.853082 171.707993 
L 268.720605 103.177258 
L 131.659134 142.743496 
z
" clip-path="url(#p8022f0a2db)" style="fill: #0000c3; fill-opacity: 0.1"/>
   </g>
   <g id="Line3DCollection_7">
    <path d="M 210.791611 211.274232 
L 347.853082 171.707993 
" clip-path="url(#p8022f0a2db)" style="fill: none; stroke: #1f77b4; stroke-width: 0.25"/>
    <path d="M 131.659134 142.743496 
L 268.720605 103.177258 
" clip-path="url(#p8022f0a2db)" style="fill: none; stroke: #1f77b4; stroke-width: 0.25"/>
    <path d="M 210.791611 211.274232 
L 131.659134 142.743496 
" clip-path="url(#p8022f0a2db)" style="fill: none; stroke: #1f77b4; stroke-width: 0.25"/>
    <path d="M 347.853082 171.707993 
L 268.720605 103.177258 
" clip-path="url(#p8022f0a2db)" style="fill: none; stroke: #1f77b4; stroke-width: 0.25"/>
   </g>
   <g id="Poly3DCollection_8">
    <path d="M 210.791611 197.568085 
L 347.853082 158.001846 
L 268.720605 89.471111 
L 131.659134 129.037349 
z
" clip-path="url(#p8022f0a2db)" style="fill: #0000c3; fill-opacity: 0.1"/>
   </g>
   <g id="Line3DCollection_8">
    <path d="M 210.791611 197.568085 
L 347.853082 158.001846 
" clip-path="url(#p8022f0a2db)" style="fill: none; stroke: #1f77b4; stroke-width: 0.25"/>
    <path d="M 131.659134 129.037349 
L 268.720605 89.471111 
" clip-path="url(#p8022f0a2db)" style="fill: none; stroke: #1f77b4; stroke-width: 0.25"/>
    <path d="M 210.791611 197.568085 
L 131.659134 129.037349 
" clip-path="url(#p8022f0a2db)" style="fill: none; stroke: #1f77b4; stroke-width: 0.25"/>
    <path d="M 347.853082 158.001846 
L 268.720605 89.471111 
" clip-path="url(#p8022f0a2db)" style="fill: none; stroke: #1f77b4; stroke-width: 0.25"/>
   </g>
   <g id="Poly3DCollection_9">
    <path d="M 210.791611 183.861938 
L 347.853082 144.295699 
L 268.720605 75.764964 
L 131.659134 115.331202 
z
" clip-path="url(#p8022f0a2db)" style="fill: #0000c3; fill-opacity: 0.1"/>
   </g>
   <g id="Line3DCollection_9">
    <path d="M 210.791611 183.861938 
L 347.853082 144.295699 
" clip-path="url(#p8022f0a2db)" style="fill: none; stroke: #1f77b4; stroke-width: 0.25"/>
    <path d="M 131.659134 115.331202 
L 268.720605 75.764964 
" clip-path="url(#p8022f0a2db)" style="fill: none; stroke: #1f77b4; stroke-width: 0.25"/>
    <path d="M 210.791611 183.861938 
L 131.659134 115.331202 
" clip-path="url(#p8022f0a2db)" style="fill: none; stroke: #1f77b4; stroke-width: 0.25"/>
    <path d="M 347.853082 144.295699 
L 268.720605 75.764964 
" clip-path="url(#p8022f0a2db)" style="fill: none; stroke: #1f77b4; stroke-width: 0.25"/>
   </g>
   <g id="Poly3DCollection_10">
    <path d="M 210.791611 170.155791 
L 347.853082 130.589552 
L 268.720605 62.058817 
L 131.659134 101.625055 
z
" clip-path="url(#p8022f0a2db)" style="fill: #0000c3; fill-opacity: 0.1"/>
   </g>
   <g id="Line3DCollection_10">
    <path d="M 210.791611 170.155791 
L 347.853082 130.589552 
" clip-path="url(#p8022f0a2db)" style="fill: none; stroke: #1f77b4; stroke-width: 0.25"/>
    <path d="M 131.659134 101.625055 
L 268.720605 62.058817 
" clip-path="url(#p8022f0a2db)" style="fill: none; stroke: #1f77b4; stroke-width: 0.25"/>
    <path d="M 210.791611 170.155791 
L 131.659134 101.625055 
" clip-path="url(#p8022f0a2db)" style="fill: none; stroke: #1f77b4; stroke-width: 0.25"/>
    <path d="M 347.853082 130.589552 
L 268.720605 62.058817 
" clip-path="url(#p8022f0a2db)" style="fill: none; stroke: #1f77b4; stroke-width: 0.25"/>
   </g>
   <g id="Poly3DCollection_11">
    <path d="M 210.791611 156.449643 
L 347.853082 116.883405 
L 268.720605 48.35267 
L 131.659134 87.918908 
z
" clip-path="url(#p8022f0a2db)" style="fill: #0000c3; fill-opacity: 0.1"/>
   </g>
   <g id="Line3DCollection_11">
    <path d="M 210.791611 156.449643 
L 347.853082 116.883405 
" clip-path="url(#p8022f0a2db)" style="fill: none; stroke: #1f77b4; stroke-width: 0.25"/>
    <path d="M 131.659134 87.918908 
L 268.720605 48.35267 
" clip-path="url(#p8022f0a2db)" style="fill: none; stroke: #1f77b4; stroke-width: 0.25"/>
    <path d="M 210.791611 156.449643 
L 131.659134 87.918908 
" clip-path="url(#p8022f0a2db)" style="fill: none; stroke: #1f77b4; stroke-width: 0.25"/>
    <path d="M 347.853082 116.883405 
L 268.720605 48.35267 
" clip-path="url(#p8022f0a2db)" style="fill: none; stroke: #1f77b4; stroke-width: 0.25"/>
   </g>
  </g>
 </g>
 <defs>
  <clipPath id="p8022f0a2db">
   <rect x="103.104" y="41.472" width="266.112" height="266.112"/>
  </clipPath>
 </defs>
</svg>
