<?xml version="1.0" encoding="utf-8" standalone="no"?>
<!DOCTYPE svg PUBLIC "-//W3C//DTD SVG 1.1//EN"
  "http://www.w3.org/Graphics/SVG/1.1/DTD/svg11.dtd">
<svg xmlns:xlink="http://www.w3.org/1999/xlink" width="460.8pt" height="345.6pt" viewBox="0 0 460.8 345.6" xmlns="http://www.w3.org/2000/svg" version="1.1">
 <metadata>
  <rdf:RDF xmlns:dc="http://purl.org/dc/elements/1.1/" xmlns:cc="http://creativecommons.org/ns#" xmlns:rdf="http://www.w3.org/1999/02/22-rdf-syntax-ns#">
   <cc:Work>
    <dc:type rdf:resource="http://purl.org/dc/dcmitype/StillImage"/>
    <dc:date>2025-12-16T15:46:25.577746</dc:date>
    <dc:format>image/svg+xml</dc:format>
    <dc:creator>
     <cc:Agent>
      <dc:title>Matplotlib v3.10.6, https://matplotlib.org/</dc:title>
     </cc:Agent>
    </dc:creator>
   </cc:Work>
  </rdf:RDF>
 </metadata>
 <defs>
  <style type="text/css">*{stroke-linejoin: round; stroke-linecap: butt}</style>
 </defs>
 <g id="figure_1">
  <g id="patch_1">
   <path d="M 0 345.6 
L 460.8 345.6 
L 460.8 0 
L 0 0 
z
" style="fill: #ffffff"/>
  </g>
  <g id="patch_2">
   <path d="M 103.104 307.584 
L 369.216 307.584 
L 369.216 41.472 
L 103.104 41.472 
z
" style="fill: #ffffff"/>
  </g>
  <g id="pane3d_1">
   <g id="patch_3">
    <path d="M 347.853082 253.944876 
L 268.720605 185.41414 
L 268.720605 48.35267 
L 347.853082 116.883405 
" style="fill: #f2f2f2; opacity: 0.5; stroke: #f2f2f2; stroke-linejoin: miter"/>
   </g>
  </g>
  <g id="pane3d_2">
   <g id="patch_4">
    <path d="M 131.659134 224.980379 
L 268.720605 185.41414 
L 268.720605 48.35267 
L 131.659134 87.918908 
" style="fill: #e6e6e6; opacity: 0.5; stroke: #e6e6e6; stroke-linejoin: miter"/>
   </g>
  </g>
  <g id="pane3d_3">
   <g id="patch_5">
    <path d="M 210.791611 293.511114 
L 347.853082 253.944876 
L 268.720605 185.41414 
L 131.659134 224.980379 
" style="fill: #ececec; opacity: 0.5; stroke: #ececec; stroke-linejoin: miter"/>
   </g>
  </g>
  <g id="axis3d_1">
   <g id="line2d_1">
    <path d="M 347.853082 253.944876 
L 210.791611 293.511114 
" style="fill: none; stroke: #000000; stroke-width: 0.8; stroke-linecap: square"/>
   </g>
  </g>
  <g id="axis3d_2">
   <g id="line2d_2">
    <path d="M 131.659134 224.980379 
L 210.791611 293.511114 
" style="fill: none; stroke: #000000; stroke-width: 0.8; stroke-linecap: square"/>
   </g>
  </g>
  <g id="axis3d_3">
   <g id="line2d_3">
    <path d="M 131.659134 224.980379 
L 131.659134 87.918908 
" style="fill: none; stroke: #000000; stroke-width: 0.8; stroke-linecap: square"/>
   </g>
  </g>
  <g id="axes_1">
   <g id="Poly3DCollection_1">
    <path d="M 131.659134 224.980379 
L 268.720605 185.41414 
L 268.720605 48.35267 
L 131.659134 87.918908 
z
" clip-path="url(#pc98afe0c0b)" style="fill: #0000e1; fill-opacity: 0.1"/>
   </g>
   <g id="Line3DCollection_1">
    <path d="M 131.659134 224.980379 
L 268.720605 185.41414 
" clip-path="url(#pc98afe0c0b)" style="fill: none; stroke: #1f77b4; stroke-width: 0.25"/>
    <path d="M 131.659134 87.918908 
L 268.720605 48.35267 
" clip-path="url(#pc98afe0c0b)" style="fill: none; stroke: #1f77b4; stroke-width: 0.25"/>
    <path d="M 131.659134 224.980379 
L 131.659134 87.918908 
" clip-path="url(#pc98afe0c0b)" style="fill: none; stroke: #1f77b4; stroke-width: 0.25"/>
    <path d="M 268.720605 185.41414 
L 268.720605 48.35267 
" clip-path="url(#pc98afe0c0b)" style="fill: none; stroke: #1f77b4; stroke-width: 0.25"/>
   </g>
   <g id="Poly3DCollection_2">
    <path d="M 139.572382 231.833452 
L 276.633853 192.267214 
L 276.633853 55.205743 
L 139.572382 94.771982 
z
" clip-path="url(#pc98afe0c0b)" style="fill: #0000e1; fill-opacity: 0.1"/>
   </g>
   <g id="Line3DCollection_2">
    <path d="M 139.572382 231.833452 
L 276.633853 192.267214 
" clip-path="url(#pc98afe0c0b)" style="fill: none; stroke: #1f77b4; stroke-width: 0.25"/>
    <path d="M 139.572382 94.771982 
L 276.633853 55.205743 
" clip-path="url(#pc98afe0c0b)" style="fill: none; stroke: #1f77b4; stroke-width: 0.25"/>
    <path d="M 139.572382 231.833452 
L 139.572382 94.771982 
" clip-path="url(#pc98afe0c0b)" style="fill: none; stroke: #1f77b4; stroke-width: 0.25"/>
    <path d="M 276.633853 192.267214 
L 276.633853 55.205743 
" clip-path="url(#pc98afe0c0b)" style="fill: none; stroke: #1f77b4; stroke-width: 0.25"/>
   </g>
   <g id="Poly3DCollection_3">
    <path d="M 147.48563 238.686526 
L 284.5471 199.120287 
L 284.5471 62.058817 
L 147.48563 101.625055 
z
" clip-path="url(#pc98afe0c0b)" style="fill: #0000e1; fill-opacity: 0.1"/>
   </g>
   <g id="Line3DCollection_3">
    <path d="M 147.48563 238.686526 
L 284.5471 199.120287 
" clip-path="url(#pc98afe0c0b)" style="fill: none; stroke: #1f77b4; stroke-width: 0.25"/>
    <path d="M 147.48563 101.625055 
L 284.5471 62.058817 
" clip-path="url(#pc98afe0c0b)" style="fill: none; stroke: #1f77b4; stroke-width: 0.25"/>
    <path d="M 147.48563 238.686526 
L 147.48563 101.625055 
" clip-path="url(#pc98afe0c0b)" style="fill: none; stroke: #1f77b4; stroke-width: 0.25"/>
    <path d="M 284.5471 199.120287 
L 284.5471 62.058817 
" clip-path="url(#pc98afe0c0b)" style="fill: none; stroke: #1f77b4; stroke-width: 0.25"/>
   </g>
   <g id="Poly3DCollection_4">
    <path d="M 155.398877 245.539599 
L 292.460348 205.973361 
L 292.460348 68.91189 
L 155.398877 108.478129 
z
" clip-path="url(#pc98afe0c0b)" style="fill: #0000e1; fill-opacity: 0.1"/>
   </g>
   <g id="Line3DCollection_4">
    <path d="M 155.398877 245.539599 
L 292.460348 205.973361 
" clip-path="url(#pc98afe0c0b)" style="fill: none; stroke: #1f77b4; stroke-width: 0.25"/>
    <path d="M 155.398877 108.478129 
L 292.460348 68.91189 
" clip-path="url(#pc98afe0c0b)" style="fill: none; stroke: #1f77b4; stroke-width: 0.25"/>
    <path d="M 155.398877 245.539599 
L 155.398877 108.478129 
" clip-path="url(#pc98afe0c0b)" style="fill: none; stroke: #1f77b4; stroke-width: 0.25"/>
    <path d="M 292.460348 205.973361 
L 292.460348 68.91189 
" clip-path="url(#pc98afe0c0b)" style="fill: none; stroke: #1f77b4; stroke-width: 0.25"/>
   </g>
   <g id="Poly3DCollection_5">
    <path d="M 163.312125 252.392673 
L 300.373596 212.826434 
L 300.373596 75.764964 
L 163.312125 115.331202 
z
" clip-path="url(#pc98afe0c0b)" style="fill: #0000e1; fill-opacity: 0.1"/>
   </g>
   <g id="Line3DCollection_5">
    <path d="M 163.312125 252.392673 
L 300.373596 212.826434 
" clip-path="url(#pc98afe0c0b)" style="fill: none; stroke: #1f77b4; stroke-width: 0.25"/>
    <path d="M 163.312125 115.331202 
L 300.373596 75.764964 
" clip-path="url(#pc98afe0c0b)" style="fill: none; stroke: #1f77b4; stroke-width: 0.25"/>
    <path d="M 163.312125 252.392673 
L 163.312125 115.331202 
" clip-path="url(#pc98afe0c0b)" style="fill: none; stroke: #1f77b4; stroke-width: 0.25"/>
    <path d="M 300.373596 212.826434 
L 300.373596 75.764964 
" clip-path="url(#pc98afe0c0b)" style="fill: none; stroke: #1f77b4; stroke-width: 0.25"/>
   </g>
   <g id="Poly3DCollection_6">
    <path d="M 171.225373 259.245746 
L 308.286843 219.679508 
L 308.286843 82.618037 
L 171.225373 122.184276 
z
" clip-path="url(#pc98afe0c0b)" style="fill: #0000e1; fill-opacity: 0.1"/>
   </g>
   <g id="Line3DCollection_6">
    <path d="M 171.225373 259.245746 
L 308.286843 219.679508 
" clip-path="url(#pc98afe0c0b)" style="fill: none; stroke: #1f77b4; stroke-width: 0.25"/>
    <path d="M 171.225373 122.184276 
L 308.286843 82.618037 
" clip-path="url(#pc98afe0c0b)" style="fill: none; stroke: #1f77b4; stroke-width: 0.25"/>
    <path d="M 171.225373 259.245746 
L 171.225373 122.184276 
" clip-path="url(#pc98afe0c0b)" style="fill: none; stroke: #1f77b4; stroke-width: 0.25"/>
    <path d="M 308.286843 219.679508 
L 308.286843 82.618037 
" clip-path="url(#pc98afe0c0b)" style="fill: none; stroke: #1f77b4; stroke-width: 0.25"/>
   </g>
   <g id="Poly3DCollection_7">
    <path d="M 179.138621 266.09882 
L 316.200091 226.532581 
L 316.200091 89.471111 
L 179.138621 129.037349 
z
" clip-path="url(#pc98afe0c0b)" style="fill: #0000e1; fill-opacity: 0.1"/>
   </g>
   <g id="Line3DCollection_7">
    <path d="M 179.138621 266.09882 
L 316.200091 226.532581 
" clip-path="url(#pc98afe0c0b)" style="fill: none; stroke: #1f77b4; stroke-width: 0.25"/>
    <path d="M 179.138621 129.037349 
L 316.200091 89.471111 
" clip-path="url(#pc98afe0c0b)" style="fill: none; stroke: #1f77b4; stroke-width: 0.25"/>
    <path d="M 179.138621 266.09882 
L 179.138621 129.037349 
" clip-path="url(#pc98afe0c0b)" style="fill: none; stroke: #1f77b4; stroke-width: 0.25"/>
    <path d="M 316.200091 226.532581 
L 316.200091 89.471111 
" clip-path="url(#pc98afe0c0b)" style="fill: none; stroke: #1f77b4; stroke-width: 0.25"/>
   </g>
   <g id="Poly3DCollection_8">
    <path d="M 187.051868 272.951893 
L 324.113339 233.385655 
L 324.113339 96.324184 
L 187.051868 135.890423 
z
" clip-path="url(#pc98afe0c0b)" style="fill: #0000e1; fill-opacity: 0.1"/>
   </g>
   <g id="Line3DCollection_8">
    <path d="M 187.051868 272.951893 
L 324.113339 233.385655 
" clip-path="url(#pc98afe0c0b)" style="fill: none; stroke: #1f77b4; stroke-width: 0.25"/>
    <path d="M 187.051868 135.890423 
L 324.113339 96.324184 
" clip-path="url(#pc98afe0c0b)" style="fill: none; stroke: #1f77b4; stroke-width: 0.25"/>
    <path d="M 187.051868 272.951893 
L 187.051868 135.890423 
" clip-path="url(#pc98afe0c0b)" style="fill: none; stroke: #1f77b4; stroke-width: 0.25"/>
    <path d="M 324.113339 233.385655 
L 324.113339 96.324184 
" clip-path="url(#pc98afe0c0b)" style="fill: none; stroke: #1f77b4; stroke-width: 0.25"/>
   </g>
   <g id="Poly3DCollection_9">
    <path d="M 194.965116 279.804967 
L 332.026586 240.238728 
L 332.026586 103.177258 
L 194.965116 142.743496 
z
" clip-path="url(#pc98afe0c0b)" style="fill: #0000e1; fill-opacity: 0.1"/>
   </g>
   <g id="Line3DCollection_9">
    <path d="M 194.965116 279.804967 
L 332.026586 240.238728 
" clip-path="url(#pc98afe0c0b)" style="fill: none; stroke: #1f77b4; stroke-width: 0.25"/>
    <path d="M 194.965116 142.743496 
L 332.026586 103.177258 
" clip-path="url(#pc98afe0c0b)" style="fill: none; stroke: #1f77b4; stroke-width: 0.25"/>
    <path d="M 194.965116 279.804967 
L 194.965116 142.743496 
" clip-path="url(#pc98afe0c0b)" style="fill: none; stroke: #1f77b4; stroke-width: 0.25"/>
    <path d="M 332.026586 240.238728 
L 332.026586 103.177258 
" clip-path="url(#pc98afe0c0b)" style="fill: none; stroke: #1f77b4; stroke-width: 0.25"/>
   </g>
   <g id="Poly3DCollection_10">
    <path d="M 202.878364 286.65804 
L 339.939834 247.091802 
L 339.939834 110.030332 
L 202.878364 149.59657 
z
" clip-path="url(#pc98afe0c0b)" style="fill: #0000e1; fill-opacity: 0.1"/>
   </g>
   <g id="Line3DCollection_10">
    <path d="M 202.878364 286.65804 
L 339.939834 247.091802 
" clip-path="url(#pc98afe0c0b)" style="fill: none; stroke: #1f77b4; stroke-width: 0.25"/>
    <path d="M 202.878364 149.59657 
L 339.939834 110.030332 
" clip-path="url(#pc98afe0c0b)" style="fill: none; stroke: #1f77b4; stroke-width: 0.25"/>
    <path d="M 202.878364 286.65804 
L 202.878364 149.59657 
" clip-path="url(#pc98afe0c0b)" style="fill: none; stroke: #1f77b4; stroke-width: 0.25"/>
    <path d="M 339.939834 247.091802 
L 339.939834 110.030332 
" clip-path="url(#pc98afe0c0b)" style="fill: none; stroke: #1f77b4; stroke-width: 0.25"/>
   </g>
   <g id="Poly3DCollection_11">
    <path d="M 210.791611 293.511114 
L 347.853082 253.944876 
L 347.853082 116.883405 
L 210.791611 156.449643 
z
" clip-path="url(#pc98afe0c0b)" style="fill: #0000e1; fill-opacity: 0.1"/>
   </g>
   <g id="Line3DCollection_11">
    <path d="M 210.791611 293.511114 
L 347.853082 253.944876 
" clip-path="url(#pc98afe0c0b)" style="fill: none; stroke: #1f77b4; stroke-width: 0.25"/>
    <path d="M 210.791611 156.449643 
L 347.853082 116.883405 
" clip-path="url(#pc98afe0c0b)" style="fill: none; stroke: #1f77b4; stroke-width: 0.25"/>
    <path d="M 210.791611 293.511114 
L 210.791611 156.449643 
" clip-path="url(#pc98afe0c0b)" style="fill: none; stroke: #1f77b4; stroke-width: 0.25"/>
    <path d="M 347.853082 253.944876 
L 347.853082 116.883405 
" clip-path="url(#pc98afe0c0b)" style="fill: none; stroke: #1f77b4; stroke-width: 0.25"/>
   </g>
  </g>
 </g>
 <defs>
  <clipPath id="pc98afe0c0b">
   <rect x="103.104" y="41.472" width="266.112" height="266.112"/>
  </clipPath>
 </defs>
</svg>
