<?xml version="1.0" encoding="utf-8" standalone="no"?>
<!DOCTYPE svg PUBLIC "-//W3C//DTD SVG 1.1//EN"
  "http://www.w3.org/Graphics/SVG/1.1/DTD/svg11.dtd">
<svg xmlns:xlink="http://www.w3.org/1999/xlink" width="460.8pt" height="345.6pt" viewBox="0 0 460.8 345.6" xmlns="http://www.w3.org/2000/svg" version="1.1">
 <metadata>
  <rdf:RDF xmlns:dc="http://purl.org/dc/elements/1.1/" xmlns:cc="http://creativecommons.org/ns#" xmlns:rdf="http://www.w3.org/1999/02/22-rdf-syntax-ns#">
   <cc:Work>
    <dc:type rdf:resource="http://purl.org/dc/dcmitype/StillImage"/>
    <dc:date>2025-12-16T15:47:02.965755</dc:date>
    <dc:format>image/svg+xml</dc:format>
    <dc:creator>
     <cc:Agent>
      <dc:title>Matplotlib v3.10.6, https://matplotlib.org/</dc:title>
     </cc:Agent>
    </dc:creator>
   </cc:Work>
  </rdf:RDF>
 </metadata>
 <defs>
  <style type="text/css">*{stroke-linejoin: round; stroke-linecap: butt}</style>
 </defs>
 <g id="figure_1">
  <g id="patch_1">
   <path d="M 0 345.6 
L 460.8 345.6 
L 460.8 0 
L 0 0 
z
" style="fill: #ffffff"/>
  </g>
  <g id="patch_2">
   <path d="M 103.104 307.584 
L 369.216 307.584 
L 369.216 41.472 
L 103.104 41.472 
z
" style="fill: #ffffff"/>
  </g>
  <g id="pane3d_1">
   <g id="patch_3">
    <path d="M 347.853082 253.944876 
L 268.720605 185.41414 
L 268.720605 48.35267 
L 347.853082 116.883405 
" style="fill: #f2f2f2; opacity: 0.5; stroke: #f2f2f2; stroke-linejoin: miter"/>
   </g>
  </g>
  <g id="pane3d_2">
   <g id="patch_4">
    <path d="M 131.659134 224.980379 
L 268.720605 185.41414 
L 268.720605 48.35267 
L 131.659134 87.918908 
" style="fill: #e6e6e6; opacity: 0.5; stroke: #e6e6e6; stroke-linejoin: miter"/>
   </g>
  </g>
  <g id="pane3d_3">
   <g id="patch_5">
    <path d="M 210.791611 293.511114 
L 347.853082 253.944876 
L 268.720605 185.41414 
L 131.659134 224.980379 
" style="fill: #ececec; opacity: 0.5; stroke: #ececec; stroke-linejoin: miter"/>
   </g>
  </g>
  <g id="axis3d_1">
   <g id="line2d_1">
    <path d="M 347.853082 253.944876 
L 210.791611 293.511114 
" style="fill: none; stroke: #000000; stroke-width: 0.8; stroke-linecap: square"/>
   </g>
  </g>
  <g id="axis3d_2">
   <g id="line2d_2">
    <path d="M 131.659134 224.980379 
L 210.791611 293.511114 
" style="fill: none; stroke: #000000; stroke-width: 0.8; stroke-linecap: square"/>
   </g>
  </g>
  <g id="axis3d_3">
   <g id="line2d_3">
    <path d="M 131.659134 224.980379 
L 131.659134 87.918908 
" style="fill: none; stroke: #000000; stroke-width: 0.8; stroke-linecap: square"/>
   </g>
  </g>
  <g id="axes_1">
   <g id="Poly3DCollection_1">
    <path d="M 326.233687 251.048426 
L 339.939834 247.091802 
L 339.939834 233.385655 
L 326.233687 237.342279 
z
" clip-path="url(#p27aa8e5481)" style="fill: #0000e1; fill-opacity: 0.1"/>
    <path d="M 312.52754 255.00505 
L 326.233687 251.048426 
L 326.233687 237.342279 
L 312.52754 241.298903 
z
" clip-path="url(#p27aa8e5481)" style="fill: #0000e1; fill-opacity: 0.1"/>
    <path d="M 326.233687 237.342279 
L 339.939834 233.385655 
L 339.939834 219.679508 
L 326.233687 223.636132 
z
" clip-path="url(#p27aa8e5481)" style="fill: #0000e1; fill-opacity: 0.1"/>
    <path d="M 298.821393 258.961674 
L 312.52754 255.00505 
L 312.52754 241.298903 
L 298.821393 245.255526 
z
" clip-path="url(#p27aa8e5481)" style="fill: #0000e1; fill-opacity: 0.1"/>
    <path d="M 312.52754 241.298903 
L 326.233687 237.342279 
L 326.233687 223.636132 
L 312.52754 227.592756 
z
" clip-path="url(#p27aa8e5481)" style="fill: #0000e1; fill-opacity: 0.1"/>
    <path d="M 326.233687 223.636132 
L 339.939834 219.679508 
L 339.939834 205.973361 
L 326.233687 209.929985 
z
" clip-path="url(#p27aa8e5481)" style="fill: #0000e1; fill-opacity: 0.1"/>
    <path d="M 285.115246 262.918297 
L 298.821393 258.961674 
L 298.821393 245.255526 
L 285.115246 249.21215 
z
" clip-path="url(#p27aa8e5481)" style="fill: #0000e1; fill-opacity: 0.1"/>
    <path d="M 298.821393 245.255526 
L 312.52754 241.298903 
L 312.52754 227.592756 
L 298.821393 231.549379 
z
" clip-path="url(#p27aa8e5481)" style="fill: #0000e1; fill-opacity: 0.1"/>
    <path d="M 312.52754 227.592756 
L 326.233687 223.636132 
L 326.233687 209.929985 
L 312.52754 213.886609 
z
" clip-path="url(#p27aa8e5481)" style="fill: #0000e1; fill-opacity: 0.1"/>
    <path d="M 326.233687 209.929985 
L 339.939834 205.973361 
L 339.939834 192.267214 
L 326.233687 196.223838 
z
" clip-path="url(#p27aa8e5481)" style="fill: #0000e1; fill-opacity: 0.1"/>
    <path d="M 271.409099 266.874921 
L 285.115246 262.918297 
L 285.115246 249.21215 
L 271.409099 253.168774 
z
" clip-path="url(#p27aa8e5481)" style="fill: #0000e1; fill-opacity: 0.1"/>
    <path d="M 285.115246 249.21215 
L 298.821393 245.255526 
L 298.821393 231.549379 
L 285.115246 235.506003 
z
" clip-path="url(#p27aa8e5481)" style="fill: #0000e1; fill-opacity: 0.1"/>
    <path d="M 298.821393 231.549379 
L 312.52754 227.592756 
L 312.52754 213.886609 
L 298.821393 217.843232 
z
" clip-path="url(#p27aa8e5481)" style="fill: #0000e1; fill-opacity: 0.1"/>
    <path d="M 312.52754 213.886609 
L 326.233687 209.929985 
L 326.233687 196.223838 
L 312.52754 200.180462 
z
" clip-path="url(#p27aa8e5481)" style="fill: #0000e1; fill-opacity: 0.1"/>
    <path d="M 326.233687 196.223838 
L 339.939834 192.267214 
L 339.939834 178.561067 
L 326.233687 182.517691 
z
" clip-path="url(#p27aa8e5481)" style="fill: #0000e1; fill-opacity: 0.1"/>
    <path d="M 257.702952 270.831545 
L 271.409099 266.874921 
L 271.409099 253.168774 
L 257.702952 257.125398 
z
" clip-path="url(#p27aa8e5481)" style="fill: #0000e1; fill-opacity: 0.1"/>
    <path d="M 271.409099 253.168774 
L 285.115246 249.21215 
L 285.115246 235.506003 
L 271.409099 239.462627 
z
" clip-path="url(#p27aa8e5481)" style="fill: #0000e1; fill-opacity: 0.1"/>
    <path d="M 285.115246 235.506003 
L 298.821393 231.549379 
L 298.821393 217.843232 
L 285.115246 221.799856 
z
" clip-path="url(#p27aa8e5481)" style="fill: #0000e1; fill-opacity: 0.1"/>
    <path d="M 298.821393 217.843232 
L 312.52754 213.886609 
L 312.52754 200.180462 
L 298.821393 204.137085 
z
" clip-path="url(#p27aa8e5481)" style="fill: #0000e1; fill-opacity: 0.1"/>
    <path d="M 312.52754 200.180462 
L 326.233687 196.223838 
L 326.233687 182.517691 
L 312.52754 186.474314 
z
" clip-path="url(#p27aa8e5481)" style="fill: #0000e1; fill-opacity: 0.1"/>
    <path d="M 326.233687 182.517691 
L 339.939834 178.561067 
L 339.939834 164.85492 
L 326.233687 168.811544 
z
" clip-path="url(#p27aa8e5481)" style="fill: #0000e1; fill-opacity: 0.1"/>
    <path d="M 243.996805 274.788169 
L 257.702952 270.831545 
L 257.702952 257.125398 
L 243.996805 261.082022 
z
" clip-path="url(#p27aa8e5481)" style="fill: #0000e1; fill-opacity: 0.1"/>
    <path d="M 257.702952 257.125398 
L 271.409099 253.168774 
L 271.409099 239.462627 
L 257.702952 243.419251 
z
" clip-path="url(#p27aa8e5481)" style="fill: #0000e1; fill-opacity: 0.1"/>
    <path d="M 271.409099 239.462627 
L 285.115246 235.506003 
L 285.115246 221.799856 
L 271.409099 225.75648 
z
" clip-path="url(#p27aa8e5481)" style="fill: #0000e1; fill-opacity: 0.1"/>
    <path d="M 285.115246 221.799856 
L 298.821393 217.843232 
L 298.821393 204.137085 
L 285.115246 208.093709 
z
" clip-path="url(#p27aa8e5481)" style="fill: #0000e1; fill-opacity: 0.1"/>
    <path d="M 298.821393 204.137085 
L 312.52754 200.180462 
L 312.52754 186.474314 
L 298.821393 190.430938 
z
" clip-path="url(#p27aa8e5481)" style="fill: #0000e1; fill-opacity: 0.1"/>
    <path d="M 312.52754 186.474314 
L 326.233687 182.517691 
L 326.233687 168.811544 
L 312.52754 172.768167 
z
" clip-path="url(#p27aa8e5481)" style="fill: #0000e1; fill-opacity: 0.1"/>
    <path d="M 326.233687 168.811544 
L 339.939834 164.85492 
L 339.939834 151.148773 
L 326.233687 155.105397 
z
" clip-path="url(#p27aa8e5481)" style="fill: #0000e1; fill-opacity: 0.1"/>
    <path d="M 230.290658 278.744793 
L 243.996805 274.788169 
L 243.996805 261.082022 
L 230.290658 265.038646 
z
" clip-path="url(#p27aa8e5481)" style="fill: #0000e1; fill-opacity: 0.1"/>
    <path d="M 243.996805 261.082022 
L 257.702952 257.125398 
L 257.702952 243.419251 
L 243.996805 247.375875 
z
" clip-path="url(#p27aa8e5481)" style="fill: #0000e1; fill-opacity: 0.1"/>
    <path d="M 257.702952 243.419251 
L 271.409099 239.462627 
L 271.409099 225.75648 
L 257.702952 229.713104 
z
" clip-path="url(#p27aa8e5481)" style="fill: #0000e1; fill-opacity: 0.1"/>
    <path d="M 271.409099 225.75648 
L 285.115246 221.799856 
L 285.115246 208.093709 
L 271.409099 212.050333 
z
" clip-path="url(#p27aa8e5481)" style="fill: #0000e1; fill-opacity: 0.1"/>
    <path d="M 285.115246 208.093709 
L 298.821393 204.137085 
L 298.821393 190.430938 
L 285.115246 194.387562 
z
" clip-path="url(#p27aa8e5481)" style="fill: #0000e1; fill-opacity: 0.1"/>
    <path d="M 298.821393 190.430938 
L 312.52754 186.474314 
L 312.52754 172.768167 
L 298.821393 176.724791 
z
" clip-path="url(#p27aa8e5481)" style="fill: #0000e1; fill-opacity: 0.1"/>
    <path d="M 312.52754 172.768167 
L 326.233687 168.811544 
L 326.233687 155.105397 
L 312.52754 159.06202 
z
" clip-path="url(#p27aa8e5481)" style="fill: #0000e1; fill-opacity: 0.1"/>
    <path d="M 216.584511 282.701417 
L 230.290658 278.744793 
L 230.290658 265.038646 
L 216.584511 268.99527 
z
" clip-path="url(#p27aa8e5481)" style="fill: #0000e1; fill-opacity: 0.1"/>
    <path d="M 326.233687 155.105397 
L 339.939834 151.148773 
L 339.939834 137.442626 
L 326.233687 141.399249 
z
" clip-path="url(#p27aa8e5481)" style="fill: #0000e1; fill-opacity: 0.1"/>
    <path d="M 230.290658 265.038646 
L 243.996805 261.082022 
L 243.996805 247.375875 
L 230.290658 251.332499 
z
" clip-path="url(#p27aa8e5481)" style="fill: #0000e1; fill-opacity: 0.1"/>
    <path d="M 243.996805 247.375875 
L 257.702952 243.419251 
L 257.702952 229.713104 
L 243.996805 233.669728 
z
" clip-path="url(#p27aa8e5481)" style="fill: #0000e1; fill-opacity: 0.1"/>
    <path d="M 257.702952 229.713104 
L 271.409099 225.75648 
L 271.409099 212.050333 
L 257.702952 216.006957 
z
" clip-path="url(#p27aa8e5481)" style="fill: #0000e1; fill-opacity: 0.1"/>
    <path d="M 271.409099 212.050333 
L 285.115246 208.093709 
L 285.115246 194.387562 
L 271.409099 198.344186 
z
" clip-path="url(#p27aa8e5481)" style="fill: #0000e1; fill-opacity: 0.1"/>
    <path d="M 285.115246 194.387562 
L 298.821393 190.430938 
L 298.821393 176.724791 
L 285.115246 180.681415 
z
" clip-path="url(#p27aa8e5481)" style="fill: #0000e1; fill-opacity: 0.1"/>
    <path d="M 298.821393 176.724791 
L 312.52754 172.768167 
L 312.52754 159.06202 
L 298.821393 163.018644 
z
" clip-path="url(#p27aa8e5481)" style="fill: #0000e1; fill-opacity: 0.1"/>
    <path d="M 202.878364 286.65804 
L 216.584511 282.701417 
L 216.584511 268.99527 
L 202.878364 272.951893 
z
" clip-path="url(#p27aa8e5481)" style="fill: #0000e1; fill-opacity: 0.1"/>
    <path d="M 312.52754 159.06202 
L 326.233687 155.105397 
L 326.233687 141.399249 
L 312.52754 145.355873 
z
" clip-path="url(#p27aa8e5481)" style="fill: #0000e1; fill-opacity: 0.1"/>
    <path d="M 216.584511 268.99527 
L 230.290658 265.038646 
L 230.290658 251.332499 
L 216.584511 255.289123 
z
" clip-path="url(#p27aa8e5481)" style="fill: #0000e1; fill-opacity: 0.1"/>
    <path d="M 326.233687 141.399249 
L 339.939834 137.442626 
L 339.939834 123.736479 
L 326.233687 127.693102 
z
" clip-path="url(#p27aa8e5481)" style="fill: #0000e1; fill-opacity: 0.1"/>
    <path d="M 230.290658 251.332499 
L 243.996805 247.375875 
L 243.996805 233.669728 
L 230.290658 237.626352 
z
" clip-path="url(#p27aa8e5481)" style="fill: #0000e1; fill-opacity: 0.1"/>
    <path d="M 243.996805 233.669728 
L 257.702952 229.713104 
L 257.702952 216.006957 
L 243.996805 219.963581 
z
" clip-path="url(#p27aa8e5481)" style="fill: #0000e1; fill-opacity: 0.1"/>
    <path d="M 257.702952 216.006957 
L 271.409099 212.050333 
L 271.409099 198.344186 
L 257.702952 202.30081 
z
" clip-path="url(#p27aa8e5481)" style="fill: #0000e1; fill-opacity: 0.1"/>
    <path d="M 271.409099 198.344186 
L 285.115246 194.387562 
L 285.115246 180.681415 
L 271.409099 184.638039 
z
" clip-path="url(#p27aa8e5481)" style="fill: #0000e1; fill-opacity: 0.1"/>
    <path d="M 285.115246 180.681415 
L 298.821393 176.724791 
L 298.821393 163.018644 
L 285.115246 166.975268 
z
" clip-path="url(#p27aa8e5481)" style="fill: #0000e1; fill-opacity: 0.1"/>
    <path d="M 298.821393 163.018644 
L 312.52754 159.06202 
L 312.52754 145.355873 
L 298.821393 149.312497 
z
" clip-path="url(#p27aa8e5481)" style="fill: #0000e1; fill-opacity: 0.1"/>
    <path d="M 202.878364 272.951893 
L 216.584511 268.99527 
L 216.584511 255.289123 
L 202.878364 259.245746 
z
" clip-path="url(#p27aa8e5481)" style="fill: #0000e1; fill-opacity: 0.1"/>
    <path d="M 312.52754 145.355873 
L 326.233687 141.399249 
L 326.233687 127.693102 
L 312.52754 131.649726 
z
" clip-path="url(#p27aa8e5481)" style="fill: #0000e1; fill-opacity: 0.1"/>
    <path d="M 216.584511 255.289123 
L 230.290658 251.332499 
L 230.290658 237.626352 
L 216.584511 241.582975 
z
" clip-path="url(#p27aa8e5481)" style="fill: #0000e1; fill-opacity: 0.1"/>
    <path d="M 326.233687 127.693102 
L 339.939834 123.736479 
L 339.939834 110.030332 
L 326.233687 113.986955 
z
" clip-path="url(#p27aa8e5481)" style="fill: #0000e1; fill-opacity: 0.1"/>
    <path d="M 230.290658 237.626352 
L 243.996805 233.669728 
L 243.996805 219.963581 
L 230.290658 223.920205 
z
" clip-path="url(#p27aa8e5481)" style="fill: #0000e1; fill-opacity: 0.1"/>
    <path d="M 243.996805 219.963581 
L 257.702952 216.006957 
L 257.702952 202.30081 
L 243.996805 206.257434 
z
" clip-path="url(#p27aa8e5481)" style="fill: #0000e1; fill-opacity: 0.1"/>
    <path d="M 257.702952 202.30081 
L 271.409099 198.344186 
L 271.409099 184.638039 
L 257.702952 188.594663 
z
" clip-path="url(#p27aa8e5481)" style="fill: #0000e1; fill-opacity: 0.1"/>
    <path d="M 271.409099 184.638039 
L 285.115246 180.681415 
L 285.115246 166.975268 
L 271.409099 170.931892 
z
" clip-path="url(#p27aa8e5481)" style="fill: #0000e1; fill-opacity: 0.1"/>
    <path d="M 285.115246 166.975268 
L 298.821393 163.018644 
L 298.821393 149.312497 
L 285.115246 153.269121 
z
" clip-path="url(#p27aa8e5481)" style="fill: #0000e1; fill-opacity: 0.1"/>
    <path d="M 298.821393 149.312497 
L 312.52754 145.355873 
L 312.52754 131.649726 
L 298.821393 135.60635 
z
" clip-path="url(#p27aa8e5481)" style="fill: #0000e1; fill-opacity: 0.1"/>
    <path d="M 202.878364 259.245746 
L 216.584511 255.289123 
L 216.584511 241.582975 
L 202.878364 245.539599 
z
" clip-path="url(#p27aa8e5481)" style="fill: #0000e1; fill-opacity: 0.1"/>
    <path d="M 312.52754 131.649726 
L 326.233687 127.693102 
L 326.233687 113.986955 
L 312.52754 117.943579 
z
" clip-path="url(#p27aa8e5481)" style="fill: #0000e1; fill-opacity: 0.1"/>
    <path d="M 216.584511 241.582975 
L 230.290658 237.626352 
L 230.290658 223.920205 
L 216.584511 227.876828 
z
" clip-path="url(#p27aa8e5481)" style="fill: #0000e1; fill-opacity: 0.1"/>
    <path d="M 230.290658 223.920205 
L 243.996805 219.963581 
L 243.996805 206.257434 
L 230.290658 210.214058 
z
" clip-path="url(#p27aa8e5481)" style="fill: #0000e1; fill-opacity: 0.1"/>
    <path d="M 243.996805 206.257434 
L 257.702952 202.30081 
L 257.702952 188.594663 
L 243.996805 192.551287 
z
" clip-path="url(#p27aa8e5481)" style="fill: #0000e1; fill-opacity: 0.1"/>
    <path d="M 257.702952 188.594663 
L 271.409099 184.638039 
L 271.409099 170.931892 
L 257.702952 174.888516 
z
" clip-path="url(#p27aa8e5481)" style="fill: #0000e1; fill-opacity: 0.1"/>
    <path d="M 271.409099 170.931892 
L 285.115246 166.975268 
L 285.115246 153.269121 
L 271.409099 157.225745 
z
" clip-path="url(#p27aa8e5481)" style="fill: #0000e1; fill-opacity: 0.1"/>
    <path d="M 285.115246 153.269121 
L 298.821393 149.312497 
L 298.821393 135.60635 
L 285.115246 139.562974 
z
" clip-path="url(#p27aa8e5481)" style="fill: #0000e1; fill-opacity: 0.1"/>
    <path d="M 298.821393 135.60635 
L 312.52754 131.649726 
L 312.52754 117.943579 
L 298.821393 121.900203 
z
" clip-path="url(#p27aa8e5481)" style="fill: #0000e1; fill-opacity: 0.1"/>
    <path d="M 202.878364 245.539599 
L 216.584511 241.582975 
L 216.584511 227.876828 
L 202.878364 231.833452 
z
" clip-path="url(#p27aa8e5481)" style="fill: #0000e1; fill-opacity: 0.1"/>
    <path d="M 216.584511 227.876828 
L 230.290658 223.920205 
L 230.290658 210.214058 
L 216.584511 214.170681 
z
" clip-path="url(#p27aa8e5481)" style="fill: #0000e1; fill-opacity: 0.1"/>
    <path d="M 230.290658 210.214058 
L 243.996805 206.257434 
L 243.996805 192.551287 
L 230.290658 196.50791 
z
" clip-path="url(#p27aa8e5481)" style="fill: #0000e1; fill-opacity: 0.1"/>
    <path d="M 243.996805 192.551287 
L 257.702952 188.594663 
L 257.702952 174.888516 
L 243.996805 178.84514 
z
" clip-path="url(#p27aa8e5481)" style="fill: #0000e1; fill-opacity: 0.1"/>
    <path d="M 257.702952 174.888516 
L 271.409099 170.931892 
L 271.409099 157.225745 
L 257.702952 161.182369 
z
" clip-path="url(#p27aa8e5481)" style="fill: #0000e1; fill-opacity: 0.1"/>
    <path d="M 271.409099 157.225745 
L 285.115246 153.269121 
L 285.115246 139.562974 
L 271.409099 143.519598 
z
" clip-path="url(#p27aa8e5481)" style="fill: #0000e1; fill-opacity: 0.1"/>
    <path d="M 285.115246 139.562974 
L 298.821393 135.60635 
L 298.821393 121.900203 
L 285.115246 125.856827 
z
" clip-path="url(#p27aa8e5481)" style="fill: #0000e1; fill-opacity: 0.1"/>
    <path d="M 202.878364 231.833452 
L 216.584511 227.876828 
L 216.584511 214.170681 
L 202.878364 218.127305 
z
" clip-path="url(#p27aa8e5481)" style="fill: #0000e1; fill-opacity: 0.1"/>
    <path d="M 216.584511 214.170681 
L 230.290658 210.214058 
L 230.290658 196.50791 
L 216.584511 200.464534 
z
" clip-path="url(#p27aa8e5481)" style="fill: #0000e1; fill-opacity: 0.1"/>
    <path d="M 230.290658 196.50791 
L 243.996805 192.551287 
L 243.996805 178.84514 
L 230.290658 182.801763 
z
" clip-path="url(#p27aa8e5481)" style="fill: #0000e1; fill-opacity: 0.1"/>
    <path d="M 243.996805 178.84514 
L 257.702952 174.888516 
L 257.702952 161.182369 
L 243.996805 165.138993 
z
" clip-path="url(#p27aa8e5481)" style="fill: #0000e1; fill-opacity: 0.1"/>
    <path d="M 257.702952 161.182369 
L 271.409099 157.225745 
L 271.409099 143.519598 
L 257.702952 147.476222 
z
" clip-path="url(#p27aa8e5481)" style="fill: #0000e1; fill-opacity: 0.1"/>
    <path d="M 271.409099 143.519598 
L 285.115246 139.562974 
L 285.115246 125.856827 
L 271.409099 129.813451 
z
" clip-path="url(#p27aa8e5481)" style="fill: #0000e1; fill-opacity: 0.1"/>
    <path d="M 202.878364 218.127305 
L 216.584511 214.170681 
L 216.584511 200.464534 
L 202.878364 204.421158 
z
" clip-path="url(#p27aa8e5481)" style="fill: #0000e1; fill-opacity: 0.1"/>
    <path d="M 216.584511 200.464534 
L 230.290658 196.50791 
L 230.290658 182.801763 
L 216.584511 186.758387 
z
" clip-path="url(#p27aa8e5481)" style="fill: #0000e1; fill-opacity: 0.1"/>
    <path d="M 230.290658 182.801763 
L 243.996805 178.84514 
L 243.996805 165.138993 
L 230.290658 169.095616 
z
" clip-path="url(#p27aa8e5481)" style="fill: #0000e1; fill-opacity: 0.1"/>
    <path d="M 243.996805 165.138993 
L 257.702952 161.182369 
L 257.702952 147.476222 
L 243.996805 151.432845 
z
" clip-path="url(#p27aa8e5481)" style="fill: #0000e1; fill-opacity: 0.1"/>
    <path d="M 257.702952 147.476222 
L 271.409099 143.519598 
L 271.409099 129.813451 
L 257.702952 133.770075 
z
" clip-path="url(#p27aa8e5481)" style="fill: #0000e1; fill-opacity: 0.1"/>
    <path d="M 202.878364 204.421158 
L 216.584511 200.464534 
L 216.584511 186.758387 
L 202.878364 190.715011 
z
" clip-path="url(#p27aa8e5481)" style="fill: #0000e1; fill-opacity: 0.1"/>
    <path d="M 216.584511 186.758387 
L 230.290658 182.801763 
L 230.290658 169.095616 
L 216.584511 173.05224 
z
" clip-path="url(#p27aa8e5481)" style="fill: #0000e1; fill-opacity: 0.1"/>
    <path d="M 230.290658 169.095616 
L 243.996805 165.138993 
L 243.996805 151.432845 
L 230.290658 155.389469 
z
" clip-path="url(#p27aa8e5481)" style="fill: #0000e1; fill-opacity: 0.1"/>
    <path d="M 243.996805 151.432845 
L 257.702952 147.476222 
L 257.702952 133.770075 
L 243.996805 137.726698 
z
" clip-path="url(#p27aa8e5481)" style="fill: #0000e1; fill-opacity: 0.1"/>
    <path d="M 202.878364 190.715011 
L 216.584511 186.758387 
L 216.584511 173.05224 
L 202.878364 177.008864 
z
" clip-path="url(#p27aa8e5481)" style="fill: #0000e1; fill-opacity: 0.1"/>
    <path d="M 216.584511 173.05224 
L 230.290658 169.095616 
L 230.290658 155.389469 
L 216.584511 159.346093 
z
" clip-path="url(#p27aa8e5481)" style="fill: #0000e1; fill-opacity: 0.1"/>
    <path d="M 230.290658 155.389469 
L 243.996805 151.432845 
L 243.996805 137.726698 
L 230.290658 141.683322 
z
" clip-path="url(#p27aa8e5481)" style="fill: #0000e1; fill-opacity: 0.1"/>
    <path d="M 202.878364 177.008864 
L 216.584511 173.05224 
L 216.584511 159.346093 
L 202.878364 163.302717 
z
" clip-path="url(#p27aa8e5481)" style="fill: #0000e1; fill-opacity: 0.1"/>
    <path d="M 216.584511 159.346093 
L 230.290658 155.389469 
L 230.290658 141.683322 
L 216.584511 145.639946 
z
" clip-path="url(#p27aa8e5481)" style="fill: #0000e1; fill-opacity: 0.1"/>
    <path d="M 202.878364 163.302717 
L 216.584511 159.346093 
L 216.584511 145.639946 
L 202.878364 149.59657 
z
" clip-path="url(#p27aa8e5481)" style="fill: #0000e1; fill-opacity: 0.1"/>
   </g>
   <g id="Line3DCollection_1">
    <path d="M 202.878364 286.65804 
L 216.584511 282.701417 
L 230.290658 278.744793 
L 243.996805 274.788169 
L 257.702952 270.831545 
L 271.409099 266.874921 
L 285.115246 262.918297 
L 298.821393 258.961674 
L 312.52754 255.00505 
L 326.233687 251.048426 
L 339.939834 247.091802 
" clip-path="url(#p27aa8e5481)" style="fill: none; stroke: #1f77b4; stroke-width: 1.5"/>
    <path d="M 202.878364 272.951893 
L 216.584511 268.99527 
L 230.290658 265.038646 
L 243.996805 261.082022 
L 257.702952 257.125398 
L 271.409099 253.168774 
L 285.115246 249.21215 
L 298.821393 245.255526 
L 312.52754 241.298903 
L 326.233687 237.342279 
L 339.939834 233.385655 
" clip-path="url(#p27aa8e5481)" style="fill: none; stroke: #1f77b4; stroke-width: 1.5"/>
    <path d="M 202.878364 259.245746 
L 216.584511 255.289123 
L 230.290658 251.332499 
L 243.996805 247.375875 
L 257.702952 243.419251 
L 271.409099 239.462627 
L 285.115246 235.506003 
L 298.821393 231.549379 
L 312.52754 227.592756 
L 326.233687 223.636132 
L 339.939834 219.679508 
" clip-path="url(#p27aa8e5481)" style="fill: none; stroke: #1f77b4; stroke-width: 1.5"/>
    <path d="M 202.878364 245.539599 
L 216.584511 241.582975 
L 230.290658 237.626352 
L 243.996805 233.669728 
L 257.702952 229.713104 
L 271.409099 225.75648 
L 285.115246 221.799856 
L 298.821393 217.843232 
L 312.52754 213.886609 
L 326.233687 209.929985 
L 339.939834 205.973361 
" clip-path="url(#p27aa8e5481)" style="fill: none; stroke: #1f77b4; stroke-width: 1.5"/>
    <path d="M 202.878364 231.833452 
L 216.584511 227.876828 
L 230.290658 223.920205 
L 243.996805 219.963581 
L 257.702952 216.006957 
L 271.409099 212.050333 
L 285.115246 208.093709 
L 298.821393 204.137085 
L 312.52754 200.180462 
L 326.233687 196.223838 
L 339.939834 192.267214 
" clip-path="url(#p27aa8e5481)" style="fill: none; stroke: #1f77b4; stroke-width: 1.5"/>
    <path d="M 202.878364 218.127305 
L 216.584511 214.170681 
L 230.290658 210.214058 
L 243.996805 206.257434 
L 257.702952 202.30081 
L 271.409099 198.344186 
L 285.115246 194.387562 
L 298.821393 190.430938 
L 312.52754 186.474314 
L 326.233687 182.517691 
L 339.939834 178.561067 
" clip-path="url(#p27aa8e5481)" style="fill: none; stroke: #1f77b4; stroke-width: 1.5"/>
    <path d="M 202.878364 204.421158 
L 216.584511 200.464534 
L 230.290658 196.50791 
L 243.996805 192.551287 
L 257.702952 188.594663 
L 271.409099 184.638039 
L 285.115246 180.681415 
L 298.821393 176.724791 
L 312.52754 172.768167 
L 326.233687 168.811544 
L 339.939834 164.85492 
" clip-path="url(#p27aa8e5481)" style="fill: none; stroke: #1f77b4; stroke-width: 1.5"/>
    <path d="M 202.878364 190.715011 
L 216.584511 186.758387 
L 230.290658 182.801763 
L 243.996805 178.84514 
L 257.702952 174.888516 
L 271.409099 170.931892 
L 285.115246 166.975268 
L 298.821393 163.018644 
L 312.52754 159.06202 
L 326.233687 155.105397 
L 339.939834 151.148773 
" clip-path="url(#p27aa8e5481)" style="fill: none; stroke: #1f77b4; stroke-width: 1.5"/>
    <path d="M 202.878364 177.008864 
L 216.584511 173.05224 
L 230.290658 169.095616 
L 243.996805 165.138993 
L 257.702952 161.182369 
L 271.409099 157.225745 
L 285.115246 153.269121 
L 298.821393 149.312497 
L 312.52754 145.355873 
L 326.233687 141.399249 
L 339.939834 137.442626 
" clip-path="url(#p27aa8e5481)" style="fill: none; stroke: #1f77b4; stroke-width: 1.5"/>
    <path d="M 202.878364 163.302717 
L 216.584511 159.346093 
L 230.290658 155.389469 
L 243.996805 151.432845 
L 257.702952 147.476222 
L 271.409099 143.519598 
L 285.115246 139.562974 
L 298.821393 135.60635 
L 312.52754 131.649726 
L 326.233687 127.693102 
L 339.939834 123.736479 
" clip-path="url(#p27aa8e5481)" style="fill: none; stroke: #1f77b4; stroke-width: 1.5"/>
    <path d="M 202.878364 149.59657 
L 216.584511 145.639946 
L 230.290658 141.683322 
L 243.996805 137.726698 
L 257.702952 133.770075 
L 271.409099 129.813451 
L 285.115246 125.856827 
L 298.821393 121.900203 
L 312.52754 117.943579 
L 326.233687 113.986955 
L 339.939834 110.030332 
" clip-path="url(#p27aa8e5481)" style="fill: none; stroke: #1f77b4; stroke-width: 1.5"/>
    <path d="M 202.878364 286.65804 
L 202.878364 272.951893 
L 202.878364 259.245746 
L 202.878364 245.539599 
L 202.878364 231.833452 
L 202.878364 218.127305 
L 202.878364 204.421158 
L 202.878364 190.715011 
L 202.878364 177.008864 
L 202.878364 163.302717 
L 202.878364 149.59657 
" clip-path="url(#p27aa8e5481)" style="fill: none; stroke: #1f77b4; stroke-width: 1.5"/>
    <path d="M 216.584511 282.701417 
L 216.584511 268.99527 
L 216.584511 255.289123 
L 216.584511 241.582975 
L 216.584511 227.876828 
L 216.584511 214.170681 
L 216.584511 200.464534 
L 216.584511 186.758387 
L 216.584511 173.05224 
L 216.584511 159.346093 
L 216.584511 145.639946 
" clip-path="url(#p27aa8e5481)" style="fill: none; stroke: #1f77b4; stroke-width: 1.5"/>
    <path d="M 230.290658 278.744793 
L 230.290658 265.038646 
L 230.290658 251.332499 
L 230.290658 237.626352 
L 230.290658 223.920205 
L 230.290658 210.214058 
L 230.290658 196.50791 
L 230.290658 182.801763 
L 230.290658 169.095616 
L 230.290658 155.389469 
L 230.290658 141.683322 
" clip-path="url(#p27aa8e5481)" style="fill: none; stroke: #1f77b4; stroke-width: 1.5"/>
    <path d="M 243.996805 274.788169 
L 243.996805 261.082022 
L 243.996805 247.375875 
L 243.996805 233.669728 
L 243.996805 219.963581 
L 243.996805 206.257434 
L 243.996805 192.551287 
L 243.996805 178.84514 
L 243.996805 165.138993 
L 243.996805 151.432845 
L 243.996805 137.726698 
" clip-path="url(#p27aa8e5481)" style="fill: none; stroke: #1f77b4; stroke-width: 1.5"/>
    <path d="M 257.702952 270.831545 
L 257.702952 257.125398 
L 257.702952 243.419251 
L 257.702952 229.713104 
L 257.702952 216.006957 
L 257.702952 202.30081 
L 257.702952 188.594663 
L 257.702952 174.888516 
L 257.702952 161.182369 
L 257.702952 147.476222 
L 257.702952 133.770075 
" clip-path="url(#p27aa8e5481)" style="fill: none; stroke: #1f77b4; stroke-width: 1.5"/>
    <path d="M 271.409099 266.874921 
L 271.409099 253.168774 
L 271.409099 239.462627 
L 271.409099 225.75648 
L 271.409099 212.050333 
L 271.409099 198.344186 
L 271.409099 184.638039 
L 271.409099 170.931892 
L 271.409099 157.225745 
L 271.409099 143.519598 
L 271.409099 129.813451 
" clip-path="url(#p27aa8e5481)" style="fill: none; stroke: #1f77b4; stroke-width: 1.5"/>
    <path d="M 285.115246 262.918297 
L 285.115246 249.21215 
L 285.115246 235.506003 
L 285.115246 221.799856 
L 285.115246 208.093709 
L 285.115246 194.387562 
L 285.115246 180.681415 
L 285.115246 166.975268 
L 285.115246 153.269121 
L 285.115246 139.562974 
L 285.115246 125.856827 
" clip-path="url(#p27aa8e5481)" style="fill: none; stroke: #1f77b4; stroke-width: 1.5"/>
    <path d="M 298.821393 258.961674 
L 298.821393 245.255526 
L 298.821393 231.549379 
L 298.821393 217.843232 
L 298.821393 204.137085 
L 298.821393 190.430938 
L 298.821393 176.724791 
L 298.821393 163.018644 
L 298.821393 149.312497 
L 298.821393 135.60635 
L 298.821393 121.900203 
" clip-path="url(#p27aa8e5481)" style="fill: none; stroke: #1f77b4; stroke-width: 1.5"/>
    <path d="M 312.52754 255.00505 
L 312.52754 241.298903 
L 312.52754 227.592756 
L 312.52754 213.886609 
L 312.52754 200.180462 
L 312.52754 186.474314 
L 312.52754 172.768167 
L 312.52754 159.06202 
L 312.52754 145.355873 
L 312.52754 131.649726 
L 312.52754 117.943579 
" clip-path="url(#p27aa8e5481)" style="fill: none; stroke: #1f77b4; stroke-width: 1.5"/>
    <path d="M 326.233687 251.048426 
L 326.233687 237.342279 
L 326.233687 223.636132 
L 326.233687 209.929985 
L 326.233687 196.223838 
L 326.233687 182.517691 
L 326.233687 168.811544 
L 326.233687 155.105397 
L 326.233687 141.399249 
L 326.233687 127.693102 
L 326.233687 113.986955 
" clip-path="url(#p27aa8e5481)" style="fill: none; stroke: #1f77b4; stroke-width: 1.5"/>
    <path d="M 339.939834 247.091802 
L 339.939834 233.385655 
L 339.939834 219.679508 
L 339.939834 205.973361 
L 339.939834 192.267214 
L 339.939834 178.561067 
L 339.939834 164.85492 
L 339.939834 151.148773 
L 339.939834 137.442626 
L 339.939834 123.736479 
L 339.939834 110.030332 
" clip-path="url(#p27aa8e5481)" style="fill: none; stroke: #1f77b4; stroke-width: 1.5"/>
   </g>
  </g>
 </g>
 <defs>
  <clipPath id="p27aa8e5481">
   <rect x="103.104" y="41.472" width="266.112" height="266.112"/>
  </clipPath>
 </defs>
</svg>
