<?xml version="1.0" encoding="utf-8" standalone="no"?>
<!DOCTYPE svg PUBLIC "-//W3C//DTD SVG 1.1//EN"
  "http://www.w3.org/Graphics/SVG/1.1/DTD/svg11.dtd">
<svg xmlns:xlink="http://www.w3.org/1999/xlink" width="460.8pt" height="345.6pt" viewBox="0 0 460.8 345.6" xmlns="http://www.w3.org/2000/svg" version="1.1">
 <metadata>
  <rdf:RDF xmlns:dc="http://purl.org/dc/elements/1.1/" xmlns:cc="http://creativecommons.org/ns#" xmlns:rdf="http://www.w3.org/1999/02/22-rdf-syntax-ns#">
   <cc:Work>
    <dc:type rdf:resource="http://purl.org/dc/dcmitype/StillImage"/>
    <dc:date>2025-12-16T15:47:21.713916</dc:date>
    <dc:format>image/svg+xml</dc:format>
    <dc:creator>
     <cc:Agent>
      <dc:title>Matplotlib v3.10.6, https://matplotlib.org/</dc:title>
     </cc:Agent>
    </dc:creator>
   </cc:Work>
  </rdf:RDF>
 </metadata>
 <defs>
  <style type="text/css">*{stroke-linejoin: round; stroke-linecap: butt}</style>
 </defs>
 <g id="figure_1">
  <g id="patch_1">
   <path d="M 0 345.6 
L 460.8 345.6 
L 460.8 0 
L 0 0 
z
" style="fill: #ffffff"/>
  </g>
  <g id="patch_2">
   <path d="M 103.104 307.584 
L 369.216 307.584 
L 369.216 41.472 
L 103.104 41.472 
z
" style="fill: #ffffff"/>
  </g>
  <g id="pane3d_1">
   <g id="patch_3">
    <path d="M 347.853082 253.944876 
L 268.720605 185.41414 
L 268.720605 48.35267 
L 347.853082 116.883405 
" style="fill: #f2f2f2; opacity: 0.5; stroke: #f2f2f2; stroke-linejoin: miter"/>
   </g>
  </g>
  <g id="pane3d_2">
   <g id="patch_4">
    <path d="M 131.659134 224.980379 
L 268.720605 185.41414 
L 268.720605 48.35267 
L 131.659134 87.918908 
" style="fill: #e6e6e6; opacity: 0.5; stroke: #e6e6e6; stroke-linejoin: miter"/>
   </g>
  </g>
  <g id="pane3d_3">
   <g id="patch_5">
    <path d="M 210.791611 293.511114 
L 347.853082 253.944876 
L 268.720605 185.41414 
L 131.659134 224.980379 
" style="fill: #ececec; opacity: 0.5; stroke: #ececec; stroke-linejoin: miter"/>
   </g>
  </g>
  <g id="axis3d_1">
   <g id="line2d_1">
    <path d="M 347.853082 253.944876 
L 210.791611 293.511114 
" style="fill: none; stroke: #000000; stroke-width: 0.8; stroke-linecap: square"/>
   </g>
  </g>
  <g id="axis3d_2">
   <g id="line2d_2">
    <path d="M 131.659134 224.980379 
L 210.791611 293.511114 
" style="fill: none; stroke: #000000; stroke-width: 0.8; stroke-linecap: square"/>
   </g>
  </g>
  <g id="axis3d_3">
   <g id="line2d_3">
    <path d="M 131.659134 224.980379 
L 131.659134 87.918908 
" style="fill: none; stroke: #000000; stroke-width: 0.8; stroke-linecap: square"/>
   </g>
  </g>
  <g id="axes_1">
   <g id="Poly3DCollection_1">
    <path d="M 153.278529 227.876828 
L 145.365281 221.023755 
L 145.365281 207.317608 
L 153.278529 214.170681 
z
" clip-path="url(#p80769f9cdd)" style="fill: #00006a; fill-opacity: 0.1"/>
    <path d="M 153.278529 214.170681 
L 145.365281 207.317608 
L 145.365281 193.611461 
L 153.278529 200.464534 
z
" clip-path="url(#p80769f9cdd)" style="fill: #00006a; fill-opacity: 0.1"/>
    <path d="M 161.191777 234.729902 
L 153.278529 227.876828 
L 153.278529 214.170681 
L 161.191777 221.023755 
z
" clip-path="url(#p80769f9cdd)" style="fill: #00006a; fill-opacity: 0.1"/>
    <path d="M 153.278529 200.464534 
L 145.365281 193.611461 
L 145.365281 179.905314 
L 153.278529 186.758387 
z
" clip-path="url(#p80769f9cdd)" style="fill: #00006a; fill-opacity: 0.1"/>
    <path d="M 161.191777 221.023755 
L 153.278529 214.170681 
L 153.278529 200.464534 
L 161.191777 207.317608 
z
" clip-path="url(#p80769f9cdd)" style="fill: #00006a; fill-opacity: 0.1"/>
    <path d="M 169.105025 241.582975 
L 161.191777 234.729902 
L 161.191777 221.023755 
L 169.105025 227.876828 
z
" clip-path="url(#p80769f9cdd)" style="fill: #00006a; fill-opacity: 0.1"/>
    <path d="M 153.278529 186.758387 
L 145.365281 179.905314 
L 145.365281 166.199167 
L 153.278529 173.05224 
z
" clip-path="url(#p80769f9cdd)" style="fill: #00006a; fill-opacity: 0.1"/>
    <path d="M 161.191777 207.317608 
L 153.278529 200.464534 
L 153.278529 186.758387 
L 161.191777 193.611461 
z
" clip-path="url(#p80769f9cdd)" style="fill: #00006a; fill-opacity: 0.1"/>
    <path d="M 169.105025 227.876828 
L 161.191777 221.023755 
L 161.191777 207.317608 
L 169.105025 214.170681 
z
" clip-path="url(#p80769f9cdd)" style="fill: #00006a; fill-opacity: 0.1"/>
    <path d="M 153.278529 173.05224 
L 145.365281 166.199167 
L 145.365281 152.49302 
L 153.278529 159.346093 
z
" clip-path="url(#p80769f9cdd)" style="fill: #00006a; fill-opacity: 0.1"/>
    <path d="M 177.018272 248.436049 
L 169.105025 241.582975 
L 169.105025 227.876828 
L 177.018272 234.729902 
z
" clip-path="url(#p80769f9cdd)" style="fill: #00006a; fill-opacity: 0.1"/>
    <path d="M 161.191777 193.611461 
L 153.278529 186.758387 
L 153.278529 173.05224 
L 161.191777 179.905314 
z
" clip-path="url(#p80769f9cdd)" style="fill: #00006a; fill-opacity: 0.1"/>
    <path d="M 169.105025 214.170681 
L 161.191777 207.317608 
L 161.191777 193.611461 
L 169.105025 200.464534 
z
" clip-path="url(#p80769f9cdd)" style="fill: #00006a; fill-opacity: 0.1"/>
    <path d="M 153.278529 159.346093 
L 145.365281 152.49302 
L 145.365281 138.786873 
L 153.278529 145.639946 
z
" clip-path="url(#p80769f9cdd)" style="fill: #00006a; fill-opacity: 0.1"/>
    <path d="M 177.018272 234.729902 
L 169.105025 227.876828 
L 169.105025 214.170681 
L 177.018272 221.023755 
z
" clip-path="url(#p80769f9cdd)" style="fill: #00006a; fill-opacity: 0.1"/>
    <path d="M 161.191777 179.905314 
L 153.278529 173.05224 
L 153.278529 159.346093 
L 161.191777 166.199167 
z
" clip-path="url(#p80769f9cdd)" style="fill: #00006a; fill-opacity: 0.1"/>
    <path d="M 184.93152 255.289123 
L 177.018272 248.436049 
L 177.018272 234.729902 
L 184.93152 241.582975 
z
" clip-path="url(#p80769f9cdd)" style="fill: #00006a; fill-opacity: 0.1"/>
    <path d="M 169.105025 200.464534 
L 161.191777 193.611461 
L 161.191777 179.905314 
L 169.105025 186.758387 
z
" clip-path="url(#p80769f9cdd)" style="fill: #00006a; fill-opacity: 0.1"/>
    <path d="M 153.278529 145.639946 
L 145.365281 138.786873 
L 145.365281 125.080726 
L 153.278529 131.933799 
z
" clip-path="url(#p80769f9cdd)" style="fill: #00006a; fill-opacity: 0.1"/>
    <path d="M 177.018272 221.023755 
L 169.105025 214.170681 
L 169.105025 200.464534 
L 177.018272 207.317608 
z
" clip-path="url(#p80769f9cdd)" style="fill: #00006a; fill-opacity: 0.1"/>
    <path d="M 161.191777 166.199167 
L 153.278529 159.346093 
L 153.278529 145.639946 
L 161.191777 152.49302 
z
" clip-path="url(#p80769f9cdd)" style="fill: #00006a; fill-opacity: 0.1"/>
    <path d="M 184.93152 241.582975 
L 177.018272 234.729902 
L 177.018272 221.023755 
L 184.93152 227.876828 
z
" clip-path="url(#p80769f9cdd)" style="fill: #00006a; fill-opacity: 0.1"/>
    <path d="M 169.105025 186.758387 
L 161.191777 179.905314 
L 161.191777 166.199167 
L 169.105025 173.05224 
z
" clip-path="url(#p80769f9cdd)" style="fill: #00006a; fill-opacity: 0.1"/>
    <path d="M 153.278529 131.933799 
L 145.365281 125.080726 
L 145.365281 111.374579 
L 153.278529 118.227652 
z
" clip-path="url(#p80769f9cdd)" style="fill: #00006a; fill-opacity: 0.1"/>
    <path d="M 192.844768 262.142196 
L 184.93152 255.289123 
L 184.93152 241.582975 
L 192.844768 248.436049 
z
" clip-path="url(#p80769f9cdd)" style="fill: #00006a; fill-opacity: 0.1"/>
    <path d="M 177.018272 207.317608 
L 169.105025 200.464534 
L 169.105025 186.758387 
L 177.018272 193.611461 
z
" clip-path="url(#p80769f9cdd)" style="fill: #00006a; fill-opacity: 0.1"/>
    <path d="M 161.191777 152.49302 
L 153.278529 145.639946 
L 153.278529 131.933799 
L 161.191777 138.786873 
z
" clip-path="url(#p80769f9cdd)" style="fill: #00006a; fill-opacity: 0.1"/>
    <path d="M 184.93152 227.876828 
L 177.018272 221.023755 
L 177.018272 207.317608 
L 184.93152 214.170681 
z
" clip-path="url(#p80769f9cdd)" style="fill: #00006a; fill-opacity: 0.1"/>
    <path d="M 169.105025 173.05224 
L 161.191777 166.199167 
L 161.191777 152.49302 
L 169.105025 159.346093 
z
" clip-path="url(#p80769f9cdd)" style="fill: #00006a; fill-opacity: 0.1"/>
    <path d="M 153.278529 118.227652 
L 145.365281 111.374579 
L 145.365281 97.668431 
L 153.278529 104.521505 
z
" clip-path="url(#p80769f9cdd)" style="fill: #00006a; fill-opacity: 0.1"/>
    <path d="M 192.844768 248.436049 
L 184.93152 241.582975 
L 184.93152 227.876828 
L 192.844768 234.729902 
z
" clip-path="url(#p80769f9cdd)" style="fill: #00006a; fill-opacity: 0.1"/>
    <path d="M 177.018272 193.611461 
L 169.105025 186.758387 
L 169.105025 173.05224 
L 177.018272 179.905314 
z
" clip-path="url(#p80769f9cdd)" style="fill: #00006a; fill-opacity: 0.1"/>
    <path d="M 161.191777 138.786873 
L 153.278529 131.933799 
L 153.278529 118.227652 
L 161.191777 125.080726 
z
" clip-path="url(#p80769f9cdd)" style="fill: #00006a; fill-opacity: 0.1"/>
    <path d="M 184.93152 214.170681 
L 177.018272 207.317608 
L 177.018272 193.611461 
L 184.93152 200.464534 
z
" clip-path="url(#p80769f9cdd)" style="fill: #00006a; fill-opacity: 0.1"/>
    <path d="M 169.105025 159.346093 
L 161.191777 152.49302 
L 161.191777 138.786873 
L 169.105025 145.639946 
z
" clip-path="url(#p80769f9cdd)" style="fill: #00006a; fill-opacity: 0.1"/>
    <path d="M 153.278529 104.521505 
L 145.365281 97.668431 
L 145.365281 83.962284 
L 153.278529 90.815358 
z
" clip-path="url(#p80769f9cdd)" style="fill: #00006a; fill-opacity: 0.1"/>
    <path d="M 200.758015 268.99527 
L 192.844768 262.142196 
L 192.844768 248.436049 
L 200.758015 255.289123 
z
" clip-path="url(#p80769f9cdd)" style="fill: #00006a; fill-opacity: 0.1"/>
    <path d="M 192.844768 234.729902 
L 184.93152 227.876828 
L 184.93152 214.170681 
L 192.844768 221.023755 
z
" clip-path="url(#p80769f9cdd)" style="fill: #00006a; fill-opacity: 0.1"/>
    <path d="M 177.018272 179.905314 
L 169.105025 173.05224 
L 169.105025 159.346093 
L 177.018272 166.199167 
z
" clip-path="url(#p80769f9cdd)" style="fill: #00006a; fill-opacity: 0.1"/>
    <path d="M 161.191777 125.080726 
L 153.278529 118.227652 
L 153.278529 104.521505 
L 161.191777 111.374579 
z
" clip-path="url(#p80769f9cdd)" style="fill: #00006a; fill-opacity: 0.1"/>
    <path d="M 200.758015 255.289123 
L 192.844768 248.436049 
L 192.844768 234.729902 
L 200.758015 241.582975 
z
" clip-path="url(#p80769f9cdd)" style="fill: #00006a; fill-opacity: 0.1"/>
    <path d="M 184.93152 200.464534 
L 177.018272 193.611461 
L 177.018272 179.905314 
L 184.93152 186.758387 
z
" clip-path="url(#p80769f9cdd)" style="fill: #00006a; fill-opacity: 0.1"/>
    <path d="M 169.105025 145.639946 
L 161.191777 138.786873 
L 161.191777 125.080726 
L 169.105025 131.933799 
z
" clip-path="url(#p80769f9cdd)" style="fill: #00006a; fill-opacity: 0.1"/>
    <path d="M 192.844768 221.023755 
L 184.93152 214.170681 
L 184.93152 200.464534 
L 192.844768 207.317608 
z
" clip-path="url(#p80769f9cdd)" style="fill: #00006a; fill-opacity: 0.1"/>
    <path d="M 177.018272 166.199167 
L 169.105025 159.346093 
L 169.105025 145.639946 
L 177.018272 152.49302 
z
" clip-path="url(#p80769f9cdd)" style="fill: #00006a; fill-opacity: 0.1"/>
    <path d="M 161.191777 111.374579 
L 153.278529 104.521505 
L 153.278529 90.815358 
L 161.191777 97.668431 
z
" clip-path="url(#p80769f9cdd)" style="fill: #00006a; fill-opacity: 0.1"/>
    <path d="M 208.671263 275.848343 
L 200.758015 268.99527 
L 200.758015 255.289123 
L 208.671263 262.142196 
z
" clip-path="url(#p80769f9cdd)" style="fill: #00006a; fill-opacity: 0.1"/>
    <path d="M 200.758015 241.582975 
L 192.844768 234.729902 
L 192.844768 221.023755 
L 200.758015 227.876828 
z
" clip-path="url(#p80769f9cdd)" style="fill: #00006a; fill-opacity: 0.1"/>
    <path d="M 184.93152 186.758387 
L 177.018272 179.905314 
L 177.018272 166.199167 
L 184.93152 173.05224 
z
" clip-path="url(#p80769f9cdd)" style="fill: #00006a; fill-opacity: 0.1"/>
    <path d="M 169.105025 131.933799 
L 161.191777 125.080726 
L 161.191777 111.374579 
L 169.105025 118.227652 
z
" clip-path="url(#p80769f9cdd)" style="fill: #00006a; fill-opacity: 0.1"/>
    <path d="M 208.671263 262.142196 
L 200.758015 255.289123 
L 200.758015 241.582975 
L 208.671263 248.436049 
z
" clip-path="url(#p80769f9cdd)" style="fill: #00006a; fill-opacity: 0.1"/>
    <path d="M 192.844768 207.317608 
L 184.93152 200.464534 
L 184.93152 186.758387 
L 192.844768 193.611461 
z
" clip-path="url(#p80769f9cdd)" style="fill: #00006a; fill-opacity: 0.1"/>
    <path d="M 177.018272 152.49302 
L 169.105025 145.639946 
L 169.105025 131.933799 
L 177.018272 138.786873 
z
" clip-path="url(#p80769f9cdd)" style="fill: #00006a; fill-opacity: 0.1"/>
    <path d="M 216.584511 282.701417 
L 208.671263 275.848343 
L 208.671263 262.142196 
L 216.584511 268.99527 
z
" clip-path="url(#p80769f9cdd)" style="fill: #00006a; fill-opacity: 0.1"/>
    <path d="M 200.758015 227.876828 
L 192.844768 221.023755 
L 192.844768 207.317608 
L 200.758015 214.170681 
z
" clip-path="url(#p80769f9cdd)" style="fill: #00006a; fill-opacity: 0.1"/>
    <path d="M 184.93152 173.05224 
L 177.018272 166.199167 
L 177.018272 152.49302 
L 184.93152 159.346093 
z
" clip-path="url(#p80769f9cdd)" style="fill: #00006a; fill-opacity: 0.1"/>
    <path d="M 169.105025 118.227652 
L 161.191777 111.374579 
L 161.191777 97.668431 
L 169.105025 104.521505 
z
" clip-path="url(#p80769f9cdd)" style="fill: #00006a; fill-opacity: 0.1"/>
    <path d="M 208.671263 248.436049 
L 200.758015 241.582975 
L 200.758015 227.876828 
L 208.671263 234.729902 
z
" clip-path="url(#p80769f9cdd)" style="fill: #00006a; fill-opacity: 0.1"/>
    <path d="M 192.844768 193.611461 
L 184.93152 186.758387 
L 184.93152 173.05224 
L 192.844768 179.905314 
z
" clip-path="url(#p80769f9cdd)" style="fill: #00006a; fill-opacity: 0.1"/>
    <path d="M 177.018272 138.786873 
L 169.105025 131.933799 
L 169.105025 118.227652 
L 177.018272 125.080726 
z
" clip-path="url(#p80769f9cdd)" style="fill: #00006a; fill-opacity: 0.1"/>
    <path d="M 200.758015 214.170681 
L 192.844768 207.317608 
L 192.844768 193.611461 
L 200.758015 200.464534 
z
" clip-path="url(#p80769f9cdd)" style="fill: #00006a; fill-opacity: 0.1"/>
    <path d="M 184.93152 159.346093 
L 177.018272 152.49302 
L 177.018272 138.786873 
L 184.93152 145.639946 
z
" clip-path="url(#p80769f9cdd)" style="fill: #00006a; fill-opacity: 0.1"/>
    <path d="M 216.584511 268.99527 
L 208.671263 262.142196 
L 208.671263 248.436049 
L 216.584511 255.289123 
z
" clip-path="url(#p80769f9cdd)" style="fill: #00006a; fill-opacity: 0.1"/>
    <path d="M 224.497758 289.55449 
L 216.584511 282.701417 
L 216.584511 268.99527 
L 224.497758 275.848343 
z
" clip-path="url(#p80769f9cdd)" style="fill: #00006a; fill-opacity: 0.1"/>
    <path d="M 208.671263 234.729902 
L 200.758015 227.876828 
L 200.758015 214.170681 
L 208.671263 221.023755 
z
" clip-path="url(#p80769f9cdd)" style="fill: #00006a; fill-opacity: 0.1"/>
    <path d="M 192.844768 179.905314 
L 184.93152 173.05224 
L 184.93152 159.346093 
L 192.844768 166.199167 
z
" clip-path="url(#p80769f9cdd)" style="fill: #00006a; fill-opacity: 0.1"/>
    <path d="M 177.018272 125.080726 
L 169.105025 118.227652 
L 169.105025 104.521505 
L 177.018272 111.374579 
z
" clip-path="url(#p80769f9cdd)" style="fill: #00006a; fill-opacity: 0.1"/>
    <path d="M 216.584511 255.289123 
L 208.671263 248.436049 
L 208.671263 234.729902 
L 216.584511 241.582975 
z
" clip-path="url(#p80769f9cdd)" style="fill: #00006a; fill-opacity: 0.1"/>
    <path d="M 200.758015 200.464534 
L 192.844768 193.611461 
L 192.844768 179.905314 
L 200.758015 186.758387 
z
" clip-path="url(#p80769f9cdd)" style="fill: #00006a; fill-opacity: 0.1"/>
    <path d="M 184.93152 145.639946 
L 177.018272 138.786873 
L 177.018272 125.080726 
L 184.93152 131.933799 
z
" clip-path="url(#p80769f9cdd)" style="fill: #00006a; fill-opacity: 0.1"/>
    <path d="M 224.497758 275.848343 
L 216.584511 268.99527 
L 216.584511 255.289123 
L 224.497758 262.142196 
z
" clip-path="url(#p80769f9cdd)" style="fill: #00006a; fill-opacity: 0.1"/>
    <path d="M 208.671263 221.023755 
L 200.758015 214.170681 
L 200.758015 200.464534 
L 208.671263 207.317608 
z
" clip-path="url(#p80769f9cdd)" style="fill: #00006a; fill-opacity: 0.1"/>
    <path d="M 192.844768 166.199167 
L 184.93152 159.346093 
L 184.93152 145.639946 
L 192.844768 152.49302 
z
" clip-path="url(#p80769f9cdd)" style="fill: #00006a; fill-opacity: 0.1"/>
    <path d="M 216.584511 241.582975 
L 208.671263 234.729902 
L 208.671263 221.023755 
L 216.584511 227.876828 
z
" clip-path="url(#p80769f9cdd)" style="fill: #00006a; fill-opacity: 0.1"/>
    <path d="M 200.758015 186.758387 
L 192.844768 179.905314 
L 192.844768 166.199167 
L 200.758015 173.05224 
z
" clip-path="url(#p80769f9cdd)" style="fill: #00006a; fill-opacity: 0.1"/>
    <path d="M 184.93152 131.933799 
L 177.018272 125.080726 
L 177.018272 111.374579 
L 184.93152 118.227652 
z
" clip-path="url(#p80769f9cdd)" style="fill: #00006a; fill-opacity: 0.1"/>
    <path d="M 224.497758 262.142196 
L 216.584511 255.289123 
L 216.584511 241.582975 
L 224.497758 248.436049 
z
" clip-path="url(#p80769f9cdd)" style="fill: #00006a; fill-opacity: 0.1"/>
    <path d="M 208.671263 207.317608 
L 200.758015 200.464534 
L 200.758015 186.758387 
L 208.671263 193.611461 
z
" clip-path="url(#p80769f9cdd)" style="fill: #00006a; fill-opacity: 0.1"/>
    <path d="M 192.844768 152.49302 
L 184.93152 145.639946 
L 184.93152 131.933799 
L 192.844768 138.786873 
z
" clip-path="url(#p80769f9cdd)" style="fill: #00006a; fill-opacity: 0.1"/>
    <path d="M 216.584511 227.876828 
L 208.671263 221.023755 
L 208.671263 207.317608 
L 216.584511 214.170681 
z
" clip-path="url(#p80769f9cdd)" style="fill: #00006a; fill-opacity: 0.1"/>
    <path d="M 200.758015 173.05224 
L 192.844768 166.199167 
L 192.844768 152.49302 
L 200.758015 159.346093 
z
" clip-path="url(#p80769f9cdd)" style="fill: #00006a; fill-opacity: 0.1"/>
    <path d="M 224.497758 248.436049 
L 216.584511 241.582975 
L 216.584511 227.876828 
L 224.497758 234.729902 
z
" clip-path="url(#p80769f9cdd)" style="fill: #00006a; fill-opacity: 0.1"/>
    <path d="M 208.671263 193.611461 
L 200.758015 186.758387 
L 200.758015 173.05224 
L 208.671263 179.905314 
z
" clip-path="url(#p80769f9cdd)" style="fill: #00006a; fill-opacity: 0.1"/>
    <path d="M 192.844768 138.786873 
L 184.93152 131.933799 
L 184.93152 118.227652 
L 192.844768 125.080726 
z
" clip-path="url(#p80769f9cdd)" style="fill: #00006a; fill-opacity: 0.1"/>
    <path d="M 216.584511 214.170681 
L 208.671263 207.317608 
L 208.671263 193.611461 
L 216.584511 200.464534 
z
" clip-path="url(#p80769f9cdd)" style="fill: #00006a; fill-opacity: 0.1"/>
    <path d="M 200.758015 159.346093 
L 192.844768 152.49302 
L 192.844768 138.786873 
L 200.758015 145.639946 
z
" clip-path="url(#p80769f9cdd)" style="fill: #00006a; fill-opacity: 0.1"/>
    <path d="M 208.671263 179.905314 
L 200.758015 173.05224 
L 200.758015 159.346093 
L 208.671263 166.199167 
z
" clip-path="url(#p80769f9cdd)" style="fill: #00006a; fill-opacity: 0.1"/>
    <path d="M 224.497758 234.729902 
L 216.584511 227.876828 
L 216.584511 214.170681 
L 224.497758 221.023755 
z
" clip-path="url(#p80769f9cdd)" style="fill: #00006a; fill-opacity: 0.1"/>
    <path d="M 216.584511 200.464534 
L 208.671263 193.611461 
L 208.671263 179.905314 
L 216.584511 186.758387 
z
" clip-path="url(#p80769f9cdd)" style="fill: #00006a; fill-opacity: 0.1"/>
    <path d="M 200.758015 145.639946 
L 192.844768 138.786873 
L 192.844768 125.080726 
L 200.758015 131.933799 
z
" clip-path="url(#p80769f9cdd)" style="fill: #00006a; fill-opacity: 0.1"/>
    <path d="M 208.671263 166.199167 
L 200.758015 159.346093 
L 200.758015 145.639946 
L 208.671263 152.49302 
z
" clip-path="url(#p80769f9cdd)" style="fill: #00006a; fill-opacity: 0.1"/>
    <path d="M 224.497758 221.023755 
L 216.584511 214.170681 
L 216.584511 200.464534 
L 224.497758 207.317608 
z
" clip-path="url(#p80769f9cdd)" style="fill: #00006a; fill-opacity: 0.1"/>
    <path d="M 216.584511 186.758387 
L 208.671263 179.905314 
L 208.671263 166.199167 
L 216.584511 173.05224 
z
" clip-path="url(#p80769f9cdd)" style="fill: #00006a; fill-opacity: 0.1"/>
    <path d="M 208.671263 152.49302 
L 200.758015 145.639946 
L 200.758015 131.933799 
L 208.671263 138.786873 
z
" clip-path="url(#p80769f9cdd)" style="fill: #00006a; fill-opacity: 0.1"/>
    <path d="M 224.497758 207.317608 
L 216.584511 200.464534 
L 216.584511 186.758387 
L 224.497758 193.611461 
z
" clip-path="url(#p80769f9cdd)" style="fill: #00006a; fill-opacity: 0.1"/>
    <path d="M 216.584511 173.05224 
L 208.671263 166.199167 
L 208.671263 152.49302 
L 216.584511 159.346093 
z
" clip-path="url(#p80769f9cdd)" style="fill: #00006a; fill-opacity: 0.1"/>
    <path d="M 224.497758 193.611461 
L 216.584511 186.758387 
L 216.584511 173.05224 
L 224.497758 179.905314 
z
" clip-path="url(#p80769f9cdd)" style="fill: #00006a; fill-opacity: 0.1"/>
    <path d="M 216.584511 159.346093 
L 208.671263 152.49302 
L 208.671263 138.786873 
L 216.584511 145.639946 
z
" clip-path="url(#p80769f9cdd)" style="fill: #00006a; fill-opacity: 0.1"/>
    <path d="M 224.497758 179.905314 
L 216.584511 173.05224 
L 216.584511 159.346093 
L 224.497758 166.199167 
z
" clip-path="url(#p80769f9cdd)" style="fill: #00006a; fill-opacity: 0.1"/>
    <path d="M 224.497758 166.199167 
L 216.584511 159.346093 
L 216.584511 145.639946 
L 224.497758 152.49302 
z
" clip-path="url(#p80769f9cdd)" style="fill: #00006a; fill-opacity: 0.1"/>
   </g>
   <g id="Line3DCollection_1">
    <path d="M 224.497758 289.55449 
L 216.584511 282.701417 
L 208.671263 275.848343 
L 200.758015 268.99527 
L 192.844768 262.142196 
L 184.93152 255.289123 
L 177.018272 248.436049 
L 169.105025 241.582975 
L 161.191777 234.729902 
L 153.278529 227.876828 
L 145.365281 221.023755 
" clip-path="url(#p80769f9cdd)" style="fill: none; stroke: #1f77b4; stroke-width: 1.5"/>
    <path d="M 224.497758 275.848343 
L 216.584511 268.99527 
L 208.671263 262.142196 
L 200.758015 255.289123 
L 192.844768 248.436049 
L 184.93152 241.582975 
L 177.018272 234.729902 
L 169.105025 227.876828 
L 161.191777 221.023755 
L 153.278529 214.170681 
L 145.365281 207.317608 
" clip-path="url(#p80769f9cdd)" style="fill: none; stroke: #1f77b4; stroke-width: 1.5"/>
    <path d="M 224.497758 262.142196 
L 216.584511 255.289123 
L 208.671263 248.436049 
L 200.758015 241.582975 
L 192.844768 234.729902 
L 184.93152 227.876828 
L 177.018272 221.023755 
L 169.105025 214.170681 
L 161.191777 207.317608 
L 153.278529 200.464534 
L 145.365281 193.611461 
" clip-path="url(#p80769f9cdd)" style="fill: none; stroke: #1f77b4; stroke-width: 1.5"/>
    <path d="M 224.497758 248.436049 
L 216.584511 241.582975 
L 208.671263 234.729902 
L 200.758015 227.876828 
L 192.844768 221.023755 
L 184.93152 214.170681 
L 177.018272 207.317608 
L 169.105025 200.464534 
L 161.191777 193.611461 
L 153.278529 186.758387 
L 145.365281 179.905314 
" clip-path="url(#p80769f9cdd)" style="fill: none; stroke: #1f77b4; stroke-width: 1.5"/>
    <path d="M 224.497758 234.729902 
L 216.584511 227.876828 
L 208.671263 221.023755 
L 200.758015 214.170681 
L 192.844768 207.317608 
L 184.93152 200.464534 
L 177.018272 193.611461 
L 169.105025 186.758387 
L 161.191777 179.905314 
L 153.278529 173.05224 
L 145.365281 166.199167 
" clip-path="url(#p80769f9cdd)" style="fill: none; stroke: #1f77b4; stroke-width: 1.5"/>
    <path d="M 224.497758 221.023755 
L 216.584511 214.170681 
L 208.671263 207.317608 
L 200.758015 200.464534 
L 192.844768 193.611461 
L 184.93152 186.758387 
L 177.018272 179.905314 
L 169.105025 173.05224 
L 161.191777 166.199167 
L 153.278529 159.346093 
L 145.365281 152.49302 
" clip-path="url(#p80769f9cdd)" style="fill: none; stroke: #1f77b4; stroke-width: 1.5"/>
    <path d="M 224.497758 207.317608 
L 216.584511 200.464534 
L 208.671263 193.611461 
L 200.758015 186.758387 
L 192.844768 179.905314 
L 184.93152 173.05224 
L 177.018272 166.199167 
L 169.105025 159.346093 
L 161.191777 152.49302 
L 153.278529 145.639946 
L 145.365281 138.786873 
" clip-path="url(#p80769f9cdd)" style="fill: none; stroke: #1f77b4; stroke-width: 1.5"/>
    <path d="M 224.497758 193.611461 
L 216.584511 186.758387 
L 208.671263 179.905314 
L 200.758015 173.05224 
L 192.844768 166.199167 
L 184.93152 159.346093 
L 177.018272 152.49302 
L 169.105025 145.639946 
L 161.191777 138.786873 
L 153.278529 131.933799 
L 145.365281 125.080726 
" clip-path="url(#p80769f9cdd)" style="fill: none; stroke: #1f77b4; stroke-width: 1.5"/>
    <path d="M 224.497758 179.905314 
L 216.584511 173.05224 
L 208.671263 166.199167 
L 200.758015 159.346093 
L 192.844768 152.49302 
L 184.93152 145.639946 
L 177.018272 138.786873 
L 169.105025 131.933799 
L 161.191777 125.080726 
L 153.278529 118.227652 
L 145.365281 111.374579 
" clip-path="url(#p80769f9cdd)" style="fill: none; stroke: #1f77b4; stroke-width: 1.5"/>
    <path d="M 224.497758 166.199167 
L 216.584511 159.346093 
L 208.671263 152.49302 
L 200.758015 145.639946 
L 192.844768 138.786873 
L 184.93152 131.933799 
L 177.018272 125.080726 
L 169.105025 118.227652 
L 161.191777 111.374579 
L 153.278529 104.521505 
L 145.365281 97.668431 
" clip-path="url(#p80769f9cdd)" style="fill: none; stroke: #1f77b4; stroke-width: 1.5"/>
    <path d="M 224.497758 152.49302 
L 216.584511 145.639946 
L 208.671263 138.786873 
L 200.758015 131.933799 
L 192.844768 125.080726 
L 184.93152 118.227652 
L 177.018272 111.374579 
L 169.105025 104.521505 
L 161.191777 97.668431 
L 153.278529 90.815358 
L 145.365281 83.962284 
" clip-path="url(#p80769f9cdd)" style="fill: none; stroke: #1f77b4; stroke-width: 1.5"/>
    <path d="M 224.497758 289.55449 
L 224.497758 275.848343 
L 224.497758 262.142196 
L 224.497758 248.436049 
L 224.497758 234.729902 
L 224.497758 221.023755 
L 224.497758 207.317608 
L 224.497758 193.611461 
L 224.497758 179.905314 
L 224.497758 166.199167 
L 224.497758 152.49302 
" clip-path="url(#p80769f9cdd)" style="fill: none; stroke: #1f77b4; stroke-width: 1.5"/>
    <path d="M 216.584511 282.701417 
L 216.584511 268.99527 
L 216.584511 255.289123 
L 216.584511 241.582975 
L 216.584511 227.876828 
L 216.584511 214.170681 
L 216.584511 200.464534 
L 216.584511 186.758387 
L 216.584511 173.05224 
L 216.584511 159.346093 
L 216.584511 145.639946 
" clip-path="url(#p80769f9cdd)" style="fill: none; stroke: #1f77b4; stroke-width: 1.5"/>
    <path d="M 208.671263 275.848343 
L 208.671263 262.142196 
L 208.671263 248.436049 
L 208.671263 234.729902 
L 208.671263 221.023755 
L 208.671263 207.317608 
L 208.671263 193.611461 
L 208.671263 179.905314 
L 208.671263 166.199167 
L 208.671263 152.49302 
L 208.671263 138.786873 
" clip-path="url(#p80769f9cdd)" style="fill: none; stroke: #1f77b4; stroke-width: 1.5"/>
    <path d="M 200.758015 268.99527 
L 200.758015 255.289123 
L 200.758015 241.582975 
L 200.758015 227.876828 
L 200.758015 214.170681 
L 200.758015 200.464534 
L 200.758015 186.758387 
L 200.758015 173.05224 
L 200.758015 159.346093 
L 200.758015 145.639946 
L 200.758015 131.933799 
" clip-path="url(#p80769f9cdd)" style="fill: none; stroke: #1f77b4; stroke-width: 1.5"/>
    <path d="M 192.844768 262.142196 
L 192.844768 248.436049 
L 192.844768 234.729902 
L 192.844768 221.023755 
L 192.844768 207.317608 
L 192.844768 193.611461 
L 192.844768 179.905314 
L 192.844768 166.199167 
L 192.844768 152.49302 
L 192.844768 138.786873 
L 192.844768 125.080726 
" clip-path="url(#p80769f9cdd)" style="fill: none; stroke: #1f77b4; stroke-width: 1.5"/>
    <path d="M 184.93152 255.289123 
L 184.93152 241.582975 
L 184.93152 227.876828 
L 184.93152 214.170681 
L 184.93152 200.464534 
L 184.93152 186.758387 
L 184.93152 173.05224 
L 184.93152 159.346093 
L 184.93152 145.639946 
L 184.93152 131.933799 
L 184.93152 118.227652 
" clip-path="url(#p80769f9cdd)" style="fill: none; stroke: #1f77b4; stroke-width: 1.5"/>
    <path d="M 177.018272 248.436049 
L 177.018272 234.729902 
L 177.018272 221.023755 
L 177.018272 207.317608 
L 177.018272 193.611461 
L 177.018272 179.905314 
L 177.018272 166.199167 
L 177.018272 152.49302 
L 177.018272 138.786873 
L 177.018272 125.080726 
L 177.018272 111.374579 
" clip-path="url(#p80769f9cdd)" style="fill: none; stroke: #1f77b4; stroke-width: 1.5"/>
    <path d="M 169.105025 241.582975 
L 169.105025 227.876828 
L 169.105025 214.170681 
L 169.105025 200.464534 
L 169.105025 186.758387 
L 169.105025 173.05224 
L 169.105025 159.346093 
L 169.105025 145.639946 
L 169.105025 131.933799 
L 169.105025 118.227652 
L 169.105025 104.521505 
" clip-path="url(#p80769f9cdd)" style="fill: none; stroke: #1f77b4; stroke-width: 1.5"/>
    <path d="M 161.191777 234.729902 
L 161.191777 221.023755 
L 161.191777 207.317608 
L 161.191777 193.611461 
L 161.191777 179.905314 
L 161.191777 166.199167 
L 161.191777 152.49302 
L 161.191777 138.786873 
L 161.191777 125.080726 
L 161.191777 111.374579 
L 161.191777 97.668431 
" clip-path="url(#p80769f9cdd)" style="fill: none; stroke: #1f77b4; stroke-width: 1.5"/>
    <path d="M 153.278529 227.876828 
L 153.278529 214.170681 
L 153.278529 200.464534 
L 153.278529 186.758387 
L 153.278529 173.05224 
L 153.278529 159.346093 
L 153.278529 145.639946 
L 153.278529 131.933799 
L 153.278529 118.227652 
L 153.278529 104.521505 
L 153.278529 90.815358 
" clip-path="url(#p80769f9cdd)" style="fill: none; stroke: #1f77b4; stroke-width: 1.5"/>
    <path d="M 145.365281 221.023755 
L 145.365281 207.317608 
L 145.365281 193.611461 
L 145.365281 179.905314 
L 145.365281 166.199167 
L 145.365281 152.49302 
L 145.365281 138.786873 
L 145.365281 125.080726 
L 145.365281 111.374579 
L 145.365281 97.668431 
L 145.365281 83.962284 
" clip-path="url(#p80769f9cdd)" style="fill: none; stroke: #1f77b4; stroke-width: 1.5"/>
   </g>
  </g>
 </g>
 <defs>
  <clipPath id="p80769f9cdd">
   <rect x="103.104" y="41.472" width="266.112" height="266.112"/>
  </clipPath>
 </defs>
</svg>
