<?xml version="1.0" encoding="utf-8" standalone="no"?>
<!DOCTYPE svg PUBLIC "-//W3C//DTD SVG 1.1//EN"
  "http://www.w3.org/Graphics/SVG/1.1/DTD/svg11.dtd">
<svg xmlns:xlink="http://www.w3.org/1999/xlink" width="288pt" height="72pt" viewBox="0 0 288 72" xmlns="http://www.w3.org/2000/svg" version="1.1">
 <metadata>
  <rdf:RDF xmlns:dc="http://purl.org/dc/elements/1.1/" xmlns:cc="http://creativecommons.org/ns#" xmlns:rdf="http://www.w3.org/1999/02/22-rdf-syntax-ns#">
   <cc:Work>
    <dc:type rdf:resource="http://purl.org/dc/dcmitype/StillImage"/>
    <dc:date>2025-11-29T16:58:21.823688</dc:date>
    <dc:format>image/svg+xml</dc:format>
    <dc:creator>
     <cc:Agent>
      <dc:title>Matplotlib v3.10.6, https://matplotlib.org/</dc:title>
     </cc:Agent>
    </dc:creator>
   </cc:Work>
  </rdf:RDF>
 </metadata>
 <defs>
  <style type="text/css">*{stroke-linejoin: round; stroke-linecap: butt}</style>
 </defs>
 <g id="figure_1">
  <g id="patch_1">
   <path d="M 0 72 
L 288 72 
L 288 0 
L 0 0 
z
" style="fill: #ffffff"/>
  </g>
  <g id="axes_1">
   <g id="PathCollection_1">
    <defs>
     <path id="m1639121a02" d="M 0 1.118034 
C 0.296506 1.118034 0.580908 1.000231 0.790569 0.790569 
C 1.000231 0.580908 1.118034 0.296506 1.118034 0 
C 1.118034 -0.296506 1.000231 -0.580908 0.790569 -0.790569 
C 0.580908 -1.000231 0.296506 -1.118034 0 -1.118034 
C -0.296506 -1.118034 -0.580908 -1.000231 -0.790569 -0.790569 
C -1.000231 -0.580908 -1.118034 -0.296506 -1.118034 0 
C -1.118034 0.296506 -1.000231 0.580908 -0.790569 0.790569 
C -0.580908 1.000231 -0.296506 1.118034 0 1.118034 
z
" style="stroke: #1f77b4"/>
    </defs>
    <g clip-path="url(#pd5855a3dbf)">
     <use xlink:href="#m1639121a02" x="46.145455" y="36.36" style="fill: #1f77b4; stroke: #1f77b4"/>
     <use xlink:href="#m1639121a02" x="56.82488" y="36.36" style="fill: #1f77b4; stroke: #1f77b4"/>
     <use xlink:href="#m1639121a02" x="67.504306" y="36.36" style="fill: #1f77b4; stroke: #1f77b4"/>
     <use xlink:href="#m1639121a02" x="78.183732" y="36.36" style="fill: #1f77b4; stroke: #1f77b4"/>
     <use xlink:href="#m1639121a02" x="88.863158" y="36.36" style="fill: #1f77b4; stroke: #1f77b4"/>
     <use xlink:href="#m1639121a02" x="99.542584" y="36.36" style="fill: #1f77b4; stroke: #1f77b4"/>
     <use xlink:href="#m1639121a02" x="110.22201" y="36.36" style="fill: #1f77b4; stroke: #1f77b4"/>
     <use xlink:href="#m1639121a02" x="120.901435" y="36.36" style="fill: #1f77b4; stroke: #1f77b4"/>
     <use xlink:href="#m1639121a02" x="131.580861" y="36.36" style="fill: #1f77b4; stroke: #1f77b4"/>
     <use xlink:href="#m1639121a02" x="142.260287" y="36.36" style="fill: #1f77b4; stroke: #1f77b4"/>
     <use xlink:href="#m1639121a02" x="152.939713" y="36.36" style="fill: #1f77b4; stroke: #1f77b4"/>
     <use xlink:href="#m1639121a02" x="163.619139" y="36.36" style="fill: #1f77b4; stroke: #1f77b4"/>
     <use xlink:href="#m1639121a02" x="174.298565" y="36.36" style="fill: #1f77b4; stroke: #1f77b4"/>
     <use xlink:href="#m1639121a02" x="184.97799" y="36.36" style="fill: #1f77b4; stroke: #1f77b4"/>
     <use xlink:href="#m1639121a02" x="195.657416" y="36.36" style="fill: #1f77b4; stroke: #1f77b4"/>
     <use xlink:href="#m1639121a02" x="206.336842" y="36.36" style="fill: #1f77b4; stroke: #1f77b4"/>
     <use xlink:href="#m1639121a02" x="217.016268" y="36.36" style="fill: #1f77b4; stroke: #1f77b4"/>
     <use xlink:href="#m1639121a02" x="227.695694" y="36.36" style="fill: #1f77b4; stroke: #1f77b4"/>
     <use xlink:href="#m1639121a02" x="238.37512" y="36.36" style="fill: #1f77b4; stroke: #1f77b4"/>
     <use xlink:href="#m1639121a02" x="249.054545" y="36.36" style="fill: #1f77b4; stroke: #1f77b4"/>
    </g>
   </g>
   <g id="line2d_1">
    <path d="M 46.145455 36.36 
L 56.82488 36.36 
L 67.504306 36.36 
L 78.183732 36.36 
L 88.863158 36.36 
L 99.542584 36.36 
L 110.22201 36.36 
L 120.901435 36.36 
L 131.580861 36.36 
L 142.260287 36.36 
L 152.939713 36.36 
L 163.619139 36.36 
L 174.298565 36.36 
L 184.97799 36.36 
L 195.657416 36.36 
L 206.336842 36.36 
L 217.016268 36.36 
L 227.695694 36.36 
L 238.37512 36.36 
L 249.054545 36.36 
" clip-path="url(#pd5855a3dbf)" style="fill: none; stroke: #808080; stroke-width: 0.25; stroke-linecap: square"/>
   </g>
  </g>
 </g>
 <defs>
  <clipPath id="pd5855a3dbf">
   <rect x="36" y="8.64" width="223.2" height="55.44"/>
  </clipPath>
 </defs>
</svg>
