<?xml version="1.0" encoding="utf-8" standalone="no"?>
<!DOCTYPE svg PUBLIC "-//W3C//DTD SVG 1.1//EN"
  "http://www.w3.org/Graphics/SVG/1.1/DTD/svg11.dtd">
<svg xmlns:xlink="http://www.w3.org/1999/xlink" width="72pt" height="288pt" viewBox="0 0 72 288" xmlns="http://www.w3.org/2000/svg" version="1.1">
 <metadata>
  <rdf:RDF xmlns:dc="http://purl.org/dc/elements/1.1/" xmlns:cc="http://creativecommons.org/ns#" xmlns:rdf="http://www.w3.org/1999/02/22-rdf-syntax-ns#">
   <cc:Work>
    <dc:type rdf:resource="http://purl.org/dc/dcmitype/StillImage"/>
    <dc:date>2025-11-29T17:00:07.961516</dc:date>
    <dc:format>image/svg+xml</dc:format>
    <dc:creator>
     <cc:Agent>
      <dc:title>Matplotlib v3.10.6, https://matplotlib.org/</dc:title>
     </cc:Agent>
    </dc:creator>
   </cc:Work>
  </rdf:RDF>
 </metadata>
 <defs>
  <style type="text/css">*{stroke-linejoin: round; stroke-linecap: butt}</style>
 </defs>
 <g id="figure_1">
  <g id="patch_1">
   <path d="M 0 288 
L 72 288 
L 72 0 
L 0 0 
z
" style="fill: #ffffff"/>
  </g>
  <g id="axes_1">
   <g id="PathCollection_1">
    <defs>
     <path id="mf02a568aba" d="M 0 1.118034 
C 0.296506 1.118034 0.580908 1.000231 0.790569 0.790569 
C 1.000231 0.580908 1.118034 0.296506 1.118034 0 
C 1.118034 -0.296506 1.000231 -0.580908 0.790569 -0.790569 
C 0.580908 -1.000231 0.296506 -1.118034 0 -1.118034 
C -0.296506 -1.118034 -0.580908 -1.000231 -0.790569 -0.790569 
C -1.000231 -0.580908 -1.118034 -0.296506 -1.118034 0 
C -1.118034 0.296506 -1.000231 0.580908 -0.790569 0.790569 
C -0.580908 1.000231 -0.296506 1.118034 0 1.118034 
z
" style="stroke: #1f77b4"/>
    </defs>
    <g clip-path="url(#p3b8ed745cc)">
     <use xlink:href="#mf02a568aba" x="36.9" y="246.24" style="fill: #1f77b4; stroke: #1f77b4"/>
     <use xlink:href="#mf02a568aba" x="36.9" y="235.629474" style="fill: #1f77b4; stroke: #1f77b4"/>
     <use xlink:href="#mf02a568aba" x="36.9" y="225.018947" style="fill: #1f77b4; stroke: #1f77b4"/>
     <use xlink:href="#mf02a568aba" x="36.9" y="214.408421" style="fill: #1f77b4; stroke: #1f77b4"/>
     <use xlink:href="#mf02a568aba" x="36.9" y="203.797895" style="fill: #1f77b4; stroke: #1f77b4"/>
     <use xlink:href="#mf02a568aba" x="36.9" y="193.187368" style="fill: #1f77b4; stroke: #1f77b4"/>
     <use xlink:href="#mf02a568aba" x="36.9" y="182.576842" style="fill: #1f77b4; stroke: #1f77b4"/>
     <use xlink:href="#mf02a568aba" x="36.9" y="171.966316" style="fill: #1f77b4; stroke: #1f77b4"/>
     <use xlink:href="#mf02a568aba" x="36.9" y="161.355789" style="fill: #1f77b4; stroke: #1f77b4"/>
     <use xlink:href="#mf02a568aba" x="36.9" y="150.745263" style="fill: #1f77b4; stroke: #1f77b4"/>
     <use xlink:href="#mf02a568aba" x="36.9" y="140.134737" style="fill: #1f77b4; stroke: #1f77b4"/>
     <use xlink:href="#mf02a568aba" x="36.9" y="129.524211" style="fill: #1f77b4; stroke: #1f77b4"/>
     <use xlink:href="#mf02a568aba" x="36.9" y="118.913684" style="fill: #1f77b4; stroke: #1f77b4"/>
     <use xlink:href="#mf02a568aba" x="36.9" y="108.303158" style="fill: #1f77b4; stroke: #1f77b4"/>
     <use xlink:href="#mf02a568aba" x="36.9" y="97.692632" style="fill: #1f77b4; stroke: #1f77b4"/>
     <use xlink:href="#mf02a568aba" x="36.9" y="87.082105" style="fill: #1f77b4; stroke: #1f77b4"/>
     <use xlink:href="#mf02a568aba" x="36.9" y="76.471579" style="fill: #1f77b4; stroke: #1f77b4"/>
     <use xlink:href="#mf02a568aba" x="36.9" y="65.861053" style="fill: #1f77b4; stroke: #1f77b4"/>
     <use xlink:href="#mf02a568aba" x="36.9" y="55.250526" style="fill: #1f77b4; stroke: #1f77b4"/>
     <use xlink:href="#mf02a568aba" x="36.9" y="44.64" style="fill: #1f77b4; stroke: #1f77b4"/>
    </g>
   </g>
   <g id="line2d_1">
    <path d="M 36.9 246.24 
L 36.9 235.629474 
L 36.9 225.018947 
L 36.9 214.408421 
L 36.9 203.797895 
L 36.9 193.187368 
L 36.9 182.576842 
L 36.9 171.966316 
L 36.9 161.355789 
L 36.9 150.745263 
L 36.9 140.134737 
L 36.9 129.524211 
L 36.9 118.913684 
L 36.9 108.303158 
L 36.9 97.692632 
L 36.9 87.082105 
L 36.9 76.471579 
L 36.9 65.861053 
L 36.9 55.250526 
L 36.9 44.64 
" clip-path="url(#p3b8ed745cc)" style="fill: none; stroke: #808080; stroke-width: 0.25; stroke-linecap: square"/>
   </g>
  </g>
 </g>
 <defs>
  <clipPath id="p3b8ed745cc">
   <rect x="9" y="34.56" width="55.8" height="221.76"/>
  </clipPath>
 </defs>
</svg>
