<?xml version="1.0" encoding="utf-8" standalone="no"?>
<!DOCTYPE svg PUBLIC "-//W3C//DTD SVG 1.1//EN"
  "http://www.w3.org/Graphics/SVG/1.1/DTD/svg11.dtd">
<svg xmlns:xlink="http://www.w3.org/1999/xlink" width="460.8pt" height="345.6pt" viewBox="0 0 460.8 345.6" xmlns="http://www.w3.org/2000/svg" version="1.1">
 <metadata>
  <rdf:RDF xmlns:dc="http://purl.org/dc/elements/1.1/" xmlns:cc="http://creativecommons.org/ns#" xmlns:rdf="http://www.w3.org/1999/02/22-rdf-syntax-ns#">
   <cc:Work>
    <dc:type rdf:resource="http://purl.org/dc/dcmitype/StillImage"/>
    <dc:date>2025-11-30T12:22:06.745922</dc:date>
    <dc:format>image/svg+xml</dc:format>
    <dc:creator>
     <cc:Agent>
      <dc:title>Matplotlib v3.10.6, https://matplotlib.org/</dc:title>
     </cc:Agent>
    </dc:creator>
   </cc:Work>
  </rdf:RDF>
 </metadata>
 <defs>
  <style type="text/css">*{stroke-linejoin: round; stroke-linecap: butt}</style>
 </defs>
 <g id="figure_1">
  <g id="patch_1">
   <path d="M 0 345.6 
L 460.8 345.6 
L 460.8 0 
L 0 0 
z
" style="fill: #ffffff"/>
  </g>
  <g id="axes_1">
   <g id="line2d_1">
    <path d="M 249.28042 169.711191 
L 235.249535 174.528 
M 246.956172 165.416358 
L 235.249535 174.528 
M 246.956172 165.416358 
L 249.28042 169.711191 
M 243.363329 162.108913 
L 235.249535 174.528 
M 243.363329 162.108913 
L 246.956172 165.416358 
M 238.891231 160.147269 
L 235.249535 174.528 
M 238.891231 160.147269 
L 243.363329 162.108913 
M 234.024498 159.744 
L 235.249535 174.528 
M 234.024498 159.744 
L 238.891231 160.147269 
M 229.290517 160.942807 
L 235.249535 174.528 
M 229.290517 160.942807 
L 234.024498 159.744 
M 225.202288 163.61378 
L 235.249535 174.528 
M 225.202288 163.61378 
L 229.290517 160.942807 
M 222.202834 167.467478 
L 235.249535 174.528 
M 222.202834 167.467478 
L 225.202288 163.61378 
M 220.617193 172.086294 
L 235.249535 174.528 
M 220.617193 172.086294 
L 222.202834 167.467478 
M 220.617193 176.969706 
L 235.249535 174.528 
M 220.617193 176.969706 
L 220.617193 172.086294 
M 222.202834 181.588522 
L 235.249535 174.528 
M 222.202834 181.588522 
L 220.617193 176.969706 
M 225.202288 185.44222 
L 235.249535 174.528 
M 225.202288 185.44222 
L 222.202834 181.588522 
M 229.290517 188.113193 
L 235.249535 174.528 
M 229.290517 188.113193 
L 225.202288 185.44222 
M 234.024498 189.312 
L 235.249535 174.528 
M 234.024498 189.312 
L 229.290517 188.113193 
M 238.891231 188.908731 
L 235.249535 174.528 
M 238.891231 188.908731 
L 234.024498 189.312 
M 243.363329 186.947087 
L 235.249535 174.528 
M 243.363329 186.947087 
L 238.891231 188.908731 
M 246.956172 183.639642 
L 235.249535 174.528 
M 246.956172 183.639642 
L 243.363329 186.947087 
M 249.28042 179.344809 
L 235.249535 174.528 
M 249.28042 179.344809 
L 246.956172 183.639642 
M 250.084203 174.528 
L 235.249535 174.528 
M 250.084203 174.528 
L 249.28042 169.711191 
M 250.084203 174.528 
L 249.28042 179.344809 
M 263.311304 164.894382 
L 249.28042 169.711191 
M 263.311304 164.894382 
L 246.956172 165.416358 
M 263.311304 164.894382 
L 250.084203 174.528 
M 258.66281 156.304717 
L 246.956172 165.416358 
M 258.66281 156.304717 
L 263.311304 164.894382 
M 251.477124 149.689827 
L 246.956172 165.416358 
M 251.477124 149.689827 
L 243.363329 162.108913 
M 251.477124 149.689827 
L 258.66281 156.304717 
M 242.532926 145.766538 
L 243.363329 162.108913 
M 242.532926 145.766538 
L 238.891231 160.147269 
M 242.532926 145.766538 
L 251.477124 149.689827 
M 232.799461 144.96 
L 238.891231 160.147269 
M 232.799461 144.96 
L 234.024498 159.744 
M 232.799461 144.96 
L 229.290517 160.942807 
M 232.799461 144.96 
L 242.532926 145.766538 
M 223.331499 147.357614 
L 229.290517 160.942807 
M 223.331499 147.357614 
L 232.799461 144.96 
M 215.155041 152.69956 
L 229.290517 160.942807 
M 215.155041 152.69956 
L 225.202288 163.61378 
M 215.155041 152.69956 
L 222.202834 167.467478 
M 215.155041 152.69956 
L 223.331499 147.357614 
M 209.156133 160.406957 
L 222.202834 167.467478 
M 209.156133 160.406957 
L 215.155041 152.69956 
M 205.98485 169.644588 
L 222.202834 167.467478 
M 205.98485 169.644588 
L 220.617193 172.086294 
M 205.98485 169.644588 
L 220.617193 176.969706 
M 205.98485 169.644588 
L 209.156133 160.406957 
M 205.98485 179.411412 
L 220.617193 176.969706 
M 205.98485 179.411412 
L 222.202834 181.588522 
M 205.98485 179.411412 
L 205.98485 169.644588 
M 209.156133 188.649043 
L 222.202834 181.588522 
M 209.156133 188.649043 
L 205.98485 179.411412 
M 215.155041 196.35644 
L 222.202834 181.588522 
M 215.155041 196.35644 
L 225.202288 185.44222 
M 215.155041 196.35644 
L 209.156133 188.649043 
M 223.331499 201.698386 
L 225.202288 185.44222 
M 223.331499 201.698386 
L 229.290517 188.113193 
M 223.331499 201.698386 
L 234.024498 189.312 
M 223.331499 201.698386 
L 215.155041 196.35644 
M 232.799461 204.096 
L 234.024498 189.312 
M 232.799461 204.096 
L 223.331499 201.698386 
M 242.532926 203.289462 
L 234.024498 189.312 
M 242.532926 203.289462 
L 238.891231 188.908731 
M 242.532926 203.289462 
L 232.799461 204.096 
M 251.477124 199.366173 
L 238.891231 188.908731 
M 251.477124 199.366173 
L 243.363329 186.947087 
M 251.477124 199.366173 
L 246.956172 183.639642 
M 251.477124 199.366173 
L 242.532926 203.289462 
M 258.66281 192.751283 
L 246.956172 183.639642 
M 258.66281 192.751283 
L 249.28042 179.344809 
M 258.66281 192.751283 
L 251.477124 199.366173 
M 263.311304 184.161618 
L 249.28042 179.344809 
M 263.311304 184.161618 
L 258.66281 192.751283 
M 264.918871 174.528 
L 249.28042 179.344809 
M 264.918871 174.528 
L 250.084203 174.528 
M 264.918871 174.528 
L 263.311304 164.894382 
M 264.918871 174.528 
L 263.311304 184.161618 
M 279.753539 174.528 
L 263.311304 164.894382 
M 279.753539 174.528 
L 263.311304 184.161618 
M 279.753539 174.528 
L 264.918871 174.528 
M 277.342189 160.077574 
L 263.311304 164.894382 
M 277.342189 160.077574 
L 258.66281 156.304717 
M 277.342189 160.077574 
L 279.753539 174.528 
M 270.369447 147.193075 
L 258.66281 156.304717 
M 270.369447 147.193075 
L 277.342189 160.077574 
M 259.590918 137.27074 
L 258.66281 156.304717 
M 259.590918 137.27074 
L 251.477124 149.689827 
M 259.590918 137.27074 
L 242.532926 145.766538 
M 259.590918 137.27074 
L 270.369447 147.193075 
M 246.174622 131.385807 
L 242.532926 145.766538 
M 246.174622 131.385807 
L 232.799461 144.96 
M 246.174622 131.385807 
L 259.590918 137.27074 
M 231.574424 130.176 
L 232.799461 144.96 
M 231.574424 130.176 
L 246.174622 131.385807 
M 217.37248 133.77242 
L 232.799461 144.96 
M 217.37248 133.77242 
L 223.331499 147.357614 
M 217.37248 133.77242 
L 215.155041 152.69956 
M 217.37248 133.77242 
L 231.574424 130.176 
M 205.107793 141.78534 
L 215.155041 152.69956 
M 205.107793 141.78534 
L 217.37248 133.77242 
M 196.109432 153.346435 
L 215.155041 152.69956 
M 196.109432 153.346435 
L 209.156133 160.406957 
M 196.109432 153.346435 
L 205.98485 169.644588 
M 196.109432 153.346435 
L 205.107793 141.78534 
M 191.352508 167.202882 
L 205.98485 169.644588 
M 191.352508 167.202882 
L 196.109432 153.346435 
M 191.352508 181.853118 
L 205.98485 169.644588 
M 191.352508 181.853118 
L 205.98485 179.411412 
M 191.352508 181.853118 
L 209.156133 188.649043 
M 191.352508 181.853118 
L 191.352508 167.202882 
M 196.109432 195.709565 
L 209.156133 188.649043 
M 196.109432 195.709565 
L 191.352508 181.853118 
M 205.107793 207.27066 
L 209.156133 188.649043 
M 205.107793 207.27066 
L 215.155041 196.35644 
M 205.107793 207.27066 
L 223.331499 201.698386 
M 205.107793 207.27066 
L 196.109432 195.709565 
M 217.37248 215.28358 
L 223.331499 201.698386 
M 217.37248 215.28358 
L 205.107793 207.27066 
M 231.574424 218.88 
L 223.331499 201.698386 
M 231.574424 218.88 
L 232.799461 204.096 
M 231.574424 218.88 
L 242.532926 203.289462 
M 231.574424 218.88 
L 217.37248 215.28358 
M 246.174622 217.670193 
L 242.532926 203.289462 
M 246.174622 217.670193 
L 251.477124 199.366173 
M 246.174622 217.670193 
L 231.574424 218.88 
M 259.590918 211.78526 
L 251.477124 199.366173 
M 259.590918 211.78526 
L 246.174622 217.670193 
M 270.369447 201.862925 
L 251.477124 199.366173 
M 270.369447 201.862925 
L 258.66281 192.751283 
M 270.369447 201.862925 
L 259.590918 211.78526 
M 277.342189 188.978426 
L 258.66281 192.751283 
M 277.342189 188.978426 
L 263.311304 184.161618 
M 277.342189 188.978426 
L 279.753539 174.528 
M 277.342189 188.978426 
L 270.369447 201.862925 
M 291.373074 155.260765 
L 279.753539 174.528 
M 291.373074 155.260765 
L 277.342189 160.077574 
M 291.373074 155.260765 
L 270.369447 147.193075 
M 282.076085 138.081434 
L 270.369447 147.193075 
M 282.076085 138.081434 
L 259.590918 137.27074 
M 282.076085 138.081434 
L 291.373074 155.260765 
M 267.704712 124.851653 
L 259.590918 137.27074 
M 267.704712 124.851653 
L 282.076085 138.081434 
M 249.816318 117.005076 
L 259.590918 137.27074 
M 249.816318 117.005076 
L 246.174622 131.385807 
M 249.816318 117.005076 
L 231.574424 130.176 
M 249.816318 117.005076 
L 267.704712 124.851653 
M 230.349386 115.392 
L 231.574424 130.176 
M 230.349386 115.392 
L 217.37248 133.77242 
M 230.349386 115.392 
L 249.816318 117.005076 
M 211.413462 120.187227 
L 217.37248 133.77242 
M 211.413462 120.187227 
L 230.349386 115.392 
M 195.060546 130.87112 
L 217.37248 133.77242 
M 195.060546 130.87112 
L 205.107793 141.78534 
M 195.060546 130.87112 
L 196.109432 153.346435 
M 195.060546 130.87112 
L 211.413462 120.187227 
M 183.062731 146.285914 
L 196.109432 153.346435 
M 183.062731 146.285914 
L 195.060546 130.87112 
M 176.720166 164.761176 
L 196.109432 153.346435 
M 176.720166 164.761176 
L 191.352508 167.202882 
M 176.720166 164.761176 
L 191.352508 181.853118 
M 176.720166 164.761176 
L 183.062731 146.285914 
M 176.720166 184.294824 
L 191.352508 181.853118 
M 176.720166 184.294824 
L 196.109432 195.709565 
M 176.720166 184.294824 
L 176.720166 164.761176 
M 183.062731 202.770086 
L 196.109432 195.709565 
M 183.062731 202.770086 
L 176.720166 184.294824 
M 195.060546 218.18488 
L 196.109432 195.709565 
M 195.060546 218.18488 
L 205.107793 207.27066 
M 195.060546 218.18488 
L 217.37248 215.28358 
M 195.060546 218.18488 
L 183.062731 202.770086 
M 211.413462 228.868773 
L 217.37248 215.28358 
M 211.413462 228.868773 
L 195.060546 218.18488 
M 230.349386 233.664 
L 217.37248 215.28358 
M 230.349386 233.664 
L 231.574424 218.88 
M 230.349386 233.664 
L 211.413462 228.868773 
M 249.816318 232.050924 
L 231.574424 218.88 
M 249.816318 232.050924 
L 246.174622 217.670193 
M 249.816318 232.050924 
L 259.590918 211.78526 
M 249.816318 232.050924 
L 230.349386 233.664 
M 267.704712 224.204347 
L 259.590918 211.78526 
M 267.704712 224.204347 
L 249.816318 232.050924 
M 282.076085 210.974566 
L 259.590918 211.78526 
M 282.076085 210.974566 
L 270.369447 201.862925 
M 282.076085 210.974566 
L 267.704712 224.204347 
M 291.373074 193.795235 
L 279.753539 174.528 
M 291.373074 193.795235 
L 270.369447 201.862925 
M 291.373074 193.795235 
L 277.342189 188.978426 
M 291.373074 193.795235 
L 282.076085 210.974566 
M 294.588207 174.528 
L 279.753539 174.528 
M 294.588207 174.528 
L 291.373074 155.260765 
M 294.588207 174.528 
L 291.373074 193.795235 
M 309.422875 174.528 
L 291.373074 155.260765 
M 309.422875 174.528 
L 291.373074 193.795235 
M 309.422875 174.528 
L 294.588207 174.528 
M 305.403959 150.443956 
L 291.373074 155.260765 
M 305.403959 150.443956 
L 309.422875 174.528 
M 293.782722 128.969792 
L 291.373074 155.260765 
M 293.782722 128.969792 
L 282.076085 138.081434 
M 293.782722 128.969792 
L 305.403959 150.443956 
M 275.818507 112.432567 
L 282.076085 138.081434 
M 275.818507 112.432567 
L 267.704712 124.851653 
M 275.818507 112.432567 
L 249.816318 117.005076 
M 275.818507 112.432567 
L 293.782722 128.969792 
M 253.458013 102.624345 
L 249.816318 117.005076 
M 253.458013 102.624345 
L 275.818507 112.432567 
M 229.124349 100.608 
L 249.816318 117.005076 
M 229.124349 100.608 
L 230.349386 115.392 
M 229.124349 100.608 
L 253.458013 102.624345 
M 205.454444 106.602034 
L 230.349386 115.392 
M 205.454444 106.602034 
L 211.413462 120.187227 
M 205.454444 106.602034 
L 195.060546 130.87112 
M 205.454444 106.602034 
L 229.124349 100.608 
M 185.013299 119.956901 
L 195.060546 130.87112 
M 185.013299 119.956901 
L 205.454444 106.602034 
M 170.01603 139.225392 
L 195.060546 130.87112 
M 170.01603 139.225392 
L 183.062731 146.285914 
M 170.01603 139.225392 
L 176.720166 164.761176 
M 170.01603 139.225392 
L 185.013299 119.956901 
M 162.087823 162.31947 
L 176.720166 164.761176 
M 162.087823 162.31947 
L 170.01603 139.225392 
M 162.087823 186.73653 
L 176.720166 164.761176 
M 162.087823 186.73653 
L 176.720166 184.294824 
M 162.087823 186.73653 
L 183.062731 202.770086 
M 162.087823 186.73653 
L 162.087823 162.31947 
M 170.01603 209.830608 
L 183.062731 202.770086 
M 170.01603 209.830608 
L 195.060546 218.18488 
M 170.01603 209.830608 
L 162.087823 186.73653 
M 185.013299 229.099099 
L 195.060546 218.18488 
M 185.013299 229.099099 
L 170.01603 209.830608 
M 205.454444 242.453966 
L 195.060546 218.18488 
M 205.454444 242.453966 
L 211.413462 228.868773 
M 205.454444 242.453966 
L 185.013299 229.099099 
M 229.124349 248.448 
L 211.413462 228.868773 
M 229.124349 248.448 
L 230.349386 233.664 
M 229.124349 248.448 
L 205.454444 242.453966 
M 253.458013 246.431655 
L 230.349386 233.664 
M 253.458013 246.431655 
L 249.816318 232.050924 
M 253.458013 246.431655 
L 229.124349 248.448 
M 275.818507 236.623433 
L 249.816318 232.050924 
M 275.818507 236.623433 
L 267.704712 224.204347 
M 275.818507 236.623433 
L 282.076085 210.974566 
M 275.818507 236.623433 
L 253.458013 246.431655 
M 293.782722 220.086208 
L 282.076085 210.974566 
M 293.782722 220.086208 
L 291.373074 193.795235 
M 293.782722 220.086208 
L 275.818507 236.623433 
M 305.403959 198.612044 
L 291.373074 193.795235 
M 305.403959 198.612044 
L 309.422875 174.528 
M 305.403959 198.612044 
L 293.782722 220.086208 
M 324.257543 174.528 
L 309.422875 174.528 
M 319.434843 145.627147 
L 309.422875 174.528 
M 319.434843 145.627147 
L 305.403959 150.443956 
M 319.434843 145.627147 
L 293.782722 128.969792 
M 319.434843 145.627147 
L 324.257543 174.528 
M 305.489359 119.85815 
L 293.782722 128.969792 
M 305.489359 119.85815 
L 275.818507 112.432567 
M 305.489359 119.85815 
L 319.434843 145.627147 
M 283.932301 100.01348 
L 275.818507 112.432567 
M 283.932301 100.01348 
L 305.489359 119.85815 
M 257.099709 88.243614 
L 275.818507 112.432567 
M 257.099709 88.243614 
L 253.458013 102.624345 
M 257.099709 88.243614 
L 229.124349 100.608 
M 257.099709 88.243614 
L 283.932301 100.01348 
M 227.899312 85.824 
L 229.124349 100.608 
M 227.899312 85.824 
L 257.099709 88.243614 
M 199.495426 93.016841 
L 229.124349 100.608 
M 199.495426 93.016841 
L 205.454444 106.602034 
M 199.495426 93.016841 
L 185.013299 119.956901 
M 199.495426 93.016841 
L 227.899312 85.824 
M 174.966052 109.042681 
L 185.013299 119.956901 
M 174.966052 109.042681 
L 170.01603 139.225392 
M 174.966052 109.042681 
L 199.495426 93.016841 
M 156.969329 132.164871 
L 170.01603 139.225392 
M 156.969329 132.164871 
L 174.966052 109.042681 
M 147.455481 159.877763 
L 170.01603 139.225392 
M 147.455481 159.877763 
L 162.087823 162.31947 
M 147.455481 159.877763 
L 162.087823 186.73653 
M 147.455481 159.877763 
L 156.969329 132.164871 
M 147.455481 189.178237 
L 162.087823 186.73653 
M 147.455481 189.178237 
L 147.455481 159.877763 
M 156.969329 216.891129 
L 162.087823 186.73653 
M 156.969329 216.891129 
L 170.01603 209.830608 
M 156.969329 216.891129 
L 147.455481 189.178237 
M 174.966052 240.013319 
L 170.01603 209.830608 
M 174.966052 240.013319 
L 185.013299 229.099099 
M 174.966052 240.013319 
L 156.969329 216.891129 
M 199.495426 256.039159 
L 185.013299 229.099099 
M 199.495426 256.039159 
L 205.454444 242.453966 
M 199.495426 256.039159 
L 229.124349 248.448 
M 199.495426 256.039159 
L 174.966052 240.013319 
M 227.899312 263.232 
L 229.124349 248.448 
M 227.899312 263.232 
L 253.458013 246.431655 
M 227.899312 263.232 
L 199.495426 256.039159 
M 257.099709 260.812386 
L 253.458013 246.431655 
M 257.099709 260.812386 
L 275.818507 236.623433 
M 257.099709 260.812386 
L 227.899312 263.232 
M 283.932301 249.04252 
L 275.818507 236.623433 
M 283.932301 249.04252 
L 257.099709 260.812386 
M 305.489359 229.19785 
L 275.818507 236.623433 
M 305.489359 229.19785 
L 293.782722 220.086208 
M 305.489359 229.19785 
L 305.403959 198.612044 
M 305.489359 229.19785 
L 283.932301 249.04252 
M 319.434843 203.428853 
L 309.422875 174.528 
M 319.434843 203.428853 
L 305.403959 198.612044 
M 319.434843 203.428853 
L 324.257543 174.528 
M 319.434843 203.428853 
L 305.489359 229.19785 
M 339.09221 174.528 
L 324.257543 174.528 
M 339.09221 174.528 
L 319.434843 145.627147 
M 339.09221 174.528 
L 319.434843 203.428853 
M 333.465728 140.810338 
L 319.434843 145.627147 
M 333.465728 140.810338 
L 339.09221 174.528 
M 317.195997 110.746509 
L 319.434843 145.627147 
M 317.195997 110.746509 
L 305.489359 119.85815 
M 317.195997 110.746509 
L 283.932301 100.01348 
M 317.195997 110.746509 
L 333.465728 140.810338 
M 292.046095 87.594393 
L 283.932301 100.01348 
M 292.046095 87.594393 
L 257.099709 88.243614 
M 292.046095 87.594393 
L 317.195997 110.746509 
M 260.741405 73.862883 
L 257.099709 88.243614 
M 260.741405 73.862883 
L 292.046095 87.594393 
M 226.674275 71.04 
L 257.099709 88.243614 
M 226.674275 71.04 
L 227.899312 85.824 
M 226.674275 71.04 
L 199.495426 93.016841 
M 226.674275 71.04 
L 260.741405 73.862883 
M 193.536408 79.431648 
L 199.495426 93.016841 
M 193.536408 79.431648 
L 226.674275 71.04 
M 164.918805 98.128461 
L 199.495426 93.016841 
M 164.918805 98.128461 
L 174.966052 109.042681 
M 164.918805 98.128461 
L 193.536408 79.431648 
M 143.922628 125.104349 
L 174.966052 109.042681 
M 143.922628 125.104349 
L 156.969329 132.164871 
M 143.922628 125.104349 
L 147.455481 159.877763 
M 143.922628 125.104349 
L 164.918805 98.128461 
M 132.823138 157.436057 
L 147.455481 159.877763 
M 132.823138 157.436057 
L 143.922628 125.104349 
M 132.823138 191.619943 
L 147.455481 159.877763 
M 132.823138 191.619943 
L 147.455481 189.178237 
M 132.823138 191.619943 
L 156.969329 216.891129 
M 132.823138 191.619943 
L 132.823138 157.436057 
M 143.922628 223.951651 
L 156.969329 216.891129 
M 143.922628 223.951651 
L 174.966052 240.013319 
M 143.922628 223.951651 
L 132.823138 191.619943 
M 164.918805 250.927539 
L 174.966052 240.013319 
M 164.918805 250.927539 
L 199.495426 256.039159 
M 164.918805 250.927539 
L 143.922628 223.951651 
M 193.536408 269.624352 
L 199.495426 256.039159 
M 193.536408 269.624352 
L 164.918805 250.927539 
M 226.674275 278.016 
L 199.495426 256.039159 
M 226.674275 278.016 
L 227.899312 263.232 
M 226.674275 278.016 
L 193.536408 269.624352 
M 260.741405 275.193117 
L 227.899312 263.232 
M 260.741405 275.193117 
L 257.099709 260.812386 
M 260.741405 275.193117 
L 283.932301 249.04252 
M 260.741405 275.193117 
L 226.674275 278.016 
M 292.046095 261.461607 
L 283.932301 249.04252 
M 292.046095 261.461607 
L 305.489359 229.19785 
M 292.046095 261.461607 
L 260.741405 275.193117 
M 317.195997 238.309491 
L 305.489359 229.19785 
M 317.195997 238.309491 
L 292.046095 261.461607 
M 333.465728 208.245662 
L 305.489359 229.19785 
M 333.465728 208.245662 
L 319.434843 203.428853 
M 333.465728 208.245662 
L 339.09221 174.528 
M 333.465728 208.245662 
L 317.195997 238.309491 
M 353.926878 174.528 
L 339.09221 174.528 
M 347.496613 135.99353 
L 339.09221 174.528 
M 347.496613 135.99353 
L 333.465728 140.810338 
M 347.496613 135.99353 
L 317.195997 110.746509 
M 347.496613 135.99353 
L 353.926878 174.528 
M 328.902634 101.634867 
L 317.195997 110.746509 
M 328.902634 101.634867 
L 347.496613 135.99353 
M 300.159889 75.175306 
L 317.195997 110.746509 
M 300.159889 75.175306 
L 292.046095 87.594393 
M 300.159889 75.175306 
L 260.741405 73.862883 
M 300.159889 75.175306 
L 328.902634 101.634867 
M 264.383101 59.482152 
L 260.741405 73.862883 
M 264.383101 59.482152 
L 300.159889 75.175306 
M 225.449238 56.256 
L 260.741405 73.862883 
M 225.449238 56.256 
L 226.674275 71.04 
M 225.449238 56.256 
L 264.383101 59.482152 
M 187.577389 65.846455 
L 226.674275 71.04 
M 187.577389 65.846455 
L 193.536408 79.431648 
M 187.577389 65.846455 
L 164.918805 98.128461 
M 187.577389 65.846455 
L 225.449238 56.256 
M 154.871558 87.214241 
L 164.918805 98.128461 
M 154.871558 87.214241 
L 143.922628 125.104349 
M 154.871558 87.214241 
L 187.577389 65.846455 
M 130.875927 118.043828 
L 143.922628 125.104349 
M 130.875927 118.043828 
L 154.871558 87.214241 
M 118.190796 154.994351 
L 143.922628 125.104349 
M 118.190796 154.994351 
L 132.823138 157.436057 
M 118.190796 154.994351 
L 132.823138 191.619943 
M 118.190796 154.994351 
L 130.875927 118.043828 
M 118.190796 194.061649 
L 132.823138 191.619943 
M 118.190796 194.061649 
L 118.190796 154.994351 
M 130.875927 231.012172 
L 132.823138 191.619943 
M 130.875927 231.012172 
L 143.922628 223.951651 
M 130.875927 231.012172 
L 118.190796 194.061649 
M 154.871558 261.841759 
L 143.922628 223.951651 
M 154.871558 261.841759 
L 164.918805 250.927539 
M 154.871558 261.841759 
L 130.875927 231.012172 
M 187.577389 283.209545 
L 164.918805 250.927539 
M 187.577389 283.209545 
L 193.536408 269.624352 
M 187.577389 283.209545 
L 226.674275 278.016 
M 187.577389 283.209545 
L 154.871558 261.841759 
M 225.449238 292.8 
L 226.674275 278.016 
M 225.449238 292.8 
L 187.577389 283.209545 
M 264.383101 289.573848 
L 226.674275 278.016 
M 264.383101 289.573848 
L 260.741405 275.193117 
M 264.383101 289.573848 
L 225.449238 292.8 
M 300.159889 273.880694 
L 260.741405 275.193117 
M 300.159889 273.880694 
L 292.046095 261.461607 
M 300.159889 273.880694 
L 317.195997 238.309491 
M 300.159889 273.880694 
L 264.383101 289.573848 
M 328.902634 247.421133 
L 317.195997 238.309491 
M 328.902634 247.421133 
L 333.465728 208.245662 
M 328.902634 247.421133 
L 300.159889 273.880694 
M 347.496613 213.06247 
L 339.09221 174.528 
M 347.496613 213.06247 
L 333.465728 208.245662 
M 347.496613 213.06247 
L 353.926878 174.528 
M 347.496613 213.06247 
L 328.902634 247.421133 
M 368.761546 174.528 
L 353.926878 174.528 
M 361.527497 131.176721 
L 353.926878 174.528 
M 361.527497 131.176721 
L 347.496613 135.99353 
M 361.527497 131.176721 
L 328.902634 101.634867 
M 361.527497 131.176721 
L 368.761546 174.528 
M 340.609272 92.523225 
L 328.902634 101.634867 
M 340.609272 92.523225 
L 361.527497 131.176721 
M 308.273684 62.75622 
L 328.902634 101.634867 
M 308.273684 62.75622 
L 300.159889 75.175306 
M 308.273684 62.75622 
L 264.383101 59.482152 
M 308.273684 62.75622 
L 340.609272 92.523225 
M 268.024796 45.101421 
L 264.383101 59.482152 
M 268.024796 45.101421 
L 308.273684 62.75622 
M 224.224201 41.472 
L 264.383101 59.482152 
M 224.224201 41.472 
L 225.449238 56.256 
M 224.224201 41.472 
L 268.024796 45.101421 
M 181.618371 52.261261 
L 225.449238 56.256 
M 181.618371 52.261261 
L 187.577389 65.846455 
M 181.618371 52.261261 
L 224.224201 41.472 
M 144.82431 76.300021 
L 187.577389 65.846455 
M 144.82431 76.300021 
L 154.871558 87.214241 
M 144.82431 76.300021 
L 181.618371 52.261261 
M 117.829226 110.983306 
L 154.871558 87.214241 
M 117.829226 110.983306 
L 130.875927 118.043828 
M 117.829226 110.983306 
L 118.190796 154.994351 
M 117.829226 110.983306 
L 144.82431 76.300021 
M 103.558454 152.552645 
L 118.190796 154.994351 
M 103.558454 152.552645 
L 117.829226 110.983306 
M 103.558454 196.503355 
L 118.190796 154.994351 
M 103.558454 196.503355 
L 118.190796 194.061649 
M 103.558454 196.503355 
L 130.875927 231.012172 
M 103.558454 196.503355 
L 103.558454 152.552645 
M 117.829226 238.072694 
L 130.875927 231.012172 
M 117.829226 238.072694 
L 154.871558 261.841759 
M 117.829226 238.072694 
L 103.558454 196.503355 
M 144.82431 272.755979 
L 154.871558 261.841759 
M 144.82431 272.755979 
L 187.577389 283.209545 
M 144.82431 272.755979 
L 117.829226 238.072694 
M 181.618371 296.794739 
L 187.577389 283.209545 
M 181.618371 296.794739 
L 144.82431 272.755979 
M 224.224201 307.584 
L 187.577389 283.209545 
M 224.224201 307.584 
L 225.449238 292.8 
M 224.224201 307.584 
L 264.383101 289.573848 
M 224.224201 307.584 
L 181.618371 296.794739 
M 268.024796 303.954579 
L 264.383101 289.573848 
M 268.024796 303.954579 
L 300.159889 273.880694 
M 268.024796 303.954579 
L 224.224201 307.584 
M 308.273684 286.29978 
L 300.159889 273.880694 
M 308.273684 286.29978 
L 268.024796 303.954579 
M 340.609272 256.532775 
L 300.159889 273.880694 
M 340.609272 256.532775 
L 328.902634 247.421133 
M 340.609272 256.532775 
L 308.273684 286.29978 
M 361.527497 217.879279 
L 353.926878 174.528 
M 361.527497 217.879279 
L 328.902634 247.421133 
M 361.527497 217.879279 
L 347.496613 213.06247 
M 361.527497 217.879279 
L 368.761546 174.528 
M 361.527497 217.879279 
L 340.609272 256.532775 
L 340.609272 256.532775 
" clip-path="url(#p053fb02ecc)" style="fill: none; stroke: #0070c0; stroke-width: 1.5; stroke-linecap: square"/>
   </g>
   <g id="line2d_2">
    <defs>
     <path id="m9d586c7c6d" d="M 0 3 
C 0.795609 3 1.55874 2.683901 2.12132 2.12132 
C 2.683901 1.55874 3 0.795609 3 0 
C 3 -0.795609 2.683901 -1.55874 2.12132 -2.12132 
C 1.55874 -2.683901 0.795609 -3 0 -3 
C -0.795609 -3 -1.55874 -2.683901 -2.12132 -2.12132 
C -2.683901 -1.55874 -3 -0.795609 -3 0 
C -3 0.795609 -2.683901 1.55874 -2.12132 2.12132 
C -1.55874 2.683901 -0.795609 3 0 3 
z
" style="stroke: #0070c0"/>
    </defs>
    <g clip-path="url(#p053fb02ecc)">
     <use xlink:href="#m9d586c7c6d" x="235.249535" y="174.528" style="fill: #0070c0; stroke: #0070c0"/>
     <use xlink:href="#m9d586c7c6d" x="235.249535" y="174.528" style="fill: #0070c0; stroke: #0070c0"/>
     <use xlink:href="#m9d586c7c6d" x="235.249535" y="174.528" style="fill: #0070c0; stroke: #0070c0"/>
     <use xlink:href="#m9d586c7c6d" x="235.249535" y="174.528" style="fill: #0070c0; stroke: #0070c0"/>
     <use xlink:href="#m9d586c7c6d" x="235.249535" y="174.528" style="fill: #0070c0; stroke: #0070c0"/>
     <use xlink:href="#m9d586c7c6d" x="235.249535" y="174.528" style="fill: #0070c0; stroke: #0070c0"/>
     <use xlink:href="#m9d586c7c6d" x="235.249535" y="174.528" style="fill: #0070c0; stroke: #0070c0"/>
     <use xlink:href="#m9d586c7c6d" x="235.249535" y="174.528" style="fill: #0070c0; stroke: #0070c0"/>
     <use xlink:href="#m9d586c7c6d" x="235.249535" y="174.528" style="fill: #0070c0; stroke: #0070c0"/>
     <use xlink:href="#m9d586c7c6d" x="235.249535" y="174.528" style="fill: #0070c0; stroke: #0070c0"/>
     <use xlink:href="#m9d586c7c6d" x="235.249535" y="174.528" style="fill: #0070c0; stroke: #0070c0"/>
     <use xlink:href="#m9d586c7c6d" x="235.249535" y="174.528" style="fill: #0070c0; stroke: #0070c0"/>
     <use xlink:href="#m9d586c7c6d" x="235.249535" y="174.528" style="fill: #0070c0; stroke: #0070c0"/>
     <use xlink:href="#m9d586c7c6d" x="235.249535" y="174.528" style="fill: #0070c0; stroke: #0070c0"/>
     <use xlink:href="#m9d586c7c6d" x="235.249535" y="174.528" style="fill: #0070c0; stroke: #0070c0"/>
     <use xlink:href="#m9d586c7c6d" x="235.249535" y="174.528" style="fill: #0070c0; stroke: #0070c0"/>
     <use xlink:href="#m9d586c7c6d" x="235.249535" y="174.528" style="fill: #0070c0; stroke: #0070c0"/>
     <use xlink:href="#m9d586c7c6d" x="235.249535" y="174.528" style="fill: #0070c0; stroke: #0070c0"/>
     <use xlink:href="#m9d586c7c6d" x="235.249535" y="174.528" style="fill: #0070c0; stroke: #0070c0"/>
     <use xlink:href="#m9d586c7c6d" x="235.249535" y="174.528" style="fill: #0070c0; stroke: #0070c0"/>
     <use xlink:href="#m9d586c7c6d" x="250.084203" y="174.528" style="fill: #0070c0; stroke: #0070c0"/>
     <use xlink:href="#m9d586c7c6d" x="249.28042" y="169.711191" style="fill: #0070c0; stroke: #0070c0"/>
     <use xlink:href="#m9d586c7c6d" x="246.956172" y="165.416358" style="fill: #0070c0; stroke: #0070c0"/>
     <use xlink:href="#m9d586c7c6d" x="243.363329" y="162.108913" style="fill: #0070c0; stroke: #0070c0"/>
     <use xlink:href="#m9d586c7c6d" x="238.891231" y="160.147269" style="fill: #0070c0; stroke: #0070c0"/>
     <use xlink:href="#m9d586c7c6d" x="234.024498" y="159.744" style="fill: #0070c0; stroke: #0070c0"/>
     <use xlink:href="#m9d586c7c6d" x="229.290517" y="160.942807" style="fill: #0070c0; stroke: #0070c0"/>
     <use xlink:href="#m9d586c7c6d" x="225.202288" y="163.61378" style="fill: #0070c0; stroke: #0070c0"/>
     <use xlink:href="#m9d586c7c6d" x="222.202834" y="167.467478" style="fill: #0070c0; stroke: #0070c0"/>
     <use xlink:href="#m9d586c7c6d" x="220.617193" y="172.086294" style="fill: #0070c0; stroke: #0070c0"/>
     <use xlink:href="#m9d586c7c6d" x="220.617193" y="176.969706" style="fill: #0070c0; stroke: #0070c0"/>
     <use xlink:href="#m9d586c7c6d" x="222.202834" y="181.588522" style="fill: #0070c0; stroke: #0070c0"/>
     <use xlink:href="#m9d586c7c6d" x="225.202288" y="185.44222" style="fill: #0070c0; stroke: #0070c0"/>
     <use xlink:href="#m9d586c7c6d" x="229.290517" y="188.113193" style="fill: #0070c0; stroke: #0070c0"/>
     <use xlink:href="#m9d586c7c6d" x="234.024498" y="189.312" style="fill: #0070c0; stroke: #0070c0"/>
     <use xlink:href="#m9d586c7c6d" x="238.891231" y="188.908731" style="fill: #0070c0; stroke: #0070c0"/>
     <use xlink:href="#m9d586c7c6d" x="243.363329" y="186.947087" style="fill: #0070c0; stroke: #0070c0"/>
     <use xlink:href="#m9d586c7c6d" x="246.956172" y="183.639642" style="fill: #0070c0; stroke: #0070c0"/>
     <use xlink:href="#m9d586c7c6d" x="249.28042" y="179.344809" style="fill: #0070c0; stroke: #0070c0"/>
     <use xlink:href="#m9d586c7c6d" x="250.084203" y="174.528" style="fill: #0070c0; stroke: #0070c0"/>
     <use xlink:href="#m9d586c7c6d" x="264.918871" y="174.528" style="fill: #0070c0; stroke: #0070c0"/>
     <use xlink:href="#m9d586c7c6d" x="263.311304" y="164.894382" style="fill: #0070c0; stroke: #0070c0"/>
     <use xlink:href="#m9d586c7c6d" x="258.66281" y="156.304717" style="fill: #0070c0; stroke: #0070c0"/>
     <use xlink:href="#m9d586c7c6d" x="251.477124" y="149.689827" style="fill: #0070c0; stroke: #0070c0"/>
     <use xlink:href="#m9d586c7c6d" x="242.532926" y="145.766538" style="fill: #0070c0; stroke: #0070c0"/>
     <use xlink:href="#m9d586c7c6d" x="232.799461" y="144.96" style="fill: #0070c0; stroke: #0070c0"/>
     <use xlink:href="#m9d586c7c6d" x="223.331499" y="147.357614" style="fill: #0070c0; stroke: #0070c0"/>
     <use xlink:href="#m9d586c7c6d" x="215.155041" y="152.69956" style="fill: #0070c0; stroke: #0070c0"/>
     <use xlink:href="#m9d586c7c6d" x="209.156133" y="160.406957" style="fill: #0070c0; stroke: #0070c0"/>
     <use xlink:href="#m9d586c7c6d" x="205.98485" y="169.644588" style="fill: #0070c0; stroke: #0070c0"/>
     <use xlink:href="#m9d586c7c6d" x="205.98485" y="179.411412" style="fill: #0070c0; stroke: #0070c0"/>
     <use xlink:href="#m9d586c7c6d" x="209.156133" y="188.649043" style="fill: #0070c0; stroke: #0070c0"/>
     <use xlink:href="#m9d586c7c6d" x="215.155041" y="196.35644" style="fill: #0070c0; stroke: #0070c0"/>
     <use xlink:href="#m9d586c7c6d" x="223.331499" y="201.698386" style="fill: #0070c0; stroke: #0070c0"/>
     <use xlink:href="#m9d586c7c6d" x="232.799461" y="204.096" style="fill: #0070c0; stroke: #0070c0"/>
     <use xlink:href="#m9d586c7c6d" x="242.532926" y="203.289462" style="fill: #0070c0; stroke: #0070c0"/>
     <use xlink:href="#m9d586c7c6d" x="251.477124" y="199.366173" style="fill: #0070c0; stroke: #0070c0"/>
     <use xlink:href="#m9d586c7c6d" x="258.66281" y="192.751283" style="fill: #0070c0; stroke: #0070c0"/>
     <use xlink:href="#m9d586c7c6d" x="263.311304" y="184.161618" style="fill: #0070c0; stroke: #0070c0"/>
     <use xlink:href="#m9d586c7c6d" x="264.918871" y="174.528" style="fill: #0070c0; stroke: #0070c0"/>
     <use xlink:href="#m9d586c7c6d" x="279.753539" y="174.528" style="fill: #0070c0; stroke: #0070c0"/>
     <use xlink:href="#m9d586c7c6d" x="277.342189" y="160.077574" style="fill: #0070c0; stroke: #0070c0"/>
     <use xlink:href="#m9d586c7c6d" x="270.369447" y="147.193075" style="fill: #0070c0; stroke: #0070c0"/>
     <use xlink:href="#m9d586c7c6d" x="259.590918" y="137.27074" style="fill: #0070c0; stroke: #0070c0"/>
     <use xlink:href="#m9d586c7c6d" x="246.174622" y="131.385807" style="fill: #0070c0; stroke: #0070c0"/>
     <use xlink:href="#m9d586c7c6d" x="231.574424" y="130.176" style="fill: #0070c0; stroke: #0070c0"/>
     <use xlink:href="#m9d586c7c6d" x="217.37248" y="133.77242" style="fill: #0070c0; stroke: #0070c0"/>
     <use xlink:href="#m9d586c7c6d" x="205.107793" y="141.78534" style="fill: #0070c0; stroke: #0070c0"/>
     <use xlink:href="#m9d586c7c6d" x="196.109432" y="153.346435" style="fill: #0070c0; stroke: #0070c0"/>
     <use xlink:href="#m9d586c7c6d" x="191.352508" y="167.202882" style="fill: #0070c0; stroke: #0070c0"/>
     <use xlink:href="#m9d586c7c6d" x="191.352508" y="181.853118" style="fill: #0070c0; stroke: #0070c0"/>
     <use xlink:href="#m9d586c7c6d" x="196.109432" y="195.709565" style="fill: #0070c0; stroke: #0070c0"/>
     <use xlink:href="#m9d586c7c6d" x="205.107793" y="207.27066" style="fill: #0070c0; stroke: #0070c0"/>
     <use xlink:href="#m9d586c7c6d" x="217.37248" y="215.28358" style="fill: #0070c0; stroke: #0070c0"/>
     <use xlink:href="#m9d586c7c6d" x="231.574424" y="218.88" style="fill: #0070c0; stroke: #0070c0"/>
     <use xlink:href="#m9d586c7c6d" x="246.174622" y="217.670193" style="fill: #0070c0; stroke: #0070c0"/>
     <use xlink:href="#m9d586c7c6d" x="259.590918" y="211.78526" style="fill: #0070c0; stroke: #0070c0"/>
     <use xlink:href="#m9d586c7c6d" x="270.369447" y="201.862925" style="fill: #0070c0; stroke: #0070c0"/>
     <use xlink:href="#m9d586c7c6d" x="277.342189" y="188.978426" style="fill: #0070c0; stroke: #0070c0"/>
     <use xlink:href="#m9d586c7c6d" x="279.753539" y="174.528" style="fill: #0070c0; stroke: #0070c0"/>
     <use xlink:href="#m9d586c7c6d" x="294.588207" y="174.528" style="fill: #0070c0; stroke: #0070c0"/>
     <use xlink:href="#m9d586c7c6d" x="291.373074" y="155.260765" style="fill: #0070c0; stroke: #0070c0"/>
     <use xlink:href="#m9d586c7c6d" x="282.076085" y="138.081434" style="fill: #0070c0; stroke: #0070c0"/>
     <use xlink:href="#m9d586c7c6d" x="267.704712" y="124.851653" style="fill: #0070c0; stroke: #0070c0"/>
     <use xlink:href="#m9d586c7c6d" x="249.816318" y="117.005076" style="fill: #0070c0; stroke: #0070c0"/>
     <use xlink:href="#m9d586c7c6d" x="230.349386" y="115.392" style="fill: #0070c0; stroke: #0070c0"/>
     <use xlink:href="#m9d586c7c6d" x="211.413462" y="120.187227" style="fill: #0070c0; stroke: #0070c0"/>
     <use xlink:href="#m9d586c7c6d" x="195.060546" y="130.87112" style="fill: #0070c0; stroke: #0070c0"/>
     <use xlink:href="#m9d586c7c6d" x="183.062731" y="146.285914" style="fill: #0070c0; stroke: #0070c0"/>
     <use xlink:href="#m9d586c7c6d" x="176.720166" y="164.761176" style="fill: #0070c0; stroke: #0070c0"/>
     <use xlink:href="#m9d586c7c6d" x="176.720166" y="184.294824" style="fill: #0070c0; stroke: #0070c0"/>
     <use xlink:href="#m9d586c7c6d" x="183.062731" y="202.770086" style="fill: #0070c0; stroke: #0070c0"/>
     <use xlink:href="#m9d586c7c6d" x="195.060546" y="218.18488" style="fill: #0070c0; stroke: #0070c0"/>
     <use xlink:href="#m9d586c7c6d" x="211.413462" y="228.868773" style="fill: #0070c0; stroke: #0070c0"/>
     <use xlink:href="#m9d586c7c6d" x="230.349386" y="233.664" style="fill: #0070c0; stroke: #0070c0"/>
     <use xlink:href="#m9d586c7c6d" x="249.816318" y="232.050924" style="fill: #0070c0; stroke: #0070c0"/>
     <use xlink:href="#m9d586c7c6d" x="267.704712" y="224.204347" style="fill: #0070c0; stroke: #0070c0"/>
     <use xlink:href="#m9d586c7c6d" x="282.076085" y="210.974566" style="fill: #0070c0; stroke: #0070c0"/>
     <use xlink:href="#m9d586c7c6d" x="291.373074" y="193.795235" style="fill: #0070c0; stroke: #0070c0"/>
     <use xlink:href="#m9d586c7c6d" x="294.588207" y="174.528" style="fill: #0070c0; stroke: #0070c0"/>
     <use xlink:href="#m9d586c7c6d" x="309.422875" y="174.528" style="fill: #0070c0; stroke: #0070c0"/>
     <use xlink:href="#m9d586c7c6d" x="305.403959" y="150.443956" style="fill: #0070c0; stroke: #0070c0"/>
     <use xlink:href="#m9d586c7c6d" x="293.782722" y="128.969792" style="fill: #0070c0; stroke: #0070c0"/>
     <use xlink:href="#m9d586c7c6d" x="275.818507" y="112.432567" style="fill: #0070c0; stroke: #0070c0"/>
     <use xlink:href="#m9d586c7c6d" x="253.458013" y="102.624345" style="fill: #0070c0; stroke: #0070c0"/>
     <use xlink:href="#m9d586c7c6d" x="229.124349" y="100.608" style="fill: #0070c0; stroke: #0070c0"/>
     <use xlink:href="#m9d586c7c6d" x="205.454444" y="106.602034" style="fill: #0070c0; stroke: #0070c0"/>
     <use xlink:href="#m9d586c7c6d" x="185.013299" y="119.956901" style="fill: #0070c0; stroke: #0070c0"/>
     <use xlink:href="#m9d586c7c6d" x="170.01603" y="139.225392" style="fill: #0070c0; stroke: #0070c0"/>
     <use xlink:href="#m9d586c7c6d" x="162.087823" y="162.31947" style="fill: #0070c0; stroke: #0070c0"/>
     <use xlink:href="#m9d586c7c6d" x="162.087823" y="186.73653" style="fill: #0070c0; stroke: #0070c0"/>
     <use xlink:href="#m9d586c7c6d" x="170.01603" y="209.830608" style="fill: #0070c0; stroke: #0070c0"/>
     <use xlink:href="#m9d586c7c6d" x="185.013299" y="229.099099" style="fill: #0070c0; stroke: #0070c0"/>
     <use xlink:href="#m9d586c7c6d" x="205.454444" y="242.453966" style="fill: #0070c0; stroke: #0070c0"/>
     <use xlink:href="#m9d586c7c6d" x="229.124349" y="248.448" style="fill: #0070c0; stroke: #0070c0"/>
     <use xlink:href="#m9d586c7c6d" x="253.458013" y="246.431655" style="fill: #0070c0; stroke: #0070c0"/>
     <use xlink:href="#m9d586c7c6d" x="275.818507" y="236.623433" style="fill: #0070c0; stroke: #0070c0"/>
     <use xlink:href="#m9d586c7c6d" x="293.782722" y="220.086208" style="fill: #0070c0; stroke: #0070c0"/>
     <use xlink:href="#m9d586c7c6d" x="305.403959" y="198.612044" style="fill: #0070c0; stroke: #0070c0"/>
     <use xlink:href="#m9d586c7c6d" x="309.422875" y="174.528" style="fill: #0070c0; stroke: #0070c0"/>
     <use xlink:href="#m9d586c7c6d" x="324.257543" y="174.528" style="fill: #0070c0; stroke: #0070c0"/>
     <use xlink:href="#m9d586c7c6d" x="319.434843" y="145.627147" style="fill: #0070c0; stroke: #0070c0"/>
     <use xlink:href="#m9d586c7c6d" x="305.489359" y="119.85815" style="fill: #0070c0; stroke: #0070c0"/>
     <use xlink:href="#m9d586c7c6d" x="283.932301" y="100.01348" style="fill: #0070c0; stroke: #0070c0"/>
     <use xlink:href="#m9d586c7c6d" x="257.099709" y="88.243614" style="fill: #0070c0; stroke: #0070c0"/>
     <use xlink:href="#m9d586c7c6d" x="227.899312" y="85.824" style="fill: #0070c0; stroke: #0070c0"/>
     <use xlink:href="#m9d586c7c6d" x="199.495426" y="93.016841" style="fill: #0070c0; stroke: #0070c0"/>
     <use xlink:href="#m9d586c7c6d" x="174.966052" y="109.042681" style="fill: #0070c0; stroke: #0070c0"/>
     <use xlink:href="#m9d586c7c6d" x="156.969329" y="132.164871" style="fill: #0070c0; stroke: #0070c0"/>
     <use xlink:href="#m9d586c7c6d" x="147.455481" y="159.877763" style="fill: #0070c0; stroke: #0070c0"/>
     <use xlink:href="#m9d586c7c6d" x="147.455481" y="189.178237" style="fill: #0070c0; stroke: #0070c0"/>
     <use xlink:href="#m9d586c7c6d" x="156.969329" y="216.891129" style="fill: #0070c0; stroke: #0070c0"/>
     <use xlink:href="#m9d586c7c6d" x="174.966052" y="240.013319" style="fill: #0070c0; stroke: #0070c0"/>
     <use xlink:href="#m9d586c7c6d" x="199.495426" y="256.039159" style="fill: #0070c0; stroke: #0070c0"/>
     <use xlink:href="#m9d586c7c6d" x="227.899312" y="263.232" style="fill: #0070c0; stroke: #0070c0"/>
     <use xlink:href="#m9d586c7c6d" x="257.099709" y="260.812386" style="fill: #0070c0; stroke: #0070c0"/>
     <use xlink:href="#m9d586c7c6d" x="283.932301" y="249.04252" style="fill: #0070c0; stroke: #0070c0"/>
     <use xlink:href="#m9d586c7c6d" x="305.489359" y="229.19785" style="fill: #0070c0; stroke: #0070c0"/>
     <use xlink:href="#m9d586c7c6d" x="319.434843" y="203.428853" style="fill: #0070c0; stroke: #0070c0"/>
     <use xlink:href="#m9d586c7c6d" x="324.257543" y="174.528" style="fill: #0070c0; stroke: #0070c0"/>
     <use xlink:href="#m9d586c7c6d" x="339.09221" y="174.528" style="fill: #0070c0; stroke: #0070c0"/>
     <use xlink:href="#m9d586c7c6d" x="333.465728" y="140.810338" style="fill: #0070c0; stroke: #0070c0"/>
     <use xlink:href="#m9d586c7c6d" x="317.195997" y="110.746509" style="fill: #0070c0; stroke: #0070c0"/>
     <use xlink:href="#m9d586c7c6d" x="292.046095" y="87.594393" style="fill: #0070c0; stroke: #0070c0"/>
     <use xlink:href="#m9d586c7c6d" x="260.741405" y="73.862883" style="fill: #0070c0; stroke: #0070c0"/>
     <use xlink:href="#m9d586c7c6d" x="226.674275" y="71.04" style="fill: #0070c0; stroke: #0070c0"/>
     <use xlink:href="#m9d586c7c6d" x="193.536408" y="79.431648" style="fill: #0070c0; stroke: #0070c0"/>
     <use xlink:href="#m9d586c7c6d" x="164.918805" y="98.128461" style="fill: #0070c0; stroke: #0070c0"/>
     <use xlink:href="#m9d586c7c6d" x="143.922628" y="125.104349" style="fill: #0070c0; stroke: #0070c0"/>
     <use xlink:href="#m9d586c7c6d" x="132.823138" y="157.436057" style="fill: #0070c0; stroke: #0070c0"/>
     <use xlink:href="#m9d586c7c6d" x="132.823138" y="191.619943" style="fill: #0070c0; stroke: #0070c0"/>
     <use xlink:href="#m9d586c7c6d" x="143.922628" y="223.951651" style="fill: #0070c0; stroke: #0070c0"/>
     <use xlink:href="#m9d586c7c6d" x="164.918805" y="250.927539" style="fill: #0070c0; stroke: #0070c0"/>
     <use xlink:href="#m9d586c7c6d" x="193.536408" y="269.624352" style="fill: #0070c0; stroke: #0070c0"/>
     <use xlink:href="#m9d586c7c6d" x="226.674275" y="278.016" style="fill: #0070c0; stroke: #0070c0"/>
     <use xlink:href="#m9d586c7c6d" x="260.741405" y="275.193117" style="fill: #0070c0; stroke: #0070c0"/>
     <use xlink:href="#m9d586c7c6d" x="292.046095" y="261.461607" style="fill: #0070c0; stroke: #0070c0"/>
     <use xlink:href="#m9d586c7c6d" x="317.195997" y="238.309491" style="fill: #0070c0; stroke: #0070c0"/>
     <use xlink:href="#m9d586c7c6d" x="333.465728" y="208.245662" style="fill: #0070c0; stroke: #0070c0"/>
     <use xlink:href="#m9d586c7c6d" x="339.09221" y="174.528" style="fill: #0070c0; stroke: #0070c0"/>
     <use xlink:href="#m9d586c7c6d" x="353.926878" y="174.528" style="fill: #0070c0; stroke: #0070c0"/>
     <use xlink:href="#m9d586c7c6d" x="347.496613" y="135.99353" style="fill: #0070c0; stroke: #0070c0"/>
     <use xlink:href="#m9d586c7c6d" x="328.902634" y="101.634867" style="fill: #0070c0; stroke: #0070c0"/>
     <use xlink:href="#m9d586c7c6d" x="300.159889" y="75.175306" style="fill: #0070c0; stroke: #0070c0"/>
     <use xlink:href="#m9d586c7c6d" x="264.383101" y="59.482152" style="fill: #0070c0; stroke: #0070c0"/>
     <use xlink:href="#m9d586c7c6d" x="225.449238" y="56.256" style="fill: #0070c0; stroke: #0070c0"/>
     <use xlink:href="#m9d586c7c6d" x="187.577389" y="65.846455" style="fill: #0070c0; stroke: #0070c0"/>
     <use xlink:href="#m9d586c7c6d" x="154.871558" y="87.214241" style="fill: #0070c0; stroke: #0070c0"/>
     <use xlink:href="#m9d586c7c6d" x="130.875927" y="118.043828" style="fill: #0070c0; stroke: #0070c0"/>
     <use xlink:href="#m9d586c7c6d" x="118.190796" y="154.994351" style="fill: #0070c0; stroke: #0070c0"/>
     <use xlink:href="#m9d586c7c6d" x="118.190796" y="194.061649" style="fill: #0070c0; stroke: #0070c0"/>
     <use xlink:href="#m9d586c7c6d" x="130.875927" y="231.012172" style="fill: #0070c0; stroke: #0070c0"/>
     <use xlink:href="#m9d586c7c6d" x="154.871558" y="261.841759" style="fill: #0070c0; stroke: #0070c0"/>
     <use xlink:href="#m9d586c7c6d" x="187.577389" y="283.209545" style="fill: #0070c0; stroke: #0070c0"/>
     <use xlink:href="#m9d586c7c6d" x="225.449238" y="292.8" style="fill: #0070c0; stroke: #0070c0"/>
     <use xlink:href="#m9d586c7c6d" x="264.383101" y="289.573848" style="fill: #0070c0; stroke: #0070c0"/>
     <use xlink:href="#m9d586c7c6d" x="300.159889" y="273.880694" style="fill: #0070c0; stroke: #0070c0"/>
     <use xlink:href="#m9d586c7c6d" x="328.902634" y="247.421133" style="fill: #0070c0; stroke: #0070c0"/>
     <use xlink:href="#m9d586c7c6d" x="347.496613" y="213.06247" style="fill: #0070c0; stroke: #0070c0"/>
     <use xlink:href="#m9d586c7c6d" x="353.926878" y="174.528" style="fill: #0070c0; stroke: #0070c0"/>
     <use xlink:href="#m9d586c7c6d" x="368.761546" y="174.528" style="fill: #0070c0; stroke: #0070c0"/>
     <use xlink:href="#m9d586c7c6d" x="361.527497" y="131.176721" style="fill: #0070c0; stroke: #0070c0"/>
     <use xlink:href="#m9d586c7c6d" x="340.609272" y="92.523225" style="fill: #0070c0; stroke: #0070c0"/>
     <use xlink:href="#m9d586c7c6d" x="308.273684" y="62.75622" style="fill: #0070c0; stroke: #0070c0"/>
     <use xlink:href="#m9d586c7c6d" x="268.024796" y="45.101421" style="fill: #0070c0; stroke: #0070c0"/>
     <use xlink:href="#m9d586c7c6d" x="224.224201" y="41.472" style="fill: #0070c0; stroke: #0070c0"/>
     <use xlink:href="#m9d586c7c6d" x="181.618371" y="52.261261" style="fill: #0070c0; stroke: #0070c0"/>
     <use xlink:href="#m9d586c7c6d" x="144.82431" y="76.300021" style="fill: #0070c0; stroke: #0070c0"/>
     <use xlink:href="#m9d586c7c6d" x="117.829226" y="110.983306" style="fill: #0070c0; stroke: #0070c0"/>
     <use xlink:href="#m9d586c7c6d" x="103.558454" y="152.552645" style="fill: #0070c0; stroke: #0070c0"/>
     <use xlink:href="#m9d586c7c6d" x="103.558454" y="196.503355" style="fill: #0070c0; stroke: #0070c0"/>
     <use xlink:href="#m9d586c7c6d" x="117.829226" y="238.072694" style="fill: #0070c0; stroke: #0070c0"/>
     <use xlink:href="#m9d586c7c6d" x="144.82431" y="272.755979" style="fill: #0070c0; stroke: #0070c0"/>
     <use xlink:href="#m9d586c7c6d" x="181.618371" y="296.794739" style="fill: #0070c0; stroke: #0070c0"/>
     <use xlink:href="#m9d586c7c6d" x="224.224201" y="307.584" style="fill: #0070c0; stroke: #0070c0"/>
     <use xlink:href="#m9d586c7c6d" x="268.024796" y="303.954579" style="fill: #0070c0; stroke: #0070c0"/>
     <use xlink:href="#m9d586c7c6d" x="308.273684" y="286.29978" style="fill: #0070c0; stroke: #0070c0"/>
     <use xlink:href="#m9d586c7c6d" x="340.609272" y="256.532775" style="fill: #0070c0; stroke: #0070c0"/>
     <use xlink:href="#m9d586c7c6d" x="361.527497" y="217.879279" style="fill: #0070c0; stroke: #0070c0"/>
     <use xlink:href="#m9d586c7c6d" x="368.761546" y="174.528" style="fill: #0070c0; stroke: #0070c0"/>
    </g>
   </g>
  </g>
 </g>
 <defs>
  <clipPath id="p053fb02ecc">
   <rect x="103.558454" y="41.472" width="265.203093" height="266.112"/>
  </clipPath>
 </defs>
</svg>
