<?xml version="1.0" encoding="utf-8" standalone="no"?>
<!DOCTYPE svg PUBLIC "-//W3C//DTD SVG 1.1//EN"
  "http://www.w3.org/Graphics/SVG/1.1/DTD/svg11.dtd">
<svg xmlns:xlink="http://www.w3.org/1999/xlink" width="460.8pt" height="345.6pt" viewBox="0 0 460.8 345.6" xmlns="http://www.w3.org/2000/svg" version="1.1">
 <metadata>
  <rdf:RDF xmlns:dc="http://purl.org/dc/elements/1.1/" xmlns:cc="http://creativecommons.org/ns#" xmlns:rdf="http://www.w3.org/1999/02/22-rdf-syntax-ns#">
   <cc:Work>
    <dc:type rdf:resource="http://purl.org/dc/dcmitype/StillImage"/>
    <dc:date>2025-11-30T12:41:43.329769</dc:date>
    <dc:format>image/svg+xml</dc:format>
    <dc:creator>
     <cc:Agent>
      <dc:title>Matplotlib v3.10.6, https://matplotlib.org/</dc:title>
     </cc:Agent>
    </dc:creator>
   </cc:Work>
  </rdf:RDF>
 </metadata>
 <defs>
  <style type="text/css">*{stroke-linejoin: round; stroke-linecap: butt}</style>
 </defs>
 <g id="figure_1">
  <g id="patch_1">
   <path d="M 0 345.6 
L 460.8 345.6 
L 460.8 0 
L 0 0 
z
" style="fill: #ffffff"/>
  </g>
  <g id="axes_1">
   <g id="line2d_1">
    <path d="M 250.084203 174.528 
L 235.249535 174.528 
M 244.498799 162.92979 
L 235.249535 174.528 
M 244.498799 162.92979 
L 250.084203 174.528 
M 231.948511 160.065268 
L 235.249535 174.528 
M 231.948511 160.065268 
L 244.498799 162.92979 
M 221.883961 168.091479 
L 235.249535 174.528 
M 221.883961 168.091479 
L 231.948511 160.065268 
M 221.883961 180.964521 
L 235.249535 174.528 
M 221.883961 180.964521 
L 221.883961 168.091479 
M 231.948511 188.990732 
L 235.249535 174.528 
M 231.948511 188.990732 
L 221.883961 180.964521 
M 244.498799 186.12621 
L 235.249535 174.528 
M 244.498799 186.12621 
L 250.084203 174.528 
M 244.498799 186.12621 
L 231.948511 188.990732 
M 264.918871 174.528 
L 250.084203 174.528 
M 261.980683 161.654958 
L 250.084203 174.528 
M 261.980683 161.654958 
L 244.498799 162.92979 
M 261.980683 161.654958 
L 264.918871 174.528 
M 253.748063 151.331579 
L 244.498799 162.92979 
M 253.748063 151.331579 
L 261.980683 161.654958 
M 241.851583 145.602536 
L 244.498799 162.92979 
M 241.851583 145.602536 
L 231.948511 160.065268 
M 241.851583 145.602536 
L 253.748063 151.331579 
M 228.647487 145.602536 
L 231.948511 160.065268 
M 228.647487 145.602536 
L 241.851583 145.602536 
M 216.751007 151.331579 
L 231.948511 160.065268 
M 216.751007 151.331579 
L 221.883961 168.091479 
M 216.751007 151.331579 
L 228.647487 145.602536 
M 208.518387 161.654958 
L 221.883961 168.091479 
M 208.518387 161.654958 
L 216.751007 151.331579 
M 205.580199 174.528 
L 221.883961 168.091479 
M 205.580199 174.528 
L 221.883961 180.964521 
M 205.580199 174.528 
L 208.518387 161.654958 
M 208.518387 187.401042 
L 221.883961 180.964521 
M 208.518387 187.401042 
L 205.580199 174.528 
M 216.751007 197.724421 
L 221.883961 180.964521 
M 216.751007 197.724421 
L 231.948511 188.990732 
M 216.751007 197.724421 
L 208.518387 187.401042 
M 228.647487 203.453464 
L 231.948511 188.990732 
M 228.647487 203.453464 
L 216.751007 197.724421 
M 241.851583 203.453464 
L 231.948511 188.990732 
M 241.851583 203.453464 
L 244.498799 186.12621 
M 241.851583 203.453464 
L 228.647487 203.453464 
M 253.748063 197.724421 
L 244.498799 186.12621 
M 253.748063 197.724421 
L 241.851583 203.453464 
M 261.980683 187.401042 
L 250.084203 174.528 
M 261.980683 187.401042 
L 244.498799 186.12621 
M 261.980683 187.401042 
L 264.918871 174.528 
M 261.980683 187.401042 
L 253.748063 197.724421 
M 279.753539 174.528 
L 264.918871 174.528 
M 277.776351 161.410215 
L 264.918871 174.528 
M 277.776351 161.410215 
L 261.980683 161.654958 
M 277.776351 161.410215 
L 279.753539 174.528 
M 272.020469 149.458002 
L 261.980683 161.654958 
M 272.020469 149.458002 
L 253.748063 151.331579 
M 272.020469 149.458002 
L 277.776351 161.410215 
M 262.997328 139.733369 
L 253.748063 151.331579 
M 262.997328 139.733369 
L 272.020469 149.458002 
M 251.508673 133.100391 
L 253.748063 151.331579 
M 251.508673 133.100391 
L 241.851583 145.602536 
M 251.508673 133.100391 
L 262.997328 139.733369 
M 238.575323 130.148438 
L 241.851583 145.602536 
M 238.575323 130.148438 
L 228.647487 145.602536 
M 238.575323 130.148438 
L 251.508673 133.100391 
M 225.346463 131.139805 
L 228.647487 145.602536 
M 225.346463 131.139805 
L 238.575323 130.148438 
M 212.997533 135.986402 
L 228.647487 145.602536 
M 212.997533 135.986402 
L 216.751007 151.331579 
M 212.997533 135.986402 
L 225.346463 131.139805 
M 202.625792 144.25759 
L 216.751007 151.331579 
M 202.625792 144.25759 
L 208.518387 161.654958 
M 202.625792 144.25759 
L 212.997533 135.986402 
M 195.152813 155.218436 
L 208.518387 161.654958 
M 195.152813 155.218436 
L 202.625792 144.25759 
M 191.242604 167.895022 
L 208.518387 161.654958 
M 191.242604 167.895022 
L 205.580199 174.528 
M 191.242604 167.895022 
L 195.152813 155.218436 
M 191.242604 181.160978 
L 205.580199 174.528 
M 191.242604 181.160978 
L 208.518387 187.401042 
M 191.242604 181.160978 
L 191.242604 167.895022 
M 195.152813 193.837564 
L 208.518387 187.401042 
M 195.152813 193.837564 
L 191.242604 181.160978 
M 202.625792 204.79841 
L 208.518387 187.401042 
M 202.625792 204.79841 
L 216.751007 197.724421 
M 202.625792 204.79841 
L 195.152813 193.837564 
M 212.997533 213.069598 
L 216.751007 197.724421 
M 212.997533 213.069598 
L 228.647487 203.453464 
M 212.997533 213.069598 
L 202.625792 204.79841 
M 225.346463 217.916195 
L 228.647487 203.453464 
M 225.346463 217.916195 
L 212.997533 213.069598 
M 238.575323 218.907562 
L 228.647487 203.453464 
M 238.575323 218.907562 
L 241.851583 203.453464 
M 238.575323 218.907562 
L 225.346463 217.916195 
M 251.508673 215.955609 
L 241.851583 203.453464 
M 251.508673 215.955609 
L 253.748063 197.724421 
M 251.508673 215.955609 
L 238.575323 218.907562 
M 262.997328 209.322631 
L 253.748063 197.724421 
M 262.997328 209.322631 
L 251.508673 215.955609 
M 272.020469 199.597998 
L 253.748063 197.724421 
M 272.020469 199.597998 
L 261.980683 187.401042 
M 272.020469 199.597998 
L 262.997328 209.322631 
M 277.776351 187.645785 
L 264.918871 174.528 
M 277.776351 187.645785 
L 261.980683 187.401042 
M 277.776351 187.645785 
L 279.753539 174.528 
M 277.776351 187.645785 
L 272.020469 199.597998 
M 294.588207 174.528 
L 279.753539 174.528 
M 292.988725 160.843561 
L 279.753539 174.528 
M 292.988725 160.843561 
L 277.776351 161.410215 
M 292.988725 160.843561 
L 294.588207 174.528 
M 288.276509 147.896853 
L 277.776351 161.410215 
M 288.276509 147.896853 
L 272.020469 149.458002 
M 288.276509 147.896853 
L 292.988725 160.843561 
M 280.705595 136.385837 
L 272.020469 149.458002 
M 280.705595 136.385837 
L 262.997328 139.733369 
M 280.705595 136.385837 
L 288.276509 147.896853 
M 270.684133 126.931075 
L 262.997328 139.733369 
M 270.684133 126.931075 
L 280.705595 136.385837 
M 258.752382 120.042276 
L 262.997328 139.733369 
M 258.752382 120.042276 
L 251.508673 133.100391 
M 258.752382 120.042276 
L 270.684133 126.931075 
M 245.553587 116.090816 
L 251.508673 133.100391 
M 245.553587 116.090816 
L 238.575323 130.148438 
M 245.553587 116.090816 
L 258.752382 120.042276 
M 231.799298 115.28972 
L 238.575323 130.148438 
M 231.799298 115.28972 
L 225.346463 131.139805 
M 231.799298 115.28972 
L 245.553587 116.090816 
M 218.231012 117.682175 
L 225.346463 131.139805 
M 218.231012 117.682175 
L 212.997533 135.986402 
M 218.231012 117.682175 
L 231.799298 115.28972 
M 205.580199 123.139203 
L 212.997533 135.986402 
M 205.580199 123.139203 
L 218.231012 117.682175 
M 194.528868 131.366614 
L 212.997533 135.986402 
M 194.528868 131.366614 
L 202.625792 144.25759 
M 194.528868 131.366614 
L 205.580199 123.139203 
M 185.672798 141.920867 
L 202.625792 144.25759 
M 185.672798 141.920867 
L 195.152813 155.218436 
M 185.672798 141.920867 
L 194.528868 131.366614 
M 179.489423 154.232979 
L 195.152813 155.218436 
M 179.489423 154.232979 
L 191.242604 167.895022 
M 179.489423 154.232979 
L 185.672798 141.920867 
M 176.31209 167.639201 
L 191.242604 167.895022 
M 176.31209 167.639201 
L 179.489423 154.232979 
M 176.31209 181.416799 
L 191.242604 167.895022 
M 176.31209 181.416799 
L 191.242604 181.160978 
M 176.31209 181.416799 
L 176.31209 167.639201 
M 179.489423 194.823021 
L 191.242604 181.160978 
M 179.489423 194.823021 
L 195.152813 193.837564 
M 179.489423 194.823021 
L 176.31209 181.416799 
M 185.672798 207.135133 
L 195.152813 193.837564 
M 185.672798 207.135133 
L 202.625792 204.79841 
M 185.672798 207.135133 
L 179.489423 194.823021 
M 194.528868 217.689386 
L 202.625792 204.79841 
M 194.528868 217.689386 
L 212.997533 213.069598 
M 194.528868 217.689386 
L 185.672798 207.135133 
M 205.580199 225.916797 
L 212.997533 213.069598 
M 205.580199 225.916797 
L 194.528868 217.689386 
M 218.231012 231.373825 
L 212.997533 213.069598 
M 218.231012 231.373825 
L 225.346463 217.916195 
M 218.231012 231.373825 
L 205.580199 225.916797 
M 231.799298 233.76628 
L 225.346463 217.916195 
M 231.799298 233.76628 
L 238.575323 218.907562 
M 231.799298 233.76628 
L 218.231012 231.373825 
M 245.553587 232.965184 
L 238.575323 218.907562 
M 245.553587 232.965184 
L 251.508673 215.955609 
M 245.553587 232.965184 
L 231.799298 233.76628 
M 258.752382 229.013724 
L 251.508673 215.955609 
M 258.752382 229.013724 
L 262.997328 209.322631 
M 258.752382 229.013724 
L 245.553587 232.965184 
M 270.684133 222.124925 
L 262.997328 209.322631 
M 270.684133 222.124925 
L 258.752382 229.013724 
M 280.705595 212.670163 
L 262.997328 209.322631 
M 280.705595 212.670163 
L 272.020469 199.597998 
M 280.705595 212.670163 
L 270.684133 222.124925 
M 288.276509 201.159147 
L 272.020469 199.597998 
M 288.276509 201.159147 
L 277.776351 187.645785 
M 288.276509 201.159147 
L 280.705595 212.670163 
M 292.988725 188.212439 
L 279.753539 174.528 
M 292.988725 188.212439 
L 277.776351 187.645785 
M 292.988725 188.212439 
L 294.588207 174.528 
M 292.988725 188.212439 
L 288.276509 201.159147 
M 309.422875 174.528 
L 294.588207 174.528 
M 308.159933 160.898685 
L 294.588207 174.528 
M 308.159933 160.898685 
L 292.988725 160.843561 
M 308.159933 160.898685 
L 309.422875 174.528 
M 304.414114 147.733499 
L 292.988725 160.843561 
M 304.414114 147.733499 
L 288.276509 147.896853 
M 304.414114 147.733499 
L 308.159933 160.898685 
M 298.312979 135.480768 
L 288.276509 147.896853 
M 298.312979 135.480768 
L 280.705595 136.385837 
M 298.312979 135.480768 
L 304.414114 147.733499 
M 290.064294 124.557744 
L 280.705595 136.385837 
M 290.064294 124.557744 
L 270.684133 126.931075 
M 290.064294 124.557744 
L 298.312979 135.480768 
M 279.948959 115.336397 
L 270.684133 126.931075 
M 279.948959 115.336397 
L 290.064294 124.557744 
M 268.311438 108.130749 
L 270.684133 126.931075 
M 268.311438 108.130749 
L 258.752382 120.042276 
M 268.311438 108.130749 
L 279.948959 115.336397 
M 255.548033 103.18618 
L 258.752382 120.042276 
M 255.548033 103.18618 
L 245.553587 116.090816 
M 255.548033 103.18618 
L 268.311438 108.130749 
M 242.093387 100.671071 
L 245.553587 116.090816 
M 242.093387 100.671071 
L 231.799298 115.28972 
M 242.093387 100.671071 
L 255.548033 103.18618 
M 228.405683 100.671071 
L 231.799298 115.28972 
M 228.405683 100.671071 
L 218.231012 117.682175 
M 228.405683 100.671071 
L 242.093387 100.671071 
M 214.951037 103.18618 
L 218.231012 117.682175 
M 214.951037 103.18618 
L 228.405683 100.671071 
M 202.187633 108.130749 
L 218.231012 117.682175 
M 202.187633 108.130749 
L 205.580199 123.139203 
M 202.187633 108.130749 
L 214.951037 103.18618 
M 190.550112 115.336397 
L 205.580199 123.139203 
M 190.550112 115.336397 
L 194.528868 131.366614 
M 190.550112 115.336397 
L 202.187633 108.130749 
M 180.434776 124.557744 
L 194.528868 131.366614 
M 180.434776 124.557744 
L 185.672798 141.920867 
M 180.434776 124.557744 
L 190.550112 115.336397 
M 172.186091 135.480768 
L 185.672798 141.920867 
M 172.186091 135.480768 
L 179.489423 154.232979 
M 172.186091 135.480768 
L 180.434776 124.557744 
M 166.084956 147.733499 
L 179.489423 154.232979 
M 166.084956 147.733499 
L 172.186091 135.480768 
M 162.339138 160.898685 
L 179.489423 154.232979 
M 162.339138 160.898685 
L 176.31209 167.639201 
M 162.339138 160.898685 
L 166.084956 147.733499 
M 161.076196 174.528 
L 176.31209 167.639201 
M 161.076196 174.528 
L 176.31209 181.416799 
M 161.076196 174.528 
L 162.339138 160.898685 
M 162.339138 188.157315 
L 176.31209 181.416799 
M 162.339138 188.157315 
L 179.489423 194.823021 
M 162.339138 188.157315 
L 161.076196 174.528 
M 166.084956 201.322501 
L 179.489423 194.823021 
M 166.084956 201.322501 
L 162.339138 188.157315 
M 172.186091 213.575232 
L 179.489423 194.823021 
M 172.186091 213.575232 
L 185.672798 207.135133 
M 172.186091 213.575232 
L 166.084956 201.322501 
M 180.434776 224.498256 
L 185.672798 207.135133 
M 180.434776 224.498256 
L 194.528868 217.689386 
M 180.434776 224.498256 
L 172.186091 213.575232 
M 190.550112 233.719603 
L 194.528868 217.689386 
M 190.550112 233.719603 
L 205.580199 225.916797 
M 190.550112 233.719603 
L 180.434776 224.498256 
M 202.187633 240.925251 
L 205.580199 225.916797 
M 202.187633 240.925251 
L 218.231012 231.373825 
M 202.187633 240.925251 
L 190.550112 233.719603 
M 214.951037 245.86982 
L 218.231012 231.373825 
M 214.951037 245.86982 
L 202.187633 240.925251 
M 228.405683 248.384929 
L 218.231012 231.373825 
M 228.405683 248.384929 
L 231.799298 233.76628 
M 228.405683 248.384929 
L 214.951037 245.86982 
M 242.093387 248.384929 
L 231.799298 233.76628 
M 242.093387 248.384929 
L 245.553587 232.965184 
M 242.093387 248.384929 
L 228.405683 248.384929 
M 255.548033 245.86982 
L 245.553587 232.965184 
M 255.548033 245.86982 
L 258.752382 229.013724 
M 255.548033 245.86982 
L 242.093387 248.384929 
M 268.311438 240.925251 
L 258.752382 229.013724 
M 268.311438 240.925251 
L 270.684133 222.124925 
M 268.311438 240.925251 
L 255.548033 245.86982 
M 279.948959 233.719603 
L 270.684133 222.124925 
M 279.948959 233.719603 
L 268.311438 240.925251 
M 290.064294 224.498256 
L 270.684133 222.124925 
M 290.064294 224.498256 
L 280.705595 212.670163 
M 290.064294 224.498256 
L 279.948959 233.719603 
M 298.312979 213.575232 
L 280.705595 212.670163 
M 298.312979 213.575232 
L 288.276509 201.159147 
M 298.312979 213.575232 
L 290.064294 224.498256 
M 304.414114 201.322501 
L 288.276509 201.159147 
M 304.414114 201.322501 
L 292.988725 188.212439 
M 304.414114 201.322501 
L 298.312979 213.575232 
M 308.159933 188.157315 
L 294.588207 174.528 
M 308.159933 188.157315 
L 292.988725 188.212439 
M 308.159933 188.157315 
L 309.422875 174.528 
M 308.159933 188.157315 
L 304.414114 201.322501 
M 324.257543 174.528 
L 309.422875 174.528 
M 323.214406 160.940991 
L 309.422875 174.528 
M 323.214406 160.940991 
L 308.159933 160.898685 
M 323.214406 160.940991 
L 324.257543 174.528 
M 320.109448 147.672451 
L 308.159933 160.898685 
M 320.109448 147.672451 
L 304.414114 147.733499 
M 320.109448 147.672451 
L 323.214406 160.940991 
M 315.015446 135.033381 
L 304.414114 147.733499 
M 315.015446 135.033381 
L 298.312979 135.480768 
M 315.015446 135.033381 
L 320.109448 147.672451 
M 308.051798 123.320032 
L 298.312979 135.480768 
M 308.051798 123.320032 
L 290.064294 124.557744 
M 308.051798 123.320032 
L 315.015446 135.033381 
M 299.381726 112.806955 
L 290.064294 124.557744 
M 299.381726 112.806955 
L 279.948959 115.336397 
M 299.381726 112.806955 
L 308.051798 123.320032 
M 289.208451 103.740566 
L 279.948959 115.336397 
M 289.208451 103.740566 
L 299.381726 112.806955 
M 277.770424 96.333375 
L 279.948959 115.336397 
M 277.770424 96.333375 
L 268.311438 108.130749 
M 277.770424 96.333375 
L 289.208451 103.740566 
M 265.335744 90.759 
L 268.311438 108.130749 
M 265.335744 90.759 
L 255.548033 103.18618 
M 265.335744 90.759 
L 277.770424 96.333375 
M 252.195868 87.148099 
L 255.548033 103.18618 
M 252.195868 87.148099 
L 242.093387 100.671071 
M 252.195868 87.148099 
L 265.335744 90.759 
M 238.658785 85.585308 
L 242.093387 100.671071 
M 238.658785 85.585308 
L 228.405683 100.671071 
M 238.658785 85.585308 
L 252.195868 87.148099 
M 225.041792 86.107259 
L 228.405683 100.671071 
M 225.041792 86.107259 
L 214.951037 103.18618 
M 225.041792 86.107259 
L 238.658785 85.585308 
M 211.66406 88.701718 
L 214.951037 103.18618 
M 211.66406 88.701718 
L 225.041792 86.107259 
M 198.839151 93.307871 
L 214.951037 103.18618 
M 198.839151 93.307871 
L 202.187633 108.130749 
M 198.839151 93.307871 
L 211.66406 88.701718 
M 186.867671 99.817756 
L 202.187633 108.130749 
M 186.867671 99.817756 
L 190.550112 115.336397 
M 186.867671 99.817756 
L 198.839151 93.307871 
M 176.03022 108.078785 
L 190.550112 115.336397 
M 176.03022 108.078785 
L 180.434776 124.557744 
M 176.03022 108.078785 
L 186.867671 99.817756 
M 166.58082 117.897328 
L 180.434776 124.557744 
M 166.58082 117.897328 
L 172.186091 135.480768 
M 166.58082 117.897328 
L 176.03022 108.078785 
M 158.740957 129.043246 
L 172.186091 135.480768 
M 158.740957 129.043246 
L 166.084956 147.733499 
M 158.740957 129.043246 
L 166.58082 117.897328 
M 152.69439 141.255287 
L 166.084956 147.733499 
M 152.69439 141.255287 
L 158.740957 129.043246 
M 148.582846 154.247213 
L 166.084956 147.733499 
M 148.582846 154.247213 
L 162.339138 160.898685 
M 148.582846 154.247213 
L 152.69439 141.255287 
M 146.502695 167.714504 
L 162.339138 160.898685 
M 146.502695 167.714504 
L 161.076196 174.528 
M 146.502695 167.714504 
L 148.582846 154.247213 
M 146.502695 181.341496 
L 161.076196 174.528 
M 146.502695 181.341496 
L 162.339138 188.157315 
M 146.502695 181.341496 
L 146.502695 167.714504 
M 148.582846 194.808787 
L 162.339138 188.157315 
M 148.582846 194.808787 
L 166.084956 201.322501 
M 148.582846 194.808787 
L 146.502695 181.341496 
M 152.69439 207.800713 
L 166.084956 201.322501 
M 152.69439 207.800713 
L 148.582846 194.808787 
M 158.740957 220.012754 
L 166.084956 201.322501 
M 158.740957 220.012754 
L 172.186091 213.575232 
M 158.740957 220.012754 
L 152.69439 207.800713 
M 166.58082 231.158672 
L 172.186091 213.575232 
M 166.58082 231.158672 
L 180.434776 224.498256 
M 166.58082 231.158672 
L 158.740957 220.012754 
M 176.03022 240.977215 
L 180.434776 224.498256 
M 176.03022 240.977215 
L 190.550112 233.719603 
M 176.03022 240.977215 
L 166.58082 231.158672 
M 186.867671 249.238244 
L 190.550112 233.719603 
M 186.867671 249.238244 
L 202.187633 240.925251 
M 186.867671 249.238244 
L 176.03022 240.977215 
M 198.839151 255.748129 
L 202.187633 240.925251 
M 198.839151 255.748129 
L 214.951037 245.86982 
M 198.839151 255.748129 
L 186.867671 249.238244 
M 211.66406 260.354282 
L 214.951037 245.86982 
M 211.66406 260.354282 
L 198.839151 255.748129 
M 225.041792 262.948741 
L 214.951037 245.86982 
M 225.041792 262.948741 
L 228.405683 248.384929 
M 225.041792 262.948741 
L 211.66406 260.354282 
M 238.658785 263.470692 
L 228.405683 248.384929 
M 238.658785 263.470692 
L 242.093387 248.384929 
M 238.658785 263.470692 
L 225.041792 262.948741 
M 252.195868 261.907901 
L 242.093387 248.384929 
M 252.195868 261.907901 
L 255.548033 245.86982 
M 252.195868 261.907901 
L 238.658785 263.470692 
M 265.335744 258.297 
L 255.548033 245.86982 
M 265.335744 258.297 
L 268.311438 240.925251 
M 265.335744 258.297 
L 252.195868 261.907901 
M 277.770424 252.722625 
L 268.311438 240.925251 
M 277.770424 252.722625 
L 279.948959 233.719603 
M 277.770424 252.722625 
L 265.335744 258.297 
M 289.208451 245.315434 
L 279.948959 233.719603 
M 289.208451 245.315434 
L 277.770424 252.722625 
M 299.381726 236.249045 
L 279.948959 233.719603 
M 299.381726 236.249045 
L 290.064294 224.498256 
M 299.381726 236.249045 
L 289.208451 245.315434 
M 308.051798 225.735968 
L 290.064294 224.498256 
M 308.051798 225.735968 
L 298.312979 213.575232 
M 308.051798 225.735968 
L 299.381726 236.249045 
M 315.015446 214.022619 
L 298.312979 213.575232 
M 315.015446 214.022619 
L 304.414114 201.322501 
M 315.015446 214.022619 
L 308.051798 225.735968 
M 320.109448 201.383549 
L 304.414114 201.322501 
M 320.109448 201.383549 
L 308.159933 188.157315 
M 320.109448 201.383549 
L 315.015446 214.022619 
M 323.214406 188.115009 
L 309.422875 174.528 
M 323.214406 188.115009 
L 308.159933 188.157315 
M 323.214406 188.115009 
L 324.257543 174.528 
M 323.214406 188.115009 
L 320.109448 201.383549 
M 339.09221 174.528 
L 324.257543 174.528 
M 338.165673 160.687126 
L 324.257543 174.528 
M 338.165673 160.687126 
L 323.214406 160.940991 
M 338.165673 160.687126 
L 339.09221 174.528 
M 335.402595 147.093243 
L 323.214406 160.940991 
M 335.402595 147.093243 
L 320.109448 147.672451 
M 335.402595 147.093243 
L 338.165673 160.687126 
M 330.852282 133.988933 
L 320.109448 147.672451 
M 330.852282 133.988933 
L 315.015446 135.033381 
M 330.852282 133.988933 
L 335.402595 147.093243 
M 324.595937 121.608044 
L 315.015446 135.033381 
M 324.595937 121.608044 
L 308.051798 123.320032 
M 324.595937 121.608044 
L 330.852282 133.988933 
M 316.745203 110.171513 
L 308.051798 123.320032 
M 316.745203 110.171513 
L 299.381726 112.806955 
M 316.745203 110.171513 
L 324.595937 121.608044 
M 307.440177 99.883426 
L 299.381726 112.806955 
M 307.440177 99.883426 
L 289.208451 103.740566 
M 307.440177 99.883426 
L 316.745203 110.171513 
M 296.846907 90.927372 
L 289.208451 103.740566 
M 296.846907 90.927372 
L 277.770424 96.333375 
M 296.846907 90.927372 
L 307.440177 99.883426 
M 285.15443 83.463173 
L 277.770424 96.333375 
M 285.15443 83.463173 
L 296.846907 90.927372 
M 272.5714 77.624029 
L 277.770424 96.333375 
M 272.5714 77.624029 
L 265.335744 90.759 
M 272.5714 77.624029 
L 285.15443 83.463173 
M 259.32236 73.514138 
L 265.335744 90.759 
M 259.32236 73.514138 
L 252.195868 87.148099 
M 259.32236 73.514138 
L 272.5714 77.624029 
M 245.64374 71.206842 
L 252.195868 87.148099 
M 245.64374 71.206842 
L 238.658785 85.585308 
M 245.64374 71.206842 
L 259.32236 73.514138 
M 231.779634 70.743314 
L 238.658785 85.585308 
M 231.779634 70.743314 
L 225.041792 86.107259 
M 231.779634 70.743314 
L 245.64374 71.206842 
M 217.97745 72.131827 
L 225.041792 86.107259 
M 217.97745 72.131827 
L 211.66406 88.701718 
M 217.97745 72.131827 
L 231.779634 70.743314 
M 204.483486 75.347601 
L 211.66406 88.701718 
M 204.483486 75.347601 
L 198.839151 93.307871 
M 204.483486 75.347601 
L 217.97745 72.131827 
M 191.538543 80.333253 
L 198.839151 93.307871 
M 191.538543 80.333253 
L 186.867671 99.817756 
M 191.538543 80.333253 
L 204.483486 75.347601 
M 179.373624 86.999811 
L 186.867671 99.817756 
M 179.373624 86.999811 
L 191.538543 80.333253 
M 168.205812 95.228313 
L 186.867671 99.817756 
M 168.205812 95.228313 
L 176.03022 108.078785 
M 168.205812 95.228313 
L 179.373624 86.999811 
M 158.234396 104.871919 
L 176.03022 108.078785 
M 158.234396 104.871919 
L 166.58082 117.897328 
M 158.234396 104.871919 
L 168.205812 95.228313 
M 149.637318 115.75854 
L 166.58082 117.897328 
M 149.637318 115.75854 
L 158.740957 129.043246 
M 149.637318 115.75854 
L 158.234396 104.871919 
M 142.567991 127.693903 
L 158.740957 129.043246 
M 142.567991 127.693903 
L 152.69439 141.255287 
M 142.567991 127.693903 
L 149.637318 115.75854 
M 137.152569 140.465021 
L 152.69439 141.255287 
M 137.152569 140.465021 
L 148.582846 154.247213 
M 137.152569 140.465021 
L 142.567991 127.693903 
M 133.48769 153.843994 
L 148.582846 154.247213 
M 133.48769 153.843994 
L 146.502695 167.714504 
M 133.48769 153.843994 
L 137.152569 140.465021 
M 131.638753 167.592074 
L 146.502695 167.714504 
M 131.638753 167.592074 
L 146.502695 181.341496 
M 131.638753 167.592074 
L 133.48769 153.843994 
M 131.638753 181.463926 
L 146.502695 181.341496 
M 131.638753 181.463926 
L 131.638753 167.592074 
M 133.48769 195.212006 
L 146.502695 181.341496 
M 133.48769 195.212006 
L 148.582846 194.808787 
M 133.48769 195.212006 
L 131.638753 181.463926 
M 137.152569 208.590979 
L 148.582846 194.808787 
M 137.152569 208.590979 
L 152.69439 207.800713 
M 137.152569 208.590979 
L 133.48769 195.212006 
M 142.567991 221.362097 
L 152.69439 207.800713 
M 142.567991 221.362097 
L 158.740957 220.012754 
M 142.567991 221.362097 
L 137.152569 208.590979 
M 149.637318 233.29746 
L 158.740957 220.012754 
M 149.637318 233.29746 
L 166.58082 231.158672 
M 149.637318 233.29746 
L 142.567991 221.362097 
M 158.234396 244.184081 
L 166.58082 231.158672 
M 158.234396 244.184081 
L 176.03022 240.977215 
M 158.234396 244.184081 
L 149.637318 233.29746 
M 168.205812 253.827687 
L 176.03022 240.977215 
M 168.205812 253.827687 
L 186.867671 249.238244 
M 168.205812 253.827687 
L 158.234396 244.184081 
M 179.373624 262.056189 
L 186.867671 249.238244 
M 179.373624 262.056189 
L 168.205812 253.827687 
M 191.538543 268.722747 
L 186.867671 249.238244 
M 191.538543 268.722747 
L 198.839151 255.748129 
M 191.538543 268.722747 
L 179.373624 262.056189 
M 204.483486 273.708399 
L 198.839151 255.748129 
M 204.483486 273.708399 
L 211.66406 260.354282 
M 204.483486 273.708399 
L 191.538543 268.722747 
M 217.97745 276.924173 
L 211.66406 260.354282 
M 217.97745 276.924173 
L 225.041792 262.948741 
M 217.97745 276.924173 
L 204.483486 273.708399 
M 231.779634 278.312686 
L 225.041792 262.948741 
M 231.779634 278.312686 
L 238.658785 263.470692 
M 231.779634 278.312686 
L 217.97745 276.924173 
M 245.64374 277.849158 
L 238.658785 263.470692 
M 245.64374 277.849158 
L 252.195868 261.907901 
M 245.64374 277.849158 
L 231.779634 278.312686 
M 259.32236 275.541862 
L 252.195868 261.907901 
M 259.32236 275.541862 
L 265.335744 258.297 
M 259.32236 275.541862 
L 245.64374 277.849158 
M 272.5714 271.431971 
L 265.335744 258.297 
M 272.5714 271.431971 
L 277.770424 252.722625 
M 272.5714 271.431971 
L 259.32236 275.541862 
M 285.15443 265.592827 
L 277.770424 252.722625 
M 285.15443 265.592827 
L 272.5714 271.431971 
M 296.846907 258.128628 
L 277.770424 252.722625 
M 296.846907 258.128628 
L 289.208451 245.315434 
M 296.846907 258.128628 
L 285.15443 265.592827 
M 307.440177 249.172574 
L 289.208451 245.315434 
M 307.440177 249.172574 
L 299.381726 236.249045 
M 307.440177 249.172574 
L 296.846907 258.128628 
M 316.745203 238.884487 
L 299.381726 236.249045 
M 316.745203 238.884487 
L 308.051798 225.735968 
M 316.745203 238.884487 
L 307.440177 249.172574 
M 324.595937 227.447956 
L 308.051798 225.735968 
M 324.595937 227.447956 
L 315.015446 214.022619 
M 324.595937 227.447956 
L 316.745203 238.884487 
M 330.852282 215.067067 
L 315.015446 214.022619 
M 330.852282 215.067067 
L 320.109448 201.383549 
M 330.852282 215.067067 
L 324.595937 227.447956 
M 335.402595 201.962757 
L 320.109448 201.383549 
M 335.402595 201.962757 
L 323.214406 188.115009 
M 335.402595 201.962757 
L 330.852282 215.067067 
M 338.165673 188.368874 
L 324.257543 174.528 
M 338.165673 188.368874 
L 323.214406 188.115009 
M 338.165673 188.368874 
L 339.09221 174.528 
M 338.165673 188.368874 
L 335.402595 201.962757 
M 353.926878 174.528 
L 339.09221 174.528 
M 353.124425 160.750401 
L 339.09221 174.528 
M 353.124425 160.750401 
L 338.165673 160.687126 
M 353.124425 160.750401 
L 353.926878 174.528 
M 350.727915 147.159121 
L 338.165673 160.687126 
M 350.727915 147.159121 
L 335.402595 147.093243 
M 350.727915 147.159121 
L 353.124425 160.750401 
M 346.769759 133.937958 
L 335.402595 147.093243 
M 346.769759 133.937958 
L 330.852282 133.988933 
M 346.769759 133.937958 
L 350.727915 147.159121 
M 341.303483 121.265706 
L 330.852282 133.988933 
M 341.303483 121.265706 
L 324.595937 121.608044 
M 341.303483 121.265706 
L 346.769759 133.937958 
M 334.403009 109.313734 
L 324.595937 121.608044 
M 334.403009 109.313734 
L 316.745203 110.171513 
M 334.403009 109.313734 
L 341.303483 121.265706 
M 326.161654 98.243674 
L 316.745203 110.171513 
M 326.161654 98.243674 
L 307.440177 99.883426 
M 326.161654 98.243674 
L 334.403009 109.313734 
M 316.69087 88.205229 
L 307.440177 99.883426 
M 316.69087 88.205229 
L 296.846907 90.927372 
M 316.69087 88.205229 
L 326.161654 98.243674 
M 306.11873 79.33415 
L 296.846907 90.927372 
M 306.11873 79.33415 
L 316.69087 88.205229 
M 294.588207 71.750406 
L 296.846907 90.927372 
M 294.588207 71.750406 
L 285.15443 83.463173 
M 294.588207 71.750406 
L 306.11873 79.33415 
M 282.255229 65.556552 
L 285.15443 83.463173 
M 282.255229 65.556552 
L 272.5714 77.624029 
M 282.255229 65.556552 
L 294.588207 71.750406 
M 269.286581 60.83635 
L 272.5714 77.624029 
M 269.286581 60.83635 
L 259.32236 73.514138 
M 269.286581 60.83635 
L 282.255229 65.556552 
M 255.857639 57.653632 
L 259.32236 73.514138 
M 255.857639 57.653632 
L 245.64374 71.206842 
M 255.857639 57.653632 
L 269.286581 60.83635 
M 242.150009 56.05144 
L 245.64374 71.206842 
M 242.150009 56.05144 
L 231.779634 70.743314 
M 242.150009 56.05144 
L 255.857639 57.653632 
M 228.349061 56.05144 
L 231.779634 70.743314 
M 228.349061 56.05144 
L 217.97745 72.131827 
M 228.349061 56.05144 
L 242.150009 56.05144 
M 214.641431 57.653632 
L 217.97745 72.131827 
M 214.641431 57.653632 
L 228.349061 56.05144 
M 201.212489 60.83635 
L 217.97745 72.131827 
M 201.212489 60.83635 
L 204.483486 75.347601 
M 201.212489 60.83635 
L 214.641431 57.653632 
M 188.243841 65.556552 
L 204.483486 75.347601 
M 188.243841 65.556552 
L 191.538543 80.333253 
M 188.243841 65.556552 
L 201.212489 60.83635 
M 175.910863 71.750406 
L 191.538543 80.333253 
M 175.910863 71.750406 
L 179.373624 86.999811 
M 175.910863 71.750406 
L 188.243841 65.556552 
M 164.38034 79.33415 
L 179.373624 86.999811 
M 164.38034 79.33415 
L 168.205812 95.228313 
M 164.38034 79.33415 
L 175.910863 71.750406 
M 153.808201 88.205229 
L 168.205812 95.228313 
M 153.808201 88.205229 
L 158.234396 104.871919 
M 153.808201 88.205229 
L 164.38034 79.33415 
M 144.337416 98.243674 
L 158.234396 104.871919 
M 144.337416 98.243674 
L 149.637318 115.75854 
M 144.337416 98.243674 
L 153.808201 88.205229 
M 136.096061 109.313734 
L 149.637318 115.75854 
M 136.096061 109.313734 
L 142.567991 127.693903 
M 136.096061 109.313734 
L 144.337416 98.243674 
M 129.195587 121.265706 
L 142.567991 127.693903 
M 129.195587 121.265706 
L 136.096061 109.313734 
M 123.729311 133.937958 
L 142.567991 127.693903 
M 123.729311 133.937958 
L 137.152569 140.465021 
M 123.729311 133.937958 
L 129.195587 121.265706 
M 119.771155 147.159121 
L 137.152569 140.465021 
M 119.771155 147.159121 
L 133.48769 153.843994 
M 119.771155 147.159121 
L 123.729311 133.937958 
M 117.374646 160.750401 
L 133.48769 153.843994 
M 117.374646 160.750401 
L 131.638753 167.592074 
M 117.374646 160.750401 
L 119.771155 147.159121 
M 116.572192 174.528 
L 131.638753 167.592074 
M 116.572192 174.528 
L 131.638753 181.463926 
M 116.572192 174.528 
L 117.374646 160.750401 
M 117.374646 188.305599 
L 131.638753 181.463926 
M 117.374646 188.305599 
L 133.48769 195.212006 
M 117.374646 188.305599 
L 116.572192 174.528 
M 119.771155 201.896879 
L 133.48769 195.212006 
M 119.771155 201.896879 
L 137.152569 208.590979 
M 119.771155 201.896879 
L 117.374646 188.305599 
M 123.729311 215.118042 
L 137.152569 208.590979 
M 123.729311 215.118042 
L 142.567991 221.362097 
M 123.729311 215.118042 
L 119.771155 201.896879 
M 129.195587 227.790294 
L 142.567991 221.362097 
M 129.195587 227.790294 
L 123.729311 215.118042 
M 136.096061 239.742266 
L 142.567991 221.362097 
M 136.096061 239.742266 
L 149.637318 233.29746 
M 136.096061 239.742266 
L 129.195587 227.790294 
M 144.337416 250.812326 
L 149.637318 233.29746 
M 144.337416 250.812326 
L 158.234396 244.184081 
M 144.337416 250.812326 
L 136.096061 239.742266 
M 153.808201 260.850771 
L 158.234396 244.184081 
M 153.808201 260.850771 
L 168.205812 253.827687 
M 153.808201 260.850771 
L 144.337416 250.812326 
M 164.38034 269.72185 
L 168.205812 253.827687 
M 164.38034 269.72185 
L 179.373624 262.056189 
M 164.38034 269.72185 
L 153.808201 260.850771 
M 175.910863 277.305594 
L 179.373624 262.056189 
M 175.910863 277.305594 
L 191.538543 268.722747 
M 175.910863 277.305594 
L 164.38034 269.72185 
M 188.243841 283.499448 
L 191.538543 268.722747 
M 188.243841 283.499448 
L 204.483486 273.708399 
M 188.243841 283.499448 
L 175.910863 277.305594 
M 201.212489 288.21965 
L 204.483486 273.708399 
M 201.212489 288.21965 
L 217.97745 276.924173 
M 201.212489 288.21965 
L 188.243841 283.499448 
M 214.641431 291.402368 
L 217.97745 276.924173 
M 214.641431 291.402368 
L 201.212489 288.21965 
M 228.349061 293.00456 
L 217.97745 276.924173 
M 228.349061 293.00456 
L 231.779634 278.312686 
M 228.349061 293.00456 
L 214.641431 291.402368 
M 242.150009 293.00456 
L 231.779634 278.312686 
M 242.150009 293.00456 
L 245.64374 277.849158 
M 242.150009 293.00456 
L 228.349061 293.00456 
M 255.857639 291.402368 
L 245.64374 277.849158 
M 255.857639 291.402368 
L 259.32236 275.541862 
M 255.857639 291.402368 
L 242.150009 293.00456 
M 269.286581 288.21965 
L 259.32236 275.541862 
M 269.286581 288.21965 
L 272.5714 271.431971 
M 269.286581 288.21965 
L 255.857639 291.402368 
M 282.255229 283.499448 
L 272.5714 271.431971 
M 282.255229 283.499448 
L 285.15443 265.592827 
M 282.255229 283.499448 
L 269.286581 288.21965 
M 294.588207 277.305594 
L 285.15443 265.592827 
M 294.588207 277.305594 
L 296.846907 258.128628 
M 294.588207 277.305594 
L 282.255229 283.499448 
M 306.11873 269.72185 
L 296.846907 258.128628 
M 306.11873 269.72185 
L 294.588207 277.305594 
M 316.69087 260.850771 
L 296.846907 258.128628 
M 316.69087 260.850771 
L 307.440177 249.172574 
M 316.69087 260.850771 
L 306.11873 269.72185 
M 326.161654 250.812326 
L 307.440177 249.172574 
M 326.161654 250.812326 
L 316.745203 238.884487 
M 326.161654 250.812326 
L 316.69087 260.850771 
M 334.403009 239.742266 
L 316.745203 238.884487 
M 334.403009 239.742266 
L 324.595937 227.447956 
M 334.403009 239.742266 
L 326.161654 250.812326 
M 341.303483 227.790294 
L 324.595937 227.447956 
M 341.303483 227.790294 
L 330.852282 215.067067 
M 341.303483 227.790294 
L 334.403009 239.742266 
M 346.769759 215.118042 
L 330.852282 215.067067 
M 346.769759 215.118042 
L 335.402595 201.962757 
M 346.769759 215.118042 
L 341.303483 227.790294 
M 350.727915 201.896879 
L 335.402595 201.962757 
M 350.727915 201.896879 
L 338.165673 188.368874 
M 350.727915 201.896879 
L 346.769759 215.118042 
M 353.124425 188.305599 
L 339.09221 174.528 
M 353.124425 188.305599 
L 338.165673 188.368874 
M 353.124425 188.305599 
L 353.926878 174.528 
M 353.124425 188.305599 
L 350.727915 201.896879 
M 368.761546 174.528 
L 353.926878 174.528 
M 368.053916 160.800162 
L 353.926878 174.528 
M 368.053916 160.800162 
L 353.124425 160.750401 
M 368.053916 160.800162 
L 368.761546 174.528 
M 365.938526 147.217842 
L 353.124425 160.750401 
M 365.938526 147.217842 
L 350.727915 147.159121 
M 365.938526 147.217842 
L 368.053916 160.800162 
M 362.437801 133.925017 
L 350.727915 147.159121 
M 362.437801 133.925017 
L 346.769759 133.937958 
M 362.437801 133.925017 
L 365.938526 147.217842 
M 357.588848 121.062594 
L 346.769759 133.937958 
M 357.588848 121.062594 
L 341.303483 121.265706 
M 357.588848 121.062594 
L 362.437801 133.925017 
M 351.443068 108.766917 
L 341.303483 121.265706 
M 351.443068 108.766917 
L 334.403009 109.313734 
M 351.443068 108.766917 
L 357.588848 121.062594 
M 344.065608 97.168324 
L 334.403009 109.313734 
M 344.065608 97.168324 
L 326.161654 98.243674 
M 344.065608 97.168324 
L 351.443068 108.766917 
M 335.53467 86.389763 
L 326.161654 98.243674 
M 335.53467 86.389763 
L 316.69087 88.205229 
M 335.53467 86.389763 
L 344.065608 97.168324 
M 325.940685 76.545489 
L 316.69087 88.205229 
M 325.940685 76.545489 
L 306.11873 79.33415 
M 325.940685 76.545489 
L 335.53467 86.389763 
M 315.385351 67.739854 
L 306.11873 79.33415 
M 315.385351 67.739854 
L 325.940685 76.545489 
M 303.980557 60.0662 
L 306.11873 79.33415 
M 303.980557 60.0662 
L 294.588207 71.750406 
M 303.980557 60.0662 
L 315.385351 67.739854 
M 291.847198 53.605869 
L 294.588207 71.750406 
M 291.847198 53.605869 
L 282.255229 65.556552 
M 291.847198 53.605869 
L 303.980557 60.0662 
M 279.113889 48.427344 
L 282.255229 65.556552 
M 279.113889 48.427344 
L 269.286581 60.83635 
M 279.113889 48.427344 
L 291.847198 53.605869 
M 265.915607 44.585516 
L 269.286581 60.83635 
M 265.915607 44.585516 
L 255.857639 57.653632 
M 265.915607 44.585516 
L 279.113889 48.427344 
M 252.392258 42.121111 
L 255.857639 57.653632 
M 252.392258 42.121111 
L 242.150009 56.05144 
M 252.392258 42.121111 
L 265.915607 44.585516 
M 238.687191 41.060252 
L 242.150009 56.05144 
M 238.687191 41.060252 
L 228.349061 56.05144 
M 238.687191 41.060252 
L 252.392258 42.121111 
M 224.945684 41.414185 
L 228.349061 56.05144 
M 224.945684 41.414185 
L 214.641431 57.653632 
M 224.945684 41.414185 
L 238.687191 41.060252 
M 211.3134 43.179157 
L 214.641431 57.653632 
M 211.3134 43.179157 
L 224.945684 41.414185 
M 197.934846 46.336459 
L 214.641431 57.653632 
M 197.934846 46.336459 
L 201.212489 60.83635 
M 197.934846 46.336459 
L 211.3134 43.179157 
M 184.951836 50.852624 
L 201.212489 60.83635 
M 184.951836 50.852624 
L 188.243841 65.556552 
M 184.951836 50.852624 
L 197.934846 46.336459 
M 172.501995 56.679778 
L 188.243841 65.556552 
M 172.501995 56.679778 
L 175.910863 71.750406 
M 172.501995 56.679778 
L 184.951836 50.852624 
M 160.717293 63.756153 
L 175.910863 71.750406 
M 160.717293 63.756153 
L 164.38034 79.33415 
M 160.717293 63.756153 
L 172.501995 56.679778 
M 149.722651 72.006737 
L 164.38034 79.33415 
M 149.722651 72.006737 
L 153.808201 88.205229 
M 149.722651 72.006737 
L 160.717293 63.756153 
M 139.634616 81.344072 
L 153.808201 88.205229 
M 139.634616 81.344072 
L 144.337416 98.243674 
M 139.634616 81.344072 
L 149.722651 72.006737 
M 130.560123 91.66918 
L 144.337416 98.243674 
M 130.560123 91.66918 
L 136.096061 109.313734 
M 130.560123 91.66918 
L 139.634616 81.344072 
M 122.595363 102.872612 
L 136.096061 109.313734 
M 122.595363 102.872612 
L 129.195587 121.265706 
M 122.595363 102.872612 
L 130.560123 91.66918 
M 115.824766 114.835608 
L 129.195587 121.265706 
M 115.824766 114.835608 
L 122.595363 102.872612 
M 110.320101 127.431359 
L 129.195587 121.265706 
M 110.320101 127.431359 
L 123.729311 133.937958 
M 110.320101 127.431359 
L 115.824766 114.835608 
M 106.139719 140.526347 
L 123.729311 133.937958 
M 106.139719 140.526347 
L 119.771155 147.159121 
M 106.139719 140.526347 
L 110.320101 127.431359 
M 103.327933 153.98176 
L 119.771155 147.159121 
M 103.327933 153.98176 
L 117.374646 160.750401 
M 103.327933 153.98176 
L 106.139719 140.526347 
M 101.914549 167.654968 
L 117.374646 160.750401 
M 101.914549 167.654968 
L 116.572192 174.528 
M 101.914549 167.654968 
L 103.327933 153.98176 
M 101.914549 181.401032 
L 116.572192 174.528 
M 101.914549 181.401032 
L 117.374646 188.305599 
M 101.914549 181.401032 
L 101.914549 167.654968 
M 103.327933 195.07424 
L 117.374646 188.305599 
M 103.327933 195.07424 
L 119.771155 201.896879 
M 103.327933 195.07424 
L 101.914549 181.401032 
M 106.139719 208.529653 
L 119.771155 201.896879 
M 106.139719 208.529653 
L 123.729311 215.118042 
M 106.139719 208.529653 
L 103.327933 195.07424 
M 110.320101 221.624641 
L 123.729311 215.118042 
M 110.320101 221.624641 
L 129.195587 227.790294 
M 110.320101 221.624641 
L 106.139719 208.529653 
M 115.824766 234.220392 
L 129.195587 227.790294 
M 115.824766 234.220392 
L 110.320101 221.624641 
M 122.595363 246.183388 
L 129.195587 227.790294 
M 122.595363 246.183388 
L 136.096061 239.742266 
M 122.595363 246.183388 
L 115.824766 234.220392 
M 130.560123 257.38682 
L 136.096061 239.742266 
M 130.560123 257.38682 
L 144.337416 250.812326 
M 130.560123 257.38682 
L 122.595363 246.183388 
M 139.634616 267.711928 
L 144.337416 250.812326 
M 139.634616 267.711928 
L 153.808201 260.850771 
M 139.634616 267.711928 
L 130.560123 257.38682 
M 149.722651 277.049263 
L 153.808201 260.850771 
M 149.722651 277.049263 
L 164.38034 269.72185 
M 149.722651 277.049263 
L 139.634616 267.711928 
M 160.717293 285.299847 
L 164.38034 269.72185 
M 160.717293 285.299847 
L 175.910863 277.305594 
M 160.717293 285.299847 
L 149.722651 277.049263 
M 172.501995 292.376222 
L 175.910863 277.305594 
M 172.501995 292.376222 
L 188.243841 283.499448 
M 172.501995 292.376222 
L 160.717293 285.299847 
M 184.951836 298.203376 
L 188.243841 283.499448 
M 184.951836 298.203376 
L 201.212489 288.21965 
M 184.951836 298.203376 
L 172.501995 292.376222 
M 197.934846 302.719541 
L 201.212489 288.21965 
M 197.934846 302.719541 
L 214.641431 291.402368 
M 197.934846 302.719541 
L 184.951836 298.203376 
M 211.3134 305.876843 
L 214.641431 291.402368 
M 211.3134 305.876843 
L 197.934846 302.719541 
M 224.945684 307.641815 
L 214.641431 291.402368 
M 224.945684 307.641815 
L 228.349061 293.00456 
M 224.945684 307.641815 
L 211.3134 305.876843 
M 238.687191 307.995748 
L 228.349061 293.00456 
M 238.687191 307.995748 
L 242.150009 293.00456 
M 238.687191 307.995748 
L 224.945684 307.641815 
M 252.392258 306.934889 
L 242.150009 293.00456 
M 252.392258 306.934889 
L 255.857639 291.402368 
M 252.392258 306.934889 
L 238.687191 307.995748 
M 265.915607 304.470484 
L 255.857639 291.402368 
M 265.915607 304.470484 
L 269.286581 288.21965 
M 265.915607 304.470484 
L 252.392258 306.934889 
M 279.113889 300.628656 
L 269.286581 288.21965 
M 279.113889 300.628656 
L 282.255229 283.499448 
M 279.113889 300.628656 
L 265.915607 304.470484 
M 291.847198 295.450131 
L 282.255229 283.499448 
M 291.847198 295.450131 
L 294.588207 277.305594 
M 291.847198 295.450131 
L 279.113889 300.628656 
M 303.980557 288.9898 
L 294.588207 277.305594 
M 303.980557 288.9898 
L 306.11873 269.72185 
M 303.980557 288.9898 
L 291.847198 295.450131 
M 315.385351 281.316146 
L 306.11873 269.72185 
M 315.385351 281.316146 
L 303.980557 288.9898 
M 325.940685 272.510511 
L 306.11873 269.72185 
M 325.940685 272.510511 
L 316.69087 260.850771 
M 325.940685 272.510511 
L 315.385351 281.316146 
M 335.53467 262.666237 
L 316.69087 260.850771 
M 335.53467 262.666237 
L 326.161654 250.812326 
M 335.53467 262.666237 
L 325.940685 272.510511 
M 344.065608 251.887676 
L 326.161654 250.812326 
M 344.065608 251.887676 
L 334.403009 239.742266 
M 344.065608 251.887676 
L 335.53467 262.666237 
M 351.443068 240.289083 
L 334.403009 239.742266 
M 351.443068 240.289083 
L 341.303483 227.790294 
M 351.443068 240.289083 
L 344.065608 251.887676 
M 357.588848 227.993406 
L 341.303483 227.790294 
M 357.588848 227.993406 
L 346.769759 215.118042 
M 357.588848 227.993406 
L 351.443068 240.289083 
M 362.437801 215.130983 
L 346.769759 215.118042 
M 362.437801 215.130983 
L 350.727915 201.896879 
M 362.437801 215.130983 
L 357.588848 227.993406 
M 365.938526 201.838158 
L 350.727915 201.896879 
M 365.938526 201.838158 
L 353.124425 188.305599 
M 365.938526 201.838158 
L 362.437801 215.130983 
M 368.053916 188.255838 
L 353.926878 174.528 
M 368.053916 188.255838 
L 353.124425 188.305599 
M 368.053916 188.255838 
L 368.761546 174.528 
M 368.053916 188.255838 
L 365.938526 201.838158 
L 365.938526 201.838158 
" clip-path="url(#p5ca68cd06f)" style="fill: none; stroke: #0070c0; stroke-width: 1.5; stroke-linecap: square"/>
   </g>
   <g id="line2d_2">
    <defs>
     <path id="m1149899e6a" d="M 0 3 
C 0.795609 3 1.55874 2.683901 2.12132 2.12132 
C 2.683901 1.55874 3 0.795609 3 0 
C 3 -0.795609 2.683901 -1.55874 2.12132 -2.12132 
C 1.55874 -2.683901 0.795609 -3 0 -3 
C -0.795609 -3 -1.55874 -2.683901 -2.12132 -2.12132 
C -2.683901 -1.55874 -3 -0.795609 -3 0 
C -3 0.795609 -2.683901 1.55874 -2.12132 2.12132 
C -1.55874 2.683901 -0.795609 3 0 3 
z
" style="stroke: #0070c0"/>
    </defs>
    <g clip-path="url(#p5ca68cd06f)">
     <use xlink:href="#m1149899e6a" x="235.249535" y="174.528" style="fill: #0070c0; stroke: #0070c0"/>
     <use xlink:href="#m1149899e6a" x="250.084203" y="174.528" style="fill: #0070c0; stroke: #0070c0"/>
     <use xlink:href="#m1149899e6a" x="244.498799" y="162.92979" style="fill: #0070c0; stroke: #0070c0"/>
     <use xlink:href="#m1149899e6a" x="231.948511" y="160.065268" style="fill: #0070c0; stroke: #0070c0"/>
     <use xlink:href="#m1149899e6a" x="221.883961" y="168.091479" style="fill: #0070c0; stroke: #0070c0"/>
     <use xlink:href="#m1149899e6a" x="221.883961" y="180.964521" style="fill: #0070c0; stroke: #0070c0"/>
     <use xlink:href="#m1149899e6a" x="231.948511" y="188.990732" style="fill: #0070c0; stroke: #0070c0"/>
     <use xlink:href="#m1149899e6a" x="244.498799" y="186.12621" style="fill: #0070c0; stroke: #0070c0"/>
     <use xlink:href="#m1149899e6a" x="264.918871" y="174.528" style="fill: #0070c0; stroke: #0070c0"/>
     <use xlink:href="#m1149899e6a" x="261.980683" y="161.654958" style="fill: #0070c0; stroke: #0070c0"/>
     <use xlink:href="#m1149899e6a" x="253.748063" y="151.331579" style="fill: #0070c0; stroke: #0070c0"/>
     <use xlink:href="#m1149899e6a" x="241.851583" y="145.602536" style="fill: #0070c0; stroke: #0070c0"/>
     <use xlink:href="#m1149899e6a" x="228.647487" y="145.602536" style="fill: #0070c0; stroke: #0070c0"/>
     <use xlink:href="#m1149899e6a" x="216.751007" y="151.331579" style="fill: #0070c0; stroke: #0070c0"/>
     <use xlink:href="#m1149899e6a" x="208.518387" y="161.654958" style="fill: #0070c0; stroke: #0070c0"/>
     <use xlink:href="#m1149899e6a" x="205.580199" y="174.528" style="fill: #0070c0; stroke: #0070c0"/>
     <use xlink:href="#m1149899e6a" x="208.518387" y="187.401042" style="fill: #0070c0; stroke: #0070c0"/>
     <use xlink:href="#m1149899e6a" x="216.751007" y="197.724421" style="fill: #0070c0; stroke: #0070c0"/>
     <use xlink:href="#m1149899e6a" x="228.647487" y="203.453464" style="fill: #0070c0; stroke: #0070c0"/>
     <use xlink:href="#m1149899e6a" x="241.851583" y="203.453464" style="fill: #0070c0; stroke: #0070c0"/>
     <use xlink:href="#m1149899e6a" x="253.748063" y="197.724421" style="fill: #0070c0; stroke: #0070c0"/>
     <use xlink:href="#m1149899e6a" x="261.980683" y="187.401042" style="fill: #0070c0; stroke: #0070c0"/>
     <use xlink:href="#m1149899e6a" x="279.753539" y="174.528" style="fill: #0070c0; stroke: #0070c0"/>
     <use xlink:href="#m1149899e6a" x="277.776351" y="161.410215" style="fill: #0070c0; stroke: #0070c0"/>
     <use xlink:href="#m1149899e6a" x="272.020469" y="149.458002" style="fill: #0070c0; stroke: #0070c0"/>
     <use xlink:href="#m1149899e6a" x="262.997328" y="139.733369" style="fill: #0070c0; stroke: #0070c0"/>
     <use xlink:href="#m1149899e6a" x="251.508673" y="133.100391" style="fill: #0070c0; stroke: #0070c0"/>
     <use xlink:href="#m1149899e6a" x="238.575323" y="130.148438" style="fill: #0070c0; stroke: #0070c0"/>
     <use xlink:href="#m1149899e6a" x="225.346463" y="131.139805" style="fill: #0070c0; stroke: #0070c0"/>
     <use xlink:href="#m1149899e6a" x="212.997533" y="135.986402" style="fill: #0070c0; stroke: #0070c0"/>
     <use xlink:href="#m1149899e6a" x="202.625792" y="144.25759" style="fill: #0070c0; stroke: #0070c0"/>
     <use xlink:href="#m1149899e6a" x="195.152813" y="155.218436" style="fill: #0070c0; stroke: #0070c0"/>
     <use xlink:href="#m1149899e6a" x="191.242604" y="167.895022" style="fill: #0070c0; stroke: #0070c0"/>
     <use xlink:href="#m1149899e6a" x="191.242604" y="181.160978" style="fill: #0070c0; stroke: #0070c0"/>
     <use xlink:href="#m1149899e6a" x="195.152813" y="193.837564" style="fill: #0070c0; stroke: #0070c0"/>
     <use xlink:href="#m1149899e6a" x="202.625792" y="204.79841" style="fill: #0070c0; stroke: #0070c0"/>
     <use xlink:href="#m1149899e6a" x="212.997533" y="213.069598" style="fill: #0070c0; stroke: #0070c0"/>
     <use xlink:href="#m1149899e6a" x="225.346463" y="217.916195" style="fill: #0070c0; stroke: #0070c0"/>
     <use xlink:href="#m1149899e6a" x="238.575323" y="218.907562" style="fill: #0070c0; stroke: #0070c0"/>
     <use xlink:href="#m1149899e6a" x="251.508673" y="215.955609" style="fill: #0070c0; stroke: #0070c0"/>
     <use xlink:href="#m1149899e6a" x="262.997328" y="209.322631" style="fill: #0070c0; stroke: #0070c0"/>
     <use xlink:href="#m1149899e6a" x="272.020469" y="199.597998" style="fill: #0070c0; stroke: #0070c0"/>
     <use xlink:href="#m1149899e6a" x="277.776351" y="187.645785" style="fill: #0070c0; stroke: #0070c0"/>
     <use xlink:href="#m1149899e6a" x="294.588207" y="174.528" style="fill: #0070c0; stroke: #0070c0"/>
     <use xlink:href="#m1149899e6a" x="292.988725" y="160.843561" style="fill: #0070c0; stroke: #0070c0"/>
     <use xlink:href="#m1149899e6a" x="288.276509" y="147.896853" style="fill: #0070c0; stroke: #0070c0"/>
     <use xlink:href="#m1149899e6a" x="280.705595" y="136.385837" style="fill: #0070c0; stroke: #0070c0"/>
     <use xlink:href="#m1149899e6a" x="270.684133" y="126.931075" style="fill: #0070c0; stroke: #0070c0"/>
     <use xlink:href="#m1149899e6a" x="258.752382" y="120.042276" style="fill: #0070c0; stroke: #0070c0"/>
     <use xlink:href="#m1149899e6a" x="245.553587" y="116.090816" style="fill: #0070c0; stroke: #0070c0"/>
     <use xlink:href="#m1149899e6a" x="231.799298" y="115.28972" style="fill: #0070c0; stroke: #0070c0"/>
     <use xlink:href="#m1149899e6a" x="218.231012" y="117.682175" style="fill: #0070c0; stroke: #0070c0"/>
     <use xlink:href="#m1149899e6a" x="205.580199" y="123.139203" style="fill: #0070c0; stroke: #0070c0"/>
     <use xlink:href="#m1149899e6a" x="194.528868" y="131.366614" style="fill: #0070c0; stroke: #0070c0"/>
     <use xlink:href="#m1149899e6a" x="185.672798" y="141.920867" style="fill: #0070c0; stroke: #0070c0"/>
     <use xlink:href="#m1149899e6a" x="179.489423" y="154.232979" style="fill: #0070c0; stroke: #0070c0"/>
     <use xlink:href="#m1149899e6a" x="176.31209" y="167.639201" style="fill: #0070c0; stroke: #0070c0"/>
     <use xlink:href="#m1149899e6a" x="176.31209" y="181.416799" style="fill: #0070c0; stroke: #0070c0"/>
     <use xlink:href="#m1149899e6a" x="179.489423" y="194.823021" style="fill: #0070c0; stroke: #0070c0"/>
     <use xlink:href="#m1149899e6a" x="185.672798" y="207.135133" style="fill: #0070c0; stroke: #0070c0"/>
     <use xlink:href="#m1149899e6a" x="194.528868" y="217.689386" style="fill: #0070c0; stroke: #0070c0"/>
     <use xlink:href="#m1149899e6a" x="205.580199" y="225.916797" style="fill: #0070c0; stroke: #0070c0"/>
     <use xlink:href="#m1149899e6a" x="218.231012" y="231.373825" style="fill: #0070c0; stroke: #0070c0"/>
     <use xlink:href="#m1149899e6a" x="231.799298" y="233.76628" style="fill: #0070c0; stroke: #0070c0"/>
     <use xlink:href="#m1149899e6a" x="245.553587" y="232.965184" style="fill: #0070c0; stroke: #0070c0"/>
     <use xlink:href="#m1149899e6a" x="258.752382" y="229.013724" style="fill: #0070c0; stroke: #0070c0"/>
     <use xlink:href="#m1149899e6a" x="270.684133" y="222.124925" style="fill: #0070c0; stroke: #0070c0"/>
     <use xlink:href="#m1149899e6a" x="280.705595" y="212.670163" style="fill: #0070c0; stroke: #0070c0"/>
     <use xlink:href="#m1149899e6a" x="288.276509" y="201.159147" style="fill: #0070c0; stroke: #0070c0"/>
     <use xlink:href="#m1149899e6a" x="292.988725" y="188.212439" style="fill: #0070c0; stroke: #0070c0"/>
     <use xlink:href="#m1149899e6a" x="309.422875" y="174.528" style="fill: #0070c0; stroke: #0070c0"/>
     <use xlink:href="#m1149899e6a" x="308.159933" y="160.898685" style="fill: #0070c0; stroke: #0070c0"/>
     <use xlink:href="#m1149899e6a" x="304.414114" y="147.733499" style="fill: #0070c0; stroke: #0070c0"/>
     <use xlink:href="#m1149899e6a" x="298.312979" y="135.480768" style="fill: #0070c0; stroke: #0070c0"/>
     <use xlink:href="#m1149899e6a" x="290.064294" y="124.557744" style="fill: #0070c0; stroke: #0070c0"/>
     <use xlink:href="#m1149899e6a" x="279.948959" y="115.336397" style="fill: #0070c0; stroke: #0070c0"/>
     <use xlink:href="#m1149899e6a" x="268.311438" y="108.130749" style="fill: #0070c0; stroke: #0070c0"/>
     <use xlink:href="#m1149899e6a" x="255.548033" y="103.18618" style="fill: #0070c0; stroke: #0070c0"/>
     <use xlink:href="#m1149899e6a" x="242.093387" y="100.671071" style="fill: #0070c0; stroke: #0070c0"/>
     <use xlink:href="#m1149899e6a" x="228.405683" y="100.671071" style="fill: #0070c0; stroke: #0070c0"/>
     <use xlink:href="#m1149899e6a" x="214.951037" y="103.18618" style="fill: #0070c0; stroke: #0070c0"/>
     <use xlink:href="#m1149899e6a" x="202.187633" y="108.130749" style="fill: #0070c0; stroke: #0070c0"/>
     <use xlink:href="#m1149899e6a" x="190.550112" y="115.336397" style="fill: #0070c0; stroke: #0070c0"/>
     <use xlink:href="#m1149899e6a" x="180.434776" y="124.557744" style="fill: #0070c0; stroke: #0070c0"/>
     <use xlink:href="#m1149899e6a" x="172.186091" y="135.480768" style="fill: #0070c0; stroke: #0070c0"/>
     <use xlink:href="#m1149899e6a" x="166.084956" y="147.733499" style="fill: #0070c0; stroke: #0070c0"/>
     <use xlink:href="#m1149899e6a" x="162.339138" y="160.898685" style="fill: #0070c0; stroke: #0070c0"/>
     <use xlink:href="#m1149899e6a" x="161.076196" y="174.528" style="fill: #0070c0; stroke: #0070c0"/>
     <use xlink:href="#m1149899e6a" x="162.339138" y="188.157315" style="fill: #0070c0; stroke: #0070c0"/>
     <use xlink:href="#m1149899e6a" x="166.084956" y="201.322501" style="fill: #0070c0; stroke: #0070c0"/>
     <use xlink:href="#m1149899e6a" x="172.186091" y="213.575232" style="fill: #0070c0; stroke: #0070c0"/>
     <use xlink:href="#m1149899e6a" x="180.434776" y="224.498256" style="fill: #0070c0; stroke: #0070c0"/>
     <use xlink:href="#m1149899e6a" x="190.550112" y="233.719603" style="fill: #0070c0; stroke: #0070c0"/>
     <use xlink:href="#m1149899e6a" x="202.187633" y="240.925251" style="fill: #0070c0; stroke: #0070c0"/>
     <use xlink:href="#m1149899e6a" x="214.951037" y="245.86982" style="fill: #0070c0; stroke: #0070c0"/>
     <use xlink:href="#m1149899e6a" x="228.405683" y="248.384929" style="fill: #0070c0; stroke: #0070c0"/>
     <use xlink:href="#m1149899e6a" x="242.093387" y="248.384929" style="fill: #0070c0; stroke: #0070c0"/>
     <use xlink:href="#m1149899e6a" x="255.548033" y="245.86982" style="fill: #0070c0; stroke: #0070c0"/>
     <use xlink:href="#m1149899e6a" x="268.311438" y="240.925251" style="fill: #0070c0; stroke: #0070c0"/>
     <use xlink:href="#m1149899e6a" x="279.948959" y="233.719603" style="fill: #0070c0; stroke: #0070c0"/>
     <use xlink:href="#m1149899e6a" x="290.064294" y="224.498256" style="fill: #0070c0; stroke: #0070c0"/>
     <use xlink:href="#m1149899e6a" x="298.312979" y="213.575232" style="fill: #0070c0; stroke: #0070c0"/>
     <use xlink:href="#m1149899e6a" x="304.414114" y="201.322501" style="fill: #0070c0; stroke: #0070c0"/>
     <use xlink:href="#m1149899e6a" x="308.159933" y="188.157315" style="fill: #0070c0; stroke: #0070c0"/>
     <use xlink:href="#m1149899e6a" x="324.257543" y="174.528" style="fill: #0070c0; stroke: #0070c0"/>
     <use xlink:href="#m1149899e6a" x="323.214406" y="160.940991" style="fill: #0070c0; stroke: #0070c0"/>
     <use xlink:href="#m1149899e6a" x="320.109448" y="147.672451" style="fill: #0070c0; stroke: #0070c0"/>
     <use xlink:href="#m1149899e6a" x="315.015446" y="135.033381" style="fill: #0070c0; stroke: #0070c0"/>
     <use xlink:href="#m1149899e6a" x="308.051798" y="123.320032" style="fill: #0070c0; stroke: #0070c0"/>
     <use xlink:href="#m1149899e6a" x="299.381726" y="112.806955" style="fill: #0070c0; stroke: #0070c0"/>
     <use xlink:href="#m1149899e6a" x="289.208451" y="103.740566" style="fill: #0070c0; stroke: #0070c0"/>
     <use xlink:href="#m1149899e6a" x="277.770424" y="96.333375" style="fill: #0070c0; stroke: #0070c0"/>
     <use xlink:href="#m1149899e6a" x="265.335744" y="90.759" style="fill: #0070c0; stroke: #0070c0"/>
     <use xlink:href="#m1149899e6a" x="252.195868" y="87.148099" style="fill: #0070c0; stroke: #0070c0"/>
     <use xlink:href="#m1149899e6a" x="238.658785" y="85.585308" style="fill: #0070c0; stroke: #0070c0"/>
     <use xlink:href="#m1149899e6a" x="225.041792" y="86.107259" style="fill: #0070c0; stroke: #0070c0"/>
     <use xlink:href="#m1149899e6a" x="211.66406" y="88.701718" style="fill: #0070c0; stroke: #0070c0"/>
     <use xlink:href="#m1149899e6a" x="198.839151" y="93.307871" style="fill: #0070c0; stroke: #0070c0"/>
     <use xlink:href="#m1149899e6a" x="186.867671" y="99.817756" style="fill: #0070c0; stroke: #0070c0"/>
     <use xlink:href="#m1149899e6a" x="176.03022" y="108.078785" style="fill: #0070c0; stroke: #0070c0"/>
     <use xlink:href="#m1149899e6a" x="166.58082" y="117.897328" style="fill: #0070c0; stroke: #0070c0"/>
     <use xlink:href="#m1149899e6a" x="158.740957" y="129.043246" style="fill: #0070c0; stroke: #0070c0"/>
     <use xlink:href="#m1149899e6a" x="152.69439" y="141.255287" style="fill: #0070c0; stroke: #0070c0"/>
     <use xlink:href="#m1149899e6a" x="148.582846" y="154.247213" style="fill: #0070c0; stroke: #0070c0"/>
     <use xlink:href="#m1149899e6a" x="146.502695" y="167.714504" style="fill: #0070c0; stroke: #0070c0"/>
     <use xlink:href="#m1149899e6a" x="146.502695" y="181.341496" style="fill: #0070c0; stroke: #0070c0"/>
     <use xlink:href="#m1149899e6a" x="148.582846" y="194.808787" style="fill: #0070c0; stroke: #0070c0"/>
     <use xlink:href="#m1149899e6a" x="152.69439" y="207.800713" style="fill: #0070c0; stroke: #0070c0"/>
     <use xlink:href="#m1149899e6a" x="158.740957" y="220.012754" style="fill: #0070c0; stroke: #0070c0"/>
     <use xlink:href="#m1149899e6a" x="166.58082" y="231.158672" style="fill: #0070c0; stroke: #0070c0"/>
     <use xlink:href="#m1149899e6a" x="176.03022" y="240.977215" style="fill: #0070c0; stroke: #0070c0"/>
     <use xlink:href="#m1149899e6a" x="186.867671" y="249.238244" style="fill: #0070c0; stroke: #0070c0"/>
     <use xlink:href="#m1149899e6a" x="198.839151" y="255.748129" style="fill: #0070c0; stroke: #0070c0"/>
     <use xlink:href="#m1149899e6a" x="211.66406" y="260.354282" style="fill: #0070c0; stroke: #0070c0"/>
     <use xlink:href="#m1149899e6a" x="225.041792" y="262.948741" style="fill: #0070c0; stroke: #0070c0"/>
     <use xlink:href="#m1149899e6a" x="238.658785" y="263.470692" style="fill: #0070c0; stroke: #0070c0"/>
     <use xlink:href="#m1149899e6a" x="252.195868" y="261.907901" style="fill: #0070c0; stroke: #0070c0"/>
     <use xlink:href="#m1149899e6a" x="265.335744" y="258.297" style="fill: #0070c0; stroke: #0070c0"/>
     <use xlink:href="#m1149899e6a" x="277.770424" y="252.722625" style="fill: #0070c0; stroke: #0070c0"/>
     <use xlink:href="#m1149899e6a" x="289.208451" y="245.315434" style="fill: #0070c0; stroke: #0070c0"/>
     <use xlink:href="#m1149899e6a" x="299.381726" y="236.249045" style="fill: #0070c0; stroke: #0070c0"/>
     <use xlink:href="#m1149899e6a" x="308.051798" y="225.735968" style="fill: #0070c0; stroke: #0070c0"/>
     <use xlink:href="#m1149899e6a" x="315.015446" y="214.022619" style="fill: #0070c0; stroke: #0070c0"/>
     <use xlink:href="#m1149899e6a" x="320.109448" y="201.383549" style="fill: #0070c0; stroke: #0070c0"/>
     <use xlink:href="#m1149899e6a" x="323.214406" y="188.115009" style="fill: #0070c0; stroke: #0070c0"/>
     <use xlink:href="#m1149899e6a" x="339.09221" y="174.528" style="fill: #0070c0; stroke: #0070c0"/>
     <use xlink:href="#m1149899e6a" x="338.165673" y="160.687126" style="fill: #0070c0; stroke: #0070c0"/>
     <use xlink:href="#m1149899e6a" x="335.402595" y="147.093243" style="fill: #0070c0; stroke: #0070c0"/>
     <use xlink:href="#m1149899e6a" x="330.852282" y="133.988933" style="fill: #0070c0; stroke: #0070c0"/>
     <use xlink:href="#m1149899e6a" x="324.595937" y="121.608044" style="fill: #0070c0; stroke: #0070c0"/>
     <use xlink:href="#m1149899e6a" x="316.745203" y="110.171513" style="fill: #0070c0; stroke: #0070c0"/>
     <use xlink:href="#m1149899e6a" x="307.440177" y="99.883426" style="fill: #0070c0; stroke: #0070c0"/>
     <use xlink:href="#m1149899e6a" x="296.846907" y="90.927372" style="fill: #0070c0; stroke: #0070c0"/>
     <use xlink:href="#m1149899e6a" x="285.15443" y="83.463173" style="fill: #0070c0; stroke: #0070c0"/>
     <use xlink:href="#m1149899e6a" x="272.5714" y="77.624029" style="fill: #0070c0; stroke: #0070c0"/>
     <use xlink:href="#m1149899e6a" x="259.32236" y="73.514138" style="fill: #0070c0; stroke: #0070c0"/>
     <use xlink:href="#m1149899e6a" x="245.64374" y="71.206842" style="fill: #0070c0; stroke: #0070c0"/>
     <use xlink:href="#m1149899e6a" x="231.779634" y="70.743314" style="fill: #0070c0; stroke: #0070c0"/>
     <use xlink:href="#m1149899e6a" x="217.97745" y="72.131827" style="fill: #0070c0; stroke: #0070c0"/>
     <use xlink:href="#m1149899e6a" x="204.483486" y="75.347601" style="fill: #0070c0; stroke: #0070c0"/>
     <use xlink:href="#m1149899e6a" x="191.538543" y="80.333253" style="fill: #0070c0; stroke: #0070c0"/>
     <use xlink:href="#m1149899e6a" x="179.373624" y="86.999811" style="fill: #0070c0; stroke: #0070c0"/>
     <use xlink:href="#m1149899e6a" x="168.205812" y="95.228313" style="fill: #0070c0; stroke: #0070c0"/>
     <use xlink:href="#m1149899e6a" x="158.234396" y="104.871919" style="fill: #0070c0; stroke: #0070c0"/>
     <use xlink:href="#m1149899e6a" x="149.637318" y="115.75854" style="fill: #0070c0; stroke: #0070c0"/>
     <use xlink:href="#m1149899e6a" x="142.567991" y="127.693903" style="fill: #0070c0; stroke: #0070c0"/>
     <use xlink:href="#m1149899e6a" x="137.152569" y="140.465021" style="fill: #0070c0; stroke: #0070c0"/>
     <use xlink:href="#m1149899e6a" x="133.48769" y="153.843994" style="fill: #0070c0; stroke: #0070c0"/>
     <use xlink:href="#m1149899e6a" x="131.638753" y="167.592074" style="fill: #0070c0; stroke: #0070c0"/>
     <use xlink:href="#m1149899e6a" x="131.638753" y="181.463926" style="fill: #0070c0; stroke: #0070c0"/>
     <use xlink:href="#m1149899e6a" x="133.48769" y="195.212006" style="fill: #0070c0; stroke: #0070c0"/>
     <use xlink:href="#m1149899e6a" x="137.152569" y="208.590979" style="fill: #0070c0; stroke: #0070c0"/>
     <use xlink:href="#m1149899e6a" x="142.567991" y="221.362097" style="fill: #0070c0; stroke: #0070c0"/>
     <use xlink:href="#m1149899e6a" x="149.637318" y="233.29746" style="fill: #0070c0; stroke: #0070c0"/>
     <use xlink:href="#m1149899e6a" x="158.234396" y="244.184081" style="fill: #0070c0; stroke: #0070c0"/>
     <use xlink:href="#m1149899e6a" x="168.205812" y="253.827687" style="fill: #0070c0; stroke: #0070c0"/>
     <use xlink:href="#m1149899e6a" x="179.373624" y="262.056189" style="fill: #0070c0; stroke: #0070c0"/>
     <use xlink:href="#m1149899e6a" x="191.538543" y="268.722747" style="fill: #0070c0; stroke: #0070c0"/>
     <use xlink:href="#m1149899e6a" x="204.483486" y="273.708399" style="fill: #0070c0; stroke: #0070c0"/>
     <use xlink:href="#m1149899e6a" x="217.97745" y="276.924173" style="fill: #0070c0; stroke: #0070c0"/>
     <use xlink:href="#m1149899e6a" x="231.779634" y="278.312686" style="fill: #0070c0; stroke: #0070c0"/>
     <use xlink:href="#m1149899e6a" x="245.64374" y="277.849158" style="fill: #0070c0; stroke: #0070c0"/>
     <use xlink:href="#m1149899e6a" x="259.32236" y="275.541862" style="fill: #0070c0; stroke: #0070c0"/>
     <use xlink:href="#m1149899e6a" x="272.5714" y="271.431971" style="fill: #0070c0; stroke: #0070c0"/>
     <use xlink:href="#m1149899e6a" x="285.15443" y="265.592827" style="fill: #0070c0; stroke: #0070c0"/>
     <use xlink:href="#m1149899e6a" x="296.846907" y="258.128628" style="fill: #0070c0; stroke: #0070c0"/>
     <use xlink:href="#m1149899e6a" x="307.440177" y="249.172574" style="fill: #0070c0; stroke: #0070c0"/>
     <use xlink:href="#m1149899e6a" x="316.745203" y="238.884487" style="fill: #0070c0; stroke: #0070c0"/>
     <use xlink:href="#m1149899e6a" x="324.595937" y="227.447956" style="fill: #0070c0; stroke: #0070c0"/>
     <use xlink:href="#m1149899e6a" x="330.852282" y="215.067067" style="fill: #0070c0; stroke: #0070c0"/>
     <use xlink:href="#m1149899e6a" x="335.402595" y="201.962757" style="fill: #0070c0; stroke: #0070c0"/>
     <use xlink:href="#m1149899e6a" x="338.165673" y="188.368874" style="fill: #0070c0; stroke: #0070c0"/>
     <use xlink:href="#m1149899e6a" x="353.926878" y="174.528" style="fill: #0070c0; stroke: #0070c0"/>
     <use xlink:href="#m1149899e6a" x="353.124425" y="160.750401" style="fill: #0070c0; stroke: #0070c0"/>
     <use xlink:href="#m1149899e6a" x="350.727915" y="147.159121" style="fill: #0070c0; stroke: #0070c0"/>
     <use xlink:href="#m1149899e6a" x="346.769759" y="133.937958" style="fill: #0070c0; stroke: #0070c0"/>
     <use xlink:href="#m1149899e6a" x="341.303483" y="121.265706" style="fill: #0070c0; stroke: #0070c0"/>
     <use xlink:href="#m1149899e6a" x="334.403009" y="109.313734" style="fill: #0070c0; stroke: #0070c0"/>
     <use xlink:href="#m1149899e6a" x="326.161654" y="98.243674" style="fill: #0070c0; stroke: #0070c0"/>
     <use xlink:href="#m1149899e6a" x="316.69087" y="88.205229" style="fill: #0070c0; stroke: #0070c0"/>
     <use xlink:href="#m1149899e6a" x="306.11873" y="79.33415" style="fill: #0070c0; stroke: #0070c0"/>
     <use xlink:href="#m1149899e6a" x="294.588207" y="71.750406" style="fill: #0070c0; stroke: #0070c0"/>
     <use xlink:href="#m1149899e6a" x="282.255229" y="65.556552" style="fill: #0070c0; stroke: #0070c0"/>
     <use xlink:href="#m1149899e6a" x="269.286581" y="60.83635" style="fill: #0070c0; stroke: #0070c0"/>
     <use xlink:href="#m1149899e6a" x="255.857639" y="57.653632" style="fill: #0070c0; stroke: #0070c0"/>
     <use xlink:href="#m1149899e6a" x="242.150009" y="56.05144" style="fill: #0070c0; stroke: #0070c0"/>
     <use xlink:href="#m1149899e6a" x="228.349061" y="56.05144" style="fill: #0070c0; stroke: #0070c0"/>
     <use xlink:href="#m1149899e6a" x="214.641431" y="57.653632" style="fill: #0070c0; stroke: #0070c0"/>
     <use xlink:href="#m1149899e6a" x="201.212489" y="60.83635" style="fill: #0070c0; stroke: #0070c0"/>
     <use xlink:href="#m1149899e6a" x="188.243841" y="65.556552" style="fill: #0070c0; stroke: #0070c0"/>
     <use xlink:href="#m1149899e6a" x="175.910863" y="71.750406" style="fill: #0070c0; stroke: #0070c0"/>
     <use xlink:href="#m1149899e6a" x="164.38034" y="79.33415" style="fill: #0070c0; stroke: #0070c0"/>
     <use xlink:href="#m1149899e6a" x="153.808201" y="88.205229" style="fill: #0070c0; stroke: #0070c0"/>
     <use xlink:href="#m1149899e6a" x="144.337416" y="98.243674" style="fill: #0070c0; stroke: #0070c0"/>
     <use xlink:href="#m1149899e6a" x="136.096061" y="109.313734" style="fill: #0070c0; stroke: #0070c0"/>
     <use xlink:href="#m1149899e6a" x="129.195587" y="121.265706" style="fill: #0070c0; stroke: #0070c0"/>
     <use xlink:href="#m1149899e6a" x="123.729311" y="133.937958" style="fill: #0070c0; stroke: #0070c0"/>
     <use xlink:href="#m1149899e6a" x="119.771155" y="147.159121" style="fill: #0070c0; stroke: #0070c0"/>
     <use xlink:href="#m1149899e6a" x="117.374646" y="160.750401" style="fill: #0070c0; stroke: #0070c0"/>
     <use xlink:href="#m1149899e6a" x="116.572192" y="174.528" style="fill: #0070c0; stroke: #0070c0"/>
     <use xlink:href="#m1149899e6a" x="117.374646" y="188.305599" style="fill: #0070c0; stroke: #0070c0"/>
     <use xlink:href="#m1149899e6a" x="119.771155" y="201.896879" style="fill: #0070c0; stroke: #0070c0"/>
     <use xlink:href="#m1149899e6a" x="123.729311" y="215.118042" style="fill: #0070c0; stroke: #0070c0"/>
     <use xlink:href="#m1149899e6a" x="129.195587" y="227.790294" style="fill: #0070c0; stroke: #0070c0"/>
     <use xlink:href="#m1149899e6a" x="136.096061" y="239.742266" style="fill: #0070c0; stroke: #0070c0"/>
     <use xlink:href="#m1149899e6a" x="144.337416" y="250.812326" style="fill: #0070c0; stroke: #0070c0"/>
     <use xlink:href="#m1149899e6a" x="153.808201" y="260.850771" style="fill: #0070c0; stroke: #0070c0"/>
     <use xlink:href="#m1149899e6a" x="164.38034" y="269.72185" style="fill: #0070c0; stroke: #0070c0"/>
     <use xlink:href="#m1149899e6a" x="175.910863" y="277.305594" style="fill: #0070c0; stroke: #0070c0"/>
     <use xlink:href="#m1149899e6a" x="188.243841" y="283.499448" style="fill: #0070c0; stroke: #0070c0"/>
     <use xlink:href="#m1149899e6a" x="201.212489" y="288.21965" style="fill: #0070c0; stroke: #0070c0"/>
     <use xlink:href="#m1149899e6a" x="214.641431" y="291.402368" style="fill: #0070c0; stroke: #0070c0"/>
     <use xlink:href="#m1149899e6a" x="228.349061" y="293.00456" style="fill: #0070c0; stroke: #0070c0"/>
     <use xlink:href="#m1149899e6a" x="242.150009" y="293.00456" style="fill: #0070c0; stroke: #0070c0"/>
     <use xlink:href="#m1149899e6a" x="255.857639" y="291.402368" style="fill: #0070c0; stroke: #0070c0"/>
     <use xlink:href="#m1149899e6a" x="269.286581" y="288.21965" style="fill: #0070c0; stroke: #0070c0"/>
     <use xlink:href="#m1149899e6a" x="282.255229" y="283.499448" style="fill: #0070c0; stroke: #0070c0"/>
     <use xlink:href="#m1149899e6a" x="294.588207" y="277.305594" style="fill: #0070c0; stroke: #0070c0"/>
     <use xlink:href="#m1149899e6a" x="306.11873" y="269.72185" style="fill: #0070c0; stroke: #0070c0"/>
     <use xlink:href="#m1149899e6a" x="316.69087" y="260.850771" style="fill: #0070c0; stroke: #0070c0"/>
     <use xlink:href="#m1149899e6a" x="326.161654" y="250.812326" style="fill: #0070c0; stroke: #0070c0"/>
     <use xlink:href="#m1149899e6a" x="334.403009" y="239.742266" style="fill: #0070c0; stroke: #0070c0"/>
     <use xlink:href="#m1149899e6a" x="341.303483" y="227.790294" style="fill: #0070c0; stroke: #0070c0"/>
     <use xlink:href="#m1149899e6a" x="346.769759" y="215.118042" style="fill: #0070c0; stroke: #0070c0"/>
     <use xlink:href="#m1149899e6a" x="350.727915" y="201.896879" style="fill: #0070c0; stroke: #0070c0"/>
     <use xlink:href="#m1149899e6a" x="353.124425" y="188.305599" style="fill: #0070c0; stroke: #0070c0"/>
     <use xlink:href="#m1149899e6a" x="368.761546" y="174.528" style="fill: #0070c0; stroke: #0070c0"/>
     <use xlink:href="#m1149899e6a" x="368.053916" y="160.800162" style="fill: #0070c0; stroke: #0070c0"/>
     <use xlink:href="#m1149899e6a" x="365.938526" y="147.217842" style="fill: #0070c0; stroke: #0070c0"/>
     <use xlink:href="#m1149899e6a" x="362.437801" y="133.925017" style="fill: #0070c0; stroke: #0070c0"/>
     <use xlink:href="#m1149899e6a" x="357.588848" y="121.062594" style="fill: #0070c0; stroke: #0070c0"/>
     <use xlink:href="#m1149899e6a" x="351.443068" y="108.766917" style="fill: #0070c0; stroke: #0070c0"/>
     <use xlink:href="#m1149899e6a" x="344.065608" y="97.168324" style="fill: #0070c0; stroke: #0070c0"/>
     <use xlink:href="#m1149899e6a" x="335.53467" y="86.389763" style="fill: #0070c0; stroke: #0070c0"/>
     <use xlink:href="#m1149899e6a" x="325.940685" y="76.545489" style="fill: #0070c0; stroke: #0070c0"/>
     <use xlink:href="#m1149899e6a" x="315.385351" y="67.739854" style="fill: #0070c0; stroke: #0070c0"/>
     <use xlink:href="#m1149899e6a" x="303.980557" y="60.0662" style="fill: #0070c0; stroke: #0070c0"/>
     <use xlink:href="#m1149899e6a" x="291.847198" y="53.605869" style="fill: #0070c0; stroke: #0070c0"/>
     <use xlink:href="#m1149899e6a" x="279.113889" y="48.427344" style="fill: #0070c0; stroke: #0070c0"/>
     <use xlink:href="#m1149899e6a" x="265.915607" y="44.585516" style="fill: #0070c0; stroke: #0070c0"/>
     <use xlink:href="#m1149899e6a" x="252.392258" y="42.121111" style="fill: #0070c0; stroke: #0070c0"/>
     <use xlink:href="#m1149899e6a" x="238.687191" y="41.060252" style="fill: #0070c0; stroke: #0070c0"/>
     <use xlink:href="#m1149899e6a" x="224.945684" y="41.414185" style="fill: #0070c0; stroke: #0070c0"/>
     <use xlink:href="#m1149899e6a" x="211.3134" y="43.179157" style="fill: #0070c0; stroke: #0070c0"/>
     <use xlink:href="#m1149899e6a" x="197.934846" y="46.336459" style="fill: #0070c0; stroke: #0070c0"/>
     <use xlink:href="#m1149899e6a" x="184.951836" y="50.852624" style="fill: #0070c0; stroke: #0070c0"/>
     <use xlink:href="#m1149899e6a" x="172.501995" y="56.679778" style="fill: #0070c0; stroke: #0070c0"/>
     <use xlink:href="#m1149899e6a" x="160.717293" y="63.756153" style="fill: #0070c0; stroke: #0070c0"/>
     <use xlink:href="#m1149899e6a" x="149.722651" y="72.006737" style="fill: #0070c0; stroke: #0070c0"/>
     <use xlink:href="#m1149899e6a" x="139.634616" y="81.344072" style="fill: #0070c0; stroke: #0070c0"/>
     <use xlink:href="#m1149899e6a" x="130.560123" y="91.66918" style="fill: #0070c0; stroke: #0070c0"/>
     <use xlink:href="#m1149899e6a" x="122.595363" y="102.872612" style="fill: #0070c0; stroke: #0070c0"/>
     <use xlink:href="#m1149899e6a" x="115.824766" y="114.835608" style="fill: #0070c0; stroke: #0070c0"/>
     <use xlink:href="#m1149899e6a" x="110.320101" y="127.431359" style="fill: #0070c0; stroke: #0070c0"/>
     <use xlink:href="#m1149899e6a" x="106.139719" y="140.526347" style="fill: #0070c0; stroke: #0070c0"/>
     <use xlink:href="#m1149899e6a" x="103.327933" y="153.98176" style="fill: #0070c0; stroke: #0070c0"/>
     <use xlink:href="#m1149899e6a" x="101.914549" y="167.654968" style="fill: #0070c0; stroke: #0070c0"/>
     <use xlink:href="#m1149899e6a" x="101.914549" y="181.401032" style="fill: #0070c0; stroke: #0070c0"/>
     <use xlink:href="#m1149899e6a" x="103.327933" y="195.07424" style="fill: #0070c0; stroke: #0070c0"/>
     <use xlink:href="#m1149899e6a" x="106.139719" y="208.529653" style="fill: #0070c0; stroke: #0070c0"/>
     <use xlink:href="#m1149899e6a" x="110.320101" y="221.624641" style="fill: #0070c0; stroke: #0070c0"/>
     <use xlink:href="#m1149899e6a" x="115.824766" y="234.220392" style="fill: #0070c0; stroke: #0070c0"/>
     <use xlink:href="#m1149899e6a" x="122.595363" y="246.183388" style="fill: #0070c0; stroke: #0070c0"/>
     <use xlink:href="#m1149899e6a" x="130.560123" y="257.38682" style="fill: #0070c0; stroke: #0070c0"/>
     <use xlink:href="#m1149899e6a" x="139.634616" y="267.711928" style="fill: #0070c0; stroke: #0070c0"/>
     <use xlink:href="#m1149899e6a" x="149.722651" y="277.049263" style="fill: #0070c0; stroke: #0070c0"/>
     <use xlink:href="#m1149899e6a" x="160.717293" y="285.299847" style="fill: #0070c0; stroke: #0070c0"/>
     <use xlink:href="#m1149899e6a" x="172.501995" y="292.376222" style="fill: #0070c0; stroke: #0070c0"/>
     <use xlink:href="#m1149899e6a" x="184.951836" y="298.203376" style="fill: #0070c0; stroke: #0070c0"/>
     <use xlink:href="#m1149899e6a" x="197.934846" y="302.719541" style="fill: #0070c0; stroke: #0070c0"/>
     <use xlink:href="#m1149899e6a" x="211.3134" y="305.876843" style="fill: #0070c0; stroke: #0070c0"/>
     <use xlink:href="#m1149899e6a" x="224.945684" y="307.641815" style="fill: #0070c0; stroke: #0070c0"/>
     <use xlink:href="#m1149899e6a" x="238.687191" y="307.995748" style="fill: #0070c0; stroke: #0070c0"/>
     <use xlink:href="#m1149899e6a" x="252.392258" y="306.934889" style="fill: #0070c0; stroke: #0070c0"/>
     <use xlink:href="#m1149899e6a" x="265.915607" y="304.470484" style="fill: #0070c0; stroke: #0070c0"/>
     <use xlink:href="#m1149899e6a" x="279.113889" y="300.628656" style="fill: #0070c0; stroke: #0070c0"/>
     <use xlink:href="#m1149899e6a" x="291.847198" y="295.450131" style="fill: #0070c0; stroke: #0070c0"/>
     <use xlink:href="#m1149899e6a" x="303.980557" y="288.9898" style="fill: #0070c0; stroke: #0070c0"/>
     <use xlink:href="#m1149899e6a" x="315.385351" y="281.316146" style="fill: #0070c0; stroke: #0070c0"/>
     <use xlink:href="#m1149899e6a" x="325.940685" y="272.510511" style="fill: #0070c0; stroke: #0070c0"/>
     <use xlink:href="#m1149899e6a" x="335.53467" y="262.666237" style="fill: #0070c0; stroke: #0070c0"/>
     <use xlink:href="#m1149899e6a" x="344.065608" y="251.887676" style="fill: #0070c0; stroke: #0070c0"/>
     <use xlink:href="#m1149899e6a" x="351.443068" y="240.289083" style="fill: #0070c0; stroke: #0070c0"/>
     <use xlink:href="#m1149899e6a" x="357.588848" y="227.993406" style="fill: #0070c0; stroke: #0070c0"/>
     <use xlink:href="#m1149899e6a" x="362.437801" y="215.130983" style="fill: #0070c0; stroke: #0070c0"/>
     <use xlink:href="#m1149899e6a" x="365.938526" y="201.838158" style="fill: #0070c0; stroke: #0070c0"/>
     <use xlink:href="#m1149899e6a" x="368.053916" y="188.255838" style="fill: #0070c0; stroke: #0070c0"/>
    </g>
   </g>
  </g>
 </g>
 <defs>
  <clipPath id="p5ca68cd06f">
   <rect x="103.558454" y="41.472" width="265.203093" height="266.112"/>
  </clipPath>
 </defs>
</svg>
