<?xml version="1.0" encoding="utf-8" standalone="no"?>
<!DOCTYPE svg PUBLIC "-//W3C//DTD SVG 1.1//EN"
  "http://www.w3.org/Graphics/SVG/1.1/DTD/svg11.dtd">
<svg xmlns:xlink="http://www.w3.org/1999/xlink" width="460.8pt" height="345.6pt" viewBox="0 0 460.8 345.6" xmlns="http://www.w3.org/2000/svg" version="1.1">
 <metadata>
  <rdf:RDF xmlns:dc="http://purl.org/dc/elements/1.1/" xmlns:cc="http://creativecommons.org/ns#" xmlns:rdf="http://www.w3.org/1999/02/22-rdf-syntax-ns#">
   <cc:Work>
    <dc:type rdf:resource="http://purl.org/dc/dcmitype/StillImage"/>
    <dc:date>2025-11-30T12:17:13.005282</dc:date>
    <dc:format>image/svg+xml</dc:format>
    <dc:creator>
     <cc:Agent>
      <dc:title>Matplotlib v3.10.6, https://matplotlib.org/</dc:title>
     </cc:Agent>
    </dc:creator>
   </cc:Work>
  </rdf:RDF>
 </metadata>
 <defs>
  <style type="text/css">*{stroke-linejoin: round; stroke-linecap: butt}</style>
 </defs>
 <g id="figure_1">
  <g id="patch_1">
   <path d="M 0 345.6 
L 460.8 345.6 
L 460.8 0 
L 0 0 
z
" style="fill: #ffffff"/>
  </g>
  <g id="axes_1">
   <g id="line2d_1">
    <path d="M 117.109895 307.584 
L 103.104 307.584 
M 131.115789 307.584 
L 117.109895 307.584 
M 145.121684 307.584 
L 131.115789 307.584 
M 159.127579 307.584 
L 145.121684 307.584 
M 173.133474 307.584 
L 159.127579 307.584 
M 187.139368 307.584 
L 173.133474 307.584 
M 201.145263 307.584 
L 187.139368 307.584 
M 215.151158 307.584 
L 201.145263 307.584 
M 229.157053 307.584 
L 215.151158 307.584 
M 243.162947 307.584 
L 229.157053 307.584 
M 257.168842 307.584 
L 243.162947 307.584 
M 271.174737 307.584 
L 257.168842 307.584 
M 285.180632 307.584 
L 271.174737 307.584 
M 299.186526 307.584 
L 285.180632 307.584 
M 313.192421 307.584 
L 299.186526 307.584 
M 327.198316 307.584 
L 313.192421 307.584 
M 341.204211 307.584 
L 327.198316 307.584 
M 355.210105 307.584 
L 341.204211 307.584 
M 369.216 307.584 
L 355.210105 307.584 
M 103.104 293.578105 
L 103.104 307.584 
M 103.104 293.578105 
L 117.109895 307.584 
M 117.109895 293.578105 
L 117.109895 307.584 
M 117.109895 293.578105 
L 103.104 293.578105 
M 131.115789 293.578105 
L 117.109895 307.584 
M 131.115789 293.578105 
L 131.115789 307.584 
M 131.115789 293.578105 
L 145.121684 307.584 
M 131.115789 293.578105 
L 117.109895 293.578105 
M 145.121684 293.578105 
L 145.121684 307.584 
M 145.121684 293.578105 
L 131.115789 293.578105 
M 159.127579 293.578105 
L 145.121684 307.584 
M 159.127579 293.578105 
L 159.127579 307.584 
M 159.127579 293.578105 
L 145.121684 293.578105 
M 173.133474 293.578105 
L 159.127579 307.584 
M 173.133474 293.578105 
L 173.133474 307.584 
M 173.133474 293.578105 
L 187.139368 307.584 
M 173.133474 293.578105 
L 159.127579 293.578105 
M 187.139368 293.578105 
L 187.139368 307.584 
M 187.139368 293.578105 
L 173.133474 293.578105 
M 201.145263 293.578105 
L 187.139368 307.584 
M 201.145263 293.578105 
L 201.145263 307.584 
M 201.145263 293.578105 
L 215.151158 307.584 
M 201.145263 293.578105 
L 187.139368 293.578105 
M 215.151158 293.578105 
L 215.151158 307.584 
M 215.151158 293.578105 
L 201.145263 293.578105 
M 229.157053 293.578105 
L 215.151158 307.584 
M 229.157053 293.578105 
L 229.157053 307.584 
M 229.157053 293.578105 
L 243.162947 307.584 
M 229.157053 293.578105 
L 215.151158 293.578105 
M 243.162947 293.578105 
L 243.162947 307.584 
M 243.162947 293.578105 
L 257.168842 307.584 
M 243.162947 293.578105 
L 229.157053 293.578105 
M 257.168842 293.578105 
L 257.168842 307.584 
M 257.168842 293.578105 
L 243.162947 293.578105 
M 271.174737 293.578105 
L 257.168842 307.584 
M 271.174737 293.578105 
L 271.174737 307.584 
M 271.174737 293.578105 
L 285.180632 307.584 
M 271.174737 293.578105 
L 257.168842 293.578105 
M 285.180632 293.578105 
L 285.180632 307.584 
M 285.180632 293.578105 
L 271.174737 293.578105 
M 299.186526 293.578105 
L 285.180632 307.584 
M 299.186526 293.578105 
L 299.186526 307.584 
M 299.186526 293.578105 
L 313.192421 307.584 
M 299.186526 293.578105 
L 285.180632 293.578105 
M 313.192421 293.578105 
L 313.192421 307.584 
M 313.192421 293.578105 
L 299.186526 293.578105 
M 327.198316 293.578105 
L 313.192421 307.584 
M 327.198316 293.578105 
L 327.198316 307.584 
M 327.198316 293.578105 
L 341.204211 307.584 
M 327.198316 293.578105 
L 313.192421 293.578105 
M 341.204211 293.578105 
L 341.204211 307.584 
M 341.204211 293.578105 
L 327.198316 293.578105 
M 355.210105 293.578105 
L 341.204211 307.584 
M 355.210105 293.578105 
L 355.210105 307.584 
M 355.210105 293.578105 
L 369.216 307.584 
M 355.210105 293.578105 
L 341.204211 293.578105 
M 369.216 293.578105 
L 369.216 307.584 
M 369.216 293.578105 
L 355.210105 293.578105 
M 103.104 279.572211 
L 103.104 293.578105 
M 117.109895 279.572211 
L 103.104 293.578105 
M 117.109895 279.572211 
L 117.109895 293.578105 
M 117.109895 279.572211 
L 103.104 279.572211 
M 131.115789 279.572211 
L 117.109895 293.578105 
M 131.115789 279.572211 
L 131.115789 293.578105 
M 131.115789 279.572211 
L 117.109895 279.572211 
M 145.121684 279.572211 
L 131.115789 293.578105 
M 145.121684 279.572211 
L 145.121684 293.578105 
M 145.121684 279.572211 
L 159.127579 293.578105 
M 145.121684 279.572211 
L 131.115789 279.572211 
M 159.127579 279.572211 
L 159.127579 293.578105 
M 159.127579 279.572211 
L 173.133474 293.578105 
M 159.127579 279.572211 
L 145.121684 279.572211 
M 173.133474 279.572211 
L 173.133474 293.578105 
M 173.133474 279.572211 
L 159.127579 279.572211 
M 187.139368 279.572211 
L 173.133474 293.578105 
M 187.139368 279.572211 
L 187.139368 293.578105 
M 187.139368 279.572211 
L 201.145263 293.578105 
M 187.139368 279.572211 
L 173.133474 279.572211 
M 201.145263 279.572211 
L 201.145263 293.578105 
M 201.145263 279.572211 
L 187.139368 279.572211 
M 215.151158 279.572211 
L 201.145263 293.578105 
M 215.151158 279.572211 
L 215.151158 293.578105 
M 215.151158 279.572211 
L 229.157053 293.578105 
M 215.151158 279.572211 
L 201.145263 279.572211 
M 229.157053 279.572211 
L 229.157053 293.578105 
M 229.157053 279.572211 
L 215.151158 279.572211 
M 243.162947 279.572211 
L 229.157053 293.578105 
M 243.162947 279.572211 
L 243.162947 293.578105 
M 243.162947 279.572211 
L 229.157053 279.572211 
M 257.168842 279.572211 
L 243.162947 293.578105 
M 257.168842 279.572211 
L 257.168842 293.578105 
M 257.168842 279.572211 
L 271.174737 293.578105 
M 257.168842 279.572211 
L 243.162947 279.572211 
M 271.174737 279.572211 
L 271.174737 293.578105 
M 271.174737 279.572211 
L 257.168842 279.572211 
M 285.180632 279.572211 
L 271.174737 293.578105 
M 285.180632 279.572211 
L 285.180632 293.578105 
M 285.180632 279.572211 
L 299.186526 293.578105 
M 285.180632 279.572211 
L 271.174737 279.572211 
M 299.186526 279.572211 
L 299.186526 293.578105 
M 299.186526 279.572211 
L 285.180632 279.572211 
M 313.192421 279.572211 
L 299.186526 293.578105 
M 313.192421 279.572211 
L 313.192421 293.578105 
M 313.192421 279.572211 
L 299.186526 279.572211 
M 327.198316 279.572211 
L 313.192421 293.578105 
M 327.198316 279.572211 
L 327.198316 293.578105 
M 327.198316 279.572211 
L 341.204211 293.578105 
M 327.198316 279.572211 
L 313.192421 279.572211 
M 341.204211 279.572211 
L 341.204211 293.578105 
M 341.204211 279.572211 
L 355.210105 293.578105 
M 341.204211 279.572211 
L 327.198316 279.572211 
M 355.210105 279.572211 
L 355.210105 293.578105 
M 355.210105 279.572211 
L 341.204211 279.572211 
M 369.216 279.572211 
L 355.210105 293.578105 
M 369.216 279.572211 
L 369.216 293.578105 
M 369.216 279.572211 
L 355.210105 279.572211 
M 103.104 265.566316 
L 103.104 279.572211 
M 103.104 265.566316 
L 117.109895 279.572211 
M 117.109895 265.566316 
L 117.109895 279.572211 
M 117.109895 265.566316 
L 103.104 265.566316 
M 131.115789 265.566316 
L 117.109895 279.572211 
M 131.115789 265.566316 
L 131.115789 279.572211 
M 131.115789 265.566316 
L 145.121684 279.572211 
M 131.115789 265.566316 
L 117.109895 265.566316 
M 145.121684 265.566316 
L 145.121684 279.572211 
M 145.121684 265.566316 
L 131.115789 265.566316 
M 159.127579 265.566316 
L 145.121684 279.572211 
M 159.127579 265.566316 
L 159.127579 279.572211 
M 159.127579 265.566316 
L 173.133474 279.572211 
M 159.127579 265.566316 
L 145.121684 265.566316 
M 173.133474 265.566316 
L 173.133474 279.572211 
M 173.133474 265.566316 
L 187.139368 279.572211 
M 173.133474 265.566316 
L 159.127579 265.566316 
M 187.139368 265.566316 
L 187.139368 279.572211 
M 187.139368 265.566316 
L 173.133474 265.566316 
M 201.145263 265.566316 
L 187.139368 279.572211 
M 201.145263 265.566316 
L 201.145263 279.572211 
M 201.145263 265.566316 
L 187.139368 265.566316 
M 215.151158 265.566316 
L 201.145263 279.572211 
M 215.151158 265.566316 
L 215.151158 279.572211 
M 215.151158 265.566316 
L 229.157053 279.572211 
M 215.151158 265.566316 
L 201.145263 265.566316 
M 229.157053 265.566316 
L 229.157053 279.572211 
M 229.157053 265.566316 
L 243.162947 279.572211 
M 229.157053 265.566316 
L 215.151158 265.566316 
M 243.162947 265.566316 
L 243.162947 279.572211 
M 243.162947 265.566316 
L 257.168842 279.572211 
M 243.162947 265.566316 
L 229.157053 265.566316 
M 257.168842 265.566316 
L 257.168842 279.572211 
M 257.168842 265.566316 
L 243.162947 265.566316 
M 271.174737 265.566316 
L 257.168842 279.572211 
M 271.174737 265.566316 
L 271.174737 279.572211 
M 271.174737 265.566316 
L 257.168842 265.566316 
M 285.180632 265.566316 
L 271.174737 279.572211 
M 285.180632 265.566316 
L 285.180632 279.572211 
M 285.180632 265.566316 
L 271.174737 265.566316 
M 299.186526 265.566316 
L 285.180632 279.572211 
M 299.186526 265.566316 
L 299.186526 279.572211 
M 299.186526 265.566316 
L 313.192421 279.572211 
M 299.186526 265.566316 
L 285.180632 265.566316 
M 313.192421 265.566316 
L 313.192421 279.572211 
M 313.192421 265.566316 
L 327.198316 279.572211 
M 313.192421 265.566316 
L 299.186526 265.566316 
M 327.198316 265.566316 
L 327.198316 279.572211 
M 327.198316 265.566316 
L 313.192421 265.566316 
M 341.204211 265.566316 
L 327.198316 279.572211 
M 341.204211 265.566316 
L 341.204211 279.572211 
M 341.204211 265.566316 
L 327.198316 265.566316 
M 355.210105 265.566316 
L 341.204211 279.572211 
M 355.210105 265.566316 
L 355.210105 279.572211 
M 355.210105 265.566316 
L 341.204211 265.566316 
M 369.216 265.566316 
L 355.210105 279.572211 
M 369.216 265.566316 
L 369.216 279.572211 
M 369.216 265.566316 
L 355.210105 265.566316 
M 103.104 251.560421 
L 103.104 265.566316 
M 117.109895 251.560421 
L 103.104 265.566316 
M 117.109895 251.560421 
L 117.109895 265.566316 
M 117.109895 251.560421 
L 131.115789 265.566316 
M 117.109895 251.560421 
L 103.104 251.560421 
M 131.115789 251.560421 
L 131.115789 265.566316 
M 131.115789 251.560421 
L 117.109895 251.560421 
M 145.121684 251.560421 
L 131.115789 265.566316 
M 145.121684 251.560421 
L 145.121684 265.566316 
M 145.121684 251.560421 
L 159.127579 265.566316 
M 145.121684 251.560421 
L 131.115789 251.560421 
M 159.127579 251.560421 
L 159.127579 265.566316 
M 159.127579 251.560421 
L 145.121684 251.560421 
M 173.133474 251.560421 
L 159.127579 265.566316 
M 173.133474 251.560421 
L 173.133474 265.566316 
M 173.133474 251.560421 
L 159.127579 251.560421 
M 187.139368 251.560421 
L 173.133474 265.566316 
M 187.139368 251.560421 
L 187.139368 265.566316 
M 187.139368 251.560421 
L 201.145263 265.566316 
M 187.139368 251.560421 
L 173.133474 251.560421 
M 201.145263 251.560421 
L 201.145263 265.566316 
M 201.145263 251.560421 
L 215.151158 265.566316 
M 201.145263 251.560421 
L 187.139368 251.560421 
M 215.151158 251.560421 
L 215.151158 265.566316 
M 215.151158 251.560421 
L 201.145263 251.560421 
M 229.157053 251.560421 
L 215.151158 265.566316 
M 229.157053 251.560421 
L 229.157053 265.566316 
M 229.157053 251.560421 
L 243.162947 265.566316 
M 229.157053 251.560421 
L 215.151158 251.560421 
M 243.162947 251.560421 
L 243.162947 265.566316 
M 243.162947 251.560421 
L 257.168842 265.566316 
M 243.162947 251.560421 
L 229.157053 251.560421 
M 257.168842 251.560421 
L 257.168842 265.566316 
M 257.168842 251.560421 
L 243.162947 251.560421 
M 271.174737 251.560421 
L 257.168842 265.566316 
M 271.174737 251.560421 
L 271.174737 265.566316 
M 271.174737 251.560421 
L 285.180632 265.566316 
M 271.174737 251.560421 
L 257.168842 251.560421 
M 285.180632 251.560421 
L 285.180632 265.566316 
M 285.180632 251.560421 
L 299.186526 265.566316 
M 285.180632 251.560421 
L 271.174737 251.560421 
M 299.186526 251.560421 
L 299.186526 265.566316 
M 299.186526 251.560421 
L 285.180632 251.560421 
M 313.192421 251.560421 
L 299.186526 265.566316 
M 313.192421 251.560421 
L 313.192421 265.566316 
M 313.192421 251.560421 
L 299.186526 251.560421 
M 327.198316 251.560421 
L 313.192421 265.566316 
M 327.198316 251.560421 
L 327.198316 265.566316 
M 327.198316 251.560421 
L 341.204211 265.566316 
M 327.198316 251.560421 
L 313.192421 251.560421 
M 341.204211 251.560421 
L 341.204211 265.566316 
M 341.204211 251.560421 
L 355.210105 265.566316 
M 341.204211 251.560421 
L 327.198316 251.560421 
M 355.210105 251.560421 
L 355.210105 265.566316 
M 355.210105 251.560421 
L 369.216 265.566316 
M 355.210105 251.560421 
L 341.204211 251.560421 
M 369.216 251.560421 
L 369.216 265.566316 
M 369.216 251.560421 
L 355.210105 251.560421 
M 103.104 237.554526 
L 103.104 251.560421 
M 117.109895 237.554526 
L 103.104 251.560421 
M 117.109895 237.554526 
L 117.109895 251.560421 
M 117.109895 237.554526 
L 131.115789 251.560421 
M 117.109895 237.554526 
L 103.104 237.554526 
M 131.115789 237.554526 
L 131.115789 251.560421 
M 131.115789 237.554526 
L 117.109895 237.554526 
M 145.121684 237.554526 
L 131.115789 251.560421 
M 145.121684 237.554526 
L 145.121684 251.560421 
M 145.121684 237.554526 
L 159.127579 251.560421 
M 145.121684 237.554526 
L 131.115789 237.554526 
M 159.127579 237.554526 
L 159.127579 251.560421 
M 159.127579 237.554526 
L 145.121684 237.554526 
M 173.133474 237.554526 
L 159.127579 251.560421 
M 173.133474 237.554526 
L 173.133474 251.560421 
M 173.133474 237.554526 
L 159.127579 237.554526 
M 187.139368 237.554526 
L 173.133474 251.560421 
M 187.139368 237.554526 
L 187.139368 251.560421 
M 187.139368 237.554526 
L 201.145263 251.560421 
M 187.139368 237.554526 
L 173.133474 237.554526 
M 201.145263 237.554526 
L 201.145263 251.560421 
M 201.145263 237.554526 
L 215.151158 251.560421 
M 201.145263 237.554526 
L 187.139368 237.554526 
M 215.151158 237.554526 
L 215.151158 251.560421 
M 215.151158 237.554526 
L 201.145263 237.554526 
M 229.157053 237.554526 
L 215.151158 251.560421 
M 229.157053 237.554526 
L 229.157053 251.560421 
M 229.157053 237.554526 
L 243.162947 251.560421 
M 229.157053 237.554526 
L 215.151158 237.554526 
M 243.162947 237.554526 
L 243.162947 251.560421 
M 243.162947 237.554526 
L 229.157053 237.554526 
M 257.168842 237.554526 
L 243.162947 251.560421 
M 257.168842 237.554526 
L 257.168842 251.560421 
M 257.168842 237.554526 
L 243.162947 237.554526 
M 271.174737 237.554526 
L 257.168842 251.560421 
M 271.174737 237.554526 
L 271.174737 251.560421 
M 271.174737 237.554526 
L 285.180632 251.560421 
M 271.174737 237.554526 
L 257.168842 237.554526 
M 285.180632 237.554526 
L 285.180632 251.560421 
M 285.180632 237.554526 
L 299.186526 251.560421 
M 285.180632 237.554526 
L 271.174737 237.554526 
M 299.186526 237.554526 
L 299.186526 251.560421 
M 299.186526 237.554526 
L 285.180632 237.554526 
M 313.192421 237.554526 
L 299.186526 251.560421 
M 313.192421 237.554526 
L 313.192421 251.560421 
M 313.192421 237.554526 
L 327.198316 251.560421 
M 313.192421 237.554526 
L 299.186526 237.554526 
M 327.198316 237.554526 
L 327.198316 251.560421 
M 327.198316 237.554526 
L 313.192421 237.554526 
M 341.204211 237.554526 
L 327.198316 251.560421 
M 341.204211 237.554526 
L 341.204211 251.560421 
M 341.204211 237.554526 
L 327.198316 237.554526 
M 355.210105 237.554526 
L 341.204211 251.560421 
M 355.210105 237.554526 
L 355.210105 251.560421 
M 355.210105 237.554526 
L 369.216 251.560421 
M 355.210105 237.554526 
L 341.204211 237.554526 
M 369.216 237.554526 
L 369.216 251.560421 
M 369.216 237.554526 
L 355.210105 237.554526 
M 103.104 223.548632 
L 103.104 237.554526 
M 103.104 223.548632 
L 117.109895 237.554526 
M 117.109895 223.548632 
L 117.109895 237.554526 
M 117.109895 223.548632 
L 103.104 223.548632 
M 131.115789 223.548632 
L 117.109895 237.554526 
M 131.115789 223.548632 
L 131.115789 237.554526 
M 131.115789 223.548632 
L 145.121684 237.554526 
M 131.115789 223.548632 
L 117.109895 223.548632 
M 145.121684 223.548632 
L 145.121684 237.554526 
M 145.121684 223.548632 
L 131.115789 223.548632 
M 159.127579 223.548632 
L 145.121684 237.554526 
M 159.127579 223.548632 
L 159.127579 237.554526 
M 159.127579 223.548632 
L 173.133474 237.554526 
M 159.127579 223.548632 
L 145.121684 223.548632 
M 173.133474 223.548632 
L 173.133474 237.554526 
M 173.133474 223.548632 
L 187.139368 237.554526 
M 173.133474 223.548632 
L 159.127579 223.548632 
M 187.139368 223.548632 
L 187.139368 237.554526 
M 187.139368 223.548632 
L 173.133474 223.548632 
M 201.145263 223.548632 
L 187.139368 237.554526 
M 201.145263 223.548632 
L 201.145263 237.554526 
M 201.145263 223.548632 
L 215.151158 237.554526 
M 201.145263 223.548632 
L 187.139368 223.548632 
M 215.151158 223.548632 
L 215.151158 237.554526 
M 215.151158 223.548632 
L 201.145263 223.548632 
M 229.157053 223.548632 
L 215.151158 237.554526 
M 229.157053 223.548632 
L 229.157053 237.554526 
M 229.157053 223.548632 
L 243.162947 237.554526 
M 229.157053 223.548632 
L 215.151158 223.548632 
M 243.162947 223.548632 
L 243.162947 237.554526 
M 243.162947 223.548632 
L 229.157053 223.548632 
M 257.168842 223.548632 
L 243.162947 237.554526 
M 257.168842 223.548632 
L 257.168842 237.554526 
M 257.168842 223.548632 
L 271.174737 237.554526 
M 257.168842 223.548632 
L 243.162947 223.548632 
M 271.174737 223.548632 
L 271.174737 237.554526 
M 271.174737 223.548632 
L 257.168842 223.548632 
M 285.180632 223.548632 
L 271.174737 237.554526 
M 285.180632 223.548632 
L 285.180632 237.554526 
M 285.180632 223.548632 
L 271.174737 223.548632 
M 299.186526 223.548632 
L 285.180632 237.554526 
M 299.186526 223.548632 
L 299.186526 237.554526 
M 299.186526 223.548632 
L 313.192421 237.554526 
M 299.186526 223.548632 
L 285.180632 223.548632 
M 313.192421 223.548632 
L 313.192421 237.554526 
M 313.192421 223.548632 
L 299.186526 223.548632 
M 327.198316 223.548632 
L 313.192421 237.554526 
M 327.198316 223.548632 
L 327.198316 237.554526 
M 327.198316 223.548632 
L 313.192421 223.548632 
M 341.204211 223.548632 
L 327.198316 237.554526 
M 341.204211 223.548632 
L 341.204211 237.554526 
M 341.204211 223.548632 
L 355.210105 237.554526 
M 341.204211 223.548632 
L 327.198316 223.548632 
M 355.210105 223.548632 
L 355.210105 237.554526 
M 355.210105 223.548632 
L 341.204211 223.548632 
M 369.216 223.548632 
L 355.210105 237.554526 
M 369.216 223.548632 
L 369.216 237.554526 
M 369.216 223.548632 
L 355.210105 223.548632 
M 103.104 209.542737 
L 103.104 223.548632 
M 117.109895 209.542737 
L 103.104 223.548632 
M 117.109895 209.542737 
L 117.109895 223.548632 
M 117.109895 209.542737 
L 131.115789 223.548632 
M 117.109895 209.542737 
L 103.104 209.542737 
M 131.115789 209.542737 
L 131.115789 223.548632 
M 131.115789 209.542737 
L 117.109895 209.542737 
M 145.121684 209.542737 
L 131.115789 223.548632 
M 145.121684 209.542737 
L 145.121684 223.548632 
M 145.121684 209.542737 
L 159.127579 223.548632 
M 145.121684 209.542737 
L 131.115789 209.542737 
M 159.127579 209.542737 
L 159.127579 223.548632 
M 159.127579 209.542737 
L 145.121684 209.542737 
M 173.133474 209.542737 
L 159.127579 223.548632 
M 173.133474 209.542737 
L 173.133474 223.548632 
M 173.133474 209.542737 
L 159.127579 209.542737 
M 187.139368 209.542737 
L 173.133474 223.548632 
M 187.139368 209.542737 
L 187.139368 223.548632 
M 187.139368 209.542737 
L 201.145263 223.548632 
M 187.139368 209.542737 
L 173.133474 209.542737 
M 201.145263 209.542737 
L 201.145263 223.548632 
M 201.145263 209.542737 
L 187.139368 209.542737 
M 215.151158 209.542737 
L 201.145263 223.548632 
M 215.151158 209.542737 
L 215.151158 223.548632 
M 215.151158 209.542737 
L 229.157053 223.548632 
M 215.151158 209.542737 
L 201.145263 209.542737 
M 229.157053 209.542737 
L 229.157053 223.548632 
M 229.157053 209.542737 
L 215.151158 209.542737 
M 243.162947 209.542737 
L 229.157053 223.548632 
M 243.162947 209.542737 
L 243.162947 223.548632 
M 243.162947 209.542737 
L 229.157053 209.542737 
M 257.168842 209.542737 
L 243.162947 223.548632 
M 257.168842 209.542737 
L 257.168842 223.548632 
M 257.168842 209.542737 
L 243.162947 209.542737 
M 271.174737 209.542737 
L 257.168842 223.548632 
M 271.174737 209.542737 
L 271.174737 223.548632 
M 271.174737 209.542737 
L 285.180632 223.548632 
M 271.174737 209.542737 
L 257.168842 209.542737 
M 285.180632 209.542737 
L 285.180632 223.548632 
M 285.180632 209.542737 
L 299.186526 223.548632 
M 285.180632 209.542737 
L 271.174737 209.542737 
M 299.186526 209.542737 
L 299.186526 223.548632 
M 299.186526 209.542737 
L 285.180632 209.542737 
M 313.192421 209.542737 
L 299.186526 223.548632 
M 313.192421 209.542737 
L 313.192421 223.548632 
M 313.192421 209.542737 
L 299.186526 209.542737 
M 327.198316 209.542737 
L 313.192421 223.548632 
M 327.198316 209.542737 
L 327.198316 223.548632 
M 327.198316 209.542737 
L 341.204211 223.548632 
M 327.198316 209.542737 
L 313.192421 209.542737 
M 341.204211 209.542737 
L 341.204211 223.548632 
M 341.204211 209.542737 
L 327.198316 209.542737 
M 355.210105 209.542737 
L 341.204211 223.548632 
M 355.210105 209.542737 
L 355.210105 223.548632 
M 355.210105 209.542737 
L 341.204211 209.542737 
M 369.216 209.542737 
L 355.210105 223.548632 
M 369.216 209.542737 
L 369.216 223.548632 
M 369.216 209.542737 
L 355.210105 209.542737 
M 103.104 195.536842 
L 103.104 209.542737 
M 103.104 195.536842 
L 117.109895 209.542737 
M 117.109895 195.536842 
L 117.109895 209.542737 
M 117.109895 195.536842 
L 103.104 195.536842 
M 131.115789 195.536842 
L 117.109895 209.542737 
M 131.115789 195.536842 
L 131.115789 209.542737 
M 131.115789 195.536842 
L 145.121684 209.542737 
M 131.115789 195.536842 
L 117.109895 195.536842 
M 145.121684 195.536842 
L 145.121684 209.542737 
M 145.121684 195.536842 
L 131.115789 195.536842 
M 159.127579 195.536842 
L 145.121684 209.542737 
M 159.127579 195.536842 
L 159.127579 209.542737 
M 159.127579 195.536842 
L 145.121684 195.536842 
M 173.133474 195.536842 
L 159.127579 209.542737 
M 173.133474 195.536842 
L 173.133474 209.542737 
M 173.133474 195.536842 
L 187.139368 209.542737 
M 173.133474 195.536842 
L 159.127579 195.536842 
M 187.139368 195.536842 
L 187.139368 209.542737 
M 187.139368 195.536842 
L 173.133474 195.536842 
M 201.145263 195.536842 
L 187.139368 209.542737 
M 201.145263 195.536842 
L 201.145263 209.542737 
M 201.145263 195.536842 
L 215.151158 209.542737 
M 201.145263 195.536842 
L 187.139368 195.536842 
M 215.151158 195.536842 
L 215.151158 209.542737 
M 215.151158 195.536842 
L 201.145263 195.536842 
M 229.157053 195.536842 
L 215.151158 209.542737 
M 229.157053 195.536842 
L 229.157053 209.542737 
M 229.157053 195.536842 
L 215.151158 195.536842 
M 243.162947 195.536842 
L 229.157053 209.542737 
M 243.162947 195.536842 
L 243.162947 209.542737 
M 243.162947 195.536842 
L 257.168842 209.542737 
M 243.162947 195.536842 
L 229.157053 195.536842 
M 257.168842 195.536842 
L 257.168842 209.542737 
M 257.168842 195.536842 
L 271.174737 209.542737 
M 257.168842 195.536842 
L 243.162947 195.536842 
M 271.174737 195.536842 
L 271.174737 209.542737 
M 271.174737 195.536842 
L 257.168842 195.536842 
M 285.180632 195.536842 
L 271.174737 209.542737 
M 285.180632 195.536842 
L 285.180632 209.542737 
M 285.180632 195.536842 
L 299.186526 209.542737 
M 285.180632 195.536842 
L 271.174737 195.536842 
M 299.186526 195.536842 
L 299.186526 209.542737 
M 299.186526 195.536842 
L 313.192421 209.542737 
M 299.186526 195.536842 
L 285.180632 195.536842 
M 313.192421 195.536842 
L 313.192421 209.542737 
M 313.192421 195.536842 
L 327.198316 209.542737 
M 313.192421 195.536842 
L 299.186526 195.536842 
M 327.198316 195.536842 
L 327.198316 209.542737 
M 327.198316 195.536842 
L 313.192421 195.536842 
M 341.204211 195.536842 
L 327.198316 209.542737 
M 341.204211 195.536842 
L 341.204211 209.542737 
M 341.204211 195.536842 
L 327.198316 195.536842 
M 355.210105 195.536842 
L 341.204211 209.542737 
M 355.210105 195.536842 
L 355.210105 209.542737 
M 355.210105 195.536842 
L 341.204211 195.536842 
M 369.216 195.536842 
L 355.210105 209.542737 
M 369.216 195.536842 
L 369.216 209.542737 
M 369.216 195.536842 
L 355.210105 195.536842 
M 103.104 181.530947 
L 103.104 195.536842 
M 117.109895 181.530947 
L 103.104 195.536842 
M 117.109895 181.530947 
L 117.109895 195.536842 
M 117.109895 181.530947 
L 131.115789 195.536842 
M 117.109895 181.530947 
L 103.104 181.530947 
M 131.115789 181.530947 
L 131.115789 195.536842 
M 131.115789 181.530947 
L 117.109895 181.530947 
M 145.121684 181.530947 
L 131.115789 195.536842 
M 145.121684 181.530947 
L 145.121684 195.536842 
M 145.121684 181.530947 
L 159.127579 195.536842 
M 145.121684 181.530947 
L 131.115789 181.530947 
M 159.127579 181.530947 
L 159.127579 195.536842 
M 159.127579 181.530947 
L 145.121684 181.530947 
M 173.133474 181.530947 
L 159.127579 195.536842 
M 173.133474 181.530947 
L 173.133474 195.536842 
M 173.133474 181.530947 
L 187.139368 195.536842 
M 173.133474 181.530947 
L 159.127579 181.530947 
M 187.139368 181.530947 
L 187.139368 195.536842 
M 187.139368 181.530947 
L 201.145263 195.536842 
M 187.139368 181.530947 
L 173.133474 181.530947 
M 201.145263 181.530947 
L 201.145263 195.536842 
M 201.145263 181.530947 
L 187.139368 181.530947 
M 215.151158 181.530947 
L 201.145263 195.536842 
M 215.151158 181.530947 
L 215.151158 195.536842 
M 215.151158 181.530947 
L 229.157053 195.536842 
M 215.151158 181.530947 
L 201.145263 181.530947 
M 229.157053 181.530947 
L 229.157053 195.536842 
M 229.157053 181.530947 
L 215.151158 181.530947 
M 243.162947 181.530947 
L 229.157053 195.536842 
M 243.162947 181.530947 
L 243.162947 195.536842 
M 243.162947 181.530947 
L 257.168842 195.536842 
M 243.162947 181.530947 
L 229.157053 181.530947 
M 257.168842 181.530947 
L 257.168842 195.536842 
M 257.168842 181.530947 
L 243.162947 181.530947 
M 271.174737 181.530947 
L 257.168842 195.536842 
M 271.174737 181.530947 
L 271.174737 195.536842 
M 271.174737 181.530947 
L 285.180632 195.536842 
M 271.174737 181.530947 
L 257.168842 181.530947 
M 285.180632 181.530947 
L 285.180632 195.536842 
M 285.180632 181.530947 
L 271.174737 181.530947 
M 299.186526 181.530947 
L 285.180632 195.536842 
M 299.186526 181.530947 
L 299.186526 195.536842 
M 299.186526 181.530947 
L 285.180632 181.530947 
M 313.192421 181.530947 
L 299.186526 195.536842 
M 313.192421 181.530947 
L 313.192421 195.536842 
M 313.192421 181.530947 
L 299.186526 181.530947 
M 327.198316 181.530947 
L 313.192421 195.536842 
M 327.198316 181.530947 
L 327.198316 195.536842 
M 327.198316 181.530947 
L 341.204211 195.536842 
M 327.198316 181.530947 
L 313.192421 181.530947 
M 341.204211 181.530947 
L 341.204211 195.536842 
M 341.204211 181.530947 
L 355.210105 195.536842 
M 341.204211 181.530947 
L 327.198316 181.530947 
M 355.210105 181.530947 
L 355.210105 195.536842 
M 355.210105 181.530947 
L 369.216 195.536842 
M 355.210105 181.530947 
L 341.204211 181.530947 
M 369.216 181.530947 
L 369.216 195.536842 
M 369.216 181.530947 
L 355.210105 181.530947 
M 103.104 167.525053 
L 103.104 181.530947 
M 103.104 167.525053 
L 117.109895 181.530947 
M 117.109895 167.525053 
L 117.109895 181.530947 
M 117.109895 167.525053 
L 103.104 167.525053 
M 131.115789 167.525053 
L 117.109895 181.530947 
M 131.115789 167.525053 
L 131.115789 181.530947 
M 131.115789 167.525053 
L 117.109895 167.525053 
M 145.121684 167.525053 
L 131.115789 181.530947 
M 145.121684 167.525053 
L 145.121684 181.530947 
M 145.121684 167.525053 
L 159.127579 181.530947 
M 145.121684 167.525053 
L 131.115789 167.525053 
M 159.127579 167.525053 
L 159.127579 181.530947 
M 159.127579 167.525053 
L 173.133474 181.530947 
M 159.127579 167.525053 
L 145.121684 167.525053 
M 173.133474 167.525053 
L 173.133474 181.530947 
M 173.133474 167.525053 
L 159.127579 167.525053 
M 187.139368 167.525053 
L 173.133474 181.530947 
M 187.139368 167.525053 
L 187.139368 181.530947 
M 187.139368 167.525053 
L 201.145263 181.530947 
M 187.139368 167.525053 
L 173.133474 167.525053 
M 201.145263 167.525053 
L 201.145263 181.530947 
M 201.145263 167.525053 
L 215.151158 181.530947 
M 201.145263 167.525053 
L 187.139368 167.525053 
M 215.151158 167.525053 
L 215.151158 181.530947 
M 215.151158 167.525053 
L 201.145263 167.525053 
M 229.157053 167.525053 
L 215.151158 181.530947 
M 229.157053 167.525053 
L 229.157053 181.530947 
M 229.157053 167.525053 
L 215.151158 167.525053 
M 243.162947 167.525053 
L 229.157053 181.530947 
M 243.162947 167.525053 
L 243.162947 181.530947 
M 243.162947 167.525053 
L 229.157053 167.525053 
M 257.168842 167.525053 
L 243.162947 181.530947 
M 257.168842 167.525053 
L 257.168842 181.530947 
M 257.168842 167.525053 
L 271.174737 181.530947 
M 257.168842 167.525053 
L 243.162947 167.525053 
M 271.174737 167.525053 
L 271.174737 181.530947 
M 271.174737 167.525053 
L 257.168842 167.525053 
M 285.180632 167.525053 
L 271.174737 181.530947 
M 285.180632 167.525053 
L 285.180632 181.530947 
M 285.180632 167.525053 
L 271.174737 167.525053 
M 299.186526 167.525053 
L 285.180632 181.530947 
M 299.186526 167.525053 
L 299.186526 181.530947 
M 299.186526 167.525053 
L 313.192421 181.530947 
M 299.186526 167.525053 
L 285.180632 167.525053 
M 313.192421 167.525053 
L 313.192421 181.530947 
M 313.192421 167.525053 
L 327.198316 181.530947 
M 313.192421 167.525053 
L 299.186526 167.525053 
M 327.198316 167.525053 
L 327.198316 181.530947 
M 327.198316 167.525053 
L 313.192421 167.525053 
M 341.204211 167.525053 
L 327.198316 181.530947 
M 341.204211 167.525053 
L 341.204211 181.530947 
M 341.204211 167.525053 
L 327.198316 167.525053 
M 355.210105 167.525053 
L 341.204211 181.530947 
M 355.210105 167.525053 
L 355.210105 181.530947 
M 355.210105 167.525053 
L 369.216 181.530947 
M 355.210105 167.525053 
L 341.204211 167.525053 
M 369.216 167.525053 
L 369.216 181.530947 
M 369.216 167.525053 
L 355.210105 167.525053 
M 103.104 153.519158 
L 103.104 167.525053 
M 103.104 153.519158 
L 117.109895 167.525053 
M 117.109895 153.519158 
L 117.109895 167.525053 
M 117.109895 153.519158 
L 131.115789 167.525053 
M 117.109895 153.519158 
L 103.104 153.519158 
M 131.115789 153.519158 
L 131.115789 167.525053 
M 131.115789 153.519158 
L 145.121684 167.525053 
M 131.115789 153.519158 
L 117.109895 153.519158 
M 145.121684 153.519158 
L 145.121684 167.525053 
M 145.121684 153.519158 
L 131.115789 153.519158 
M 159.127579 153.519158 
L 145.121684 167.525053 
M 159.127579 153.519158 
L 159.127579 167.525053 
M 159.127579 153.519158 
L 173.133474 167.525053 
M 159.127579 153.519158 
L 145.121684 153.519158 
M 173.133474 153.519158 
L 173.133474 167.525053 
M 173.133474 153.519158 
L 159.127579 153.519158 
M 187.139368 153.519158 
L 173.133474 167.525053 
M 187.139368 153.519158 
L 187.139368 167.525053 
M 187.139368 153.519158 
L 201.145263 167.525053 
M 187.139368 153.519158 
L 173.133474 153.519158 
M 201.145263 153.519158 
L 201.145263 167.525053 
M 201.145263 153.519158 
L 187.139368 153.519158 
M 215.151158 153.519158 
L 201.145263 167.525053 
M 215.151158 153.519158 
L 215.151158 167.525053 
M 215.151158 153.519158 
L 201.145263 153.519158 
M 229.157053 153.519158 
L 215.151158 167.525053 
M 229.157053 153.519158 
L 229.157053 167.525053 
M 229.157053 153.519158 
L 243.162947 167.525053 
M 229.157053 153.519158 
L 215.151158 153.519158 
M 243.162947 153.519158 
L 243.162947 167.525053 
M 243.162947 153.519158 
L 257.168842 167.525053 
M 243.162947 153.519158 
L 229.157053 153.519158 
M 257.168842 153.519158 
L 257.168842 167.525053 
M 257.168842 153.519158 
L 243.162947 153.519158 
M 271.174737 153.519158 
L 257.168842 167.525053 
M 271.174737 153.519158 
L 271.174737 167.525053 
M 271.174737 153.519158 
L 285.180632 167.525053 
M 271.174737 153.519158 
L 257.168842 153.519158 
M 285.180632 153.519158 
L 285.180632 167.525053 
M 285.180632 153.519158 
L 299.186526 167.525053 
M 285.180632 153.519158 
L 271.174737 153.519158 
M 299.186526 153.519158 
L 299.186526 167.525053 
M 299.186526 153.519158 
L 285.180632 153.519158 
M 313.192421 153.519158 
L 299.186526 167.525053 
M 313.192421 153.519158 
L 313.192421 167.525053 
M 313.192421 153.519158 
L 327.198316 167.525053 
M 313.192421 153.519158 
L 299.186526 153.519158 
M 327.198316 153.519158 
L 327.198316 167.525053 
M 327.198316 153.519158 
L 341.204211 167.525053 
M 327.198316 153.519158 
L 313.192421 153.519158 
M 341.204211 153.519158 
L 341.204211 167.525053 
M 341.204211 153.519158 
L 327.198316 153.519158 
M 355.210105 153.519158 
L 341.204211 167.525053 
M 355.210105 153.519158 
L 355.210105 167.525053 
M 355.210105 153.519158 
L 341.204211 153.519158 
M 369.216 153.519158 
L 355.210105 167.525053 
M 369.216 153.519158 
L 369.216 167.525053 
M 369.216 153.519158 
L 355.210105 153.519158 
M 103.104 139.513263 
L 103.104 153.519158 
M 117.109895 139.513263 
L 103.104 153.519158 
M 117.109895 139.513263 
L 117.109895 153.519158 
M 117.109895 139.513263 
L 103.104 139.513263 
M 131.115789 139.513263 
L 117.109895 153.519158 
M 131.115789 139.513263 
L 131.115789 153.519158 
M 131.115789 139.513263 
L 145.121684 153.519158 
M 131.115789 139.513263 
L 117.109895 139.513263 
M 145.121684 139.513263 
L 145.121684 153.519158 
M 145.121684 139.513263 
L 159.127579 153.519158 
M 145.121684 139.513263 
L 131.115789 139.513263 
M 159.127579 139.513263 
L 159.127579 153.519158 
M 159.127579 139.513263 
L 145.121684 139.513263 
M 173.133474 139.513263 
L 159.127579 153.519158 
M 173.133474 139.513263 
L 173.133474 153.519158 
M 173.133474 139.513263 
L 159.127579 139.513263 
M 187.139368 139.513263 
L 173.133474 153.519158 
M 187.139368 139.513263 
L 187.139368 153.519158 
M 187.139368 139.513263 
L 173.133474 139.513263 
M 201.145263 139.513263 
L 187.139368 153.519158 
M 201.145263 139.513263 
L 201.145263 153.519158 
M 201.145263 139.513263 
L 215.151158 153.519158 
M 201.145263 139.513263 
L 187.139368 139.513263 
M 215.151158 139.513263 
L 215.151158 153.519158 
M 215.151158 139.513263 
L 229.157053 153.519158 
M 215.151158 139.513263 
L 201.145263 139.513263 
M 229.157053 139.513263 
L 229.157053 153.519158 
M 229.157053 139.513263 
L 215.151158 139.513263 
M 243.162947 139.513263 
L 229.157053 153.519158 
M 243.162947 139.513263 
L 243.162947 153.519158 
M 243.162947 139.513263 
L 257.168842 153.519158 
M 243.162947 139.513263 
L 229.157053 139.513263 
M 257.168842 139.513263 
L 257.168842 153.519158 
M 257.168842 139.513263 
L 271.174737 153.519158 
M 257.168842 139.513263 
L 243.162947 139.513263 
M 271.174737 139.513263 
L 271.174737 153.519158 
M 271.174737 139.513263 
L 257.168842 139.513263 
M 285.180632 139.513263 
L 271.174737 153.519158 
M 285.180632 139.513263 
L 285.180632 153.519158 
M 285.180632 139.513263 
L 271.174737 139.513263 
M 299.186526 139.513263 
L 285.180632 153.519158 
M 299.186526 139.513263 
L 299.186526 153.519158 
M 299.186526 139.513263 
L 313.192421 153.519158 
M 299.186526 139.513263 
L 285.180632 139.513263 
M 313.192421 139.513263 
L 313.192421 153.519158 
M 313.192421 139.513263 
L 299.186526 139.513263 
M 327.198316 139.513263 
L 313.192421 153.519158 
M 327.198316 139.513263 
L 327.198316 153.519158 
M 327.198316 139.513263 
L 341.204211 153.519158 
M 327.198316 139.513263 
L 313.192421 139.513263 
M 341.204211 139.513263 
L 341.204211 153.519158 
M 341.204211 139.513263 
L 355.210105 153.519158 
M 341.204211 139.513263 
L 327.198316 139.513263 
M 355.210105 139.513263 
L 355.210105 153.519158 
M 355.210105 139.513263 
L 341.204211 139.513263 
M 369.216 139.513263 
L 355.210105 153.519158 
M 369.216 139.513263 
L 369.216 153.519158 
M 369.216 139.513263 
L 355.210105 139.513263 
M 103.104 125.507368 
L 103.104 139.513263 
M 103.104 125.507368 
L 117.109895 139.513263 
M 117.109895 125.507368 
L 117.109895 139.513263 
M 117.109895 125.507368 
L 131.115789 139.513263 
M 117.109895 125.507368 
L 103.104 125.507368 
M 131.115789 125.507368 
L 131.115789 139.513263 
M 131.115789 125.507368 
L 117.109895 125.507368 
M 145.121684 125.507368 
L 131.115789 139.513263 
M 145.121684 125.507368 
L 145.121684 139.513263 
M 145.121684 125.507368 
L 159.127579 139.513263 
M 145.121684 125.507368 
L 131.115789 125.507368 
M 159.127579 125.507368 
L 159.127579 139.513263 
M 159.127579 125.507368 
L 173.133474 139.513263 
M 159.127579 125.507368 
L 145.121684 125.507368 
M 173.133474 125.507368 
L 173.133474 139.513263 
M 173.133474 125.507368 
L 187.139368 139.513263 
M 173.133474 125.507368 
L 159.127579 125.507368 
M 187.139368 125.507368 
L 187.139368 139.513263 
M 187.139368 125.507368 
L 201.145263 139.513263 
M 187.139368 125.507368 
L 173.133474 125.507368 
M 201.145263 125.507368 
L 201.145263 139.513263 
M 201.145263 125.507368 
L 187.139368 125.507368 
M 215.151158 125.507368 
L 201.145263 139.513263 
M 215.151158 125.507368 
L 215.151158 139.513263 
M 215.151158 125.507368 
L 229.157053 139.513263 
M 215.151158 125.507368 
L 201.145263 125.507368 
M 229.157053 125.507368 
L 229.157053 139.513263 
M 229.157053 125.507368 
L 215.151158 125.507368 
M 243.162947 125.507368 
L 229.157053 139.513263 
M 243.162947 125.507368 
L 243.162947 139.513263 
M 243.162947 125.507368 
L 257.168842 139.513263 
M 243.162947 125.507368 
L 229.157053 125.507368 
M 257.168842 125.507368 
L 257.168842 139.513263 
M 257.168842 125.507368 
L 243.162947 125.507368 
M 271.174737 125.507368 
L 257.168842 139.513263 
M 271.174737 125.507368 
L 271.174737 139.513263 
M 271.174737 125.507368 
L 285.180632 139.513263 
M 271.174737 125.507368 
L 257.168842 125.507368 
M 285.180632 125.507368 
L 285.180632 139.513263 
M 285.180632 125.507368 
L 299.186526 139.513263 
M 285.180632 125.507368 
L 271.174737 125.507368 
M 299.186526 125.507368 
L 299.186526 139.513263 
M 299.186526 125.507368 
L 285.180632 125.507368 
M 313.192421 125.507368 
L 299.186526 139.513263 
M 313.192421 125.507368 
L 313.192421 139.513263 
M 313.192421 125.507368 
L 327.198316 139.513263 
M 313.192421 125.507368 
L 299.186526 125.507368 
M 327.198316 125.507368 
L 327.198316 139.513263 
M 327.198316 125.507368 
L 313.192421 125.507368 
M 341.204211 125.507368 
L 327.198316 139.513263 
M 341.204211 125.507368 
L 341.204211 139.513263 
M 341.204211 125.507368 
L 327.198316 125.507368 
M 355.210105 125.507368 
L 341.204211 139.513263 
M 355.210105 125.507368 
L 355.210105 139.513263 
M 355.210105 125.507368 
L 369.216 139.513263 
M 355.210105 125.507368 
L 341.204211 125.507368 
M 369.216 125.507368 
L 369.216 139.513263 
M 369.216 125.507368 
L 355.210105 125.507368 
M 103.104 111.501474 
L 103.104 125.507368 
M 117.109895 111.501474 
L 103.104 125.507368 
M 117.109895 111.501474 
L 117.109895 125.507368 
M 117.109895 111.501474 
L 103.104 111.501474 
M 131.115789 111.501474 
L 117.109895 125.507368 
M 131.115789 111.501474 
L 131.115789 125.507368 
M 131.115789 111.501474 
L 145.121684 125.507368 
M 131.115789 111.501474 
L 117.109895 111.501474 
M 145.121684 111.501474 
L 145.121684 125.507368 
M 145.121684 111.501474 
L 131.115789 111.501474 
M 159.127579 111.501474 
L 145.121684 125.507368 
M 159.127579 111.501474 
L 159.127579 125.507368 
M 159.127579 111.501474 
L 173.133474 125.507368 
M 159.127579 111.501474 
L 145.121684 111.501474 
M 173.133474 111.501474 
L 173.133474 125.507368 
M 173.133474 111.501474 
L 159.127579 111.501474 
M 187.139368 111.501474 
L 173.133474 125.507368 
M 187.139368 111.501474 
L 187.139368 125.507368 
M 187.139368 111.501474 
L 173.133474 111.501474 
M 201.145263 111.501474 
L 187.139368 125.507368 
M 201.145263 111.501474 
L 201.145263 125.507368 
M 201.145263 111.501474 
L 215.151158 125.507368 
M 201.145263 111.501474 
L 187.139368 111.501474 
M 215.151158 111.501474 
L 215.151158 125.507368 
M 215.151158 111.501474 
L 201.145263 111.501474 
M 229.157053 111.501474 
L 215.151158 125.507368 
M 229.157053 111.501474 
L 229.157053 125.507368 
M 229.157053 111.501474 
L 243.162947 125.507368 
M 229.157053 111.501474 
L 215.151158 111.501474 
M 243.162947 111.501474 
L 243.162947 125.507368 
M 243.162947 111.501474 
L 229.157053 111.501474 
M 257.168842 111.501474 
L 243.162947 125.507368 
M 257.168842 111.501474 
L 257.168842 125.507368 
M 257.168842 111.501474 
L 271.174737 125.507368 
M 257.168842 111.501474 
L 243.162947 111.501474 
M 271.174737 111.501474 
L 271.174737 125.507368 
M 271.174737 111.501474 
L 257.168842 111.501474 
M 285.180632 111.501474 
L 271.174737 125.507368 
M 285.180632 111.501474 
L 285.180632 125.507368 
M 285.180632 111.501474 
L 299.186526 125.507368 
M 285.180632 111.501474 
L 271.174737 111.501474 
M 299.186526 111.501474 
L 299.186526 125.507368 
M 299.186526 111.501474 
L 313.192421 125.507368 
M 299.186526 111.501474 
L 285.180632 111.501474 
M 313.192421 111.501474 
L 313.192421 125.507368 
M 313.192421 111.501474 
L 327.198316 125.507368 
M 313.192421 111.501474 
L 299.186526 111.501474 
M 327.198316 111.501474 
L 327.198316 125.507368 
M 327.198316 111.501474 
L 341.204211 125.507368 
M 327.198316 111.501474 
L 313.192421 111.501474 
M 341.204211 111.501474 
L 341.204211 125.507368 
M 341.204211 111.501474 
L 327.198316 111.501474 
M 355.210105 111.501474 
L 341.204211 125.507368 
M 355.210105 111.501474 
L 355.210105 125.507368 
M 355.210105 111.501474 
L 369.216 125.507368 
M 355.210105 111.501474 
L 341.204211 111.501474 
M 369.216 111.501474 
L 369.216 125.507368 
M 369.216 111.501474 
L 355.210105 111.501474 
M 103.104 97.495579 
L 103.104 111.501474 
M 103.104 97.495579 
L 117.109895 111.501474 
M 117.109895 97.495579 
L 117.109895 111.501474 
M 117.109895 97.495579 
L 131.115789 111.501474 
M 117.109895 97.495579 
L 103.104 97.495579 
M 131.115789 97.495579 
L 131.115789 111.501474 
M 131.115789 97.495579 
L 117.109895 97.495579 
M 145.121684 97.495579 
L 131.115789 111.501474 
M 145.121684 97.495579 
L 145.121684 111.501474 
M 145.121684 97.495579 
L 159.127579 111.501474 
M 145.121684 97.495579 
L 131.115789 97.495579 
M 159.127579 97.495579 
L 159.127579 111.501474 
M 159.127579 97.495579 
L 145.121684 97.495579 
M 173.133474 97.495579 
L 159.127579 111.501474 
M 173.133474 97.495579 
L 173.133474 111.501474 
M 173.133474 97.495579 
L 159.127579 97.495579 
M 187.139368 97.495579 
L 173.133474 111.501474 
M 187.139368 97.495579 
L 187.139368 111.501474 
M 187.139368 97.495579 
L 201.145263 111.501474 
M 187.139368 97.495579 
L 173.133474 97.495579 
M 201.145263 97.495579 
L 201.145263 111.501474 
M 201.145263 97.495579 
L 187.139368 97.495579 
M 215.151158 97.495579 
L 201.145263 111.501474 
M 215.151158 97.495579 
L 215.151158 111.501474 
M 215.151158 97.495579 
L 201.145263 97.495579 
M 229.157053 97.495579 
L 215.151158 111.501474 
M 229.157053 97.495579 
L 229.157053 111.501474 
M 229.157053 97.495579 
L 243.162947 111.501474 
M 229.157053 97.495579 
L 215.151158 97.495579 
M 243.162947 97.495579 
L 243.162947 111.501474 
M 243.162947 97.495579 
L 257.168842 111.501474 
M 243.162947 97.495579 
L 229.157053 97.495579 
M 257.168842 97.495579 
L 257.168842 111.501474 
M 257.168842 97.495579 
L 243.162947 97.495579 
M 271.174737 97.495579 
L 257.168842 111.501474 
M 271.174737 97.495579 
L 271.174737 111.501474 
M 271.174737 97.495579 
L 285.180632 111.501474 
M 271.174737 97.495579 
L 257.168842 97.495579 
M 285.180632 97.495579 
L 285.180632 111.501474 
M 285.180632 97.495579 
L 271.174737 97.495579 
M 299.186526 97.495579 
L 285.180632 111.501474 
M 299.186526 97.495579 
L 299.186526 111.501474 
M 299.186526 97.495579 
L 285.180632 97.495579 
M 313.192421 97.495579 
L 299.186526 111.501474 
M 313.192421 97.495579 
L 313.192421 111.501474 
M 313.192421 97.495579 
L 327.198316 111.501474 
M 313.192421 97.495579 
L 299.186526 97.495579 
M 327.198316 97.495579 
L 327.198316 111.501474 
M 327.198316 97.495579 
L 341.204211 111.501474 
M 327.198316 97.495579 
L 313.192421 97.495579 
M 341.204211 97.495579 
L 341.204211 111.501474 
M 341.204211 97.495579 
L 327.198316 97.495579 
M 355.210105 97.495579 
L 341.204211 111.501474 
M 355.210105 97.495579 
L 355.210105 111.501474 
M 355.210105 97.495579 
L 369.216 111.501474 
M 355.210105 97.495579 
L 341.204211 97.495579 
M 369.216 97.495579 
L 369.216 111.501474 
M 369.216 97.495579 
L 355.210105 97.495579 
M 103.104 83.489684 
L 103.104 97.495579 
M 117.109895 83.489684 
L 103.104 97.495579 
M 117.109895 83.489684 
L 117.109895 97.495579 
M 117.109895 83.489684 
L 131.115789 97.495579 
M 117.109895 83.489684 
L 103.104 83.489684 
M 131.115789 83.489684 
L 131.115789 97.495579 
M 131.115789 83.489684 
L 145.121684 97.495579 
M 131.115789 83.489684 
L 117.109895 83.489684 
M 145.121684 83.489684 
L 145.121684 97.495579 
M 145.121684 83.489684 
L 159.127579 97.495579 
M 145.121684 83.489684 
L 131.115789 83.489684 
M 159.127579 83.489684 
L 159.127579 97.495579 
M 159.127579 83.489684 
L 145.121684 83.489684 
M 173.133474 83.489684 
L 159.127579 97.495579 
M 173.133474 83.489684 
L 173.133474 97.495579 
M 173.133474 83.489684 
L 187.139368 97.495579 
M 173.133474 83.489684 
L 159.127579 83.489684 
M 187.139368 83.489684 
L 187.139368 97.495579 
M 187.139368 83.489684 
L 173.133474 83.489684 
M 201.145263 83.489684 
L 187.139368 97.495579 
M 201.145263 83.489684 
L 201.145263 97.495579 
M 201.145263 83.489684 
L 187.139368 83.489684 
M 215.151158 83.489684 
L 201.145263 97.495579 
M 215.151158 83.489684 
L 215.151158 97.495579 
M 215.151158 83.489684 
L 229.157053 97.495579 
M 215.151158 83.489684 
L 201.145263 83.489684 
M 229.157053 83.489684 
L 229.157053 97.495579 
M 229.157053 83.489684 
L 215.151158 83.489684 
M 243.162947 83.489684 
L 229.157053 97.495579 
M 243.162947 83.489684 
L 243.162947 97.495579 
M 243.162947 83.489684 
L 229.157053 83.489684 
M 257.168842 83.489684 
L 243.162947 97.495579 
M 257.168842 83.489684 
L 257.168842 97.495579 
M 257.168842 83.489684 
L 271.174737 97.495579 
M 257.168842 83.489684 
L 243.162947 83.489684 
M 271.174737 83.489684 
L 271.174737 97.495579 
M 271.174737 83.489684 
L 285.180632 97.495579 
M 271.174737 83.489684 
L 257.168842 83.489684 
M 285.180632 83.489684 
L 285.180632 97.495579 
M 285.180632 83.489684 
L 299.186526 97.495579 
M 285.180632 83.489684 
L 271.174737 83.489684 
M 299.186526 83.489684 
L 299.186526 97.495579 
M 299.186526 83.489684 
L 313.192421 97.495579 
M 299.186526 83.489684 
L 285.180632 83.489684 
M 313.192421 83.489684 
L 313.192421 97.495579 
M 313.192421 83.489684 
L 299.186526 83.489684 
M 327.198316 83.489684 
L 313.192421 97.495579 
M 327.198316 83.489684 
L 327.198316 97.495579 
M 327.198316 83.489684 
L 313.192421 83.489684 
M 341.204211 83.489684 
L 327.198316 97.495579 
M 341.204211 83.489684 
L 341.204211 97.495579 
M 341.204211 83.489684 
L 327.198316 83.489684 
M 355.210105 83.489684 
L 341.204211 97.495579 
M 355.210105 83.489684 
L 355.210105 97.495579 
M 355.210105 83.489684 
L 369.216 97.495579 
M 355.210105 83.489684 
L 341.204211 83.489684 
M 369.216 83.489684 
L 369.216 97.495579 
M 369.216 83.489684 
L 355.210105 83.489684 
M 103.104 69.483789 
L 103.104 83.489684 
M 103.104 69.483789 
L 117.109895 83.489684 
M 117.109895 69.483789 
L 117.109895 83.489684 
M 117.109895 69.483789 
L 103.104 69.483789 
M 131.115789 69.483789 
L 117.109895 83.489684 
M 131.115789 69.483789 
L 131.115789 83.489684 
M 131.115789 69.483789 
L 145.121684 83.489684 
M 131.115789 69.483789 
L 117.109895 69.483789 
M 145.121684 69.483789 
L 145.121684 83.489684 
M 145.121684 69.483789 
L 159.127579 83.489684 
M 145.121684 69.483789 
L 131.115789 69.483789 
M 159.127579 69.483789 
L 159.127579 83.489684 
M 159.127579 69.483789 
L 145.121684 69.483789 
M 173.133474 69.483789 
L 159.127579 83.489684 
M 173.133474 69.483789 
L 173.133474 83.489684 
M 173.133474 69.483789 
L 187.139368 83.489684 
M 173.133474 69.483789 
L 159.127579 69.483789 
M 187.139368 69.483789 
L 187.139368 83.489684 
M 187.139368 69.483789 
L 173.133474 69.483789 
M 201.145263 69.483789 
L 187.139368 83.489684 
M 201.145263 69.483789 
L 201.145263 83.489684 
M 201.145263 69.483789 
L 215.151158 83.489684 
M 201.145263 69.483789 
L 187.139368 69.483789 
M 215.151158 69.483789 
L 215.151158 83.489684 
M 215.151158 69.483789 
L 201.145263 69.483789 
M 229.157053 69.483789 
L 215.151158 83.489684 
M 229.157053 69.483789 
L 229.157053 83.489684 
M 229.157053 69.483789 
L 243.162947 83.489684 
M 229.157053 69.483789 
L 215.151158 69.483789 
M 243.162947 69.483789 
L 243.162947 83.489684 
M 243.162947 69.483789 
L 257.168842 83.489684 
M 243.162947 69.483789 
L 229.157053 69.483789 
M 257.168842 69.483789 
L 257.168842 83.489684 
M 257.168842 69.483789 
L 243.162947 69.483789 
M 271.174737 69.483789 
L 257.168842 83.489684 
M 271.174737 69.483789 
L 271.174737 83.489684 
M 271.174737 69.483789 
L 285.180632 83.489684 
M 271.174737 69.483789 
L 257.168842 69.483789 
M 285.180632 69.483789 
L 285.180632 83.489684 
M 285.180632 69.483789 
L 271.174737 69.483789 
M 299.186526 69.483789 
L 285.180632 83.489684 
M 299.186526 69.483789 
L 299.186526 83.489684 
M 299.186526 69.483789 
L 313.192421 83.489684 
M 299.186526 69.483789 
L 285.180632 69.483789 
M 313.192421 69.483789 
L 313.192421 83.489684 
M 313.192421 69.483789 
L 327.198316 83.489684 
M 313.192421 69.483789 
L 299.186526 69.483789 
M 327.198316 69.483789 
L 327.198316 83.489684 
M 327.198316 69.483789 
L 313.192421 69.483789 
M 341.204211 69.483789 
L 327.198316 83.489684 
M 341.204211 69.483789 
L 341.204211 83.489684 
M 341.204211 69.483789 
L 355.210105 83.489684 
M 341.204211 69.483789 
L 327.198316 69.483789 
M 355.210105 69.483789 
L 355.210105 83.489684 
M 355.210105 69.483789 
L 341.204211 69.483789 
M 369.216 69.483789 
L 355.210105 83.489684 
M 369.216 69.483789 
L 369.216 83.489684 
M 369.216 69.483789 
L 355.210105 69.483789 
M 103.104 55.477895 
L 103.104 69.483789 
M 117.109895 55.477895 
L 103.104 69.483789 
M 117.109895 55.477895 
L 117.109895 69.483789 
M 117.109895 55.477895 
L 131.115789 69.483789 
M 117.109895 55.477895 
L 103.104 55.477895 
M 131.115789 55.477895 
L 131.115789 69.483789 
M 131.115789 55.477895 
L 117.109895 55.477895 
M 145.121684 55.477895 
L 131.115789 69.483789 
M 145.121684 55.477895 
L 145.121684 69.483789 
M 145.121684 55.477895 
L 159.127579 69.483789 
M 145.121684 55.477895 
L 131.115789 55.477895 
M 159.127579 55.477895 
L 159.127579 69.483789 
M 159.127579 55.477895 
L 145.121684 55.477895 
M 173.133474 55.477895 
L 159.127579 69.483789 
M 173.133474 55.477895 
L 173.133474 69.483789 
M 173.133474 55.477895 
L 187.139368 69.483789 
M 173.133474 55.477895 
L 159.127579 55.477895 
M 187.139368 55.477895 
L 187.139368 69.483789 
M 187.139368 55.477895 
L 173.133474 55.477895 
M 201.145263 55.477895 
L 187.139368 69.483789 
M 201.145263 55.477895 
L 201.145263 69.483789 
M 201.145263 55.477895 
L 187.139368 55.477895 
M 215.151158 55.477895 
L 201.145263 69.483789 
M 215.151158 55.477895 
L 215.151158 69.483789 
M 215.151158 55.477895 
L 229.157053 69.483789 
M 215.151158 55.477895 
L 201.145263 55.477895 
M 229.157053 55.477895 
L 229.157053 69.483789 
M 229.157053 55.477895 
L 215.151158 55.477895 
M 243.162947 55.477895 
L 229.157053 69.483789 
M 243.162947 55.477895 
L 243.162947 69.483789 
M 243.162947 55.477895 
L 257.168842 69.483789 
M 243.162947 55.477895 
L 229.157053 55.477895 
M 257.168842 55.477895 
L 257.168842 69.483789 
M 257.168842 55.477895 
L 271.174737 69.483789 
M 257.168842 55.477895 
L 243.162947 55.477895 
M 271.174737 55.477895 
L 271.174737 69.483789 
M 271.174737 55.477895 
L 257.168842 55.477895 
M 285.180632 55.477895 
L 271.174737 69.483789 
M 285.180632 55.477895 
L 285.180632 69.483789 
M 285.180632 55.477895 
L 299.186526 69.483789 
M 285.180632 55.477895 
L 271.174737 55.477895 
M 299.186526 55.477895 
L 299.186526 69.483789 
M 299.186526 55.477895 
L 285.180632 55.477895 
M 313.192421 55.477895 
L 299.186526 69.483789 
M 313.192421 55.477895 
L 313.192421 69.483789 
M 313.192421 55.477895 
L 327.198316 69.483789 
M 313.192421 55.477895 
L 299.186526 55.477895 
M 327.198316 55.477895 
L 327.198316 69.483789 
M 327.198316 55.477895 
L 341.204211 69.483789 
M 327.198316 55.477895 
L 313.192421 55.477895 
M 341.204211 55.477895 
L 341.204211 69.483789 
M 341.204211 55.477895 
L 327.198316 55.477895 
M 355.210105 55.477895 
L 341.204211 69.483789 
M 355.210105 55.477895 
L 355.210105 69.483789 
M 355.210105 55.477895 
L 341.204211 55.477895 
M 369.216 55.477895 
L 355.210105 69.483789 
M 369.216 55.477895 
L 369.216 69.483789 
M 369.216 55.477895 
L 355.210105 55.477895 
M 103.104 41.472 
L 103.104 55.477895 
M 103.104 41.472 
L 117.109895 55.477895 
M 117.109895 41.472 
L 117.109895 55.477895 
M 117.109895 41.472 
L 131.115789 55.477895 
M 117.109895 41.472 
L 103.104 41.472 
M 131.115789 41.472 
L 131.115789 55.477895 
M 131.115789 41.472 
L 145.121684 55.477895 
M 131.115789 41.472 
L 117.109895 41.472 
M 145.121684 41.472 
L 145.121684 55.477895 
M 145.121684 41.472 
L 131.115789 41.472 
M 159.127579 41.472 
L 145.121684 55.477895 
M 159.127579 41.472 
L 159.127579 55.477895 
M 159.127579 41.472 
L 173.133474 55.477895 
M 159.127579 41.472 
L 145.121684 41.472 
M 173.133474 41.472 
L 173.133474 55.477895 
M 173.133474 41.472 
L 159.127579 41.472 
M 187.139368 41.472 
L 173.133474 55.477895 
M 187.139368 41.472 
L 187.139368 55.477895 
M 187.139368 41.472 
L 201.145263 55.477895 
M 187.139368 41.472 
L 173.133474 41.472 
M 201.145263 41.472 
L 201.145263 55.477895 
M 201.145263 41.472 
L 215.151158 55.477895 
M 201.145263 41.472 
L 187.139368 41.472 
M 215.151158 41.472 
L 215.151158 55.477895 
M 215.151158 41.472 
L 201.145263 41.472 
M 229.157053 41.472 
L 215.151158 55.477895 
M 229.157053 41.472 
L 229.157053 55.477895 
M 229.157053 41.472 
L 243.162947 55.477895 
M 229.157053 41.472 
L 215.151158 41.472 
M 243.162947 41.472 
L 243.162947 55.477895 
M 243.162947 41.472 
L 229.157053 41.472 
M 257.168842 41.472 
L 243.162947 55.477895 
M 257.168842 41.472 
L 257.168842 55.477895 
M 257.168842 41.472 
L 271.174737 55.477895 
M 257.168842 41.472 
L 243.162947 41.472 
M 271.174737 41.472 
L 271.174737 55.477895 
M 271.174737 41.472 
L 257.168842 41.472 
M 285.180632 41.472 
L 271.174737 55.477895 
M 285.180632 41.472 
L 285.180632 55.477895 
M 285.180632 41.472 
L 299.186526 55.477895 
M 285.180632 41.472 
L 271.174737 41.472 
M 299.186526 41.472 
L 299.186526 55.477895 
M 299.186526 41.472 
L 285.180632 41.472 
M 313.192421 41.472 
L 299.186526 55.477895 
M 313.192421 41.472 
L 313.192421 55.477895 
M 313.192421 41.472 
L 299.186526 41.472 
M 327.198316 41.472 
L 313.192421 55.477895 
M 327.198316 41.472 
L 327.198316 55.477895 
M 327.198316 41.472 
L 341.204211 55.477895 
M 327.198316 41.472 
L 313.192421 41.472 
M 341.204211 41.472 
L 341.204211 55.477895 
M 341.204211 41.472 
L 327.198316 41.472 
M 355.210105 41.472 
L 341.204211 55.477895 
M 355.210105 41.472 
L 355.210105 55.477895 
M 355.210105 41.472 
L 369.216 55.477895 
M 355.210105 41.472 
L 341.204211 41.472 
M 369.216 41.472 
L 369.216 55.477895 
M 369.216 41.472 
L 355.210105 41.472 
L 355.210105 41.472 
" clip-path="url(#p6d7a0ee0cd)" style="fill: none; stroke: #0070c0; stroke-width: 1.5; stroke-linecap: square"/>
   </g>
   <g id="line2d_2">
    <defs>
     <path id="mfc5b373c5d" d="M 0 3 
C 0.795609 3 1.55874 2.683901 2.12132 2.12132 
C 2.683901 1.55874 3 0.795609 3 0 
C 3 -0.795609 2.683901 -1.55874 2.12132 -2.12132 
C 1.55874 -2.683901 0.795609 -3 0 -3 
C -0.795609 -3 -1.55874 -2.683901 -2.12132 -2.12132 
C -2.683901 -1.55874 -3 -0.795609 -3 0 
C -3 0.795609 -2.683901 1.55874 -2.12132 2.12132 
C -1.55874 2.683901 -0.795609 3 0 3 
z
" style="stroke: #0070c0"/>
    </defs>
    <g clip-path="url(#p6d7a0ee0cd)">
     <use xlink:href="#mfc5b373c5d" x="103.104" y="307.584" style="fill: #0070c0; stroke: #0070c0"/>
     <use xlink:href="#mfc5b373c5d" x="117.109895" y="307.584" style="fill: #0070c0; stroke: #0070c0"/>
     <use xlink:href="#mfc5b373c5d" x="131.115789" y="307.584" style="fill: #0070c0; stroke: #0070c0"/>
     <use xlink:href="#mfc5b373c5d" x="145.121684" y="307.584" style="fill: #0070c0; stroke: #0070c0"/>
     <use xlink:href="#mfc5b373c5d" x="159.127579" y="307.584" style="fill: #0070c0; stroke: #0070c0"/>
     <use xlink:href="#mfc5b373c5d" x="173.133474" y="307.584" style="fill: #0070c0; stroke: #0070c0"/>
     <use xlink:href="#mfc5b373c5d" x="187.139368" y="307.584" style="fill: #0070c0; stroke: #0070c0"/>
     <use xlink:href="#mfc5b373c5d" x="201.145263" y="307.584" style="fill: #0070c0; stroke: #0070c0"/>
     <use xlink:href="#mfc5b373c5d" x="215.151158" y="307.584" style="fill: #0070c0; stroke: #0070c0"/>
     <use xlink:href="#mfc5b373c5d" x="229.157053" y="307.584" style="fill: #0070c0; stroke: #0070c0"/>
     <use xlink:href="#mfc5b373c5d" x="243.162947" y="307.584" style="fill: #0070c0; stroke: #0070c0"/>
     <use xlink:href="#mfc5b373c5d" x="257.168842" y="307.584" style="fill: #0070c0; stroke: #0070c0"/>
     <use xlink:href="#mfc5b373c5d" x="271.174737" y="307.584" style="fill: #0070c0; stroke: #0070c0"/>
     <use xlink:href="#mfc5b373c5d" x="285.180632" y="307.584" style="fill: #0070c0; stroke: #0070c0"/>
     <use xlink:href="#mfc5b373c5d" x="299.186526" y="307.584" style="fill: #0070c0; stroke: #0070c0"/>
     <use xlink:href="#mfc5b373c5d" x="313.192421" y="307.584" style="fill: #0070c0; stroke: #0070c0"/>
     <use xlink:href="#mfc5b373c5d" x="327.198316" y="307.584" style="fill: #0070c0; stroke: #0070c0"/>
     <use xlink:href="#mfc5b373c5d" x="341.204211" y="307.584" style="fill: #0070c0; stroke: #0070c0"/>
     <use xlink:href="#mfc5b373c5d" x="355.210105" y="307.584" style="fill: #0070c0; stroke: #0070c0"/>
     <use xlink:href="#mfc5b373c5d" x="369.216" y="307.584" style="fill: #0070c0; stroke: #0070c0"/>
     <use xlink:href="#mfc5b373c5d" x="103.104" y="293.578105" style="fill: #0070c0; stroke: #0070c0"/>
     <use xlink:href="#mfc5b373c5d" x="117.109895" y="293.578105" style="fill: #0070c0; stroke: #0070c0"/>
     <use xlink:href="#mfc5b373c5d" x="131.115789" y="293.578105" style="fill: #0070c0; stroke: #0070c0"/>
     <use xlink:href="#mfc5b373c5d" x="145.121684" y="293.578105" style="fill: #0070c0; stroke: #0070c0"/>
     <use xlink:href="#mfc5b373c5d" x="159.127579" y="293.578105" style="fill: #0070c0; stroke: #0070c0"/>
     <use xlink:href="#mfc5b373c5d" x="173.133474" y="293.578105" style="fill: #0070c0; stroke: #0070c0"/>
     <use xlink:href="#mfc5b373c5d" x="187.139368" y="293.578105" style="fill: #0070c0; stroke: #0070c0"/>
     <use xlink:href="#mfc5b373c5d" x="201.145263" y="293.578105" style="fill: #0070c0; stroke: #0070c0"/>
     <use xlink:href="#mfc5b373c5d" x="215.151158" y="293.578105" style="fill: #0070c0; stroke: #0070c0"/>
     <use xlink:href="#mfc5b373c5d" x="229.157053" y="293.578105" style="fill: #0070c0; stroke: #0070c0"/>
     <use xlink:href="#mfc5b373c5d" x="243.162947" y="293.578105" style="fill: #0070c0; stroke: #0070c0"/>
     <use xlink:href="#mfc5b373c5d" x="257.168842" y="293.578105" style="fill: #0070c0; stroke: #0070c0"/>
     <use xlink:href="#mfc5b373c5d" x="271.174737" y="293.578105" style="fill: #0070c0; stroke: #0070c0"/>
     <use xlink:href="#mfc5b373c5d" x="285.180632" y="293.578105" style="fill: #0070c0; stroke: #0070c0"/>
     <use xlink:href="#mfc5b373c5d" x="299.186526" y="293.578105" style="fill: #0070c0; stroke: #0070c0"/>
     <use xlink:href="#mfc5b373c5d" x="313.192421" y="293.578105" style="fill: #0070c0; stroke: #0070c0"/>
     <use xlink:href="#mfc5b373c5d" x="327.198316" y="293.578105" style="fill: #0070c0; stroke: #0070c0"/>
     <use xlink:href="#mfc5b373c5d" x="341.204211" y="293.578105" style="fill: #0070c0; stroke: #0070c0"/>
     <use xlink:href="#mfc5b373c5d" x="355.210105" y="293.578105" style="fill: #0070c0; stroke: #0070c0"/>
     <use xlink:href="#mfc5b373c5d" x="369.216" y="293.578105" style="fill: #0070c0; stroke: #0070c0"/>
     <use xlink:href="#mfc5b373c5d" x="103.104" y="279.572211" style="fill: #0070c0; stroke: #0070c0"/>
     <use xlink:href="#mfc5b373c5d" x="117.109895" y="279.572211" style="fill: #0070c0; stroke: #0070c0"/>
     <use xlink:href="#mfc5b373c5d" x="131.115789" y="279.572211" style="fill: #0070c0; stroke: #0070c0"/>
     <use xlink:href="#mfc5b373c5d" x="145.121684" y="279.572211" style="fill: #0070c0; stroke: #0070c0"/>
     <use xlink:href="#mfc5b373c5d" x="159.127579" y="279.572211" style="fill: #0070c0; stroke: #0070c0"/>
     <use xlink:href="#mfc5b373c5d" x="173.133474" y="279.572211" style="fill: #0070c0; stroke: #0070c0"/>
     <use xlink:href="#mfc5b373c5d" x="187.139368" y="279.572211" style="fill: #0070c0; stroke: #0070c0"/>
     <use xlink:href="#mfc5b373c5d" x="201.145263" y="279.572211" style="fill: #0070c0; stroke: #0070c0"/>
     <use xlink:href="#mfc5b373c5d" x="215.151158" y="279.572211" style="fill: #0070c0; stroke: #0070c0"/>
     <use xlink:href="#mfc5b373c5d" x="229.157053" y="279.572211" style="fill: #0070c0; stroke: #0070c0"/>
     <use xlink:href="#mfc5b373c5d" x="243.162947" y="279.572211" style="fill: #0070c0; stroke: #0070c0"/>
     <use xlink:href="#mfc5b373c5d" x="257.168842" y="279.572211" style="fill: #0070c0; stroke: #0070c0"/>
     <use xlink:href="#mfc5b373c5d" x="271.174737" y="279.572211" style="fill: #0070c0; stroke: #0070c0"/>
     <use xlink:href="#mfc5b373c5d" x="285.180632" y="279.572211" style="fill: #0070c0; stroke: #0070c0"/>
     <use xlink:href="#mfc5b373c5d" x="299.186526" y="279.572211" style="fill: #0070c0; stroke: #0070c0"/>
     <use xlink:href="#mfc5b373c5d" x="313.192421" y="279.572211" style="fill: #0070c0; stroke: #0070c0"/>
     <use xlink:href="#mfc5b373c5d" x="327.198316" y="279.572211" style="fill: #0070c0; stroke: #0070c0"/>
     <use xlink:href="#mfc5b373c5d" x="341.204211" y="279.572211" style="fill: #0070c0; stroke: #0070c0"/>
     <use xlink:href="#mfc5b373c5d" x="355.210105" y="279.572211" style="fill: #0070c0; stroke: #0070c0"/>
     <use xlink:href="#mfc5b373c5d" x="369.216" y="279.572211" style="fill: #0070c0; stroke: #0070c0"/>
     <use xlink:href="#mfc5b373c5d" x="103.104" y="265.566316" style="fill: #0070c0; stroke: #0070c0"/>
     <use xlink:href="#mfc5b373c5d" x="117.109895" y="265.566316" style="fill: #0070c0; stroke: #0070c0"/>
     <use xlink:href="#mfc5b373c5d" x="131.115789" y="265.566316" style="fill: #0070c0; stroke: #0070c0"/>
     <use xlink:href="#mfc5b373c5d" x="145.121684" y="265.566316" style="fill: #0070c0; stroke: #0070c0"/>
     <use xlink:href="#mfc5b373c5d" x="159.127579" y="265.566316" style="fill: #0070c0; stroke: #0070c0"/>
     <use xlink:href="#mfc5b373c5d" x="173.133474" y="265.566316" style="fill: #0070c0; stroke: #0070c0"/>
     <use xlink:href="#mfc5b373c5d" x="187.139368" y="265.566316" style="fill: #0070c0; stroke: #0070c0"/>
     <use xlink:href="#mfc5b373c5d" x="201.145263" y="265.566316" style="fill: #0070c0; stroke: #0070c0"/>
     <use xlink:href="#mfc5b373c5d" x="215.151158" y="265.566316" style="fill: #0070c0; stroke: #0070c0"/>
     <use xlink:href="#mfc5b373c5d" x="229.157053" y="265.566316" style="fill: #0070c0; stroke: #0070c0"/>
     <use xlink:href="#mfc5b373c5d" x="243.162947" y="265.566316" style="fill: #0070c0; stroke: #0070c0"/>
     <use xlink:href="#mfc5b373c5d" x="257.168842" y="265.566316" style="fill: #0070c0; stroke: #0070c0"/>
     <use xlink:href="#mfc5b373c5d" x="271.174737" y="265.566316" style="fill: #0070c0; stroke: #0070c0"/>
     <use xlink:href="#mfc5b373c5d" x="285.180632" y="265.566316" style="fill: #0070c0; stroke: #0070c0"/>
     <use xlink:href="#mfc5b373c5d" x="299.186526" y="265.566316" style="fill: #0070c0; stroke: #0070c0"/>
     <use xlink:href="#mfc5b373c5d" x="313.192421" y="265.566316" style="fill: #0070c0; stroke: #0070c0"/>
     <use xlink:href="#mfc5b373c5d" x="327.198316" y="265.566316" style="fill: #0070c0; stroke: #0070c0"/>
     <use xlink:href="#mfc5b373c5d" x="341.204211" y="265.566316" style="fill: #0070c0; stroke: #0070c0"/>
     <use xlink:href="#mfc5b373c5d" x="355.210105" y="265.566316" style="fill: #0070c0; stroke: #0070c0"/>
     <use xlink:href="#mfc5b373c5d" x="369.216" y="265.566316" style="fill: #0070c0; stroke: #0070c0"/>
     <use xlink:href="#mfc5b373c5d" x="103.104" y="251.560421" style="fill: #0070c0; stroke: #0070c0"/>
     <use xlink:href="#mfc5b373c5d" x="117.109895" y="251.560421" style="fill: #0070c0; stroke: #0070c0"/>
     <use xlink:href="#mfc5b373c5d" x="131.115789" y="251.560421" style="fill: #0070c0; stroke: #0070c0"/>
     <use xlink:href="#mfc5b373c5d" x="145.121684" y="251.560421" style="fill: #0070c0; stroke: #0070c0"/>
     <use xlink:href="#mfc5b373c5d" x="159.127579" y="251.560421" style="fill: #0070c0; stroke: #0070c0"/>
     <use xlink:href="#mfc5b373c5d" x="173.133474" y="251.560421" style="fill: #0070c0; stroke: #0070c0"/>
     <use xlink:href="#mfc5b373c5d" x="187.139368" y="251.560421" style="fill: #0070c0; stroke: #0070c0"/>
     <use xlink:href="#mfc5b373c5d" x="201.145263" y="251.560421" style="fill: #0070c0; stroke: #0070c0"/>
     <use xlink:href="#mfc5b373c5d" x="215.151158" y="251.560421" style="fill: #0070c0; stroke: #0070c0"/>
     <use xlink:href="#mfc5b373c5d" x="229.157053" y="251.560421" style="fill: #0070c0; stroke: #0070c0"/>
     <use xlink:href="#mfc5b373c5d" x="243.162947" y="251.560421" style="fill: #0070c0; stroke: #0070c0"/>
     <use xlink:href="#mfc5b373c5d" x="257.168842" y="251.560421" style="fill: #0070c0; stroke: #0070c0"/>
     <use xlink:href="#mfc5b373c5d" x="271.174737" y="251.560421" style="fill: #0070c0; stroke: #0070c0"/>
     <use xlink:href="#mfc5b373c5d" x="285.180632" y="251.560421" style="fill: #0070c0; stroke: #0070c0"/>
     <use xlink:href="#mfc5b373c5d" x="299.186526" y="251.560421" style="fill: #0070c0; stroke: #0070c0"/>
     <use xlink:href="#mfc5b373c5d" x="313.192421" y="251.560421" style="fill: #0070c0; stroke: #0070c0"/>
     <use xlink:href="#mfc5b373c5d" x="327.198316" y="251.560421" style="fill: #0070c0; stroke: #0070c0"/>
     <use xlink:href="#mfc5b373c5d" x="341.204211" y="251.560421" style="fill: #0070c0; stroke: #0070c0"/>
     <use xlink:href="#mfc5b373c5d" x="355.210105" y="251.560421" style="fill: #0070c0; stroke: #0070c0"/>
     <use xlink:href="#mfc5b373c5d" x="369.216" y="251.560421" style="fill: #0070c0; stroke: #0070c0"/>
     <use xlink:href="#mfc5b373c5d" x="103.104" y="237.554526" style="fill: #0070c0; stroke: #0070c0"/>
     <use xlink:href="#mfc5b373c5d" x="117.109895" y="237.554526" style="fill: #0070c0; stroke: #0070c0"/>
     <use xlink:href="#mfc5b373c5d" x="131.115789" y="237.554526" style="fill: #0070c0; stroke: #0070c0"/>
     <use xlink:href="#mfc5b373c5d" x="145.121684" y="237.554526" style="fill: #0070c0; stroke: #0070c0"/>
     <use xlink:href="#mfc5b373c5d" x="159.127579" y="237.554526" style="fill: #0070c0; stroke: #0070c0"/>
     <use xlink:href="#mfc5b373c5d" x="173.133474" y="237.554526" style="fill: #0070c0; stroke: #0070c0"/>
     <use xlink:href="#mfc5b373c5d" x="187.139368" y="237.554526" style="fill: #0070c0; stroke: #0070c0"/>
     <use xlink:href="#mfc5b373c5d" x="201.145263" y="237.554526" style="fill: #0070c0; stroke: #0070c0"/>
     <use xlink:href="#mfc5b373c5d" x="215.151158" y="237.554526" style="fill: #0070c0; stroke: #0070c0"/>
     <use xlink:href="#mfc5b373c5d" x="229.157053" y="237.554526" style="fill: #0070c0; stroke: #0070c0"/>
     <use xlink:href="#mfc5b373c5d" x="243.162947" y="237.554526" style="fill: #0070c0; stroke: #0070c0"/>
     <use xlink:href="#mfc5b373c5d" x="257.168842" y="237.554526" style="fill: #0070c0; stroke: #0070c0"/>
     <use xlink:href="#mfc5b373c5d" x="271.174737" y="237.554526" style="fill: #0070c0; stroke: #0070c0"/>
     <use xlink:href="#mfc5b373c5d" x="285.180632" y="237.554526" style="fill: #0070c0; stroke: #0070c0"/>
     <use xlink:href="#mfc5b373c5d" x="299.186526" y="237.554526" style="fill: #0070c0; stroke: #0070c0"/>
     <use xlink:href="#mfc5b373c5d" x="313.192421" y="237.554526" style="fill: #0070c0; stroke: #0070c0"/>
     <use xlink:href="#mfc5b373c5d" x="327.198316" y="237.554526" style="fill: #0070c0; stroke: #0070c0"/>
     <use xlink:href="#mfc5b373c5d" x="341.204211" y="237.554526" style="fill: #0070c0; stroke: #0070c0"/>
     <use xlink:href="#mfc5b373c5d" x="355.210105" y="237.554526" style="fill: #0070c0; stroke: #0070c0"/>
     <use xlink:href="#mfc5b373c5d" x="369.216" y="237.554526" style="fill: #0070c0; stroke: #0070c0"/>
     <use xlink:href="#mfc5b373c5d" x="103.104" y="223.548632" style="fill: #0070c0; stroke: #0070c0"/>
     <use xlink:href="#mfc5b373c5d" x="117.109895" y="223.548632" style="fill: #0070c0; stroke: #0070c0"/>
     <use xlink:href="#mfc5b373c5d" x="131.115789" y="223.548632" style="fill: #0070c0; stroke: #0070c0"/>
     <use xlink:href="#mfc5b373c5d" x="145.121684" y="223.548632" style="fill: #0070c0; stroke: #0070c0"/>
     <use xlink:href="#mfc5b373c5d" x="159.127579" y="223.548632" style="fill: #0070c0; stroke: #0070c0"/>
     <use xlink:href="#mfc5b373c5d" x="173.133474" y="223.548632" style="fill: #0070c0; stroke: #0070c0"/>
     <use xlink:href="#mfc5b373c5d" x="187.139368" y="223.548632" style="fill: #0070c0; stroke: #0070c0"/>
     <use xlink:href="#mfc5b373c5d" x="201.145263" y="223.548632" style="fill: #0070c0; stroke: #0070c0"/>
     <use xlink:href="#mfc5b373c5d" x="215.151158" y="223.548632" style="fill: #0070c0; stroke: #0070c0"/>
     <use xlink:href="#mfc5b373c5d" x="229.157053" y="223.548632" style="fill: #0070c0; stroke: #0070c0"/>
     <use xlink:href="#mfc5b373c5d" x="243.162947" y="223.548632" style="fill: #0070c0; stroke: #0070c0"/>
     <use xlink:href="#mfc5b373c5d" x="257.168842" y="223.548632" style="fill: #0070c0; stroke: #0070c0"/>
     <use xlink:href="#mfc5b373c5d" x="271.174737" y="223.548632" style="fill: #0070c0; stroke: #0070c0"/>
     <use xlink:href="#mfc5b373c5d" x="285.180632" y="223.548632" style="fill: #0070c0; stroke: #0070c0"/>
     <use xlink:href="#mfc5b373c5d" x="299.186526" y="223.548632" style="fill: #0070c0; stroke: #0070c0"/>
     <use xlink:href="#mfc5b373c5d" x="313.192421" y="223.548632" style="fill: #0070c0; stroke: #0070c0"/>
     <use xlink:href="#mfc5b373c5d" x="327.198316" y="223.548632" style="fill: #0070c0; stroke: #0070c0"/>
     <use xlink:href="#mfc5b373c5d" x="341.204211" y="223.548632" style="fill: #0070c0; stroke: #0070c0"/>
     <use xlink:href="#mfc5b373c5d" x="355.210105" y="223.548632" style="fill: #0070c0; stroke: #0070c0"/>
     <use xlink:href="#mfc5b373c5d" x="369.216" y="223.548632" style="fill: #0070c0; stroke: #0070c0"/>
     <use xlink:href="#mfc5b373c5d" x="103.104" y="209.542737" style="fill: #0070c0; stroke: #0070c0"/>
     <use xlink:href="#mfc5b373c5d" x="117.109895" y="209.542737" style="fill: #0070c0; stroke: #0070c0"/>
     <use xlink:href="#mfc5b373c5d" x="131.115789" y="209.542737" style="fill: #0070c0; stroke: #0070c0"/>
     <use xlink:href="#mfc5b373c5d" x="145.121684" y="209.542737" style="fill: #0070c0; stroke: #0070c0"/>
     <use xlink:href="#mfc5b373c5d" x="159.127579" y="209.542737" style="fill: #0070c0; stroke: #0070c0"/>
     <use xlink:href="#mfc5b373c5d" x="173.133474" y="209.542737" style="fill: #0070c0; stroke: #0070c0"/>
     <use xlink:href="#mfc5b373c5d" x="187.139368" y="209.542737" style="fill: #0070c0; stroke: #0070c0"/>
     <use xlink:href="#mfc5b373c5d" x="201.145263" y="209.542737" style="fill: #0070c0; stroke: #0070c0"/>
     <use xlink:href="#mfc5b373c5d" x="215.151158" y="209.542737" style="fill: #0070c0; stroke: #0070c0"/>
     <use xlink:href="#mfc5b373c5d" x="229.157053" y="209.542737" style="fill: #0070c0; stroke: #0070c0"/>
     <use xlink:href="#mfc5b373c5d" x="243.162947" y="209.542737" style="fill: #0070c0; stroke: #0070c0"/>
     <use xlink:href="#mfc5b373c5d" x="257.168842" y="209.542737" style="fill: #0070c0; stroke: #0070c0"/>
     <use xlink:href="#mfc5b373c5d" x="271.174737" y="209.542737" style="fill: #0070c0; stroke: #0070c0"/>
     <use xlink:href="#mfc5b373c5d" x="285.180632" y="209.542737" style="fill: #0070c0; stroke: #0070c0"/>
     <use xlink:href="#mfc5b373c5d" x="299.186526" y="209.542737" style="fill: #0070c0; stroke: #0070c0"/>
     <use xlink:href="#mfc5b373c5d" x="313.192421" y="209.542737" style="fill: #0070c0; stroke: #0070c0"/>
     <use xlink:href="#mfc5b373c5d" x="327.198316" y="209.542737" style="fill: #0070c0; stroke: #0070c0"/>
     <use xlink:href="#mfc5b373c5d" x="341.204211" y="209.542737" style="fill: #0070c0; stroke: #0070c0"/>
     <use xlink:href="#mfc5b373c5d" x="355.210105" y="209.542737" style="fill: #0070c0; stroke: #0070c0"/>
     <use xlink:href="#mfc5b373c5d" x="369.216" y="209.542737" style="fill: #0070c0; stroke: #0070c0"/>
     <use xlink:href="#mfc5b373c5d" x="103.104" y="195.536842" style="fill: #0070c0; stroke: #0070c0"/>
     <use xlink:href="#mfc5b373c5d" x="117.109895" y="195.536842" style="fill: #0070c0; stroke: #0070c0"/>
     <use xlink:href="#mfc5b373c5d" x="131.115789" y="195.536842" style="fill: #0070c0; stroke: #0070c0"/>
     <use xlink:href="#mfc5b373c5d" x="145.121684" y="195.536842" style="fill: #0070c0; stroke: #0070c0"/>
     <use xlink:href="#mfc5b373c5d" x="159.127579" y="195.536842" style="fill: #0070c0; stroke: #0070c0"/>
     <use xlink:href="#mfc5b373c5d" x="173.133474" y="195.536842" style="fill: #0070c0; stroke: #0070c0"/>
     <use xlink:href="#mfc5b373c5d" x="187.139368" y="195.536842" style="fill: #0070c0; stroke: #0070c0"/>
     <use xlink:href="#mfc5b373c5d" x="201.145263" y="195.536842" style="fill: #0070c0; stroke: #0070c0"/>
     <use xlink:href="#mfc5b373c5d" x="215.151158" y="195.536842" style="fill: #0070c0; stroke: #0070c0"/>
     <use xlink:href="#mfc5b373c5d" x="229.157053" y="195.536842" style="fill: #0070c0; stroke: #0070c0"/>
     <use xlink:href="#mfc5b373c5d" x="243.162947" y="195.536842" style="fill: #0070c0; stroke: #0070c0"/>
     <use xlink:href="#mfc5b373c5d" x="257.168842" y="195.536842" style="fill: #0070c0; stroke: #0070c0"/>
     <use xlink:href="#mfc5b373c5d" x="271.174737" y="195.536842" style="fill: #0070c0; stroke: #0070c0"/>
     <use xlink:href="#mfc5b373c5d" x="285.180632" y="195.536842" style="fill: #0070c0; stroke: #0070c0"/>
     <use xlink:href="#mfc5b373c5d" x="299.186526" y="195.536842" style="fill: #0070c0; stroke: #0070c0"/>
     <use xlink:href="#mfc5b373c5d" x="313.192421" y="195.536842" style="fill: #0070c0; stroke: #0070c0"/>
     <use xlink:href="#mfc5b373c5d" x="327.198316" y="195.536842" style="fill: #0070c0; stroke: #0070c0"/>
     <use xlink:href="#mfc5b373c5d" x="341.204211" y="195.536842" style="fill: #0070c0; stroke: #0070c0"/>
     <use xlink:href="#mfc5b373c5d" x="355.210105" y="195.536842" style="fill: #0070c0; stroke: #0070c0"/>
     <use xlink:href="#mfc5b373c5d" x="369.216" y="195.536842" style="fill: #0070c0; stroke: #0070c0"/>
     <use xlink:href="#mfc5b373c5d" x="103.104" y="181.530947" style="fill: #0070c0; stroke: #0070c0"/>
     <use xlink:href="#mfc5b373c5d" x="117.109895" y="181.530947" style="fill: #0070c0; stroke: #0070c0"/>
     <use xlink:href="#mfc5b373c5d" x="131.115789" y="181.530947" style="fill: #0070c0; stroke: #0070c0"/>
     <use xlink:href="#mfc5b373c5d" x="145.121684" y="181.530947" style="fill: #0070c0; stroke: #0070c0"/>
     <use xlink:href="#mfc5b373c5d" x="159.127579" y="181.530947" style="fill: #0070c0; stroke: #0070c0"/>
     <use xlink:href="#mfc5b373c5d" x="173.133474" y="181.530947" style="fill: #0070c0; stroke: #0070c0"/>
     <use xlink:href="#mfc5b373c5d" x="187.139368" y="181.530947" style="fill: #0070c0; stroke: #0070c0"/>
     <use xlink:href="#mfc5b373c5d" x="201.145263" y="181.530947" style="fill: #0070c0; stroke: #0070c0"/>
     <use xlink:href="#mfc5b373c5d" x="215.151158" y="181.530947" style="fill: #0070c0; stroke: #0070c0"/>
     <use xlink:href="#mfc5b373c5d" x="229.157053" y="181.530947" style="fill: #0070c0; stroke: #0070c0"/>
     <use xlink:href="#mfc5b373c5d" x="243.162947" y="181.530947" style="fill: #0070c0; stroke: #0070c0"/>
     <use xlink:href="#mfc5b373c5d" x="257.168842" y="181.530947" style="fill: #0070c0; stroke: #0070c0"/>
     <use xlink:href="#mfc5b373c5d" x="271.174737" y="181.530947" style="fill: #0070c0; stroke: #0070c0"/>
     <use xlink:href="#mfc5b373c5d" x="285.180632" y="181.530947" style="fill: #0070c0; stroke: #0070c0"/>
     <use xlink:href="#mfc5b373c5d" x="299.186526" y="181.530947" style="fill: #0070c0; stroke: #0070c0"/>
     <use xlink:href="#mfc5b373c5d" x="313.192421" y="181.530947" style="fill: #0070c0; stroke: #0070c0"/>
     <use xlink:href="#mfc5b373c5d" x="327.198316" y="181.530947" style="fill: #0070c0; stroke: #0070c0"/>
     <use xlink:href="#mfc5b373c5d" x="341.204211" y="181.530947" style="fill: #0070c0; stroke: #0070c0"/>
     <use xlink:href="#mfc5b373c5d" x="355.210105" y="181.530947" style="fill: #0070c0; stroke: #0070c0"/>
     <use xlink:href="#mfc5b373c5d" x="369.216" y="181.530947" style="fill: #0070c0; stroke: #0070c0"/>
     <use xlink:href="#mfc5b373c5d" x="103.104" y="167.525053" style="fill: #0070c0; stroke: #0070c0"/>
     <use xlink:href="#mfc5b373c5d" x="117.109895" y="167.525053" style="fill: #0070c0; stroke: #0070c0"/>
     <use xlink:href="#mfc5b373c5d" x="131.115789" y="167.525053" style="fill: #0070c0; stroke: #0070c0"/>
     <use xlink:href="#mfc5b373c5d" x="145.121684" y="167.525053" style="fill: #0070c0; stroke: #0070c0"/>
     <use xlink:href="#mfc5b373c5d" x="159.127579" y="167.525053" style="fill: #0070c0; stroke: #0070c0"/>
     <use xlink:href="#mfc5b373c5d" x="173.133474" y="167.525053" style="fill: #0070c0; stroke: #0070c0"/>
     <use xlink:href="#mfc5b373c5d" x="187.139368" y="167.525053" style="fill: #0070c0; stroke: #0070c0"/>
     <use xlink:href="#mfc5b373c5d" x="201.145263" y="167.525053" style="fill: #0070c0; stroke: #0070c0"/>
     <use xlink:href="#mfc5b373c5d" x="215.151158" y="167.525053" style="fill: #0070c0; stroke: #0070c0"/>
     <use xlink:href="#mfc5b373c5d" x="229.157053" y="167.525053" style="fill: #0070c0; stroke: #0070c0"/>
     <use xlink:href="#mfc5b373c5d" x="243.162947" y="167.525053" style="fill: #0070c0; stroke: #0070c0"/>
     <use xlink:href="#mfc5b373c5d" x="257.168842" y="167.525053" style="fill: #0070c0; stroke: #0070c0"/>
     <use xlink:href="#mfc5b373c5d" x="271.174737" y="167.525053" style="fill: #0070c0; stroke: #0070c0"/>
     <use xlink:href="#mfc5b373c5d" x="285.180632" y="167.525053" style="fill: #0070c0; stroke: #0070c0"/>
     <use xlink:href="#mfc5b373c5d" x="299.186526" y="167.525053" style="fill: #0070c0; stroke: #0070c0"/>
     <use xlink:href="#mfc5b373c5d" x="313.192421" y="167.525053" style="fill: #0070c0; stroke: #0070c0"/>
     <use xlink:href="#mfc5b373c5d" x="327.198316" y="167.525053" style="fill: #0070c0; stroke: #0070c0"/>
     <use xlink:href="#mfc5b373c5d" x="341.204211" y="167.525053" style="fill: #0070c0; stroke: #0070c0"/>
     <use xlink:href="#mfc5b373c5d" x="355.210105" y="167.525053" style="fill: #0070c0; stroke: #0070c0"/>
     <use xlink:href="#mfc5b373c5d" x="369.216" y="167.525053" style="fill: #0070c0; stroke: #0070c0"/>
     <use xlink:href="#mfc5b373c5d" x="103.104" y="153.519158" style="fill: #0070c0; stroke: #0070c0"/>
     <use xlink:href="#mfc5b373c5d" x="117.109895" y="153.519158" style="fill: #0070c0; stroke: #0070c0"/>
     <use xlink:href="#mfc5b373c5d" x="131.115789" y="153.519158" style="fill: #0070c0; stroke: #0070c0"/>
     <use xlink:href="#mfc5b373c5d" x="145.121684" y="153.519158" style="fill: #0070c0; stroke: #0070c0"/>
     <use xlink:href="#mfc5b373c5d" x="159.127579" y="153.519158" style="fill: #0070c0; stroke: #0070c0"/>
     <use xlink:href="#mfc5b373c5d" x="173.133474" y="153.519158" style="fill: #0070c0; stroke: #0070c0"/>
     <use xlink:href="#mfc5b373c5d" x="187.139368" y="153.519158" style="fill: #0070c0; stroke: #0070c0"/>
     <use xlink:href="#mfc5b373c5d" x="201.145263" y="153.519158" style="fill: #0070c0; stroke: #0070c0"/>
     <use xlink:href="#mfc5b373c5d" x="215.151158" y="153.519158" style="fill: #0070c0; stroke: #0070c0"/>
     <use xlink:href="#mfc5b373c5d" x="229.157053" y="153.519158" style="fill: #0070c0; stroke: #0070c0"/>
     <use xlink:href="#mfc5b373c5d" x="243.162947" y="153.519158" style="fill: #0070c0; stroke: #0070c0"/>
     <use xlink:href="#mfc5b373c5d" x="257.168842" y="153.519158" style="fill: #0070c0; stroke: #0070c0"/>
     <use xlink:href="#mfc5b373c5d" x="271.174737" y="153.519158" style="fill: #0070c0; stroke: #0070c0"/>
     <use xlink:href="#mfc5b373c5d" x="285.180632" y="153.519158" style="fill: #0070c0; stroke: #0070c0"/>
     <use xlink:href="#mfc5b373c5d" x="299.186526" y="153.519158" style="fill: #0070c0; stroke: #0070c0"/>
     <use xlink:href="#mfc5b373c5d" x="313.192421" y="153.519158" style="fill: #0070c0; stroke: #0070c0"/>
     <use xlink:href="#mfc5b373c5d" x="327.198316" y="153.519158" style="fill: #0070c0; stroke: #0070c0"/>
     <use xlink:href="#mfc5b373c5d" x="341.204211" y="153.519158" style="fill: #0070c0; stroke: #0070c0"/>
     <use xlink:href="#mfc5b373c5d" x="355.210105" y="153.519158" style="fill: #0070c0; stroke: #0070c0"/>
     <use xlink:href="#mfc5b373c5d" x="369.216" y="153.519158" style="fill: #0070c0; stroke: #0070c0"/>
     <use xlink:href="#mfc5b373c5d" x="103.104" y="139.513263" style="fill: #0070c0; stroke: #0070c0"/>
     <use xlink:href="#mfc5b373c5d" x="117.109895" y="139.513263" style="fill: #0070c0; stroke: #0070c0"/>
     <use xlink:href="#mfc5b373c5d" x="131.115789" y="139.513263" style="fill: #0070c0; stroke: #0070c0"/>
     <use xlink:href="#mfc5b373c5d" x="145.121684" y="139.513263" style="fill: #0070c0; stroke: #0070c0"/>
     <use xlink:href="#mfc5b373c5d" x="159.127579" y="139.513263" style="fill: #0070c0; stroke: #0070c0"/>
     <use xlink:href="#mfc5b373c5d" x="173.133474" y="139.513263" style="fill: #0070c0; stroke: #0070c0"/>
     <use xlink:href="#mfc5b373c5d" x="187.139368" y="139.513263" style="fill: #0070c0; stroke: #0070c0"/>
     <use xlink:href="#mfc5b373c5d" x="201.145263" y="139.513263" style="fill: #0070c0; stroke: #0070c0"/>
     <use xlink:href="#mfc5b373c5d" x="215.151158" y="139.513263" style="fill: #0070c0; stroke: #0070c0"/>
     <use xlink:href="#mfc5b373c5d" x="229.157053" y="139.513263" style="fill: #0070c0; stroke: #0070c0"/>
     <use xlink:href="#mfc5b373c5d" x="243.162947" y="139.513263" style="fill: #0070c0; stroke: #0070c0"/>
     <use xlink:href="#mfc5b373c5d" x="257.168842" y="139.513263" style="fill: #0070c0; stroke: #0070c0"/>
     <use xlink:href="#mfc5b373c5d" x="271.174737" y="139.513263" style="fill: #0070c0; stroke: #0070c0"/>
     <use xlink:href="#mfc5b373c5d" x="285.180632" y="139.513263" style="fill: #0070c0; stroke: #0070c0"/>
     <use xlink:href="#mfc5b373c5d" x="299.186526" y="139.513263" style="fill: #0070c0; stroke: #0070c0"/>
     <use xlink:href="#mfc5b373c5d" x="313.192421" y="139.513263" style="fill: #0070c0; stroke: #0070c0"/>
     <use xlink:href="#mfc5b373c5d" x="327.198316" y="139.513263" style="fill: #0070c0; stroke: #0070c0"/>
     <use xlink:href="#mfc5b373c5d" x="341.204211" y="139.513263" style="fill: #0070c0; stroke: #0070c0"/>
     <use xlink:href="#mfc5b373c5d" x="355.210105" y="139.513263" style="fill: #0070c0; stroke: #0070c0"/>
     <use xlink:href="#mfc5b373c5d" x="369.216" y="139.513263" style="fill: #0070c0; stroke: #0070c0"/>
     <use xlink:href="#mfc5b373c5d" x="103.104" y="125.507368" style="fill: #0070c0; stroke: #0070c0"/>
     <use xlink:href="#mfc5b373c5d" x="117.109895" y="125.507368" style="fill: #0070c0; stroke: #0070c0"/>
     <use xlink:href="#mfc5b373c5d" x="131.115789" y="125.507368" style="fill: #0070c0; stroke: #0070c0"/>
     <use xlink:href="#mfc5b373c5d" x="145.121684" y="125.507368" style="fill: #0070c0; stroke: #0070c0"/>
     <use xlink:href="#mfc5b373c5d" x="159.127579" y="125.507368" style="fill: #0070c0; stroke: #0070c0"/>
     <use xlink:href="#mfc5b373c5d" x="173.133474" y="125.507368" style="fill: #0070c0; stroke: #0070c0"/>
     <use xlink:href="#mfc5b373c5d" x="187.139368" y="125.507368" style="fill: #0070c0; stroke: #0070c0"/>
     <use xlink:href="#mfc5b373c5d" x="201.145263" y="125.507368" style="fill: #0070c0; stroke: #0070c0"/>
     <use xlink:href="#mfc5b373c5d" x="215.151158" y="125.507368" style="fill: #0070c0; stroke: #0070c0"/>
     <use xlink:href="#mfc5b373c5d" x="229.157053" y="125.507368" style="fill: #0070c0; stroke: #0070c0"/>
     <use xlink:href="#mfc5b373c5d" x="243.162947" y="125.507368" style="fill: #0070c0; stroke: #0070c0"/>
     <use xlink:href="#mfc5b373c5d" x="257.168842" y="125.507368" style="fill: #0070c0; stroke: #0070c0"/>
     <use xlink:href="#mfc5b373c5d" x="271.174737" y="125.507368" style="fill: #0070c0; stroke: #0070c0"/>
     <use xlink:href="#mfc5b373c5d" x="285.180632" y="125.507368" style="fill: #0070c0; stroke: #0070c0"/>
     <use xlink:href="#mfc5b373c5d" x="299.186526" y="125.507368" style="fill: #0070c0; stroke: #0070c0"/>
     <use xlink:href="#mfc5b373c5d" x="313.192421" y="125.507368" style="fill: #0070c0; stroke: #0070c0"/>
     <use xlink:href="#mfc5b373c5d" x="327.198316" y="125.507368" style="fill: #0070c0; stroke: #0070c0"/>
     <use xlink:href="#mfc5b373c5d" x="341.204211" y="125.507368" style="fill: #0070c0; stroke: #0070c0"/>
     <use xlink:href="#mfc5b373c5d" x="355.210105" y="125.507368" style="fill: #0070c0; stroke: #0070c0"/>
     <use xlink:href="#mfc5b373c5d" x="369.216" y="125.507368" style="fill: #0070c0; stroke: #0070c0"/>
     <use xlink:href="#mfc5b373c5d" x="103.104" y="111.501474" style="fill: #0070c0; stroke: #0070c0"/>
     <use xlink:href="#mfc5b373c5d" x="117.109895" y="111.501474" style="fill: #0070c0; stroke: #0070c0"/>
     <use xlink:href="#mfc5b373c5d" x="131.115789" y="111.501474" style="fill: #0070c0; stroke: #0070c0"/>
     <use xlink:href="#mfc5b373c5d" x="145.121684" y="111.501474" style="fill: #0070c0; stroke: #0070c0"/>
     <use xlink:href="#mfc5b373c5d" x="159.127579" y="111.501474" style="fill: #0070c0; stroke: #0070c0"/>
     <use xlink:href="#mfc5b373c5d" x="173.133474" y="111.501474" style="fill: #0070c0; stroke: #0070c0"/>
     <use xlink:href="#mfc5b373c5d" x="187.139368" y="111.501474" style="fill: #0070c0; stroke: #0070c0"/>
     <use xlink:href="#mfc5b373c5d" x="201.145263" y="111.501474" style="fill: #0070c0; stroke: #0070c0"/>
     <use xlink:href="#mfc5b373c5d" x="215.151158" y="111.501474" style="fill: #0070c0; stroke: #0070c0"/>
     <use xlink:href="#mfc5b373c5d" x="229.157053" y="111.501474" style="fill: #0070c0; stroke: #0070c0"/>
     <use xlink:href="#mfc5b373c5d" x="243.162947" y="111.501474" style="fill: #0070c0; stroke: #0070c0"/>
     <use xlink:href="#mfc5b373c5d" x="257.168842" y="111.501474" style="fill: #0070c0; stroke: #0070c0"/>
     <use xlink:href="#mfc5b373c5d" x="271.174737" y="111.501474" style="fill: #0070c0; stroke: #0070c0"/>
     <use xlink:href="#mfc5b373c5d" x="285.180632" y="111.501474" style="fill: #0070c0; stroke: #0070c0"/>
     <use xlink:href="#mfc5b373c5d" x="299.186526" y="111.501474" style="fill: #0070c0; stroke: #0070c0"/>
     <use xlink:href="#mfc5b373c5d" x="313.192421" y="111.501474" style="fill: #0070c0; stroke: #0070c0"/>
     <use xlink:href="#mfc5b373c5d" x="327.198316" y="111.501474" style="fill: #0070c0; stroke: #0070c0"/>
     <use xlink:href="#mfc5b373c5d" x="341.204211" y="111.501474" style="fill: #0070c0; stroke: #0070c0"/>
     <use xlink:href="#mfc5b373c5d" x="355.210105" y="111.501474" style="fill: #0070c0; stroke: #0070c0"/>
     <use xlink:href="#mfc5b373c5d" x="369.216" y="111.501474" style="fill: #0070c0; stroke: #0070c0"/>
     <use xlink:href="#mfc5b373c5d" x="103.104" y="97.495579" style="fill: #0070c0; stroke: #0070c0"/>
     <use xlink:href="#mfc5b373c5d" x="117.109895" y="97.495579" style="fill: #0070c0; stroke: #0070c0"/>
     <use xlink:href="#mfc5b373c5d" x="131.115789" y="97.495579" style="fill: #0070c0; stroke: #0070c0"/>
     <use xlink:href="#mfc5b373c5d" x="145.121684" y="97.495579" style="fill: #0070c0; stroke: #0070c0"/>
     <use xlink:href="#mfc5b373c5d" x="159.127579" y="97.495579" style="fill: #0070c0; stroke: #0070c0"/>
     <use xlink:href="#mfc5b373c5d" x="173.133474" y="97.495579" style="fill: #0070c0; stroke: #0070c0"/>
     <use xlink:href="#mfc5b373c5d" x="187.139368" y="97.495579" style="fill: #0070c0; stroke: #0070c0"/>
     <use xlink:href="#mfc5b373c5d" x="201.145263" y="97.495579" style="fill: #0070c0; stroke: #0070c0"/>
     <use xlink:href="#mfc5b373c5d" x="215.151158" y="97.495579" style="fill: #0070c0; stroke: #0070c0"/>
     <use xlink:href="#mfc5b373c5d" x="229.157053" y="97.495579" style="fill: #0070c0; stroke: #0070c0"/>
     <use xlink:href="#mfc5b373c5d" x="243.162947" y="97.495579" style="fill: #0070c0; stroke: #0070c0"/>
     <use xlink:href="#mfc5b373c5d" x="257.168842" y="97.495579" style="fill: #0070c0; stroke: #0070c0"/>
     <use xlink:href="#mfc5b373c5d" x="271.174737" y="97.495579" style="fill: #0070c0; stroke: #0070c0"/>
     <use xlink:href="#mfc5b373c5d" x="285.180632" y="97.495579" style="fill: #0070c0; stroke: #0070c0"/>
     <use xlink:href="#mfc5b373c5d" x="299.186526" y="97.495579" style="fill: #0070c0; stroke: #0070c0"/>
     <use xlink:href="#mfc5b373c5d" x="313.192421" y="97.495579" style="fill: #0070c0; stroke: #0070c0"/>
     <use xlink:href="#mfc5b373c5d" x="327.198316" y="97.495579" style="fill: #0070c0; stroke: #0070c0"/>
     <use xlink:href="#mfc5b373c5d" x="341.204211" y="97.495579" style="fill: #0070c0; stroke: #0070c0"/>
     <use xlink:href="#mfc5b373c5d" x="355.210105" y="97.495579" style="fill: #0070c0; stroke: #0070c0"/>
     <use xlink:href="#mfc5b373c5d" x="369.216" y="97.495579" style="fill: #0070c0; stroke: #0070c0"/>
     <use xlink:href="#mfc5b373c5d" x="103.104" y="83.489684" style="fill: #0070c0; stroke: #0070c0"/>
     <use xlink:href="#mfc5b373c5d" x="117.109895" y="83.489684" style="fill: #0070c0; stroke: #0070c0"/>
     <use xlink:href="#mfc5b373c5d" x="131.115789" y="83.489684" style="fill: #0070c0; stroke: #0070c0"/>
     <use xlink:href="#mfc5b373c5d" x="145.121684" y="83.489684" style="fill: #0070c0; stroke: #0070c0"/>
     <use xlink:href="#mfc5b373c5d" x="159.127579" y="83.489684" style="fill: #0070c0; stroke: #0070c0"/>
     <use xlink:href="#mfc5b373c5d" x="173.133474" y="83.489684" style="fill: #0070c0; stroke: #0070c0"/>
     <use xlink:href="#mfc5b373c5d" x="187.139368" y="83.489684" style="fill: #0070c0; stroke: #0070c0"/>
     <use xlink:href="#mfc5b373c5d" x="201.145263" y="83.489684" style="fill: #0070c0; stroke: #0070c0"/>
     <use xlink:href="#mfc5b373c5d" x="215.151158" y="83.489684" style="fill: #0070c0; stroke: #0070c0"/>
     <use xlink:href="#mfc5b373c5d" x="229.157053" y="83.489684" style="fill: #0070c0; stroke: #0070c0"/>
     <use xlink:href="#mfc5b373c5d" x="243.162947" y="83.489684" style="fill: #0070c0; stroke: #0070c0"/>
     <use xlink:href="#mfc5b373c5d" x="257.168842" y="83.489684" style="fill: #0070c0; stroke: #0070c0"/>
     <use xlink:href="#mfc5b373c5d" x="271.174737" y="83.489684" style="fill: #0070c0; stroke: #0070c0"/>
     <use xlink:href="#mfc5b373c5d" x="285.180632" y="83.489684" style="fill: #0070c0; stroke: #0070c0"/>
     <use xlink:href="#mfc5b373c5d" x="299.186526" y="83.489684" style="fill: #0070c0; stroke: #0070c0"/>
     <use xlink:href="#mfc5b373c5d" x="313.192421" y="83.489684" style="fill: #0070c0; stroke: #0070c0"/>
     <use xlink:href="#mfc5b373c5d" x="327.198316" y="83.489684" style="fill: #0070c0; stroke: #0070c0"/>
     <use xlink:href="#mfc5b373c5d" x="341.204211" y="83.489684" style="fill: #0070c0; stroke: #0070c0"/>
     <use xlink:href="#mfc5b373c5d" x="355.210105" y="83.489684" style="fill: #0070c0; stroke: #0070c0"/>
     <use xlink:href="#mfc5b373c5d" x="369.216" y="83.489684" style="fill: #0070c0; stroke: #0070c0"/>
     <use xlink:href="#mfc5b373c5d" x="103.104" y="69.483789" style="fill: #0070c0; stroke: #0070c0"/>
     <use xlink:href="#mfc5b373c5d" x="117.109895" y="69.483789" style="fill: #0070c0; stroke: #0070c0"/>
     <use xlink:href="#mfc5b373c5d" x="131.115789" y="69.483789" style="fill: #0070c0; stroke: #0070c0"/>
     <use xlink:href="#mfc5b373c5d" x="145.121684" y="69.483789" style="fill: #0070c0; stroke: #0070c0"/>
     <use xlink:href="#mfc5b373c5d" x="159.127579" y="69.483789" style="fill: #0070c0; stroke: #0070c0"/>
     <use xlink:href="#mfc5b373c5d" x="173.133474" y="69.483789" style="fill: #0070c0; stroke: #0070c0"/>
     <use xlink:href="#mfc5b373c5d" x="187.139368" y="69.483789" style="fill: #0070c0; stroke: #0070c0"/>
     <use xlink:href="#mfc5b373c5d" x="201.145263" y="69.483789" style="fill: #0070c0; stroke: #0070c0"/>
     <use xlink:href="#mfc5b373c5d" x="215.151158" y="69.483789" style="fill: #0070c0; stroke: #0070c0"/>
     <use xlink:href="#mfc5b373c5d" x="229.157053" y="69.483789" style="fill: #0070c0; stroke: #0070c0"/>
     <use xlink:href="#mfc5b373c5d" x="243.162947" y="69.483789" style="fill: #0070c0; stroke: #0070c0"/>
     <use xlink:href="#mfc5b373c5d" x="257.168842" y="69.483789" style="fill: #0070c0; stroke: #0070c0"/>
     <use xlink:href="#mfc5b373c5d" x="271.174737" y="69.483789" style="fill: #0070c0; stroke: #0070c0"/>
     <use xlink:href="#mfc5b373c5d" x="285.180632" y="69.483789" style="fill: #0070c0; stroke: #0070c0"/>
     <use xlink:href="#mfc5b373c5d" x="299.186526" y="69.483789" style="fill: #0070c0; stroke: #0070c0"/>
     <use xlink:href="#mfc5b373c5d" x="313.192421" y="69.483789" style="fill: #0070c0; stroke: #0070c0"/>
     <use xlink:href="#mfc5b373c5d" x="327.198316" y="69.483789" style="fill: #0070c0; stroke: #0070c0"/>
     <use xlink:href="#mfc5b373c5d" x="341.204211" y="69.483789" style="fill: #0070c0; stroke: #0070c0"/>
     <use xlink:href="#mfc5b373c5d" x="355.210105" y="69.483789" style="fill: #0070c0; stroke: #0070c0"/>
     <use xlink:href="#mfc5b373c5d" x="369.216" y="69.483789" style="fill: #0070c0; stroke: #0070c0"/>
     <use xlink:href="#mfc5b373c5d" x="103.104" y="55.477895" style="fill: #0070c0; stroke: #0070c0"/>
     <use xlink:href="#mfc5b373c5d" x="117.109895" y="55.477895" style="fill: #0070c0; stroke: #0070c0"/>
     <use xlink:href="#mfc5b373c5d" x="131.115789" y="55.477895" style="fill: #0070c0; stroke: #0070c0"/>
     <use xlink:href="#mfc5b373c5d" x="145.121684" y="55.477895" style="fill: #0070c0; stroke: #0070c0"/>
     <use xlink:href="#mfc5b373c5d" x="159.127579" y="55.477895" style="fill: #0070c0; stroke: #0070c0"/>
     <use xlink:href="#mfc5b373c5d" x="173.133474" y="55.477895" style="fill: #0070c0; stroke: #0070c0"/>
     <use xlink:href="#mfc5b373c5d" x="187.139368" y="55.477895" style="fill: #0070c0; stroke: #0070c0"/>
     <use xlink:href="#mfc5b373c5d" x="201.145263" y="55.477895" style="fill: #0070c0; stroke: #0070c0"/>
     <use xlink:href="#mfc5b373c5d" x="215.151158" y="55.477895" style="fill: #0070c0; stroke: #0070c0"/>
     <use xlink:href="#mfc5b373c5d" x="229.157053" y="55.477895" style="fill: #0070c0; stroke: #0070c0"/>
     <use xlink:href="#mfc5b373c5d" x="243.162947" y="55.477895" style="fill: #0070c0; stroke: #0070c0"/>
     <use xlink:href="#mfc5b373c5d" x="257.168842" y="55.477895" style="fill: #0070c0; stroke: #0070c0"/>
     <use xlink:href="#mfc5b373c5d" x="271.174737" y="55.477895" style="fill: #0070c0; stroke: #0070c0"/>
     <use xlink:href="#mfc5b373c5d" x="285.180632" y="55.477895" style="fill: #0070c0; stroke: #0070c0"/>
     <use xlink:href="#mfc5b373c5d" x="299.186526" y="55.477895" style="fill: #0070c0; stroke: #0070c0"/>
     <use xlink:href="#mfc5b373c5d" x="313.192421" y="55.477895" style="fill: #0070c0; stroke: #0070c0"/>
     <use xlink:href="#mfc5b373c5d" x="327.198316" y="55.477895" style="fill: #0070c0; stroke: #0070c0"/>
     <use xlink:href="#mfc5b373c5d" x="341.204211" y="55.477895" style="fill: #0070c0; stroke: #0070c0"/>
     <use xlink:href="#mfc5b373c5d" x="355.210105" y="55.477895" style="fill: #0070c0; stroke: #0070c0"/>
     <use xlink:href="#mfc5b373c5d" x="369.216" y="55.477895" style="fill: #0070c0; stroke: #0070c0"/>
     <use xlink:href="#mfc5b373c5d" x="103.104" y="41.472" style="fill: #0070c0; stroke: #0070c0"/>
     <use xlink:href="#mfc5b373c5d" x="117.109895" y="41.472" style="fill: #0070c0; stroke: #0070c0"/>
     <use xlink:href="#mfc5b373c5d" x="131.115789" y="41.472" style="fill: #0070c0; stroke: #0070c0"/>
     <use xlink:href="#mfc5b373c5d" x="145.121684" y="41.472" style="fill: #0070c0; stroke: #0070c0"/>
     <use xlink:href="#mfc5b373c5d" x="159.127579" y="41.472" style="fill: #0070c0; stroke: #0070c0"/>
     <use xlink:href="#mfc5b373c5d" x="173.133474" y="41.472" style="fill: #0070c0; stroke: #0070c0"/>
     <use xlink:href="#mfc5b373c5d" x="187.139368" y="41.472" style="fill: #0070c0; stroke: #0070c0"/>
     <use xlink:href="#mfc5b373c5d" x="201.145263" y="41.472" style="fill: #0070c0; stroke: #0070c0"/>
     <use xlink:href="#mfc5b373c5d" x="215.151158" y="41.472" style="fill: #0070c0; stroke: #0070c0"/>
     <use xlink:href="#mfc5b373c5d" x="229.157053" y="41.472" style="fill: #0070c0; stroke: #0070c0"/>
     <use xlink:href="#mfc5b373c5d" x="243.162947" y="41.472" style="fill: #0070c0; stroke: #0070c0"/>
     <use xlink:href="#mfc5b373c5d" x="257.168842" y="41.472" style="fill: #0070c0; stroke: #0070c0"/>
     <use xlink:href="#mfc5b373c5d" x="271.174737" y="41.472" style="fill: #0070c0; stroke: #0070c0"/>
     <use xlink:href="#mfc5b373c5d" x="285.180632" y="41.472" style="fill: #0070c0; stroke: #0070c0"/>
     <use xlink:href="#mfc5b373c5d" x="299.186526" y="41.472" style="fill: #0070c0; stroke: #0070c0"/>
     <use xlink:href="#mfc5b373c5d" x="313.192421" y="41.472" style="fill: #0070c0; stroke: #0070c0"/>
     <use xlink:href="#mfc5b373c5d" x="327.198316" y="41.472" style="fill: #0070c0; stroke: #0070c0"/>
     <use xlink:href="#mfc5b373c5d" x="341.204211" y="41.472" style="fill: #0070c0; stroke: #0070c0"/>
     <use xlink:href="#mfc5b373c5d" x="355.210105" y="41.472" style="fill: #0070c0; stroke: #0070c0"/>
     <use xlink:href="#mfc5b373c5d" x="369.216" y="41.472" style="fill: #0070c0; stroke: #0070c0"/>
    </g>
   </g>
  </g>
 </g>
 <defs>
  <clipPath id="p6d7a0ee0cd">
   <rect x="103.104" y="41.472" width="266.112" height="266.112"/>
  </clipPath>
 </defs>
</svg>
