<?xml version="1.0" encoding="utf-8" standalone="no"?>
<!DOCTYPE svg PUBLIC "-//W3C//DTD SVG 1.1//EN"
  "http://www.w3.org/Graphics/SVG/1.1/DTD/svg11.dtd">
<svg xmlns:xlink="http://www.w3.org/1999/xlink" width="360pt" height="216pt" viewBox="0 0 360 216" xmlns="http://www.w3.org/2000/svg" version="1.1">
 <metadata>
  <rdf:RDF xmlns:dc="http://purl.org/dc/elements/1.1/" xmlns:cc="http://creativecommons.org/ns#" xmlns:rdf="http://www.w3.org/1999/02/22-rdf-syntax-ns#">
   <cc:Work>
    <dc:type rdf:resource="http://purl.org/dc/dcmitype/StillImage"/>
    <dc:date>2025-12-03T16:57:53.768922</dc:date>
    <dc:format>image/svg+xml</dc:format>
    <dc:creator>
     <cc:Agent>
      <dc:title>Matplotlib v3.10.6, https://matplotlib.org/</dc:title>
     </cc:Agent>
    </dc:creator>
   </cc:Work>
  </rdf:RDF>
 </metadata>
 <defs>
  <style type="text/css">*{stroke-linejoin: round; stroke-linecap: butt}</style>
 </defs>
 <g id="figure_1">
  <g id="patch_1">
   <path d="M 0 216 
L 360 216 
L 360 0 
L 0 0 
z
" style="fill: #ffffff"/>
  </g>
  <g id="axes_1">
   <g id="patch_2">
    <path d="M 45 192.24 
L 324 192.24 
L 324 25.92 
L 45 25.92 
z
" style="fill: #ffffff"/>
   </g>
   <g id="FillBetweenPolyCollection_1">
    <defs>
     <path id="m45dec0800b" d="M 45 -106.92 
L 45 -106.92 
L 45.279 -108.661516 
L 45.558 -110.401931 
L 45.837 -112.140148 
L 46.116 -113.875067 
L 46.395 -115.605593 
L 46.674 -117.330633 
L 46.953 -119.049098 
L 47.232 -120.759902 
L 47.511 -122.461964 
L 47.79 -124.154209 
L 48.069 -125.835569 
L 48.348 -127.504982 
L 48.627 -129.161392 
L 48.906 -130.803755 
L 49.185 -132.431032 
L 49.464 -134.042195 
L 49.743 -135.636228 
L 50.022 -137.212123 
L 50.301 -138.768884 
L 50.58 -140.30553 
L 50.859 -141.821088 
L 51.138 -143.314602 
L 51.417 -144.785128 
L 51.696 -146.231738 
L 51.975 -147.653518 
L 52.254 -149.04957 
L 52.533 -150.419011 
L 52.812 -151.760978 
L 53.091 -153.074622 
L 53.37 -154.359114 
L 53.649 -155.613643 
L 53.928 -156.837415 
L 54.207 -158.029659 
L 54.486 -159.189621 
L 54.765 -160.316568 
L 55.044 -161.409788 
L 55.323 -162.468592 
L 55.602 -163.49231 
L 55.881 -164.480296 
L 56.16 -165.431925 
L 56.439 -166.346597 
L 56.718 -167.223734 
L 56.997 -168.062782 
L 57.276 -168.863211 
L 57.555 -169.624515 
L 57.834 -170.346213 
L 58.113 -171.02785 
L 58.392 -171.668996 
L 58.671 -172.269244 
L 58.95 -172.828217 
L 59.229 -173.34556 
L 59.508 -173.820948 
L 59.787 -174.254079 
L 60.066 -174.644681 
L 60.345 -174.992506 
L 60.624 -175.297336 
L 60.903 -175.558977 
L 61.182 -175.777264 
L 61.461 -175.952059 
L 61.74 -176.083252 
L 62.019 -176.17076 
L 62.298 -176.214528 
L 62.577 -176.214528 
L 62.856 -176.17076 
L 63.135 -176.083252 
L 63.414 -175.952059 
L 63.693 -175.777264 
L 63.972 -175.558977 
L 64.251 -175.297336 
L 64.53 -174.992506 
L 64.809 -174.644681 
L 65.088 -174.254079 
L 65.367 -173.820948 
L 65.646 -173.34556 
L 65.925 -172.828217 
L 66.204 -172.269244 
L 66.483 -171.668996 
L 66.762 -171.02785 
L 67.041 -170.346213 
L 67.32 -169.624515 
L 67.599 -168.863211 
L 67.878 -168.062782 
L 68.157 -167.223734 
L 68.436 -166.346597 
L 68.715 -165.431925 
L 68.994 -164.480296 
L 69.273 -163.49231 
L 69.552 -162.468592 
L 69.831 -161.409788 
L 70.11 -160.316568 
L 70.389 -159.189621 
L 70.668 -158.029659 
L 70.947 -156.837415 
L 71.226 -155.613643 
L 71.505 -154.359114 
L 71.784 -153.074622 
L 72.063 -151.760978 
L 72.342 -150.419011 
L 72.621 -149.04957 
L 72.9 -147.653518 
L 73.179 -146.231738 
L 73.458 -144.785128 
L 73.737 -143.314602 
L 74.016 -141.821088 
L 74.295 -140.30553 
L 74.574 -138.768884 
L 74.853 -137.212123 
L 75.132 -135.636228 
L 75.411 -134.042195 
L 75.69 -132.431032 
L 75.969 -130.803755 
L 76.248 -129.161392 
L 76.527 -127.504982 
L 76.806 -125.835569 
L 77.085 -124.154209 
L 77.364 -122.461964 
L 77.643 -120.759902 
L 77.922 -119.049098 
L 78.201 -117.330633 
L 78.48 -115.605593 
L 78.759 -113.875067 
L 79.038 -112.140148 
L 79.317 -110.401931 
L 79.596 -108.661516 
L 79.875 -106.92 
L 80.154 -105.178484 
L 80.433 -103.438069 
L 80.712 -101.699852 
L 80.991 -99.964933 
L 81.27 -98.234407 
L 81.549 -96.509367 
L 81.828 -94.790902 
L 82.107 -93.080098 
L 82.386 -91.378036 
L 82.665 -89.685791 
L 82.944 -88.004431 
L 83.223 -86.335018 
L 83.502 -84.678608 
L 83.781 -83.036245 
L 84.06 -81.408968 
L 84.339 -79.797805 
L 84.618 -78.203772 
L 84.897 -76.627877 
L 85.176 -75.071116 
L 85.455 -73.53447 
L 85.734 -72.018912 
L 86.013 -70.525398 
L 86.292 -69.054872 
L 86.571 -67.608262 
L 86.85 -66.186482 
L 87.129 -64.79043 
L 87.408 -63.420989 
L 87.687 -62.079022 
L 87.966 -60.765378 
L 88.245 -59.480886 
L 88.524 -58.226357 
L 88.803 -57.002585 
L 89.082 -55.810341 
L 89.361 -54.650379 
L 89.64 -53.523432 
L 89.919 -52.430212 
L 90.198 -51.371408 
L 90.477 -50.34769 
L 90.756 -49.359704 
L 91.035 -48.408075 
L 91.314 -47.493403 
L 91.593 -46.616266 
L 91.872 -45.777218 
L 92.151 -44.976789 
L 92.43 -44.215485 
L 92.709 -43.493787 
L 92.988 -42.81215 
L 93.267 -42.171004 
L 93.546 -41.570756 
L 93.825 -41.011783 
L 94.104 -40.49444 
L 94.383 -40.019052 
L 94.662 -39.585921 
L 94.941 -39.195319 
L 95.22 -38.847494 
L 95.499 -38.542664 
L 95.778 -38.281023 
L 96.057 -38.062736 
L 96.336 -37.887941 
L 96.615 -37.756748 
L 96.894 -37.66924 
L 97.173 -37.625472 
L 97.452 -37.625472 
L 97.731 -37.66924 
L 98.01 -37.756748 
L 98.289 -37.887941 
L 98.568 -38.062736 
L 98.847 -38.281023 
L 99.126 -38.542664 
L 99.405 -38.847494 
L 99.684 -39.195319 
L 99.963 -39.585921 
L 100.242 -40.019052 
L 100.521 -40.49444 
L 100.8 -41.011783 
L 101.079 -41.570756 
L 101.358 -42.171004 
L 101.637 -42.81215 
L 101.916 -43.493787 
L 102.195 -44.215485 
L 102.474 -44.976789 
L 102.753 -45.777218 
L 103.032 -46.616266 
L 103.311 -47.493403 
L 103.59 -48.408075 
L 103.869 -49.359704 
L 104.148 -50.34769 
L 104.427 -51.371408 
L 104.706 -52.430212 
L 104.985 -53.523432 
L 105.264 -54.650379 
L 105.543 -55.810341 
L 105.822 -57.002585 
L 106.101 -58.226357 
L 106.38 -59.480886 
L 106.659 -60.765378 
L 106.938 -62.079022 
L 107.217 -63.420989 
L 107.496 -64.79043 
L 107.775 -66.186482 
L 108.054 -67.608262 
L 108.333 -69.054872 
L 108.612 -70.525398 
L 108.891 -72.018912 
L 109.17 -73.53447 
L 109.449 -75.071116 
L 109.728 -76.627877 
L 110.007 -78.203772 
L 110.286 -79.797805 
L 110.565 -81.408968 
L 110.844 -83.036245 
L 111.123 -84.678608 
L 111.402 -86.335018 
L 111.681 -88.004431 
L 111.96 -89.685791 
L 112.239 -91.378036 
L 112.518 -93.080098 
L 112.797 -94.790902 
L 113.076 -96.509367 
L 113.355 -98.234407 
L 113.634 -99.964933 
L 113.913 -101.699852 
L 114.192 -103.438069 
L 114.471 -105.178484 
L 114.75 -106.92 
L 115.029 -108.661516 
L 115.308 -110.401931 
L 115.587 -112.140148 
L 115.866 -113.875067 
L 116.145 -115.605593 
L 116.424 -117.330633 
L 116.703 -119.049098 
L 116.982 -120.759902 
L 117.261 -122.461964 
L 117.54 -124.154209 
L 117.819 -125.835569 
L 118.098 -127.504982 
L 118.377 -129.161392 
L 118.656 -130.803755 
L 118.935 -132.431032 
L 119.214 -134.042195 
L 119.493 -135.636228 
L 119.772 -137.212123 
L 120.051 -138.768884 
L 120.33 -140.30553 
L 120.609 -141.821088 
L 120.888 -143.314602 
L 121.167 -144.785128 
L 121.446 -146.231738 
L 121.725 -147.653518 
L 122.004 -149.04957 
L 122.283 -150.419011 
L 122.562 -151.760978 
L 122.841 -153.074622 
L 123.12 -154.359114 
L 123.399 -155.613643 
L 123.678 -156.837415 
L 123.957 -158.029659 
L 124.236 -159.189621 
L 124.515 -160.316568 
L 124.794 -161.409788 
L 125.073 -162.468592 
L 125.352 -163.49231 
L 125.631 -164.480296 
L 125.91 -165.431925 
L 126.189 -166.346597 
L 126.468 -167.223734 
L 126.747 -168.062782 
L 127.026 -168.863211 
L 127.305 -169.624515 
L 127.584 -170.346213 
L 127.863 -171.02785 
L 128.142 -171.668996 
L 128.421 -172.269244 
L 128.7 -172.828217 
L 128.979 -173.34556 
L 129.258 -173.820948 
L 129.537 -174.254079 
L 129.816 -174.644681 
L 130.095 -174.992506 
L 130.374 -175.297336 
L 130.653 -175.558977 
L 130.932 -175.777264 
L 131.211 -175.952059 
L 131.49 -176.083252 
L 131.769 -176.17076 
L 132.048 -176.214528 
L 132.327 -176.214528 
L 132.606 -176.17076 
L 132.885 -176.083252 
L 133.164 -175.952059 
L 133.443 -175.777264 
L 133.722 -175.558977 
L 134.001 -175.297336 
L 134.28 -174.992506 
L 134.559 -174.644681 
L 134.838 -174.254079 
L 135.117 -173.820948 
L 135.396 -173.34556 
L 135.675 -172.828217 
L 135.954 -172.269244 
L 136.233 -171.668996 
L 136.512 -171.02785 
L 136.791 -170.346213 
L 137.07 -169.624515 
L 137.349 -168.863211 
L 137.628 -168.062782 
L 137.907 -167.223734 
L 138.186 -166.346597 
L 138.465 -165.431925 
L 138.744 -164.480296 
L 139.023 -163.49231 
L 139.302 -162.468592 
L 139.581 -161.409788 
L 139.86 -160.316568 
L 140.139 -159.189621 
L 140.418 -158.029659 
L 140.697 -156.837415 
L 140.976 -155.613643 
L 141.255 -154.359114 
L 141.534 -153.074622 
L 141.813 -151.760978 
L 142.092 -150.419011 
L 142.371 -149.04957 
L 142.65 -147.653518 
L 142.929 -146.231738 
L 143.208 -144.785128 
L 143.487 -143.314602 
L 143.766 -141.821088 
L 144.045 -140.30553 
L 144.324 -138.768884 
L 144.603 -137.212123 
L 144.882 -135.636228 
L 145.161 -134.042195 
L 145.44 -132.431032 
L 145.719 -130.803755 
L 145.998 -129.161392 
L 146.277 -127.504982 
L 146.556 -125.835569 
L 146.835 -124.154209 
L 147.114 -122.461964 
L 147.393 -120.759902 
L 147.672 -119.049098 
L 147.951 -117.330633 
L 148.23 -115.605593 
L 148.509 -113.875067 
L 148.788 -112.140148 
L 149.067 -110.401931 
L 149.346 -108.661516 
L 149.625 -106.92 
L 149.904 -105.178484 
L 150.183 -103.438069 
L 150.462 -101.699852 
L 150.741 -99.964933 
L 151.02 -98.234407 
L 151.299 -96.509367 
L 151.578 -94.790902 
L 151.857 -93.080098 
L 152.136 -91.378036 
L 152.415 -89.685791 
L 152.694 -88.004431 
L 152.973 -86.335018 
L 153.252 -84.678608 
L 153.531 -83.036245 
L 153.81 -81.408968 
L 154.089 -79.797805 
L 154.368 -78.203772 
L 154.647 -76.627877 
L 154.926 -75.071116 
L 155.205 -73.53447 
L 155.484 -72.018912 
L 155.763 -70.525398 
L 156.042 -69.054872 
L 156.321 -67.608262 
L 156.6 -66.186482 
L 156.879 -64.79043 
L 157.158 -63.420989 
L 157.437 -62.079022 
L 157.716 -60.765378 
L 157.995 -59.480886 
L 158.274 -58.226357 
L 158.553 -57.002585 
L 158.832 -55.810341 
L 159.111 -54.650379 
L 159.39 -53.523432 
L 159.669 -52.430212 
L 159.948 -51.371408 
L 160.227 -50.34769 
L 160.506 -49.359704 
L 160.785 -48.408075 
L 161.064 -47.493403 
L 161.343 -46.616266 
L 161.622 -45.777218 
L 161.901 -44.976789 
L 162.18 -44.215485 
L 162.459 -43.493787 
L 162.738 -42.81215 
L 163.017 -42.171004 
L 163.296 -41.570756 
L 163.575 -41.011783 
L 163.854 -40.49444 
L 164.133 -40.019052 
L 164.412 -39.585921 
L 164.691 -39.195319 
L 164.97 -38.847494 
L 165.249 -38.542664 
L 165.528 -38.281023 
L 165.807 -38.062736 
L 166.086 -37.887941 
L 166.365 -37.756748 
L 166.644 -37.66924 
L 166.923 -37.625472 
L 167.202 -37.625472 
L 167.481 -37.66924 
L 167.76 -37.756748 
L 168.039 -37.887941 
L 168.318 -38.062736 
L 168.597 -38.281023 
L 168.876 -38.542664 
L 169.155 -38.847494 
L 169.434 -39.195319 
L 169.713 -39.585921 
L 169.992 -40.019052 
L 170.271 -40.49444 
L 170.55 -41.011783 
L 170.829 -41.570756 
L 171.108 -42.171004 
L 171.387 -42.81215 
L 171.666 -43.493787 
L 171.945 -44.215485 
L 172.224 -44.976789 
L 172.503 -45.777218 
L 172.782 -46.616266 
L 173.061 -47.493403 
L 173.34 -48.408075 
L 173.619 -49.359704 
L 173.898 -50.34769 
L 174.177 -51.371408 
L 174.456 -52.430212 
L 174.735 -53.523432 
L 175.014 -54.650379 
L 175.293 -55.810341 
L 175.572 -57.002585 
L 175.851 -58.226357 
L 176.13 -59.480886 
L 176.409 -60.765378 
L 176.688 -62.079022 
L 176.967 -63.420989 
L 177.246 -64.79043 
L 177.525 -66.186482 
L 177.804 -67.608262 
L 178.083 -69.054872 
L 178.362 -70.525398 
L 178.641 -72.018912 
L 178.92 -73.53447 
L 179.199 -75.071116 
L 179.478 -76.627877 
L 179.757 -78.203772 
L 180.036 -79.797805 
L 180.315 -81.408968 
L 180.594 -83.036245 
L 180.873 -84.678608 
L 181.152 -86.335018 
L 181.431 -88.004431 
L 181.71 -89.685791 
L 181.989 -91.378036 
L 182.268 -93.080098 
L 182.547 -94.790902 
L 182.826 -96.509367 
L 183.105 -98.234407 
L 183.384 -99.964933 
L 183.663 -101.699852 
L 183.942 -103.438069 
L 184.221 -105.178484 
L 184.5 -106.92 
L 184.779 -108.661516 
L 185.058 -110.401931 
L 185.337 -112.140148 
L 185.616 -113.875067 
L 185.895 -115.605593 
L 186.174 -117.330633 
L 186.453 -119.049098 
L 186.732 -120.759902 
L 187.011 -122.461964 
L 187.29 -124.154209 
L 187.569 -125.835569 
L 187.848 -127.504982 
L 188.127 -129.161392 
L 188.406 -130.803755 
L 188.685 -132.431032 
L 188.964 -134.042195 
L 189.243 -135.636228 
L 189.522 -137.212123 
L 189.801 -138.768884 
L 190.08 -140.30553 
L 190.359 -141.821088 
L 190.638 -143.314602 
L 190.917 -144.785128 
L 191.196 -146.231738 
L 191.475 -147.653518 
L 191.754 -149.04957 
L 192.033 -150.419011 
L 192.312 -151.760978 
L 192.591 -153.074622 
L 192.87 -154.359114 
L 193.149 -155.613643 
L 193.428 -156.837415 
L 193.707 -158.029659 
L 193.986 -159.189621 
L 194.265 -160.316568 
L 194.544 -161.409788 
L 194.823 -162.468592 
L 195.102 -163.49231 
L 195.381 -164.480296 
L 195.66 -165.431925 
L 195.939 -166.346597 
L 196.218 -167.223734 
L 196.497 -168.062782 
L 196.776 -168.863211 
L 197.055 -169.624515 
L 197.334 -170.346213 
L 197.613 -171.02785 
L 197.892 -171.668996 
L 198.171 -172.269244 
L 198.45 -172.828217 
L 198.729 -173.34556 
L 199.008 -173.820948 
L 199.287 -174.254079 
L 199.566 -174.644681 
L 199.845 -174.992506 
L 200.124 -175.297336 
L 200.403 -175.558977 
L 200.682 -175.777264 
L 200.961 -175.952059 
L 201.24 -176.083252 
L 201.519 -176.17076 
L 201.798 -176.214528 
L 202.077 -176.214528 
L 202.356 -176.17076 
L 202.635 -176.083252 
L 202.914 -175.952059 
L 203.193 -175.777264 
L 203.472 -175.558977 
L 203.751 -175.297336 
L 204.03 -174.992506 
L 204.309 -174.644681 
L 204.588 -174.254079 
L 204.867 -173.820948 
L 205.146 -173.34556 
L 205.425 -172.828217 
L 205.704 -172.269244 
L 205.983 -171.668996 
L 206.262 -171.02785 
L 206.541 -170.346213 
L 206.82 -169.624515 
L 207.099 -168.863211 
L 207.378 -168.062782 
L 207.657 -167.223734 
L 207.936 -166.346597 
L 208.215 -165.431925 
L 208.494 -164.480296 
L 208.773 -163.49231 
L 209.052 -162.468592 
L 209.331 -161.409788 
L 209.61 -160.316568 
L 209.889 -159.189621 
L 210.168 -158.029659 
L 210.447 -156.837415 
L 210.726 -155.613643 
L 211.005 -154.359114 
L 211.284 -153.074622 
L 211.563 -151.760978 
L 211.842 -150.419011 
L 212.121 -149.04957 
L 212.4 -147.653518 
L 212.679 -146.231738 
L 212.958 -144.785128 
L 213.237 -143.314602 
L 213.516 -141.821088 
L 213.795 -140.30553 
L 214.074 -138.768884 
L 214.353 -137.212123 
L 214.632 -135.636228 
L 214.911 -134.042195 
L 215.19 -132.431032 
L 215.469 -130.803755 
L 215.748 -129.161392 
L 216.027 -127.504982 
L 216.306 -125.835569 
L 216.585 -124.154209 
L 216.864 -122.461964 
L 217.143 -120.759902 
L 217.422 -119.049098 
L 217.701 -117.330633 
L 217.98 -115.605593 
L 218.259 -113.875067 
L 218.538 -112.140148 
L 218.817 -110.401931 
L 219.096 -108.661516 
L 219.375 -106.92 
L 219.654 -105.178484 
L 219.933 -103.438069 
L 220.212 -101.699852 
L 220.491 -99.964933 
L 220.77 -98.234407 
L 221.049 -96.509367 
L 221.328 -94.790902 
L 221.607 -93.080098 
L 221.886 -91.378036 
L 222.165 -89.685791 
L 222.444 -88.004431 
L 222.723 -86.335018 
L 223.002 -84.678608 
L 223.281 -83.036245 
L 223.56 -81.408968 
L 223.839 -79.797805 
L 224.118 -78.203772 
L 224.397 -76.627877 
L 224.676 -75.071116 
L 224.955 -73.53447 
L 225.234 -72.018912 
L 225.513 -70.525398 
L 225.792 -69.054872 
L 226.071 -67.608262 
L 226.35 -66.186482 
L 226.629 -64.79043 
L 226.908 -63.420989 
L 227.187 -62.079022 
L 227.466 -60.765378 
L 227.745 -59.480886 
L 228.024 -58.226357 
L 228.303 -57.002585 
L 228.582 -55.810341 
L 228.861 -54.650379 
L 229.14 -53.523432 
L 229.419 -52.430212 
L 229.698 -51.371408 
L 229.977 -50.34769 
L 230.256 -49.359704 
L 230.535 -48.408075 
L 230.814 -47.493403 
L 231.093 -46.616266 
L 231.372 -45.777218 
L 231.651 -44.976789 
L 231.93 -44.215485 
L 232.209 -43.493787 
L 232.488 -42.81215 
L 232.767 -42.171004 
L 233.046 -41.570756 
L 233.325 -41.011783 
L 233.604 -40.49444 
L 233.883 -40.019052 
L 234.162 -39.585921 
L 234.441 -39.195319 
L 234.72 -38.847494 
L 234.999 -38.542664 
L 235.278 -38.281023 
L 235.557 -38.062736 
L 235.836 -37.887941 
L 236.115 -37.756748 
L 236.394 -37.66924 
L 236.673 -37.625472 
L 236.952 -37.625472 
L 237.231 -37.66924 
L 237.51 -37.756748 
L 237.789 -37.887941 
L 238.068 -38.062736 
L 238.347 -38.281023 
L 238.626 -38.542664 
L 238.905 -38.847494 
L 239.184 -39.195319 
L 239.463 -39.585921 
L 239.742 -40.019052 
L 240.021 -40.49444 
L 240.3 -41.011783 
L 240.579 -41.570756 
L 240.858 -42.171004 
L 241.137 -42.81215 
L 241.416 -43.493787 
L 241.695 -44.215485 
L 241.974 -44.976789 
L 242.253 -45.777218 
L 242.532 -46.616266 
L 242.811 -47.493403 
L 243.09 -48.408075 
L 243.369 -49.359704 
L 243.648 -50.34769 
L 243.927 -51.371408 
L 244.206 -52.430212 
L 244.485 -53.523432 
L 244.764 -54.650379 
L 245.043 -55.810341 
L 245.322 -57.002585 
L 245.601 -58.226357 
L 245.88 -59.480886 
L 246.159 -60.765378 
L 246.438 -62.079022 
L 246.717 -63.420989 
L 246.996 -64.79043 
L 247.275 -66.186482 
L 247.554 -67.608262 
L 247.833 -69.054872 
L 248.112 -70.525398 
L 248.391 -72.018912 
L 248.67 -73.53447 
L 248.949 -75.071116 
L 249.228 -76.627877 
L 249.507 -78.203772 
L 249.786 -79.797805 
L 250.065 -81.408968 
L 250.344 -83.036245 
L 250.623 -84.678608 
L 250.902 -86.335018 
L 251.181 -88.004431 
L 251.46 -89.685791 
L 251.739 -91.378036 
L 252.018 -93.080098 
L 252.297 -94.790902 
L 252.576 -96.509367 
L 252.855 -98.234407 
L 253.134 -99.964933 
L 253.413 -101.699852 
L 253.692 -103.438069 
L 253.971 -105.178484 
L 254.25 -106.92 
L 254.529 -108.661516 
L 254.808 -110.401931 
L 255.087 -112.140148 
L 255.366 -113.875067 
L 255.645 -115.605593 
L 255.924 -117.330633 
L 256.203 -119.049098 
L 256.482 -120.759902 
L 256.761 -122.461964 
L 257.04 -124.154209 
L 257.319 -125.835569 
L 257.598 -127.504982 
L 257.877 -129.161392 
L 258.156 -130.803755 
L 258.435 -132.431032 
L 258.714 -134.042195 
L 258.993 -135.636228 
L 259.272 -137.212123 
L 259.551 -138.768884 
L 259.83 -140.30553 
L 260.109 -141.821088 
L 260.388 -143.314602 
L 260.667 -144.785128 
L 260.946 -146.231738 
L 261.225 -147.653518 
L 261.504 -149.04957 
L 261.783 -150.419011 
L 262.062 -151.760978 
L 262.341 -153.074622 
L 262.62 -154.359114 
L 262.899 -155.613643 
L 263.178 -156.837415 
L 263.457 -158.029659 
L 263.736 -159.189621 
L 264.015 -160.316568 
L 264.294 -161.409788 
L 264.573 -162.468592 
L 264.852 -163.49231 
L 265.131 -164.480296 
L 265.41 -165.431925 
L 265.689 -166.346597 
L 265.968 -167.223734 
L 266.247 -168.062782 
L 266.526 -168.863211 
L 266.805 -169.624515 
L 267.084 -170.346213 
L 267.363 -171.02785 
L 267.642 -171.668996 
L 267.921 -172.269244 
L 268.2 -172.828217 
L 268.479 -173.34556 
L 268.758 -173.820948 
L 269.037 -174.254079 
L 269.316 -174.644681 
L 269.595 -174.992506 
L 269.874 -175.297336 
L 270.153 -175.558977 
L 270.432 -175.777264 
L 270.711 -175.952059 
L 270.99 -176.083252 
L 271.269 -176.17076 
L 271.548 -176.214528 
L 271.827 -176.214528 
L 272.106 -176.17076 
L 272.385 -176.083252 
L 272.664 -175.952059 
L 272.943 -175.777264 
L 273.222 -175.558977 
L 273.501 -175.297336 
L 273.78 -174.992506 
L 274.059 -174.644681 
L 274.338 -174.254079 
L 274.617 -173.820948 
L 274.896 -173.34556 
L 275.175 -172.828217 
L 275.454 -172.269244 
L 275.733 -171.668996 
L 276.012 -171.02785 
L 276.291 -170.346213 
L 276.57 -169.624515 
L 276.849 -168.863211 
L 277.128 -168.062782 
L 277.407 -167.223734 
L 277.686 -166.346597 
L 277.965 -165.431925 
L 278.244 -164.480296 
L 278.523 -163.49231 
L 278.802 -162.468592 
L 279.081 -161.409788 
L 279.36 -160.316568 
L 279.639 -159.189621 
L 279.918 -158.029659 
L 280.197 -156.837415 
L 280.476 -155.613643 
L 280.755 -154.359114 
L 281.034 -153.074622 
L 281.313 -151.760978 
L 281.592 -150.419011 
L 281.871 -149.04957 
L 282.15 -147.653518 
L 282.429 -146.231738 
L 282.708 -144.785128 
L 282.987 -143.314602 
L 283.266 -141.821088 
L 283.545 -140.30553 
L 283.824 -138.768884 
L 284.103 -137.212123 
L 284.382 -135.636228 
L 284.661 -134.042195 
L 284.94 -132.431032 
L 285.219 -130.803755 
L 285.498 -129.161392 
L 285.777 -127.504982 
L 286.056 -125.835569 
L 286.335 -124.154209 
L 286.614 -122.461964 
L 286.893 -120.759902 
L 287.172 -119.049098 
L 287.451 -117.330633 
L 287.73 -115.605593 
L 288.009 -113.875067 
L 288.288 -112.140148 
L 288.567 -110.401931 
L 288.846 -108.661516 
L 289.125 -106.92 
L 289.404 -105.178484 
L 289.683 -103.438069 
L 289.962 -101.699852 
L 290.241 -99.964933 
L 290.52 -98.234407 
L 290.799 -96.509367 
L 291.078 -94.790902 
L 291.357 -93.080098 
L 291.636 -91.378036 
L 291.915 -89.685791 
L 292.194 -88.004431 
L 292.473 -86.335018 
L 292.752 -84.678608 
L 293.031 -83.036245 
L 293.31 -81.408968 
L 293.589 -79.797805 
L 293.868 -78.203772 
L 294.147 -76.627877 
L 294.426 -75.071116 
L 294.705 -73.53447 
L 294.984 -72.018912 
L 295.263 -70.525398 
L 295.542 -69.054872 
L 295.821 -67.608262 
L 296.1 -66.186482 
L 296.379 -64.79043 
L 296.658 -63.420989 
L 296.937 -62.079022 
L 297.216 -60.765378 
L 297.495 -59.480886 
L 297.774 -58.226357 
L 298.053 -57.002585 
L 298.332 -55.810341 
L 298.611 -54.650379 
L 298.89 -53.523432 
L 299.169 -52.430212 
L 299.448 -51.371408 
L 299.727 -50.34769 
L 300.006 -49.359704 
L 300.285 -48.408075 
L 300.564 -47.493403 
L 300.843 -46.616266 
L 301.122 -45.777218 
L 301.401 -44.976789 
L 301.68 -44.215485 
L 301.959 -43.493787 
L 302.238 -42.81215 
L 302.517 -42.171004 
L 302.796 -41.570756 
L 303.075 -41.011783 
L 303.354 -40.49444 
L 303.633 -40.019052 
L 303.912 -39.585921 
L 304.191 -39.195319 
L 304.47 -38.847494 
L 304.749 -38.542664 
L 305.028 -38.281023 
L 305.307 -38.062736 
L 305.586 -37.887941 
L 305.865 -37.756748 
L 306.144 -37.66924 
L 306.423 -37.625472 
L 306.702 -37.625472 
L 306.981 -37.66924 
L 307.26 -37.756748 
L 307.539 -37.887941 
L 307.818 -38.062736 
L 308.097 -38.281023 
L 308.376 -38.542664 
L 308.655 -38.847494 
L 308.934 -39.195319 
L 309.213 -39.585921 
L 309.492 -40.019052 
L 309.771 -40.49444 
L 310.05 -41.011783 
L 310.329 -41.570756 
L 310.608 -42.171004 
L 310.887 -42.81215 
L 311.166 -43.493787 
L 311.445 -44.215485 
L 311.724 -44.976789 
L 312.003 -45.777218 
L 312.282 -46.616266 
L 312.561 -47.493403 
L 312.84 -48.408075 
L 313.119 -49.359704 
L 313.398 -50.34769 
L 313.677 -51.371408 
L 313.956 -52.430212 
L 314.235 -53.523432 
L 314.514 -54.650379 
L 314.793 -55.810341 
L 315.072 -57.002585 
L 315.351 -58.226357 
L 315.63 -59.480886 
L 315.909 -60.765378 
L 316.188 -62.079022 
L 316.467 -63.420989 
L 316.746 -64.79043 
L 317.025 -66.186482 
L 317.304 -67.608262 
L 317.583 -69.054872 
L 317.862 -70.525398 
L 318.141 -72.018912 
L 318.42 -73.53447 
L 318.699 -75.071116 
L 318.978 -76.627877 
L 319.257 -78.203772 
L 319.536 -79.797805 
L 319.815 -81.408968 
L 320.094 -83.036245 
L 320.373 -84.678608 
L 320.652 -86.335018 
L 320.931 -88.004431 
L 321.21 -89.685791 
L 321.489 -91.378036 
L 321.768 -93.080098 
L 322.047 -94.790902 
L 322.326 -96.509367 
L 322.605 -98.234407 
L 322.884 -99.964933 
L 323.163 -101.699852 
L 323.442 -103.438069 
L 323.721 -105.178484 
L 324 -106.92 
L 324 -106.92 
L 324 -106.92 
L 323.721 -106.049173 
L 323.442 -105.178484 
L 323.163 -104.30807 
L 322.884 -103.438069 
L 322.605 -102.568617 
L 322.326 -101.699852 
L 322.047 -100.831912 
L 321.768 -99.964933 
L 321.489 -99.099053 
L 321.21 -98.234407 
L 320.931 -97.371133 
L 320.652 -96.509367 
L 320.373 -95.649244 
L 320.094 -94.790902 
L 319.815 -93.934475 
L 319.536 -93.080098 
L 319.257 -92.227907 
L 318.978 -91.378036 
L 318.699 -90.53062 
L 318.42 -89.685791 
L 318.141 -88.843684 
L 317.862 -88.004431 
L 317.583 -87.168165 
L 317.304 -86.335018 
L 317.025 -85.505122 
L 316.746 -84.678608 
L 316.467 -83.855606 
L 316.188 -83.036245 
L 315.909 -82.220657 
L 315.63 -81.408968 
L 315.351 -80.601309 
L 315.072 -79.797805 
L 314.793 -78.998584 
L 314.514 -78.203772 
L 314.235 -77.413495 
L 313.956 -76.627877 
L 313.677 -75.847043 
L 313.398 -75.071116 
L 313.119 -74.300218 
L 312.84 -73.53447 
L 312.561 -72.773995 
L 312.282 -72.018912 
L 312.003 -71.26934 
L 311.724 -70.525398 
L 311.445 -69.787203 
L 311.166 -69.054872 
L 310.887 -68.32852 
L 310.608 -67.608262 
L 310.329 -66.894212 
L 310.05 -66.186482 
L 309.771 -65.485185 
L 309.492 -64.79043 
L 309.213 -64.102329 
L 308.934 -63.420989 
L 308.655 -62.746518 
L 308.376 -62.079022 
L 308.097 -61.418607 
L 307.818 -60.765378 
L 307.539 -60.119436 
L 307.26 -59.480886 
L 306.981 -58.849826 
L 306.702 -58.226357 
L 306.423 -57.610578 
L 306.144 -57.002585 
L 305.865 -56.402474 
L 305.586 -55.810341 
L 305.307 -55.226279 
L 305.028 -54.650379 
L 304.749 -54.082734 
L 304.47 -53.523432 
L 304.191 -52.972563 
L 303.912 -52.430212 
L 303.633 -51.896465 
L 303.354 -51.371408 
L 303.075 -50.855122 
L 302.796 -50.34769 
L 302.517 -49.849191 
L 302.238 -49.359704 
L 301.959 -48.879307 
L 301.68 -48.408075 
L 301.401 -47.946082 
L 301.122 -47.493403 
L 300.843 -47.050107 
L 300.564 -46.616266 
L 300.285 -46.191947 
L 300.006 -45.777218 
L 299.727 -45.372144 
L 299.448 -44.976789 
L 299.169 -44.591216 
L 298.89 -44.215485 
L 298.611 -43.849656 
L 298.332 -43.493787 
L 298.053 -43.147933 
L 297.774 -42.81215 
L 297.495 -42.48649 
L 297.216 -42.171004 
L 296.937 -41.865744 
L 296.658 -41.570756 
L 296.379 -41.286087 
L 296.1 -41.011783 
L 295.821 -40.747887 
L 295.542 -40.49444 
L 295.263 -40.251482 
L 294.984 -40.019052 
L 294.705 -39.797187 
L 294.426 -39.585921 
L 294.147 -39.385288 
L 293.868 -39.195319 
L 293.589 -39.016045 
L 293.31 -38.847494 
L 293.031 -38.689692 
L 292.752 -38.542664 
L 292.473 -38.406434 
L 292.194 -38.281023 
L 291.915 -38.166451 
L 291.636 -38.062736 
L 291.357 -37.969895 
L 291.078 -37.887941 
L 290.799 -37.816888 
L 290.52 -37.756748 
L 290.241 -37.707529 
L 289.962 -37.66924 
L 289.683 -37.641886 
L 289.404 -37.625472 
L 289.125 -37.62 
L 288.846 -37.625472 
L 288.567 -37.641886 
L 288.288 -37.66924 
L 288.009 -37.707529 
L 287.73 -37.756748 
L 287.451 -37.816888 
L 287.172 -37.887941 
L 286.893 -37.969895 
L 286.614 -38.062736 
L 286.335 -38.166451 
L 286.056 -38.281023 
L 285.777 -38.406434 
L 285.498 -38.542664 
L 285.219 -38.689692 
L 284.94 -38.847494 
L 284.661 -39.016045 
L 284.382 -39.195319 
L 284.103 -39.385288 
L 283.824 -39.585921 
L 283.545 -39.797187 
L 283.266 -40.019052 
L 282.987 -40.251482 
L 282.708 -40.49444 
L 282.429 -40.747887 
L 282.15 -41.011783 
L 281.871 -41.286087 
L 281.592 -41.570756 
L 281.313 -41.865744 
L 281.034 -42.171004 
L 280.755 -42.48649 
L 280.476 -42.81215 
L 280.197 -43.147933 
L 279.918 -43.493787 
L 279.639 -43.849656 
L 279.36 -44.215485 
L 279.081 -44.591216 
L 278.802 -44.976789 
L 278.523 -45.372144 
L 278.244 -45.777218 
L 277.965 -46.191947 
L 277.686 -46.616266 
L 277.407 -47.050107 
L 277.128 -47.493403 
L 276.849 -47.946082 
L 276.57 -48.408075 
L 276.291 -48.879307 
L 276.012 -49.359704 
L 275.733 -49.849191 
L 275.454 -50.34769 
L 275.175 -50.855122 
L 274.896 -51.371408 
L 274.617 -51.896465 
L 274.338 -52.430212 
L 274.059 -52.972563 
L 273.78 -53.523432 
L 273.501 -54.082734 
L 273.222 -54.650379 
L 272.943 -55.226279 
L 272.664 -55.810341 
L 272.385 -56.402474 
L 272.106 -57.002585 
L 271.827 -57.610578 
L 271.548 -58.226357 
L 271.269 -58.849826 
L 270.99 -59.480886 
L 270.711 -60.119436 
L 270.432 -60.765378 
L 270.153 -61.418607 
L 269.874 -62.079022 
L 269.595 -62.746518 
L 269.316 -63.420989 
L 269.037 -64.102329 
L 268.758 -64.79043 
L 268.479 -65.485185 
L 268.2 -66.186482 
L 267.921 -66.894212 
L 267.642 -67.608262 
L 267.363 -68.32852 
L 267.084 -69.054872 
L 266.805 -69.787203 
L 266.526 -70.525398 
L 266.247 -71.26934 
L 265.968 -72.018912 
L 265.689 -72.773995 
L 265.41 -73.53447 
L 265.131 -74.300218 
L 264.852 -75.071116 
L 264.573 -75.847043 
L 264.294 -76.627877 
L 264.015 -77.413495 
L 263.736 -78.203772 
L 263.457 -78.998584 
L 263.178 -79.797805 
L 262.899 -80.601309 
L 262.62 -81.408968 
L 262.341 -82.220657 
L 262.062 -83.036245 
L 261.783 -83.855606 
L 261.504 -84.678608 
L 261.225 -85.505122 
L 260.946 -86.335018 
L 260.667 -87.168165 
L 260.388 -88.004431 
L 260.109 -88.843684 
L 259.83 -89.685791 
L 259.551 -90.53062 
L 259.272 -91.378036 
L 258.993 -92.227907 
L 258.714 -93.080098 
L 258.435 -93.934475 
L 258.156 -94.790902 
L 257.877 -95.649244 
L 257.598 -96.509367 
L 257.319 -97.371133 
L 257.04 -98.234407 
L 256.761 -99.099053 
L 256.482 -99.964933 
L 256.203 -100.831912 
L 255.924 -101.699852 
L 255.645 -102.568617 
L 255.366 -103.438069 
L 255.087 -104.30807 
L 254.808 -105.178484 
L 254.529 -106.049173 
L 254.25 -106.92 
L 253.971 -107.790827 
L 253.692 -108.661516 
L 253.413 -109.53193 
L 253.134 -110.401931 
L 252.855 -111.271383 
L 252.576 -112.140148 
L 252.297 -113.008088 
L 252.018 -113.875067 
L 251.739 -114.740947 
L 251.46 -115.605593 
L 251.181 -116.468867 
L 250.902 -117.330633 
L 250.623 -118.190756 
L 250.344 -119.049098 
L 250.065 -119.905525 
L 249.786 -120.759902 
L 249.507 -121.612093 
L 249.228 -122.461964 
L 248.949 -123.30938 
L 248.67 -124.154209 
L 248.391 -124.996316 
L 248.112 -125.835569 
L 247.833 -126.671835 
L 247.554 -127.504982 
L 247.275 -128.334878 
L 246.996 -129.161392 
L 246.717 -129.984394 
L 246.438 -130.803755 
L 246.159 -131.619343 
L 245.88 -132.431032 
L 245.601 -133.238691 
L 245.322 -134.042195 
L 245.043 -134.841416 
L 244.764 -135.636228 
L 244.485 -136.426505 
L 244.206 -137.212123 
L 243.927 -137.992957 
L 243.648 -138.768884 
L 243.369 -139.539782 
L 243.09 -140.30553 
L 242.811 -141.066005 
L 242.532 -141.821088 
L 242.253 -142.57066 
L 241.974 -143.314602 
L 241.695 -144.052797 
L 241.416 -144.785128 
L 241.137 -145.51148 
L 240.858 -146.231738 
L 240.579 -146.945788 
L 240.3 -147.653518 
L 240.021 -148.354815 
L 239.742 -149.04957 
L 239.463 -149.737671 
L 239.184 -150.419011 
L 238.905 -151.093482 
L 238.626 -151.760978 
L 238.347 -152.421393 
L 238.068 -153.074622 
L 237.789 -153.720564 
L 237.51 -154.359114 
L 237.231 -154.990174 
L 236.952 -155.613643 
L 236.673 -156.229422 
L 236.394 -156.837415 
L 236.115 -157.437526 
L 235.836 -158.029659 
L 235.557 -158.613721 
L 235.278 -159.189621 
L 234.999 -159.757266 
L 234.72 -160.316568 
L 234.441 -160.867437 
L 234.162 -161.409788 
L 233.883 -161.943535 
L 233.604 -162.468592 
L 233.325 -162.984878 
L 233.046 -163.49231 
L 232.767 -163.990809 
L 232.488 -164.480296 
L 232.209 -164.960693 
L 231.93 -165.431925 
L 231.651 -165.893918 
L 231.372 -166.346597 
L 231.093 -166.789893 
L 230.814 -167.223734 
L 230.535 -167.648053 
L 230.256 -168.062782 
L 229.977 -168.467856 
L 229.698 -168.863211 
L 229.419 -169.248784 
L 229.14 -169.624515 
L 228.861 -169.990344 
L 228.582 -170.346213 
L 228.303 -170.692067 
L 228.024 -171.02785 
L 227.745 -171.35351 
L 227.466 -171.668996 
L 227.187 -171.974256 
L 226.908 -172.269244 
L 226.629 -172.553913 
L 226.35 -172.828217 
L 226.071 -173.092113 
L 225.792 -173.34556 
L 225.513 -173.588518 
L 225.234 -173.820948 
L 224.955 -174.042813 
L 224.676 -174.254079 
L 224.397 -174.454712 
L 224.118 -174.644681 
L 223.839 -174.823955 
L 223.56 -174.992506 
L 223.281 -175.150308 
L 223.002 -175.297336 
L 222.723 -175.433566 
L 222.444 -175.558977 
L 222.165 -175.673549 
L 221.886 -175.777264 
L 221.607 -175.870105 
L 221.328 -175.952059 
L 221.049 -176.023112 
L 220.77 -176.083252 
L 220.491 -176.132471 
L 220.212 -176.17076 
L 219.933 -176.198114 
L 219.654 -176.214528 
L 219.375 -176.22 
L 219.096 -176.214528 
L 218.817 -176.198114 
L 218.538 -176.17076 
L 218.259 -176.132471 
L 217.98 -176.083252 
L 217.701 -176.023112 
L 217.422 -175.952059 
L 217.143 -175.870105 
L 216.864 -175.777264 
L 216.585 -175.673549 
L 216.306 -175.558977 
L 216.027 -175.433566 
L 215.748 -175.297336 
L 215.469 -175.150308 
L 215.19 -174.992506 
L 214.911 -174.823955 
L 214.632 -174.644681 
L 214.353 -174.454712 
L 214.074 -174.254079 
L 213.795 -174.042813 
L 213.516 -173.820948 
L 213.237 -173.588518 
L 212.958 -173.34556 
L 212.679 -173.092113 
L 212.4 -172.828217 
L 212.121 -172.553913 
L 211.842 -172.269244 
L 211.563 -171.974256 
L 211.284 -171.668996 
L 211.005 -171.35351 
L 210.726 -171.02785 
L 210.447 -170.692067 
L 210.168 -170.346213 
L 209.889 -169.990344 
L 209.61 -169.624515 
L 209.331 -169.248784 
L 209.052 -168.863211 
L 208.773 -168.467856 
L 208.494 -168.062782 
L 208.215 -167.648053 
L 207.936 -167.223734 
L 207.657 -166.789893 
L 207.378 -166.346597 
L 207.099 -165.893918 
L 206.82 -165.431925 
L 206.541 -164.960693 
L 206.262 -164.480296 
L 205.983 -163.990809 
L 205.704 -163.49231 
L 205.425 -162.984878 
L 205.146 -162.468592 
L 204.867 -161.943535 
L 204.588 -161.409788 
L 204.309 -160.867437 
L 204.03 -160.316568 
L 203.751 -159.757266 
L 203.472 -159.189621 
L 203.193 -158.613721 
L 202.914 -158.029659 
L 202.635 -157.437526 
L 202.356 -156.837415 
L 202.077 -156.229422 
L 201.798 -155.613643 
L 201.519 -154.990174 
L 201.24 -154.359114 
L 200.961 -153.720564 
L 200.682 -153.074622 
L 200.403 -152.421393 
L 200.124 -151.760978 
L 199.845 -151.093482 
L 199.566 -150.419011 
L 199.287 -149.737671 
L 199.008 -149.04957 
L 198.729 -148.354815 
L 198.45 -147.653518 
L 198.171 -146.945788 
L 197.892 -146.231738 
L 197.613 -145.51148 
L 197.334 -144.785128 
L 197.055 -144.052797 
L 196.776 -143.314602 
L 196.497 -142.57066 
L 196.218 -141.821088 
L 195.939 -141.066005 
L 195.66 -140.30553 
L 195.381 -139.539782 
L 195.102 -138.768884 
L 194.823 -137.992957 
L 194.544 -137.212123 
L 194.265 -136.426505 
L 193.986 -135.636228 
L 193.707 -134.841416 
L 193.428 -134.042195 
L 193.149 -133.238691 
L 192.87 -132.431032 
L 192.591 -131.619343 
L 192.312 -130.803755 
L 192.033 -129.984394 
L 191.754 -129.161392 
L 191.475 -128.334878 
L 191.196 -127.504982 
L 190.917 -126.671835 
L 190.638 -125.835569 
L 190.359 -124.996316 
L 190.08 -124.154209 
L 189.801 -123.30938 
L 189.522 -122.461964 
L 189.243 -121.612093 
L 188.964 -120.759902 
L 188.685 -119.905525 
L 188.406 -119.049098 
L 188.127 -118.190756 
L 187.848 -117.330633 
L 187.569 -116.468867 
L 187.29 -115.605593 
L 187.011 -114.740947 
L 186.732 -113.875067 
L 186.453 -113.008088 
L 186.174 -112.140148 
L 185.895 -111.271383 
L 185.616 -110.401931 
L 185.337 -109.53193 
L 185.058 -108.661516 
L 184.779 -107.790827 
L 184.5 -106.92 
L 184.221 -106.049173 
L 183.942 -105.178484 
L 183.663 -104.30807 
L 183.384 -103.438069 
L 183.105 -102.568617 
L 182.826 -101.699852 
L 182.547 -100.831912 
L 182.268 -99.964933 
L 181.989 -99.099053 
L 181.71 -98.234407 
L 181.431 -97.371133 
L 181.152 -96.509367 
L 180.873 -95.649244 
L 180.594 -94.790902 
L 180.315 -93.934475 
L 180.036 -93.080098 
L 179.757 -92.227907 
L 179.478 -91.378036 
L 179.199 -90.53062 
L 178.92 -89.685791 
L 178.641 -88.843684 
L 178.362 -88.004431 
L 178.083 -87.168165 
L 177.804 -86.335018 
L 177.525 -85.505122 
L 177.246 -84.678608 
L 176.967 -83.855606 
L 176.688 -83.036245 
L 176.409 -82.220657 
L 176.13 -81.408968 
L 175.851 -80.601309 
L 175.572 -79.797805 
L 175.293 -78.998584 
L 175.014 -78.203772 
L 174.735 -77.413495 
L 174.456 -76.627877 
L 174.177 -75.847043 
L 173.898 -75.071116 
L 173.619 -74.300218 
L 173.34 -73.53447 
L 173.061 -72.773995 
L 172.782 -72.018912 
L 172.503 -71.26934 
L 172.224 -70.525398 
L 171.945 -69.787203 
L 171.666 -69.054872 
L 171.387 -68.32852 
L 171.108 -67.608262 
L 170.829 -66.894212 
L 170.55 -66.186482 
L 170.271 -65.485185 
L 169.992 -64.79043 
L 169.713 -64.102329 
L 169.434 -63.420989 
L 169.155 -62.746518 
L 168.876 -62.079022 
L 168.597 -61.418607 
L 168.318 -60.765378 
L 168.039 -60.119436 
L 167.76 -59.480886 
L 167.481 -58.849826 
L 167.202 -58.226357 
L 166.923 -57.610578 
L 166.644 -57.002585 
L 166.365 -56.402474 
L 166.086 -55.810341 
L 165.807 -55.226279 
L 165.528 -54.650379 
L 165.249 -54.082734 
L 164.97 -53.523432 
L 164.691 -52.972563 
L 164.412 -52.430212 
L 164.133 -51.896465 
L 163.854 -51.371408 
L 163.575 -50.855122 
L 163.296 -50.34769 
L 163.017 -49.849191 
L 162.738 -49.359704 
L 162.459 -48.879307 
L 162.18 -48.408075 
L 161.901 -47.946082 
L 161.622 -47.493403 
L 161.343 -47.050107 
L 161.064 -46.616266 
L 160.785 -46.191947 
L 160.506 -45.777218 
L 160.227 -45.372144 
L 159.948 -44.976789 
L 159.669 -44.591216 
L 159.39 -44.215485 
L 159.111 -43.849656 
L 158.832 -43.493787 
L 158.553 -43.147933 
L 158.274 -42.81215 
L 157.995 -42.48649 
L 157.716 -42.171004 
L 157.437 -41.865744 
L 157.158 -41.570756 
L 156.879 -41.286087 
L 156.6 -41.011783 
L 156.321 -40.747887 
L 156.042 -40.49444 
L 155.763 -40.251482 
L 155.484 -40.019052 
L 155.205 -39.797187 
L 154.926 -39.585921 
L 154.647 -39.385288 
L 154.368 -39.195319 
L 154.089 -39.016045 
L 153.81 -38.847494 
L 153.531 -38.689692 
L 153.252 -38.542664 
L 152.973 -38.406434 
L 152.694 -38.281023 
L 152.415 -38.166451 
L 152.136 -38.062736 
L 151.857 -37.969895 
L 151.578 -37.887941 
L 151.299 -37.816888 
L 151.02 -37.756748 
L 150.741 -37.707529 
L 150.462 -37.66924 
L 150.183 -37.641886 
L 149.904 -37.625472 
L 149.625 -37.62 
L 149.346 -37.625472 
L 149.067 -37.641886 
L 148.788 -37.66924 
L 148.509 -37.707529 
L 148.23 -37.756748 
L 147.951 -37.816888 
L 147.672 -37.887941 
L 147.393 -37.969895 
L 147.114 -38.062736 
L 146.835 -38.166451 
L 146.556 -38.281023 
L 146.277 -38.406434 
L 145.998 -38.542664 
L 145.719 -38.689692 
L 145.44 -38.847494 
L 145.161 -39.016045 
L 144.882 -39.195319 
L 144.603 -39.385288 
L 144.324 -39.585921 
L 144.045 -39.797187 
L 143.766 -40.019052 
L 143.487 -40.251482 
L 143.208 -40.49444 
L 142.929 -40.747887 
L 142.65 -41.011783 
L 142.371 -41.286087 
L 142.092 -41.570756 
L 141.813 -41.865744 
L 141.534 -42.171004 
L 141.255 -42.48649 
L 140.976 -42.81215 
L 140.697 -43.147933 
L 140.418 -43.493787 
L 140.139 -43.849656 
L 139.86 -44.215485 
L 139.581 -44.591216 
L 139.302 -44.976789 
L 139.023 -45.372144 
L 138.744 -45.777218 
L 138.465 -46.191947 
L 138.186 -46.616266 
L 137.907 -47.050107 
L 137.628 -47.493403 
L 137.349 -47.946082 
L 137.07 -48.408075 
L 136.791 -48.879307 
L 136.512 -49.359704 
L 136.233 -49.849191 
L 135.954 -50.34769 
L 135.675 -50.855122 
L 135.396 -51.371408 
L 135.117 -51.896465 
L 134.838 -52.430212 
L 134.559 -52.972563 
L 134.28 -53.523432 
L 134.001 -54.082734 
L 133.722 -54.650379 
L 133.443 -55.226279 
L 133.164 -55.810341 
L 132.885 -56.402474 
L 132.606 -57.002585 
L 132.327 -57.610578 
L 132.048 -58.226357 
L 131.769 -58.849826 
L 131.49 -59.480886 
L 131.211 -60.119436 
L 130.932 -60.765378 
L 130.653 -61.418607 
L 130.374 -62.079022 
L 130.095 -62.746518 
L 129.816 -63.420989 
L 129.537 -64.102329 
L 129.258 -64.79043 
L 128.979 -65.485185 
L 128.7 -66.186482 
L 128.421 -66.894212 
L 128.142 -67.608262 
L 127.863 -68.32852 
L 127.584 -69.054872 
L 127.305 -69.787203 
L 127.026 -70.525398 
L 126.747 -71.26934 
L 126.468 -72.018912 
L 126.189 -72.773995 
L 125.91 -73.53447 
L 125.631 -74.300218 
L 125.352 -75.071116 
L 125.073 -75.847043 
L 124.794 -76.627877 
L 124.515 -77.413495 
L 124.236 -78.203772 
L 123.957 -78.998584 
L 123.678 -79.797805 
L 123.399 -80.601309 
L 123.12 -81.408968 
L 122.841 -82.220657 
L 122.562 -83.036245 
L 122.283 -83.855606 
L 122.004 -84.678608 
L 121.725 -85.505122 
L 121.446 -86.335018 
L 121.167 -87.168165 
L 120.888 -88.004431 
L 120.609 -88.843684 
L 120.33 -89.685791 
L 120.051 -90.53062 
L 119.772 -91.378036 
L 119.493 -92.227907 
L 119.214 -93.080098 
L 118.935 -93.934475 
L 118.656 -94.790902 
L 118.377 -95.649244 
L 118.098 -96.509367 
L 117.819 -97.371133 
L 117.54 -98.234407 
L 117.261 -99.099053 
L 116.982 -99.964933 
L 116.703 -100.831912 
L 116.424 -101.699852 
L 116.145 -102.568617 
L 115.866 -103.438069 
L 115.587 -104.30807 
L 115.308 -105.178484 
L 115.029 -106.049173 
L 114.75 -106.92 
L 114.471 -107.790827 
L 114.192 -108.661516 
L 113.913 -109.53193 
L 113.634 -110.401931 
L 113.355 -111.271383 
L 113.076 -112.140148 
L 112.797 -113.008088 
L 112.518 -113.875067 
L 112.239 -114.740947 
L 111.96 -115.605593 
L 111.681 -116.468867 
L 111.402 -117.330633 
L 111.123 -118.190756 
L 110.844 -119.049098 
L 110.565 -119.905525 
L 110.286 -120.759902 
L 110.007 -121.612093 
L 109.728 -122.461964 
L 109.449 -123.30938 
L 109.17 -124.154209 
L 108.891 -124.996316 
L 108.612 -125.835569 
L 108.333 -126.671835 
L 108.054 -127.504982 
L 107.775 -128.334878 
L 107.496 -129.161392 
L 107.217 -129.984394 
L 106.938 -130.803755 
L 106.659 -131.619343 
L 106.38 -132.431032 
L 106.101 -133.238691 
L 105.822 -134.042195 
L 105.543 -134.841416 
L 105.264 -135.636228 
L 104.985 -136.426505 
L 104.706 -137.212123 
L 104.427 -137.992957 
L 104.148 -138.768884 
L 103.869 -139.539782 
L 103.59 -140.30553 
L 103.311 -141.066005 
L 103.032 -141.821088 
L 102.753 -142.57066 
L 102.474 -143.314602 
L 102.195 -144.052797 
L 101.916 -144.785128 
L 101.637 -145.51148 
L 101.358 -146.231738 
L 101.079 -146.945788 
L 100.8 -147.653518 
L 100.521 -148.354815 
L 100.242 -149.04957 
L 99.963 -149.737671 
L 99.684 -150.419011 
L 99.405 -151.093482 
L 99.126 -151.760978 
L 98.847 -152.421393 
L 98.568 -153.074622 
L 98.289 -153.720564 
L 98.01 -154.359114 
L 97.731 -154.990174 
L 97.452 -155.613643 
L 97.173 -156.229422 
L 96.894 -156.837415 
L 96.615 -157.437526 
L 96.336 -158.029659 
L 96.057 -158.613721 
L 95.778 -159.189621 
L 95.499 -159.757266 
L 95.22 -160.316568 
L 94.941 -160.867437 
L 94.662 -161.409788 
L 94.383 -161.943535 
L 94.104 -162.468592 
L 93.825 -162.984878 
L 93.546 -163.49231 
L 93.267 -163.990809 
L 92.988 -164.480296 
L 92.709 -164.960693 
L 92.43 -165.431925 
L 92.151 -165.893918 
L 91.872 -166.346597 
L 91.593 -166.789893 
L 91.314 -167.223734 
L 91.035 -167.648053 
L 90.756 -168.062782 
L 90.477 -168.467856 
L 90.198 -168.863211 
L 89.919 -169.248784 
L 89.64 -169.624515 
L 89.361 -169.990344 
L 89.082 -170.346213 
L 88.803 -170.692067 
L 88.524 -171.02785 
L 88.245 -171.35351 
L 87.966 -171.668996 
L 87.687 -171.974256 
L 87.408 -172.269244 
L 87.129 -172.553913 
L 86.85 -172.828217 
L 86.571 -173.092113 
L 86.292 -173.34556 
L 86.013 -173.588518 
L 85.734 -173.820948 
L 85.455 -174.042813 
L 85.176 -174.254079 
L 84.897 -174.454712 
L 84.618 -174.644681 
L 84.339 -174.823955 
L 84.06 -174.992506 
L 83.781 -175.150308 
L 83.502 -175.297336 
L 83.223 -175.433566 
L 82.944 -175.558977 
L 82.665 -175.673549 
L 82.386 -175.777264 
L 82.107 -175.870105 
L 81.828 -175.952059 
L 81.549 -176.023112 
L 81.27 -176.083252 
L 80.991 -176.132471 
L 80.712 -176.17076 
L 80.433 -176.198114 
L 80.154 -176.214528 
L 79.875 -176.22 
L 79.596 -176.214528 
L 79.317 -176.198114 
L 79.038 -176.17076 
L 78.759 -176.132471 
L 78.48 -176.083252 
L 78.201 -176.023112 
L 77.922 -175.952059 
L 77.643 -175.870105 
L 77.364 -175.777264 
L 77.085 -175.673549 
L 76.806 -175.558977 
L 76.527 -175.433566 
L 76.248 -175.297336 
L 75.969 -175.150308 
L 75.69 -174.992506 
L 75.411 -174.823955 
L 75.132 -174.644681 
L 74.853 -174.454712 
L 74.574 -174.254079 
L 74.295 -174.042813 
L 74.016 -173.820948 
L 73.737 -173.588518 
L 73.458 -173.34556 
L 73.179 -173.092113 
L 72.9 -172.828217 
L 72.621 -172.553913 
L 72.342 -172.269244 
L 72.063 -171.974256 
L 71.784 -171.668996 
L 71.505 -171.35351 
L 71.226 -171.02785 
L 70.947 -170.692067 
L 70.668 -170.346213 
L 70.389 -169.990344 
L 70.11 -169.624515 
L 69.831 -169.248784 
L 69.552 -168.863211 
L 69.273 -168.467856 
L 68.994 -168.062782 
L 68.715 -167.648053 
L 68.436 -167.223734 
L 68.157 -166.789893 
L 67.878 -166.346597 
L 67.599 -165.893918 
L 67.32 -165.431925 
L 67.041 -164.960693 
L 66.762 -164.480296 
L 66.483 -163.990809 
L 66.204 -163.49231 
L 65.925 -162.984878 
L 65.646 -162.468592 
L 65.367 -161.943535 
L 65.088 -161.409788 
L 64.809 -160.867437 
L 64.53 -160.316568 
L 64.251 -159.757266 
L 63.972 -159.189621 
L 63.693 -158.613721 
L 63.414 -158.029659 
L 63.135 -157.437526 
L 62.856 -156.837415 
L 62.577 -156.229422 
L 62.298 -155.613643 
L 62.019 -154.990174 
L 61.74 -154.359114 
L 61.461 -153.720564 
L 61.182 -153.074622 
L 60.903 -152.421393 
L 60.624 -151.760978 
L 60.345 -151.093482 
L 60.066 -150.419011 
L 59.787 -149.737671 
L 59.508 -149.04957 
L 59.229 -148.354815 
L 58.95 -147.653518 
L 58.671 -146.945788 
L 58.392 -146.231738 
L 58.113 -145.51148 
L 57.834 -144.785128 
L 57.555 -144.052797 
L 57.276 -143.314602 
L 56.997 -142.57066 
L 56.718 -141.821088 
L 56.439 -141.066005 
L 56.16 -140.30553 
L 55.881 -139.539782 
L 55.602 -138.768884 
L 55.323 -137.992957 
L 55.044 -137.212123 
L 54.765 -136.426505 
L 54.486 -135.636228 
L 54.207 -134.841416 
L 53.928 -134.042195 
L 53.649 -133.238691 
L 53.37 -132.431032 
L 53.091 -131.619343 
L 52.812 -130.803755 
L 52.533 -129.984394 
L 52.254 -129.161392 
L 51.975 -128.334878 
L 51.696 -127.504982 
L 51.417 -126.671835 
L 51.138 -125.835569 
L 50.859 -124.996316 
L 50.58 -124.154209 
L 50.301 -123.30938 
L 50.022 -122.461964 
L 49.743 -121.612093 
L 49.464 -120.759902 
L 49.185 -119.905525 
L 48.906 -119.049098 
L 48.627 -118.190756 
L 48.348 -117.330633 
L 48.069 -116.468867 
L 47.79 -115.605593 
L 47.511 -114.740947 
L 47.232 -113.875067 
L 46.953 -113.008088 
L 46.674 -112.140148 
L 46.395 -111.271383 
L 46.116 -110.401931 
L 45.837 -109.53193 
L 45.558 -108.661516 
L 45.279 -107.790827 
L 45 -106.92 
z
" style="stroke: #0088ff; stroke-opacity: 0.25"/>
    </defs>
    <g clip-path="url(#p47865b31e1)">
     <use xlink:href="#m45dec0800b" x="0" y="216" style="fill: #0088ff; fill-opacity: 0.25; stroke: #0088ff; stroke-opacity: 0.25"/>
    </g>
   </g>
   <g id="matplotlib.axis_1">
    <g id="xtick_1">
     <g id="line2d_1">
      <defs>
       <path id="mb7cae61ca0" d="M 0 0 
L 0 3.5 
" style="stroke: #000000; stroke-width: 0.8"/>
      </defs>
      <g>
       <use xlink:href="#mb7cae61ca0" x="45" y="192.24" style="stroke: #000000; stroke-width: 0.8"/>
      </g>
     </g>
     <g id="text_1">
      <!-- 0 -->
      <g transform="translate(41.81875 206.838437) scale(0.1 -0.1)">
       <defs>
        <path id="DejaVuSans-30" d="M 2034 4250 
Q 1547 4250 1301 3770 
Q 1056 3291 1056 2328 
Q 1056 1369 1301 889 
Q 1547 409 2034 409 
Q 2525 409 2770 889 
Q 3016 1369 3016 2328 
Q 3016 3291 2770 3770 
Q 2525 4250 2034 4250 
z
M 2034 4750 
Q 2819 4750 3233 4129 
Q 3647 3509 3647 2328 
Q 3647 1150 3233 529 
Q 2819 -91 2034 -91 
Q 1250 -91 836 529 
Q 422 1150 422 2328 
Q 422 3509 836 4129 
Q 1250 4750 2034 4750 
z
" transform="scale(0.015625)"/>
       </defs>
       <use xlink:href="#DejaVuSans-30"/>
      </g>
     </g>
    </g>
    <g id="xtick_2">
     <g id="line2d_2">
      <g>
       <use xlink:href="#mb7cae61ca0" x="89.404229" y="192.24" style="stroke: #000000; stroke-width: 0.8"/>
      </g>
     </g>
     <g id="text_2">
      <!-- 2 -->
      <g transform="translate(86.222979 206.838437) scale(0.1 -0.1)">
       <defs>
        <path id="DejaVuSans-32" d="M 1228 531 
L 3431 531 
L 3431 0 
L 469 0 
L 469 531 
Q 828 903 1448 1529 
Q 2069 2156 2228 2338 
Q 2531 2678 2651 2914 
Q 2772 3150 2772 3378 
Q 2772 3750 2511 3984 
Q 2250 4219 1831 4219 
Q 1534 4219 1204 4116 
Q 875 4013 500 3803 
L 500 4441 
Q 881 4594 1212 4672 
Q 1544 4750 1819 4750 
Q 2544 4750 2975 4387 
Q 3406 4025 3406 3419 
Q 3406 3131 3298 2873 
Q 3191 2616 2906 2266 
Q 2828 2175 2409 1742 
Q 1991 1309 1228 531 
z
" transform="scale(0.015625)"/>
       </defs>
       <use xlink:href="#DejaVuSans-32"/>
      </g>
     </g>
    </g>
    <g id="xtick_3">
     <g id="line2d_3">
      <g>
       <use xlink:href="#mb7cae61ca0" x="133.808458" y="192.24" style="stroke: #000000; stroke-width: 0.8"/>
      </g>
     </g>
     <g id="text_3">
      <!-- 4 -->
      <g transform="translate(130.627208 206.838437) scale(0.1 -0.1)">
       <defs>
        <path id="DejaVuSans-34" d="M 2419 4116 
L 825 1625 
L 2419 1625 
L 2419 4116 
z
M 2253 4666 
L 3047 4666 
L 3047 1625 
L 3713 1625 
L 3713 1100 
L 3047 1100 
L 3047 0 
L 2419 0 
L 2419 1100 
L 313 1100 
L 313 1709 
L 2253 4666 
z
" transform="scale(0.015625)"/>
       </defs>
       <use xlink:href="#DejaVuSans-34"/>
      </g>
     </g>
    </g>
    <g id="xtick_4">
     <g id="line2d_4">
      <g>
       <use xlink:href="#mb7cae61ca0" x="178.212687" y="192.24" style="stroke: #000000; stroke-width: 0.8"/>
      </g>
     </g>
     <g id="text_4">
      <!-- 6 -->
      <g transform="translate(175.031437 206.838437) scale(0.1 -0.1)">
       <defs>
        <path id="DejaVuSans-36" d="M 2113 2584 
Q 1688 2584 1439 2293 
Q 1191 2003 1191 1497 
Q 1191 994 1439 701 
Q 1688 409 2113 409 
Q 2538 409 2786 701 
Q 3034 994 3034 1497 
Q 3034 2003 2786 2293 
Q 2538 2584 2113 2584 
z
M 3366 4563 
L 3366 3988 
Q 3128 4100 2886 4159 
Q 2644 4219 2406 4219 
Q 1781 4219 1451 3797 
Q 1122 3375 1075 2522 
Q 1259 2794 1537 2939 
Q 1816 3084 2150 3084 
Q 2853 3084 3261 2657 
Q 3669 2231 3669 1497 
Q 3669 778 3244 343 
Q 2819 -91 2113 -91 
Q 1303 -91 875 529 
Q 447 1150 447 2328 
Q 447 3434 972 4092 
Q 1497 4750 2381 4750 
Q 2619 4750 2861 4703 
Q 3103 4656 3366 4563 
z
" transform="scale(0.015625)"/>
       </defs>
       <use xlink:href="#DejaVuSans-36"/>
      </g>
     </g>
    </g>
    <g id="xtick_5">
     <g id="line2d_5">
      <g>
       <use xlink:href="#mb7cae61ca0" x="222.616916" y="192.24" style="stroke: #000000; stroke-width: 0.8"/>
      </g>
     </g>
     <g id="text_5">
      <!-- 8 -->
      <g transform="translate(219.435666 206.838437) scale(0.1 -0.1)">
       <defs>
        <path id="DejaVuSans-38" d="M 2034 2216 
Q 1584 2216 1326 1975 
Q 1069 1734 1069 1313 
Q 1069 891 1326 650 
Q 1584 409 2034 409 
Q 2484 409 2743 651 
Q 3003 894 3003 1313 
Q 3003 1734 2745 1975 
Q 2488 2216 2034 2216 
z
M 1403 2484 
Q 997 2584 770 2862 
Q 544 3141 544 3541 
Q 544 4100 942 4425 
Q 1341 4750 2034 4750 
Q 2731 4750 3128 4425 
Q 3525 4100 3525 3541 
Q 3525 3141 3298 2862 
Q 3072 2584 2669 2484 
Q 3125 2378 3379 2068 
Q 3634 1759 3634 1313 
Q 3634 634 3220 271 
Q 2806 -91 2034 -91 
Q 1263 -91 848 271 
Q 434 634 434 1313 
Q 434 1759 690 2068 
Q 947 2378 1403 2484 
z
M 1172 3481 
Q 1172 3119 1398 2916 
Q 1625 2713 2034 2713 
Q 2441 2713 2670 2916 
Q 2900 3119 2900 3481 
Q 2900 3844 2670 4047 
Q 2441 4250 2034 4250 
Q 1625 4250 1398 4047 
Q 1172 3844 1172 3481 
z
" transform="scale(0.015625)"/>
       </defs>
       <use xlink:href="#DejaVuSans-38"/>
      </g>
     </g>
    </g>
    <g id="xtick_6">
     <g id="line2d_6">
      <g>
       <use xlink:href="#mb7cae61ca0" x="267.021146" y="192.24" style="stroke: #000000; stroke-width: 0.8"/>
      </g>
     </g>
     <g id="text_6">
      <!-- 10 -->
      <g transform="translate(260.658646 206.838437) scale(0.1 -0.1)">
       <defs>
        <path id="DejaVuSans-31" d="M 794 531 
L 1825 531 
L 1825 4091 
L 703 3866 
L 703 4441 
L 1819 4666 
L 2450 4666 
L 2450 531 
L 3481 531 
L 3481 0 
L 794 0 
L 794 531 
z
" transform="scale(0.015625)"/>
       </defs>
       <use xlink:href="#DejaVuSans-31"/>
       <use xlink:href="#DejaVuSans-30" transform="translate(63.623047 0)"/>
      </g>
     </g>
    </g>
    <g id="xtick_7">
     <g id="line2d_7">
      <g>
       <use xlink:href="#mb7cae61ca0" x="311.425375" y="192.24" style="stroke: #000000; stroke-width: 0.8"/>
      </g>
     </g>
     <g id="text_7">
      <!-- 12 -->
      <g transform="translate(305.062875 206.838437) scale(0.1 -0.1)">
       <use xlink:href="#DejaVuSans-31"/>
       <use xlink:href="#DejaVuSans-32" transform="translate(63.623047 0)"/>
      </g>
     </g>
    </g>
    <g id="text_8">
     <!-- x -->
     <g transform="translate(181.540625 220.516562) scale(0.1 -0.1)">
      <defs>
       <path id="DejaVuSans-78" d="M 3513 3500 
L 2247 1797 
L 3578 0 
L 2900 0 
L 1881 1375 
L 863 0 
L 184 0 
L 1544 1831 
L 300 3500 
L 978 3500 
L 1906 2253 
L 2834 3500 
L 3513 3500 
z
" transform="scale(0.015625)"/>
      </defs>
      <use xlink:href="#DejaVuSans-78"/>
     </g>
    </g>
   </g>
   <g id="matplotlib.axis_2">
    <g id="ytick_1">
     <g id="line2d_8">
      <defs>
       <path id="m7e8bddc9fd" d="M 0 0 
L -3.5 0 
" style="stroke: #000000; stroke-width: 0.8"/>
      </defs>
      <g>
       <use xlink:href="#m7e8bddc9fd" x="45" y="178.38" style="stroke: #000000; stroke-width: 0.8"/>
      </g>
     </g>
     <g id="text_9">
      <!-- −1.0 -->
      <g transform="translate(13.717187 182.179219) scale(0.1 -0.1)">
       <defs>
        <path id="DejaVuSans-2212" d="M 678 2272 
L 4684 2272 
L 4684 1741 
L 678 1741 
L 678 2272 
z
" transform="scale(0.015625)"/>
        <path id="DejaVuSans-2e" d="M 684 794 
L 1344 794 
L 1344 0 
L 684 0 
L 684 794 
z
" transform="scale(0.015625)"/>
       </defs>
       <use xlink:href="#DejaVuSans-2212"/>
       <use xlink:href="#DejaVuSans-31" transform="translate(83.789062 0)"/>
       <use xlink:href="#DejaVuSans-2e" transform="translate(147.412109 0)"/>
       <use xlink:href="#DejaVuSans-30" transform="translate(179.199219 0)"/>
      </g>
     </g>
    </g>
    <g id="ytick_2">
     <g id="line2d_9">
      <g>
       <use xlink:href="#m7e8bddc9fd" x="45" y="143.73" style="stroke: #000000; stroke-width: 0.8"/>
      </g>
     </g>
     <g id="text_10">
      <!-- −0.5 -->
      <g transform="translate(13.717187 147.529219) scale(0.1 -0.1)">
       <defs>
        <path id="DejaVuSans-35" d="M 691 4666 
L 3169 4666 
L 3169 4134 
L 1269 4134 
L 1269 2991 
Q 1406 3038 1543 3061 
Q 1681 3084 1819 3084 
Q 2600 3084 3056 2656 
Q 3513 2228 3513 1497 
Q 3513 744 3044 326 
Q 2575 -91 1722 -91 
Q 1428 -91 1123 -41 
Q 819 9 494 109 
L 494 744 
Q 775 591 1075 516 
Q 1375 441 1709 441 
Q 2250 441 2565 725 
Q 2881 1009 2881 1497 
Q 2881 1984 2565 2268 
Q 2250 2553 1709 2553 
Q 1456 2553 1204 2497 
Q 953 2441 691 2322 
L 691 4666 
z
" transform="scale(0.015625)"/>
       </defs>
       <use xlink:href="#DejaVuSans-2212"/>
       <use xlink:href="#DejaVuSans-30" transform="translate(83.789062 0)"/>
       <use xlink:href="#DejaVuSans-2e" transform="translate(147.412109 0)"/>
       <use xlink:href="#DejaVuSans-35" transform="translate(179.199219 0)"/>
      </g>
     </g>
    </g>
    <g id="ytick_3">
     <g id="line2d_10">
      <g>
       <use xlink:href="#m7e8bddc9fd" x="45" y="109.08" style="stroke: #000000; stroke-width: 0.8"/>
      </g>
     </g>
     <g id="text_11">
      <!-- 0.0 -->
      <g transform="translate(22.096875 112.879219) scale(0.1 -0.1)">
       <use xlink:href="#DejaVuSans-30"/>
       <use xlink:href="#DejaVuSans-2e" transform="translate(63.623047 0)"/>
       <use xlink:href="#DejaVuSans-30" transform="translate(95.410156 0)"/>
      </g>
     </g>
    </g>
    <g id="ytick_4">
     <g id="line2d_11">
      <g>
       <use xlink:href="#m7e8bddc9fd" x="45" y="74.43" style="stroke: #000000; stroke-width: 0.8"/>
      </g>
     </g>
     <g id="text_12">
      <!-- 0.5 -->
      <g transform="translate(22.096875 78.229219) scale(0.1 -0.1)">
       <use xlink:href="#DejaVuSans-30"/>
       <use xlink:href="#DejaVuSans-2e" transform="translate(63.623047 0)"/>
       <use xlink:href="#DejaVuSans-35" transform="translate(95.410156 0)"/>
      </g>
     </g>
    </g>
    <g id="ytick_5">
     <g id="line2d_12">
      <g>
       <use xlink:href="#m7e8bddc9fd" x="45" y="39.78" style="stroke: #000000; stroke-width: 0.8"/>
      </g>
     </g>
     <g id="text_13">
      <!-- 1.0 -->
      <g transform="translate(22.096875 43.579219) scale(0.1 -0.1)">
       <use xlink:href="#DejaVuSans-31"/>
       <use xlink:href="#DejaVuSans-2e" transform="translate(63.623047 0)"/>
       <use xlink:href="#DejaVuSans-30" transform="translate(95.410156 0)"/>
      </g>
     </g>
    </g>
    <g id="text_14">
     <!-- f(x) -->
     <g transform="translate(7.6375 117.701094) rotate(-90) scale(0.1 -0.1)">
      <defs>
       <path id="DejaVuSans-66" d="M 2375 4863 
L 2375 4384 
L 1825 4384 
Q 1516 4384 1395 4259 
Q 1275 4134 1275 3809 
L 1275 3500 
L 2222 3500 
L 2222 3053 
L 1275 3053 
L 1275 0 
L 697 0 
L 697 3053 
L 147 3053 
L 147 3500 
L 697 3500 
L 697 3744 
Q 697 4328 969 4595 
Q 1241 4863 1831 4863 
L 2375 4863 
z
" transform="scale(0.015625)"/>
       <path id="DejaVuSans-28" d="M 1984 4856 
Q 1566 4138 1362 3434 
Q 1159 2731 1159 2009 
Q 1159 1288 1364 580 
Q 1569 -128 1984 -844 
L 1484 -844 
Q 1016 -109 783 600 
Q 550 1309 550 2009 
Q 550 2706 781 3412 
Q 1013 4119 1484 4856 
L 1984 4856 
z
" transform="scale(0.015625)"/>
       <path id="DejaVuSans-29" d="M 513 4856 
L 1013 4856 
Q 1481 4119 1714 3412 
Q 1947 2706 1947 2009 
Q 1947 1309 1714 600 
Q 1481 -109 1013 -844 
L 513 -844 
Q 928 -128 1133 580 
Q 1338 1288 1338 2009 
Q 1338 2731 1133 3434 
Q 928 4138 513 4856 
z
" transform="scale(0.015625)"/>
      </defs>
      <use xlink:href="#DejaVuSans-66"/>
      <use xlink:href="#DejaVuSans-28" transform="translate(35.205078 0)"/>
      <use xlink:href="#DejaVuSans-78" transform="translate(74.21875 0)"/>
      <use xlink:href="#DejaVuSans-29" transform="translate(133.398438 0)"/>
     </g>
    </g>
   </g>
   <g id="line2d_13">
    <path d="M 45 109.08 
L 51.975 87.665122 
L 55.602 77.231116 
L 58.671 69.054212 
L 61.461 62.279436 
L 63.693 57.386279 
L 65.925 53.015122 
L 67.878 49.653403 
L 69.831 46.751216 
L 71.505 44.64649 
L 73.179 42.907887 
L 74.574 41.745921 
L 75.969 40.849692 
L 77.364 40.222736 
L 78.759 39.867529 
L 80.154 39.785472 
L 81.549 39.976888 
L 82.944 40.441023 
L 84.339 41.176045 
L 85.734 42.179052 
L 87.129 43.446087 
L 88.803 45.307933 
L 90.477 47.532144 
L 92.151 50.106082 
L 94.104 53.531408 
L 96.057 57.386279 
L 98.289 62.279436 
L 100.8 68.346482 
L 103.59 75.69447 
L 106.938 85.196245 
L 111.123 97.809244 
L 123.678 136.202195 
L 127.026 145.474602 
L 129.816 152.579011 
L 132.327 158.389422 
L 134.559 163.027437 
L 136.512 166.640296 
L 138.465 169.808053 
L 140.139 172.150344 
L 141.813 174.134256 
L 143.487 175.748518 
L 144.882 176.804681 
L 146.277 177.593566 
L 147.672 178.112059 
L 149.067 178.358114 
L 150.462 178.33076 
L 151.857 178.030105 
L 153.252 177.457336 
L 154.647 176.614712 
L 156.042 175.50556 
L 157.437 174.134256 
L 159.111 172.150344 
L 160.785 169.808053 
L 162.738 166.640296 
L 164.691 163.027437 
L 166.923 158.389422 
L 169.434 152.579011 
L 172.224 145.474602 
L 175.293 137.001416 
L 178.92 126.314209 
L 184.5 109.08 
L 191.475 87.665122 
L 195.102 77.231116 
L 198.171 69.054212 
L 200.961 62.279436 
L 203.193 57.386279 
L 205.425 53.015122 
L 207.378 49.653403 
L 209.331 46.751216 
L 211.005 44.64649 
L 212.679 42.907887 
L 214.074 41.745921 
L 215.469 40.849692 
L 216.864 40.222736 
L 218.259 39.867529 
L 219.654 39.785472 
L 221.049 39.976888 
L 222.444 40.441023 
L 223.839 41.176045 
L 225.234 42.179052 
L 226.629 43.446087 
L 228.303 45.307933 
L 229.977 47.532144 
L 231.651 50.106082 
L 233.604 53.531408 
L 235.557 57.386279 
L 237.789 62.279436 
L 240.3 68.346482 
L 243.09 75.69447 
L 246.438 85.196245 
L 250.623 97.809244 
L 263.178 136.202195 
L 266.526 145.474602 
L 269.316 152.579011 
L 271.827 158.389422 
L 274.059 163.027437 
L 276.012 166.640296 
L 277.965 169.808053 
L 279.639 172.150344 
L 281.313 174.134256 
L 282.987 175.748518 
L 284.382 176.804681 
L 285.777 177.593566 
L 287.172 178.112059 
L 288.567 178.358114 
L 289.962 178.33076 
L 291.357 178.030105 
L 292.752 177.457336 
L 294.147 176.614712 
L 295.542 175.50556 
L 296.937 174.134256 
L 298.611 172.150344 
L 300.285 169.808053 
L 302.238 166.640296 
L 304.191 163.027437 
L 306.423 158.389422 
L 308.934 152.579011 
L 311.724 145.474602 
L 314.793 137.001416 
L 318.42 126.314209 
L 324 109.08 
L 324 109.08 
" clip-path="url(#p47865b31e1)" style="fill: none; stroke: #0088ff; stroke-width: 1.5; stroke-linecap: square"/>
   </g>
   <g id="line2d_14">
    <path d="M 45 109.08 
L 49.185 83.568968 
L 51.417 71.214872 
L 53.37 61.640886 
L 55.044 54.590212 
L 56.439 49.653403 
L 57.555 46.375485 
L 58.671 43.730756 
L 59.508 42.179052 
L 60.345 41.007494 
L 61.182 40.222736 
L 62.019 39.82924 
L 62.577 39.785472 
L 63.135 39.916748 
L 63.693 40.222736 
L 64.53 41.007494 
L 65.367 42.179052 
L 66.204 43.730756 
L 67.32 46.375485 
L 68.436 49.653403 
L 69.831 54.590212 
L 71.226 60.386357 
L 72.9 68.346482 
L 74.853 78.787877 
L 77.364 93.538036 
L 85.734 143.981088 
L 87.687 153.920978 
L 89.361 161.349621 
L 90.756 166.640296 
L 92.151 171.023211 
L 93.267 173.828996 
L 94.383 175.980948 
L 95.22 177.152506 
L 96.057 177.937264 
L 96.894 178.33076 
L 97.452 178.374528 
L 98.01 178.243252 
L 98.568 177.937264 
L 99.405 177.152506 
L 100.242 175.980948 
L 101.079 174.429244 
L 102.195 171.784515 
L 103.311 168.506597 
L 104.706 163.569788 
L 106.101 157.773643 
L 107.775 149.813518 
L 109.728 139.372123 
L 112.239 124.621964 
L 120.609 74.178912 
L 122.562 64.239022 
L 124.236 56.810379 
L 125.631 51.519704 
L 127.026 47.136789 
L 128.142 44.331004 
L 129.258 42.179052 
L 130.095 41.007494 
L 130.932 40.222736 
L 131.769 39.82924 
L 132.327 39.785472 
L 132.885 39.916748 
L 133.443 40.222736 
L 134.28 41.007494 
L 135.117 42.179052 
L 135.954 43.730756 
L 137.07 46.375485 
L 138.186 49.653403 
L 139.581 54.590212 
L 140.976 60.386357 
L 142.65 68.346482 
L 144.603 78.787877 
L 147.114 93.538036 
L 155.484 143.981088 
L 157.437 153.920978 
L 159.111 161.349621 
L 160.506 166.640296 
L 161.901 171.023211 
L 163.017 173.828996 
L 164.133 175.980948 
L 164.97 177.152506 
L 165.807 177.937264 
L 166.644 178.33076 
L 167.202 178.374528 
L 167.76 178.243252 
L 168.318 177.937264 
L 169.155 177.152506 
L 169.992 175.980948 
L 170.829 174.429244 
L 171.945 171.784515 
L 173.061 168.506597 
L 174.456 163.569788 
L 175.851 157.773643 
L 177.525 149.813518 
L 179.478 139.372123 
L 181.989 124.621964 
L 190.359 74.178912 
L 192.312 64.239022 
L 193.986 56.810379 
L 195.381 51.519704 
L 196.776 47.136789 
L 197.892 44.331004 
L 199.008 42.179052 
L 199.845 41.007494 
L 200.682 40.222736 
L 201.519 39.82924 
L 202.077 39.785472 
L 202.635 39.916748 
L 203.193 40.222736 
L 204.03 41.007494 
L 204.867 42.179052 
L 205.704 43.730756 
L 206.82 46.375485 
L 207.936 49.653403 
L 209.331 54.590212 
L 210.726 60.386357 
L 212.4 68.346482 
L 214.353 78.787877 
L 216.864 93.538036 
L 225.234 143.981088 
L 227.187 153.920978 
L 228.861 161.349621 
L 230.256 166.640296 
L 231.651 171.023211 
L 232.767 173.828996 
L 233.883 175.980948 
L 234.72 177.152506 
L 235.557 177.937264 
L 236.394 178.33076 
L 236.952 178.374528 
L 237.51 178.243252 
L 238.068 177.937264 
L 238.905 177.152506 
L 239.742 175.980948 
L 240.579 174.429244 
L 241.695 171.784515 
L 242.811 168.506597 
L 244.206 163.569788 
L 245.601 157.773643 
L 247.275 149.813518 
L 249.228 139.372123 
L 251.739 124.621964 
L 260.109 74.178912 
L 262.062 64.239022 
L 263.736 56.810379 
L 265.131 51.519704 
L 266.526 47.136789 
L 267.642 44.331004 
L 268.758 42.179052 
L 269.595 41.007494 
L 270.432 40.222736 
L 271.269 39.82924 
L 271.827 39.785472 
L 272.385 39.916748 
L 272.943 40.222736 
L 273.78 41.007494 
L 274.617 42.179052 
L 275.454 43.730756 
L 276.57 46.375485 
L 277.686 49.653403 
L 279.081 54.590212 
L 280.476 60.386357 
L 282.15 68.346482 
L 284.103 78.787877 
L 286.614 93.538036 
L 294.984 143.981088 
L 296.937 153.920978 
L 298.611 161.349621 
L 300.006 166.640296 
L 301.401 171.023211 
L 302.517 173.828996 
L 303.633 175.980948 
L 304.47 177.152506 
L 305.307 177.937264 
L 306.144 178.33076 
L 306.702 178.374528 
L 307.26 178.243252 
L 307.818 177.937264 
L 308.655 177.152506 
L 309.492 175.980948 
L 310.329 174.429244 
L 311.445 171.784515 
L 312.561 168.506597 
L 313.956 163.569788 
L 315.351 157.773643 
L 317.025 149.813518 
L 318.978 139.372123 
L 321.489 124.621964 
L 324 109.08 
L 324 109.08 
" clip-path="url(#p47865b31e1)" style="fill: none; stroke: #0088ff; stroke-width: 1.5; stroke-linecap: square"/>
   </g>
   <g id="patch_3">
    <path d="M 45 192.24 
L 45 25.92 
" style="fill: none; stroke: #000000; stroke-width: 0.8; stroke-linejoin: miter; stroke-linecap: square"/>
   </g>
   <g id="patch_4">
    <path d="M 324 192.24 
L 324 25.92 
" style="fill: none; stroke: #000000; stroke-width: 0.8; stroke-linejoin: miter; stroke-linecap: square"/>
   </g>
   <g id="patch_5">
    <path d="M 45 192.24 
L 324 192.24 
" style="fill: none; stroke: #000000; stroke-width: 0.8; stroke-linejoin: miter; stroke-linecap: square"/>
   </g>
   <g id="patch_6">
    <path d="M 45 25.92 
L 324 25.92 
" style="fill: none; stroke: #000000; stroke-width: 0.8; stroke-linejoin: miter; stroke-linecap: square"/>
   </g>
  </g>
 </g>
 <defs>
  <clipPath id="p47865b31e1">
   <rect x="45" y="25.92" width="279" height="166.32"/>
  </clipPath>
 </defs>
</svg>
