<?xml version="1.0" encoding="utf-8" standalone="no"?>
<!DOCTYPE svg PUBLIC "-//W3C//DTD SVG 1.1//EN"
  "http://www.w3.org/Graphics/SVG/1.1/DTD/svg11.dtd">
<svg xmlns:xlink="http://www.w3.org/1999/xlink" width="288pt" height="288pt" viewBox="0 0 288 288" xmlns="http://www.w3.org/2000/svg" version="1.1">
 <metadata>
  <rdf:RDF xmlns:dc="http://purl.org/dc/elements/1.1/" xmlns:cc="http://creativecommons.org/ns#" xmlns:rdf="http://www.w3.org/1999/02/22-rdf-syntax-ns#">
   <cc:Work>
    <dc:type rdf:resource="http://purl.org/dc/dcmitype/StillImage"/>
    <dc:date>2025-11-28T16:38:13.717334</dc:date>
    <dc:format>image/svg+xml</dc:format>
    <dc:creator>
     <cc:Agent>
      <dc:title>Matplotlib v3.10.6, https://matplotlib.org/</dc:title>
     </cc:Agent>
    </dc:creator>
   </cc:Work>
  </rdf:RDF>
 </metadata>
 <defs>
  <style type="text/css">*{stroke-linejoin: round; stroke-linecap: butt}</style>
 </defs>
 <g id="figure_1">
  <g id="patch_1">
   <path d="M 0 288 
L 288 288 
L 288 0 
L 0 0 
z
" style="fill: #ffffff"/>
  </g>
  <g id="axes_1">
   <g id="line2d_1">
    <path d="M 46.145455 246.24 
L 56.82488 246.24 
L 67.504306 246.24 
L 78.183732 246.24 
L 88.863158 246.24 
L 99.542584 246.24 
L 110.22201 246.24 
L 120.901435 246.24 
L 131.580861 246.24 
L 142.260287 246.24 
L 152.939713 246.24 
L 163.619139 246.24 
L 174.298565 246.24 
L 184.97799 246.24 
L 195.657416 246.24 
L 206.336842 246.24 
L 217.016268 246.24 
L 227.695694 246.24 
L 238.37512 246.24 
L 249.054545 246.24 
" clip-path="url(#p31e1447e69)" style="fill: none; stroke: #8000ff; stroke-width: 1.5; stroke-linecap: square"/>
   </g>
   <g id="line2d_2">
    <path d="M 46.145455 235.629474 
L 56.82488 235.629474 
L 67.504306 235.629474 
L 78.183732 235.629474 
L 88.863158 235.629474 
L 99.542584 235.629474 
L 110.22201 235.629474 
L 120.901435 235.629474 
L 131.580861 235.629474 
L 142.260287 235.629474 
L 152.939713 235.629474 
L 163.619139 235.629474 
L 174.298565 235.629474 
L 184.97799 235.629474 
L 195.657416 235.629474 
L 206.336842 235.629474 
L 217.016268 235.629474 
L 227.695694 235.629474 
L 238.37512 235.629474 
L 249.054545 235.629474 
" clip-path="url(#p31e1447e69)" style="fill: none; stroke: #7413ff; stroke-width: 1.5; stroke-linecap: square"/>
   </g>
   <g id="line2d_3">
    <path d="M 46.145455 225.018947 
L 56.82488 225.018947 
L 67.504306 225.018947 
L 78.183732 225.018947 
L 88.863158 225.018947 
L 99.542584 225.018947 
L 110.22201 225.018947 
L 120.901435 225.018947 
L 131.580861 225.018947 
L 142.260287 225.018947 
L 152.939713 225.018947 
L 163.619139 225.018947 
L 174.298565 225.018947 
L 184.97799 225.018947 
L 195.657416 225.018947 
L 206.336842 225.018947 
L 217.016268 225.018947 
L 227.695694 225.018947 
L 238.37512 225.018947 
L 249.054545 225.018947 
" clip-path="url(#p31e1447e69)" style="fill: none; stroke: #6629fe; stroke-width: 1.5; stroke-linecap: square"/>
   </g>
   <g id="line2d_4">
    <path d="M 46.145455 214.408421 
L 56.82488 214.408421 
L 67.504306 214.408421 
L 78.183732 214.408421 
L 88.863158 214.408421 
L 99.542584 214.408421 
L 110.22201 214.408421 
L 120.901435 214.408421 
L 131.580861 214.408421 
L 142.260287 214.408421 
L 152.939713 214.408421 
L 163.619139 214.408421 
L 174.298565 214.408421 
L 184.97799 214.408421 
L 195.657416 214.408421 
L 206.336842 214.408421 
L 217.016268 214.408421 
L 227.695694 214.408421 
L 238.37512 214.408421 
L 249.054545 214.408421 
" clip-path="url(#p31e1447e69)" style="fill: none; stroke: #5a3bfd; stroke-width: 1.5; stroke-linecap: square"/>
   </g>
   <g id="line2d_5">
    <path d="M 46.145455 203.797895 
L 56.82488 203.797895 
L 67.504306 203.797895 
L 78.183732 203.797895 
L 88.863158 203.797895 
L 99.542584 203.797895 
L 110.22201 203.797895 
L 120.901435 203.797895 
L 131.580861 203.797895 
L 142.260287 203.797895 
L 152.939713 203.797895 
L 163.619139 203.797895 
L 174.298565 203.797895 
L 184.97799 203.797895 
L 195.657416 203.797895 
L 206.336842 203.797895 
L 217.016268 203.797895 
L 227.695694 203.797895 
L 238.37512 203.797895 
L 249.054545 203.797895 
" clip-path="url(#p31e1447e69)" style="fill: none; stroke: #4c50fc; stroke-width: 1.5; stroke-linecap: square"/>
   </g>
   <g id="line2d_6">
    <path d="M 46.145455 193.187368 
L 56.82488 193.187368 
L 67.504306 193.187368 
L 78.183732 193.187368 
L 88.863158 193.187368 
L 99.542584 193.187368 
L 110.22201 193.187368 
L 120.901435 193.187368 
L 131.580861 193.187368 
L 142.260287 193.187368 
L 152.939713 193.187368 
L 163.619139 193.187368 
L 174.298565 193.187368 
L 184.97799 193.187368 
L 195.657416 193.187368 
L 206.336842 193.187368 
L 217.016268 193.187368 
L 227.695694 193.187368 
L 238.37512 193.187368 
L 249.054545 193.187368 
" clip-path="url(#p31e1447e69)" style="fill: none; stroke: #4062fa; stroke-width: 1.5; stroke-linecap: square"/>
   </g>
   <g id="line2d_7">
    <path d="M 46.145455 182.576842 
L 56.82488 182.576842 
L 67.504306 182.576842 
L 78.183732 182.576842 
L 88.863158 182.576842 
L 99.542584 182.576842 
L 110.22201 182.576842 
L 120.901435 182.576842 
L 131.580861 182.576842 
L 142.260287 182.576842 
L 152.939713 182.576842 
L 163.619139 182.576842 
L 174.298565 182.576842 
L 184.97799 182.576842 
L 195.657416 182.576842 
L 206.336842 182.576842 
L 217.016268 182.576842 
L 227.695694 182.576842 
L 238.37512 182.576842 
L 249.054545 182.576842 
" clip-path="url(#p31e1447e69)" style="fill: none; stroke: #3176f8; stroke-width: 1.5; stroke-linecap: square"/>
   </g>
   <g id="line2d_8">
    <path d="M 46.145455 171.966316 
L 56.82488 171.966316 
L 67.504306 171.966316 
L 78.183732 171.966316 
L 88.863158 171.966316 
L 99.542584 171.966316 
L 110.22201 171.966316 
L 120.901435 171.966316 
L 131.580861 171.966316 
L 142.260287 171.966316 
L 152.939713 171.966316 
L 163.619139 171.966316 
L 174.298565 171.966316 
L 184.97799 171.966316 
L 195.657416 171.966316 
L 206.336842 171.966316 
L 217.016268 171.966316 
L 227.695694 171.966316 
L 238.37512 171.966316 
L 249.054545 171.966316 
" clip-path="url(#p31e1447e69)" style="fill: none; stroke: #2686f5; stroke-width: 1.5; stroke-linecap: square"/>
   </g>
   <g id="line2d_9">
    <path d="M 46.145455 161.355789 
L 56.82488 161.355789 
L 67.504306 161.355789 
L 78.183732 161.355789 
L 88.863158 161.355789 
L 99.542584 161.355789 
L 110.22201 161.355789 
L 120.901435 161.355789 
L 131.580861 161.355789 
L 142.260287 161.355789 
L 152.939713 161.355789 
L 163.619139 161.355789 
L 174.298565 161.355789 
L 184.97799 161.355789 
L 195.657416 161.355789 
L 206.336842 161.355789 
L 217.016268 161.355789 
L 227.695694 161.355789 
L 238.37512 161.355789 
L 249.054545 161.355789 
" clip-path="url(#p31e1447e69)" style="fill: none; stroke: #1898f2; stroke-width: 1.5; stroke-linecap: square"/>
   </g>
   <g id="line2d_10">
    <path d="M 46.145455 150.745263 
L 56.82488 150.745263 
L 67.504306 150.745263 
L 78.183732 150.745263 
L 88.863158 150.745263 
L 99.542584 150.745263 
L 110.22201 150.745263 
L 120.901435 150.745263 
L 131.580861 150.745263 
L 142.260287 150.745263 
L 152.939713 150.745263 
L 163.619139 150.745263 
L 174.298565 150.745263 
L 184.97799 150.745263 
L 195.657416 150.745263 
L 206.336842 150.745263 
L 217.016268 150.745263 
L 227.695694 150.745263 
L 238.37512 150.745263 
L 249.054545 150.745263 
" clip-path="url(#p31e1447e69)" style="fill: none; stroke: #09a9ee; stroke-width: 1.5; stroke-linecap: square"/>
   </g>
   <g id="line2d_11">
    <path d="M 46.145455 140.134737 
L 56.82488 140.134737 
L 67.504306 140.134737 
L 78.183732 140.134737 
L 88.863158 140.134737 
L 99.542584 140.134737 
L 110.22201 140.134737 
L 120.901435 140.134737 
L 131.580861 140.134737 
L 142.260287 140.134737 
L 152.939713 140.134737 
L 163.619139 140.134737 
L 174.298565 140.134737 
L 184.97799 140.134737 
L 195.657416 140.134737 
L 206.336842 140.134737 
L 217.016268 140.134737 
L 227.695694 140.134737 
L 238.37512 140.134737 
L 249.054545 140.134737 
" clip-path="url(#p31e1447e69)" style="fill: none; stroke: #02b7eb; stroke-width: 1.5; stroke-linecap: square"/>
   </g>
   <g id="line2d_12">
    <path d="M 46.145455 129.524211 
L 56.82488 129.524211 
L 67.504306 129.524211 
L 78.183732 129.524211 
L 88.863158 129.524211 
L 99.542584 129.524211 
L 110.22201 129.524211 
L 120.901435 129.524211 
L 131.580861 129.524211 
L 142.260287 129.524211 
L 152.939713 129.524211 
L 163.619139 129.524211 
L 174.298565 129.524211 
L 184.97799 129.524211 
L 195.657416 129.524211 
L 206.336842 129.524211 
L 217.016268 129.524211 
L 227.695694 129.524211 
L 238.37512 129.524211 
L 249.054545 129.524211 
" clip-path="url(#p31e1447e69)" style="fill: none; stroke: #10c6e6; stroke-width: 1.5; stroke-linecap: square"/>
   </g>
   <g id="line2d_13">
    <path d="M 46.145455 118.913684 
L 56.82488 118.913684 
L 67.504306 118.913684 
L 78.183732 118.913684 
L 88.863158 118.913684 
L 99.542584 118.913684 
L 110.22201 118.913684 
L 120.901435 118.913684 
L 131.580861 118.913684 
L 142.260287 118.913684 
L 152.939713 118.913684 
L 163.619139 118.913684 
L 174.298565 118.913684 
L 184.97799 118.913684 
L 195.657416 118.913684 
L 206.336842 118.913684 
L 217.016268 118.913684 
L 227.695694 118.913684 
L 238.37512 118.913684 
L 249.054545 118.913684 
" clip-path="url(#p31e1447e69)" style="fill: none; stroke: #1dd1e2; stroke-width: 1.5; stroke-linecap: square"/>
   </g>
   <g id="line2d_14">
    <path d="M 46.145455 108.303158 
L 56.82488 108.303158 
L 67.504306 108.303158 
L 78.183732 108.303158 
L 88.863158 108.303158 
L 99.542584 108.303158 
L 110.22201 108.303158 
L 120.901435 108.303158 
L 131.580861 108.303158 
L 142.260287 108.303158 
L 152.939713 108.303158 
L 163.619139 108.303158 
L 174.298565 108.303158 
L 184.97799 108.303158 
L 195.657416 108.303158 
L 206.336842 108.303158 
L 217.016268 108.303158 
L 227.695694 108.303158 
L 238.37512 108.303158 
L 249.054545 108.303158 
" clip-path="url(#p31e1447e69)" style="fill: none; stroke: #2adddd; stroke-width: 1.5; stroke-linecap: square"/>
   </g>
   <g id="line2d_15">
    <path d="M 46.145455 97.692632 
L 56.82488 97.692632 
L 67.504306 97.692632 
L 78.183732 97.692632 
L 88.863158 97.692632 
L 99.542584 97.692632 
L 110.22201 97.692632 
L 120.901435 97.692632 
L 131.580861 97.692632 
L 142.260287 97.692632 
L 152.939713 97.692632 
L 163.619139 97.692632 
L 174.298565 97.692632 
L 184.97799 97.692632 
L 195.657416 97.692632 
L 206.336842 97.692632 
L 217.016268 97.692632 
L 227.695694 97.692632 
L 238.37512 97.692632 
L 249.054545 97.692632 
" clip-path="url(#p31e1447e69)" style="fill: none; stroke: #37e6d8; stroke-width: 1.5; stroke-linecap: square"/>
   </g>
   <g id="line2d_16">
    <path d="M 46.145455 87.082105 
L 56.82488 87.082105 
L 67.504306 87.082105 
L 78.183732 87.082105 
L 88.863158 87.082105 
L 99.542584 87.082105 
L 110.22201 87.082105 
L 120.901435 87.082105 
L 131.580861 87.082105 
L 142.260287 87.082105 
L 152.939713 87.082105 
L 163.619139 87.082105 
L 174.298565 87.082105 
L 184.97799 87.082105 
L 195.657416 87.082105 
L 206.336842 87.082105 
L 217.016268 87.082105 
L 227.695694 87.082105 
L 238.37512 87.082105 
L 249.054545 87.082105 
" clip-path="url(#p31e1447e69)" style="fill: none; stroke: #44eed2; stroke-width: 1.5; stroke-linecap: square"/>
   </g>
   <g id="line2d_17">
    <path d="M 46.145455 76.471579 
L 56.82488 76.471579 
L 67.504306 76.471579 
L 78.183732 76.471579 
L 88.863158 76.471579 
L 99.542584 76.471579 
L 110.22201 76.471579 
L 120.901435 76.471579 
L 131.580861 76.471579 
L 142.260287 76.471579 
L 152.939713 76.471579 
L 163.619139 76.471579 
L 174.298565 76.471579 
L 184.97799 76.471579 
L 195.657416 76.471579 
L 206.336842 76.471579 
L 217.016268 76.471579 
L 227.695694 76.471579 
L 238.37512 76.471579 
L 249.054545 76.471579 
" clip-path="url(#p31e1447e69)" style="fill: none; stroke: #52f5cb; stroke-width: 1.5; stroke-linecap: square"/>
   </g>
   <g id="line2d_18">
    <path d="M 46.145455 65.861053 
L 56.82488 65.861053 
L 67.504306 65.861053 
L 78.183732 65.861053 
L 88.863158 65.861053 
L 99.542584 65.861053 
L 110.22201 65.861053 
L 120.901435 65.861053 
L 131.580861 65.861053 
L 142.260287 65.861053 
L 152.939713 65.861053 
L 163.619139 65.861053 
L 174.298565 65.861053 
L 184.97799 65.861053 
L 195.657416 65.861053 
L 206.336842 65.861053 
L 217.016268 65.861053 
L 227.695694 65.861053 
L 238.37512 65.861053 
L 249.054545 65.861053 
" clip-path="url(#p31e1447e69)" style="fill: none; stroke: #5efac6; stroke-width: 1.5; stroke-linecap: square"/>
   </g>
   <g id="line2d_19">
    <path d="M 46.145455 55.250526 
L 56.82488 55.250526 
L 67.504306 55.250526 
L 78.183732 55.250526 
L 88.863158 55.250526 
L 99.542584 55.250526 
L 110.22201 55.250526 
L 120.901435 55.250526 
L 131.580861 55.250526 
L 142.260287 55.250526 
L 152.939713 55.250526 
L 163.619139 55.250526 
L 174.298565 55.250526 
L 184.97799 55.250526 
L 195.657416 55.250526 
L 206.336842 55.250526 
L 217.016268 55.250526 
L 227.695694 55.250526 
L 238.37512 55.250526 
L 249.054545 55.250526 
" clip-path="url(#p31e1447e69)" style="fill: none; stroke: #6dfdbf; stroke-width: 1.5; stroke-linecap: square"/>
   </g>
   <g id="line2d_20">
    <path d="M 46.145455 44.64 
L 56.82488 44.64 
L 67.504306 44.64 
L 78.183732 44.64 
L 88.863158 44.64 
L 99.542584 44.64 
L 110.22201 44.64 
L 120.901435 44.64 
L 131.580861 44.64 
L 142.260287 44.64 
L 152.939713 44.64 
L 163.619139 44.64 
L 174.298565 44.64 
L 184.97799 44.64 
L 195.657416 44.64 
L 206.336842 44.64 
L 217.016268 44.64 
L 227.695694 44.64 
L 238.37512 44.64 
L 249.054545 44.64 
" clip-path="url(#p31e1447e69)" style="fill: none; stroke: #78ffb8; stroke-width: 1.5; stroke-linecap: square"/>
   </g>
   <g id="line2d_21">
    <path d="M 46.145455 246.24 
L 46.145455 235.629474 
L 46.145455 225.018947 
L 46.145455 214.408421 
L 46.145455 203.797895 
L 46.145455 193.187368 
L 46.145455 182.576842 
L 46.145455 171.966316 
L 46.145455 161.355789 
L 46.145455 150.745263 
L 46.145455 140.134737 
L 46.145455 129.524211 
L 46.145455 118.913684 
L 46.145455 108.303158 
L 46.145455 97.692632 
L 46.145455 87.082105 
L 46.145455 76.471579 
L 46.145455 65.861053 
L 46.145455 55.250526 
L 46.145455 44.64 
" clip-path="url(#p31e1447e69)" style="fill: none; stroke: #86ffb0; stroke-width: 1.5; stroke-linecap: square"/>
   </g>
   <g id="line2d_22">
    <path d="M 56.82488 246.24 
L 56.82488 235.629474 
L 56.82488 225.018947 
L 56.82488 214.408421 
L 56.82488 203.797895 
L 56.82488 193.187368 
L 56.82488 182.576842 
L 56.82488 171.966316 
L 56.82488 161.355789 
L 56.82488 150.745263 
L 56.82488 140.134737 
L 56.82488 129.524211 
L 56.82488 118.913684 
L 56.82488 108.303158 
L 56.82488 97.692632 
L 56.82488 87.082105 
L 56.82488 76.471579 
L 56.82488 65.861053 
L 56.82488 55.250526 
L 56.82488 44.64 
" clip-path="url(#p31e1447e69)" style="fill: none; stroke: #92fda9; stroke-width: 1.5; stroke-linecap: square"/>
   </g>
   <g id="line2d_23">
    <path d="M 67.504306 246.24 
L 67.504306 235.629474 
L 67.504306 225.018947 
L 67.504306 214.408421 
L 67.504306 203.797895 
L 67.504306 193.187368 
L 67.504306 182.576842 
L 67.504306 171.966316 
L 67.504306 161.355789 
L 67.504306 150.745263 
L 67.504306 140.134737 
L 67.504306 129.524211 
L 67.504306 118.913684 
L 67.504306 108.303158 
L 67.504306 97.692632 
L 67.504306 87.082105 
L 67.504306 76.471579 
L 67.504306 65.861053 
L 67.504306 55.250526 
L 67.504306 44.64 
" clip-path="url(#p31e1447e69)" style="fill: none; stroke: #a0faa1; stroke-width: 1.5; stroke-linecap: square"/>
   </g>
   <g id="line2d_24">
    <path d="M 78.183732 246.24 
L 78.183732 235.629474 
L 78.183732 225.018947 
L 78.183732 214.408421 
L 78.183732 203.797895 
L 78.183732 193.187368 
L 78.183732 182.576842 
L 78.183732 171.966316 
L 78.183732 161.355789 
L 78.183732 150.745263 
L 78.183732 140.134737 
L 78.183732 129.524211 
L 78.183732 118.913684 
L 78.183732 108.303158 
L 78.183732 97.692632 
L 78.183732 87.082105 
L 78.183732 76.471579 
L 78.183732 65.861053 
L 78.183732 55.250526 
L 78.183732 44.64 
" clip-path="url(#p31e1447e69)" style="fill: none; stroke: #acf59a; stroke-width: 1.5; stroke-linecap: square"/>
   </g>
   <g id="line2d_25">
    <path d="M 88.863158 246.24 
L 88.863158 235.629474 
L 88.863158 225.018947 
L 88.863158 214.408421 
L 88.863158 203.797895 
L 88.863158 193.187368 
L 88.863158 182.576842 
L 88.863158 171.966316 
L 88.863158 161.355789 
L 88.863158 150.745263 
L 88.863158 140.134737 
L 88.863158 129.524211 
L 88.863158 118.913684 
L 88.863158 108.303158 
L 88.863158 97.692632 
L 88.863158 87.082105 
L 88.863158 76.471579 
L 88.863158 65.861053 
L 88.863158 55.250526 
L 88.863158 44.64 
" clip-path="url(#p31e1447e69)" style="fill: none; stroke: #bbee91; stroke-width: 1.5; stroke-linecap: square"/>
   </g>
   <g id="line2d_26">
    <path d="M 99.542584 246.24 
L 99.542584 235.629474 
L 99.542584 225.018947 
L 99.542584 214.408421 
L 99.542584 203.797895 
L 99.542584 193.187368 
L 99.542584 182.576842 
L 99.542584 171.966316 
L 99.542584 161.355789 
L 99.542584 150.745263 
L 99.542584 140.134737 
L 99.542584 129.524211 
L 99.542584 118.913684 
L 99.542584 108.303158 
L 99.542584 97.692632 
L 99.542584 87.082105 
L 99.542584 76.471579 
L 99.542584 65.861053 
L 99.542584 55.250526 
L 99.542584 44.64 
" clip-path="url(#p31e1447e69)" style="fill: none; stroke: #c8e688; stroke-width: 1.5; stroke-linecap: square"/>
   </g>
   <g id="line2d_27">
    <path d="M 110.22201 246.24 
L 110.22201 235.629474 
L 110.22201 225.018947 
L 110.22201 214.408421 
L 110.22201 203.797895 
L 110.22201 193.187368 
L 110.22201 182.576842 
L 110.22201 171.966316 
L 110.22201 161.355789 
L 110.22201 150.745263 
L 110.22201 140.134737 
L 110.22201 129.524211 
L 110.22201 118.913684 
L 110.22201 108.303158 
L 110.22201 97.692632 
L 110.22201 87.082105 
L 110.22201 76.471579 
L 110.22201 65.861053 
L 110.22201 55.250526 
L 110.22201 44.64 
" clip-path="url(#p31e1447e69)" style="fill: none; stroke: #d4dd80; stroke-width: 1.5; stroke-linecap: square"/>
   </g>
   <g id="line2d_28">
    <path d="M 120.901435 246.24 
L 120.901435 235.629474 
L 120.901435 225.018947 
L 120.901435 214.408421 
L 120.901435 203.797895 
L 120.901435 193.187368 
L 120.901435 182.576842 
L 120.901435 171.966316 
L 120.901435 161.355789 
L 120.901435 150.745263 
L 120.901435 140.134737 
L 120.901435 129.524211 
L 120.901435 118.913684 
L 120.901435 108.303158 
L 120.901435 97.692632 
L 120.901435 87.082105 
L 120.901435 76.471579 
L 120.901435 65.861053 
L 120.901435 55.250526 
L 120.901435 44.64 
" clip-path="url(#p31e1447e69)" style="fill: none; stroke: #e2d176; stroke-width: 1.5; stroke-linecap: square"/>
   </g>
   <g id="line2d_29">
    <path d="M 131.580861 246.24 
L 131.580861 235.629474 
L 131.580861 225.018947 
L 131.580861 214.408421 
L 131.580861 203.797895 
L 131.580861 193.187368 
L 131.580861 182.576842 
L 131.580861 171.966316 
L 131.580861 161.355789 
L 131.580861 150.745263 
L 131.580861 140.134737 
L 131.580861 129.524211 
L 131.580861 118.913684 
L 131.580861 108.303158 
L 131.580861 97.692632 
L 131.580861 87.082105 
L 131.580861 76.471579 
L 131.580861 65.861053 
L 131.580861 55.250526 
L 131.580861 44.64 
" clip-path="url(#p31e1447e69)" style="fill: none; stroke: #eec66d; stroke-width: 1.5; stroke-linecap: square"/>
   </g>
   <g id="line2d_30">
    <path d="M 142.260287 246.24 
L 142.260287 235.629474 
L 142.260287 225.018947 
L 142.260287 214.408421 
L 142.260287 203.797895 
L 142.260287 193.187368 
L 142.260287 182.576842 
L 142.260287 171.966316 
L 142.260287 161.355789 
L 142.260287 150.745263 
L 142.260287 140.134737 
L 142.260287 129.524211 
L 142.260287 118.913684 
L 142.260287 108.303158 
L 142.260287 97.692632 
L 142.260287 87.082105 
L 142.260287 76.471579 
L 142.260287 65.861053 
L 142.260287 55.250526 
L 142.260287 44.64 
" clip-path="url(#p31e1447e69)" style="fill: none; stroke: #fcb763; stroke-width: 1.5; stroke-linecap: square"/>
   </g>
   <g id="line2d_31">
    <path d="M 152.939713 246.24 
L 152.939713 235.629474 
L 152.939713 225.018947 
L 152.939713 214.408421 
L 152.939713 203.797895 
L 152.939713 193.187368 
L 152.939713 182.576842 
L 152.939713 171.966316 
L 152.939713 161.355789 
L 152.939713 150.745263 
L 152.939713 140.134737 
L 152.939713 129.524211 
L 152.939713 118.913684 
L 152.939713 108.303158 
L 152.939713 97.692632 
L 152.939713 87.082105 
L 152.939713 76.471579 
L 152.939713 65.861053 
L 152.939713 55.250526 
L 152.939713 44.64 
" clip-path="url(#p31e1447e69)" style="fill: none; stroke: #ffa95b; stroke-width: 1.5; stroke-linecap: square"/>
   </g>
   <g id="line2d_32">
    <path d="M 163.619139 246.24 
L 163.619139 235.629474 
L 163.619139 225.018947 
L 163.619139 214.408421 
L 163.619139 203.797895 
L 163.619139 193.187368 
L 163.619139 182.576842 
L 163.619139 171.966316 
L 163.619139 161.355789 
L 163.619139 150.745263 
L 163.619139 140.134737 
L 163.619139 129.524211 
L 163.619139 118.913684 
L 163.619139 108.303158 
L 163.619139 97.692632 
L 163.619139 87.082105 
L 163.619139 76.471579 
L 163.619139 65.861053 
L 163.619139 55.250526 
L 163.619139 44.64 
" clip-path="url(#p31e1447e69)" style="fill: none; stroke: #ff9850; stroke-width: 1.5; stroke-linecap: square"/>
   </g>
   <g id="line2d_33">
    <path d="M 174.298565 246.24 
L 174.298565 235.629474 
L 174.298565 225.018947 
L 174.298565 214.408421 
L 174.298565 203.797895 
L 174.298565 193.187368 
L 174.298565 182.576842 
L 174.298565 171.966316 
L 174.298565 161.355789 
L 174.298565 150.745263 
L 174.298565 140.134737 
L 174.298565 129.524211 
L 174.298565 118.913684 
L 174.298565 108.303158 
L 174.298565 97.692632 
L 174.298565 87.082105 
L 174.298565 76.471579 
L 174.298565 65.861053 
L 174.298565 55.250526 
L 174.298565 44.64 
" clip-path="url(#p31e1447e69)" style="fill: none; stroke: #ff8646; stroke-width: 1.5; stroke-linecap: square"/>
   </g>
   <g id="line2d_34">
    <path d="M 184.97799 246.24 
L 184.97799 235.629474 
L 184.97799 225.018947 
L 184.97799 214.408421 
L 184.97799 203.797895 
L 184.97799 193.187368 
L 184.97799 182.576842 
L 184.97799 171.966316 
L 184.97799 161.355789 
L 184.97799 150.745263 
L 184.97799 140.134737 
L 184.97799 129.524211 
L 184.97799 118.913684 
L 184.97799 108.303158 
L 184.97799 97.692632 
L 184.97799 87.082105 
L 184.97799 76.471579 
L 184.97799 65.861053 
L 184.97799 55.250526 
L 184.97799 44.64 
" clip-path="url(#p31e1447e69)" style="fill: none; stroke: #ff763d; stroke-width: 1.5; stroke-linecap: square"/>
   </g>
   <g id="line2d_35">
    <path d="M 195.657416 246.24 
L 195.657416 235.629474 
L 195.657416 225.018947 
L 195.657416 214.408421 
L 195.657416 203.797895 
L 195.657416 193.187368 
L 195.657416 182.576842 
L 195.657416 171.966316 
L 195.657416 161.355789 
L 195.657416 150.745263 
L 195.657416 140.134737 
L 195.657416 129.524211 
L 195.657416 118.913684 
L 195.657416 108.303158 
L 195.657416 97.692632 
L 195.657416 87.082105 
L 195.657416 76.471579 
L 195.657416 65.861053 
L 195.657416 55.250526 
L 195.657416 44.64 
" clip-path="url(#p31e1447e69)" style="fill: none; stroke: #ff6232; stroke-width: 1.5; stroke-linecap: square"/>
   </g>
   <g id="line2d_36">
    <path d="M 206.336842 246.24 
L 206.336842 235.629474 
L 206.336842 225.018947 
L 206.336842 214.408421 
L 206.336842 203.797895 
L 206.336842 193.187368 
L 206.336842 182.576842 
L 206.336842 171.966316 
L 206.336842 161.355789 
L 206.336842 150.745263 
L 206.336842 140.134737 
L 206.336842 129.524211 
L 206.336842 118.913684 
L 206.336842 108.303158 
L 206.336842 97.692632 
L 206.336842 87.082105 
L 206.336842 76.471579 
L 206.336842 65.861053 
L 206.336842 55.250526 
L 206.336842 44.64 
" clip-path="url(#p31e1447e69)" style="fill: none; stroke: #ff5029; stroke-width: 1.5; stroke-linecap: square"/>
   </g>
   <g id="line2d_37">
    <path d="M 217.016268 246.24 
L 217.016268 235.629474 
L 217.016268 225.018947 
L 217.016268 214.408421 
L 217.016268 203.797895 
L 217.016268 193.187368 
L 217.016268 182.576842 
L 217.016268 171.966316 
L 217.016268 161.355789 
L 217.016268 150.745263 
L 217.016268 140.134737 
L 217.016268 129.524211 
L 217.016268 118.913684 
L 217.016268 108.303158 
L 217.016268 97.692632 
L 217.016268 87.082105 
L 217.016268 76.471579 
L 217.016268 65.861053 
L 217.016268 55.250526 
L 217.016268 44.64 
" clip-path="url(#p31e1447e69)" style="fill: none; stroke: #ff3b1e; stroke-width: 1.5; stroke-linecap: square"/>
   </g>
   <g id="line2d_38">
    <path d="M 227.695694 246.24 
L 227.695694 235.629474 
L 227.695694 225.018947 
L 227.695694 214.408421 
L 227.695694 203.797895 
L 227.695694 193.187368 
L 227.695694 182.576842 
L 227.695694 171.966316 
L 227.695694 161.355789 
L 227.695694 150.745263 
L 227.695694 140.134737 
L 227.695694 129.524211 
L 227.695694 118.913684 
L 227.695694 108.303158 
L 227.695694 97.692632 
L 227.695694 87.082105 
L 227.695694 76.471579 
L 227.695694 65.861053 
L 227.695694 55.250526 
L 227.695694 44.64 
" clip-path="url(#p31e1447e69)" style="fill: none; stroke: #ff2914; stroke-width: 1.5; stroke-linecap: square"/>
   </g>
   <g id="line2d_39">
    <path d="M 238.37512 246.24 
L 238.37512 235.629474 
L 238.37512 225.018947 
L 238.37512 214.408421 
L 238.37512 203.797895 
L 238.37512 193.187368 
L 238.37512 182.576842 
L 238.37512 171.966316 
L 238.37512 161.355789 
L 238.37512 150.745263 
L 238.37512 140.134737 
L 238.37512 129.524211 
L 238.37512 118.913684 
L 238.37512 108.303158 
L 238.37512 97.692632 
L 238.37512 87.082105 
L 238.37512 76.471579 
L 238.37512 65.861053 
L 238.37512 55.250526 
L 238.37512 44.64 
" clip-path="url(#p31e1447e69)" style="fill: none; stroke: #ff1309; stroke-width: 1.5; stroke-linecap: square"/>
   </g>
   <g id="line2d_40">
    <path d="M 249.054545 246.24 
L 249.054545 235.629474 
L 249.054545 225.018947 
L 249.054545 214.408421 
L 249.054545 203.797895 
L 249.054545 193.187368 
L 249.054545 182.576842 
L 249.054545 171.966316 
L 249.054545 161.355789 
L 249.054545 150.745263 
L 249.054545 140.134737 
L 249.054545 129.524211 
L 249.054545 118.913684 
L 249.054545 108.303158 
L 249.054545 97.692632 
L 249.054545 87.082105 
L 249.054545 76.471579 
L 249.054545 65.861053 
L 249.054545 55.250526 
L 249.054545 44.64 
" clip-path="url(#p31e1447e69)" style="fill: none; stroke: #ff0000; stroke-width: 1.5; stroke-linecap: square"/>
   </g>
  </g>
 </g>
 <defs>
  <clipPath id="p31e1447e69">
   <rect x="36" y="34.56" width="223.2" height="221.76"/>
  </clipPath>
 </defs>
</svg>
