<?xml version="1.0" encoding="utf-8" standalone="no"?>
<!DOCTYPE svg PUBLIC "-//W3C//DTD SVG 1.1//EN"
  "http://www.w3.org/Graphics/SVG/1.1/DTD/svg11.dtd">
<svg xmlns:xlink="http://www.w3.org/1999/xlink" width="288pt" height="288pt" viewBox="0 0 288 288" xmlns="http://www.w3.org/2000/svg" version="1.1">
 <metadata>
  <rdf:RDF xmlns:dc="http://purl.org/dc/elements/1.1/" xmlns:cc="http://creativecommons.org/ns#" xmlns:rdf="http://www.w3.org/1999/02/22-rdf-syntax-ns#">
   <cc:Work>
    <dc:type rdf:resource="http://purl.org/dc/dcmitype/StillImage"/>
    <dc:date>2025-11-30T15:10:34.690871</dc:date>
    <dc:format>image/svg+xml</dc:format>
    <dc:creator>
     <cc:Agent>
      <dc:title>Matplotlib v3.10.6, https://matplotlib.org/</dc:title>
     </cc:Agent>
    </dc:creator>
   </cc:Work>
  </rdf:RDF>
 </metadata>
 <defs>
  <style type="text/css">*{stroke-linejoin: round; stroke-linecap: butt}</style>
 </defs>
 <g id="figure_1">
  <g id="patch_1">
   <path d="M 0 288 
L 288 288 
L 288 0 
L 0 0 
z
" style="fill: #ffffff"/>
  </g>
  <g id="axes_1">
   <g id="patch_2">
    <path d="M 36 256.32 
L 259.2 256.32 
L 259.2 34.56 
L 36 34.56 
z
" style="fill: #ffffff"/>
   </g>
   <g id="matplotlib.axis_1"/>
   <g id="matplotlib.axis_2"/>
   <g id="QuadContourSet_1">
    <path d="M 259.2 256.32 
L 259.2 34.56 
M 36 34.56 
L 36 256.32 
L 36 256.32 
" clip-path="url(#pa7197091e0)" style="fill: none; stroke: #000000; stroke-width: 0.25"/>
    <path d="M 77.85 256.32 
L 77.85 34.56 
M 133.65 256.32 
L 133.65 34.56 
M 189.45 256.32 
L 189.45 34.56 
M 245.25 256.32 
L 245.25 34.56 
M 49.95 34.56 
L 49.95 256.32 
M 105.75 34.56 
L 105.75 256.32 
M 161.55 34.56 
L 161.55 256.32 
M 217.35 34.56 
L 217.35 256.32 
L 217.35 256.32 
" clip-path="url(#pa7197091e0)" style="fill: none; stroke: #000000; stroke-width: 0.25"/>
    <path clip-path="url(#pa7197091e0)" style="fill: none; stroke: #000000; stroke-width: 0.25"/>
   </g>
   <g id="QuadContourSet_2">
    <path d="M 36 256.32 
L 259.2 256.32 
M 259.2 34.56 
L 36 34.56 
L 36 34.56 
" clip-path="url(#pa7197091e0)" style="fill: none; stroke: #000000; stroke-width: 0.25"/>
    <path d="M 36 242.46 
L 259.2 242.46 
M 259.2 214.74 
L 36 214.74 
M 36 187.02 
L 259.2 187.02 
M 259.2 159.3 
L 36 159.3 
M 36 131.58 
L 259.2 131.58 
M 259.2 103.86 
L 36 103.86 
M 36 76.14 
L 259.2 76.14 
M 259.2 48.42 
L 36 48.42 
L 36 48.42 
" clip-path="url(#pa7197091e0)" style="fill: none; stroke: #000000; stroke-width: 0.25"/>
    <path clip-path="url(#pa7197091e0)" style="fill: none; stroke: #000000; stroke-width: 0.25"/>
   </g>
   <g id="patch_3">
    <path d="M 36 256.32 
L 36 34.56 
" style="fill: none; stroke: #000000; stroke-width: 0.8; stroke-linejoin: miter; stroke-linecap: square"/>
   </g>
   <g id="patch_4">
    <path d="M 259.2 256.32 
L 259.2 34.56 
" style="fill: none; stroke: #000000; stroke-width: 0.8; stroke-linejoin: miter; stroke-linecap: square"/>
   </g>
   <g id="patch_5">
    <path d="M 36 256.32 
L 259.2 256.32 
" style="fill: none; stroke: #000000; stroke-width: 0.8; stroke-linejoin: miter; stroke-linecap: square"/>
   </g>
   <g id="patch_6">
    <path d="M 36 34.56 
L 259.2 34.56 
" style="fill: none; stroke: #000000; stroke-width: 0.8; stroke-linejoin: miter; stroke-linecap: square"/>
   </g>
  </g>
 </g>
 <defs>
  <clipPath id="pa7197091e0">
   <rect x="36" y="34.56" width="223.2" height="221.76"/>
  </clipPath>
 </defs>
</svg>
