<?xml version="1.0" encoding="utf-8" standalone="no"?>
<!DOCTYPE svg PUBLIC "-//W3C//DTD SVG 1.1//EN"
  "http://www.w3.org/Graphics/SVG/1.1/DTD/svg11.dtd">
<svg xmlns:xlink="http://www.w3.org/1999/xlink" width="360pt" height="360pt" viewBox="0 0 360 360" xmlns="http://www.w3.org/2000/svg" version="1.1">
 <metadata>
  <rdf:RDF xmlns:dc="http://purl.org/dc/elements/1.1/" xmlns:cc="http://creativecommons.org/ns#" xmlns:rdf="http://www.w3.org/1999/02/22-rdf-syntax-ns#">
   <cc:Work>
    <dc:type rdf:resource="http://purl.org/dc/dcmitype/StillImage"/>
    <dc:date>2025-11-29T13:34:38.124313</dc:date>
    <dc:format>image/svg+xml</dc:format>
    <dc:creator>
     <cc:Agent>
      <dc:title>Matplotlib v3.10.6, https://matplotlib.org/</dc:title>
     </cc:Agent>
    </dc:creator>
   </cc:Work>
  </rdf:RDF>
 </metadata>
 <defs>
  <style type="text/css">*{stroke-linejoin: round; stroke-linecap: butt}</style>
 </defs>
 <g id="figure_1">
  <g id="patch_1">
   <path d="M 0 360 
L 360 360 
L 360 0 
L 0 0 
z
" style="fill: #ffffff"/>
  </g>
  <g id="axes_1">
   <g id="patch_2">
    <path d="M 323.1 181.8 
C 323.1 163.599215 319.514842 145.575409 312.549703 128.760076 
C 305.584564 111.944743 295.374899 96.664899 282.505 83.795 
C 269.635101 70.925101 254.355257 60.715436 237.539924 53.750297 
C 220.724591 46.785158 202.700785 43.2 184.5 43.2 
C 166.299215 43.2 148.275409 46.785158 131.460076 53.750297 
C 114.644743 60.715436 99.364899 70.925101 86.495 83.795 
C 73.625101 96.664899 63.415436 111.944743 56.450297 128.760076 
C 49.485158 145.575409 45.9 163.599215 45.9 181.8 
C 45.9 200.000785 49.485158 218.024591 56.450297 234.839924 
C 63.415436 251.655257 73.625101 266.935101 86.495 279.805 
C 99.364899 292.674899 114.644743 302.884564 131.460076 309.849703 
C 148.275409 316.814842 166.299215 320.4 184.5 320.4 
C 202.700785 320.4 220.724591 316.814842 237.539924 309.849703 
C 254.355257 302.884564 269.635101 292.674899 282.505 279.805 
C 295.374899 266.935101 305.584564 251.655257 312.549703 234.839924 
C 319.514842 218.024591 323.1 200.000785 323.1 181.8 
M 184.5 181.8 
C 184.5 181.8 184.5 181.8 184.5 181.8 
C 184.5 181.8 184.5 181.8 184.5 181.8 
C 184.5 181.8 184.5 181.8 184.5 181.8 
C 184.5 181.8 184.5 181.8 184.5 181.8 
C 184.5 181.8 184.5 181.8 184.5 181.8 
C 184.5 181.8 184.5 181.8 184.5 181.8 
C 184.5 181.8 184.5 181.8 184.5 181.8 
C 184.5 181.8 184.5 181.8 184.5 181.8 
C 184.5 181.8 184.5 181.8 184.5 181.8 
C 184.5 181.8 184.5 181.8 184.5 181.8 
C 184.5 181.8 184.5 181.8 184.5 181.8 
C 184.5 181.8 184.5 181.8 184.5 181.8 
C 184.5 181.8 184.5 181.8 184.5 181.8 
C 184.5 181.8 184.5 181.8 184.5 181.8 
C 184.5 181.8 184.5 181.8 184.5 181.8 
C 184.5 181.8 184.5 181.8 184.5 181.8 
z
" style="fill: #ffffff"/>
   </g>
   <g id="matplotlib.axis_1">
    <g id="xtick_1">
     <g id="line2d_1">
      <path d="M 184.5 181.8 
L 323.1 181.8 
" clip-path="url(#pe208193b99)" style="fill: none; stroke: #b0b0b0; stroke-width: 0.8; stroke-linecap: square"/>
     </g>
     <g id="text_1">
      <!-- 0° -->
      <g transform="translate(331.41875 184.559375) scale(0.1 -0.1)">
       <defs>
        <path id="DejaVuSans-30" d="M 2034 4250 
Q 1547 4250 1301 3770 
Q 1056 3291 1056 2328 
Q 1056 1369 1301 889 
Q 1547 409 2034 409 
Q 2525 409 2770 889 
Q 3016 1369 3016 2328 
Q 3016 3291 2770 3770 
Q 2525 4250 2034 4250 
z
M 2034 4750 
Q 2819 4750 3233 4129 
Q 3647 3509 3647 2328 
Q 3647 1150 3233 529 
Q 2819 -91 2034 -91 
Q 1250 -91 836 529 
Q 422 1150 422 2328 
Q 422 3509 836 4129 
Q 1250 4750 2034 4750 
z
" transform="scale(0.015625)"/>
        <path id="DejaVuSans-b0" d="M 1600 4347 
Q 1350 4347 1178 4173 
Q 1006 4000 1006 3750 
Q 1006 3503 1178 3333 
Q 1350 3163 1600 3163 
Q 1850 3163 2022 3333 
Q 2194 3503 2194 3750 
Q 2194 3997 2020 4172 
Q 1847 4347 1600 4347 
z
M 1600 4750 
Q 1800 4750 1984 4673 
Q 2169 4597 2303 4453 
Q 2447 4313 2519 4134 
Q 2591 3956 2591 3750 
Q 2591 3338 2302 3052 
Q 2013 2766 1594 2766 
Q 1172 2766 890 3047 
Q 609 3328 609 3750 
Q 609 4169 896 4459 
Q 1184 4750 1600 4750 
z
" transform="scale(0.015625)"/>
       </defs>
       <use xlink:href="#DejaVuSans-30"/>
       <use xlink:href="#DejaVuSans-b0" transform="translate(63.623047 0)"/>
      </g>
     </g>
    </g>
    <g id="xtick_2">
     <g id="line2d_2">
      <path d="M 184.5 181.8 
L 282.505 83.795 
" clip-path="url(#pe208193b99)" style="fill: none; stroke: #b0b0b0; stroke-width: 0.8; stroke-linecap: square"/>
     </g>
     <g id="text_2">
      <!-- 45° -->
      <g transform="translate(283.541995 76.65488) scale(0.1 -0.1)">
       <defs>
        <path id="DejaVuSans-34" d="M 2419 4116 
L 825 1625 
L 2419 1625 
L 2419 4116 
z
M 2253 4666 
L 3047 4666 
L 3047 1625 
L 3713 1625 
L 3713 1100 
L 3047 1100 
L 3047 0 
L 2419 0 
L 2419 1100 
L 313 1100 
L 313 1709 
L 2253 4666 
z
" transform="scale(0.015625)"/>
        <path id="DejaVuSans-35" d="M 691 4666 
L 3169 4666 
L 3169 4134 
L 1269 4134 
L 1269 2991 
Q 1406 3038 1543 3061 
Q 1681 3084 1819 3084 
Q 2600 3084 3056 2656 
Q 3513 2228 3513 1497 
Q 3513 744 3044 326 
Q 2575 -91 1722 -91 
Q 1428 -91 1123 -41 
Q 819 9 494 109 
L 494 744 
Q 775 591 1075 516 
Q 1375 441 1709 441 
Q 2250 441 2565 725 
Q 2881 1009 2881 1497 
Q 2881 1984 2565 2268 
Q 2250 2553 1709 2553 
Q 1456 2553 1204 2497 
Q 953 2441 691 2322 
L 691 4666 
z
" transform="scale(0.015625)"/>
       </defs>
       <use xlink:href="#DejaVuSans-34"/>
       <use xlink:href="#DejaVuSans-35" transform="translate(63.623047 0)"/>
       <use xlink:href="#DejaVuSans-b0" transform="translate(127.246094 0)"/>
      </g>
     </g>
    </g>
    <g id="xtick_3">
     <g id="line2d_3">
      <path d="M 184.5 181.8 
L 184.5 43.2 
" clip-path="url(#pe208193b99)" style="fill: none; stroke: #b0b0b0; stroke-width: 0.8; stroke-linecap: square"/>
     </g>
     <g id="text_3">
      <!-- 90° -->
      <g transform="translate(175.6375 31.959375) scale(0.1 -0.1)">
       <defs>
        <path id="DejaVuSans-39" d="M 703 97 
L 703 672 
Q 941 559 1184 500 
Q 1428 441 1663 441 
Q 2288 441 2617 861 
Q 2947 1281 2994 2138 
Q 2813 1869 2534 1725 
Q 2256 1581 1919 1581 
Q 1219 1581 811 2004 
Q 403 2428 403 3163 
Q 403 3881 828 4315 
Q 1253 4750 1959 4750 
Q 2769 4750 3195 4129 
Q 3622 3509 3622 2328 
Q 3622 1225 3098 567 
Q 2575 -91 1691 -91 
Q 1453 -91 1209 -44 
Q 966 3 703 97 
z
M 1959 2075 
Q 2384 2075 2632 2365 
Q 2881 2656 2881 3163 
Q 2881 3666 2632 3958 
Q 2384 4250 1959 4250 
Q 1534 4250 1286 3958 
Q 1038 3666 1038 3163 
Q 1038 2656 1286 2365 
Q 1534 2075 1959 2075 
z
" transform="scale(0.015625)"/>
       </defs>
       <use xlink:href="#DejaVuSans-39"/>
       <use xlink:href="#DejaVuSans-30" transform="translate(63.623047 0)"/>
       <use xlink:href="#DejaVuSans-b0" transform="translate(127.246094 0)"/>
      </g>
     </g>
    </g>
    <g id="xtick_4">
     <g id="line2d_4">
      <path d="M 184.5 181.8 
L 86.495 83.795 
" clip-path="url(#pe208193b99)" style="fill: none; stroke: #b0b0b0; stroke-width: 0.8; stroke-linecap: square"/>
     </g>
     <g id="text_4">
      <!-- 135° -->
      <g transform="translate(64.551755 76.65488) scale(0.1 -0.1)">
       <defs>
        <path id="DejaVuSans-31" d="M 794 531 
L 1825 531 
L 1825 4091 
L 703 3866 
L 703 4441 
L 1819 4666 
L 2450 4666 
L 2450 531 
L 3481 531 
L 3481 0 
L 794 0 
L 794 531 
z
" transform="scale(0.015625)"/>
        <path id="DejaVuSans-33" d="M 2597 2516 
Q 3050 2419 3304 2112 
Q 3559 1806 3559 1356 
Q 3559 666 3084 287 
Q 2609 -91 1734 -91 
Q 1441 -91 1130 -33 
Q 819 25 488 141 
L 488 750 
Q 750 597 1062 519 
Q 1375 441 1716 441 
Q 2309 441 2620 675 
Q 2931 909 2931 1356 
Q 2931 1769 2642 2001 
Q 2353 2234 1838 2234 
L 1294 2234 
L 1294 2753 
L 1863 2753 
Q 2328 2753 2575 2939 
Q 2822 3125 2822 3475 
Q 2822 3834 2567 4026 
Q 2313 4219 1838 4219 
Q 1578 4219 1281 4162 
Q 984 4106 628 3988 
L 628 4550 
Q 988 4650 1302 4700 
Q 1616 4750 1894 4750 
Q 2613 4750 3031 4423 
Q 3450 4097 3450 3541 
Q 3450 3153 3228 2886 
Q 3006 2619 2597 2516 
z
" transform="scale(0.015625)"/>
       </defs>
       <use xlink:href="#DejaVuSans-31"/>
       <use xlink:href="#DejaVuSans-33" transform="translate(63.623047 0)"/>
       <use xlink:href="#DejaVuSans-35" transform="translate(127.246094 0)"/>
       <use xlink:href="#DejaVuSans-b0" transform="translate(190.869141 0)"/>
      </g>
     </g>
    </g>
    <g id="xtick_5">
     <g id="line2d_5">
      <path d="M 184.5 181.8 
L 45.9 181.8 
" clip-path="url(#pe208193b99)" style="fill: none; stroke: #b0b0b0; stroke-width: 0.8; stroke-linecap: square"/>
     </g>
     <g id="text_5">
      <!-- 180° -->
      <g transform="translate(19.85625 184.559375) scale(0.1 -0.1)">
       <defs>
        <path id="DejaVuSans-38" d="M 2034 2216 
Q 1584 2216 1326 1975 
Q 1069 1734 1069 1313 
Q 1069 891 1326 650 
Q 1584 409 2034 409 
Q 2484 409 2743 651 
Q 3003 894 3003 1313 
Q 3003 1734 2745 1975 
Q 2488 2216 2034 2216 
z
M 1403 2484 
Q 997 2584 770 2862 
Q 544 3141 544 3541 
Q 544 4100 942 4425 
Q 1341 4750 2034 4750 
Q 2731 4750 3128 4425 
Q 3525 4100 3525 3541 
Q 3525 3141 3298 2862 
Q 3072 2584 2669 2484 
Q 3125 2378 3379 2068 
Q 3634 1759 3634 1313 
Q 3634 634 3220 271 
Q 2806 -91 2034 -91 
Q 1263 -91 848 271 
Q 434 634 434 1313 
Q 434 1759 690 2068 
Q 947 2378 1403 2484 
z
M 1172 3481 
Q 1172 3119 1398 2916 
Q 1625 2713 2034 2713 
Q 2441 2713 2670 2916 
Q 2900 3119 2900 3481 
Q 2900 3844 2670 4047 
Q 2441 4250 2034 4250 
Q 1625 4250 1398 4047 
Q 1172 3844 1172 3481 
z
" transform="scale(0.015625)"/>
       </defs>
       <use xlink:href="#DejaVuSans-31"/>
       <use xlink:href="#DejaVuSans-38" transform="translate(63.623047 0)"/>
       <use xlink:href="#DejaVuSans-30" transform="translate(127.246094 0)"/>
       <use xlink:href="#DejaVuSans-b0" transform="translate(190.869141 0)"/>
      </g>
     </g>
    </g>
    <g id="xtick_6">
     <g id="line2d_6">
      <path d="M 184.5 181.8 
L 86.495 279.805 
" clip-path="url(#pe208193b99)" style="fill: none; stroke: #b0b0b0; stroke-width: 0.8; stroke-linecap: square"/>
     </g>
     <g id="text_6">
      <!-- 225° -->
      <g transform="translate(64.551755 292.46387) scale(0.1 -0.1)">
       <defs>
        <path id="DejaVuSans-32" d="M 1228 531 
L 3431 531 
L 3431 0 
L 469 0 
L 469 531 
Q 828 903 1448 1529 
Q 2069 2156 2228 2338 
Q 2531 2678 2651 2914 
Q 2772 3150 2772 3378 
Q 2772 3750 2511 3984 
Q 2250 4219 1831 4219 
Q 1534 4219 1204 4116 
Q 875 4013 500 3803 
L 500 4441 
Q 881 4594 1212 4672 
Q 1544 4750 1819 4750 
Q 2544 4750 2975 4387 
Q 3406 4025 3406 3419 
Q 3406 3131 3298 2873 
Q 3191 2616 2906 2266 
Q 2828 2175 2409 1742 
Q 1991 1309 1228 531 
z
" transform="scale(0.015625)"/>
       </defs>
       <use xlink:href="#DejaVuSans-32"/>
       <use xlink:href="#DejaVuSans-32" transform="translate(63.623047 0)"/>
       <use xlink:href="#DejaVuSans-35" transform="translate(127.246094 0)"/>
       <use xlink:href="#DejaVuSans-b0" transform="translate(190.869141 0)"/>
      </g>
     </g>
    </g>
    <g id="xtick_7">
     <g id="line2d_7">
      <path d="M 184.5 181.8 
L 184.5 320.4 
" clip-path="url(#pe208193b99)" style="fill: none; stroke: #b0b0b0; stroke-width: 0.8; stroke-linecap: square"/>
     </g>
     <g id="text_7">
      <!-- 270° -->
      <g transform="translate(172.45625 337.159375) scale(0.1 -0.1)">
       <defs>
        <path id="DejaVuSans-37" d="M 525 4666 
L 3525 4666 
L 3525 4397 
L 1831 0 
L 1172 0 
L 2766 4134 
L 525 4134 
L 525 4666 
z
" transform="scale(0.015625)"/>
       </defs>
       <use xlink:href="#DejaVuSans-32"/>
       <use xlink:href="#DejaVuSans-37" transform="translate(63.623047 0)"/>
       <use xlink:href="#DejaVuSans-30" transform="translate(127.246094 0)"/>
       <use xlink:href="#DejaVuSans-b0" transform="translate(190.869141 0)"/>
      </g>
     </g>
    </g>
    <g id="xtick_8">
     <g id="line2d_8">
      <path d="M 184.5 181.8 
L 282.505 279.805 
" clip-path="url(#pe208193b99)" style="fill: none; stroke: #b0b0b0; stroke-width: 0.8; stroke-linecap: square"/>
     </g>
     <g id="text_8">
      <!-- 315° -->
      <g transform="translate(280.360745 292.46387) scale(0.1 -0.1)">
       <use xlink:href="#DejaVuSans-33"/>
       <use xlink:href="#DejaVuSans-31" transform="translate(63.623047 0)"/>
       <use xlink:href="#DejaVuSans-35" transform="translate(127.246094 0)"/>
       <use xlink:href="#DejaVuSans-b0" transform="translate(190.869141 0)"/>
      </g>
     </g>
    </g>
   </g>
   <g id="matplotlib.axis_2">
    <g id="ytick_1">
     <g id="line2d_9">
      <path d="M 201.404722 181.8 
C 201.404722 179.580092 200.967449 177.38177 200.117927 175.330843 
C 199.268405 173.279916 198.023155 171.416268 196.453444 169.846556 
C 194.883732 168.276845 193.020084 167.031595 190.969157 166.182073 
C 188.91823 165.332551 186.719908 164.895278 184.5 164.895278 
C 182.280092 164.895278 180.08177 165.332551 178.030843 166.182073 
C 175.979916 167.031595 174.116268 168.276845 172.546556 169.846556 
C 170.976845 171.416268 169.731595 173.279916 168.882073 175.330843 
C 168.032551 177.38177 167.595278 179.580092 167.595278 181.8 
C 167.595278 184.019908 168.032551 186.21823 168.882073 188.269157 
C 169.731595 190.320084 170.976845 192.183732 172.546556 193.753444 
C 174.116268 195.323155 175.979916 196.568405 178.030843 197.417927 
C 180.08177 198.267449 182.280092 198.704722 184.5 198.704722 
C 186.719908 198.704722 188.91823 198.267449 190.969157 197.417927 
C 193.020084 196.568405 194.883732 195.323155 196.453444 193.753444 
C 198.023155 192.183732 199.268405 190.320084 200.117927 188.269157 
C 200.967449 186.21823 201.404722 184.019908 201.404722 181.8 
" clip-path="url(#pe208193b99)" style="fill: none; stroke: #b0b0b0; stroke-width: 0.8; stroke-linecap: square"/>
     </g>
    </g>
    <g id="ytick_2">
     <g id="line2d_10">
      <path d="M 218.309465 181.8 
C 218.309465 177.360182 217.434918 172.963535 215.735873 168.861678 
C 214.036828 164.759821 211.546328 161.032524 208.406902 157.893098 
C 205.267476 154.753672 201.540179 152.263172 197.438322 150.564127 
C 193.336465 148.865082 188.939818 147.990535 184.5 147.990535 
C 180.060182 147.990535 175.663535 148.865082 171.561678 150.564127 
C 167.459821 152.263172 163.732524 154.753672 160.593098 157.893098 
C 157.453672 161.032524 154.963172 164.759821 153.264127 168.861678 
C 151.565082 172.963535 150.690535 177.360182 150.690535 181.8 
C 150.690535 186.239818 151.565082 190.636465 153.264127 194.738322 
C 154.963172 198.840179 157.453672 202.567476 160.593098 205.706902 
C 163.732524 208.846328 167.459821 211.336828 171.561678 213.035873 
C 175.663535 214.734918 180.060182 215.609465 184.5 215.609465 
C 188.939818 215.609465 193.336465 214.734918 197.438322 213.035873 
C 201.540179 211.336828 205.267476 208.846328 208.406902 205.706902 
C 211.546328 202.567476 214.036828 198.840179 215.735873 194.738322 
C 217.434918 190.636465 218.309465 186.239818 218.309465 181.8 
" clip-path="url(#pe208193b99)" style="fill: none; stroke: #b0b0b0; stroke-width: 0.8; stroke-linecap: square"/>
     </g>
    </g>
    <g id="ytick_3">
     <g id="line2d_11">
      <path d="M 235.214208 181.8 
C 235.214208 175.140271 233.902386 168.5453 231.353819 162.392513 
C 228.805251 156.239726 225.0695 150.648779 220.36036 145.93964 
C 215.651221 141.2305 210.060274 137.494749 203.907487 134.946181 
C 197.7547 132.397614 191.159729 131.085792 184.5 131.085792 
C 177.840271 131.085792 171.2453 132.397614 165.092513 134.946181 
C 158.939726 137.494749 153.348779 141.2305 148.63964 145.93964 
C 143.9305 150.648779 140.194749 156.239726 137.646181 162.392513 
C 135.097614 168.5453 133.785792 175.140271 133.785792 181.8 
C 133.785792 188.459729 135.097614 195.0547 137.646181 201.207487 
C 140.194749 207.360274 143.9305 212.951221 148.63964 217.66036 
C 153.348779 222.3695 158.939726 226.105251 165.092513 228.653819 
C 171.2453 231.202386 177.840271 232.514208 184.5 232.514208 
C 191.159729 232.514208 197.7547 231.202386 203.907487 228.653819 
C 210.060274 226.105251 215.651221 222.3695 220.36036 217.66036 
C 225.0695 212.951221 228.805251 207.360274 231.353819 201.207487 
C 233.902386 195.0547 235.214208 188.459729 235.214208 181.8 
" clip-path="url(#pe208193b99)" style="fill: none; stroke: #b0b0b0; stroke-width: 0.8; stroke-linecap: square"/>
     </g>
    </g>
    <g id="ytick_4">
     <g id="line2d_12">
      <path d="M 252.118951 181.8 
C 252.118951 172.920361 250.369855 164.127065 246.971765 155.923348 
C 243.573674 147.719631 238.592672 140.265035 232.313819 133.986181 
C 226.034965 127.707328 218.580369 122.726326 210.376652 119.328235 
C 202.172935 115.930145 193.379639 114.181049 184.5 114.181049 
C 175.620361 114.181049 166.827065 115.930145 158.623348 119.328235 
C 150.419631 122.726326 142.965035 127.707328 136.686181 133.986181 
C 130.407328 140.265035 125.426326 147.719631 122.028235 155.923348 
C 118.630145 164.127065 116.881049 172.920361 116.881049 181.8 
C 116.881049 190.679639 118.630145 199.472935 122.028235 207.676652 
C 125.426326 215.880369 130.407328 223.334965 136.686181 229.613819 
C 142.965035 235.892672 150.419631 240.873674 158.623348 244.271765 
C 166.827065 247.669855 175.620361 249.418951 184.5 249.418951 
C 193.379639 249.418951 202.172935 247.669855 210.376652 244.271765 
C 218.580369 240.873674 226.034965 235.892672 232.313819 229.613819 
C 238.592672 223.334965 243.573674 215.880369 246.971765 207.676652 
C 250.369855 199.472935 252.118951 190.679639 252.118951 181.8 
" clip-path="url(#pe208193b99)" style="fill: none; stroke: #b0b0b0; stroke-width: 0.8; stroke-linecap: square"/>
     </g>
    </g>
    <g id="ytick_5">
     <g id="line2d_13">
      <path d="M 269.023694 181.8 
C 269.023694 170.70045 266.837324 159.70883 262.589711 149.454183 
C 258.342097 139.199536 252.115844 129.88129 244.267277 122.032723 
C 236.41871 114.184156 227.100464 107.957903 216.845817 103.710289 
C 206.59117 99.462676 195.59955 97.276306 184.5 97.276306 
C 173.40045 97.276306 162.40883 99.462676 152.154183 103.710289 
C 141.899536 107.957903 132.58129 114.184156 124.732723 122.032723 
C 116.884156 129.88129 110.657903 139.199536 106.410289 149.454183 
C 102.162676 159.70883 99.976306 170.70045 99.976306 181.8 
C 99.976306 192.89955 102.162676 203.89117 106.410289 214.145817 
C 110.657903 224.400464 116.884156 233.71871 124.732723 241.567277 
C 132.58129 249.415844 141.899536 255.642097 152.154183 259.889711 
C 162.40883 264.137324 173.40045 266.323694 184.5 266.323694 
C 195.59955 266.323694 206.59117 264.137324 216.845817 259.889711 
C 227.100464 255.642097 236.41871 249.415844 244.267277 241.567277 
C 252.115844 233.71871 258.342097 224.400464 262.589711 214.145817 
C 266.837324 203.89117 269.023694 192.89955 269.023694 181.8 
" clip-path="url(#pe208193b99)" style="fill: none; stroke: #b0b0b0; stroke-width: 0.8; stroke-linecap: square"/>
     </g>
    </g>
    <g id="ytick_6">
     <g id="line2d_14">
      <path d="M 285.928437 181.8 
C 285.928437 168.48054 283.304793 155.290594 278.207657 142.985018 
C 273.11052 130.679441 265.639016 119.497545 256.220735 110.079265 
C 246.802455 100.660984 235.620559 93.18948 223.314982 88.092343 
C 211.009406 82.995207 197.81946 80.371563 184.5 80.371563 
C 171.18054 80.371563 157.990594 82.995207 145.685018 88.092343 
C 133.379441 93.18948 122.197545 100.660984 112.779265 110.079265 
C 103.360984 119.497545 95.88948 130.679441 90.792343 142.985018 
C 85.695207 155.290594 83.071563 168.48054 83.071563 181.8 
C 83.071563 195.11946 85.695207 208.309406 90.792343 220.614982 
C 95.88948 232.920559 103.360984 244.102455 112.779265 253.520735 
C 122.197545 262.939016 133.379441 270.41052 145.685018 275.507657 
C 157.990594 280.604793 171.18054 283.228437 184.5 283.228437 
C 197.81946 283.228437 211.009406 280.604793 223.314982 275.507657 
C 235.620559 270.41052 246.802455 262.939016 256.220735 253.520735 
C 265.639016 244.102455 273.11052 232.920559 278.207657 220.614982 
C 283.304793 208.309406 285.928437 195.11946 285.928437 181.8 
" clip-path="url(#pe208193b99)" style="fill: none; stroke: #b0b0b0; stroke-width: 0.8; stroke-linecap: square"/>
     </g>
    </g>
    <g id="ytick_7">
     <g id="line2d_15">
      <path d="M 302.833179 181.8 
C 302.833179 166.260629 299.772262 150.872359 293.825602 136.515853 
C 287.878943 122.159346 279.162188 109.113801 268.174194 98.125806 
C 257.186199 87.137812 244.140654 78.421057 229.784147 72.474398 
C 215.427641 66.527738 200.039371 63.466821 184.5 63.466821 
C 168.960629 63.466821 153.572359 66.527738 139.215853 72.474398 
C 124.859346 78.421057 111.813801 87.137812 100.825806 98.125806 
C 89.837812 109.113801 81.121057 122.159346 75.174398 136.515853 
C 69.227738 150.872359 66.166821 166.260629 66.166821 181.8 
C 66.166821 197.339371 69.227738 212.727641 75.174398 227.084147 
C 81.121057 241.440654 89.837812 254.486199 100.825806 265.474194 
C 111.813801 276.462188 124.859346 285.178943 139.215853 291.125602 
C 153.572359 297.072262 168.960629 300.133179 184.5 300.133179 
C 200.039371 300.133179 215.427641 297.072262 229.784147 291.125602 
C 244.140654 285.178943 257.186199 276.462188 268.174194 265.474194 
C 279.162188 254.486199 287.878943 241.440654 293.825602 227.084147 
C 299.772262 212.727641 302.833179 197.339371 302.833179 181.8 
" clip-path="url(#pe208193b99)" style="fill: none; stroke: #b0b0b0; stroke-width: 0.8; stroke-linecap: square"/>
     </g>
    </g>
    <g id="ytick_8">
     <g id="line2d_16">
      <path d="M 319.737922 181.8 
C 319.737922 164.040719 316.239731 146.454124 309.443548 130.046688 
C 302.647366 113.639251 292.68536 98.730056 280.127652 86.172348 
C 267.569944 73.61464 252.660749 63.652634 236.253312 56.856452 
C 219.845876 50.060269 202.259281 46.562078 184.5 46.562078 
C 166.740719 46.562078 149.154124 50.060269 132.746688 56.856452 
C 116.339251 63.652634 101.430056 73.61464 88.872348 86.172348 
C 76.31464 98.730056 66.352634 113.639251 59.556452 130.046688 
C 52.760269 146.454124 49.262078 164.040719 49.262078 181.8 
C 49.262078 199.559281 52.760269 217.145876 59.556452 233.553312 
C 66.352634 249.960749 76.31464 264.869944 88.872348 277.427652 
C 101.430056 289.98536 116.339251 299.947366 132.746688 306.743548 
C 149.154124 313.539731 166.740719 317.037922 184.5 317.037922 
C 202.259281 317.037922 219.845876 313.539731 236.253312 306.743548 
C 252.660749 299.947366 267.569944 289.98536 280.127652 277.427652 
C 292.68536 264.869944 302.647366 249.960749 309.443548 233.553312 
C 316.239731 217.145876 319.737922 199.559281 319.737922 181.8 
" clip-path="url(#pe208193b99)" style="fill: none; stroke: #b0b0b0; stroke-width: 0.8; stroke-linecap: square"/>
     </g>
    </g>
   </g>
   <g id="line2d_17">
    <path d="M 319.737922 181.8 
L 319.603265 177.534986 
L 319.201231 173.299594 
L 318.537558 169.122754 
L 317.62158 165.032045 
L 316.46589 161.053109 
L 315.085912 157.209149 
L 313.499385 153.520551 
L 311.725821 150.004618 
L 309.785929 146.675435 
L 307.701072 143.543846 
L 305.492743 140.617542 
L 303.182114 137.901232 
L 300.789636 135.396882 
L 298.334724 133.104002 
L 295.835513 131.019966 
L 293.308683 129.14034 
L 290.769359 127.459204 
L 288.231056 125.969466 
L 285.705681 124.66315 
L 283.203578 123.531656 
L 280.733588 122.56599 
L 278.30315 121.756958 
L 275.918397 121.095337 
L 273.584278 120.572007 
L 269.082491 119.904879 
L 264.817999 119.688218 
L 260.799152 119.860982 
L 257.025459 120.369194 
L 253.490069 121.166016 
L 250.181743 122.211405 
L 247.086343 123.471523 
L 244.187942 124.918054 
L 241.469599 126.52748 
L 238.913902 128.280383 
L 236.503304 130.160786 
L 234.220333 132.155547 
L 233.121292 133.19234 
L 134.21994 231.953236 
L 131.906691 233.920506 
L 129.461462 235.770367 
L 126.866748 237.489023 
L 124.105012 239.059694 
L 121.15892 240.462002 
L 118.011728 241.671295 
L 114.647869 242.657945 
L 111.053815 243.386626 
L 107.219265 243.815643 
L 103.138754 243.896392 
L 98.813747 243.573103 
L 96.562544 243.240595 
L 94.255258 242.783052 
L 91.895273 242.191705 
L 89.486988 241.457528 
L 87.035928 240.571333 
L 84.548866 239.523894 
L 82.03393 238.306094 
L 79.500702 236.909109 
L 76.960299 235.32462 
L 74.425432 233.545059 
L 71.910423 231.563883 
L 69.431182 229.375874 
L 67.005135 226.977461 
L 64.651083 224.367046 
L 62.388994 221.545328 
L 60.239725 218.515612 
L 58.22466 215.284071 
L 56.36529 211.859955 
L 54.682717 208.255726 
L 53.197124 204.487087 
L 51.927204 200.572907 
L 50.889608 196.535021 
L 50.098403 192.397908 
L 49.564601 188.188245 
L 49.295772 183.934367 
L 49.295772 179.665633 
L 49.564601 175.411755 
L 50.098403 171.202092 
L 50.889608 167.064979 
L 51.927204 163.027093 
L 53.197124 159.112913 
L 54.682717 155.344274 
L 56.36529 151.740045 
L 58.22466 148.315929 
L 60.239725 145.084388 
L 62.388994 142.054672 
L 64.651083 139.232954 
L 67.005135 136.622539 
L 69.431182 134.224126 
L 71.910423 132.036117 
L 74.425432 130.054941 
L 76.960299 128.27538 
L 79.500702 126.690891 
L 82.03393 125.293906 
L 84.548866 124.076106 
L 87.035928 123.028667 
L 89.486988 122.142472 
L 91.895273 121.408295 
L 94.255258 120.816948 
L 96.562544 120.359405 
L 101.006382 119.810983 
L 105.209853 119.697132 
L 109.167079 119.958536 
L 112.880353 120.543018 
L 116.357787 121.405483 
L 119.61147 122.507498 
L 122.656076 123.816674 
L 125.507849 125.305962 
L 128.183888 126.952933 
L 130.701666 128.739088 
L 133.078724 130.649215 
L 135.332501 132.670789 
L 136.418558 133.720056 
L 234.220333 231.444453 
L 236.503304 233.439214 
L 238.913902 235.319617 
L 241.469599 237.07252 
L 244.187942 238.681946 
L 247.086343 240.128477 
L 250.181743 241.388595 
L 253.490069 242.433984 
L 257.025459 243.230806 
L 260.799152 243.739018 
L 264.817999 243.911782 
L 269.082491 243.695121 
L 271.304669 243.421942 
L 273.584278 243.027993 
L 275.918397 242.504663 
L 278.30315 241.843042 
L 280.733588 241.03401 
L 283.203578 240.068344 
L 285.705681 238.93685 
L 288.231056 237.630534 
L 290.769359 236.140796 
L 293.308683 234.45966 
L 295.835513 232.580034 
L 298.334724 230.495998 
L 300.789636 228.203118 
L 303.182114 225.698768 
L 305.492743 222.982458 
L 307.701072 220.056154 
L 309.785929 216.924565 
L 311.725821 213.595382 
L 313.499385 210.079449 
L 315.085912 206.390851 
L 316.46589 202.546891 
L 317.62158 198.567955 
L 318.537558 194.477246 
L 319.201231 190.300406 
L 319.603265 186.065014 
L 319.737922 181.8 
L 319.737922 181.8 
" clip-path="url(#pe208193b99)" style="fill: none; stroke: #1f77b4; stroke-width: 1.5; stroke-linecap: square"/>
   </g>
   <g id="patch_3">
    <path d="M 323.1 181.8 
C 323.1 163.599215 319.514842 145.575409 312.549703 128.760076 
C 305.584564 111.944743 295.374899 96.664899 282.505 83.795 
C 269.635101 70.925101 254.355257 60.715436 237.539924 53.750297 
C 220.724591 46.785158 202.700785 43.2 184.5 43.2 
C 166.299215 43.2 148.275409 46.785158 131.460076 53.750297 
C 114.644743 60.715436 99.364899 70.925101 86.495 83.795 
C 73.625101 96.664899 63.415436 111.944743 56.450297 128.760076 
C 49.485158 145.575409 45.9 163.599215 45.9 181.8 
C 45.9 200.000785 49.485158 218.024591 56.450297 234.839924 
C 63.415436 251.655257 73.625101 266.935101 86.495 279.805 
C 99.364899 292.674899 114.644743 302.884564 131.460076 309.849703 
C 148.275409 316.814842 166.299215 320.4 184.5 320.4 
C 202.700785 320.4 220.724591 316.814842 237.539924 309.849703 
C 254.355257 302.884564 269.635101 292.674899 282.505 279.805 
C 295.374899 266.935101 305.584564 251.655257 312.549703 234.839924 
C 319.514842 218.024591 323.1 200.000785 323.1 181.8 
" style="fill: none; stroke: #000000; stroke-width: 0.8; stroke-linejoin: miter; stroke-linecap: square"/>
   </g>
  </g>
 </g>
 <defs>
  <clipPath id="pe208193b99">
   <path d="M 323.1 181.8 
C 323.1 163.599215 319.514842 145.575409 312.549703 128.760076 
C 305.584564 111.944743 295.374899 96.664899 282.505 83.795 
C 269.635101 70.925101 254.355257 60.715436 237.539924 53.750297 
C 220.724591 46.785158 202.700785 43.2 184.5 43.2 
C 166.299215 43.2 148.275409 46.785158 131.460076 53.750297 
C 114.644743 60.715436 99.364899 70.925101 86.495 83.795 
C 73.625101 96.664899 63.415436 111.944743 56.450297 128.760076 
C 49.485158 145.575409 45.9 163.599215 45.9 181.8 
C 45.9 200.000785 49.485158 218.024591 56.450297 234.839924 
C 63.415436 251.655257 73.625101 266.935101 86.495 279.805 
C 99.364899 292.674899 114.644743 302.884564 131.460076 309.849703 
C 148.275409 316.814842 166.299215 320.4 184.5 320.4 
C 202.700785 320.4 220.724591 316.814842 237.539924 309.849703 
C 254.355257 302.884564 269.635101 292.674899 282.505 279.805 
C 295.374899 266.935101 305.584564 251.655257 312.549703 234.839924 
C 319.514842 218.024591 323.1 200.000785 323.1 181.8 
M 184.5 181.8 
C 184.5 181.8 184.5 181.8 184.5 181.8 
C 184.5 181.8 184.5 181.8 184.5 181.8 
C 184.5 181.8 184.5 181.8 184.5 181.8 
C 184.5 181.8 184.5 181.8 184.5 181.8 
C 184.5 181.8 184.5 181.8 184.5 181.8 
C 184.5 181.8 184.5 181.8 184.5 181.8 
C 184.5 181.8 184.5 181.8 184.5 181.8 
C 184.5 181.8 184.5 181.8 184.5 181.8 
C 184.5 181.8 184.5 181.8 184.5 181.8 
C 184.5 181.8 184.5 181.8 184.5 181.8 
C 184.5 181.8 184.5 181.8 184.5 181.8 
C 184.5 181.8 184.5 181.8 184.5 181.8 
C 184.5 181.8 184.5 181.8 184.5 181.8 
C 184.5 181.8 184.5 181.8 184.5 181.8 
C 184.5 181.8 184.5 181.8 184.5 181.8 
C 184.5 181.8 184.5 181.8 184.5 181.8 
z
"/>
  </clipPath>
 </defs>
</svg>
