<?xml version="1.0" encoding="utf-8" standalone="no"?>
<!DOCTYPE svg PUBLIC "-//W3C//DTD SVG 1.1//EN"
  "http://www.w3.org/Graphics/SVG/1.1/DTD/svg11.dtd">
<svg xmlns:xlink="http://www.w3.org/1999/xlink" width="360pt" height="216pt" viewBox="0 0 360 216" xmlns="http://www.w3.org/2000/svg" version="1.1">
 <metadata>
  <rdf:RDF xmlns:dc="http://purl.org/dc/elements/1.1/" xmlns:cc="http://creativecommons.org/ns#" xmlns:rdf="http://www.w3.org/1999/02/22-rdf-syntax-ns#">
   <cc:Work>
    <dc:type rdf:resource="http://purl.org/dc/dcmitype/StillImage"/>
    <dc:date>2025-11-27T15:04:10.383662</dc:date>
    <dc:format>image/svg+xml</dc:format>
    <dc:creator>
     <cc:Agent>
      <dc:title>Matplotlib v3.10.6, https://matplotlib.org/</dc:title>
     </cc:Agent>
    </dc:creator>
   </cc:Work>
  </rdf:RDF>
 </metadata>
 <defs>
  <style type="text/css">*{stroke-linejoin: round; stroke-linecap: butt}</style>
 </defs>
 <g id="figure_1">
  <g id="patch_1">
   <path d="M 0 216 
L 360 216 
L 360 0 
L 0 0 
z
" style="fill: #ffffff"/>
  </g>
  <g id="axes_1">
   <g id="patch_2">
    <path d="M 45 192.24 
L 324 192.24 
L 324 25.92 
L 45 25.92 
z
" style="fill: #ffffff"/>
   </g>
   <g id="matplotlib.axis_1">
    <g id="xtick_1">
     <g id="line2d_1">
      <defs>
       <path id="maca84a67e5" d="M 0 0 
L 0 3.5 
" style="stroke: #000000; stroke-width: 0.8"/>
      </defs>
      <g>
       <use xlink:href="#maca84a67e5" x="45" y="192.24" style="stroke: #000000; stroke-width: 0.8"/>
      </g>
     </g>
     <g id="text_1">
      <!-- −0.1 -->
      <g transform="translate(32.858594 206.838437) scale(0.1 -0.1)">
       <defs>
        <path id="DejaVuSans-2212" d="M 678 2272 
L 4684 2272 
L 4684 1741 
L 678 1741 
L 678 2272 
z
" transform="scale(0.015625)"/>
        <path id="DejaVuSans-30" d="M 2034 4250 
Q 1547 4250 1301 3770 
Q 1056 3291 1056 2328 
Q 1056 1369 1301 889 
Q 1547 409 2034 409 
Q 2525 409 2770 889 
Q 3016 1369 3016 2328 
Q 3016 3291 2770 3770 
Q 2525 4250 2034 4250 
z
M 2034 4750 
Q 2819 4750 3233 4129 
Q 3647 3509 3647 2328 
Q 3647 1150 3233 529 
Q 2819 -91 2034 -91 
Q 1250 -91 836 529 
Q 422 1150 422 2328 
Q 422 3509 836 4129 
Q 1250 4750 2034 4750 
z
" transform="scale(0.015625)"/>
        <path id="DejaVuSans-2e" d="M 684 794 
L 1344 794 
L 1344 0 
L 684 0 
L 684 794 
z
" transform="scale(0.015625)"/>
        <path id="DejaVuSans-31" d="M 794 531 
L 1825 531 
L 1825 4091 
L 703 3866 
L 703 4441 
L 1819 4666 
L 2450 4666 
L 2450 531 
L 3481 531 
L 3481 0 
L 794 0 
L 794 531 
z
" transform="scale(0.015625)"/>
       </defs>
       <use xlink:href="#DejaVuSans-2212"/>
       <use xlink:href="#DejaVuSans-30" transform="translate(83.789062 0)"/>
       <use xlink:href="#DejaVuSans-2e" transform="translate(147.412109 0)"/>
       <use xlink:href="#DejaVuSans-31" transform="translate(179.199219 0)"/>
      </g>
     </g>
    </g>
    <g id="xtick_2">
     <g id="line2d_2">
      <g>
       <use xlink:href="#maca84a67e5" x="184.5" y="192.24" style="stroke: #000000; stroke-width: 0.8"/>
      </g>
     </g>
     <g id="text_2">
      <!-- 0.0 -->
      <g transform="translate(176.548438 206.838437) scale(0.1 -0.1)">
       <use xlink:href="#DejaVuSans-30"/>
       <use xlink:href="#DejaVuSans-2e" transform="translate(63.623047 0)"/>
       <use xlink:href="#DejaVuSans-30" transform="translate(95.410156 0)"/>
      </g>
     </g>
    </g>
    <g id="xtick_3">
     <g id="line2d_3">
      <g>
       <use xlink:href="#maca84a67e5" x="324" y="192.24" style="stroke: #000000; stroke-width: 0.8"/>
      </g>
     </g>
     <g id="text_3">
      <!-- 0.1 -->
      <g transform="translate(316.048437 206.838437) scale(0.1 -0.1)">
       <use xlink:href="#DejaVuSans-30"/>
       <use xlink:href="#DejaVuSans-2e" transform="translate(63.623047 0)"/>
       <use xlink:href="#DejaVuSans-31" transform="translate(95.410156 0)"/>
      </g>
     </g>
    </g>
    <g id="text_4">
     <!-- x -->
     <g transform="translate(181.540625 220.516562) scale(0.1 -0.1)">
      <defs>
       <path id="DejaVuSans-78" d="M 3513 3500 
L 2247 1797 
L 3578 0 
L 2900 0 
L 1881 1375 
L 863 0 
L 184 0 
L 1544 1831 
L 300 3500 
L 978 3500 
L 1906 2253 
L 2834 3500 
L 3513 3500 
z
" transform="scale(0.015625)"/>
      </defs>
      <use xlink:href="#DejaVuSans-78"/>
     </g>
    </g>
   </g>
   <g id="matplotlib.axis_2">
    <g id="ytick_1">
     <g id="line2d_4">
      <defs>
       <path id="m67415b37f3" d="M 0 0 
L -3.5 0 
" style="stroke: #000000; stroke-width: 0.8"/>
      </defs>
      <g>
       <use xlink:href="#m67415b37f3" x="45" y="178.38" style="stroke: #000000; stroke-width: 0.8"/>
      </g>
     </g>
     <g id="text_5">
      <!-- −1.0 -->
      <g transform="translate(13.717187 182.179219) scale(0.1 -0.1)">
       <use xlink:href="#DejaVuSans-2212"/>
       <use xlink:href="#DejaVuSans-31" transform="translate(83.789062 0)"/>
       <use xlink:href="#DejaVuSans-2e" transform="translate(147.412109 0)"/>
       <use xlink:href="#DejaVuSans-30" transform="translate(179.199219 0)"/>
      </g>
     </g>
    </g>
    <g id="ytick_2">
     <g id="line2d_5">
      <g>
       <use xlink:href="#m67415b37f3" x="45" y="143.73" style="stroke: #000000; stroke-width: 0.8"/>
      </g>
     </g>
     <g id="text_6">
      <!-- −0.5 -->
      <g transform="translate(13.717187 147.529219) scale(0.1 -0.1)">
       <defs>
        <path id="DejaVuSans-35" d="M 691 4666 
L 3169 4666 
L 3169 4134 
L 1269 4134 
L 1269 2991 
Q 1406 3038 1543 3061 
Q 1681 3084 1819 3084 
Q 2600 3084 3056 2656 
Q 3513 2228 3513 1497 
Q 3513 744 3044 326 
Q 2575 -91 1722 -91 
Q 1428 -91 1123 -41 
Q 819 9 494 109 
L 494 744 
Q 775 591 1075 516 
Q 1375 441 1709 441 
Q 2250 441 2565 725 
Q 2881 1009 2881 1497 
Q 2881 1984 2565 2268 
Q 2250 2553 1709 2553 
Q 1456 2553 1204 2497 
Q 953 2441 691 2322 
L 691 4666 
z
" transform="scale(0.015625)"/>
       </defs>
       <use xlink:href="#DejaVuSans-2212"/>
       <use xlink:href="#DejaVuSans-30" transform="translate(83.789062 0)"/>
       <use xlink:href="#DejaVuSans-2e" transform="translate(147.412109 0)"/>
       <use xlink:href="#DejaVuSans-35" transform="translate(179.199219 0)"/>
      </g>
     </g>
    </g>
    <g id="ytick_3">
     <g id="line2d_6">
      <g>
       <use xlink:href="#m67415b37f3" x="45" y="109.08" style="stroke: #000000; stroke-width: 0.8"/>
      </g>
     </g>
     <g id="text_7">
      <!-- 0.0 -->
      <g transform="translate(22.096875 112.879219) scale(0.1 -0.1)">
       <use xlink:href="#DejaVuSans-30"/>
       <use xlink:href="#DejaVuSans-2e" transform="translate(63.623047 0)"/>
       <use xlink:href="#DejaVuSans-30" transform="translate(95.410156 0)"/>
      </g>
     </g>
    </g>
    <g id="ytick_4">
     <g id="line2d_7">
      <g>
       <use xlink:href="#m67415b37f3" x="45" y="74.43" style="stroke: #000000; stroke-width: 0.8"/>
      </g>
     </g>
     <g id="text_8">
      <!-- 0.5 -->
      <g transform="translate(22.096875 78.229219) scale(0.1 -0.1)">
       <use xlink:href="#DejaVuSans-30"/>
       <use xlink:href="#DejaVuSans-2e" transform="translate(63.623047 0)"/>
       <use xlink:href="#DejaVuSans-35" transform="translate(95.410156 0)"/>
      </g>
     </g>
    </g>
    <g id="ytick_5">
     <g id="line2d_8">
      <g>
       <use xlink:href="#m67415b37f3" x="45" y="39.78" style="stroke: #000000; stroke-width: 0.8"/>
      </g>
     </g>
     <g id="text_9">
      <!-- 1.0 -->
      <g transform="translate(22.096875 43.579219) scale(0.1 -0.1)">
       <use xlink:href="#DejaVuSans-31"/>
       <use xlink:href="#DejaVuSans-2e" transform="translate(63.623047 0)"/>
       <use xlink:href="#DejaVuSans-30" transform="translate(95.410156 0)"/>
      </g>
     </g>
    </g>
    <g id="text_10">
     <!-- f(x) -->
     <g transform="translate(7.6375 117.701094) rotate(-90) scale(0.1 -0.1)">
      <defs>
       <path id="DejaVuSans-66" d="M 2375 4863 
L 2375 4384 
L 1825 4384 
Q 1516 4384 1395 4259 
Q 1275 4134 1275 3809 
L 1275 3500 
L 2222 3500 
L 2222 3053 
L 1275 3053 
L 1275 0 
L 697 0 
L 697 3053 
L 147 3053 
L 147 3500 
L 697 3500 
L 697 3744 
Q 697 4328 969 4595 
Q 1241 4863 1831 4863 
L 2375 4863 
z
" transform="scale(0.015625)"/>
       <path id="DejaVuSans-28" d="M 1984 4856 
Q 1566 4138 1362 3434 
Q 1159 2731 1159 2009 
Q 1159 1288 1364 580 
Q 1569 -128 1984 -844 
L 1484 -844 
Q 1016 -109 783 600 
Q 550 1309 550 2009 
Q 550 2706 781 3412 
Q 1013 4119 1484 4856 
L 1984 4856 
z
" transform="scale(0.015625)"/>
       <path id="DejaVuSans-29" d="M 513 4856 
L 1013 4856 
Q 1481 4119 1714 3412 
Q 1947 2706 1947 2009 
Q 1947 1309 1714 600 
Q 1481 -109 1013 -844 
L 513 -844 
Q 928 -128 1133 580 
Q 1338 1288 1338 2009 
Q 1338 2731 1133 3434 
Q 928 4138 513 4856 
z
" transform="scale(0.015625)"/>
      </defs>
      <use xlink:href="#DejaVuSans-66"/>
      <use xlink:href="#DejaVuSans-28" transform="translate(35.205078 0)"/>
      <use xlink:href="#DejaVuSans-78" transform="translate(74.21875 0)"/>
      <use xlink:href="#DejaVuSans-29" transform="translate(133.398438 0)"/>
     </g>
    </g>
   </g>
   <g id="line2d_9">
    <path d="M 45 71.379337 
L 47.4552 61.621041 
L 49.40262 54.747793 
L 51.03477 49.762768 
L 52.43535 46.163009 
L 53.65179 43.617937 
L 54.7092 41.891868 
L 55.63269 40.784682 
L 56.44458 40.139153 
L 57.16719 39.835521 
L 57.834 39.790784 
L 58.48407 39.971994 
L 59.15367 40.397462 
L 59.8707 41.128815 
L 60.65469 42.262614 
L 61.5168 43.920814 
L 62.4654 46.251732 
L 63.50607 49.425603 
L 64.64997 53.659596 
L 65.90826 59.206942 
L 67.29768 66.379133 
L 68.8545 75.634389 
L 70.64847 87.703907 
L 72.88326 104.354269 
L 79.52346 154.89573 
L 80.99937 163.869428 
L 82.1907 169.828472 
L 83.17836 173.712042 
L 84.00141 176.114964 
L 84.68217 177.475895 
L 85.23738 178.13833 
L 85.69215 178.367681 
L 86.09112 178.328958 
L 86.49567 178.054918 
L 86.95323 177.453923 
L 87.48612 176.357007 
L 88.1055 174.536445 
L 88.81974 171.701058 
L 89.63721 167.487865 
L 90.56628 161.465619 
L 91.62927 153.036 
L 92.86524 141.356512 
L 94.38021 124.78209 
L 96.77124 95.76611 
L 99.10368 68.384799 
L 100.38987 55.78123 
L 101.37195 48.178027 
L 102.15594 43.692901 
L 102.7809 41.274946 
L 103.26915 40.165169 
L 103.63185 39.808059 
L 103.90806 39.812577 
L 104.18427 40.061671 
L 104.52186 40.704284 
L 104.94315 42.03619 
L 105.45651 44.463518 
L 106.07031 48.52695 
L 106.79571 54.930147 
L 107.65224 64.606501 
L 108.68733 79.003196 
L 110.05722 101.449566 
L 113.36337 156.8521 
L 114.28407 168.048625 
L 114.98436 174.108728 
L 115.52004 177.038426 
L 115.91622 178.156883 
L 116.18127 178.379936 
L 116.37099 178.273271 
L 116.60256 177.836345 
L 116.91504 176.704628 
L 117.31959 174.305203 
L 117.82179 169.862378 
L 118.43559 162.288174 
L 119.18889 150.010826 
L 120.15144 130.375055 
L 121.90077 89.033162 
L 123.18417 61.342298 
L 123.96537 48.846843 
L 124.54011 42.80172 
L 124.95861 40.390778 
L 125.23761 39.79764 
L 125.39106 39.831476 
L 125.56125 40.174069 
L 125.80956 41.257038 
L 126.14994 43.874858 
L 126.58797 49.15876 
L 127.14039 58.767972 
L 127.84626 75.280943 
L 128.85903 104.835429 
L 130.68369 158.247373 
L 131.34492 171.189549 
L 131.81364 176.61624 
L 132.1317 178.232369 
L 132.28515 178.374144 
L 132.30747 178.359329 
L 132.43581 178.097587 
L 132.63669 177.078794 
L 132.92685 174.286655 
L 133.31466 168.146915 
L 133.81965 156.260382 
L 134.49762 134.50536 
L 137.05605 46.44027 
L 137.46339 40.993058 
L 137.72007 39.801052 
L 137.79261 39.796261 
L 137.82609 39.84432 
L 137.95722 40.340713 
L 138.16926 42.189456 
L 138.47337 47.088856 
L 138.88629 57.800521 
L 139.44987 78.910551 
L 140.48496 128.083907 
L 141.32754 163.206493 
L 141.80184 174.958891 
L 142.10595 178.151877 
L 142.21476 178.379573 
L 142.2594 178.328976 
L 142.371 177.831843 
L 142.56072 175.763806 
L 142.84251 169.874783 
L 143.2359 156.362832 
L 143.80506 128.10308 
L 145.3284 48.795353 
L 145.69389 40.904204 
L 145.88919 39.780074 
L 145.90035 39.784914 
L 145.9701 39.987115 
L 146.10681 41.248806 
L 146.33001 45.766833 
L 146.65365 57.497201 
L 147.12795 83.906964 
L 148.62339 173.264473 
L 148.90797 178.181322 
L 148.97772 178.379948 
L 149.03073 178.255664 
L 149.14233 177.209573 
L 149.33484 172.908505 
L 149.62779 160.568166 
L 150.0714 131.015317 
L 151.28505 45.588363 
L 151.55568 39.937008 
L 151.60869 39.780029 
L 151.6617 39.946737 
L 151.7733 41.364394 
L 151.96581 47.183866 
L 152.26434 64.053095 
L 152.76375 107.260863 
L 153.51705 168.930957 
L 153.80721 178.015 
L 153.87696 178.379975 
L 153.92997 178.15927 
L 154.04157 176.276175 
L 154.23687 168.426331 
L 154.54377 145.652941 
L 155.80764 39.977273 
L 155.85228 39.780003 
L 155.90529 40.063982 
L 156.01689 42.511651 
L 156.21219 52.671859 
L 156.53304 83.041219 
L 157.45374 176.086625 
L 157.58766 178.37994 
L 157.62672 178.19024 
L 157.72158 176.087958 
L 157.89735 166.19322 
L 158.19588 134.369669 
L 159.01893 41.626274 
L 159.12495 39.780236 
L 159.17238 40.128565 
L 159.27561 43.424318 
L 159.46533 58.131469 
L 159.81129 105.955073 
L 160.35255 174.193036 
L 160.49763 178.379999 
L 160.53111 178.152908 
L 160.62039 175.313927 
L 160.79058 161.275553 
L 161.11143 112.248798 
L 161.61363 43.035821 
L 161.72802 39.780084 
L 161.77266 40.26814 
L 161.8731 45.016109 
L 162.06282 66.686083 
L 162.83844 178.379717 
L 162.89703 177.359751 
L 163.01421 169.082225 
L 163.23741 133.833275 
L 163.81494 40.156336 
L 163.84563 39.78057 
L 163.89585 40.671398 
L 164.00187 48.624073 
L 164.21112 84.7866 
L 164.74401 178.188602 
L 164.76354 178.379309 
L 164.81097 177.429642 
L 164.9142 168.546397 
L 165.12345 127.05573 
L 165.5838 40.007858 
L 165.60333 39.780831 
L 165.65076 40.910347 
L 165.75399 51.434516 
L 165.9744 102.367135 
L 166.35384 178.078909 
L 166.37616 178.37993 
L 166.4208 177.11353 
L 166.52403 164.888696 
L 166.7556 103.781241 
L 167.07366 39.902139 
L 167.08761 39.780783 
L 167.12388 40.802348 
L 167.21874 52.38451 
L 167.43636 114.021785 
L 167.74047 178.371151 
L 167.74326 178.379844 
L 167.76 178.152067 
L 167.82417 172.860801 
L 167.97204 137.373917 
L 168.35427 39.781581 
L 168.37938 40.471005 
L 168.46029 51.031592 
L 168.65559 114.554213 
L 168.92064 178.378687 
L 168.9318 178.208612 
L 168.9876 173.105704 
L 169.12431 134.691529 
L 169.44795 39.78007 
L 169.47864 41.037244 
L 169.56513 57.374012 
L 169.94178 178.379556 
L 170.03943 164.221319 
L 170.271 67.149221 
L 170.40213 39.782838 
L 170.44398 42.586444 
L 170.54721 72.801021 
L 170.83737 178.379915 
L 170.89038 172.929378 
L 171.01593 124.010294 
L 171.24471 39.780192 
L 171.28098 42.602898 
L 171.37863 75.914683 
L 171.62973 178.379333 
L 171.67995 172.100714 
L 171.8055 113.625101 
L 171.99243 39.781213 
L 172.03149 44.108655 
L 172.1403 93.246182 
L 172.3356 178.375983 
L 172.37745 172.728196 
L 172.49463 111.915435 
L 172.65924 39.780464 
L 172.70109 45.84641 
L 172.81827 111.624333 
L 172.96614 178.379671 
L 173.01078 170.964332 
L 173.13912 90.751154 
L 173.25909 39.781879 
L 173.30652 49.400299 
L 173.47392 161.349588 
L 173.5353 178.377761 
L 173.5911 164.551823 
L 173.80035 39.780139 
L 173.88405 73.400057 
L 174.05145 178.378608 
L 174.11004 159.948978 
L 174.29139 39.783412 
L 174.36393 69.791909 
L 174.52017 178.36758 
L 174.58155 155.019376 
L 174.74058 39.78046 
L 174.80475 68.343598 
L 174.94983 178.373815 
L 175.01121 150.425115 
L 175.15071 39.789387 
L 175.21209 69.882039 
L 175.34322 178.364555 
L 175.40181 148.827402 
L 175.53015 39.785123 
L 175.58874 73.68165 
L 175.70592 178.364738 
L 175.76451 143.984026 
L 175.8789 39.794245 
L 175.9347 76.076885 
L 176.04072 178.356645 
L 176.09931 139.012183 
L 176.19975 39.782207 
L 176.25555 79.483069 
L 176.3532 178.371044 
L 176.40621 138.172796 
L 176.49828 39.795098 
L 176.55408 84.188714 
L 176.64057 178.378669 
L 176.69637 130.076703 
L 176.77728 39.781141 
L 176.83029 86.751551 
L 176.90841 178.35437 
L 176.96421 125.373888 
L 177.03675 39.782729 
L 177.08976 92.435802 
L 177.15951 178.359124 
L 177.21531 118.725725 
L 177.27948 39.782543 
L 177.33249 98.69074 
L 177.39666 178.332703 
L 177.44967 113.045841 
L 177.50826 39.811215 
L 177.56127 107.937048 
L 177.61428 178.325853 
L 177.67008 105.973385 
L 177.7203 39.785858 
L 177.77331 111.692931 
L 177.82353 178.355043 
L 177.87654 100.214008 
L 177.92118 39.786221 
L 177.97419 118.631365 
L 178.01883 178.325069 
L 178.07184 92.338369 
L 178.1109 39.78 
L 178.16391 126.617025 
L 178.20018 178.302217 
L 178.25598 84.623046 
L 178.28946 39.781136 
L 178.34247 133.311513 
L 178.37595 178.358405 
L 178.42896 79.365161 
L 178.45965 39.834941 
L 178.50987 136.400552 
L 178.54056 178.340549 
L 178.59357 72.044236 
L 178.61868 39.780068 
L 178.6689 140.675408 
L 178.6968 178.283506 
L 178.74702 71.079229 
L 178.76934 39.853217 
L 178.82235 151.350701 
L 178.84467 178.275468 
L 178.89489 64.742809 
L 178.91442 39.781404 
L 178.96464 153.123404 
L 178.98417 178.376368 
L 179.03439 61.174424 
L 179.05113 39.798998 
L 179.09856 151.232343 
L 179.11809 178.365771 
L 179.16831 55.18845 
L 179.18226 39.781464 
L 179.2269 151.376118 
L 179.24643 178.21441 
L 179.29665 48.58721 
L 179.30781 39.933565 
L 179.34408 135.157773 
L 179.3664 178.377417 
L 179.42499 39.785902 
L 179.44173 65.819891 
L 179.48358 178.272089 
L 179.53938 39.842006 
L 179.54496 44.197703 
L 179.59239 178.248052 
L 179.64819 39.930133 
L 179.71515 149.510668 
L 179.75142 39.818005 
L 179.80164 178.345385 
L 179.85465 42.444529 
L 179.99136 178.321944 
L 179.94672 39.936719 
L 180.01089 127.273969 
L 180.12528 39.781205 
L 180.08064 178.192916 
L 180.13365 52.564238 
L 180.25083 178.379693 
L 180.20898 39.893776 
L 180.26478 141.477988 
L 180.28989 40.07795 
L 180.33174 178.084353 
L 180.38475 88.008366 
L 180.40707 178.34633 
L 180.44613 40.208231 
L 180.49914 111.972412 
L 180.58842 39.915804 
L 180.55215 178.199038 
L 180.60516 110.786451 
L 180.6219 178.379999 
L 180.65538 39.782964 
L 180.70839 85.236088 
L 180.78372 39.849988 
L 180.75303 178.363093 
L 180.80604 151.150936 
L 180.81441 178.252038 
L 180.8451 39.800154 
L 180.89532 71.043551 
L 180.96228 39.873271 
L 180.93438 177.976076 
L 180.98739 175.852977 
L 180.99018 178.310439 
L 181.00413 104.922317 
L 181.07109 39.78007 
L 181.0962 177.684689 
L 181.12131 41.725603 
L 181.1241 40.152329 
L 181.13247 79.560944 
L 181.24686 178.37586 
L 181.17432 39.906655 
L 181.25244 160.911129 
L 181.31661 39.835656 
L 181.29429 178.291908 
L 181.36962 77.487667 
L 181.38357 178.29553 
L 181.40589 39.830244 
L 181.48122 89.05849 
L 181.48959 39.781753 
L 181.50912 177.971751 
L 181.58166 141.657004 
L 181.66257 178.36979 
L 181.60677 39.971687 
L 181.67931 41.782805 
L 181.6821 41.911489 
L 181.69884 178.231248 
L 181.71558 40.012994 
L 181.80765 124.748776 
L 181.91088 39.78344 
L 181.83276 178.244153 
L 181.91646 82.276421 
L 181.95552 178.330769 
L 181.96947 40.01056 
L 182.02248 63.490078 
L 182.10618 39.787646 
L 182.06712 178.279597 
L 182.11734 172.159541 
L 182.14524 176.604569 
L 182.13129 40.282283 
L 182.15082 104.702014 
L 182.22894 39.946102 
L 182.2401 178.327288 
L 182.25684 99.080516 
L 182.30706 178.324021 
L 182.36007 39.78347 
L 182.37123 175.566472 
L 182.47725 39.977864 
L 182.42982 178.369777 
L 182.48283 136.865506 
L 182.52189 178.215417 
L 182.51352 40.134794 
L 182.59164 167.27895 
L 182.66139 39.812688 
L 182.62233 178.31105 
L 182.70603 39.908028 
L 182.79531 178.277933 
L 182.81484 39.780834 
L 182.82321 146.785068 
L 182.83995 39.835157 
L 182.87064 178.156218 
L 182.93481 52.84297 
L 182.98224 176.973779 
L 182.97666 39.798879 
L 183.04362 131.624879 
L 183.08826 177.950417 
L 183.15243 39.840846 
L 183.21102 178.353632 
L 183.22218 39.780005 
L 183.26124 177.750952 
L 183.34215 39.791852 
L 183.31425 178.271906 
L 183.37284 97.78324 
L 183.47328 178.315433 
L 183.45654 40.565655 
L 183.48165 117.968586 
L 183.55419 39.87187 
L 183.56814 178.332342 
L 183.59325 53.992629 
L 183.72438 178.379986 
L 183.67695 39.803454 
L 183.72996 170.989541 
L 183.7467 40.253924 
L 183.77739 178.378419 
L 183.83877 40.32221 
L 183.87504 178.320973 
L 183.91689 39.796304 
L 183.95037 86.244069 
L 183.99222 178.210147 
L 184.01175 40.416721 
L 184.05639 114.629016 
L 184.15404 39.799781 
L 184.15962 177.570046 
L 184.16799 41.154537 
L 184.18473 177.55463 
L 184.26843 40.076085 
L 184.28238 177.456924 
L 184.31028 178.314231 
L 184.39677 39.857461 
L 184.50558 178.103308 
L 184.4721 39.791075 
L 184.50837 171.052725 
L 184.55301 41.743461 
L 184.5279 178.368925 
L 184.61718 175.213646 
L 184.68972 39.845769 
L 184.66461 177.794447 
L 184.72878 90.571134 
L 184.73157 178.083915 
L 184.81527 40.60537 
L 184.83759 168.74141 
L 184.84596 178.360219 
L 184.94919 40.326975 
L 184.96314 62.394748 
L 184.98825 177.743279 
L 185.00778 39.949853 
L 185.07195 45.868246 
L 185.07474 42.960557 
L 185.08032 143.980267 
L 185.08311 178.363696 
L 185.12496 39.839027 
L 185.18634 102.843019 
L 185.27562 39.780014 
L 185.2533 177.906076 
L 185.29794 39.8488 
L 185.30631 54.208452 
L 185.32305 178.356546 
L 185.38722 39.835652 
L 185.41791 157.52106 
L 185.43186 39.827658 
L 185.44581 178.28813 
L 185.52672 39.844567 
L 185.54346 177.594345 
L 185.63832 90.658223 
L 185.65785 178.368148 
L 185.68575 39.888094 
L 185.74992 159.083325 
L 185.78898 39.806368 
L 185.77782 178.379995 
L 185.86152 80.130467 
L 185.87268 178.309656 
L 185.91174 40.209583 
L 185.97312 176.702304 
L 186.01776 41.186221 
L 186.02334 178.361121 
L 186.08472 67.931126 
L 186.18516 178.379166 
L 186.12936 40.003782 
L 186.19632 155.234865 
L 186.22422 178.024173 
L 186.20469 39.882067 
L 186.2856 50.521293 
L 186.33861 178.347312 
L 186.37767 39.84895 
L 186.39162 58.832138 
L 186.47811 39.944583 
L 186.46974 176.801482 
L 186.48369 141.19643 
L 186.52275 178.182136 
L 186.57018 39.790223 
L 186.58692 63.905957 
L 186.58971 39.814809 
L 186.63993 178.37653 
L 186.69573 63.264973 
L 186.77106 178.213898 
L 186.7599 39.832712 
L 186.80454 50.747136 
L 186.80733 40.68362 
L 186.81849 178.211619 
L 186.88824 124.479388 
L 186.89382 178.372354 
L 186.93288 39.880403 
L 187.00263 176.72335 
L 187.04448 39.829231 
L 187.08912 178.37656 
L 187.11423 139.399059 
L 187.11981 178.368024 
L 187.16724 39.915847 
L 187.22304 123.897435 
L 187.28442 178.147006 
L 187.33743 39.79021 
L 187.39323 178.188313 
L 187.44903 41.560986 
L 187.45182 41.44883 
L 187.51041 178.378247 
L 187.49088 40.188249 
L 187.56621 71.573816 
L 187.61643 39.86447 
L 187.59411 178.329756 
L 187.66944 87.420468 
L 187.68339 178.324344 
L 187.75314 39.78414 
L 187.78383 153.396288 
L 187.85079 39.899387 
L 187.82568 178.253345 
L 187.90659 47.529269 
L 187.92891 178.37993 
L 188.00982 39.849561 
L 188.04051 176.071345 
L 188.12421 39.932578 
L 188.09631 178.105116 
L 188.14932 167.813563 
L 188.1549 178.359846 
L 188.18559 39.907962 
L 188.23302 98.213875 
L 188.24697 39.796907 
L 188.28045 177.763867 
L 188.33346 143.737809 
L 188.34462 178.377036 
L 188.3781 39.780001 
L 188.43111 99.521811 
L 188.44785 39.960962 
L 188.48133 178.048551 
L 188.53713 111.345025 
L 188.55387 177.951769 
L 188.59293 39.81367 
L 188.64873 115.795992 
L 188.74917 39.780307 
L 188.71011 178.08205 
L 188.76312 75.886532 
L 188.87472 178.378795 
L 188.83287 39.887649 
L 188.88588 157.087797 
L 189.00864 39.838056 
L 188.964 178.108979 
L 189.0198 61.04245 
L 189.05328 178.223281 
L 189.10071 39.867921 
L 189.15651 171.73461 
L 189.19836 39.814615 
L 189.24858 178.341995 
L 189.31275 58.009303 
L 189.40761 39.911948 
L 189.46062 178.317994 
L 189.47178 166.705466 
L 189.51642 39.887911 
L 189.57501 178.374098 
L 189.5778 177.449207 
L 189.6336 39.782583 
L 189.6894 176.842592 
L 189.69219 178.226435 
L 189.71451 141.533073 
L 189.75357 39.94559 
L 189.81216 175.641637 
L 189.81774 178.378536 
L 189.84564 123.400436 
L 189.88191 39.794229 
L 189.9405 173.678873 
L 189.94887 178.361002 
L 189.98235 107.965792 
L 190.01583 39.783632 
L 190.07163 165.52413 
L 190.08558 178.378596 
L 190.13022 81.091366 
L 190.15533 39.884532 
L 190.21113 158.030348 
L 190.23066 178.306783 
L 190.27809 77.48675 
L 190.3032 39.876494 
L 190.359 151.886006 
L 190.38132 178.379932 
L 190.43154 79.813055 
L 190.45944 39.819451 
L 190.51245 139.801811 
L 190.54035 178.325059 
L 190.59336 82.186862 
L 190.62405 39.801595 
L 190.67706 133.432884 
L 190.71054 178.378864 
L 190.76355 86.235493 
L 190.79982 39.857783 
L 190.85283 131.162756 
L 190.8891 178.38 
L 190.94211 93.555596 
L 190.98117 39.834931 
L 191.03697 124.654643 
L 191.07882 178.373779 
L 191.13183 99.579315 
L 191.17647 39.804957 
L 191.23227 118.350412 
L 191.2797 178.374142 
L 191.33271 106.408649 
L 191.38572 39.834147 
L 191.43873 110.222952 
L 191.49174 178.348785 
L 191.54754 110.540193 
L 191.60334 39.827297 
L 191.65914 103.744875 
L 191.72052 178.377457 
L 191.77353 119.722335 
L 191.84049 39.800876 
L 191.8935 96.422018 
L 191.96325 178.377271 
L 192.01626 125.798901 
L 192.09159 39.80563 
L 192.1446 90.637064 
L 192.22272 178.378859 
L 192.27852 127.51422 
L 192.35943 39.781331 
L 192.41523 87.720372 
L 192.50172 178.364902 
L 192.55473 136.230443 
L 192.6468 39.788956 
L 192.7026 80.694191 
L 192.80025 178.377793 
L 192.85605 138.628797 
L 192.95928 39.803355 
L 193.01229 74.773969 
L 193.1211 178.365755 
L 193.17969 142.231209 
L 193.29408 39.795262 
L 193.34988 72.880032 
L 193.46985 178.374877 
L 193.52844 146.692283 
L 193.65678 39.795445 
L 193.71258 68.424235 
L 193.84929 178.370613 
L 193.90788 149.632739 
L 194.05017 39.786185 
L 194.10876 66.221826 
L 194.25942 178.37954 
L 194.3208 152.319624 
L 194.47983 39.79242 
L 194.54121 64.57351 
L 194.70861 178.376588 
L 194.76999 156.021152 
L 194.94855 39.781392 
L 195.01551 63.682779 
L 195.19965 178.379861 
L 195.26382 158.576493 
L 195.4647 39.782239 
L 195.53445 61.410922 
L 195.74091 178.378121 
L 195.81066 159.409758 
L 196.03386 39.780329 
L 196.10919 60.199999 
L 196.34076 178.379536 
L 196.4133 161.46672 
L 196.6644 39.784017 
L 196.7481 59.46965 
L 197.00757 178.378787 
L 197.0829 163.75014 
L 197.37027 39.780667 
L 197.46513 60.237002 
L 197.75529 178.379808 
L 197.83062 166.390615 
L 198.04545 65.18502 
L 198.16263 39.780085 
L 198.20727 43.540609 
L 198.32166 82.248004 
L 198.59787 178.377162 
L 198.63135 176.335897 
L 198.72621 152.063825 
L 199.05822 39.780444 
L 199.1196 45.216214 
L 199.25631 89.393076 
L 199.55205 178.37993 
L 199.57437 177.741956 
L 199.6497 166.433687 
L 199.85895 89.950825 
L 200.07936 39.781313 
L 200.0961 40.060179 
L 200.15748 46.398247 
L 200.31372 91.938702 
L 200.64573 178.378419 
L 200.6541 178.329939 
L 200.69874 175.757426 
L 200.81592 152.456457 
L 201.25674 39.780156 
L 201.31254 42.448778 
L 201.4353 64.919146 
L 201.91239 178.379217 
L 201.97098 175.980504 
L 202.09374 156.304845 
L 202.62384 39.78007 
L 202.69638 42.98715 
L 202.83588 65.390657 
L 203.39667 178.379169 
L 203.4441 177.136492 
L 203.55291 165.871075 
L 203.79843 111.092324 
L 204.17787 41.244993 
L 204.23646 39.780691 
L 204.28947 41.077336 
L 204.40386 51.842286 
L 204.65217 101.591124 
L 205.07625 176.184841 
L 205.15437 178.37943 
L 205.20459 177.405753 
L 205.31619 168.904154 
L 205.54497 130.43017 
L 206.08065 41.743147 
L 206.16156 39.780283 
L 206.21178 40.577064 
L 206.32338 47.623381 
L 206.54379 78.857311 
L 207.20223 177.17634 
L 207.27198 178.379916 
L 207.32499 177.664389 
L 207.43938 171.523053 
L 207.65979 144.914261 
L 208.44657 40.412642 
L 208.50237 39.780001 
L 208.55538 40.349399 
L 208.66698 45.145031 
L 208.87902 65.9011 
L 209.86947 178.376885 
L 209.87784 178.377405 
L 209.90016 178.26762 
L 209.97828 176.627772 
L 210.13731 167.610492 
L 210.42747 135.866347 
L 211.2282 44.1201 
L 211.41234 39.78006 
L 211.42908 39.818984 
L 211.49604 40.687739 
L 211.63833 46.174706 
L 211.88943 66.23201 
L 213.10308 178.178453 
L 213.14772 178.379997 
L 213.20073 178.101696 
L 213.31233 175.720936 
L 213.51321 165.756678 
L 213.85917 135.4961 
L 214.8273 46.531068 
L 215.08398 39.900668 
L 215.12583 39.780379 
L 215.17605 39.990043 
L 215.28765 41.81129 
L 215.48853 49.514229 
L 215.81775 72.202314 
L 217.16253 175.325865 
L 217.38852 178.379294 
L 217.42758 178.307329 
L 217.43316 178.282771 
L 217.53081 177.282539 
L 217.71216 172.669227 
L 218.00511 158.537914 
L 218.50731 121.479102 
L 219.4308 54.597767 
L 219.80187 41.873286 
L 220.02228 39.780052 
L 220.0725 39.881847 
L 220.18131 40.824141 
L 220.37382 44.816798 
L 220.67514 56.413396 
L 221.15781 84.957252 
L 222.46353 165.583184 
L 222.84855 176.250441 
L 223.09128 178.366489 
L 223.12755 178.373018 
L 223.16661 178.291034 
L 223.281 177.526663 
L 223.47909 174.415286 
L 223.7832 165.60425 
L 224.24355 144.859055 
L 226.23003 46.452941 
L 226.58436 40.676039 
L 226.79361 39.780315 
L 226.7964 39.780934 
L 226.87173 39.921118 
L 227.01123 40.800952 
L 227.24001 43.92266 
L 227.5776 52.013806 
L 228.06864 69.806491 
L 228.9726 112.425745 
L 229.96305 155.380115 
L 230.52384 171.014124 
L 230.9256 176.957749 
L 231.19065 178.343692 
L 231.26598 178.3714 
L 231.30783 178.317646 
L 231.43896 177.833392 
L 231.65379 176.031511 
L 231.97185 171.198138 
L 232.41825 160.579454 
L 233.06553 139.207051 
L 235.46493 54.68489 
L 236.00898 44.700912 
L 236.41074 40.773287 
L 236.68137 39.811478 
L 236.79297 39.805093 
L 236.81529 39.830803 
L 236.96037 40.214476 
L 237.18915 41.565607 
L 237.51837 45.034045 
L 237.96756 52.395795 
L 238.58136 66.49644 
L 239.52717 94.06683 
L 241.41879 149.578822 
L 242.18325 165.40711 
L 242.77473 173.528835 
L 243.2295 177.119453 
L 243.55593 178.256415 
L 243.75123 178.368611 
L 243.90189 178.17014 
L 244.12509 177.430192 
L 244.44315 175.488388 
L 244.87002 171.346266 
L 245.4336 163.477417 
L 246.18411 149.575295 
L 247.32522 123.750541 
L 249.5628 72.838561 
L 250.49187 56.91664 
L 251.22843 47.781066 
L 251.8227 42.890392 
L 252.29142 40.637469 
L 252.63738 39.877278 
L 252.86616 39.788346 
L 253.06146 39.967839 
L 253.32093 40.561854 
L 253.67247 41.992523 
L 254.13282 44.897094 
L 254.72151 50.168919 
L 255.47202 59.074716 
L 256.46247 73.715318 
L 258.05556 101.079885 
L 260.30709 139.072215 
L 261.48447 155.243338 
L 262.43586 165.458633 
L 263.23101 171.785227 
L 263.89782 175.466604 
L 264.44466 177.371492 
L 264.87432 178.171825 
L 265.19796 178.377825 
L 265.46301 178.297942 
L 265.76154 177.94606 
L 266.13819 177.117552 
L 266.61528 175.477425 
L 267.20955 172.566966 
L 267.94053 167.785 
L 268.8417 160.30731 
L 269.9856 148.812346 
L 271.59264 130.185166 
L 275.91156 79.104773 
L 277.32609 65.512149 
L 278.51463 56.118837 
L 279.54414 49.648771 
L 280.44252 45.325983 
L 281.22093 42.590495 
L 281.89053 40.983099 
L 282.45411 40.155846 
L 282.92283 39.825839 
L 283.33017 39.796837 
L 283.73472 39.999361 
L 284.19228 40.498331 
L 284.73354 41.445318 
L 285.38082 43.061512 
L 286.15086 45.626777 
L 287.06319 49.491524 
L 288.1485 55.11659 
L 289.46259 63.172513 
L 291.13101 74.879348 
L 293.62806 94.174798 
L 297.98883 127.858983 
L 300.02274 141.74487 
L 301.73022 151.935309 
L 303.23682 159.639448 
L 304.58997 165.452916 
L 305.81478 169.781928 
L 306.92799 172.939742 
L 307.93518 175.162755 
L 308.84193 176.656514 
L 309.6594 177.599632 
L 310.39875 178.131225 
L 311.07951 178.358055 
L 311.73516 178.345351 
L 312.40476 178.105585 
L 313.12179 177.603672 
L 313.91694 176.762807 
L 314.81253 175.475574 
L 315.82809 173.606659 
L 316.98315 170.992803 
L 318.30561 167.423646 
L 319.83174 162.634332 
L 321.62292 156.245312 
L 323.80191 147.603694 
L 324 146.780663 
L 324 146.780663 
" clip-path="url(#p816c7a4521)" style="fill: none; stroke: #0088ff; stroke-width: 1.5; stroke-linecap: square"/>
   </g>
   <g id="patch_3">
    <path d="M 45 192.24 
L 45 25.92 
" style="fill: none; stroke: #000000; stroke-width: 0.8; stroke-linejoin: miter; stroke-linecap: square"/>
   </g>
   <g id="patch_4">
    <path d="M 324 192.24 
L 324 25.92 
" style="fill: none; stroke: #000000; stroke-width: 0.8; stroke-linejoin: miter; stroke-linecap: square"/>
   </g>
   <g id="patch_5">
    <path d="M 45 192.24 
L 324 192.24 
" style="fill: none; stroke: #000000; stroke-width: 0.8; stroke-linejoin: miter; stroke-linecap: square"/>
   </g>
   <g id="patch_6">
    <path d="M 45 25.92 
L 324 25.92 
" style="fill: none; stroke: #000000; stroke-width: 0.8; stroke-linejoin: miter; stroke-linecap: square"/>
   </g>
  </g>
 </g>
 <defs>
  <clipPath id="p816c7a4521">
   <rect x="45" y="25.92" width="279" height="166.32"/>
  </clipPath>
 </defs>
</svg>
