<?xml version="1.0" encoding="utf-8" standalone="no"?>
<!DOCTYPE svg PUBLIC "-//W3C//DTD SVG 1.1//EN"
  "http://www.w3.org/Graphics/SVG/1.1/DTD/svg11.dtd">
<svg xmlns:xlink="http://www.w3.org/1999/xlink" width="360pt" height="360pt" viewBox="0 0 360 360" xmlns="http://www.w3.org/2000/svg" version="1.1">
 <metadata>
  <rdf:RDF xmlns:dc="http://purl.org/dc/elements/1.1/" xmlns:cc="http://creativecommons.org/ns#" xmlns:rdf="http://www.w3.org/1999/02/22-rdf-syntax-ns#">
   <cc:Work>
    <dc:type rdf:resource="http://purl.org/dc/dcmitype/StillImage"/>
    <dc:date>2025-11-29T13:26:53.935050</dc:date>
    <dc:format>image/svg+xml</dc:format>
    <dc:creator>
     <cc:Agent>
      <dc:title>Matplotlib v3.10.6, https://matplotlib.org/</dc:title>
     </cc:Agent>
    </dc:creator>
   </cc:Work>
  </rdf:RDF>
 </metadata>
 <defs>
  <style type="text/css">*{stroke-linejoin: round; stroke-linecap: butt}</style>
 </defs>
 <g id="figure_1">
  <g id="patch_1">
   <path d="M 0 360 
L 360 360 
L 360 0 
L 0 0 
z
" style="fill: #ffffff"/>
  </g>
  <g id="axes_1">
   <g id="patch_2">
    <path d="M 323.1 181.8 
C 323.1 163.599215 319.514842 145.575409 312.549703 128.760076 
C 305.584564 111.944743 295.374899 96.664899 282.505 83.795 
C 269.635101 70.925101 254.355257 60.715436 237.539924 53.750297 
C 220.724591 46.785158 202.700785 43.2 184.5 43.2 
C 166.299215 43.2 148.275409 46.785158 131.460076 53.750297 
C 114.644743 60.715436 99.364899 70.925101 86.495 83.795 
C 73.625101 96.664899 63.415436 111.944743 56.450297 128.760076 
C 49.485158 145.575409 45.9 163.599215 45.9 181.8 
C 45.9 200.000785 49.485158 218.024591 56.450297 234.839924 
C 63.415436 251.655257 73.625101 266.935101 86.495 279.805 
C 99.364899 292.674899 114.644743 302.884564 131.460076 309.849703 
C 148.275409 316.814842 166.299215 320.4 184.5 320.4 
C 202.700785 320.4 220.724591 316.814842 237.539924 309.849703 
C 254.355257 302.884564 269.635101 292.674899 282.505 279.805 
C 295.374899 266.935101 305.584564 251.655257 312.549703 234.839924 
C 319.514842 218.024591 323.1 200.000785 323.1 181.8 
M 184.5 181.8 
C 184.5 181.8 184.5 181.8 184.5 181.8 
C 184.5 181.8 184.5 181.8 184.5 181.8 
C 184.5 181.8 184.5 181.8 184.5 181.8 
C 184.5 181.8 184.5 181.8 184.5 181.8 
C 184.5 181.8 184.5 181.8 184.5 181.8 
C 184.5 181.8 184.5 181.8 184.5 181.8 
C 184.5 181.8 184.5 181.8 184.5 181.8 
C 184.5 181.8 184.5 181.8 184.5 181.8 
C 184.5 181.8 184.5 181.8 184.5 181.8 
C 184.5 181.8 184.5 181.8 184.5 181.8 
C 184.5 181.8 184.5 181.8 184.5 181.8 
C 184.5 181.8 184.5 181.8 184.5 181.8 
C 184.5 181.8 184.5 181.8 184.5 181.8 
C 184.5 181.8 184.5 181.8 184.5 181.8 
C 184.5 181.8 184.5 181.8 184.5 181.8 
C 184.5 181.8 184.5 181.8 184.5 181.8 
z
" style="fill: #ffffff"/>
   </g>
   <g id="matplotlib.axis_1">
    <g id="xtick_1">
     <g id="line2d_1">
      <path d="M 184.5 181.8 
L 323.1 181.8 
" clip-path="url(#pe2c5b2be95)" style="fill: none; stroke: #b0b0b0; stroke-width: 0.8; stroke-linecap: square"/>
     </g>
     <g id="text_1">
      <!-- 0° -->
      <g transform="translate(331.41875 184.559375) scale(0.1 -0.1)">
       <defs>
        <path id="DejaVuSans-30" d="M 2034 4250 
Q 1547 4250 1301 3770 
Q 1056 3291 1056 2328 
Q 1056 1369 1301 889 
Q 1547 409 2034 409 
Q 2525 409 2770 889 
Q 3016 1369 3016 2328 
Q 3016 3291 2770 3770 
Q 2525 4250 2034 4250 
z
M 2034 4750 
Q 2819 4750 3233 4129 
Q 3647 3509 3647 2328 
Q 3647 1150 3233 529 
Q 2819 -91 2034 -91 
Q 1250 -91 836 529 
Q 422 1150 422 2328 
Q 422 3509 836 4129 
Q 1250 4750 2034 4750 
z
" transform="scale(0.015625)"/>
        <path id="DejaVuSans-b0" d="M 1600 4347 
Q 1350 4347 1178 4173 
Q 1006 4000 1006 3750 
Q 1006 3503 1178 3333 
Q 1350 3163 1600 3163 
Q 1850 3163 2022 3333 
Q 2194 3503 2194 3750 
Q 2194 3997 2020 4172 
Q 1847 4347 1600 4347 
z
M 1600 4750 
Q 1800 4750 1984 4673 
Q 2169 4597 2303 4453 
Q 2447 4313 2519 4134 
Q 2591 3956 2591 3750 
Q 2591 3338 2302 3052 
Q 2013 2766 1594 2766 
Q 1172 2766 890 3047 
Q 609 3328 609 3750 
Q 609 4169 896 4459 
Q 1184 4750 1600 4750 
z
" transform="scale(0.015625)"/>
       </defs>
       <use xlink:href="#DejaVuSans-30"/>
       <use xlink:href="#DejaVuSans-b0" transform="translate(63.623047 0)"/>
      </g>
     </g>
    </g>
    <g id="xtick_2">
     <g id="line2d_2">
      <path d="M 184.5 181.8 
L 282.505 83.795 
" clip-path="url(#pe2c5b2be95)" style="fill: none; stroke: #b0b0b0; stroke-width: 0.8; stroke-linecap: square"/>
     </g>
     <g id="text_2">
      <!-- 45° -->
      <g transform="translate(283.541995 76.65488) scale(0.1 -0.1)">
       <defs>
        <path id="DejaVuSans-34" d="M 2419 4116 
L 825 1625 
L 2419 1625 
L 2419 4116 
z
M 2253 4666 
L 3047 4666 
L 3047 1625 
L 3713 1625 
L 3713 1100 
L 3047 1100 
L 3047 0 
L 2419 0 
L 2419 1100 
L 313 1100 
L 313 1709 
L 2253 4666 
z
" transform="scale(0.015625)"/>
        <path id="DejaVuSans-35" d="M 691 4666 
L 3169 4666 
L 3169 4134 
L 1269 4134 
L 1269 2991 
Q 1406 3038 1543 3061 
Q 1681 3084 1819 3084 
Q 2600 3084 3056 2656 
Q 3513 2228 3513 1497 
Q 3513 744 3044 326 
Q 2575 -91 1722 -91 
Q 1428 -91 1123 -41 
Q 819 9 494 109 
L 494 744 
Q 775 591 1075 516 
Q 1375 441 1709 441 
Q 2250 441 2565 725 
Q 2881 1009 2881 1497 
Q 2881 1984 2565 2268 
Q 2250 2553 1709 2553 
Q 1456 2553 1204 2497 
Q 953 2441 691 2322 
L 691 4666 
z
" transform="scale(0.015625)"/>
       </defs>
       <use xlink:href="#DejaVuSans-34"/>
       <use xlink:href="#DejaVuSans-35" transform="translate(63.623047 0)"/>
       <use xlink:href="#DejaVuSans-b0" transform="translate(127.246094 0)"/>
      </g>
     </g>
    </g>
    <g id="xtick_3">
     <g id="line2d_3">
      <path d="M 184.5 181.8 
L 184.5 43.2 
" clip-path="url(#pe2c5b2be95)" style="fill: none; stroke: #b0b0b0; stroke-width: 0.8; stroke-linecap: square"/>
     </g>
     <g id="text_3">
      <!-- 90° -->
      <g transform="translate(175.6375 31.959375) scale(0.1 -0.1)">
       <defs>
        <path id="DejaVuSans-39" d="M 703 97 
L 703 672 
Q 941 559 1184 500 
Q 1428 441 1663 441 
Q 2288 441 2617 861 
Q 2947 1281 2994 2138 
Q 2813 1869 2534 1725 
Q 2256 1581 1919 1581 
Q 1219 1581 811 2004 
Q 403 2428 403 3163 
Q 403 3881 828 4315 
Q 1253 4750 1959 4750 
Q 2769 4750 3195 4129 
Q 3622 3509 3622 2328 
Q 3622 1225 3098 567 
Q 2575 -91 1691 -91 
Q 1453 -91 1209 -44 
Q 966 3 703 97 
z
M 1959 2075 
Q 2384 2075 2632 2365 
Q 2881 2656 2881 3163 
Q 2881 3666 2632 3958 
Q 2384 4250 1959 4250 
Q 1534 4250 1286 3958 
Q 1038 3666 1038 3163 
Q 1038 2656 1286 2365 
Q 1534 2075 1959 2075 
z
" transform="scale(0.015625)"/>
       </defs>
       <use xlink:href="#DejaVuSans-39"/>
       <use xlink:href="#DejaVuSans-30" transform="translate(63.623047 0)"/>
       <use xlink:href="#DejaVuSans-b0" transform="translate(127.246094 0)"/>
      </g>
     </g>
    </g>
    <g id="xtick_4">
     <g id="line2d_4">
      <path d="M 184.5 181.8 
L 86.495 83.795 
" clip-path="url(#pe2c5b2be95)" style="fill: none; stroke: #b0b0b0; stroke-width: 0.8; stroke-linecap: square"/>
     </g>
     <g id="text_4">
      <!-- 135° -->
      <g transform="translate(64.551755 76.65488) scale(0.1 -0.1)">
       <defs>
        <path id="DejaVuSans-31" d="M 794 531 
L 1825 531 
L 1825 4091 
L 703 3866 
L 703 4441 
L 1819 4666 
L 2450 4666 
L 2450 531 
L 3481 531 
L 3481 0 
L 794 0 
L 794 531 
z
" transform="scale(0.015625)"/>
        <path id="DejaVuSans-33" d="M 2597 2516 
Q 3050 2419 3304 2112 
Q 3559 1806 3559 1356 
Q 3559 666 3084 287 
Q 2609 -91 1734 -91 
Q 1441 -91 1130 -33 
Q 819 25 488 141 
L 488 750 
Q 750 597 1062 519 
Q 1375 441 1716 441 
Q 2309 441 2620 675 
Q 2931 909 2931 1356 
Q 2931 1769 2642 2001 
Q 2353 2234 1838 2234 
L 1294 2234 
L 1294 2753 
L 1863 2753 
Q 2328 2753 2575 2939 
Q 2822 3125 2822 3475 
Q 2822 3834 2567 4026 
Q 2313 4219 1838 4219 
Q 1578 4219 1281 4162 
Q 984 4106 628 3988 
L 628 4550 
Q 988 4650 1302 4700 
Q 1616 4750 1894 4750 
Q 2613 4750 3031 4423 
Q 3450 4097 3450 3541 
Q 3450 3153 3228 2886 
Q 3006 2619 2597 2516 
z
" transform="scale(0.015625)"/>
       </defs>
       <use xlink:href="#DejaVuSans-31"/>
       <use xlink:href="#DejaVuSans-33" transform="translate(63.623047 0)"/>
       <use xlink:href="#DejaVuSans-35" transform="translate(127.246094 0)"/>
       <use xlink:href="#DejaVuSans-b0" transform="translate(190.869141 0)"/>
      </g>
     </g>
    </g>
    <g id="xtick_5">
     <g id="line2d_5">
      <path d="M 184.5 181.8 
L 45.9 181.8 
" clip-path="url(#pe2c5b2be95)" style="fill: none; stroke: #b0b0b0; stroke-width: 0.8; stroke-linecap: square"/>
     </g>
     <g id="text_5">
      <!-- 180° -->
      <g transform="translate(19.85625 184.559375) scale(0.1 -0.1)">
       <defs>
        <path id="DejaVuSans-38" d="M 2034 2216 
Q 1584 2216 1326 1975 
Q 1069 1734 1069 1313 
Q 1069 891 1326 650 
Q 1584 409 2034 409 
Q 2484 409 2743 651 
Q 3003 894 3003 1313 
Q 3003 1734 2745 1975 
Q 2488 2216 2034 2216 
z
M 1403 2484 
Q 997 2584 770 2862 
Q 544 3141 544 3541 
Q 544 4100 942 4425 
Q 1341 4750 2034 4750 
Q 2731 4750 3128 4425 
Q 3525 4100 3525 3541 
Q 3525 3141 3298 2862 
Q 3072 2584 2669 2484 
Q 3125 2378 3379 2068 
Q 3634 1759 3634 1313 
Q 3634 634 3220 271 
Q 2806 -91 2034 -91 
Q 1263 -91 848 271 
Q 434 634 434 1313 
Q 434 1759 690 2068 
Q 947 2378 1403 2484 
z
M 1172 3481 
Q 1172 3119 1398 2916 
Q 1625 2713 2034 2713 
Q 2441 2713 2670 2916 
Q 2900 3119 2900 3481 
Q 2900 3844 2670 4047 
Q 2441 4250 2034 4250 
Q 1625 4250 1398 4047 
Q 1172 3844 1172 3481 
z
" transform="scale(0.015625)"/>
       </defs>
       <use xlink:href="#DejaVuSans-31"/>
       <use xlink:href="#DejaVuSans-38" transform="translate(63.623047 0)"/>
       <use xlink:href="#DejaVuSans-30" transform="translate(127.246094 0)"/>
       <use xlink:href="#DejaVuSans-b0" transform="translate(190.869141 0)"/>
      </g>
     </g>
    </g>
    <g id="xtick_6">
     <g id="line2d_6">
      <path d="M 184.5 181.8 
L 86.495 279.805 
" clip-path="url(#pe2c5b2be95)" style="fill: none; stroke: #b0b0b0; stroke-width: 0.8; stroke-linecap: square"/>
     </g>
     <g id="text_6">
      <!-- 225° -->
      <g transform="translate(64.551755 292.46387) scale(0.1 -0.1)">
       <defs>
        <path id="DejaVuSans-32" d="M 1228 531 
L 3431 531 
L 3431 0 
L 469 0 
L 469 531 
Q 828 903 1448 1529 
Q 2069 2156 2228 2338 
Q 2531 2678 2651 2914 
Q 2772 3150 2772 3378 
Q 2772 3750 2511 3984 
Q 2250 4219 1831 4219 
Q 1534 4219 1204 4116 
Q 875 4013 500 3803 
L 500 4441 
Q 881 4594 1212 4672 
Q 1544 4750 1819 4750 
Q 2544 4750 2975 4387 
Q 3406 4025 3406 3419 
Q 3406 3131 3298 2873 
Q 3191 2616 2906 2266 
Q 2828 2175 2409 1742 
Q 1991 1309 1228 531 
z
" transform="scale(0.015625)"/>
       </defs>
       <use xlink:href="#DejaVuSans-32"/>
       <use xlink:href="#DejaVuSans-32" transform="translate(63.623047 0)"/>
       <use xlink:href="#DejaVuSans-35" transform="translate(127.246094 0)"/>
       <use xlink:href="#DejaVuSans-b0" transform="translate(190.869141 0)"/>
      </g>
     </g>
    </g>
    <g id="xtick_7">
     <g id="line2d_7">
      <path d="M 184.5 181.8 
L 184.5 320.4 
" clip-path="url(#pe2c5b2be95)" style="fill: none; stroke: #b0b0b0; stroke-width: 0.8; stroke-linecap: square"/>
     </g>
     <g id="text_7">
      <!-- 270° -->
      <g transform="translate(172.45625 337.159375) scale(0.1 -0.1)">
       <defs>
        <path id="DejaVuSans-37" d="M 525 4666 
L 3525 4666 
L 3525 4397 
L 1831 0 
L 1172 0 
L 2766 4134 
L 525 4134 
L 525 4666 
z
" transform="scale(0.015625)"/>
       </defs>
       <use xlink:href="#DejaVuSans-32"/>
       <use xlink:href="#DejaVuSans-37" transform="translate(63.623047 0)"/>
       <use xlink:href="#DejaVuSans-30" transform="translate(127.246094 0)"/>
       <use xlink:href="#DejaVuSans-b0" transform="translate(190.869141 0)"/>
      </g>
     </g>
    </g>
    <g id="xtick_8">
     <g id="line2d_8">
      <path d="M 184.5 181.8 
L 282.505 279.805 
" clip-path="url(#pe2c5b2be95)" style="fill: none; stroke: #b0b0b0; stroke-width: 0.8; stroke-linecap: square"/>
     </g>
     <g id="text_8">
      <!-- 315° -->
      <g transform="translate(280.360745 292.46387) scale(0.1 -0.1)">
       <use xlink:href="#DejaVuSans-33"/>
       <use xlink:href="#DejaVuSans-31" transform="translate(63.623047 0)"/>
       <use xlink:href="#DejaVuSans-35" transform="translate(127.246094 0)"/>
       <use xlink:href="#DejaVuSans-b0" transform="translate(190.869141 0)"/>
      </g>
     </g>
    </g>
   </g>
   <g id="matplotlib.axis_2">
    <g id="ytick_1">
     <g id="line2d_9">
      <path d="M 200.999929 181.8 
C 200.999929 179.633249 200.573126 177.487567 199.743946 175.485751 
C 198.914767 173.483934 197.699336 171.664913 196.167211 170.132789 
C 194.635087 168.600664 192.816066 167.385233 190.814249 166.556054 
C 188.812433 165.726874 186.666751 165.300071 184.5 165.300071 
C 182.333249 165.300071 180.187567 165.726874 178.185751 166.556054 
C 176.183934 167.385233 174.364913 168.600664 172.832789 170.132789 
C 171.300664 171.664913 170.085233 173.483934 169.256054 175.485751 
C 168.426874 177.487567 168.000071 179.633249 168.000071 181.8 
C 168.000071 183.966751 168.426874 186.112433 169.256054 188.114249 
C 170.085233 190.116066 171.300664 191.935087 172.832789 193.467211 
C 174.364913 194.999336 176.183934 196.214767 178.185751 197.043946 
C 180.187567 197.873126 182.333249 198.299929 184.5 198.299929 
C 186.666751 198.299929 188.812433 197.873126 190.814249 197.043946 
C 192.816066 196.214767 194.635087 194.999336 196.167211 193.467211 
C 197.699336 191.935087 198.914767 190.116066 199.743946 188.114249 
C 200.573126 186.112433 200.999929 183.966751 200.999929 181.8 
" clip-path="url(#pe2c5b2be95)" style="fill: none; stroke: #b0b0b0; stroke-width: 0.8; stroke-linecap: square"/>
     </g>
    </g>
    <g id="ytick_2">
     <g id="line2d_10">
      <path d="M 217.499939 181.8 
C 217.499939 177.466488 216.646331 173.175113 214.987968 169.17147 
C 213.329605 165.167827 210.898736 161.529775 207.834481 158.465519 
C 204.770225 155.401264 201.132173 152.970395 197.12853 151.312032 
C 193.124887 149.653669 188.833512 148.800061 184.5 148.800061 
C 180.166488 148.800061 175.875113 149.653669 171.87147 151.312032 
C 167.867827 152.970395 164.229775 155.401264 161.165519 158.465519 
C 158.101264 161.529775 155.670395 165.167827 154.012032 169.17147 
C 152.353669 173.175113 151.500061 177.466488 151.500061 181.8 
C 151.500061 186.133512 152.353669 190.424887 154.012032 194.42853 
C 155.670395 198.432173 158.101264 202.070225 161.165519 205.134481 
C 164.229775 208.198736 167.867827 210.629605 171.87147 212.287968 
C 175.875113 213.946331 180.166488 214.799939 184.5 214.799939 
C 188.833512 214.799939 193.124887 213.946331 197.12853 212.287968 
C 201.132173 210.629605 204.770225 208.198736 207.834481 205.134481 
C 210.898736 202.070225 213.329605 198.432173 214.987968 194.42853 
C 216.646331 190.424887 217.499939 186.133512 217.499939 181.8 
" clip-path="url(#pe2c5b2be95)" style="fill: none; stroke: #b0b0b0; stroke-width: 0.8; stroke-linecap: square"/>
     </g>
    </g>
    <g id="ytick_3">
     <g id="line2d_11">
      <path d="M 233.999949 181.8 
C 233.999949 175.299726 232.719537 168.862659 230.23199 162.85719 
C 227.744443 156.85172 224.098137 151.394638 219.50175 146.79825 
C 214.905362 142.201863 209.44828 138.555557 203.44281 136.06801 
C 197.437341 133.580463 191.000274 132.300051 184.5 132.300051 
C 177.999726 132.300051 171.562659 133.580463 165.55719 136.06801 
C 159.55172 138.555557 154.094638 142.201863 149.49825 146.79825 
C 144.901863 151.394638 141.255557 156.85172 138.76801 162.85719 
C 136.280463 168.862659 135.000051 175.299726 135.000051 181.8 
C 135.000051 188.300274 136.280463 194.737341 138.76801 200.74281 
C 141.255557 206.74828 144.901863 212.205362 149.49825 216.80175 
C 154.094638 221.398137 159.55172 225.044443 165.55719 227.53199 
C 171.562659 230.019537 177.999726 231.299949 184.5 231.299949 
C 191.000274 231.299949 197.437341 230.019537 203.44281 227.53199 
C 209.44828 225.044443 214.905362 221.398137 219.50175 216.80175 
C 224.098137 212.205362 227.744443 206.74828 230.23199 200.74281 
C 232.719537 194.737341 233.999949 188.300274 233.999949 181.8 
" clip-path="url(#pe2c5b2be95)" style="fill: none; stroke: #b0b0b0; stroke-width: 0.8; stroke-linecap: square"/>
     </g>
    </g>
    <g id="ytick_4">
     <g id="line2d_12">
      <path d="M 250.499959 181.8 
C 250.499959 173.132965 248.792742 164.550206 245.476011 156.542909 
C 242.159281 148.535613 237.297538 141.259501 231.169019 135.130981 
C 225.040499 129.002462 217.764387 124.140719 209.757091 120.823989 
C 201.749794 117.507258 193.167035 115.800041 184.5 115.800041 
C 175.832965 115.800041 167.250206 117.507258 159.242909 120.823989 
C 151.235613 124.140719 143.959501 129.002462 137.830981 135.130981 
C 131.702462 141.259501 126.840719 148.535613 123.523989 156.542909 
C 120.207258 164.550206 118.500041 173.132965 118.500041 181.8 
C 118.500041 190.467035 120.207258 199.049794 123.523989 207.057091 
C 126.840719 215.064387 131.702462 222.340499 137.830981 228.469019 
C 143.959501 234.597538 151.235613 239.459281 159.242909 242.776011 
C 167.250206 246.092742 175.832965 247.799959 184.5 247.799959 
C 193.167035 247.799959 201.749794 246.092742 209.757091 242.776011 
C 217.764387 239.459281 225.040499 234.597538 231.169019 228.469019 
C 237.297538 222.340499 242.159281 215.064387 245.476011 207.057091 
C 248.792742 199.049794 250.499959 190.467035 250.499959 181.8 
" clip-path="url(#pe2c5b2be95)" style="fill: none; stroke: #b0b0b0; stroke-width: 0.8; stroke-linecap: square"/>
     </g>
    </g>
    <g id="ytick_5">
     <g id="line2d_13">
      <path d="M 266.999969 181.8 
C 266.999969 170.966203 264.865948 160.237752 260.720033 150.228629 
C 256.574119 140.219505 250.496939 131.124363 242.836288 123.463712 
C 235.175637 115.803061 226.080495 109.725881 216.071371 105.579967 
C 206.062248 101.434052 195.333797 99.300031 184.5 99.300031 
C 173.666203 99.300031 162.937752 101.434052 152.928629 105.579967 
C 142.919505 109.725881 133.824363 115.803061 126.163712 123.463712 
C 118.503061 131.124363 112.425881 140.219505 108.279967 150.228629 
C 104.134052 160.237752 102.000031 170.966203 102.000031 181.8 
C 102.000031 192.633797 104.134052 203.362248 108.279967 213.371371 
C 112.425881 223.380495 118.503061 232.475637 126.163712 240.136288 
C 133.824363 247.796939 142.919505 253.874119 152.928629 258.020033 
C 162.937752 262.165948 173.666203 264.299969 184.5 264.299969 
C 195.333797 264.299969 206.062248 262.165948 216.071371 258.020033 
C 226.080495 253.874119 235.175637 247.796939 242.836288 240.136288 
C 250.496939 232.475637 256.574119 223.380495 260.720033 213.371371 
C 264.865948 203.362248 266.999969 192.633797 266.999969 181.8 
" clip-path="url(#pe2c5b2be95)" style="fill: none; stroke: #b0b0b0; stroke-width: 0.8; stroke-linecap: square"/>
     </g>
    </g>
    <g id="ytick_6">
     <g id="line2d_14">
      <path d="M 283.49998 181.8 
C 283.49998 168.799442 280.939153 155.925298 275.964055 143.914348 
C 270.988957 131.903398 263.69634 120.989226 254.503557 111.796443 
C 245.310774 102.60366 234.396602 95.311043 222.385652 90.335945 
C 210.374702 85.360847 197.500558 82.80002 184.5 82.80002 
C 171.499442 82.80002 158.625298 85.360847 146.614348 90.335945 
C 134.603398 95.311043 123.689226 102.60366 114.496443 111.796443 
C 105.30366 120.989226 98.011043 131.903398 93.035945 143.914348 
C 88.060847 155.925298 85.50002 168.799442 85.50002 181.8 
C 85.50002 194.800558 88.060847 207.674702 93.035945 219.685652 
C 98.011043 231.696602 105.30366 242.610774 114.496443 251.803557 
C 123.689226 260.99634 134.603398 268.288957 146.614348 273.264055 
C 158.625298 278.239153 171.499442 280.79998 184.5 280.79998 
C 197.500558 280.79998 210.374702 278.239153 222.385652 273.264055 
C 234.396602 268.288957 245.310774 260.99634 254.503557 251.803557 
C 263.69634 242.610774 270.988957 231.696602 275.964055 219.685652 
C 280.939153 207.674702 283.49998 194.800558 283.49998 181.8 
" clip-path="url(#pe2c5b2be95)" style="fill: none; stroke: #b0b0b0; stroke-width: 0.8; stroke-linecap: square"/>
     </g>
    </g>
    <g id="ytick_7">
     <g id="line2d_15">
      <path d="M 299.99999 181.8 
C 299.99999 166.63268 297.012359 151.612844 291.208077 137.600067 
C 285.403795 123.587291 276.895741 110.854089 266.170826 100.129174 
C 255.445911 89.404259 242.712709 80.896205 228.699933 75.091923 
C 214.687156 69.287641 199.66732 66.30001 184.5 66.30001 
C 169.33268 66.30001 154.312844 69.287641 140.300067 75.091923 
C 126.287291 80.896205 113.554089 89.404259 102.829174 100.129174 
C 92.104259 110.854089 83.596205 123.587291 77.791923 137.600067 
C 71.987641 151.612844 69.00001 166.63268 69.00001 181.8 
C 69.00001 196.96732 71.987641 211.987156 77.791923 225.999933 
C 83.596205 240.012709 92.104259 252.745911 102.829174 263.470826 
C 113.554089 274.195741 126.287291 282.703795 140.300067 288.508077 
C 154.312844 294.312359 169.33268 297.29999 184.5 297.29999 
C 199.66732 297.29999 214.687156 294.312359 228.699933 288.508077 
C 242.712709 282.703795 255.445911 274.195741 266.170826 263.470826 
C 276.895741 252.745911 285.403795 240.012709 291.208077 225.999933 
C 297.012359 211.987156 299.99999 196.96732 299.99999 181.8 
" clip-path="url(#pe2c5b2be95)" style="fill: none; stroke: #b0b0b0; stroke-width: 0.8; stroke-linecap: square"/>
     </g>
    </g>
    <g id="ytick_8">
     <g id="line2d_16">
      <path d="M 316.5 181.8 
C 316.5 164.465919 313.085564 147.30039 306.452098 131.285787 
C 299.818633 115.271184 290.095141 100.718951 277.838095 88.461905 
C 265.581049 76.204859 251.028816 66.481367 235.014213 59.847902 
C 218.99961 53.214436 201.834081 49.8 184.5 49.8 
C 167.165919 49.8 150.00039 53.214436 133.985787 59.847902 
C 117.971184 66.481367 103.418951 76.204859 91.161905 88.461905 
C 78.904859 100.718951 69.181367 115.271184 62.547902 131.285787 
C 55.914436 147.30039 52.5 164.465919 52.5 181.8 
C 52.5 199.134081 55.914436 216.29961 62.547902 232.314213 
C 69.181367 248.328816 78.904859 262.881049 91.161905 275.138095 
C 103.418951 287.395141 117.971184 297.118633 133.985787 303.752098 
C 150.00039 310.385564 167.165919 313.8 184.5 313.8 
C 201.834081 313.8 218.99961 310.385564 235.014213 303.752098 
C 251.028816 297.118633 265.581049 287.395141 277.838095 275.138095 
C 290.095141 262.881049 299.818633 248.328816 306.452098 232.314213 
C 313.085564 216.29961 316.5 199.134081 316.5 181.8 
" clip-path="url(#pe2c5b2be95)" style="fill: none; stroke: #b0b0b0; stroke-width: 0.8; stroke-linecap: square"/>
     </g>
    </g>
   </g>
   <g id="line2d_17">
    <path d="M 316.5 181.8 
L 316.381689 177.238398 
L 316.02718 172.690422 
L 315.437744 168.169641 
L 314.615492 163.689516 
L 313.563366 159.263341 
L 312.285129 154.904191 
L 310.785344 150.624871 
L 309.069356 146.437862 
L 307.143271 142.35527 
L 305.013925 138.388782 
L 302.688859 134.549613 
L 300.176279 130.848469 
L 297.48503 127.295499 
L 294.624549 123.900258 
L 291.604827 120.67167 
L 288.436368 117.617996 
L 285.130138 114.746797 
L 281.697525 112.064915 
L 278.150283 109.57844 
L 274.500485 107.292695 
L 270.76047 105.212216 
L 266.94279 103.340739 
L 263.060158 101.681186 
L 259.125391 100.235663 
L 255.151359 99.005456 
L 251.150928 97.991028 
L 247.136906 97.192027 
L 243.121991 96.607293 
L 239.118716 96.234867 
L 235.139399 96.072012 
L 231.19609 96.115224 
L 226.949145 96.392378 
L 222.773752 96.903224 
L 218.684063 97.640311 
L 214.693581 98.595267 
L 210.815092 99.75885 
L 207.060608 101.121009 
L 203.441316 102.670944 
L 199.967524 104.397174 
L 196.648621 106.287604 
L 193.493033 108.329597 
L 190.508198 110.510049 
L 187.474733 113.012797 
L 184.655953 115.644638 
L 182.05718 118.387697 
L 179.682265 121.22391 
L 177.533585 124.135139 
L 175.612052 127.103298 
L 173.917127 130.110468 
L 172.342966 133.372365 
L 171.025068 136.637552 
L 169.957379 139.885218 
L 169.132122 143.095398 
L 168.539884 146.249118 
L 168.151464 149.545198 
L 168.002704 152.735641 
L 168.076662 155.801906 
L 168.380236 158.917065 
L 168.892226 161.854566 
L 169.587263 164.599717 
L 170.496718 167.292587 
L 171.550324 169.74472 
L 172.786173 172.071589 
L 174.182086 174.224025 
L 175.703423 176.155658 
L 177.302464 177.826017 
L 178.918493 179.20412 
L 180.542655 180.310931 
L 182.164738 181.148959 
L 183.615696 181.652736 
L 184.5 181.8 
L 184.020952 181.858255 
L 182.837934 182.185446 
L 181.396034 182.814475 
L 179.82064 183.747954 
L 178.195312 184.97691 
L 176.620575 186.446017 
L 175.091751 188.176346 
L 173.659706 190.132721 
L 172.362837 192.272968 
L 171.164075 194.692762 
L 170.157577 197.230799 
L 169.306832 200.006362 
L 168.677389 202.825182 
L 168.24065 205.831181 
L 168.028373 208.805319 
L 168.026675 211.914919 
L 168.253518 215.142728 
L 168.685928 218.245121 
L 169.343691 221.416845 
L 170.237324 224.639718 
L 171.375781 227.894467 
L 172.766356 231.160871 
L 174.28823 234.186028 
L 176.035327 237.185773 
L 178.009283 240.142393 
L 180.210305 243.037919 
L 182.637145 245.854244 
L 185.287084 248.573236 
L 188.155932 251.176863 
L 190.993528 253.462406 
L 194.007295 255.62071 
L 197.190645 257.63834 
L 200.535975 259.502267 
L 204.034695 261.199939 
L 207.677259 262.719358 
L 211.453209 264.049152 
L 215.35122 265.178641 
L 219.359145 266.097904 
L 223.464074 266.797841 
L 227.652392 267.27023 
L 231.909843 267.507778 
L 235.860582 267.513818 
L 239.84516 267.313097 
L 243.851475 266.902252 
L 247.867165 266.278682 
L 251.879665 265.440575 
L 255.876251 264.386917 
L 259.844101 263.117503 
L 263.770345 261.632946 
L 267.642119 259.934681 
L 271.446619 258.024962 
L 275.17116 255.90686 
L 278.803222 253.584259 
L 282.330512 251.061836 
L 285.74101 248.345058 
L 289.023026 245.440151 
L 292.165245 242.354091 
L 295.156781 239.094569 
L 297.98722 235.669967 
L 300.646669 232.089327 
L 303.125794 228.362316 
L 305.415867 224.499187 
L 307.508797 220.51074 
L 309.39717 216.408281 
L 311.07428 212.203576 
L 312.534159 207.908803 
L 313.771601 203.536506 
L 314.782187 199.099541 
L 315.562304 194.61103 
L 316.109159 190.0843 
L 316.420792 185.532834 
L 316.5 181.8 
L 316.5 181.8 
" clip-path="url(#pe2c5b2be95)" style="fill: none; stroke: #1f77b4; stroke-width: 1.5; stroke-linecap: square"/>
   </g>
   <g id="patch_3">
    <path d="M 323.1 181.8 
C 323.1 163.599215 319.514842 145.575409 312.549703 128.760076 
C 305.584564 111.944743 295.374899 96.664899 282.505 83.795 
C 269.635101 70.925101 254.355257 60.715436 237.539924 53.750297 
C 220.724591 46.785158 202.700785 43.2 184.5 43.2 
C 166.299215 43.2 148.275409 46.785158 131.460076 53.750297 
C 114.644743 60.715436 99.364899 70.925101 86.495 83.795 
C 73.625101 96.664899 63.415436 111.944743 56.450297 128.760076 
C 49.485158 145.575409 45.9 163.599215 45.9 181.8 
C 45.9 200.000785 49.485158 218.024591 56.450297 234.839924 
C 63.415436 251.655257 73.625101 266.935101 86.495 279.805 
C 99.364899 292.674899 114.644743 302.884564 131.460076 309.849703 
C 148.275409 316.814842 166.299215 320.4 184.5 320.4 
C 202.700785 320.4 220.724591 316.814842 237.539924 309.849703 
C 254.355257 302.884564 269.635101 292.674899 282.505 279.805 
C 295.374899 266.935101 305.584564 251.655257 312.549703 234.839924 
C 319.514842 218.024591 323.1 200.000785 323.1 181.8 
" style="fill: none; stroke: #000000; stroke-width: 0.8; stroke-linejoin: miter; stroke-linecap: square"/>
   </g>
  </g>
 </g>
 <defs>
  <clipPath id="pe2c5b2be95">
   <path d="M 323.1 181.8 
C 323.1 163.599215 319.514842 145.575409 312.549703 128.760076 
C 305.584564 111.944743 295.374899 96.664899 282.505 83.795 
C 269.635101 70.925101 254.355257 60.715436 237.539924 53.750297 
C 220.724591 46.785158 202.700785 43.2 184.5 43.2 
C 166.299215 43.2 148.275409 46.785158 131.460076 53.750297 
C 114.644743 60.715436 99.364899 70.925101 86.495 83.795 
C 73.625101 96.664899 63.415436 111.944743 56.450297 128.760076 
C 49.485158 145.575409 45.9 163.599215 45.9 181.8 
C 45.9 200.000785 49.485158 218.024591 56.450297 234.839924 
C 63.415436 251.655257 73.625101 266.935101 86.495 279.805 
C 99.364899 292.674899 114.644743 302.884564 131.460076 309.849703 
C 148.275409 316.814842 166.299215 320.4 184.5 320.4 
C 202.700785 320.4 220.724591 316.814842 237.539924 309.849703 
C 254.355257 302.884564 269.635101 292.674899 282.505 279.805 
C 295.374899 266.935101 305.584564 251.655257 312.549703 234.839924 
C 319.514842 218.024591 323.1 200.000785 323.1 181.8 
M 184.5 181.8 
C 184.5 181.8 184.5 181.8 184.5 181.8 
C 184.5 181.8 184.5 181.8 184.5 181.8 
C 184.5 181.8 184.5 181.8 184.5 181.8 
C 184.5 181.8 184.5 181.8 184.5 181.8 
C 184.5 181.8 184.5 181.8 184.5 181.8 
C 184.5 181.8 184.5 181.8 184.5 181.8 
C 184.5 181.8 184.5 181.8 184.5 181.8 
C 184.5 181.8 184.5 181.8 184.5 181.8 
C 184.5 181.8 184.5 181.8 184.5 181.8 
C 184.5 181.8 184.5 181.8 184.5 181.8 
C 184.5 181.8 184.5 181.8 184.5 181.8 
C 184.5 181.8 184.5 181.8 184.5 181.8 
C 184.5 181.8 184.5 181.8 184.5 181.8 
C 184.5 181.8 184.5 181.8 184.5 181.8 
C 184.5 181.8 184.5 181.8 184.5 181.8 
C 184.5 181.8 184.5 181.8 184.5 181.8 
z
"/>
  </clipPath>
 </defs>
</svg>
