<?xml version="1.0" encoding="utf-8" standalone="no"?>
<!DOCTYPE svg PUBLIC "-//W3C//DTD SVG 1.1//EN"
  "http://www.w3.org/Graphics/SVG/1.1/DTD/svg11.dtd">
<svg xmlns:xlink="http://www.w3.org/1999/xlink" width="460.8pt" height="345.6pt" viewBox="0 0 460.8 345.6" xmlns="http://www.w3.org/2000/svg" version="1.1">
 <metadata>
  <rdf:RDF xmlns:dc="http://purl.org/dc/elements/1.1/" xmlns:cc="http://creativecommons.org/ns#" xmlns:rdf="http://www.w3.org/1999/02/22-rdf-syntax-ns#">
   <cc:Work>
    <dc:type rdf:resource="http://purl.org/dc/dcmitype/StillImage"/>
    <dc:date>2025-11-30T13:58:53.063677</dc:date>
    <dc:format>image/svg+xml</dc:format>
    <dc:creator>
     <cc:Agent>
      <dc:title>Matplotlib v3.10.6, https://matplotlib.org/</dc:title>
     </cc:Agent>
    </dc:creator>
   </cc:Work>
  </rdf:RDF>
 </metadata>
 <defs>
  <style type="text/css">*{stroke-linejoin: round; stroke-linecap: butt}</style>
 </defs>
 <g id="figure_1">
  <g id="patch_1">
   <path d="M 0 345.6 
L 460.8 345.6 
L 460.8 0 
L 0 0 
z
" style="fill: #ffffff"/>
  </g>
  <g id="axes_1">
   <g id="patch_2">
    <path d="M 103.104 307.584 
L 369.216 307.584 
L 369.216 41.472 
L 103.104 41.472 
z
" style="fill: #ffffff"/>
   </g>
   <g id="matplotlib.axis_1">
    <g id="text_1">
     <!-- $\it{x_2}$ -->
     <g transform="translate(230.81 319.182437) scale(0.1 -0.1)">
      <defs>
       <path id="DejaVuSans-Oblique-78" d="M 3841 3500 
L 2234 1784 
L 3219 0 
L 2559 0 
L 1819 1388 
L 531 0 
L -166 0 
L 1556 1844 
L 641 3500 
L 1300 3500 
L 1972 2234 
L 3144 3500 
L 3841 3500 
z
" transform="scale(0.015625)"/>
       <path id="DejaVuSans-32" d="M 1228 531 
L 3431 531 
L 3431 0 
L 469 0 
L 469 531 
Q 828 903 1448 1529 
Q 2069 2156 2228 2338 
Q 2531 2678 2651 2914 
Q 2772 3150 2772 3378 
Q 2772 3750 2511 3984 
Q 2250 4219 1831 4219 
Q 1534 4219 1204 4116 
Q 875 4013 500 3803 
L 500 4441 
Q 881 4594 1212 4672 
Q 1544 4750 1819 4750 
Q 2544 4750 2975 4387 
Q 3406 4025 3406 3419 
Q 3406 3131 3298 2873 
Q 3191 2616 2906 2266 
Q 2828 2175 2409 1742 
Q 1991 1309 1228 531 
z
" transform="scale(0.015625)"/>
      </defs>
      <use xlink:href="#DejaVuSans-Oblique-78" transform="translate(0 0.3125)"/>
      <use xlink:href="#DejaVuSans-32" transform="translate(59.179688 -16.09375) scale(0.7)"/>
     </g>
    </g>
   </g>
   <g id="matplotlib.axis_2"/>
   <g id="QuadContourSet_1">
    <path clip-path="url(#p87e1f56e4f)" style="fill: none; stroke: #313695"/>
    <path clip-path="url(#p87e1f56e4f)" style="fill: none; stroke: #3d5ba7"/>
    <path d="M 252.585713 238.799889 
L 252.681322 238.8384 
L 253.9008 239.543714 
L 255.601915 241.056 
L 256.1184 241.849389 
L 256.83282 243.2736 
L 257.21944 245.4912 
L 256.940975 247.7088 
L 256.1184 249.728156 
L 256.021526 249.9264 
L 254.222143 252.144 
L 253.9008 252.432065 
L 251.6832 253.997087 
L 250.971268 254.3616 
L 249.4656 254.98221 
L 247.248 255.548007 
L 245.0304 255.760658 
L 242.8128 255.602124 
L 240.5952 255.03794 
L 239.10838 254.3616 
L 238.3776 253.896123 
L 236.546891 252.144 
L 236.16 251.453545 
L 235.520091 249.9264 
L 235.379466 247.7088 
L 235.479586 247.318846 
" clip-path="url(#p87e1f56e4f)" style="fill: none; stroke: #4d7fb9"/>
    <path d="M 227.205126 251.508316 
L 227.073625 249.9264 
L 227.2896 248.151066 
L 227.344648 247.7088 
L 228.082758 245.4912 
L 229.245325 243.2736 
L 229.5072 242.910879 
L 230.903831 241.056 
L 231.7248 240.18849 
L 233.07919 238.8384 
L 233.9424 238.118078 
L 235.87665 236.6208 
L 236.16 236.429523 
L 238.3776 235.085186 
L 239.655263 234.4032 
L 240.5952 233.950483 
L 242.8128 233.059149 
L 245.0304 232.353345 
L 245.807687 232.1856 
L 247.248 231.896293 
L 249.4656 231.67905 
L 251.6832 231.710909 
L 253.9008 232.017218 
L 254.538573 232.1856 
L 256.1184 232.677224 
L 258.336 233.719168 
L 259.430421 234.4032 
L 260.5536 235.273804 
L 261.972846 236.6208 
L 262.7712 237.621345 
L 263.618856 238.8384 
L 264.691902 241.056 
L 264.9888 242.100481 
L 265.298288 243.2736 
L 265.499697 245.4912 
L 265.329884 247.7088 
L 264.9888 249.127571 
L 264.782025 249.9264 
L 263.823262 252.144 
L 262.7712 253.865905 
L 262.434471 254.3616 
L 260.5536 256.52653 
L 260.501266 256.5792 
L 258.336 258.400194 
L 257.778742 258.7968 
L 256.1184 259.832594 
L 253.9008 260.959446 
L 253.764869 261.0144 
L 251.6832 261.784695 
L 249.4656 262.388438 
L 247.248 262.783386 
L 245.0304 262.97319 
L 243.642432 262.962469 
" clip-path="url(#p87e1f56e4f)" style="fill: none; stroke: #69a0ca"/>
    <path d="M 258.663148 265.418595 
L 258.607669 265.4496 
L 258.336 265.592483 
L 256.1184 266.593521 
L 253.9008 267.404604 
L 252.998773 267.6672 
L 251.6832 268.041123 
L 249.4656 268.51402 
L 247.248 268.831202 
L 245.0304 268.997008 
L 242.8128 269.01238 
L 240.5952 268.874836 
L 238.3776 268.578305 
L 236.16 268.112813 
L 234.622254 267.6672 
L 233.9424 267.461065 
L 231.7248 266.594353 
L 229.5072 265.489554 
L 229.439385 265.4496 
L 227.2896 264.042338 
L 226.255112 263.232 
L 225.072 262.147381 
L 224.004841 261.0144 
L 222.8544 259.475448 
L 222.403076 258.7968 
L 221.320998 256.5792 
L 220.666881 254.3616 
L 220.6368 254.112249 
L 220.415055 252.144 
L 220.533033 249.9264 
L 220.6368 249.455977 
L 221.015228 247.7088 
L 221.855536 245.4912 
L 222.8544 243.645099 
L 223.055337 243.2736 
L 224.63152 241.056 
L 225.072 240.553693 
L 226.597747 238.8384 
L 227.2896 238.180747 
L 228.974013 236.6208 
L 229.5072 236.188621 
L 231.7248 234.457877 
L 231.798885 234.4032 
L 233.9424 232.974442 
L 235.205417 232.1856 
L 236.16 231.631159 
L 238.3776 230.450431 
L 239.391736 229.968 
L 240.5952 229.420117 
L 242.8128 228.547766 
L 245.0304 227.821957 
L 245.323203 227.7504 
L 247.248 227.287425 
L 249.4656 226.940262 
L 251.6832 226.798132 
L 253.9008 226.880987 
L 256.1184 227.206581 
L 258.19348 227.7504 
L 258.336 227.791605 
L 260.5536 228.694387 
L 262.7712 229.889048 
L 262.893799 229.968 
L 264.9888 231.512712 
L 265.776753 232.1856 
L 267.2064 233.634945 
L 267.89251 234.4032 
L 269.424 236.52652 
L 269.487889 236.6208 
L 270.659324 238.8384 
L 271.489656 241.056 
L 271.6416 241.710972 
L 271.99977 243.2736 
L 272.212044 245.4912 
L 272.142198 247.543822 
" clip-path="url(#p87e1f56e4f)" style="fill: none; stroke: #87bdd9"/>
    <path d="M 236.16 274.467732 
L 235.486746 274.32 
L 233.9424 273.985165 
L 231.7248 273.358337 
L 229.5072 272.564458 
L 228.437792 272.1024 
L 227.2896 271.5907 
L 225.072 270.408341 
L 224.230052 269.8848 
L 222.8544 268.96513 
L 221.186069 267.6672 
L 220.6368 267.189453 
L 218.872019 265.4496 
L 218.4192 264.924682 
L 217.098152 263.232 
L 216.2016 261.782114 
L 215.761421 261.0144 
L 214.80711 258.7968 
L 214.201248 256.5792 
L 213.984 254.874328 
L 213.920566 254.3616 
L 213.954676 252.144 
L 213.984 251.963007 
L 214.296748 249.9264 
L 214.948934 247.7088 
L 215.923076 245.4912 
L 216.2016 245.023356 
L 217.212507 243.2736 
L 218.4192 241.631256 
L 218.834433 241.056 
L 220.6368 239.010497 
L 220.787485 238.8384 
L 222.8544 236.835629 
L 223.077041 236.6208 
L 225.072 234.935809 
L 225.711363 234.4032 
L 227.2896 233.218837 
L 228.69806 232.1856 
L 229.5072 231.63621 
L 231.7248 230.177791 
L 232.058928 229.968 
L 233.9424 228.842044 
L 235.869861 227.7504 
L 236.16 227.5899 
L 238.3776 226.454563 
L 240.343058 225.5328 
L 240.5952 225.41411 
L 242.8128 224.497552 
L 245.0304 223.709133 
L 246.407447 223.3152 
L 247.248 223.067164 
L 249.4656 222.593118 
L 251.6832 222.30793 
L 253.9008 222.229531 
L 256.1184 222.373388 
L 258.336 222.751303 
L 260.362263 223.3152 
L 260.5536 223.370938 
L 262.7712 224.243578 
L 264.9888 225.362708 
L 265.276235 225.5328 
L 265.633858 225.761823 
M 278.693017 244.450211 
L 278.822803 245.4912 
L 278.853568 247.7088 
L 278.641939 249.9264 
L 278.2944 251.626253 
L 278.188418 252.144 
L 277.49912 254.3616 
L 276.547333 256.5792 
L 276.0768 257.452539 
L 275.325959 258.7968 
L 273.8592 260.939108 
L 273.804737 261.0144 
L 271.951719 263.232 
L 271.6416 263.559443 
L 269.698892 265.4496 
L 269.424 265.692556 
L 267.2064 267.476855 
L 266.943322 267.6672 
L 264.9888 268.996051 
L 263.48821 269.8848 
L 262.7712 270.293265 
L 260.5536 271.403221 
L 258.90626 272.1024 
L 258.336 272.341698 
L 256.1184 273.138043 
L 253.9008 273.784839 
L 251.6832 274.294444 
L 251.537255 274.32 
L 249.4656 274.692374 
L 247.248 274.96405 
L 245.0304 275.112475 
L 242.8128 275.139277 
L 240.5952 275.043554 
L 238.3776 274.821798 
L 236.16 274.467732 
M 174.0672 169.491299 
L 173.022738 167.8752 
L 172.79007 165.6576 
L 173.449191 163.44 
L 174.0672 162.477629 
L 175.707033 161.2224 
L 176.2848 160.927693 
L 178.5024 161.199984 
L 178.528441 161.2224 
L 179.764818 163.44 
L 179.773483 165.6576 
L 178.921046 167.8752 
L 178.5024 168.467635 
L 176.2848 169.996688 
L 174.0672 169.491299 
z
" clip-path="url(#p87e1f56e4f)" style="fill: none; stroke: #a8d6e8"/>
    <path d="M 228.661818 228.239606 
L 231.7248 226.349332 
L 237.097418 223.3152 
L 240.5952 221.522704 
L 245.0304 219.585896 
L 247.248 218.811326 
L 249.4656 218.172291 
L 251.6832 217.727529 
L 253.9008 217.495164 
L 256.1184 217.489994 
L 258.336 217.722101 
L 260.5536 218.19575 
L 262.7712 218.907816 
L 264.9888 219.824394 
L 267.446181 221.0976 
L 270.941829 223.3152 
L 273.8592 225.542777 
L 276.336412 227.7504 
L 278.49182 229.968 
L 280.512 232.410001 
L 281.950853 234.4032 
L 283.279652 236.6208 
L 284.361722 238.8384 
L 285.197476 241.056 
L 285.818926 243.2736 
L 286.205794 245.4912 
L 286.372611 247.7088 
L 286.327536 249.9264 
L 286.072647 252.144 
L 285.604022 254.3616 
L 284.913751 256.5792 
L 284.037045 258.7968 
L 282.7296 261.320362 
L 281.569078 263.232 
L 279.957629 265.4496 
L 278.062478 267.6672 
L 275.845669 269.8848 
L 273.239946 272.1024 
L 270.137999 274.32 
L 269.424 274.787122 
L 266.352142 276.5376 
L 264.9888 277.245741 
L 261.481177 278.7552 
L 258.336 279.891873 
L 253.9008 281.049804 
L 249.4656 281.824628 
L 245.0304 282.179848 
L 240.5952 282.136996 
L 236.16 281.68553 
L 231.7248 280.794711 
L 229.5072 280.194361 
L 225.547813 278.7552 
L 225.072 278.566286 
L 222.8544 277.547203 
L 220.6368 276.3341 
L 217.566924 274.32 
L 214.835623 272.1024 
L 212.625956 269.8848 
L 210.836635 267.6672 
L 209.414652 265.4496 
L 208.300665 263.232 
L 207.3312 260.313483 
L 206.969353 258.7968 
L 206.713279 256.5792 
L 206.733059 254.3616 
L 207.031211 252.144 
L 207.602865 249.9264 
L 208.447475 247.7088 
L 209.609189 245.4912 
L 211.041829 243.2736 
L 211.871008 242.242424 
M 165.1968 186.646743 
L 162.9792 185.366016 
L 160.7616 183.337266 
L 159.188015 181.1808 
L 158.016353 178.9632 
L 157.1831 176.7456 
L 156.60001 174.528 
L 156.232483 172.3104 
L 156.054864 170.0928 
L 156.048301 167.8752 
L 156.3264 164.800266 
L 156.521696 163.44 
L 157.001071 161.2224 
L 157.648971 159.0048 
L 158.544 156.641246 
L 159.527136 154.5696 
L 160.812901 152.352 
L 162.9792 149.502005 
L 165.1968 147.317306 
L 167.4144 145.679073 
L 169.632 144.516463 
L 171.8496 143.7067 
L 174.0672 143.241903 
L 176.2848 143.088282 
L 178.5024 143.220755 
L 180.72 143.643266 
L 182.9376 144.388853 
L 185.569536 145.6992 
L 187.3728 146.958378 
L 188.469411 147.9168 
L 189.5904 149.086528 
L 190.417961 150.1344 
L 191.808 152.435804 
L 192.605942 154.5696 
L 193.108484 156.7872 
L 193.323325 159.0048 
L 193.290184 161.2224 
L 193.043692 163.44 
L 192.611545 165.6576 
L 191.808 168.473659 
L 191.208223 170.0928 
L 189.5904 173.57063 
L 189.054845 174.528 
L 187.3728 177.158487 
L 186.707595 178.007959 
M 168.817025 187.602107 
L 167.4144 187.403302 
L 165.1968 186.646743 
L 165.1968 186.646743 
" clip-path="url(#p87e1f56e4f)" style="fill: none; stroke: #c7e7f1"/>
    <path d="M 215.656318 285.055639 
L 212.608395 283.1904 
L 211.7664 282.628583 
L 209.5488 280.95358 
L 207.00646 278.7552 
L 204.830557 276.5376 
L 202.896 274.194502 
L 201.420074 272.1024 
L 200.133234 269.8848 
L 199.092124 267.6672 
L 198.304497 265.4496 
L 197.720855 263.232 
L 197.380402 261.0144 
L 197.27477 258.7968 
L 197.40488 256.5792 
L 197.782016 254.3616 
L 198.4608 252.072728 
L 199.289861 249.9264 
L 200.6784 247.403129 
L 201.891667 245.4912 
L 203.632642 243.2736 
L 205.67296 241.056 
L 209.5488 237.549002 
L 211.7664 235.756664 
L 213.984 234.07576 
L 219.92821 229.968 
L 231.7248 222.617668 
L 240.5952 217.416617 
L 247.248 214.048718 
L 249.4656 213.15934 
L 251.6832 212.497266 
L 253.9008 212.06439 
L 256.1184 211.895096 
L 258.336 212.030129 
L 260.5536 212.440487 
L 262.7712 213.091477 
L 265.914252 214.4448 
L 267.2064 215.057429 
L 271.6416 217.637735 
L 276.0768 220.675381 
L 279.540198 223.3152 
L 282.7296 226.023654 
L 284.9472 228.069476 
L 287.1648 230.316796 
L 289.3824 232.853489 
L 290.647087 234.4032 
L 292.176358 236.6208 
L 293.8176 239.602916 
L 294.546383 241.056 
L 295.383666 243.2736 
L 296.0352 245.8282 
L 296.397057 247.7088 
L 296.603567 249.9264 
L 296.605082 252.144 
L 296.408398 254.3616 
L 296.015426 256.5792 
L 295.475381 258.7968 
L 294.736845 261.0144 
L 293.783972 263.232 
L 292.693362 265.4496 
L 291.369098 267.6672 
L 289.3824 270.516861 
L 287.1648 273.226916 
L 284.9472 275.57128 
L 282.7296 277.638664 
L 280.512 279.479486 
L 278.2944 281.119728 
L 275.142892 283.1904 
L 273.8592 283.9742 
L 269.424 286.290688 
L 264.9888 288.153898 
L 262.7712 288.94681 
L 258.336 290.22572 
L 253.9008 291.182322 
L 249.4656 291.774221 
L 245.0304 292.044144 
L 240.5952 292.009249 
L 236.16 291.66284 
L 234.84578 291.48567 
M 142.136388 172.913075 
L 142.048484 170.0928 
L 142.260561 165.6576 
L 142.8801 161.2224 
L 143.872949 156.7872 
L 145.2384 152.627087 
L 146.228388 150.1344 
L 147.456 147.61252 
L 148.496764 145.6992 
L 149.917092 143.4816 
L 151.8912 140.885271 
L 154.1088 138.505847 
L 156.3264 136.593251 
L 159.360376 134.6112 
L 160.7616 133.888025 
L 162.9792 133.002981 
L 165.1968 132.38547 
L 167.4144 132.004455 
L 169.632 131.844116 
L 171.8496 131.885139 
L 174.0672 132.111641 
L 176.2848 132.510464 
L 178.5024 133.072707 
L 180.72 133.78938 
L 182.9376 134.652343 
L 185.1552 135.681393 
L 187.3728 136.849357 
L 190.79822 139.0464 
L 191.808 139.782299 
L 194.0256 141.597538 
L 196.2432 143.802486 
L 197.792682 145.6992 
L 199.20662 147.9168 
L 200.227925 150.1344 
L 200.898059 152.352 
L 201.255138 154.5696 
L 201.347988 156.7872 
L 201.21913 159.0048 
L 200.6784 162.279557 
L 200.435927 163.44 
L 199.831797 165.6576 
L 198.269802 170.0928 
L 196.242628 174.528 
L 193.694107 178.9632 
L 191.808 181.740363 
L 189.5904 184.605983 
L 186.695111 187.8336 
L 184.424383 190.0512 
L 181.849353 192.2688 
L 180.72 193.189347 
L 178.5024 194.770877 
L 175.208453 196.704 
L 174.0672 197.327573 
L 171.8496 198.298936 
L 169.632 199.057911 
L 167.4144 199.60388 
L 165.1968 199.915407 
L 162.9792 199.98076 
L 160.7616 199.781819 
L 158.544 199.293202 
L 156.3264 198.482833 
L 154.1088 197.304679 
L 151.8912 195.683919 
L 151.511699 195.335688 
L 151.511699 195.335688 
" clip-path="url(#p87e1f56e4f)" style="fill: none; stroke: #e4f4f1"/>
    <path d="M 176.383816 307.584 
L 176.2848 307.355542 
L 175.424112 305.3664 
L 174.591525 303.1488 
L 174.0672 301.596964 
L 173.835563 300.9312 
L 173.073305 298.7136 
L 172.440637 296.496 
L 171.919213 294.2784 
L 171.8496 293.968671 
L 171.386217 292.0608 
L 170.949741 289.8432 
L 170.619922 287.6256 
L 170.389141 285.408 
L 170.253396 283.1904 
L 170.21212 280.9728 
L 170.268327 278.7552 
L 170.429138 276.5376 
L 170.706816 274.32 
L 171.120572 272.1024 
L 171.699651 269.8848 
L 171.8496 269.4778 
L 172.329013 267.6672 
L 173.115544 265.4496 
L 174.0672 263.434846 
L 174.139115 263.232 
L 175.195516 261.0144 
L 176.2848 259.299916 
L 176.534409 258.7968 
L 177.995872 256.5792 
L 178.5024 255.996412 
L 179.655253 254.3616 
L 180.72 253.219243 
L 181.553894 252.144 
L 182.9376 250.782904 
L 183.679335 249.9264 
L 185.1552 248.610884 
L 186.036591 247.7088 
L 187.3728 246.637866 
L 188.645126 245.4912 
L 189.5904 244.81317 
L 191.537141 243.2736 
L 191.808 243.100101 
L 194.0256 241.51802 
L 194.618782 241.056 
L 196.2432 240.011364 
L 197.955296 238.8384 
L 198.4608 238.54668 
L 200.6784 237.155815 
L 201.476475 236.6208 
L 202.896 235.800861 
L 205.1136 234.461939 
L 205.20335 234.4032 
L 207.3312 233.173996 
L 208.985282 232.1856 
L 209.5488 231.881757 
L 211.7664 230.61251 
L 212.847758 229.968 
L 213.984 229.340873 
L 216.2016 228.070296 
L 216.736677 227.7504 
L 218.4192 226.793517 
L 220.591031 225.5328 
L 220.6368 225.506917 
L 222.8544 224.201117 
L 224.339422 223.3152 
L 225.072 222.877075 
L 227.2896 221.528754 
L 227.994325 221.0976 
L 229.5072 220.14187 
L 231.512853 218.88 
L 231.7248 218.73859 
L 233.9424 217.273019 
L 234.890442 216.6624 
L 236.16 215.767603 
L 238.110907 214.4448 
L 238.3776 214.24103 
L 240.5952 212.642023 
L 241.219043 212.2272 
L 242.8128 210.993947 
L 244.232343 210.0096 
L 245.0304 209.344885 
L 247.199335 207.792 
L 247.248 207.748734 
L 249.4656 206.15728 
L 250.559777 205.5744 
L 251.6832 204.814121 
L 253.9008 203.881486 
L 256.1184 203.514201 
L 258.336 203.680336 
L 260.5536 204.326544 
L 262.7712 205.382777 
L 263.073417 205.5744 
L 264.9888 206.593834 
L 266.852956 207.792 
L 267.2064 207.991621 
L 269.424 209.423172 
L 270.257875 210.0096 
L 271.6416 210.905601 
L 273.561894 212.2272 
L 273.8592 212.421786 
L 276.0768 213.921585 
L 276.841883 214.4448 
L 278.2944 215.424186 
L 280.128054 216.6624 
L 280.512 216.924891 
L 282.7296 218.408607 
L 283.458886 218.88 
L 284.9472 219.884449 
L 286.809605 221.0976 
L 287.1648 221.344901 
L 289.3824 222.796849 
L 290.227288 223.3152 
L 291.6 224.240575 
L 293.639834 225.5328 
L 293.8176 225.659244 
L 294.900947 226.357549 
M 310.502775 236.172639 
L 311.256989 236.6208 
L 311.5584 236.845784 
L 313.776 238.248259 
L 314.851399 238.8384 
L 315.9936 239.643034 
L 318.2112 240.998541 
L 318.326177 241.056 
L 320.4288 242.433388 
L 321.914064 243.2736 
L 322.6464 243.8269 
L 324.864 245.221885 
L 325.389225 245.4912 
L 327.0816 246.673125 
L 328.842586 247.7088 
L 329.2992 248.081351 
L 331.5168 249.531103 
L 332.266493 249.9264 
L 333.7344 251.019754 
L 335.579137 252.144 
L 335.952 252.470808 
L 338.1696 253.98196 
L 338.878768 254.3616 
L 340.3872 255.541897 
L 342.060808 256.5792 
L 342.6048 257.080513 
L 344.8224 258.643928 
L 345.113169 258.7968 
L 347.04 260.323857 
L 348.180755 261.0144 
L 349.2576 262.012395 
L 351.022661 263.232 
L 351.4752 263.718015 
L 353.689009 265.4496 
L 353.6928 265.454275 
L 355.9104 267.362282 
L 356.407882 267.6672 
L 358.128 269.339939 
L 358.935684 269.8848 
L 360.3456 271.40973 
L 361.29427 272.1024 
L 362.5632 273.600635 
L 363.491582 274.32 
L 364.7808 275.945348 
L 365.518607 276.5376 
L 366.9984 278.47648 
L 367.343906 278.7552 
L 369.038837 280.9728 
L 369.216 281.348892 
M 103.104 86.163042 
L 105.3216 87.164196 
L 106.937042 88.0416 
L 107.5392 88.242528 
L 109.7568 89.218825 
L 111.807939 90.2592 
L 111.9744 90.31216 
L 112.695873 90.623009 
M 128.988021 98.120757 
L 129.7152 98.456785 
L 130.933099 99.1296 
L 131.9328 99.507418 
L 134.1504 100.525715 
L 135.691337 101.3472 
L 136.368 101.599595 
L 138.5856 102.617428 
L 140.406603 103.5648 
L 140.8032 103.712473 
L 143.0208 104.735873 
L 145.058013 105.7824 
L 145.2384 105.850259 
L 147.456 106.885349 
L 149.627606 108 
L 149.6736 108.017693 
L 151.8912 109.070747 
L 154.102008 110.2176 
L 154.1088 110.220303 
L 156.3264 111.297794 
L 158.473171 112.4352 
L 158.544 112.464689 
L 160.7616 113.573329 
L 162.738034 114.6528 
L 162.9792 114.758856 
L 165.1968 115.905609 
L 166.897236 116.8704 
L 167.4144 117.112618 
L 169.632 118.304651 
L 170.953219 119.088 
L 171.8496 119.538078 
L 174.0672 120.782617 
L 174.908022 121.3056 
L 176.2848 122.050199 
L 178.5024 123.354218 
L 178.760934 123.5232 
L 180.72 124.667461 
L 182.436424 125.7408 
L 182.9376 126.027425 
L 185.1552 127.412588 
L 185.971347 127.9584 
L 187.3728 128.841412 
L 189.375619 130.176 
L 189.5904 130.314318 
L 191.808 131.841972 
L 192.574799 132.3936 
L 194.0256 133.436662 
L 195.602359 134.6112 
L 196.2432 135.102738 
L 198.428201 136.8288 
L 198.4608 136.85621 
L 200.6784 138.76544 
L 201.004346 139.0464 
L 202.896 140.863022 
L 203.318628 141.264 
L 205.1136 143.251411 
L 205.327634 143.4816 
L 206.995642 145.6992 
L 207.3312 146.291936 
L 208.294215 147.9168 
L 209.16749 150.1344 
L 209.5488 151.967275 
L 209.635101 152.352 
L 209.744745 154.5696 
L 209.5488 156.503896 
L 209.523756 156.7872 
L 209.080622 159.0048 
L 208.444456 161.2224 
L 207.651489 163.44 
L 207.3312 164.195768 
L 206.774092 165.6576 
L 205.815345 167.8752 
L 205.1136 169.333374 
L 204.774279 170.0928 
L 203.677934 172.3104 
L 202.896 173.757506 
L 202.49824 174.528 
L 201.250642 176.7456 
L 200.6784 177.686384 
L 199.917626 178.9632 
L 198.502583 181.1808 
L 198.4608 181.242372 
L 196.996297 183.3984 
L 196.2432 184.455648 
L 195.399572 185.616 
L 194.0256 187.442155 
L 193.719546 187.8336 
L 191.951092 190.0512 
L 191.808 190.229632 
L 190.082452 192.2688 
L 189.5904 192.856907 
L 188.12976 194.4864 
L 187.3728 195.354922 
L 186.095051 196.704 
L 185.1552 197.742041 
L 183.979018 198.9216 
L 182.9376 200.032853 
L 181.781364 201.1392 
L 180.72 202.238188 
L 179.501074 203.3568 
L 178.5024 204.365313 
L 177.136679 205.5744 
L 176.2848 206.418152 
L 174.686563 207.792 
L 174.0672 208.397448 
L 172.149352 210.0096 
L 171.8496 210.300801 
L 169.632 212.136409 
L 169.501906 212.2272 
L 167.4144 213.939399 
L 166.681559 214.4448 
L 165.1968 215.667207 
L 163.752646 216.6624 
L 162.9792 217.30868 
L 160.7616 218.853643 
L 160.715439 218.88 
L 158.544 220.408848 
L 157.368649 221.0976 
L 156.3264 221.862496 
L 154.1088 223.21333 
L 153.902718 223.3152 
L 151.8912 224.582259 
L 150.095549 225.5328 
L 149.6736 225.822004 
L 147.456 227.057097 
L 145.974511 227.7504 
L 145.2384 228.204621 
L 143.0208 229.325531 
L 141.515514 229.968 
L 140.8032 230.376508 
L 138.5856 231.4166 
L 136.688576 232.1856 
L 136.368 232.363663 
L 134.1504 233.351013 
L 131.9328 234.224754 
L 131.372029 234.4032 
L 129.7152 235.142103 
L 127.4976 235.99571 
L 125.644031 236.6208 
L 125.28 236.796478 
L 123.0624 237.649084 
L 120.8448 238.418343 
L 119.426153 238.8384 
L 118.6272 239.185053 
L 116.4096 239.972774 
L 114.192 240.690947 
L 112.863123 241.056 
L 111.9744 241.422437 
L 109.7568 242.174471 
L 107.5392 242.865476 
L 106.020823 243.2736 
L 105.3216 243.562567 
L 103.104 244.300698 
M 249.4656 167.617544 
L 247.331683 165.6576 
L 247.248 165.574892 
L 246.219442 163.44 
L 245.380631 161.2224 
L 245.072141 159.0048 
L 245.758325 156.7872 
L 247.248 155.298652 
L 249.4656 154.82645 
L 251.6832 156.045059 
L 252.219595 156.7872 
L 252.990989 159.0048 
L 253.156393 161.2224 
L 252.870428 163.44 
L 252.211225 165.6576 
L 251.6832 166.841787 
L 249.4656 167.617544 
z
" clip-path="url(#p87e1f56e4f)" style="fill: none; stroke: #f6fbd0"/>
    <path d="M 184.006045 210.352021 
L 182.9376 212.585565 
L 182.126663 214.4448 
L 181.402141 216.6624 
L 180.930722 218.88 
L 180.750462 221.0976 
L 180.931419 223.3152 
L 181.601102 225.5328 
L 183.003678 227.7504 
L 185.1552 229.512814 
L 186.023468 229.968 
L 187.3728 230.504786 
L 189.5904 231.001508 
L 191.808 231.1708 
L 194.0256 231.09497 
L 196.2432 230.82914 
L 200.230407 229.968 
L 200.6784 229.86625 
L 205.1136 228.480826 
L 209.5488 226.779761 
L 213.984 224.821923 
L 218.4192 222.625118 
L 222.8544 220.175736 
L 227.2896 217.432807 
L 229.5072 215.920762 
L 231.7248 214.315106 
L 234.327917 212.2272 
L 236.766077 210.0096 
L 238.86991 207.792 
L 240.620109 205.5744 
L 242.053421 203.3568 
L 243.094823 201.1392 
L 243.798756 198.9216 
L 244.118985 196.704 
L 244.096425 194.4864 
L 243.769701 192.2688 
L 242.8128 189.054914 
L 242.405982 187.8336 
L 241.51433 185.616 
L 238.319279 178.9632 
L 235.945195 174.528 
L 233.23223 170.0928 
L 231.680372 167.8752 
L 229.5072 165.294426 
L 227.2896 163.380711 
L 225.072 162.205492 
L 222.8544 161.963455 
L 220.6368 162.591475 
L 218.4192 163.992425 
L 216.2016 165.999615 
L 212.748207 170.0928 
L 211.055015 172.3104 
L 207.3312 177.439748 
L 204.697106 181.1808 
L 198.164485 190.0512 
L 195.664222 193.358638 
M 215.04285 142.393984 
L 218.4192 144.657996 
L 220.6368 145.776431 
L 222.8544 146.692552 
L 225.072 147.060755 
L 227.2896 146.976546 
L 229.5072 146.551192 
L 240.5952 143.317048 
L 245.0304 142.445218 
L 247.248 142.138076 
L 249.4656 141.945296 
L 251.6832 141.88956 
L 253.9008 141.997469 
L 256.1184 142.302913 
L 258.336 142.852045 
L 260.5536 143.76291 
L 263.155058 145.6992 
L 264.719549 147.9168 
L 265.549972 150.1344 
L 265.959673 152.352 
L 266.109811 154.5696 
L 265.975148 159.0048 
L 264.85805 174.528 
L 264.765977 178.9632 
L 264.842017 183.3984 
L 265.190207 187.8336 
L 265.533805 190.0512 
L 266.066215 192.2688 
L 267.2064 195.185107 
L 267.922159 196.704 
L 269.424 199.042634 
L 271.6416 201.763261 
L 273.8592 204.016965 
L 276.0768 205.976277 
L 278.386002 207.792 
L 282.7296 210.702117 
L 285.378686 212.2272 
L 289.3824 214.209422 
L 293.8176 215.900572 
L 296.659784 216.6624 
L 298.2528 217.011785 
L 300.4704 217.31755 
L 302.688 217.434156 
L 304.9056 217.342177 
L 307.1232 217.01883 
L 309.3408 216.440134 
L 311.5584 215.580638 
L 313.776 214.396593 
L 316.754749 212.2272 
L 319.065877 210.0096 
L 320.935771 207.792 
L 322.6464 205.342913 
L 323.857956 203.3568 
L 325.014997 201.1392 
L 326.047804 198.9216 
L 327.715041 194.4864 
L 328.964041 190.0512 
L 329.868477 185.616 
L 330.445691 181.1808 
L 330.703399 176.7456 
L 330.656302 172.3104 
L 330.300363 167.8752 
L 329.614444 163.44 
L 328.621523 159.0048 
L 327.26884 154.5696 
L 325.589766 150.1344 
L 323.550676 145.6992 
L 321.185664 141.264 
L 317.220241 134.6112 
L 313.776 128.826299 
L 312.119732 125.7408 
L 311.052267 123.5232 
L 309.224307 119.088 
L 307.1232 112.622814 
L 304.443778 103.5648 
L 302.896463 99.1296 
L 300.4704 93.414477 
L 298.900388 90.2592 
L 296.0352 85.504465 
L 293.8176 82.353031 
L 291.6 79.572011 
L 291.265822 79.1712 
L 289.258974 76.9536 
L 287.056249 74.736 
L 284.628693 72.5184 
L 281.933796 70.3008 
L 278.2944 67.652262 
L 273.8592 64.874657 
L 269.424 62.533851 
L 264.9888 60.568612 
L 260.5536 58.954829 
L 256.1184 57.615177 
L 251.6832 56.583087 
L 247.248 55.799306 
L 242.8128 55.301221 
L 238.3776 55.058577 
L 233.9424 55.057108 
L 229.5072 55.297203 
L 225.072 55.794065 
L 220.6368 56.579388 
L 216.2016 57.617845 
L 211.7664 58.971852 
L 207.3312 60.610379 
L 202.896 62.618438 
L 198.4608 65.034193 
L 196.2432 66.420353 
L 191.808 69.597505 
L 189.5904 71.435876 
L 187.3728 73.485432 
L 185.1552 75.79218 
L 182.9376 78.436281 
L 182.361825 79.1712 
L 180.72 81.558519 
L 179.45685 83.6064 
L 178.323101 85.824 
L 177.342366 88.0416 
L 176.2848 91.426722 
L 176.00056 92.4768 
L 175.594173 94.6944 
L 175.391971 96.912 
L 175.394567 99.1296 
L 175.610278 101.3472 
L 176.2848 104.288574 
L 176.706229 105.7824 
L 177.59031 108 
L 178.748956 110.2176 
L 180.72 113.205912 
L 181.756008 114.6528 
L 185.746409 119.088 
L 190.53958 123.5232 
L 196.2432 128.204049 
L 199.991429 131.13442 
L 199.991429 131.13442 
" clip-path="url(#p87e1f56e4f)" style="fill: none; stroke: #fff6b1"/>
    <path d="M 200.178041 195.843644 
L 198.088038 198.9216 
L 195.487804 203.3568 
L 194.0256 206.542519 
L 193.508109 207.792 
L 192.832778 210.0096 
L 192.424178 212.2272 
L 192.35397 214.4448 
L 192.741236 216.6624 
L 194.0256 219.161215 
L 196.2432 221.098397 
L 198.4608 221.985101 
L 200.6784 222.410566 
L 202.896 222.504166 
L 205.1136 222.348664 
L 207.3312 221.998902 
L 210.881378 221.0976 
L 211.7664 220.835499 
L 216.2016 219.134577 
L 218.4192 218.083697 
L 221.119727 216.6624 
L 225.072 214.170669 
L 227.654478 212.2272 
L 230.116475 210.0096 
L 232.128529 207.792 
L 233.9424 205.12881 
L 234.877964 203.3568 
L 235.657781 201.1392 
L 236.070464 198.9216 
L 236.141745 196.704 
L 235.901947 194.4864 
L 235.384267 192.2688 
L 234.622811 190.0512 
L 233.637313 187.8336 
L 231.7248 184.459265 
L 229.5072 181.474481 
L 227.2896 179.27313 
L 225.072 177.796181 
L 222.8544 177.035086 
L 220.6368 176.942155 
L 218.4192 177.462889 
L 216.2016 178.54499 
L 213.206081 180.785653 
M 203.459535 127.643808 
L 206.905305 130.176 
L 209.5488 131.952736 
L 214.15297 134.6112 
L 216.2016 135.642924 
L 219.283242 136.8288 
L 220.6368 137.306284 
L 222.8544 137.873212 
L 225.072 138.233671 
L 227.2896 138.411866 
L 229.5072 138.435569 
L 233.9424 138.135076 
L 238.3776 137.550357 
L 247.248 136.262545 
L 251.6832 135.781447 
L 256.1184 135.487359 
L 260.5536 135.450207 
L 264.9888 135.759024 
L 267.2064 136.085996 
L 270.369064 136.8288 
L 271.6416 137.323186 
L 274.641974 139.0464 
L 276.336195 141.264 
L 276.996634 143.4816 
L 277.096243 145.6992 
L 276.891259 147.9168 
L 276.027734 152.352 
L 273.644569 163.44 
L 273.035167 167.8752 
L 272.71061 172.3104 
L 272.68327 176.7456 
L 272.964781 181.1808 
L 273.612326 185.616 
L 274.121932 187.8336 
L 274.79577 190.0512 
L 276.0768 193.124613 
L 276.797037 194.4864 
L 278.2944 196.783964 
L 280.512 199.325039 
L 282.7296 201.287792 
L 285.908382 203.3568 
L 287.1648 204.023206 
L 289.3824 204.953958 
L 291.6 205.633457 
L 293.8176 206.037546 
L 296.0352 206.186546 
L 298.2528 206.063095 
L 300.699723 205.5744 
L 302.688 204.885845 
L 305.530067 203.3568 
L 307.1232 202.19513 
L 309.3408 200.100142 
L 310.35778 198.9216 
L 311.977811 196.704 
L 313.776 193.536978 
L 314.385538 192.2688 
L 315.290859 190.0512 
L 316.038071 187.8336 
L 316.648387 185.616 
L 317.12873 183.3984 
L 317.488052 181.1808 
L 317.866332 176.7456 
L 317.80773 172.3104 
L 317.614347 170.0928 
L 317.308336 167.8752 
L 316.88552 165.6576 
L 315.9936 162.283096 
L 315.669977 161.2224 
L 314.86853 159.0048 
L 313.776 156.473164 
L 312.82799 154.5696 
L 311.5584 152.32217 
L 309.3408 148.995637 
L 306.706275 145.6992 
L 304.700317 143.4816 
L 300.218923 139.0464 
L 297.977963 136.8288 
L 296.0352 134.59501 
L 294.571008 132.3936 
L 293.66939 130.176 
L 293.158414 127.9584 
L 292.924165 125.7408 
L 292.83004 121.3056 
L 292.774356 114.6528 
L 292.472585 110.2176 
L 291.817853 105.7824 
L 290.770186 101.3472 
L 289.3824 97.357481 
L 289.218683 96.912 
L 288.26251 94.6944 
L 285.86924 90.2592 
L 284.417252 88.0416 
L 282.7296 85.77324 
L 280.512 83.145469 
L 278.2944 80.846323 
L 276.0768 78.811783 
L 273.800126 76.9536 
L 270.719159 74.736 
L 269.424 73.883795 
L 264.9888 71.355765 
L 260.5536 69.305177 
L 256.1184 67.675107 
L 251.6832 66.401409 
L 247.248 65.473047 
L 242.8128 64.849094 
L 238.3776 64.544503 
L 233.9424 64.541706 
L 229.5072 64.841425 
L 225.072 65.462988 
L 220.6368 66.394814 
L 216.2016 67.680416 
L 211.7664 69.337664 
L 207.3312 71.441979 
L 205.1136 72.695916 
L 201.934969 74.736 
L 198.986159 76.9536 
L 196.462404 79.1712 
L 194.286486 81.3888 
L 192.409578 83.6064 
L 190.805191 85.824 
L 189.465927 88.0416 
L 188.334504 90.2592 
L 187.3728 92.747531 
L 186.765693 94.6944 
L 186.299037 96.912 
L 186.05178 99.1296 
L 186.02067 101.3472 
L 186.208744 103.5648 
L 186.62545 105.7824 
L 187.3728 108.206984 
L 188.153101 110.2176 
L 189.939636 113.492753 
L 189.939636 113.492753 
" clip-path="url(#p87e1f56e4f)" style="fill: none; stroke: #fee496"/>
    <path d="M 225.710158 206.315428 
L 226.283381 205.5744 
L 227.513456 203.3568 
L 228.194314 201.1392 
L 228.429067 198.9216 
L 228.219717 196.704 
L 227.2896 193.858929 
L 226.352222 192.2688 
L 225.072 190.668001 
L 224.337626 190.0512 
L 222.8544 189.019231 
L 220.6368 188.273158 
L 218.4192 188.253776 
L 216.2016 188.855538 
L 213.883018 190.0512 
L 211.051305 192.2688 
L 208.832469 194.4864 
L 206.976601 196.704 
L 205.1136 199.434366 
L 204.14877 201.1392 
L 202.896 203.985841 
L 202.389866 205.5744 
L 202.044125 207.792 
L 202.186544 210.0096 
L 203.114218 212.2272 
L 205.1136 213.90242 
L 206.46516 214.4448 
L 207.3312 214.672159 
L 210.032953 214.781501 
M 282.727813 164.984829 
L 282.5052 165.6576 
L 281.928121 167.8752 
L 281.518428 170.0928 
L 281.273972 172.3104 
L 281.192622 174.528 
L 281.273316 176.7456 
L 281.517381 178.9632 
L 281.929927 181.1808 
L 282.7296 183.996177 
L 283.423436 185.616 
L 284.9472 188.325778 
L 287.1648 190.772692 
L 289.3824 192.286952 
L 291.6 193.062193 
L 293.8176 193.292189 
L 296.0352 192.98235 
L 298.2528 192.107351 
L 300.943506 190.0512 
L 302.811175 187.8336 
L 304.078597 185.616 
L 305.051124 183.3984 
L 305.706744 181.1808 
L 306.155044 178.9632 
L 306.404895 176.7456 
L 306.461068 174.528 
L 306.324908 172.3104 
L 305.994813 170.0928 
L 305.466645 167.8752 
L 304.712696 165.6576 
L 303.650424 163.44 
L 302.278482 161.2224 
L 300.423442 159.0048 
L 298.2528 157.226088 
L 296.927255 156.518886 
M 253.59001 130.629484 
L 262.7712 129.021995 
L 267.35671 127.9584 
L 269.424 127.344635 
L 271.6416 126.520176 
L 273.8592 125.43367 
L 276.596549 123.5232 
L 278.702057 121.3056 
L 280.512 118.34917 
L 281.176845 116.8704 
L 281.889042 114.6528 
L 282.345375 112.4352 
L 282.586114 110.2176 
L 282.634999 108 
L 282.504693 105.7824 
L 282.199765 103.5648 
L 281.718283 101.3472 
L 281.052597 99.1296 
L 280.204107 96.912 
L 279.174286 94.6944 
L 277.930223 92.4768 
L 276.0768 89.733379 
L 273.8592 86.995083 
L 271.6416 84.681129 
L 269.424 82.684697 
L 267.2064 80.94088 
L 264.61538 79.1712 
L 262.7712 78.046024 
L 260.5536 76.852313 
L 258.336 75.782626 
L 253.9008 74.03372 
L 249.4656 72.73468 
L 245.0304 71.815941 
L 240.5952 71.275593 
L 236.16 71.095748 
L 231.7248 71.266916 
L 227.2896 71.800934 
L 222.8544 72.720048 
L 220.6368 73.315989 
L 216.551035 74.736 
L 213.984 75.810824 
L 211.687728 76.9536 
L 207.934975 79.1712 
L 207.3312 79.572225 
L 204.880109 81.3888 
L 202.345056 83.6064 
L 200.224563 85.824 
L 198.458346 88.0416 
L 196.987733 90.2592 
L 195.805412 92.4768 
L 194.87901 94.6944 
L 194.0256 97.875313 
L 193.779313 99.1296 
L 193.583116 101.3472 
L 193.629635 103.5648 
L 194.0256 106.201886 
L 194.448522 108 
L 195.226076 110.2176 
L 196.276225 112.4352 
L 197.57021 114.6528 
L 199.148544 116.8704 
L 201.010982 119.088 
L 203.17123 121.3056 
L 205.661867 123.5232 
L 208.542161 125.7408 
L 209.5488 126.448752 
L 211.924149 127.9584 
L 213.984 129.124346 
L 216.2016 130.200581 
L 218.4192 131.130444 
L 220.6368 131.87555 
L 222.8544 132.448382 
L 225.072 132.882704 
L 227.2896 133.159546 
L 229.5072 133.297969 
L 233.9424 133.23902 
L 236.450866 133.050707 
L 236.450866 133.050707 
" clip-path="url(#p87e1f56e4f)" style="fill: none; stroke: #fec87a"/>
    <path d="M 243.216989 77.115067 
L 242.8128 77.048282 
L 242.009076 76.9536 
L 240.5952 76.78334 
L 238.3776 76.622367 
L 236.16 76.56656 
L 233.9424 76.615337 
L 231.7248 76.769692 
L 230.165737 76.9536 
L 229.5072 77.029533 
L 227.2896 77.391681 
L 225.072 77.868434 
L 222.8544 78.467753 
L 220.720827 79.1712 
L 220.6368 79.199245 
L 218.4192 80.059014 
L 216.2016 81.076983 
L 215.601877 81.3888 
L 213.984 82.26849 
L 211.845896 83.6064 
L 211.7664 83.659694 
L 209.5488 85.303137 
L 208.915385 85.824 
L 207.3312 87.268321 
L 206.55355 88.0416 
L 205.1136 89.683342 
L 204.641866 90.2592 
L 203.110046 92.4768 
L 202.896 92.85791 
L 201.907378 94.6944 
L 201.012504 96.912 
L 200.6784 98.113681 
L 200.400563 99.1296 
L 200.061268 101.3472 
L 199.993277 103.5648 
L 200.195657 105.7824 
L 200.673387 108 
L 200.6784 108.014644 
L 201.423224 110.2176 
L 202.468252 112.4352 
L 202.896 113.143097 
L 203.820709 114.6528 
L 205.1136 116.367911 
L 205.505252 116.8704 
L 207.3312 118.853196 
L 207.559626 119.088 
L 209.5488 120.880298 
L 210.059429 121.3056 
L 211.7664 122.59162 
L 213.140674 123.5232 
L 213.984 124.055598 
L 216.2016 125.291286 
L 217.140096 125.7408 
L 218.4192 126.328293 
L 220.6368 127.175564 
L 222.8544 127.846032 
L 223.337064 127.9584 
L 225.072 128.357743 
L 227.2896 128.717327 
L 229.5072 128.938387 
L 231.7248 129.036894 
L 233.9424 129.028534 
L 236.16 128.928025 
L 238.3776 128.748611 
L 240.5952 128.501671 
L 242.8128 128.196454 
L 244.299692 127.9584 
L 245.0304 127.841107 
L 247.248 127.441589 
L 249.4656 126.997035 
L 251.6832 126.50625 
L 253.9008 125.964667 
L 254.754093 125.7408 
L 256.1184 125.358773 
L 258.336 124.676652 
L 260.5536 123.9016 
L 261.533812 123.5232 
L 262.7712 122.985932 
L 264.9888 121.890191 
L 266.027981 121.3056 
L 267.2064 120.521391 
L 269.074342 119.088 
L 269.424 118.754884 
L 271.19578 116.8704 
L 271.6416 116.243551 
L 272.685485 114.6528 
L 273.702087 112.4352 
L 273.8592 111.917409 
L 274.357533 110.2176 
L 274.702676 108 
L 274.773556 105.7824 
L 274.592244 103.5648 
L 274.16809 101.3472 
L 273.8592 100.315917 
L 273.509202 99.1296 
L 272.611377 96.912 
L 271.6416 95.051072 
L 271.453229 94.6944 
L 270.027735 92.4768 
L 269.424 91.683439 
L 268.294603 90.2592 
L 267.2064 89.06964 
L 266.20808 88.0416 
L 264.9888 86.922511 
L 263.693743 85.824 
L 262.7712 85.108795 
L 260.632106 83.6064 
L 260.5536 83.554833 
L 259.790207 83.095129 
" clip-path="url(#p87e1f56e4f)" style="fill: none; stroke: #fcaa5f"/>
    <path d="M 223.239235 83.740238 
L 222.8544 83.871031 
L 220.6368 84.776411 
L 218.496483 85.824 
L 218.4192 85.864655 
L 216.2016 87.197997 
L 214.982169 88.0416 
L 213.984 88.811406 
L 212.315339 90.2592 
L 211.7664 90.810392 
L 210.258509 92.4768 
L 209.5488 93.429408 
L 208.674722 94.6944 
L 207.489427 96.912 
L 207.3312 97.321728 
L 206.665688 99.1296 
L 206.172661 101.3472 
L 205.99713 103.5648 
L 206.135509 105.7824 
L 206.591036 108 
L 207.3312 110.099316 
L 207.373862 110.2176 
L 208.517119 112.4352 
L 209.5488 113.958207 
L 210.045451 114.6528 
L 211.7664 116.595727 
L 212.029823 116.8704 
L 213.984 118.592415 
L 214.61085 119.088 
L 216.2016 120.19202 
L 218.052221 121.3056 
L 218.4192 121.506001 
L 220.6368 122.54366 
L 222.8544 123.383198 
L 223.319765 123.5232 
L 225.072 124.018318 
L 227.2896 124.481597 
L 229.5072 124.792139 
L 231.7248 124.964467 
L 233.9424 125.012688 
L 236.16 124.949872 
L 238.3776 124.787536 
L 240.5952 124.535231 
L 242.8128 124.200197 
L 245.0304 123.787042 
L 246.236752 123.5232 
L 247.248 123.28852 
L 249.4656 122.698272 
L 251.6832 122.020977 
L 253.737568 121.3056 
L 253.9008 121.242176 
L 256.1184 120.292936 
L 258.336 119.197411 
L 258.53849 119.088 
L 260.5536 117.799281 
L 261.834662 116.8704 
L 262.7712 116.024516 
L 264.143391 114.6528 
L 264.9888 113.525894 
L 265.746004 112.4352 
L 266.81007 110.2176 
L 267.2064 108.843451 
L 267.440326 108 
L 267.69909 105.7824 
L 267.623448 103.5648 
L 267.232835 101.3472 
L 267.2064 101.262719 
L 266.532502 99.1296 
L 265.515338 96.912 
L 264.9888 96.031824 
L 264.155208 94.6944 
L 262.7712 92.90873 
L 262.414949 92.4768 
L 260.5536 90.575557 
L 260.216667 90.2592 
L 258.336 88.714726 
L 257.423318 88.0416 
L 256.1184 87.172795 
L 253.9008 85.877424 
L 253.797168 85.824 
L 251.6832 84.808441 
L 249.4656 83.911381 
L 248.565823 83.6064 
L 247.248 83.177685 
L 245.0304 82.593178 
L 242.8128 82.145501 
L 240.5952 81.828433 
L 240.333543 81.805923 
" clip-path="url(#p87e1f56e4f)" style="fill: none; stroke: #f7844e"/>
    <path d="M 238.11124 120.67358 
L 238.3776 120.653798 
L 240.5952 120.365007 
L 242.8128 119.958054 
L 245.0304 119.435552 
L 246.247549 119.088 
L 247.248 118.766326 
L 249.4656 117.926316 
L 251.6832 116.939049 
L 251.820634 116.8704 
L 253.9008 115.626847 
L 255.324328 114.6528 
L 256.1184 113.962898 
L 257.691634 112.4352 
L 258.336 111.571003 
L 259.260343 110.2176 
L 260.223901 108 
L 260.5536 106.434243 
L 260.683798 105.7824 
L 260.697697 103.5648 
L 260.5536 102.756472 
L 260.29446 101.3472 
L 259.473487 99.1296 
L 258.336 97.093112 
L 258.227726 96.912 
L 256.46589 94.6944 
L 256.1184 94.341453 
L 254.080044 92.4768 
L 253.9008 92.337672 
L 251.6832 90.810961 
L 250.749333 90.2592 
L 249.4656 89.586259 
L 247.248 88.613171 
L 245.63447 88.0416 
L 245.0304 87.844301 
L 242.8128 87.279447 
L 240.5952 86.878575 
L 238.3776 86.636413 
L 236.16 86.549933 
L 233.9424 86.61837 
L 231.7248 86.843297 
L 229.5072 87.228749 
L 227.2896 87.78143 
L 226.487321 88.0416 
L 225.072 88.538541 
L 222.8544 89.51198 
L 221.447639 90.2592 
L 220.6368 90.744726 
L 218.4192 92.309692 
L 218.211853 92.4768 
L 216.2016 94.398374 
L 215.926558 94.6944 
L 214.279982 96.912 
L 213.984 97.4538 
L 213.144691 99.1296 
L 212.4406 101.3472 
L 212.137188 103.5648 
L 212.229274 105.7824 
L 212.720865 108 
L 213.624647 110.2176 
L 213.984 110.821229 
L 215.023197 112.4352 
L 216.2016 113.812273 
L 217.003796 114.6528 
L 218.4192 115.846792 
L 219.82272 116.8704 
L 220.6368 117.373001 
L 221.17793 117.653136 
" clip-path="url(#p87e1f56e4f)" style="fill: none; stroke: #ed5f3c"/>
    <path d="M 252.973822 103.801302 
L 252.984437 103.5648 
L 252.479344 101.3472 
L 251.6832 99.735065 
L 251.347732 99.1296 
L 249.4656 96.917623 
L 249.460014 96.912 
L 247.248 95.23724 
L 246.369094 94.6944 
L 245.0304 94.018368 
L 242.8128 93.149467 
L 240.5952 92.531136 
L 240.276837 92.4768 
L 238.3776 92.193377 
L 236.16 92.071956 
L 233.9424 92.159519 
L 231.7248 92.458269 
L 231.644201 92.4768 
L 229.5072 93.039118 
L 227.2896 93.878009 
L 225.649188 94.6944 
L 225.072 95.043833 
L 222.8544 96.71313 
L 222.632851 96.912 
L 220.771593 99.1296 
L 220.6368 99.373508 
L 219.686068 101.3472 
L 219.184503 103.5648 
L 219.247182 105.7824 
L 219.883975 108 
L 220.6368 109.358171 
L 221.183565 110.2176 
L 222.8544 111.966227 
L 223.393915 112.4352 
L 225.072 113.531088 
L 227.277301 114.6528 
L 227.2896 114.657865 
L 229.5072 115.335792 
L 231.7248 115.773659 
L 233.9424 115.988034 
L 236.16 115.993862 
L 238.3776 115.80357 
L 239.766263 115.567292 
" clip-path="url(#p87e1f56e4f)" style="fill: none; stroke: #dc3b2c"/>
    <path d="M 231.7248 106.388513 
L 233.9424 107.665674 
L 236.16 107.919147 
L 238.3776 107.219015 
L 240.364893 105.7824 
L 240.5952 104.574931 
L 240.719989 103.5648 
L 240.5952 103.367757 
L 238.541908 101.3472 
L 238.3776 101.272318 
L 236.16 100.873945 
L 233.9424 101.091979 
L 233.2639 101.3472 
L 231.7248 102.539711 
L 230.962933 103.5648 
L 231.149233 105.7824 
L 231.7248 106.388513 
z
" clip-path="url(#p87e1f56e4f)" style="fill: none; stroke: #c21c27"/>
    <path clip-path="url(#p87e1f56e4f)" style="fill: none; stroke: #a50026"/>
   </g>
   <g id="patch_3">
    <path d="M 103.104 307.584 
L 103.104 41.472 
" style="fill: none; stroke: #000000; stroke-width: 0.8; stroke-linejoin: miter; stroke-linecap: square"/>
   </g>
   <g id="patch_4">
    <path d="M 369.216 307.584 
L 369.216 41.472 
" style="fill: none; stroke: #000000; stroke-width: 0.8; stroke-linejoin: miter; stroke-linecap: square"/>
   </g>
   <g id="patch_5">
    <path d="M 103.104 307.584 
L 369.216 307.584 
" style="fill: none; stroke: #000000; stroke-width: 0.8; stroke-linejoin: miter; stroke-linecap: square"/>
   </g>
   <g id="patch_6">
    <path d="M 103.104 41.472 
L 369.216 41.472 
" style="fill: none; stroke: #000000; stroke-width: 0.8; stroke-linejoin: miter; stroke-linecap: square"/>
   </g>
   <g id="text_2">
    <g clip-path="url(#p87e1f56e4f)">
     <!-- -6.0 -->
     <g transform="translate(234.485463 244.918169) rotate(-18.982912) scale(0.1 -0.1)">
      <defs>
       <path id="DejaVuSans-2d" d="M 313 2009 
L 1997 2009 
L 1997 1497 
L 313 1497 
L 313 2009 
z
" transform="scale(0.015625)"/>
       <path id="DejaVuSans-36" d="M 2113 2584 
Q 1688 2584 1439 2293 
Q 1191 2003 1191 1497 
Q 1191 994 1439 701 
Q 1688 409 2113 409 
Q 2538 409 2786 701 
Q 3034 994 3034 1497 
Q 3034 2003 2786 2293 
Q 2538 2584 2113 2584 
z
M 3366 4563 
L 3366 3988 
Q 3128 4100 2886 4159 
Q 2644 4219 2406 4219 
Q 1781 4219 1451 3797 
Q 1122 3375 1075 2522 
Q 1259 2794 1537 2939 
Q 1816 3084 2150 3084 
Q 2853 3084 3261 2657 
Q 3669 2231 3669 1497 
Q 3669 778 3244 343 
Q 2819 -91 2113 -91 
Q 1303 -91 875 529 
Q 447 1150 447 2328 
Q 447 3434 972 4092 
Q 1497 4750 2381 4750 
Q 2619 4750 2861 4703 
Q 3103 4656 3366 4563 
z
" transform="scale(0.015625)"/>
       <path id="DejaVuSans-2e" d="M 684 794 
L 1344 794 
L 1344 0 
L 684 0 
L 684 794 
z
" transform="scale(0.015625)"/>
       <path id="DejaVuSans-30" d="M 2034 4250 
Q 1547 4250 1301 3770 
Q 1056 3291 1056 2328 
Q 1056 1369 1301 889 
Q 1547 409 2034 409 
Q 2525 409 2770 889 
Q 3016 1369 3016 2328 
Q 3016 3291 2770 3770 
Q 2525 4250 2034 4250 
z
M 2034 4750 
Q 2819 4750 3233 4129 
Q 3647 3509 3647 2328 
Q 3647 1150 3233 529 
Q 2819 -91 2034 -91 
Q 1250 -91 836 529 
Q 422 1150 422 2328 
Q 422 3509 836 4129 
Q 1250 4750 2034 4750 
z
" transform="scale(0.015625)"/>
      </defs>
      <use xlink:href="#DejaVuSans-2d"/>
      <use xlink:href="#DejaVuSans-36" transform="translate(36.083984 0)"/>
      <use xlink:href="#DejaVuSans-2e" transform="translate(99.707031 0)"/>
      <use xlink:href="#DejaVuSans-30" transform="translate(131.494141 0)"/>
     </g>
    </g>
   </g>
   <g id="text_3">
    <g clip-path="url(#p87e1f56e4f)">
     <!-- -5.0 -->
     <g transform="translate(223.93497 258.899589) rotate(-334.993314) scale(0.1 -0.1)">
      <defs>
       <path id="DejaVuSans-35" d="M 691 4666 
L 3169 4666 
L 3169 4134 
L 1269 4134 
L 1269 2991 
Q 1406 3038 1543 3061 
Q 1681 3084 1819 3084 
Q 2600 3084 3056 2656 
Q 3513 2228 3513 1497 
Q 3513 744 3044 326 
Q 2575 -91 1722 -91 
Q 1428 -91 1123 -41 
Q 819 9 494 109 
L 494 744 
Q 775 591 1075 516 
Q 1375 441 1709 441 
Q 2250 441 2565 725 
Q 2881 1009 2881 1497 
Q 2881 1984 2565 2268 
Q 2250 2553 1709 2553 
Q 1456 2553 1204 2497 
Q 953 2441 691 2322 
L 691 4666 
z
" transform="scale(0.015625)"/>
      </defs>
      <use xlink:href="#DejaVuSans-2d"/>
      <use xlink:href="#DejaVuSans-35" transform="translate(36.083984 0)"/>
      <use xlink:href="#DejaVuSans-2e" transform="translate(99.707031 0)"/>
      <use xlink:href="#DejaVuSans-30" transform="translate(131.494141 0)"/>
     </g>
    </g>
   </g>
   <g id="text_4">
    <g clip-path="url(#p87e1f56e4f)">
     <!-- -4.0 -->
     <g transform="translate(261.969158 267.444814) rotate(-43.102801) scale(0.1 -0.1)">
      <defs>
       <path id="DejaVuSans-34" d="M 2419 4116 
L 825 1625 
L 2419 1625 
L 2419 4116 
z
M 2253 4666 
L 3047 4666 
L 3047 1625 
L 3713 1625 
L 3713 1100 
L 3047 1100 
L 3047 0 
L 2419 0 
L 2419 1100 
L 313 1100 
L 313 1709 
L 2253 4666 
z
" transform="scale(0.015625)"/>
      </defs>
      <use xlink:href="#DejaVuSans-2d"/>
      <use xlink:href="#DejaVuSans-34" transform="translate(36.083984 0)"/>
      <use xlink:href="#DejaVuSans-2e" transform="translate(99.707031 0)"/>
      <use xlink:href="#DejaVuSans-30" transform="translate(131.494141 0)"/>
     </g>
    </g>
   </g>
   <g id="text_5">
    <g clip-path="url(#p87e1f56e4f)">
     <!-- -3.0 -->
     <g transform="translate(265.053132 228.071305) rotate(-314.502783) scale(0.1 -0.1)">
      <defs>
       <path id="DejaVuSans-33" d="M 2597 2516 
Q 3050 2419 3304 2112 
Q 3559 1806 3559 1356 
Q 3559 666 3084 287 
Q 2609 -91 1734 -91 
Q 1441 -91 1130 -33 
Q 819 25 488 141 
L 488 750 
Q 750 597 1062 519 
Q 1375 441 1716 441 
Q 2309 441 2620 675 
Q 2931 909 2931 1356 
Q 2931 1769 2642 2001 
Q 2353 2234 1838 2234 
L 1294 2234 
L 1294 2753 
L 1863 2753 
Q 2328 2753 2575 2939 
Q 2822 3125 2822 3475 
Q 2822 3834 2567 4026 
Q 2313 4219 1838 4219 
Q 1578 4219 1281 4162 
Q 984 4106 628 3988 
L 628 4550 
Q 988 4650 1302 4700 
Q 1616 4750 1894 4750 
Q 2613 4750 3031 4423 
Q 3450 4097 3450 3541 
Q 3450 3153 3228 2886 
Q 3006 2619 2597 2516 
z
" transform="scale(0.015625)"/>
      </defs>
      <use xlink:href="#DejaVuSans-2d"/>
      <use xlink:href="#DejaVuSans-33" transform="translate(36.083984 0)"/>
      <use xlink:href="#DejaVuSans-2e" transform="translate(99.707031 0)"/>
      <use xlink:href="#DejaVuSans-30" transform="translate(131.494141 0)"/>
     </g>
    </g>
   </g>
   <g id="text_6">
    <g clip-path="url(#p87e1f56e4f)">
     <!-- -2.0 -->
     <g transform="translate(212.965432 241.830137) rotate(-31.3084) scale(0.1 -0.1)">
      <use xlink:href="#DejaVuSans-2d"/>
      <use xlink:href="#DejaVuSans-32" transform="translate(36.083984 0)"/>
      <use xlink:href="#DejaVuSans-2e" transform="translate(99.707031 0)"/>
      <use xlink:href="#DejaVuSans-30" transform="translate(131.494141 0)"/>
     </g>
    </g>
   </g>
   <g id="text_7">
    <g clip-path="url(#p87e1f56e4f)">
     <!-- -2.0 -->
     <g transform="translate(170.522656 191.621862) rotate(-22.291283) scale(0.1 -0.1)">
      <use xlink:href="#DejaVuSans-2d"/>
      <use xlink:href="#DejaVuSans-32" transform="translate(36.083984 0)"/>
      <use xlink:href="#DejaVuSans-2e" transform="translate(99.707031 0)"/>
      <use xlink:href="#DejaVuSans-30" transform="translate(131.494141 0)"/>
     </g>
    </g>
   </g>
   <g id="text_8">
    <g clip-path="url(#p87e1f56e4f)">
     <!-- -1.0 -->
     <g transform="translate(214.939383 289.559984) rotate(-346.109633) scale(0.1 -0.1)">
      <defs>
       <path id="DejaVuSans-31" d="M 794 531 
L 1825 531 
L 1825 4091 
L 703 3866 
L 703 4441 
L 1819 4666 
L 2450 4666 
L 2450 531 
L 3481 531 
L 3481 0 
L 794 0 
L 794 531 
z
" transform="scale(0.015625)"/>
      </defs>
      <use xlink:href="#DejaVuSans-2d"/>
      <use xlink:href="#DejaVuSans-31" transform="translate(36.083984 0)"/>
      <use xlink:href="#DejaVuSans-2e" transform="translate(99.707031 0)"/>
      <use xlink:href="#DejaVuSans-30" transform="translate(131.494141 0)"/>
     </g>
    </g>
   </g>
   <g id="text_9">
    <g clip-path="url(#p87e1f56e4f)">
     <!-- -1.0 -->
     <g transform="translate(137.723955 178.424887) rotate(-299.027595) scale(0.1 -0.1)">
      <use xlink:href="#DejaVuSans-2d"/>
      <use xlink:href="#DejaVuSans-31" transform="translate(36.083984 0)"/>
      <use xlink:href="#DejaVuSans-2e" transform="translate(99.707031 0)"/>
      <use xlink:href="#DejaVuSans-30" transform="translate(131.494141 0)"/>
     </g>
    </g>
   </g>
   <g id="text_10">
    <g clip-path="url(#p87e1f56e4f)">
     <!-- 0.0 -->
     <g transform="translate(294.317294 230.428623) rotate(-334.866939) scale(0.1 -0.1)">
      <use xlink:href="#DejaVuSans-30"/>
      <use xlink:href="#DejaVuSans-2e" transform="translate(63.623047 0)"/>
      <use xlink:href="#DejaVuSans-30" transform="translate(95.410156 0)"/>
     </g>
    </g>
   </g>
   <g id="text_11">
    <g clip-path="url(#p87e1f56e4f)">
     <!-- 0.0 -->
     <g transform="translate(112.428074 94.357104) rotate(-340.761725) scale(0.1 -0.1)">
      <use xlink:href="#DejaVuSans-30"/>
      <use xlink:href="#DejaVuSans-2e" transform="translate(63.623047 0)"/>
      <use xlink:href="#DejaVuSans-30" transform="translate(95.410156 0)"/>
     </g>
    </g>
   </g>
   <g id="text_12">
    <g clip-path="url(#p87e1f56e4f)">
     <!-- 1.0 -->
     <g transform="translate(186.15715 209.245424) rotate(-46.788604) scale(0.1 -0.1)">
      <use xlink:href="#DejaVuSans-31"/>
      <use xlink:href="#DejaVuSans-2e" transform="translate(63.623047 0)"/>
      <use xlink:href="#DejaVuSans-30" transform="translate(95.410156 0)"/>
     </g>
    </g>
   </g>
   <g id="text_13">
    <g clip-path="url(#p87e1f56e4f)">
     <!-- 1.0 -->
     <g transform="translate(199.20462 135.35766) rotate(-330.795766) scale(0.1 -0.1)">
      <use xlink:href="#DejaVuSans-31"/>
      <use xlink:href="#DejaVuSans-2e" transform="translate(63.623047 0)"/>
      <use xlink:href="#DejaVuSans-30" transform="translate(95.410156 0)"/>
     </g>
    </g>
   </g>
   <g id="text_14">
    <g clip-path="url(#p87e1f56e4f)">
     <!-- 2.0 -->
     <g transform="translate(202.206547 195.137594) rotate(-41.065315) scale(0.1 -0.1)">
      <use xlink:href="#DejaVuSans-32"/>
      <use xlink:href="#DejaVuSans-2e" transform="translate(63.623047 0)"/>
      <use xlink:href="#DejaVuSans-30" transform="translate(95.410156 0)"/>
     </g>
    </g>
   </g>
   <g id="text_15">
    <g clip-path="url(#p87e1f56e4f)">
     <!-- 2.0 -->
     <g transform="translate(188.249816 118.697866) rotate(-322.612362) scale(0.1 -0.1)">
      <use xlink:href="#DejaVuSans-32"/>
      <use xlink:href="#DejaVuSans-2e" transform="translate(63.623047 0)"/>
      <use xlink:href="#DejaVuSans-30" transform="translate(95.410156 0)"/>
     </g>
    </g>
   </g>
   <g id="text_16">
    <g clip-path="url(#p87e1f56e4f)">
     <!-- 3.0 -->
     <g transform="translate(212.042647 217.830075) rotate(-21.608651) scale(0.1 -0.1)">
      <use xlink:href="#DejaVuSans-33"/>
      <use xlink:href="#DejaVuSans-2e" transform="translate(63.623047 0)"/>
      <use xlink:href="#DejaVuSans-30" transform="translate(95.410156 0)"/>
     </g>
    </g>
   </g>
   <g id="text_17">
    <g clip-path="url(#p87e1f56e4f)">
     <!-- 3.0 -->
     <g transform="translate(282.491339 162.612064) rotate(-24.655216) scale(0.1 -0.1)">
      <use xlink:href="#DejaVuSans-33"/>
      <use xlink:href="#DejaVuSans-2e" transform="translate(63.623047 0)"/>
      <use xlink:href="#DejaVuSans-30" transform="translate(95.410156 0)"/>
     </g>
    </g>
   </g>
   <g id="text_18">
    <g clip-path="url(#p87e1f56e4f)">
     <!-- 3.0 -->
     <g transform="translate(237.41995 135.565245) rotate(-6.145756) scale(0.1 -0.1)">
      <use xlink:href="#DejaVuSans-33"/>
      <use xlink:href="#DejaVuSans-2e" transform="translate(63.623047 0)"/>
      <use xlink:href="#DejaVuSans-30" transform="translate(95.410156 0)"/>
     </g>
    </g>
   </g>
   <g id="text_19">
    <g clip-path="url(#p87e1f56e4f)">
     <!-- 4.0 -->
     <g transform="translate(243.289482 79.839736) rotate(-345.100714) scale(0.1 -0.1)">
      <use xlink:href="#DejaVuSans-34"/>
      <use xlink:href="#DejaVuSans-2e" transform="translate(63.623047 0)"/>
      <use xlink:href="#DejaVuSans-30" transform="translate(95.410156 0)"/>
     </g>
    </g>
   </g>
   <g id="text_20">
    <g clip-path="url(#p87e1f56e4f)">
     <!-- 5.0 -->
     <g transform="translate(224.029133 85.215918) rotate(-4.751461) scale(0.1 -0.1)">
      <use xlink:href="#DejaVuSans-35"/>
      <use xlink:href="#DejaVuSans-2e" transform="translate(63.623047 0)"/>
      <use xlink:href="#DejaVuSans-30" transform="translate(95.410156 0)"/>
     </g>
    </g>
   </g>
   <g id="text_21">
    <g clip-path="url(#p87e1f56e4f)">
     <!-- 6.0 -->
     <g transform="translate(221.276048 122.226506) rotate(-352.916329) scale(0.1 -0.1)">
      <use xlink:href="#DejaVuSans-36"/>
      <use xlink:href="#DejaVuSans-2e" transform="translate(63.623047 0)"/>
      <use xlink:href="#DejaVuSans-30" transform="translate(95.410156 0)"/>
     </g>
    </g>
   </g>
   <g id="text_22">
    <g clip-path="url(#p87e1f56e4f)">
     <!-- 7.0 -->
     <g transform="translate(242.509075 118.793147) rotate(-29.921787) scale(0.1 -0.1)">
      <defs>
       <path id="DejaVuSans-37" d="M 525 4666 
L 3525 4666 
L 3525 4397 
L 1831 0 
L 1172 0 
L 2766 4134 
L 525 4134 
L 525 4666 
z
" transform="scale(0.015625)"/>
      </defs>
      <use xlink:href="#DejaVuSans-37"/>
      <use xlink:href="#DejaVuSans-2e" transform="translate(63.623047 0)"/>
      <use xlink:href="#DejaVuSans-30" transform="translate(95.410156 0)"/>
     </g>
    </g>
   </g>
  </g>
 </g>
 <defs>
  <clipPath id="p87e1f56e4f">
   <rect x="103.104" y="41.472" width="266.112" height="266.112"/>
  </clipPath>
 </defs>
</svg>
