<?xml version="1.0" encoding="utf-8" standalone="no"?>
<!DOCTYPE svg PUBLIC "-//W3C//DTD SVG 1.1//EN"
  "http://www.w3.org/Graphics/SVG/1.1/DTD/svg11.dtd">
<svg xmlns:xlink="http://www.w3.org/1999/xlink" width="576pt" height="576pt" viewBox="0 0 576 576" xmlns="http://www.w3.org/2000/svg" version="1.1">
 <metadata>
  <rdf:RDF xmlns:dc="http://purl.org/dc/elements/1.1/" xmlns:cc="http://creativecommons.org/ns#" xmlns:rdf="http://www.w3.org/1999/02/22-rdf-syntax-ns#">
   <cc:Work>
    <dc:type rdf:resource="http://purl.org/dc/dcmitype/StillImage"/>
    <dc:date>2025-12-03T15:06:39.822872</dc:date>
    <dc:format>image/svg+xml</dc:format>
    <dc:creator>
     <cc:Agent>
      <dc:title>Matplotlib v3.10.6, https://matplotlib.org/</dc:title>
     </cc:Agent>
    </dc:creator>
   </cc:Work>
  </rdf:RDF>
 </metadata>
 <defs>
  <style type="text/css">*{stroke-linejoin: round; stroke-linecap: butt}</style>
 </defs>
 <g id="figure_1">
  <g id="patch_1">
   <path d="M 0 576 
L 576 576 
L 576 0 
L 0 0 
z
" style="fill: #ffffff"/>
  </g>
  <g id="axes_1">
   <g id="patch_2">
    <path d="M 295.2 492.48 
C 321.932472 492.48 347.573651 481.859076 366.476364 462.956364 
C 385.379076 444.053651 396 418.412472 396 391.68 
C 396 364.947528 385.379076 339.306349 366.476364 320.403636 
C 347.573651 301.500924 321.932472 290.88 295.2 290.88 
C 268.467528 290.88 242.826349 301.500924 223.923636 320.403636 
C 205.020924 339.306349 194.4 364.947528 194.4 391.68 
C 194.4 418.412472 205.020924 444.053651 223.923636 462.956364 
C 242.826349 481.859076 268.467528 492.48 295.2 492.48 
z
" clip-path="url(#pfdf4c4d93c)" style="fill: #1f77b4; opacity: 0.1; stroke: #0000ff; stroke-linejoin: miter"/>
   </g>
   <g id="patch_3">
    <path d="M 330.207473 489.417243 
C 356.533819 484.775198 379.941146 469.863086 395.274262 447.965126 
C 410.607379 426.067167 416.614403 398.971231 411.972358 372.644885 
C 407.330313 346.318539 392.418201 322.911212 370.520241 307.578095 
C 348.622282 292.244979 321.526346 286.237955 295.2 290.88 
C 268.873654 295.522045 245.466327 310.434157 230.13321 332.332117 
C 214.800094 354.230076 208.79307 381.326012 213.435115 407.652358 
C 218.07716 433.978704 232.989272 457.386031 254.887232 472.719148 
C 276.785191 488.052264 303.881126 494.059288 330.207473 489.417243 
z
" clip-path="url(#pfdf4c4d93c)" style="fill: #1f77b4; opacity: 0.1; stroke: #0000ff; stroke-linejoin: miter"/>
   </g>
   <g id="patch_4">
    <path d="M 364.151261 480.322032 
C 389.271568 471.178988 409.733824 452.428785 421.031455 428.200937 
C 432.329086 403.973089 433.539691 376.245693 424.396647 351.125386 
C 415.253603 326.005079 396.503399 305.542822 372.275551 294.245191 
C 348.047703 282.94756 320.320307 281.736956 295.2 290.88 
C 270.079693 300.023044 249.617437 318.773247 238.319806 343.001095 
C 227.022174 367.228943 225.81157 394.956339 234.954614 420.076647 
C 244.097658 445.196954 262.847862 465.65921 287.07571 476.956841 
C 311.303558 488.254472 339.030954 489.465076 364.151261 480.322032 
z
" clip-path="url(#pfdf4c4d93c)" style="fill: #1f77b4; opacity: 0.1; stroke: #0000ff; stroke-linejoin: miter"/>
   </g>
   <g id="patch_5">
    <path d="M 396 465.470721 
C 419.151 452.104485 436.04645 430.085906 442.965323 404.26432 
C 449.884196 378.442735 446.261597 350.926361 432.895361 327.775361 
C 419.529124 304.62436 397.510545 287.72891 371.68896 280.810037 
C 345.867374 273.891164 318.351 277.513764 295.2 290.88 
C 272.049 304.246236 255.15355 326.264815 248.234677 352.086401 
C 241.315804 377.907987 244.938403 405.42436 258.304639 428.575361 
C 271.670876 451.726361 293.689455 468.621811 319.51104 475.540684 
C 345.332626 482.459557 372.849 478.836958 396 465.470721 
z
" clip-path="url(#pfdf4c4d93c)" style="fill: #1f77b4; opacity: 0.1; stroke: #0000ff; stroke-linejoin: miter"/>
   </g>
   <g id="patch_6">
    <path d="M 424.785982 445.31456 
C 445.264244 428.131258 458.079528 403.513326 460.409417 376.882579 
C 462.739305 350.251831 454.393573 323.782551 437.210271 303.304289 
C 420.026969 282.826027 395.409037 270.010743 368.77829 267.680854 
C 342.147543 265.350966 315.678262 273.696698 295.2 290.88 
C 274.721738 308.063302 261.906454 332.681234 259.576565 359.311981 
C 257.246677 385.942728 265.592409 412.412009 282.775711 432.890271 
C 299.959013 453.368533 324.576945 466.183817 351.207692 468.513705 
C 377.83844 470.843594 404.30772 462.497862 424.785982 445.31456 
z
" clip-path="url(#pfdf4c4d93c)" style="fill: #1f77b4; opacity: 0.1; stroke: #0000ff; stroke-linejoin: miter"/>
   </g>
   <g id="patch_7">
    <path d="M 449.63456 420.465982 
C 466.817862 399.98772 475.163594 373.51844 472.833705 346.887692 
C 470.503817 320.256945 457.688533 295.639013 437.210271 278.455711 
C 416.732009 261.272409 390.262728 252.926677 363.631981 255.256565 
C 337.001234 257.586454 312.383302 270.401738 295.2 290.88 
C 278.016698 311.358262 269.670966 337.827543 272.000854 364.45829 
C 274.330743 391.089037 287.146027 415.706969 307.624289 432.890271 
C 328.102551 450.073573 354.571831 458.419305 381.202579 456.089417 
C 407.833326 453.759528 432.451258 440.944244 449.63456 420.465982 
z
" clip-path="url(#pfdf4c4d93c)" style="fill: #1f77b4; opacity: 0.1; stroke: #0000ff; stroke-linejoin: miter"/>
   </g>
   <g id="patch_8">
    <path d="M 469.790721 391.68 
C 483.156958 368.529 486.779557 341.012626 479.860684 315.19104 
C 472.941811 289.369455 456.046361 267.350876 432.895361 253.984639 
C 409.74436 240.618403 382.227987 236.995804 356.406401 243.914677 
C 330.584815 250.83355 308.566236 267.729 295.2 290.88 
C 281.833764 314.031 278.211164 341.547374 285.130037 367.36896 
C 292.04891 393.190545 308.94436 415.209124 332.095361 428.575361 
C 355.246361 441.941597 382.762735 445.564196 408.58432 438.645323 
C 434.405906 431.72645 456.424485 414.831 469.790721 391.68 
z
" clip-path="url(#pfdf4c4d93c)" style="fill: #1f77b4; opacity: 0.1; stroke: #0000ff; stroke-linejoin: miter"/>
   </g>
   <g id="patch_9">
    <path d="M 484.642032 359.831261 
C 493.785076 334.710954 492.574472 306.983558 481.276841 282.75571 
C 469.97921 258.527862 449.516954 239.777658 424.396647 230.634614 
C 399.276339 221.49157 371.548943 222.702174 347.321095 233.999806 
C 323.093247 245.297437 304.343044 265.759693 295.2 290.88 
C 286.056956 316.000307 287.26756 343.727703 298.565191 367.955551 
C 309.862822 392.183399 330.325079 410.933603 355.445386 420.076647 
C 380.565693 429.219691 408.293089 428.009086 432.520937 416.711455 
C 456.748785 405.413824 475.498988 384.951568 484.642032 359.831261 
z
" clip-path="url(#pfdf4c4d93c)" style="fill: #1f77b4; opacity: 0.1; stroke: #0000ff; stroke-linejoin: miter"/>
   </g>
   <g id="patch_10">
    <path d="M 493.737243 325.887473 
C 498.379288 299.561126 492.372264 272.465191 477.039148 250.567232 
C 461.706031 228.669272 438.298704 213.75716 411.972358 209.115115 
C 385.646012 204.47307 358.550076 210.480094 336.652117 225.81321 
C 314.754157 241.146327 299.842045 264.553654 295.2 290.88 
C 290.557955 317.206346 296.564979 344.302282 311.898095 366.200241 
C 327.231212 388.098201 350.638539 403.010313 376.964885 407.652358 
C 403.291231 412.294403 430.387167 406.287379 452.285126 390.954262 
C 474.183086 375.621146 489.095198 352.213819 493.737243 325.887473 
z
" clip-path="url(#pfdf4c4d93c)" style="fill: #1f77b4; opacity: 0.1; stroke: #0000ff; stroke-linejoin: miter"/>
   </g>
   <g id="patch_11">
    <path d="M 496.8 290.88 
C 496.8 264.147528 486.179076 238.506349 467.276364 219.603636 
C 448.373651 200.700924 422.732472 190.08 396 190.08 
C 369.267528 190.08 343.626349 200.700924 324.723636 219.603636 
C 305.820924 238.506349 295.2 264.147528 295.2 290.88 
C 295.2 317.612472 305.820924 343.253651 324.723636 362.156364 
C 343.626349 381.059076 369.267528 391.68 396 391.68 
C 422.732472 391.68 448.373651 381.059076 467.276364 362.156364 
C 486.179076 343.253651 496.8 317.612472 496.8 290.88 
z
" clip-path="url(#pfdf4c4d93c)" style="fill: #1f77b4; opacity: 0.1; stroke: #0000ff; stroke-linejoin: miter"/>
   </g>
   <g id="patch_12">
    <path d="M 493.737243 255.872527 
C 489.095198 229.546181 474.183086 206.138854 452.285126 190.805738 
C 430.387167 175.472621 403.291231 169.465597 376.964885 174.107642 
C 350.638539 178.749687 327.231212 193.661799 311.898095 215.559759 
C 296.564979 237.457718 290.557955 264.553654 295.2 290.88 
C 299.842045 317.206346 314.754157 340.613673 336.652117 355.94679 
C 358.550076 371.279906 385.646012 377.28693 411.972358 372.644885 
C 438.298704 368.00284 461.706031 353.090728 477.039148 331.192768 
C 492.372264 309.294809 498.379288 282.198874 493.737243 255.872527 
z
" clip-path="url(#pfdf4c4d93c)" style="fill: #1f77b4; opacity: 0.1; stroke: #0000ff; stroke-linejoin: miter"/>
   </g>
   <g id="patch_13">
    <path d="M 484.642032 221.928739 
C 475.498988 196.808432 456.748785 176.346176 432.520937 165.048545 
C 408.293089 153.750914 380.565693 152.540309 355.445386 161.683353 
C 330.325079 170.826397 309.862822 189.576601 298.565191 213.804449 
C 287.26756 238.032297 286.056956 265.759693 295.2 290.88 
C 304.343044 316.000307 323.093247 336.462563 347.321095 347.760194 
C 371.548943 359.057826 399.276339 360.26843 424.396647 351.125386 
C 449.516954 341.982342 469.97921 323.232138 481.276841 299.00429 
C 492.574472 274.776442 493.785076 247.049046 484.642032 221.928739 
z
" clip-path="url(#pfdf4c4d93c)" style="fill: #1f77b4; opacity: 0.1; stroke: #0000ff; stroke-linejoin: miter"/>
   </g>
   <g id="patch_14">
    <path d="M 469.790721 190.08 
C 456.424485 166.929 434.405906 150.03355 408.58432 143.114677 
C 382.762735 136.195804 355.246361 139.818403 332.095361 153.184639 
C 308.94436 166.550876 292.04891 188.569455 285.130037 214.39104 
C 278.211164 240.212626 281.833764 267.729 295.2 290.88 
C 308.566236 314.031 330.584815 330.92645 356.406401 337.845323 
C 382.227987 344.764196 409.74436 341.141597 432.895361 327.775361 
C 456.046361 314.409124 472.941811 292.390545 479.860684 266.56896 
C 486.779557 240.747374 483.156958 213.231 469.790721 190.08 
z
" clip-path="url(#pfdf4c4d93c)" style="fill: #1f77b4; opacity: 0.1; stroke: #0000ff; stroke-linejoin: miter"/>
   </g>
   <g id="patch_15">
    <path d="M 449.63456 161.294018 
C 432.451258 140.815756 407.833326 128.000472 381.202579 125.670583 
C 354.571831 123.340695 328.102551 131.686427 307.624289 148.869729 
C 287.146027 166.053031 274.330743 190.670963 272.000854 217.30171 
C 269.670966 243.932457 278.016698 270.401738 295.2 290.88 
C 312.383302 311.358262 337.001234 324.173546 363.631981 326.503435 
C 390.262728 328.833323 416.732009 320.487591 437.210271 303.304289 
C 457.688533 286.120987 470.503817 261.503055 472.833705 234.872308 
C 475.163594 208.24156 466.817862 181.77228 449.63456 161.294018 
z
" clip-path="url(#pfdf4c4d93c)" style="fill: #1f77b4; opacity: 0.1; stroke: #0000ff; stroke-linejoin: miter"/>
   </g>
   <g id="patch_16">
    <path d="M 424.785982 136.44544 
C 404.30772 119.262138 377.83844 110.916406 351.207692 113.246295 
C 324.576945 115.576183 299.959013 128.391467 282.775711 148.869729 
C 265.592409 169.347991 257.246677 195.817272 259.576565 222.448019 
C 261.906454 249.078766 274.721738 273.696698 295.2 290.88 
C 315.678262 308.063302 342.147543 316.409034 368.77829 314.079146 
C 395.409037 311.749257 420.026969 298.933973 437.210271 278.455711 
C 454.393573 257.977449 462.739305 231.508169 460.409417 204.877421 
C 458.079528 178.246674 445.264244 153.628742 424.785982 136.44544 
z
" clip-path="url(#pfdf4c4d93c)" style="fill: #1f77b4; opacity: 0.1; stroke: #0000ff; stroke-linejoin: miter"/>
   </g>
   <g id="patch_17">
    <path d="M 396 116.289279 
C 372.849 102.923042 345.332626 99.300443 319.51104 106.219316 
C 293.689455 113.138189 271.670876 130.033639 258.304639 153.184639 
C 244.938403 176.33564 241.315804 203.852013 248.234677 229.673599 
C 255.15355 255.495185 272.049 277.513764 295.2 290.88 
C 318.351 304.246236 345.867374 307.868836 371.68896 300.949963 
C 397.510545 294.03109 419.529124 277.13564 432.895361 253.984639 
C 446.261597 230.833639 449.884196 203.317265 442.965323 177.49568 
C 436.04645 151.674094 419.151 129.655515 396 116.289279 
z
" clip-path="url(#pfdf4c4d93c)" style="fill: #1f77b4; opacity: 0.1; stroke: #0000ff; stroke-linejoin: miter"/>
   </g>
   <g id="patch_18">
    <path d="M 364.151261 101.437968 
C 339.030954 92.294924 311.303558 93.505528 287.07571 104.803159 
C 262.847862 116.10079 244.097658 136.563046 234.954614 161.683353 
C 225.81157 186.803661 227.022174 214.531057 238.319806 238.758905 
C 249.617437 262.986753 270.079693 281.736956 295.2 290.88 
C 320.320307 300.023044 348.047703 298.81244 372.275551 287.514809 
C 396.503399 276.217178 415.253603 255.754921 424.396647 230.634614 
C 433.539691 205.514307 432.329086 177.786911 421.031455 153.559063 
C 409.733824 129.331215 389.271568 110.581012 364.151261 101.437968 
z
" clip-path="url(#pfdf4c4d93c)" style="fill: #1f77b4; opacity: 0.1; stroke: #0000ff; stroke-linejoin: miter"/>
   </g>
   <g id="patch_19">
    <path d="M 330.207473 92.342757 
C 303.881126 87.700712 276.785191 93.707736 254.887232 109.040852 
C 232.989272 124.373969 218.07716 147.781296 213.435115 174.107642 
C 208.79307 200.433988 214.800094 227.529924 230.13321 249.427883 
C 245.466327 271.325843 268.873654 286.237955 295.2 290.88 
C 321.526346 295.522045 348.622282 289.515021 370.520241 274.181905 
C 392.418201 258.848788 407.330313 235.441461 411.972358 209.115115 
C 416.614403 182.788769 410.607379 155.692833 395.274262 133.794874 
C 379.941146 111.896914 356.533819 96.984802 330.207473 92.342757 
z
" clip-path="url(#pfdf4c4d93c)" style="fill: #1f77b4; opacity: 0.1; stroke: #0000ff; stroke-linejoin: miter"/>
   </g>
   <g id="patch_20">
    <path d="M 295.2 89.28 
C 268.467528 89.28 242.826349 99.900924 223.923636 118.803636 
C 205.020924 137.706349 194.4 163.347528 194.4 190.08 
C 194.4 216.812472 205.020924 242.453651 223.923636 261.356364 
C 242.826349 280.259076 268.467528 290.88 295.2 290.88 
C 321.932472 290.88 347.573651 280.259076 366.476364 261.356364 
C 385.379076 242.453651 396 216.812472 396 190.08 
C 396 163.347528 385.379076 137.706349 366.476364 118.803636 
C 347.573651 99.900924 321.932472 89.28 295.2 89.28 
z
" clip-path="url(#pfdf4c4d93c)" style="fill: #1f77b4; opacity: 0.1; stroke: #0000ff; stroke-linejoin: miter"/>
   </g>
   <g id="patch_21">
    <path d="M 260.192527 92.342757 
C 233.866181 96.984802 210.458854 111.896914 195.125738 133.794874 
C 179.792621 155.692833 173.785597 182.788769 178.427642 209.115115 
C 183.069687 235.441461 197.981799 258.848788 219.879759 274.181905 
C 241.777718 289.515021 268.873654 295.522045 295.2 290.88 
C 321.526346 286.237955 344.933673 271.325843 360.26679 249.427883 
C 375.599906 227.529924 381.60693 200.433988 376.964885 174.107642 
C 372.32284 147.781296 357.410728 124.373969 335.512768 109.040852 
C 313.614809 93.707736 286.518874 87.700712 260.192527 92.342757 
z
" clip-path="url(#pfdf4c4d93c)" style="fill: #1f77b4; opacity: 0.1; stroke: #0000ff; stroke-linejoin: miter"/>
   </g>
   <g id="patch_22">
    <path d="M 226.248739 101.437968 
C 201.128432 110.581012 180.666176 129.331215 169.368545 153.559063 
C 158.070914 177.786911 156.860309 205.514307 166.003353 230.634614 
C 175.146397 255.754921 193.896601 276.217178 218.124449 287.514809 
C 242.352297 298.81244 270.079693 300.023044 295.2 290.88 
C 320.320307 281.736956 340.782563 262.986753 352.080194 238.758905 
C 363.377826 214.531057 364.58843 186.803661 355.445386 161.683353 
C 346.302342 136.563046 327.552138 116.10079 303.32429 104.803159 
C 279.096442 93.505528 251.369046 92.294924 226.248739 101.437968 
z
" clip-path="url(#pfdf4c4d93c)" style="fill: #1f77b4; opacity: 0.1; stroke: #0000ff; stroke-linejoin: miter"/>
   </g>
   <g id="patch_23">
    <path d="M 194.4 116.289279 
C 171.249 129.655515 154.35355 151.674094 147.434677 177.49568 
C 140.515804 203.317265 144.138403 230.833639 157.504639 253.984639 
C 170.870876 277.13564 192.889455 294.03109 218.71104 300.949963 
C 244.532626 307.868836 272.049 304.246236 295.2 290.88 
C 318.351 277.513764 335.24645 255.495185 342.165323 229.673599 
C 349.084196 203.852013 345.461597 176.33564 332.095361 153.184639 
C 318.729124 130.033639 296.710545 113.138189 270.88896 106.219316 
C 245.067374 99.300443 217.551 102.923042 194.4 116.289279 
z
" clip-path="url(#pfdf4c4d93c)" style="fill: #1f77b4; opacity: 0.1; stroke: #0000ff; stroke-linejoin: miter"/>
   </g>
   <g id="patch_24">
    <path d="M 165.614018 136.44544 
C 145.135756 153.628742 132.320472 178.246674 129.990583 204.877421 
C 127.660695 231.508169 136.006427 257.977449 153.189729 278.455711 
C 170.373031 298.933973 194.990963 311.749257 221.62171 314.079146 
C 248.252457 316.409034 274.721738 308.063302 295.2 290.88 
C 315.678262 273.696698 328.493546 249.078766 330.823435 222.448019 
C 333.153323 195.817272 324.807591 169.347991 307.624289 148.869729 
C 290.440987 128.391467 265.823055 115.576183 239.192308 113.246295 
C 212.56156 110.916406 186.09228 119.262138 165.614018 136.44544 
z
" clip-path="url(#pfdf4c4d93c)" style="fill: #1f77b4; opacity: 0.1; stroke: #0000ff; stroke-linejoin: miter"/>
   </g>
   <g id="patch_25">
    <path d="M 140.76544 161.294018 
C 123.582138 181.77228 115.236406 208.24156 117.566295 234.872308 
C 119.896183 261.503055 132.711467 286.120987 153.189729 303.304289 
C 173.667991 320.487591 200.137272 328.833323 226.768019 326.503435 
C 253.398766 324.173546 278.016698 311.358262 295.2 290.88 
C 312.383302 270.401738 320.729034 243.932457 318.399146 217.30171 
C 316.069257 190.670963 303.253973 166.053031 282.775711 148.869729 
C 262.297449 131.686427 235.828169 123.340695 209.197421 125.670583 
C 182.566674 128.000472 157.948742 140.815756 140.76544 161.294018 
z
" clip-path="url(#pfdf4c4d93c)" style="fill: #1f77b4; opacity: 0.1; stroke: #0000ff; stroke-linejoin: miter"/>
   </g>
   <g id="patch_26">
    <path d="M 120.609279 190.08 
C 107.243042 213.231 103.620443 240.747374 110.539316 266.56896 
C 117.458189 292.390545 134.353639 314.409124 157.504639 327.775361 
C 180.65564 341.141597 208.172013 344.764196 233.993599 337.845323 
C 259.815185 330.92645 281.833764 314.031 295.2 290.88 
C 308.566236 267.729 312.188836 240.212626 305.269963 214.39104 
C 298.35109 188.569455 281.45564 166.550876 258.304639 153.184639 
C 235.153639 139.818403 207.637265 136.195804 181.81568 143.114677 
C 155.994094 150.03355 133.975515 166.929 120.609279 190.08 
z
" clip-path="url(#pfdf4c4d93c)" style="fill: #1f77b4; opacity: 0.1; stroke: #0000ff; stroke-linejoin: miter"/>
   </g>
   <g id="patch_27">
    <path d="M 105.757968 221.928739 
C 96.614924 247.049046 97.825528 274.776442 109.123159 299.00429 
C 120.42079 323.232138 140.883046 341.982342 166.003353 351.125386 
C 191.123661 360.26843 218.851057 359.057826 243.078905 347.760194 
C 267.306753 336.462563 286.056956 316.000307 295.2 290.88 
C 304.343044 265.759693 303.13244 238.032297 291.834809 213.804449 
C 280.537178 189.576601 260.074921 170.826397 234.954614 161.683353 
C 209.834307 152.540309 182.106911 153.750914 157.879063 165.048545 
C 133.651215 176.346176 114.901012 196.808432 105.757968 221.928739 
z
" clip-path="url(#pfdf4c4d93c)" style="fill: #1f77b4; opacity: 0.1; stroke: #0000ff; stroke-linejoin: miter"/>
   </g>
   <g id="patch_28">
    <path d="M 96.662757 255.872527 
C 92.020712 282.198874 98.027736 309.294809 113.360852 331.192768 
C 128.693969 353.090728 152.101296 368.00284 178.427642 372.644885 
C 204.753988 377.28693 231.849924 371.279906 253.747883 355.94679 
C 275.645843 340.613673 290.557955 317.206346 295.2 290.88 
C 299.842045 264.553654 293.835021 237.457718 278.501905 215.559759 
C 263.168788 193.661799 239.761461 178.749687 213.435115 174.107642 
C 187.108769 169.465597 160.012833 175.472621 138.114874 190.805738 
C 116.216914 206.138854 101.304802 229.546181 96.662757 255.872527 
z
" clip-path="url(#pfdf4c4d93c)" style="fill: #1f77b4; opacity: 0.1; stroke: #0000ff; stroke-linejoin: miter"/>
   </g>
   <g id="patch_29">
    <path d="M 93.6 290.88 
C 93.6 317.612472 104.220924 343.253651 123.123636 362.156364 
C 142.026349 381.059076 167.667528 391.68 194.4 391.68 
C 221.132472 391.68 246.773651 381.059076 265.676364 362.156364 
C 284.579076 343.253651 295.2 317.612472 295.2 290.88 
C 295.2 264.147528 284.579076 238.506349 265.676364 219.603636 
C 246.773651 200.700924 221.132472 190.08 194.4 190.08 
C 167.667528 190.08 142.026349 200.700924 123.123636 219.603636 
C 104.220924 238.506349 93.6 264.147528 93.6 290.88 
z
" clip-path="url(#pfdf4c4d93c)" style="fill: #1f77b4; opacity: 0.1; stroke: #0000ff; stroke-linejoin: miter"/>
   </g>
   <g id="patch_30">
    <path d="M 96.662757 325.887473 
C 101.304802 352.213819 116.216914 375.621146 138.114874 390.954262 
C 160.012833 406.287379 187.108769 412.294403 213.435115 407.652358 
C 239.761461 403.010313 263.168788 388.098201 278.501905 366.200241 
C 293.835021 344.302282 299.842045 317.206346 295.2 290.88 
C 290.557955 264.553654 275.645843 241.146327 253.747883 225.81321 
C 231.849924 210.480094 204.753988 204.47307 178.427642 209.115115 
C 152.101296 213.75716 128.693969 228.669272 113.360852 250.567232 
C 98.027736 272.465191 92.020712 299.561126 96.662757 325.887473 
z
" clip-path="url(#pfdf4c4d93c)" style="fill: #1f77b4; opacity: 0.1; stroke: #0000ff; stroke-linejoin: miter"/>
   </g>
   <g id="patch_31">
    <path d="M 105.757968 359.831261 
C 114.901012 384.951568 133.651215 405.413824 157.879063 416.711455 
C 182.106911 428.009086 209.834307 429.219691 234.954614 420.076647 
C 260.074921 410.933603 280.537178 392.183399 291.834809 367.955551 
C 303.13244 343.727703 304.343044 316.000307 295.2 290.88 
C 286.056956 265.759693 267.306753 245.297437 243.078905 233.999806 
C 218.851057 222.702174 191.123661 221.49157 166.003353 230.634614 
C 140.883046 239.777658 120.42079 258.527862 109.123159 282.75571 
C 97.825528 306.983558 96.614924 334.710954 105.757968 359.831261 
z
" clip-path="url(#pfdf4c4d93c)" style="fill: #1f77b4; opacity: 0.1; stroke: #0000ff; stroke-linejoin: miter"/>
   </g>
   <g id="patch_32">
    <path d="M 120.609279 391.68 
C 133.975515 414.831 155.994094 431.72645 181.81568 438.645323 
C 207.637265 445.564196 235.153639 441.941597 258.304639 428.575361 
C 281.45564 415.209124 298.35109 393.190545 305.269963 367.36896 
C 312.188836 341.547374 308.566236 314.031 295.2 290.88 
C 281.833764 267.729 259.815185 250.83355 233.993599 243.914677 
C 208.172013 236.995804 180.65564 240.618403 157.504639 253.984639 
C 134.353639 267.350876 117.458189 289.369455 110.539316 315.19104 
C 103.620443 341.012626 107.243042 368.529 120.609279 391.68 
z
" clip-path="url(#pfdf4c4d93c)" style="fill: #1f77b4; opacity: 0.1; stroke: #0000ff; stroke-linejoin: miter"/>
   </g>
   <g id="patch_33">
    <path d="M 140.76544 420.465982 
C 157.948742 440.944244 182.566674 453.759528 209.197421 456.089417 
C 235.828169 458.419305 262.297449 450.073573 282.775711 432.890271 
C 303.253973 415.706969 316.069257 391.089037 318.399146 364.45829 
C 320.729034 337.827543 312.383302 311.358262 295.2 290.88 
C 278.016698 270.401738 253.398766 257.586454 226.768019 255.256565 
C 200.137272 252.926677 173.667991 261.272409 153.189729 278.455711 
C 132.711467 295.639013 119.896183 320.256945 117.566295 346.887692 
C 115.236406 373.51844 123.582138 399.98772 140.76544 420.465982 
z
" clip-path="url(#pfdf4c4d93c)" style="fill: #1f77b4; opacity: 0.1; stroke: #0000ff; stroke-linejoin: miter"/>
   </g>
   <g id="patch_34">
    <path d="M 165.614018 445.31456 
C 186.09228 462.497862 212.56156 470.843594 239.192308 468.513705 
C 265.823055 466.183817 290.440987 453.368533 307.624289 432.890271 
C 324.807591 412.412009 333.153323 385.942728 330.823435 359.311981 
C 328.493546 332.681234 315.678262 308.063302 295.2 290.88 
C 274.721738 273.696698 248.252457 265.350966 221.62171 267.680854 
C 194.990963 270.010743 170.373031 282.826027 153.189729 303.304289 
C 136.006427 323.782551 127.660695 350.251831 129.990583 376.882579 
C 132.320472 403.513326 145.135756 428.131258 165.614018 445.31456 
z
" clip-path="url(#pfdf4c4d93c)" style="fill: #1f77b4; opacity: 0.1; stroke: #0000ff; stroke-linejoin: miter"/>
   </g>
   <g id="patch_35">
    <path d="M 194.4 465.470721 
C 217.551 478.836958 245.067374 482.459557 270.88896 475.540684 
C 296.710545 468.621811 318.729124 451.726361 332.095361 428.575361 
C 345.461597 405.42436 349.084196 377.907987 342.165323 352.086401 
C 335.24645 326.264815 318.351 304.246236 295.2 290.88 
C 272.049 277.513764 244.532626 273.891164 218.71104 280.810037 
C 192.889455 287.72891 170.870876 304.62436 157.504639 327.775361 
C 144.138403 350.926361 140.515804 378.442735 147.434677 404.26432 
C 154.35355 430.085906 171.249 452.104485 194.4 465.470721 
z
" clip-path="url(#pfdf4c4d93c)" style="fill: #1f77b4; opacity: 0.1; stroke: #0000ff; stroke-linejoin: miter"/>
   </g>
   <g id="patch_36">
    <path d="M 226.248739 480.322032 
C 251.369046 489.465076 279.096442 488.254472 303.32429 476.956841 
C 327.552138 465.65921 346.302342 445.196954 355.445386 420.076647 
C 364.58843 394.956339 363.377826 367.228943 352.080194 343.001095 
C 340.782563 318.773247 320.320307 300.023044 295.2 290.88 
C 270.079693 281.736956 242.352297 282.94756 218.124449 294.245191 
C 193.896601 305.542822 175.146397 326.005079 166.003353 351.125386 
C 156.860309 376.245693 158.070914 403.973089 169.368545 428.200937 
C 180.666176 452.428785 201.128432 471.178988 226.248739 480.322032 
z
" clip-path="url(#pfdf4c4d93c)" style="fill: #1f77b4; opacity: 0.1; stroke: #0000ff; stroke-linejoin: miter"/>
   </g>
   <g id="patch_37">
    <path d="M 260.192527 489.417243 
C 286.518874 494.059288 313.614809 488.052264 335.512768 472.719148 
C 357.410728 457.386031 372.32284 433.978704 376.964885 407.652358 
C 381.60693 381.326012 375.599906 354.230076 360.26679 332.332117 
C 344.933673 310.434157 321.526346 295.522045 295.2 290.88 
C 268.873654 286.237955 241.777718 292.244979 219.879759 307.578095 
C 197.981799 322.911212 183.069687 346.318539 178.427642 372.644885 
C 173.785597 398.971231 179.792621 426.067167 195.125738 447.965126 
C 210.458854 469.863086 233.866181 484.775198 260.192527 489.417243 
z
" clip-path="url(#pfdf4c4d93c)" style="fill: #1f77b4; opacity: 0.1; stroke: #0000ff; stroke-linejoin: miter"/>
   </g>
   <g id="line2d_1">
    <path d="M 295.2 290.88 
" clip-path="url(#pfdf4c4d93c)" style="fill: none; stroke: #0000ff; stroke-width: 1.5; stroke-linecap: square"/>
    <defs>
     <path id="m1d8beb8bc4" d="M 0 5 
C 1.326016 5 2.597899 4.473168 3.535534 3.535534 
C 4.473168 2.597899 5 1.326016 5 0 
C 5 -1.326016 4.473168 -2.597899 3.535534 -3.535534 
C 2.597899 -4.473168 1.326016 -5 0 -5 
C -1.326016 -5 -2.597899 -4.473168 -3.535534 -3.535534 
C -4.473168 -2.597899 -5 -1.326016 -5 0 
C -5 1.326016 -4.473168 2.597899 -3.535534 3.535534 
C -2.597899 4.473168 -1.326016 5 0 5 
z
" style="stroke: #0000ff"/>
    </defs>
    <g clip-path="url(#pfdf4c4d93c)">
     <use xlink:href="#m1d8beb8bc4" x="295.2" y="290.88" style="fill: #0000ff; stroke: #0000ff"/>
    </g>
   </g>
  </g>
 </g>
 <defs>
  <clipPath id="pfdf4c4d93c">
   <rect x="73.44" y="69.12" width="443.52" height="443.52"/>
  </clipPath>
 </defs>
</svg>
