<?xml version="1.0" encoding="utf-8" standalone="no"?>
<!DOCTYPE svg PUBLIC "-//W3C//DTD SVG 1.1//EN"
  "http://www.w3.org/Graphics/SVG/1.1/DTD/svg11.dtd">
<svg xmlns:xlink="http://www.w3.org/1999/xlink" width="576pt" height="576pt" viewBox="0 0 576 576" xmlns="http://www.w3.org/2000/svg" version="1.1">
 <metadata>
  <rdf:RDF xmlns:dc="http://purl.org/dc/elements/1.1/" xmlns:cc="http://creativecommons.org/ns#" xmlns:rdf="http://www.w3.org/1999/02/22-rdf-syntax-ns#">
   <cc:Work>
    <dc:type rdf:resource="http://purl.org/dc/dcmitype/StillImage"/>
    <dc:date>2025-11-28T17:27:40.058403</dc:date>
    <dc:format>image/svg+xml</dc:format>
    <dc:creator>
     <cc:Agent>
      <dc:title>Matplotlib v3.10.6, https://matplotlib.org/</dc:title>
     </cc:Agent>
    </dc:creator>
   </cc:Work>
  </rdf:RDF>
 </metadata>
 <defs>
  <style type="text/css">*{stroke-linejoin: round; stroke-linecap: butt}</style>
 </defs>
 <g id="figure_1">
  <g id="patch_1">
   <path d="M 0 576 
L 576 576 
L 576 0 
L 0 0 
z
" style="fill: #ffffff"/>
  </g>
  <g id="axes_1">
   <g id="line2d_1">
    <path d="M 289.87223 303.759777 
" clip-path="url(#p486d576e40)" style="fill: none; stroke: #ff0000; stroke-width: 1.5; stroke-linecap: square"/>
    <defs>
     <path id="mb0408c14be" d="M 0 5 
C 1.326016 5 2.597899 4.473168 3.535534 3.535534 
C 4.473168 2.597899 5 1.326016 5 0 
C 5 -1.326016 4.473168 -2.597899 3.535534 -3.535534 
C 2.597899 -4.473168 1.326016 -5 0 -5 
C -1.326016 -5 -2.597899 -4.473168 -3.535534 -3.535534 
C -4.473168 -2.597899 -5 -1.326016 -5 0 
C -5 1.326016 -4.473168 2.597899 -3.535534 3.535534 
C -2.597899 4.473168 -1.326016 5 0 5 
z
" style="stroke: #ff0000"/>
    </defs>
    <g clip-path="url(#p486d576e40)">
     <use xlink:href="#mb0408c14be" x="289.87223" y="303.759777" style="fill: #ff0000; stroke: #ff0000"/>
    </g>
   </g>
   <g id="line2d_2">
    <path d="M 289.87223 301.60395 
L 291.73923 304.83769 
L 288.005229 304.83769 
L 289.87223 301.60395 
" clip-path="url(#p486d576e40)" style="fill: none; stroke: #a50026; stroke-width: 1.5; stroke-linecap: square"/>
   </g>
   <g id="line2d_3">
    <path d="M 289.496444 299.464531 
L 293.779915 305.58196 
L 286.34033 306.23284 
L 289.496444 299.464531 
" clip-path="url(#p486d576e40)" style="fill: none; stroke: #a90426; stroke-width: 1.5; stroke-linecap: square"/>
   </g>
   <g id="line2d_4">
    <path d="M 288.749164 297.390553 
L 295.949673 305.971785 
L 284.917853 307.916993 
L 288.749164 297.390553 
" clip-path="url(#p486d576e40)" style="fill: none; stroke: #af0926; stroke-width: 1.5; stroke-linecap: square"/>
   </g>
   <g id="line2d_5">
    <path d="M 287.640354 295.430302 
L 298.201704 305.991653 
L 283.774631 309.857375 
L 287.640354 295.430302 
" clip-path="url(#p486d576e40)" style="fill: none; stroke: #b30d26; stroke-width: 1.5; stroke-linecap: square"/>
   </g>
   <g id="line2d_6">
    <path d="M 286.185549 293.630705 
L 300.487604 305.631554 
L 282.943537 312.017072 
L 286.185549 293.630705 
" clip-path="url(#p486d576e40)" style="fill: none; stroke: #b91326; stroke-width: 1.5; stroke-linecap: square"/>
   </g>
   <g id="line2d_7">
    <path d="M 284.40568 292.036722 
L 302.757968 304.887133 
L 282.453042 314.355476 
L 284.40568 292.036722 
" clip-path="url(#p486d576e40)" style="fill: none; stroke: #bd1726; stroke-width: 1.5; stroke-linecap: square"/>
   </g>
   <g id="line2d_8">
    <path d="M 282.326837 290.690773 
L 304.963016 303.759777 
L 282.326837 316.828781 
L 282.326837 290.690773 
" clip-path="url(#p486d576e40)" style="fill: none; stroke: #c21c27; stroke-width: 1.5; stroke-linecap: square"/>
   </g>
   <g id="line2d_9">
    <path d="M 279.979979 289.632179 
L 307.053214 302.256636 
L 282.583496 319.390517 
L 279.979979 289.632179 
" clip-path="url(#p486d576e40)" style="fill: none; stroke: #c82227; stroke-width: 1.5; stroke-linecap: square"/>
   </g>
   <g id="line2d_10">
    <path d="M 277.400582 288.896646 
L 308.979903 300.390579 
L 283.236205 321.992106 
L 277.400582 288.896646 
" clip-path="url(#p486d576e40)" style="fill: none; stroke: #cc2627; stroke-width: 1.5; stroke-linecap: square"/>
   </g>
   <g id="line2d_11">
    <path d="M 274.628234 288.515781 
L 310.695916 298.180087 
L 284.29254 324.583463 
L 274.628234 288.515781 
" clip-path="url(#p486d576e40)" style="fill: none; stroke: #d22b27; stroke-width: 1.5; stroke-linecap: square"/>
   </g>
   <g id="line2d_12">
    <path d="M 271.706181 288.516652 
L 312.156188 295.649079 
L 285.754321 327.113599 
L 271.706181 288.516652 
" clip-path="url(#p486d576e40)" style="fill: none; stroke: #d62f27; stroke-width: 1.5; stroke-linecap: square"/>
   </g>
   <g id="line2d_13">
    <path d="M 268.680832 288.921401 
L 313.318339 292.826677 
L 287.617518 329.531254 
L 268.680832 288.921401 
" clip-path="url(#p486d576e40)" style="fill: none; stroke: #da362a; stroke-width: 1.5; stroke-linecap: square"/>
   </g>
   <g id="line2d_14">
    <path d="M 265.601222 289.746904 
L 314.143238 289.746904 
L 289.87223 331.785523 
L 265.601222 289.746904 
" clip-path="url(#p486d576e40)" style="fill: none; stroke: #dd3d2d; stroke-width: 1.5; stroke-linecap: square"/>
   </g>
   <g id="line2d_15">
    <path d="M 262.518435 291.004493 
L 314.595527 286.448338 
L 292.502727 333.8265 
L 262.518435 291.004493 
" clip-path="url(#p486d576e40)" style="fill: none; stroke: #e0422f; stroke-width: 1.5; stroke-linecap: square"/>
   </g>
   <g id="line2d_16">
    <path d="M 259.485014 292.699735 
L 314.644115 282.973697 
L 295.48756 335.605899 
L 259.485014 292.699735 
" clip-path="url(#p486d576e40)" style="fill: none; stroke: #e34933; stroke-width: 1.5; stroke-linecap: square"/>
   </g>
   <g id="line2d_17">
    <path d="M 256.554332 294.832273 
L 314.262624 279.369383 
L 298.799734 337.077675 
L 256.554332 294.832273 
" clip-path="url(#p486d576e40)" style="fill: none; stroke: #e54e35; stroke-width: 1.5; stroke-linecap: square"/>
   </g>
   <g id="line2d_18">
    <path d="M 253.779959 297.395736 
L 313.429787 275.684974 
L 302.406944 338.198621 
L 253.779959 297.395736 
" clip-path="url(#p486d576e40)" style="fill: none; stroke: #e95538; stroke-width: 1.5; stroke-linecap: square"/>
   </g>
   <g id="line2d_19">
    <path d="M 251.215015 300.377709 
L 312.129794 271.972681 
L 306.27188 338.928941 
L 251.215015 300.377709 
" clip-path="url(#p486d576e40)" style="fill: none; stroke: #eb5a3a; stroke-width: 1.5; stroke-linecap: square"/>
   </g>
   <g id="line2d_20">
    <path d="M 248.911524 303.759777 
L 310.352583 268.286765 
L 310.352583 339.232789 
L 248.911524 303.759777 
" clip-path="url(#p486d576e40)" style="fill: none; stroke: #ee613e; stroke-width: 1.5; stroke-linecap: square"/>
   </g>
   <g id="line2d_21">
    <path d="M 246.919769 307.51763 
L 308.094064 264.682928 
L 314.602857 339.078773 
L 246.919769 307.51763 
" clip-path="url(#p486d576e40)" style="fill: none; stroke: #f26841; stroke-width: 1.5; stroke-linecap: square"/>
   </g>
   <g id="line2d_22">
    <path d="M 245.28766 311.62124 
L 305.356289 261.217675 
L 318.972741 338.440416 
L 245.28766 311.62124 
" clip-path="url(#p486d576e40)" style="fill: none; stroke: #f46d43; stroke-width: 1.5; stroke-linecap: square"/>
   </g>
   <g id="line2d_23">
    <path d="M 244.06012 316.035095 
L 302.147548 257.947667 
L 323.409021 337.296569 
L 244.06012 316.035095 
" clip-path="url(#p486d576e40)" style="fill: none; stroke: #f57547; stroke-width: 1.5; stroke-linecap: square"/>
   </g>
   <g id="line2d_24">
    <path d="M 243.278499 320.718508 
L 298.482403 254.929057 
L 327.855787 335.631766 
L 243.278499 320.718508 
" clip-path="url(#p486d576e40)" style="fill: none; stroke: #f67a49; stroke-width: 1.5; stroke-linecap: square"/>
   </g>
   <g id="line2d_25">
    <path d="M 242.980011 325.625978 
L 294.381654 252.216824 
L 332.255025 333.436529 
L 242.980011 325.625978 
" clip-path="url(#p486d576e40)" style="fill: none; stroke: #f7814c; stroke-width: 1.5; stroke-linecap: square"/>
   </g>
   <g id="line2d_26">
    <path d="M 243.197214 330.70761 
L 289.87223 249.864111 
L 336.547245 330.70761 
L 243.197214 330.70761 
" clip-path="url(#p486d576e40)" style="fill: none; stroke: #f88950; stroke-width: 1.5; stroke-linecap: square"/>
   </g>
   <g id="line2d_27">
    <path d="M 243.957535 335.909592 
L 284.98702 247.921578 
L 340.672134 327.448161 
L 243.957535 335.909592 
" clip-path="url(#p486d576e40)" style="fill: none; stroke: #f98e52; stroke-width: 1.5; stroke-linecap: square"/>
   </g>
   <g id="line2d_28">
    <path d="M 245.282837 341.17472 
L 279.764635 246.436758 
L 344.569218 323.667852 
L 245.282837 341.17472 
" clip-path="url(#p486d576e40)" style="fill: none; stroke: #fa9656; stroke-width: 1.5; stroke-linecap: square"/>
   </g>
   <g id="line2d_29">
    <path d="M 247.18904 346.442966 
L 274.249098 245.453456 
L 348.178551 319.382909 
L 247.18904 346.442966 
" clip-path="url(#p486d576e40)" style="fill: none; stroke: #fa9b58; stroke-width: 1.5; stroke-linecap: square"/>
   </g>
   <g id="line2d_30">
    <path d="M 249.685809 351.652088 
L 268.489482 245.01116 
L 351.441398 314.616082 
L 249.685809 351.652088 
" clip-path="url(#p486d576e40)" style="fill: none; stroke: #fba35c; stroke-width: 1.5; stroke-linecap: square"/>
   </g>
   <g id="line2d_31">
    <path d="M 252.776289 356.73827 
L 262.539479 245.144503 
L 354.300921 309.396557 
L 252.776289 356.73827 
" clip-path="url(#p486d576e40)" style="fill: none; stroke: #fca85e; stroke-width: 1.5; stroke-linecap: square"/>
   </g>
   <g id="line2d_32">
    <path d="M 256.456917 361.636796 
L 256.456917 245.882758 
L 356.702855 303.759777 
L 256.456917 361.636796 
" clip-path="url(#p486d576e40)" style="fill: none; stroke: #fdaf62; stroke-width: 1.5; stroke-linecap: square"/>
   </g>
   <g id="line2d_33">
    <path d="M 260.717295 366.282735 
L 250.303227 247.249384 
L 358.596167 297.747211 
L 260.717295 366.282735 
" clip-path="url(#p486d576e40)" style="fill: none; stroke: #fdb567; stroke-width: 1.5; stroke-linecap: square"/>
   </g>
   <g id="line2d_34">
    <path d="M 265.540137 370.611651 
L 244.142855 249.26163 
L 359.933697 291.40605 
L 265.540137 370.611651 
" clip-path="url(#p486d576e40)" style="fill: none; stroke: #fdb96b; stroke-width: 1.5; stroke-linecap: square"/>
   </g>
   <g id="line2d_35">
    <path d="M 270.901284 374.56031 
L 238.042643 251.93019 
L 360.672763 284.788831 
L 270.901284 374.56031 
" clip-path="url(#p486d576e40)" style="fill: none; stroke: #fdbf71; stroke-width: 1.5; stroke-linecap: square"/>
   </g>
   <g id="line2d_36">
    <path d="M 276.769792 378.067394 
L 232.071165 255.258924 
L 360.775733 277.953012 
L 276.769792 378.067394 
" clip-path="url(#p486d576e40)" style="fill: none; stroke: #fdc374; stroke-width: 1.5; stroke-linecap: square"/>
   </g>
   <g id="line2d_37">
    <path d="M 283.108094 381.074207 
L 226.298038 259.244648 
L 360.210558 270.960476 
L 283.108094 381.074207 
" clip-path="url(#p486d576e40)" style="fill: none; stroke: #fec87a; stroke-width: 1.5; stroke-linecap: square"/>
   </g>
   <g id="line2d_38">
    <path d="M 289.87223 383.525362 
L 220.793207 263.876984 
L 358.951253 263.876984 
L 289.87223 383.525362 
" clip-path="url(#p486d576e40)" style="fill: none; stroke: #fece7f; stroke-width: 1.5; stroke-linecap: square"/>
   </g>
   <g id="line2d_39">
    <path d="M 297.012151 385.369453 
L 215.626216 269.138292 
L 356.978322 256.771586 
L 297.012151 385.369453 
" clip-path="url(#p486d576e40)" style="fill: none; stroke: #fed283; stroke-width: 1.5; stroke-linecap: square"/>
   </g>
   <g id="line2d_40">
    <path d="M 304.472089 386.559693 
L 210.865469 275.003668 
L 354.279131 249.71597 
L 304.472089 386.559693 
" clip-path="url(#p486d576e40)" style="fill: none; stroke: #fed889; stroke-width: 1.5; stroke-linecap: square"/>
   </g>
   <g id="line2d_41">
    <path d="M 312.190989 387.054521 
L 206.577485 281.441017 
L 350.848215 242.783792 
L 312.190989 387.054521 
" clip-path="url(#p486d576e40)" style="fill: none; stroke: #fedc8c; stroke-width: 1.5; stroke-linecap: square"/>
   </g>
   <g id="line2d_42">
    <path d="M 320.103011 386.818166 
L 202.826164 288.411207 
L 346.687514 236.049958 
L 320.103011 386.818166 
" clip-path="url(#p486d576e40)" style="fill: none; stroke: #fee192; stroke-width: 1.5; stroke-linecap: square"/>
   </g>
   <g id="line2d_43">
    <path d="M 328.138081 385.82116 
L 199.672062 295.868285 
L 341.806547 229.589886 
L 328.138081 385.82116 
" clip-path="url(#p486d576e40)" style="fill: none; stroke: #fee597; stroke-width: 1.5; stroke-linecap: square"/>
   </g>
   <g id="line2d_44">
    <path d="M 336.222502 384.040804 
L 197.171685 303.759777 
L 336.222502 223.47875 
L 336.222502 384.040804 
" clip-path="url(#p486d576e40)" style="fill: none; stroke: #fee79b; stroke-width: 1.5; stroke-linecap: square"/>
   </g>
   <g id="line2d_45">
    <path d="M 344.279609 381.461567 
L 195.376816 312.027054 
L 329.960265 217.790709 
L 344.279609 381.461567 
" clip-path="url(#p486d576e40)" style="fill: none; stroke: #feeba1; stroke-width: 1.5; stroke-linecap: square"/>
   </g>
   <g id="line2d_46">
    <path d="M 352.230469 378.075432 
L 194.333865 320.605768 
L 323.052356 212.59813 
L 352.230469 378.075432 
" clip-path="url(#p486d576e40)" style="fill: none; stroke: #feeda4; stroke-width: 1.5; stroke-linecap: square"/>
   </g>
   <g id="line2d_47">
    <path d="M 359.994612 373.88216 
L 194.083274 329.42635 
L 315.538803 207.970821 
L 359.994612 373.88216 
" clip-path="url(#p486d576e40)" style="fill: none; stroke: #fff1aa; stroke-width: 1.5; stroke-linecap: square"/>
   </g>
   <g id="line2d_48">
    <path d="M 367.490803 368.889493 
L 194.658954 338.414575 
L 307.466932 203.975263 
L 367.490803 368.889493 
" clip-path="url(#p486d576e40)" style="fill: none; stroke: #fff3ad; stroke-width: 1.5; stroke-linecap: square"/>
   </g>
   <g id="line2d_49">
    <path d="M 374.637819 363.113282 
L 196.087792 347.492179 
L 298.891078 200.67387 
L 374.637819 363.113282 
" clip-path="url(#p486d576e40)" style="fill: none; stroke: #fff7b3; stroke-width: 1.5; stroke-linecap: square"/>
   </g>
   <g id="line2d_50">
    <path d="M 381.35526 356.577529 
L 198.389199 356.577529 
L 289.87223 198.124272 
L 381.35526 356.577529 
" clip-path="url(#p486d576e40)" style="fill: none; stroke: #fffbb9; stroke-width: 1.5; stroke-linecap: square"/>
   </g>
   <g id="line2d_51">
    <path d="M 387.564353 349.314362 
L 201.574741 365.586344 
L 280.477596 196.378624 
L 387.564353 349.314362 
" clip-path="url(#p486d576e40)" style="fill: none; stroke: #fffdbc; stroke-width: 1.5; stroke-linecap: square"/>
   </g>
   <g id="line2d_52">
    <path d="M 393.188763 341.36392 
L 205.647821 374.432448 
L 270.780106 195.482964 
L 393.188763 341.36392 
" clip-path="url(#p486d576e40)" style="fill: none; stroke: #fdfec2; stroke-width: 1.5; stroke-linecap: square"/>
   </g>
   <g id="line2d_53">
    <path d="M 398.155398 332.774164 
L 210.603449 383.028557 
L 260.857842 195.476609 
L 398.155398 332.774164 
" clip-path="url(#p486d576e40)" style="fill: none; stroke: #fbfdc7; stroke-width: 1.5; stroke-linecap: square"/>
   </g>
   <g id="line2d_54">
    <path d="M 402.395193 323.600611 
L 216.428082 391.287104 
L 250.793415 196.391615 
L 402.395193 323.600611 
" clip-path="url(#p486d576e40)" style="fill: none; stroke: #f7fcce; stroke-width: 1.5; stroke-linecap: square"/>
   </g>
   <g id="line2d_55">
    <path d="M 405.843875 313.905981 
L 223.099537 399.121065 
L 240.673278 198.252284 
L 405.843875 313.905981 
" clip-path="url(#p486d576e40)" style="fill: none; stroke: #f3fbd4; stroke-width: 1.5; stroke-linecap: square"/>
   </g>
   <g id="line2d_56">
    <path d="M 408.442694 303.759777 
L 230.586998 406.444811 
L 230.586998 201.074743 
L 408.442694 303.759777 
" clip-path="url(#p486d576e40)" style="fill: none; stroke: #f1fad9; stroke-width: 1.5; stroke-linecap: square"/>
   </g>
   <g id="line2d_57">
    <path d="M 410.139121 293.237787 
L 238.851095 413.174954 
L 220.626474 204.866589 
L 410.139121 293.237787 
" clip-path="url(#p486d576e40)" style="fill: none; stroke: #edf8df; stroke-width: 1.5; stroke-linecap: square"/>
   </g>
   <g id="line2d_58">
    <path d="M 410.887492 282.421521 
L 247.84407 419.231196 
L 210.885127 209.626614 
L 410.887492 282.421521 
" clip-path="url(#p486d576e40)" style="fill: none; stroke: #ebf7e4; stroke-width: 1.5; stroke-linecap: square"/>
   </g>
   <g id="line2d_59">
    <path d="M 410.649609 271.397576 
L 257.510028 424.537156 
L 201.457052 215.344599 
L 410.649609 271.397576 
" clip-path="url(#p486d576e40)" style="fill: none; stroke: #e7f6eb; stroke-width: 1.5; stroke-linecap: square"/>
   </g>
   <g id="line2d_60">
    <path d="M 409.395278 260.256945 
L 267.785263 429.021188 
L 192.436149 222.001197 
L 409.395278 260.256945 
" clip-path="url(#p486d576e40)" style="fill: none; stroke: #e5f5ef; stroke-width: 1.5; stroke-linecap: square"/>
   </g>
   <g id="line2d_61">
    <path d="M 407.102777 249.094275 
L 278.59867 432.61716 
L 183.915243 229.567896 
L 407.102777 249.094275 
" clip-path="url(#p486d576e40)" style="fill: none; stroke: #e1f3f6; stroke-width: 1.5; stroke-linecap: square"/>
   </g>
   <g id="line2d_62">
    <path d="M 403.759268 238.007065 
L 289.87223 435.265201 
L 175.985192 238.007065 
L 403.759268 238.007065 
" clip-path="url(#p486d576e40)" style="fill: none; stroke: #dcf1f7; stroke-width: 1.5; stroke-linecap: square"/>
   </g>
   <g id="line2d_63">
    <path d="M 399.361116 227.094833 
L 301.521575 436.912406 
L 168.733998 247.272092 
L 399.361116 227.094833 
" clip-path="url(#p486d576e40)" style="fill: none; stroke: #d8eff6; stroke-width: 1.5; stroke-linecap: square"/>
   </g>
   <g id="line2d_64">
    <path d="M 393.914147 216.458243 
L 313.456618 437.513488 
L 162.245925 257.307601 
L 393.914147 216.458243 
" clip-path="url(#p486d576e40)" style="fill: none; stroke: #d1ecf4; stroke-width: 1.5; stroke-linecap: square"/>
   </g>
   <g id="line2d_65">
    <path d="M 387.433806 206.198201 
L 325.582245 437.031368 
L 156.600639 268.049762 
L 387.433806 206.198201 
" clip-path="url(#p486d576e40)" style="fill: none; stroke: #cdeaf3; stroke-width: 1.5; stroke-linecap: square"/>
   </g>
   <g id="line2d_66">
    <path d="M 379.945241 196.414942 
L 337.799078 435.437711 
L 151.87237 279.426678 
L 379.945241 196.414942 
" clip-path="url(#p486d576e40)" style="fill: none; stroke: #c7e7f1; stroke-width: 1.5; stroke-linecap: square"/>
   </g>
   <g id="line2d_67">
    <path d="M 371.483299 187.207091 
L 350.004282 432.713379 
L 148.129108 291.358861 
L 371.483299 187.207091 
" clip-path="url(#p486d576e40)" style="fill: none; stroke: #c1e4ef; stroke-width: 1.5; stroke-linecap: square"/>
   </g>
   <g id="line2d_68">
    <path d="M 362.092422 178.670735 
L 362.092422 428.848819 
L 145.431846 303.759777 
L 362.092422 178.670735 
" clip-path="url(#p486d576e40)" style="fill: none; stroke: #bde2ee; stroke-width: 1.5; stroke-linecap: square"/>
   </g>
   <g id="line2d_69">
    <path d="M 351.826465 170.89849 
L 373.956362 423.844362 
L 143.833862 316.536479 
L 351.826465 170.89849 
" clip-path="url(#p486d576e40)" style="fill: none; stroke: #b6dfec; stroke-width: 1.5; stroke-linecap: square"/>
   </g>
   <g id="line2d_70">
    <path d="M 340.748423 163.978586 
L 385.488196 417.710448 
L 143.380071 329.590297 
L 340.748423 163.978586 
" clip-path="url(#p486d576e40)" style="fill: none; stroke: #b2ddeb; stroke-width: 1.5; stroke-linecap: square"/>
   </g>
   <g id="line2d_71">
    <path d="M 328.930059 157.993974 
L 396.580203 410.467751 
L 144.106427 342.817606 
L 328.930059 157.993974 
" clip-path="url(#p486d576e40)" style="fill: none; stroke: #acdae9; stroke-width: 1.5; stroke-linecap: square"/>
   </g>
   <g id="line2d_72">
    <path d="M 316.451461 153.021468 
L 407.125819 402.14722 
L 146.03941 356.110642 
L 316.451461 153.021468 
" clip-path="url(#p486d576e40)" style="fill: none; stroke: #a6d5e7; stroke-width: 1.5; stroke-linecap: square"/>
   </g>
   <g id="line2d_73">
    <path d="M 303.400502 149.130917 
L 417.020614 392.790034 
L 149.195573 369.358379 
L 303.400502 149.130917 
" clip-path="url(#p486d576e40)" style="fill: none; stroke: #a1d1e5; stroke-width: 1.5; stroke-linecap: square"/>
   </g>
   <g id="line2d_74">
    <path d="M 289.87223 146.384434 
L 426.163275 382.447449 
L 153.581184 382.447449 
L 289.87223 146.384434 
" clip-path="url(#p486d576e40)" style="fill: none; stroke: #9bcce2; stroke-width: 1.5; stroke-linecap: square"/>
   </g>
   <g id="line2d_75">
    <path d="M 275.968172 144.835671 
L 434.456571 371.180563 
L 159.191946 395.263097 
L 275.968172 144.835671 
" clip-path="url(#p486d576e40)" style="fill: none; stroke: #97c9e0; stroke-width: 1.5; stroke-linecap: square"/>
   </g>
   <g id="line2d_76">
    <path d="M 261.795577 144.529169 
L 441.808307 359.059987 
L 166.012804 407.690175 
L 261.795577 144.529169 
" clip-path="url(#p486d576e40)" style="fill: none; stroke: #90c3dd; stroke-width: 1.5; stroke-linecap: square"/>
   </g>
   <g id="line2d_77">
    <path d="M 247.466587 145.499762 
L 448.132244 346.16542 
L 174.017858 419.614148 
L 247.466587 145.499762 
" clip-path="url(#p486d576e40)" style="fill: none; stroke: #8cc0db; stroke-width: 1.5; stroke-linecap: square"/>
   </g>
   <g id="line2d_78">
    <path d="M 233.097348 147.772071 
L 453.348987 332.58514 
L 183.170354 430.92212 
L 233.097348 147.772071 
" clip-path="url(#p486d576e40)" style="fill: none; stroke: #85bbd9; stroke-width: 1.5; stroke-linecap: square"/>
   </g>
   <g id="line2d_79">
    <path d="M 218.807077 151.360065 
L 457.386828 318.415405 
L 193.422784 441.50386 
L 218.807077 151.360065 
" clip-path="url(#p486d576e40)" style="fill: none; stroke: #7fb6d6; stroke-width: 1.5; stroke-linecap: square"/>
   </g>
   <g id="line2d_80">
    <path d="M 204.717078 156.266728 
L 460.182533 303.759777 
L 204.717078 451.252826 
L 204.717078 156.266728 
" clip-path="url(#p486d576e40)" style="fill: none; stroke: #7ab2d4; stroke-width: 1.5; stroke-linecap: square"/>
   </g>
   <g id="line2d_81">
    <path d="M 190.949722 162.483794 
L 461.682074 288.728363 
L 216.984894 460.067173 
L 190.949722 162.483794 
" clip-path="url(#p486d576e40)" style="fill: none; stroke: #74add1; stroke-width: 1.5; stroke-linecap: square"/>
   </g>
   <g id="line2d_82">
    <path d="M 177.6274 169.991598 
L 461.841286 273.436992 
L 230.148003 467.850741 
L 177.6274 169.991598 
" clip-path="url(#p486d576e40)" style="fill: none; stroke: #70a9cf; stroke-width: 1.5; stroke-linecap: square"/>
   </g>
   <g id="line2d_83">
    <path d="M 164.871461 178.759008 
L 460.626456 258.00632 
L 244.118773 474.514003 
L 164.871461 178.759008 
" clip-path="url(#p486d576e40)" style="fill: none; stroke: #6ba2cb; stroke-width: 1.5; stroke-linecap: square"/>
   </g>
   <g id="line2d_84">
    <path d="M 152.801132 188.74347 
L 458.014822 242.560878 
L 258.800735 479.974983 
L 152.801132 188.74347 
" clip-path="url(#p486d576e40)" style="fill: none; stroke: #659bc8; stroke-width: 1.5; stroke-linecap: square"/>
   </g>
   <g id="line2d_85">
    <path d="M 141.532448 199.891143 
L 453.994996 227.228074 
L 274.089245 484.160113 
L 141.532448 199.891143 
" clip-path="url(#p486d576e40)" style="fill: none; stroke: #6297c6; stroke-width: 1.5; stroke-linecap: square"/>
   </g>
   <g id="line2d_86">
    <path d="M 131.177177 212.137145 
L 448.567283 212.137145 
L 289.87223 487.00504 
L 131.177177 212.137145 
" clip-path="url(#p486d576e40)" style="fill: none; stroke: #5c90c2; stroke-width: 1.5; stroke-linecap: square"/>
   </g>
   <g id="line2d_87">
    <path d="M 121.841779 225.405891 
L 441.743911 197.418081 
L 306.030999 488.455359 
L 121.841779 225.405891 
" clip-path="url(#p486d576e40)" style="fill: none; stroke: #588cc0; stroke-width: 1.5; stroke-linecap: square"/>
   </g>
   <g id="line2d_88">
    <path d="M 113.62638 239.611534 
L 433.549163 183.200515 
L 322.441146 488.467282 
L 113.62638 239.611534 
" clip-path="url(#p486d576e40)" style="fill: none; stroke: #5385bd; stroke-width: 1.5; stroke-linecap: square"/>
   </g>
   <g id="line2d_89">
    <path d="M 106.623792 254.658506 
L 424.019397 169.61261 
L 338.973501 487.008215 
L 106.623792 254.658506 
" clip-path="url(#p486d576e40)" style="fill: none; stroke: #4f81ba; stroke-width: 1.5; stroke-linecap: square"/>
   </g>
   <g id="line2d_90">
    <path d="M 100.918575 270.44215 
L 413.202969 156.779926 
L 355.495145 484.057256 
L 100.918575 270.44215 
" clip-path="url(#p486d576e40)" style="fill: none; stroke: #4a7ab7; stroke-width: 1.5; stroke-linecap: square"/>
   </g>
   <g id="line2d_91">
    <path d="M 96.586155 286.849437 
L 401.160051 144.824296 
L 371.870483 479.605598 
L 96.586155 286.849437 
" clip-path="url(#p486d576e40)" style="fill: none; stroke: #4574b3; stroke-width: 1.5; stroke-linecap: square"/>
   </g>
   <g id="line2d_92">
    <path d="M 93.692007 303.759777 
L 387.962341 133.86272 
L 387.962341 473.656833 
L 93.692007 303.759777 
" clip-path="url(#p486d576e40)" style="fill: none; stroke: #436fb1; stroke-width: 1.5; stroke-linecap: square"/>
   </g>
   <g id="line2d_93">
    <path d="M 92.290909 321.045903 
L 373.692666 124.006271 
L 403.633114 466.227157 
L 92.290909 321.045903 
" clip-path="url(#p486d576e40)" style="fill: none; stroke: #4167ad; stroke-width: 1.5; stroke-linecap: square"/>
   </g>
   <g id="line2d_94">
    <path d="M 92.426276 338.574826 
L 358.44449 115.359041 
L 418.745923 457.345464 
L 92.426276 338.574826 
" clip-path="url(#p486d576e40)" style="fill: none; stroke: #3f62ab; stroke-width: 1.5; stroke-linecap: square"/>
   </g>
   <g id="line2d_95">
    <path d="M 94.12958 356.208862 
L 342.321315 108.017127 
L 433.165794 447.053342 
L 94.12958 356.208862 
" clip-path="url(#p486d576e40)" style="fill: none; stroke: #3d5ba7; stroke-width: 1.5; stroke-linecap: square"/>
   </g>
   <g id="line2d_96">
    <path d="M 97.419865 373.806709 
L 325.435989 102.067674 
L 446.760835 435.404948 
L 97.419865 373.806709 
" clip-path="url(#p486d576e40)" style="fill: none; stroke: #3a54a4; stroke-width: 1.5; stroke-linecap: square"/>
   </g>
   <g id="line2d_97">
    <path d="M 102.303354 391.22458 
L 307.909926 97.587964 
L 459.403409 422.466787 
L 102.303354 391.22458 
" clip-path="url(#p486d576e40)" style="fill: none; stroke: #394fa1; stroke-width: 1.5; stroke-linecap: square"/>
   </g>
   <g id="line2d_98">
    <path d="M 108.77317 408.317368 
L 289.87223 94.644595 
L 470.97129 408.317368 
L 108.77317 408.317368 
" clip-path="url(#p486d576e40)" style="fill: none; stroke: #36479e; stroke-width: 1.5; stroke-linecap: square"/>
   </g>
   <g id="line2d_99">
    <path d="M 116.809151 424.939849 
L 271.458748 93.292718 
L 481.34879 393.046763 
L 116.809151 424.939849 
" clip-path="url(#p486d576e40)" style="fill: none; stroke: #35429b; stroke-width: 1.5; stroke-linecap: square"/>
   </g>
   <g id="line2d_100">
    <path d="M 126.377788 440.947902 
L 252.811049 93.575375 
L 490.427852 376.756054 
L 126.377788 440.947902 
" clip-path="url(#p486d576e40)" style="fill: none; stroke: #333b97; stroke-width: 1.5; stroke-linecap: square"/>
   </g>
   <g id="line2d_101">
    <path d="M 137.432267 456.199739 
L 234.075331 95.522916 
L 498.109091 359.556676 
L 137.432267 456.199739 
" clip-path="url(#p486d576e40)" style="fill: none; stroke: #313695; stroke-width: 1.5; stroke-linecap: square"/>
   </g>
  </g>
 </g>
 <defs>
  <clipPath id="p486d576e40">
   <rect x="72" y="73.53399" width="446.4" height="434.692021"/>
  </clipPath>
 </defs>
</svg>
