<?xml version="1.0" encoding="utf-8" standalone="no"?>
<!DOCTYPE svg PUBLIC "-//W3C//DTD SVG 1.1//EN"
  "http://www.w3.org/Graphics/SVG/1.1/DTD/svg11.dtd">
<svg xmlns:xlink="http://www.w3.org/1999/xlink" width="576pt" height="576pt" viewBox="0 0 576 576" xmlns="http://www.w3.org/2000/svg" version="1.1">
 <metadata>
  <rdf:RDF xmlns:dc="http://purl.org/dc/elements/1.1/" xmlns:cc="http://creativecommons.org/ns#" xmlns:rdf="http://www.w3.org/1999/02/22-rdf-syntax-ns#">
   <cc:Work>
    <dc:type rdf:resource="http://purl.org/dc/dcmitype/StillImage"/>
    <dc:date>2025-11-28T17:26:55.823196</dc:date>
    <dc:format>image/svg+xml</dc:format>
    <dc:creator>
     <cc:Agent>
      <dc:title>Matplotlib v3.10.6, https://matplotlib.org/</dc:title>
     </cc:Agent>
    </dc:creator>
   </cc:Work>
  </rdf:RDF>
 </metadata>
 <defs>
  <style type="text/css">*{stroke-linejoin: round; stroke-linecap: butt}</style>
 </defs>
 <g id="figure_1">
  <g id="patch_1">
   <path d="M 0 576 
L 576 576 
L 576 0 
L 0 0 
z
" style="fill: #ffffff"/>
  </g>
  <g id="axes_1">
   <g id="line2d_1">
    <path d="M 314.479513 267.198876 
" clip-path="url(#p5a2ea6bbdc)" style="fill: none; stroke: #ff0000; stroke-width: 1.5; stroke-linecap: square"/>
    <defs>
     <path id="m573aacba4e" d="M 0 5 
C 1.326016 5 2.597899 4.473168 3.535534 3.535534 
C 4.473168 2.597899 5 1.326016 5 0 
C 5 -1.326016 4.473168 -2.597899 3.535534 -3.535534 
C 2.597899 -4.473168 1.326016 -5 0 -5 
C -1.326016 -5 -2.597899 -4.473168 -3.535534 -3.535534 
C -4.473168 -2.597899 -5 -1.326016 -5 0 
C -5 1.326016 -4.473168 2.597899 -3.535534 3.535534 
C -2.597899 4.473168 -1.326016 5 0 5 
z
" style="stroke: #ff0000"/>
    </defs>
    <g clip-path="url(#p5a2ea6bbdc)">
     <use xlink:href="#m573aacba4e" x="314.479513" y="267.198876" style="fill: #ff0000; stroke: #ff0000"/>
    </g>
   </g>
   <g id="line2d_2">
    <path d="M 314.479513 264.927352 
L 316.44671 268.334638 
L 312.512315 268.334638 
L 314.479513 264.927352 
" clip-path="url(#p5a2ea6bbdc)" style="fill: none; stroke: #a50026; stroke-width: 1.5; stroke-linecap: square"/>
   </g>
   <g id="line2d_3">
    <path d="M 314.320963 262.658595 
L 318.490786 269.331708 
L 310.626789 269.606325 
L 314.320963 262.658595 
" clip-path="url(#p5a2ea6bbdc)" style="fill: none; stroke: #a90426; stroke-width: 1.5; stroke-linecap: square"/>
   </g>
   <g id="line2d_4">
    <path d="M 314.004152 260.400903 
L 320.60441 270.186188 
L 308.829976 271.009537 
L 314.004152 260.400903 
" clip-path="url(#p5a2ea6bbdc)" style="fill: none; stroke: #af0926; stroke-width: 1.5; stroke-linecap: square"/>
   </g>
   <g id="line2d_5">
    <path d="M 313.529757 258.162554 
L 322.780075 270.894525 
L 307.128706 272.53955 
L 313.529757 258.162554 
" clip-path="url(#p5a2ea6bbdc)" style="fill: none; stroke: #b30d26; stroke-width: 1.5; stroke-linecap: square"/>
   </g>
   <g id="line2d_6">
    <path d="M 312.898837 255.951786 
L 325.010116 271.453516 
L 305.529585 274.191326 
L 312.898837 255.951786 
" clip-path="url(#p5a2ea6bbdc)" style="fill: none; stroke: #b91326; stroke-width: 1.5; stroke-linecap: square"/>
   </g>
   <g id="line2d_7">
    <path d="M 312.112836 253.776788 
L 327.28672 271.860319 
L 304.038981 275.959522 
L 312.112836 253.776788 
" clip-path="url(#p5a2ea6bbdc)" style="fill: none; stroke: #bd1726; stroke-width: 1.5; stroke-linecap: square"/>
   </g>
   <g id="line2d_8">
    <path d="M 311.173577 251.645674 
L 329.601949 272.112453 
L 302.663012 277.838501 
L 311.173577 251.645674 
" clip-path="url(#p5a2ea6bbdc)" style="fill: none; stroke: #c21c27; stroke-width: 1.5; stroke-linecap: square"/>
   </g>
   <g id="line2d_9">
    <path d="M 310.083261 249.566474 
L 331.947747 272.207812 
L 301.40753 279.822343 
L 310.083261 249.566474 
" clip-path="url(#p5a2ea6bbdc)" style="fill: none; stroke: #c82227; stroke-width: 1.5; stroke-linecap: square"/>
   </g>
   <g id="line2d_10">
    <path d="M 308.84446 247.547113 
L 334.315965 272.144659 
L 300.278112 281.904857 
L 308.84446 247.547113 
" clip-path="url(#p5a2ea6bbdc)" style="fill: none; stroke: #cc2627; stroke-width: 1.5; stroke-linecap: square"/>
   </g>
   <g id="line2d_11">
    <path d="M 307.460117 245.595396 
L 336.698373 271.921641 
L 299.280048 284.079591 
L 307.460117 245.595396 
" clip-path="url(#p5a2ea6bbdc)" style="fill: none; stroke: #d22b27; stroke-width: 1.5; stroke-linecap: square"/>
   </g>
   <g id="line2d_12">
    <path d="M 305.933535 243.718995 
L 339.086675 271.537783 
L 298.418328 286.33985 
L 305.933535 243.718995 
" clip-path="url(#p5a2ea6bbdc)" style="fill: none; stroke: #d62f27; stroke-width: 1.5; stroke-linecap: square"/>
   </g>
   <g id="line2d_13">
    <path d="M 304.268377 241.925428 
L 341.472528 270.992497 
L 297.697633 288.678703 
L 304.268377 241.925428 
" clip-path="url(#p5a2ea6bbdc)" style="fill: none; stroke: #da362a; stroke-width: 1.5; stroke-linecap: square"/>
   </g>
   <g id="line2d_14">
    <path d="M 302.468655 240.222047 
L 343.847561 270.285582 
L 297.122322 291.088999 
L 302.468655 240.222047 
" clip-path="url(#p5a2ea6bbdc)" style="fill: none; stroke: #dd3d2d; stroke-width: 1.5; stroke-linecap: square"/>
   </g>
   <g id="line2d_15">
    <path d="M 300.538723 238.616021 
L 346.203386 269.417226 
L 296.696429 293.563382 
L 300.538723 238.616021 
" clip-path="url(#p5a2ea6bbdc)" style="fill: none; stroke: #e0422f; stroke-width: 1.5; stroke-linecap: square"/>
   </g>
   <g id="line2d_16">
    <path d="M 298.483272 237.114323 
L 348.531621 268.388002 
L 296.423645 296.094304 
L 298.483272 237.114323 
" clip-path="url(#p5a2ea6bbdc)" style="fill: none; stroke: #e34933; stroke-width: 1.5; stroke-linecap: square"/>
   </g>
   <g id="line2d_17">
    <path d="M 296.307318 235.723712 
L 350.823901 267.198876 
L 296.307318 298.67404 
L 296.307318 235.723712 
" clip-path="url(#p5a2ea6bbdc)" style="fill: none; stroke: #e54e35; stroke-width: 1.5; stroke-linecap: square"/>
   </g>
   <g id="line2d_18">
    <path d="M 294.016196 234.450725 
L 353.071902 265.8512 
L 296.35044 301.294704 
L 294.016196 234.450725 
" clip-path="url(#p5a2ea6bbdc)" style="fill: none; stroke: #e95538; stroke-width: 1.5; stroke-linecap: square"/>
   </g>
   <g id="line2d_19">
    <path d="M 291.615548 233.301654 
L 355.26735 264.346713 
L 296.55564 303.948261 
L 291.615548 233.301654 
" clip-path="url(#p5a2ea6bbdc)" style="fill: none; stroke: #eb5a3a; stroke-width: 1.5; stroke-linecap: square"/>
   </g>
   <g id="line2d_20">
    <path d="M 289.111312 232.282543 
L 357.402045 262.687536 
L 296.925182 306.626549 
L 289.111312 232.282543 
" clip-path="url(#p5a2ea6bbdc)" style="fill: none; stroke: #ee613e; stroke-width: 1.5; stroke-linecap: square"/>
   </g>
   <g id="line2d_21">
    <path d="M 286.509713 231.399165 
L 359.467872 260.876175 
L 297.460953 309.321289 
L 286.509713 231.399165 
" clip-path="url(#p5a2ea6bbdc)" style="fill: none; stroke: #f26841; stroke-width: 1.5; stroke-linecap: square"/>
   </g>
   <g id="line2d_22">
    <path d="M 283.817252 230.657016 
L 361.456822 258.915509 
L 298.164464 312.024103 
L 283.817252 230.657016 
" clip-path="url(#p5a2ea6bbdc)" style="fill: none; stroke: #f46d43; stroke-width: 1.5; stroke-linecap: square"/>
   </g>
   <g id="line2d_23">
    <path d="M 281.040691 230.061303 
L 363.361005 256.808794 
L 299.036841 314.726532 
L 281.040691 230.061303 
" clip-path="url(#p5a2ea6bbdc)" style="fill: none; stroke: #f57547; stroke-width: 1.5; stroke-linecap: square"/>
   </g>
   <g id="line2d_24">
    <path d="M 278.187045 229.616926 
L 365.17267 254.559653 
L 300.078823 317.42005 
L 278.187045 229.616926 
" clip-path="url(#p5a2ea6bbdc)" style="fill: none; stroke: #f67a49; stroke-width: 1.5; stroke-linecap: square"/>
   </g>
   <g id="line2d_25">
    <path d="M 275.263565 229.328475 
L 366.884216 252.172069 
L 301.290758 320.096084 
L 275.263565 229.328475 
" clip-path="url(#p5a2ea6bbdc)" style="fill: none; stroke: #f7814c; stroke-width: 1.5; stroke-linecap: square"/>
   </g>
   <g id="line2d_26">
    <path d="M 272.277725 229.200216 
L 368.488212 249.650386 
L 302.672601 322.746027 
L 272.277725 229.200216 
" clip-path="url(#p5a2ea6bbdc)" style="fill: none; stroke: #f88950; stroke-width: 1.5; stroke-linecap: square"/>
   </g>
   <g id="line2d_27">
    <path d="M 269.23721 229.236077 
L 369.977413 246.999293 
L 304.223915 325.361259 
L 269.23721 229.236077 
" clip-path="url(#p5a2ea6bbdc)" style="fill: none; stroke: #f98e52; stroke-width: 1.5; stroke-linecap: square"/>
   </g>
   <g id="line2d_28">
    <path d="M 266.149902 229.439646 
L 371.34477 244.223821 
L 305.943866 327.933161 
L 266.149902 229.439646 
" clip-path="url(#p5a2ea6bbdc)" style="fill: none; stroke: #fa9656; stroke-width: 1.5; stroke-linecap: square"/>
   </g>
   <g id="line2d_29">
    <path d="M 263.023864 229.814159 
L 372.583452 241.329336 
L 307.831222 330.453134 
L 263.023864 229.814159 
" clip-path="url(#p5a2ea6bbdc)" style="fill: none; stroke: #fa9b58; stroke-width: 1.5; stroke-linecap: square"/>
   </g>
   <g id="line2d_30">
    <path d="M 259.867322 230.362489 
L 373.686855 238.321526 
L 309.88436 332.912614 
L 259.867322 230.362489 
" clip-path="url(#p5a2ea6bbdc)" style="fill: none; stroke: #fba35c; stroke-width: 1.5; stroke-linecap: square"/>
   </g>
   <g id="line2d_31">
    <path d="M 256.688657 231.087142 
L 374.64862 235.206394 
L 312.101261 335.303092 
L 256.688657 231.087142 
" clip-path="url(#p5a2ea6bbdc)" style="fill: none; stroke: #fca85e; stroke-width: 1.5; stroke-linecap: square"/>
   </g>
   <g id="line2d_32">
    <path d="M 253.496383 231.99025 
L 375.462643 231.99025 
L 314.479513 337.616129 
L 253.496383 231.99025 
" clip-path="url(#p5a2ea6bbdc)" style="fill: none; stroke: #fdaf62; stroke-width: 1.5; stroke-linecap: square"/>
   </g>
   <g id="line2d_33">
    <path d="M 250.299132 233.073562 
L 376.123092 228.679693 
L 317.016314 339.843373 
L 250.299132 233.073562 
" clip-path="url(#p5a2ea6bbdc)" style="fill: none; stroke: #fdb567; stroke-width: 1.5; stroke-linecap: square"/>
   </g>
   <g id="line2d_34">
    <path d="M 247.10564 234.338443 
L 376.624419 225.281607 
L 319.708479 341.976578 
L 247.10564 234.338443 
" clip-path="url(#p5a2ea6bbdc)" style="fill: none; stroke: #fdb96b; stroke-width: 1.5; stroke-linecap: square"/>
   </g>
   <g id="line2d_35">
    <path d="M 243.924729 235.785863 
L 376.961372 221.803148 
L 322.552437 344.007618 
L 243.924729 235.785863 
" clip-path="url(#p5a2ea6bbdc)" style="fill: none; stroke: #fdbf71; stroke-width: 1.5; stroke-linecap: square"/>
   </g>
   <g id="line2d_36">
    <path d="M 240.76529 237.416397 
L 377.129008 218.251726 
L 325.54424 345.928505 
L 240.76529 237.416397 
" clip-path="url(#p5a2ea6bbdc)" style="fill: none; stroke: #fdc374; stroke-width: 1.5; stroke-linecap: square"/>
   </g>
   <g id="line2d_37">
    <path d="M 237.636267 239.230222 
L 377.122701 214.635 
L 328.679571 347.731407 
L 237.636267 239.230222 
" clip-path="url(#p5a2ea6bbdc)" style="fill: none; stroke: #fec87a; stroke-width: 1.5; stroke-linecap: square"/>
   </g>
   <g id="line2d_38">
    <path d="M 234.546637 241.227111 
L 376.938159 210.960858 
L 331.953742 349.408659 
L 234.546637 241.227111 
" clip-path="url(#p5a2ea6bbdc)" style="fill: none; stroke: #fece7f; stroke-width: 1.5; stroke-linecap: square"/>
   </g>
   <g id="line2d_39">
    <path d="M 231.5054 243.406432 
L 376.57143 207.237408 
L 335.361708 350.952788 
L 231.5054 243.406432 
" clip-path="url(#p5a2ea6bbdc)" style="fill: none; stroke: #fed283; stroke-width: 1.5; stroke-linecap: square"/>
   </g>
   <g id="line2d_40">
    <path d="M 228.52155 245.767149 
L 376.018914 203.472961 
L 338.898074 352.356519 
L 228.52155 245.767149 
" clip-path="url(#p5a2ea6bbdc)" style="fill: none; stroke: #fed889; stroke-width: 1.5; stroke-linecap: square"/>
   </g>
   <g id="line2d_41">
    <path d="M 225.604071 248.307818 
L 375.27737 199.676015 
L 342.557097 353.612795 
L 225.604071 248.307818 
" clip-path="url(#p5a2ea6bbdc)" style="fill: none; stroke: #fedc8c; stroke-width: 1.5; stroke-linecap: square"/>
   </g>
   <g id="line2d_42">
    <path d="M 222.761909 251.026588 
L 374.343927 195.855245 
L 346.332702 354.714795 
L 222.761909 251.026588 
" clip-path="url(#p5a2ea6bbdc)" style="fill: none; stroke: #fee192; stroke-width: 1.5; stroke-linecap: square"/>
   </g>
   <g id="line2d_43">
    <path d="M 220.003958 253.921203 
L 373.216093 192.019482 
L 350.218488 355.655943 
L 220.003958 253.921203 
" clip-path="url(#p5a2ea6bbdc)" style="fill: none; stroke: #fee597; stroke-width: 1.5; stroke-linecap: square"/>
   </g>
   <g id="line2d_44">
    <path d="M 217.339045 256.989002 
L 371.891757 188.177701 
L 354.207736 356.429926 
L 217.339045 256.989002 
" clip-path="url(#p5a2ea6bbdc)" style="fill: none; stroke: #fee79b; stroke-width: 1.5; stroke-linecap: square"/>
   </g>
   <g id="line2d_45">
    <path d="M 214.77591 260.226921 
L 370.369204 184.339001 
L 358.293424 357.030707 
L 214.77591 260.226921 
" clip-path="url(#p5a2ea6bbdc)" style="fill: none; stroke: #feeba1; stroke-width: 1.5; stroke-linecap: square"/>
   </g>
   <g id="line2d_46">
    <path d="M 212.323188 263.631499 
L 368.647114 180.512593 
L 362.468235 357.452537 
L 212.323188 263.631499 
" clip-path="url(#p5a2ea6bbdc)" style="fill: none; stroke: #feeda4; stroke-width: 1.5; stroke-linecap: square"/>
   </g>
   <g id="line2d_47">
    <path d="M 209.989395 267.198876 
L 366.724571 176.70778 
L 366.724571 357.689972 
L 209.989395 267.198876 
" clip-path="url(#p5a2ea6bbdc)" style="fill: none; stroke: #fff1aa; stroke-width: 1.5; stroke-linecap: square"/>
   </g>
   <g id="line2d_48">
    <path d="M 207.782907 270.924804 
L 364.601067 172.933942 
L 371.054563 357.737883 
L 207.782907 270.924804 
" clip-path="url(#p5a2ea6bbdc)" style="fill: none; stroke: #fff3ad; stroke-width: 1.5; stroke-linecap: square"/>
   </g>
   <g id="line2d_49">
    <path d="M 205.711946 274.804645 
L 362.276507 169.200516 
L 375.450085 357.591467 
L 205.711946 274.804645 
" clip-path="url(#p5a2ea6bbdc)" style="fill: none; stroke: #fff7b3; stroke-width: 1.5; stroke-linecap: square"/>
   </g>
   <g id="line2d_50">
    <path d="M 203.784561 278.833384 
L 359.751209 165.516982 
L 379.902768 357.246262 
L 203.784561 278.833384 
" clip-path="url(#p5a2ea6bbdc)" style="fill: none; stroke: #fffbb9; stroke-width: 1.5; stroke-linecap: square"/>
   </g>
   <g id="line2d_51">
    <path d="M 202.008614 283.00563 
L 357.025911 161.892844 
L 384.404012 356.698155 
L 202.008614 283.00563 
" clip-path="url(#p5a2ea6bbdc)" style="fill: none; stroke: #fffdbc; stroke-width: 1.5; stroke-linecap: square"/>
   </g>
   <g id="line2d_52">
    <path d="M 200.391761 287.315625 
L 354.101773 158.337611 
L 388.945004 355.943393 
L 200.391761 287.315625 
" clip-path="url(#p5a2ea6bbdc)" style="fill: none; stroke: #fdfec2; stroke-width: 1.5; stroke-linecap: square"/>
   </g>
   <g id="line2d_53">
    <path d="M 198.941439 291.757252 
L 350.980372 154.860781 
L 393.516727 354.978595 
L 198.941439 291.757252 
" clip-path="url(#p5a2ea6bbdc)" style="fill: none; stroke: #fbfdc7; stroke-width: 1.5; stroke-linecap: square"/>
   </g>
   <g id="line2d_54">
    <path d="M 197.664846 296.324044 
L 347.663711 151.471824 
L 398.109981 353.800761 
L 197.664846 296.324044 
" clip-path="url(#p5a2ea6bbdc)" style="fill: none; stroke: #f7fcce; stroke-width: 1.5; stroke-linecap: square"/>
   </g>
   <g id="line2d_55">
    <path d="M 196.568931 301.009191 
L 344.154212 148.180159 
L 402.715396 352.407278 
L 196.568931 301.009191 
" clip-path="url(#p5a2ea6bbdc)" style="fill: none; stroke: #f3fbd4; stroke-width: 1.5; stroke-linecap: square"/>
   </g>
   <g id="line2d_56">
    <path d="M 195.660374 305.805555 
L 340.454718 144.995144 
L 407.323446 350.79593 
L 195.660374 305.805555 
" clip-path="url(#p5a2ea6bbdc)" style="fill: none; stroke: #f1fad9; stroke-width: 1.5; stroke-linecap: square"/>
   </g>
   <g id="line2d_57">
    <path d="M 194.945574 310.705672 
L 336.568492 141.926051 
L 411.924472 348.964906 
L 194.945574 310.705672 
" clip-path="url(#p5a2ea6bbdc)" style="fill: none; stroke: #edf8df; stroke-width: 1.5; stroke-linecap: square"/>
   </g>
   <g id="line2d_58">
    <path d="M 194.430636 315.701771 
L 332.499212 138.982052 
L 416.50869 346.912806 
L 194.430636 315.701771 
" clip-path="url(#p5a2ea6bbdc)" style="fill: none; stroke: #ebf7e4; stroke-width: 1.5; stroke-linecap: square"/>
   </g>
   <g id="line2d_59">
    <path d="M 194.121352 320.785782 
L 328.250971 136.172199 
L 421.066214 344.638648 
L 194.121352 320.785782 
" clip-path="url(#p5a2ea6bbdc)" style="fill: none; stroke: #e7f6eb; stroke-width: 1.5; stroke-linecap: square"/>
   </g>
   <g id="line2d_60">
    <path d="M 194.023195 325.949348 
L 323.828271 133.505409 
L 425.587073 342.141872 
L 194.023195 325.949348 
" clip-path="url(#p5a2ea6bbdc)" style="fill: none; stroke: #e5f5ef; stroke-width: 1.5; stroke-linecap: square"/>
   </g>
   <g id="line2d_61">
    <path d="M 194.141298 331.18384 
L 319.236016 130.990444 
L 430.061224 339.422345 
L 194.141298 331.18384 
" clip-path="url(#p5a2ea6bbdc)" style="fill: none; stroke: #e1f3f6; stroke-width: 1.5; stroke-linecap: square"/>
   </g>
   <g id="line2d_62">
    <path d="M 194.48045 336.480367 
L 314.479513 128.635894 
L 434.478575 336.480367 
L 194.48045 336.480367 
" clip-path="url(#p5a2ea6bbdc)" style="fill: none; stroke: #dcf1f7; stroke-width: 1.5; stroke-linecap: square"/>
   </g>
   <g id="line2d_63">
    <path d="M 195.045078 341.829794 
L 309.564459 126.450163 
L 438.829001 333.316672 
L 195.045078 341.829794 
" clip-path="url(#p5a2ea6bbdc)" style="fill: none; stroke: #d8eff6; stroke-width: 1.5; stroke-linecap: square"/>
   </g>
   <g id="line2d_64">
    <path d="M 195.839237 347.222753 
L 304.496941 124.441445 
L 443.102361 329.932431 
L 195.839237 347.222753 
" clip-path="url(#p5a2ea6bbdc)" style="fill: none; stroke: #d1ecf4; stroke-width: 1.5; stroke-linecap: square"/>
   </g>
   <g id="line2d_65">
    <path d="M 196.8666 352.649659 
L 299.28342 122.617715 
L 447.288517 326.329255 
L 196.8666 352.649659 
" clip-path="url(#p5a2ea6bbdc)" style="fill: none; stroke: #cdeaf3; stroke-width: 1.5; stroke-linecap: square"/>
   </g>
   <g id="line2d_66">
    <path d="M 198.130451 358.100726 
L 293.930732 120.986708 
L 451.377355 322.509195 
L 198.130451 358.100726 
" clip-path="url(#p5a2ea6bbdc)" style="fill: none; stroke: #c7e7f1; stroke-width: 1.5; stroke-linecap: square"/>
   </g>
   <g id="line2d_67">
    <path d="M 199.633668 363.565982 
L 288.446073 119.555904 
L 455.358797 318.474742 
L 199.633668 363.565982 
" clip-path="url(#p5a2ea6bbdc)" style="fill: none; stroke: #c1e4ef; stroke-width: 1.5; stroke-linecap: square"/>
   </g>
   <g id="line2d_68">
    <path d="M 201.378721 369.035287 
L 282.83699 118.332512 
L 459.222827 314.22883 
L 201.378721 369.035287 
" clip-path="url(#p5a2ea6bbdc)" style="fill: none; stroke: #bde2ee; stroke-width: 1.5; stroke-linecap: square"/>
   </g>
   <g id="line2d_69">
    <path d="M 203.36766 374.498345 
L 277.111373 117.323455 
L 462.959505 309.774829 
L 203.36766 374.498345 
" clip-path="url(#p5a2ea6bbdc)" style="fill: none; stroke: #b6dfec; stroke-width: 1.5; stroke-linecap: square"/>
   </g>
   <g id="line2d_70">
    <path d="M 205.602111 379.944726 
L 271.277443 116.535355 
L 466.558984 305.116547 
L 205.602111 379.944726 
" clip-path="url(#p5a2ea6bbdc)" style="fill: none; stroke: #b2ddeb; stroke-width: 1.5; stroke-linecap: square"/>
   </g>
   <g id="line2d_71">
    <path d="M 208.083263 385.363883 
L 265.34374 115.974518 
L 470.011535 300.258228 
L 208.083263 385.363883 
" clip-path="url(#p5a2ea6bbdc)" style="fill: none; stroke: #acdae9; stroke-width: 1.5; stroke-linecap: square"/>
   </g>
   <g id="line2d_72">
    <path d="M 210.811868 390.745164 
L 259.319111 115.646919 
L 473.307559 295.204546 
L 210.811868 390.745164 
" clip-path="url(#p5a2ea6bbdc)" style="fill: none; stroke: #a6d5e7; stroke-width: 1.5; stroke-linecap: square"/>
   </g>
   <g id="line2d_73">
    <path d="M 213.788233 396.077837 
L 253.212698 115.558189 
L 476.437607 289.960602 
L 213.788233 396.077837 
" clip-path="url(#p5a2ea6bbdc)" style="fill: none; stroke: #a1d1e5; stroke-width: 1.5; stroke-linecap: square"/>
   </g>
   <g id="line2d_74">
    <path d="M 217.012214 401.351104 
L 247.033925 115.713605 
L 479.3924 284.531919 
L 217.012214 401.351104 
" clip-path="url(#p5a2ea6bbdc)" style="fill: none; stroke: #9bcce2; stroke-width: 1.5; stroke-linecap: square"/>
   </g>
   <g id="line2d_75">
    <path d="M 220.483213 406.554121 
L 240.79248 116.11807 
L 482.162845 278.924437 
L 220.483213 406.554121 
" clip-path="url(#p5a2ea6bbdc)" style="fill: none; stroke: #97c9e0; stroke-width: 1.5; stroke-linecap: square"/>
   </g>
   <g id="line2d_76">
    <path d="M 224.200177 411.676015 
L 234.498308 116.776108 
L 484.740053 273.144505 
L 224.200177 411.676015 
" clip-path="url(#p5a2ea6bbdc)" style="fill: none; stroke: #90c3dd; stroke-width: 1.5; stroke-linecap: square"/>
   </g>
   <g id="line2d_77">
    <path d="M 228.16159 416.705905 
L 228.16159 117.691848 
L 487.115359 267.198876 
L 228.16159 416.705905 
" clip-path="url(#p5a2ea6bbdc)" style="fill: none; stroke: #8cc0db; stroke-width: 1.5; stroke-linecap: square"/>
   </g>
   <g id="line2d_78">
    <path d="M 232.365476 421.632918 
L 221.792728 118.869014 
L 489.280334 261.094697 
L 232.365476 421.632918 
" clip-path="url(#p5a2ea6bbdc)" style="fill: none; stroke: #85bbd9; stroke-width: 1.5; stroke-linecap: square"/>
   </g>
   <g id="line2d_79">
    <path d="M 236.809397 426.446212 
L 215.402332 120.310915 
L 491.226809 254.839501 
L 236.809397 426.446212 
" clip-path="url(#p5a2ea6bbdc)" style="fill: none; stroke: #7fb6d6; stroke-width: 1.5; stroke-linecap: square"/>
   </g>
   <g id="line2d_80">
    <path d="M 241.490452 431.134991 
L 209.001203 122.020438 
L 492.946884 248.4412 
L 241.490452 431.134991 
" clip-path="url(#p5a2ea6bbdc)" style="fill: none; stroke: #7ab2d4; stroke-width: 1.5; stroke-linecap: square"/>
   </g>
   <g id="line2d_81">
    <path d="M 246.405275 435.688528 
L 202.600313 124.000031 
L 494.432951 241.90807 
L 246.405275 435.688528 
" clip-path="url(#p5a2ea6bbdc)" style="fill: none; stroke: #74add1; stroke-width: 1.5; stroke-linecap: square"/>
   </g>
   <g id="line2d_82">
    <path d="M 251.550041 440.09618 
L 196.210791 126.251703 
L 495.677706 235.248746 
L 251.550041 440.09618 
" clip-path="url(#p5a2ea6bbdc)" style="fill: none; stroke: #70a9cf; stroke-width: 1.5; stroke-linecap: square"/>
   </g>
   <g id="line2d_83">
    <path d="M 256.920465 444.34741 
L 189.843906 128.777011 
L 496.674168 228.472207 
L 256.920465 444.34741 
" clip-path="url(#p5a2ea6bbdc)" style="fill: none; stroke: #6ba2cb; stroke-width: 1.5; stroke-linecap: square"/>
   </g>
   <g id="line2d_84">
    <path d="M 262.511806 448.431807 
L 183.511044 131.577056 
L 497.415689 221.587765 
L 262.511806 448.431807 
" clip-path="url(#p5a2ea6bbdc)" style="fill: none; stroke: #659bc8; stroke-width: 1.5; stroke-linecap: square"/>
   </g>
   <g id="line2d_85">
    <path d="M 268.31887 452.339102 
L 177.223695 134.652474 
L 497.895973 214.605052 
L 268.31887 452.339102 
" clip-path="url(#p5a2ea6bbdc)" style="fill: none; stroke: #6297c6; stroke-width: 1.5; stroke-linecap: square"/>
   </g>
   <g id="line2d_86">
    <path d="M 274.336014 456.059189 
L 170.993433 138.00343 
L 498.109091 207.534009 
L 274.336014 456.059189 
" clip-path="url(#p5a2ea6bbdc)" style="fill: none; stroke: #5c90c2; stroke-width: 1.5; stroke-linecap: square"/>
   </g>
   <g id="line2d_87">
    <path d="M 280.557152 459.582143 
L 164.831896 141.629617 
L 498.04949 200.384869 
L 280.557152 459.582143 
" clip-path="url(#p5a2ea6bbdc)" style="fill: none; stroke: #588cc0; stroke-width: 1.5; stroke-linecap: square"/>
   </g>
   <g id="line2d_88">
    <path d="M 286.975761 462.89824 
L 158.750768 145.530246 
L 497.712009 193.168142 
L 286.975761 462.89824 
" clip-path="url(#p5a2ea6bbdc)" style="fill: none; stroke: #5385bd; stroke-width: 1.5; stroke-linecap: square"/>
   </g>
   <g id="line2d_89">
    <path d="M 293.584886 465.997973 
L 152.761758 149.70405 
L 497.091894 185.894606 
L 293.584886 465.997973 
" clip-path="url(#p5a2ea6bbdc)" style="fill: none; stroke: #4f81ba; stroke-width: 1.5; stroke-linecap: square"/>
   </g>
   <g id="line2d_90">
    <path d="M 300.377149 468.872073 
L 146.876583 154.149273 
L 496.184806 178.575283 
L 300.377149 468.872073 
" clip-path="url(#p5a2ea6bbdc)" style="fill: none; stroke: #4a7ab7; stroke-width: 1.5; stroke-linecap: square"/>
   </g>
   <g id="line2d_91">
    <path d="M 307.344758 471.511525 
L 141.106946 158.863673 
L 494.986834 171.221431 
L 307.344758 471.511525 
" clip-path="url(#p5a2ea6bbdc)" style="fill: none; stroke: #4574b3; stroke-width: 1.5; stroke-linecap: square"/>
   </g>
   <g id="line2d_92">
    <path d="M 314.479513 473.907587 
L 135.464518 163.844521 
L 493.494507 163.844521 
L 314.479513 473.907587 
" clip-path="url(#p5a2ea6bbdc)" style="fill: none; stroke: #436fb1; stroke-width: 1.5; stroke-linecap: square"/>
   </g>
   <g id="line2d_93">
    <path d="M 321.772818 476.051806 
L 129.960917 169.088599 
L 491.704803 156.456224 
L 321.772818 476.051806 
" clip-path="url(#p5a2ea6bbdc)" style="fill: none; stroke: #4167ad; stroke-width: 1.5; stroke-linecap: square"/>
   </g>
   <g id="line2d_94">
    <path d="M 329.21569 477.936037 
L 124.607689 174.5922 
L 489.615158 149.068392 
L 329.21569 477.936037 
" clip-path="url(#p5a2ea6bbdc)" style="fill: none; stroke: #3f62ab; stroke-width: 1.5; stroke-linecap: square"/>
   </g>
   <g id="line2d_95">
    <path d="M 336.798773 479.552457 
L 119.416287 180.351133 
L 487.223478 141.693039 
L 336.798773 479.552457 
" clip-path="url(#p5a2ea6bbdc)" style="fill: none; stroke: #3d5ba7; stroke-width: 1.5; stroke-linecap: square"/>
   </g>
   <g id="line2d_96">
    <path d="M 344.512345 480.893584 
L 114.398051 186.360718 
L 484.528142 134.342326 
L 344.512345 480.893584 
" clip-path="url(#p5a2ea6bbdc)" style="fill: none; stroke: #3a54a4; stroke-width: 1.5; stroke-linecap: square"/>
   </g>
   <g id="line2d_97">
    <path d="M 352.346334 481.952291 
L 109.56419 192.615798 
L 481.528015 127.02854 
L 352.346334 481.952291 
" clip-path="url(#p5a2ea6bbdc)" style="fill: none; stroke: #394fa1; stroke-width: 1.5; stroke-linecap: square"/>
   </g>
   <g id="line2d_98">
    <path d="M 360.290329 482.721822 
L 104.925759 199.110734 
L 478.22245 119.764073 
L 360.290329 482.721822 
" clip-path="url(#p5a2ea6bbdc)" style="fill: none; stroke: #36479e; stroke-width: 1.5; stroke-linecap: square"/>
   </g>
   <g id="line2d_99">
    <path d="M 368.333596 483.195807 
L 100.493642 205.839415 
L 474.6113 112.561407 
L 368.333596 483.195807 
" clip-path="url(#p5a2ea6bbdc)" style="fill: none; stroke: #35429b; stroke-width: 1.5; stroke-linecap: square"/>
   </g>
   <g id="line2d_100">
    <path d="M 376.465091 483.368276 
L 96.278532 212.795261 
L 470.694916 105.433091 
L 376.465091 483.368276 
" clip-path="url(#p5a2ea6bbdc)" style="fill: none; stroke: #333b97; stroke-width: 1.5; stroke-linecap: square"/>
   </g>
   <g id="line2d_101">
    <path d="M 384.673474 483.233674 
L 92.290909 219.971231 
L 466.474155 98.391724 
L 384.673474 483.233674 
" clip-path="url(#p5a2ea6bbdc)" style="fill: none; stroke: #313695; stroke-width: 1.5; stroke-linecap: square"/>
   </g>
  </g>
 </g>
 <defs>
  <clipPath id="p5a2ea6bbdc">
   <rect x="72" y="79.142896" width="446.4" height="423.474208"/>
  </clipPath>
 </defs>
</svg>
