<?xml version="1.0" encoding="utf-8" standalone="no"?>
<!DOCTYPE svg PUBLIC "-//W3C//DTD SVG 1.1//EN"
  "http://www.w3.org/Graphics/SVG/1.1/DTD/svg11.dtd">
<svg xmlns:xlink="http://www.w3.org/1999/xlink" width="576pt" height="576pt" viewBox="0 0 576 576" xmlns="http://www.w3.org/2000/svg" version="1.1">
 <metadata>
  <rdf:RDF xmlns:dc="http://purl.org/dc/elements/1.1/" xmlns:cc="http://creativecommons.org/ns#" xmlns:rdf="http://www.w3.org/1999/02/22-rdf-syntax-ns#">
   <cc:Work>
    <dc:type rdf:resource="http://purl.org/dc/dcmitype/StillImage"/>
    <dc:date>2025-12-03T15:05:30.979283</dc:date>
    <dc:format>image/svg+xml</dc:format>
    <dc:creator>
     <cc:Agent>
      <dc:title>Matplotlib v3.10.6, https://matplotlib.org/</dc:title>
     </cc:Agent>
    </dc:creator>
   </cc:Work>
  </rdf:RDF>
 </metadata>
 <defs>
  <style type="text/css">*{stroke-linejoin: round; stroke-linecap: butt}</style>
 </defs>
 <g id="figure_1">
  <g id="patch_1">
   <path d="M 0 576 
L 576 576 
L 576 0 
L 0 0 
z
" style="fill: #ffffff"/>
  </g>
  <g id="axes_1">
   <g id="patch_2">
    <path d="M 295.2 492.48 
C 321.932472 492.48 347.573651 481.859076 366.476364 462.956364 
C 385.379076 444.053651 396 418.412472 396 391.68 
C 396 364.947528 385.379076 339.306349 366.476364 320.403636 
C 347.573651 301.500924 321.932472 290.88 295.2 290.88 
C 268.467528 290.88 242.826349 301.500924 223.923636 320.403636 
C 205.020924 339.306349 194.4 364.947528 194.4 391.68 
C 194.4 418.412472 205.020924 444.053651 223.923636 462.956364 
C 242.826349 481.859076 268.467528 492.48 295.2 492.48 
L 295.2 492.48 
z
" clip-path="url(#p9514a50476)" style="fill: none; stroke: #ff0000; stroke-linejoin: miter"/>
   </g>
   <g id="patch_3">
    <path d="M 307.858569 492.082188 
C 334.538291 490.403643 359.461979 478.193654 377.14048 458.14133 
C 394.818981 438.089007 403.808924 411.831532 402.130379 385.15181 
C 400.451833 358.472088 388.241844 333.5484 368.18952 315.869898 
C 348.137197 298.191397 321.879722 289.201454 295.2 290.88 
C 268.520278 292.558546 243.59659 304.768535 225.918089 324.820858 
C 208.239587 344.873182 199.249644 371.130657 200.92819 397.810379 
C 202.606736 424.490101 214.816725 449.413789 234.869048 467.09229 
C 254.921372 484.770791 281.178847 493.760734 307.858569 492.082188 
L 307.858569 492.082188 
z
" clip-path="url(#p9514a50476)" style="fill: none; stroke: #ff0c00; stroke-linejoin: miter"/>
   </g>
   <g id="patch_4">
    <path d="M 320.46718 490.890324 
C 346.988859 487.539857 371.096694 473.78899 387.481215 452.666193 
C 403.865736 431.543396 411.189219 404.773251 407.838752 378.251572 
C 404.488285 351.729893 390.737418 327.622058 369.614621 311.237537 
C 348.491824 294.853016 321.721679 287.529533 295.2 290.88 
C 268.678321 294.230467 244.570486 307.981334 228.185965 329.104131 
C 211.801444 350.226928 204.477961 376.997073 207.828428 403.518752 
C 211.178895 430.040431 224.929762 454.148266 246.052559 470.532787 
C 267.175356 486.917308 293.945501 494.240791 320.46718 490.890324 
L 320.46718 490.890324 
z
" clip-path="url(#p9514a50476)" style="fill: none; stroke: #ff1e00; stroke-linejoin: miter"/>
   </g>
   <g id="patch_5">
    <path d="M 332.976073 488.90911 
C 359.23504 483.899944 382.43188 468.662468 397.457758 446.552559 
C 412.483637 424.442651 418.111757 397.265485 413.102591 371.006518 
C 408.093426 344.747551 392.85595 321.550711 370.746041 306.524833 
C 348.636132 291.498955 321.458967 285.870834 295.2 290.88 
C 268.941033 295.889166 245.744193 311.126642 230.718315 333.23655 
C 215.692436 355.346459 210.064316 382.523624 215.073482 408.782591 
C 220.082647 435.041558 235.320123 458.238398 257.430032 473.264277 
C 279.539941 488.290155 306.717106 493.918276 332.976073 488.90911 
L 332.976073 488.90911 
z
" clip-path="url(#p9514a50476)" style="fill: none; stroke: #ff2900; stroke-linejoin: miter"/>
   </g>
   <g id="patch_6">
    <path d="M 345.335881 486.146365 
C 371.228504 479.49827 393.422801 462.83432 407.030737 439.824557 
C 420.638673 416.814795 424.549219 389.337865 417.901123 363.445242 
C 411.253028 337.552619 394.589078 315.358322 371.579315 301.750386 
C 348.569553 288.142451 321.092623 284.231904 295.2 290.88 
C 269.307377 297.528096 247.11308 314.192045 233.505144 337.201808 
C 219.897209 360.21157 215.986662 387.688501 222.634758 413.581123 
C 229.282854 439.473746 245.946803 461.668043 268.956566 475.275979 
C 291.966328 488.883915 319.443259 492.794461 345.335881 486.146365 
L 345.335881 486.146365 
z
" clip-path="url(#p9514a50476)" style="fill: none; stroke: #ff3b00; stroke-linejoin: miter"/>
   </g>
   <g id="patch_7">
    <path d="M 357.497826 482.612994 
C 382.921918 474.352205 404.026082 456.327547 416.162371 432.508739 
C 428.298659 408.689932 430.476198 381.021676 422.21541 355.597584 
C 413.954622 330.173492 395.929963 309.069328 372.111155 296.933039 
C 348.292348 284.796751 320.624092 282.619212 295.2 290.88 
C 269.775908 299.140788 248.671744 317.165447 236.535455 340.984254 
C 224.399167 364.803062 222.221628 392.471318 230.482416 417.89541 
C 238.743204 443.319502 256.767863 464.423666 280.586671 476.559954 
C 304.405478 488.696243 332.073734 490.873782 357.497826 482.612994 
L 357.497826 482.612994 
z
" clip-path="url(#p9514a50476)" style="fill: none; stroke: #ff4700; stroke-linejoin: miter"/>
   </g>
   <g id="patch_8">
    <path d="M 369.41391 478.32294 
C 394.269134 468.48206 414.199876 449.167827 424.816621 424.633977 
C 435.433366 400.100127 435.869304 372.349739 426.028425 347.494515 
C 416.187545 322.639291 396.873313 302.708549 372.339462 292.091804 
C 347.805612 281.475058 320.055224 281.039121 295.2 290.88 
C 270.344776 300.720879 250.414034 320.035112 239.797289 344.568962 
C 229.180544 369.102813 228.744606 396.8532 238.585485 421.708425 
C 248.426365 446.563649 267.740597 466.494391 292.274448 477.111136 
C 316.808298 487.727881 344.558685 488.163819 369.41391 478.32294 
L 369.41391 478.32294 
z
" clip-path="url(#p9514a50476)" style="fill: none; stroke: #ff5900; stroke-linejoin: miter"/>
   </g>
   <g id="patch_9">
    <path d="M 381.037105 473.293134 
C 405.225369 461.911001 423.904032 441.383419 432.959334 416.231349 
C 442.014636 391.07928 440.707253 363.356279 429.325119 339.168014 
C 417.942986 314.97975 397.415404 296.301088 372.263335 287.245785 
C 347.111266 278.190483 319.388264 279.497867 295.2 290.88 
C 271.011736 302.262133 252.333073 322.789715 243.277771 347.941785 
C 234.222469 373.093854 235.529853 400.816855 246.911986 425.005119 
C 258.294119 449.193384 278.821701 467.872046 303.97377 476.927348 
C 329.125839 485.982651 356.848841 484.675267 381.037105 473.293134 
L 381.037105 473.293134 
z
" clip-path="url(#p9514a50476)" style="fill: none; stroke: #ff6a00; stroke-linejoin: miter"/>
   </g>
   <g id="patch_10">
    <path d="M 392.321541 467.543427 
C 415.747385 454.66496 433.100252 433.005041 440.558374 407.334017 
C 448.016496 381.662992 444.970951 354.076787 432.092484 330.650943 
C 419.214017 307.225099 397.554098 289.872232 371.883074 282.41411 
C 346.212049 274.955988 318.625844 278.001533 295.2 290.88 
C 271.774156 303.758467 254.421289 325.418385 246.963167 351.08941 
C 239.505045 376.760434 242.55059 404.346639 255.429057 427.772484 
C 268.307524 451.198328 289.967442 468.551195 315.638467 476.009317 
C 341.309491 483.467439 368.895696 480.421894 392.321541 467.543427 
L 392.321541 467.543427 
z
" clip-path="url(#p9514a50476)" style="fill: none; stroke: #ff7600; stroke-linejoin: miter"/>
   </g>
   <g id="patch_11">
    <path d="M 403.222682 461.09651 
C 425.793655 446.772535 441.752242 424.065762 447.583751 397.977094 
C 453.415259 371.888426 448.643571 344.547887 434.319596 321.976914 
C 419.995621 299.405941 397.288848 283.447353 371.20018 277.615845 
C 345.111512 271.784337 317.770973 276.556025 295.2 290.88 
C 272.629027 305.203975 256.67044 327.910748 250.838931 353.999416 
C 245.007423 380.088084 249.779111 407.428623 264.103086 429.999596 
C 278.427061 452.570569 301.133834 468.529156 327.222502 474.360664 
C 353.31117 480.192173 380.651709 475.420485 403.222682 461.09651 
L 403.222682 461.09651 
z
" clip-path="url(#p9514a50476)" style="fill: none; stroke: #ff8800; stroke-linejoin: miter"/>
   </g>
   <g id="patch_12">
    <path d="M 413.697507 453.977826 
C 435.324531 438.264873 449.825858 414.600858 454.007738 388.197507 
C 458.189618 361.794156 451.71062 334.807184 435.997666 313.18016 
C 420.284713 291.553135 396.620699 277.051808 370.217348 272.869928 
C 343.813996 268.688048 316.827025 275.167047 295.2 290.88 
C 273.572975 306.592953 259.071649 330.256968 254.889769 356.660319 
C 250.707889 383.06367 257.186887 410.050642 272.89984 431.677666 
C 288.612793 453.304691 312.276808 467.806018 338.680159 471.987898 
C 365.083511 476.169778 392.070482 469.690779 413.697507 453.977826 
L 413.697507 453.977826 
z
" clip-path="url(#p9514a50476)" style="fill: none; stroke: #ff9400; stroke-linejoin: miter"/>
   </g>
   <g id="patch_13">
    <path d="M 423.704676 446.21547 
C 444.3024 429.17555 457.289236 404.647686 459.804984 378.033853 
C 462.320732 351.42002 454.159992 324.893121 437.120073 304.295397 
C 420.080154 283.697673 395.552289 270.710837 368.938456 268.195089 
C 342.324623 265.679341 315.797724 273.840081 295.2 290.88 
C 274.602276 307.919919 261.61544 332.447784 259.099692 359.061617 
C 256.583944 385.67545 264.744684 412.202349 281.784603 432.800073 
C 298.824523 453.397797 323.352387 466.384633 349.96622 468.900381 
C 376.580053 471.416129 403.106952 463.255389 423.704676 446.21547 
L 423.704676 446.21547 
z
" clip-path="url(#p9514a50476)" style="fill: none; stroke: #ffa500; stroke-linejoin: miter"/>
   </g>
   <g id="patch_14">
    <path d="M 433.204697 437.840075 
C 452.69183 419.540439 464.112922 394.245524 464.95261 367.526242 
C 465.792297 340.806961 455.982023 314.844823 437.682386 295.357689 
C 419.382749 275.870556 394.087834 264.449464 367.368553 263.609776 
C 340.649271 262.770089 314.687134 272.580363 295.2 290.88 
C 275.712866 309.179637 264.291774 334.474552 263.452087 361.193833 
C 262.6124 387.913115 272.422674 413.875252 290.722311 433.362386 
C 309.021947 452.84952 334.316862 464.270612 361.036144 465.110299 
C 387.755425 465.949986 413.717563 456.139712 433.204697 437.840075 
L 433.204697 437.840075 
z
" clip-path="url(#p9514a50476)" style="fill: none; stroke: #ffb700; stroke-linejoin: miter"/>
   </g>
   <g id="patch_15">
    <path d="M 442.160075 428.884697 
C 460.459712 409.397563 470.269986 383.435425 469.430299 356.716144 
C 468.590612 329.996862 457.16952 304.701947 437.682386 286.402311 
C 418.195252 268.102674 392.233115 258.2924 365.513833 259.132087 
C 338.794552 259.971774 313.499637 271.392866 295.2 290.88 
C 276.900363 310.367134 267.090089 336.329271 267.929776 363.048553 
C 268.769464 389.767834 280.190556 415.062749 299.677689 433.362386 
C 319.164823 451.662023 345.126961 461.472297 371.846242 460.63261 
C 398.565524 459.792922 423.860439 448.37183 442.160075 428.884697 
L 442.160075 428.884697 
z
" clip-path="url(#p9514a50476)" style="fill: none; stroke: #ffc300; stroke-linejoin: miter"/>
   </g>
   <g id="patch_16">
    <path d="M 450.53547 419.384676 
C 467.575389 398.786952 475.736129 372.260053 473.220381 345.64622 
C 470.704633 319.032387 457.717797 294.504523 437.120073 277.464603 
C 416.522349 260.424684 389.99545 252.263944 363.381617 254.779692 
C 336.767784 257.29544 312.239919 270.282276 295.2 290.88 
C 278.160081 311.477724 269.999341 338.004623 272.515089 364.618456 
C 275.030837 391.232289 288.017673 415.760154 308.615397 432.800073 
C 329.213121 449.839992 355.74002 458.000732 382.353853 455.484984 
C 408.967686 452.969236 433.49555 439.9824 450.53547 419.384676 
L 450.53547 419.384676 
z
" clip-path="url(#p9514a50476)" style="fill: none; stroke: #ffd500; stroke-linejoin: miter"/>
   </g>
   <g id="patch_17">
    <path d="M 458.297826 409.377507 
C 474.010779 387.750482 480.489778 360.763511 476.307898 334.360159 
C 472.126018 307.956808 457.624691 284.292793 435.997666 268.57984 
C 414.370642 252.866887 387.38367 246.387889 360.980319 250.569769 
C 334.576968 254.751649 310.912953 269.252975 295.2 290.88 
C 279.487047 312.507025 273.008048 339.493996 277.189928 365.897348 
C 281.371808 392.300699 295.873135 415.964713 317.50016 431.677666 
C 339.127184 447.39062 366.114156 453.869618 392.517507 449.687738 
C 418.920858 445.505858 442.584873 431.004531 458.297826 409.377507 
L 458.297826 409.377507 
z
" clip-path="url(#p9514a50476)" style="fill: none; stroke: #ffe000; stroke-linejoin: miter"/>
   </g>
   <g id="patch_18">
    <path d="M 465.41651 398.902682 
C 479.740485 376.331709 484.512173 348.99117 478.680664 322.902502 
C 472.849156 296.813834 456.890569 274.107061 434.319596 259.783086 
C 411.748623 245.459111 384.408084 240.687423 358.319416 246.518931 
C 332.230748 252.35044 309.523975 268.309027 295.2 290.88 
C 280.876025 313.450973 276.104337 340.791512 281.935845 366.88018 
C 287.767353 392.968848 303.725941 415.675621 326.296914 429.999596 
C 348.867887 444.323571 376.208426 449.095259 402.297094 443.263751 
C 428.385762 437.432242 451.092535 421.473655 465.41651 398.902682 
L 465.41651 398.902682 
z
" clip-path="url(#p9514a50476)" style="fill: none; stroke: #fef100; stroke-linejoin: miter"/>
   </g>
   <g id="patch_19">
    <path d="M 471.863427 388.001541 
C 484.741894 364.575696 487.787439 336.989491 480.329317 311.318467 
C 472.871195 285.647442 455.518328 263.987524 432.092484 251.109057 
C 408.666639 238.23059 381.080434 235.185045 355.40941 242.643167 
C 329.738385 250.101289 308.078467 267.454156 295.2 290.88 
C 282.321533 314.305844 279.275988 341.892049 286.73411 367.563074 
C 294.192232 393.234098 311.545099 414.894017 334.970943 427.772484 
C 358.396787 440.650951 385.982992 443.696496 411.654017 436.238374 
C 437.325041 428.780252 458.98496 411.427385 471.863427 388.001541 
L 471.863427 388.001541 
z
" clip-path="url(#p9514a50476)" style="fill: none; stroke: #faf900; stroke-linejoin: miter"/>
   </g>
   <g id="patch_20">
    <path d="M 477.613134 376.717105 
C 488.995267 352.528841 490.302651 324.805839 481.247348 299.65377 
C 472.192046 274.501701 453.513384 253.974119 429.325119 242.591986 
C 405.136855 231.209853 377.413854 229.902469 352.261785 238.957771 
C 327.109715 248.013073 306.582133 266.691736 295.2 290.88 
C 283.817867 315.068264 282.510483 342.791266 291.565785 367.943335 
C 300.621088 393.095404 319.29975 413.622986 343.488014 425.005119 
C 367.676279 436.387253 395.39928 437.694636 420.551349 428.639334 
C 445.703419 419.584032 466.231001 400.905369 477.613134 376.717105 
L 477.613134 376.717105 
z
" clip-path="url(#p9514a50476)" style="fill: none; stroke: #eeff00; stroke-linejoin: miter"/>
   </g>
   <g id="patch_21">
    <path d="M 482.64294 365.09391 
C 492.483819 340.238685 492.047881 312.488298 481.431136 287.954448 
C 470.814391 263.420597 450.883649 244.106365 426.028425 234.265485 
C 401.1732 224.424606 373.422813 224.860544 348.888962 235.477289 
C 324.355112 246.094034 305.040879 266.024776 295.2 290.88 
C 285.359121 315.735224 285.795058 343.485612 296.411804 368.019462 
C 307.028549 392.553313 326.959291 411.867545 351.814515 421.708425 
C 376.669739 431.549304 404.420127 431.113366 428.953977 420.496621 
C 453.487827 409.879876 472.80206 389.949134 482.64294 365.09391 
L 482.64294 365.09391 
z
" clip-path="url(#p9514a50476)" style="fill: none; stroke: #ddff00; stroke-linejoin: miter"/>
   </g>
   <g id="patch_22">
    <path d="M 486.932994 353.177826 
C 495.193782 327.753734 493.016243 300.085478 480.879954 276.266671 
C 468.743666 252.447863 447.639502 234.423204 422.21541 226.162416 
C 396.791318 217.901628 369.123062 220.079167 345.304254 232.215455 
C 321.485447 244.351744 303.460788 265.455908 295.2 290.88 
C 286.939212 316.304092 289.116751 343.972348 301.253039 367.791155 
C 313.389328 391.609963 334.493492 409.634622 359.917584 417.89541 
C 385.341676 426.156198 413.009932 423.978659 436.828739 411.842371 
C 460.647547 399.706082 478.672205 378.601918 486.932994 353.177826 
L 486.932994 353.177826 
z
" clip-path="url(#p9514a50476)" style="fill: none; stroke: #d1ff00; stroke-linejoin: miter"/>
   </g>
   <g id="patch_23">
    <path d="M 490.466365 341.015881 
C 497.114461 315.123259 493.203915 287.646328 479.595979 264.636566 
C 465.988043 241.626803 443.793746 224.962854 417.901123 218.314758 
C 392.008501 211.666662 364.53157 215.577209 341.521808 229.185144 
C 318.512045 242.79308 301.848096 264.987377 295.2 290.88 
C 288.551904 316.772623 292.462451 344.249553 306.070386 367.259315 
C 319.678322 390.269078 341.872619 406.933028 367.765242 413.581123 
C 393.657865 420.229219 421.134795 416.318673 444.144557 402.710737 
C 467.15432 389.102801 483.81827 366.908504 490.466365 341.015881 
L 490.466365 341.015881 
z
" clip-path="url(#p9514a50476)" style="fill: none; stroke: #bfff00; stroke-linejoin: miter"/>
   </g>
   <g id="patch_24">
    <path d="M 493.22911 328.656073 
C 498.238276 302.397106 492.610155 275.219941 477.584277 253.110032 
C 462.558398 231.000123 439.361558 215.762647 413.102591 210.753482 
C 386.843624 205.744316 359.666459 211.372436 337.55655 226.398315 
C 315.446642 241.424193 300.209166 264.621033 295.2 290.88 
C 290.190834 317.138967 295.818955 344.316132 310.844833 366.426041 
C 325.870711 388.53595 349.067551 403.773426 375.326518 408.782591 
C 401.585485 413.791757 428.762651 408.163637 450.872559 393.137758 
C 472.982468 378.11188 488.219944 354.91504 493.22911 328.656073 
L 493.22911 328.656073 
z
" clip-path="url(#p9514a50476)" style="fill: none; stroke: #b3ff00; stroke-linejoin: miter"/>
   </g>
   <g id="patch_25">
    <path d="M 495.210324 316.14718 
C 498.560791 289.625501 491.237308 262.855356 474.852787 241.732559 
C 458.468266 220.609762 434.360431 206.858895 407.838752 203.508428 
C 381.317073 200.157961 354.546928 207.481444 333.424131 223.865965 
C 312.301334 240.250486 298.550467 264.358321 295.2 290.88 
C 291.849533 317.401679 299.173016 344.171824 315.557537 365.294621 
C 331.942058 386.417418 356.049893 400.168285 382.571572 403.518752 
C 409.093251 406.869219 435.863396 399.545736 456.986193 383.161215 
C 478.10899 366.776694 491.859857 342.668859 495.210324 316.14718 
L 495.210324 316.14718 
z
" clip-path="url(#p9514a50476)" style="fill: none; stroke: #a2ff00; stroke-linejoin: miter"/>
   </g>
   <g id="patch_26">
    <path d="M 496.402188 303.538569 
C 498.080734 276.858847 489.090791 250.601372 471.41229 230.549048 
C 453.733789 210.496725 428.810101 198.286736 402.130379 196.60819 
C 375.450657 194.929644 349.193182 203.919587 329.140858 221.598089 
C 309.088535 239.27659 296.878546 264.200278 295.2 290.88 
C 293.521454 317.559722 302.511397 343.817197 320.189898 363.86952 
C 337.8684 383.921844 362.792088 396.131833 389.47181 397.810379 
C 416.151532 399.488924 442.409007 390.498981 462.46133 372.82048 
C 482.513654 355.141979 494.723643 330.218291 496.402188 303.538569 
L 496.402188 303.538569 
z
" clip-path="url(#p9514a50476)" style="fill: none; stroke: #90ff00; stroke-linejoin: miter"/>
   </g>
   <g id="patch_27">
    <path d="M 496.8 290.88 
C 496.8 264.147528 486.179076 238.506349 467.276364 219.603636 
C 448.373651 200.700924 422.732472 190.08 396 190.08 
C 369.267528 190.08 343.626349 200.700924 324.723636 219.603636 
C 305.820924 238.506349 295.2 264.147528 295.2 290.88 
C 295.2 317.612472 305.820924 343.253651 324.723636 362.156364 
C 343.626349 381.059076 369.267528 391.68 396 391.68 
C 422.732472 391.68 448.373651 381.059076 467.276364 362.156364 
C 486.179076 343.253651 496.8 317.612472 496.8 290.88 
L 496.8 290.88 
z
" clip-path="url(#p9514a50476)" style="fill: none; stroke: #84ff00; stroke-linejoin: miter"/>
   </g>
   <g id="patch_28">
    <path d="M 496.402188 278.221431 
C 494.723643 251.541709 482.513654 226.618021 462.46133 208.93952 
C 442.409007 191.261019 416.151532 182.271076 389.47181 183.949621 
C 362.792088 185.628167 337.8684 197.838156 320.189898 217.89048 
C 302.511397 237.942803 293.521454 264.200278 295.2 290.88 
C 296.878546 317.559722 309.088535 342.48341 329.140858 360.161911 
C 349.193182 377.840413 375.450657 386.830356 402.130379 385.15181 
C 428.810101 383.473264 453.733789 371.263275 471.41229 351.210952 
C 489.090791 331.158628 498.080734 304.901153 496.402188 278.221431 
L 496.402188 278.221431 
z
" clip-path="url(#p9514a50476)" style="fill: none; stroke: #72ff00; stroke-linejoin: miter"/>
   </g>
   <g id="patch_29">
    <path d="M 495.210324 265.61282 
C 491.859857 239.091141 478.10899 214.983306 456.986193 198.598785 
C 435.863396 182.214264 409.093251 174.890781 382.571572 178.241248 
C 356.049893 181.591715 331.942058 195.342582 315.557537 216.465379 
C 299.173016 237.588176 291.849533 264.358321 295.2 290.88 
C 298.550467 317.401679 312.301334 341.509514 333.424131 357.894035 
C 354.546928 374.278556 381.317073 381.602039 407.838752 378.251572 
C 434.360431 374.901105 458.468266 361.150238 474.852787 340.027441 
C 491.237308 318.904644 498.560791 292.134499 495.210324 265.61282 
L 495.210324 265.61282 
z
" clip-path="url(#p9514a50476)" style="fill: none; stroke: #66ff00; stroke-linejoin: miter"/>
   </g>
   <g id="patch_30">
    <path d="M 493.22911 253.103927 
C 488.219944 226.84496 472.982468 203.64812 450.872559 188.622242 
C 428.762651 173.596363 401.585485 167.968243 375.326518 172.977409 
C 349.067551 177.986574 325.870711 193.22405 310.844833 215.333959 
C 295.818955 237.443868 290.190834 264.621033 295.2 290.88 
C 300.209166 317.138967 315.446642 340.335807 337.55655 355.361685 
C 359.666459 370.387564 386.843624 376.015684 413.102591 371.006518 
C 439.361558 365.997353 462.558398 350.759877 477.584277 328.649968 
C 492.610155 306.540059 498.238276 279.362894 493.22911 253.103927 
L 493.22911 253.103927 
z
" clip-path="url(#p9514a50476)" style="fill: none; stroke: #55ff00; stroke-linejoin: miter"/>
   </g>
   <g id="patch_31">
    <path d="M 490.466365 240.744119 
C 483.81827 214.851496 467.15432 192.657199 444.144557 179.049263 
C 421.134795 165.441327 393.657865 161.530781 367.765242 168.178877 
C 341.872619 174.826972 319.678322 191.490922 306.070386 214.500685 
C 292.462451 237.510447 288.551904 264.987377 295.2 290.88 
C 301.848096 316.772623 318.512045 338.96692 341.521808 352.574856 
C 364.53157 366.182791 392.008501 370.093338 417.901123 363.445242 
C 443.793746 356.797146 465.988043 340.133197 479.595979 317.123434 
C 493.203915 294.113672 497.114461 266.636741 490.466365 240.744119 
L 490.466365 240.744119 
z
" clip-path="url(#p9514a50476)" style="fill: none; stroke: #49ff00; stroke-linejoin: miter"/>
   </g>
   <g id="patch_32">
    <path d="M 486.932994 228.582174 
C 478.672205 203.158082 460.647547 182.053918 436.828739 169.917629 
C 413.009932 157.781341 385.341676 155.603802 359.917584 163.86459 
C 334.493492 172.125378 313.389328 190.150037 301.253039 213.968845 
C 289.116751 237.787652 286.939212 265.455908 295.2 290.88 
C 303.460788 316.304092 321.485447 337.408256 345.304254 349.544545 
C 369.123062 361.680833 396.791318 363.858372 422.21541 355.597584 
C 447.639502 347.336796 468.743666 329.312137 480.879954 305.493329 
C 493.016243 281.674522 495.193782 254.006266 486.932994 228.582174 
L 486.932994 228.582174 
z
" clip-path="url(#p9514a50476)" style="fill: none; stroke: #37ff00; stroke-linejoin: miter"/>
   </g>
   <g id="patch_33">
    <path d="M 482.64294 216.66609 
C 472.80206 191.810866 453.487827 171.880124 428.953977 161.263379 
C 404.420127 150.646634 376.669739 150.210696 351.814515 160.051575 
C 326.959291 169.892455 307.028549 189.206687 296.411804 213.740538 
C 285.795058 238.274388 285.359121 266.024776 295.2 290.88 
C 305.040879 315.735224 324.355112 335.665966 348.888962 346.282711 
C 373.422813 356.899456 401.1732 357.335394 426.028425 347.494515 
C 450.883649 337.653635 470.814391 318.339403 481.431136 293.805552 
C 492.047881 269.271702 492.483819 241.521315 482.64294 216.66609 
L 482.64294 216.66609 
z
" clip-path="url(#p9514a50476)" style="fill: none; stroke: #25ff00; stroke-linejoin: miter"/>
   </g>
   <g id="patch_34">
    <path d="M 477.613134 205.042895 
C 466.231001 180.854631 445.703419 162.175968 420.551349 153.120666 
C 395.39928 144.065364 367.676279 145.372747 343.488014 156.754881 
C 319.29975 168.137014 300.621088 188.664596 291.565785 213.816665 
C 282.510483 238.968734 283.817867 266.691736 295.2 290.88 
C 306.582133 315.068264 327.109715 333.746927 352.261785 342.802229 
C 377.413854 351.857531 405.136855 350.550147 429.325119 339.168014 
C 453.513384 327.785881 472.192046 307.258299 481.247348 282.10623 
C 490.302651 256.954161 488.995267 229.231159 477.613134 205.042895 
L 477.613134 205.042895 
z
" clip-path="url(#p9514a50476)" style="fill: none; stroke: #1aff00; stroke-linejoin: miter"/>
   </g>
   <g id="patch_35">
    <path d="M 471.863427 193.758459 
C 458.98496 170.332615 437.325041 152.979748 411.654017 145.521626 
C 385.982992 138.063504 358.396787 141.109049 334.970943 153.987516 
C 311.545099 166.865983 294.192232 188.525902 286.73411 214.196926 
C 279.275988 239.867951 282.321533 267.454156 295.2 290.88 
C 308.078467 314.305844 329.738385 331.658711 355.40941 339.116833 
C 381.080434 346.574955 408.666639 343.52941 432.092484 330.650943 
C 455.518328 317.772476 472.871195 296.112558 480.329317 270.441533 
C 487.787439 244.770509 484.741894 217.184304 471.863427 193.758459 
L 471.863427 193.758459 
z
" clip-path="url(#p9514a50476)" style="fill: none; stroke: #08ff00; stroke-linejoin: miter"/>
   </g>
   <g id="patch_36">
    <path d="M 465.41651 182.857318 
C 451.092535 160.286345 428.385762 144.327758 402.297094 138.496249 
C 376.208426 132.664741 348.867887 137.436429 326.296914 151.760404 
C 303.725941 166.084379 287.767353 188.791152 281.935845 214.87982 
C 276.104337 240.968488 280.876025 268.309027 295.2 290.88 
C 309.523975 313.450973 332.230748 329.40956 358.319416 335.241069 
C 384.408084 341.072577 411.748623 336.300889 434.319596 321.976914 
C 456.890569 307.652939 472.849156 284.946166 478.680664 258.857498 
C 484.512173 232.76883 479.740485 205.428291 465.41651 182.857318 
L 465.41651 182.857318 
z
" clip-path="url(#p9514a50476)" style="fill: none; stroke: #04ff08; stroke-linejoin: miter"/>
   </g>
   <g id="patch_37">
    <path d="M 458.297826 172.382493 
C 442.584873 150.755469 418.920858 136.254142 392.517507 132.072262 
C 366.114156 127.890382 339.127184 134.36938 317.50016 150.082334 
C 295.873135 165.795287 281.371808 189.459301 277.189928 215.862652 
C 273.008048 242.266004 279.487047 269.252975 295.2 290.88 
C 310.912953 312.507025 334.576968 327.008351 360.980319 331.190231 
C 387.38367 335.372111 414.370642 328.893113 435.997666 313.18016 
C 457.624691 297.467207 472.126018 273.803192 476.307898 247.399841 
C 480.489778 220.996489 474.010779 194.009518 458.297826 172.382493 
L 458.297826 172.382493 
z
" clip-path="url(#p9514a50476)" style="fill: none; stroke: #00ff16; stroke-linejoin: miter"/>
   </g>
   <g id="patch_38">
    <path d="M 450.53547 162.375324 
C 433.49555 141.7776 408.967686 128.790764 382.353853 126.275016 
C 355.74002 123.759268 329.213121 131.920008 308.615397 148.959927 
C 288.017673 165.999846 275.030837 190.527711 272.515089 217.141544 
C 269.999341 243.755377 278.160081 270.282276 295.2 290.88 
C 312.239919 311.477724 336.767784 324.46456 363.381617 326.980308 
C 389.99545 329.496056 416.522349 321.335316 437.120073 304.295397 
C 457.717797 287.255477 470.704633 262.727613 473.220381 236.11378 
C 475.736129 209.499947 467.575389 182.973048 450.53547 162.375324 
L 450.53547 162.375324 
z
" clip-path="url(#p9514a50476)" style="fill: none; stroke: #00ff27; stroke-linejoin: miter"/>
   </g>
   <g id="patch_39">
    <path d="M 442.160075 152.875303 
C 423.860439 133.38817 398.565524 121.967078 371.846242 121.12739 
C 345.126961 120.287703 319.164823 130.097977 299.677689 148.397614 
C 280.190556 166.697251 268.769464 191.992166 267.929776 218.711447 
C 267.090089 245.430729 276.900363 271.392866 295.2 290.88 
C 313.499637 310.367134 338.794552 321.788226 365.513833 322.627913 
C 392.233115 323.4676 418.195252 313.657326 437.682386 295.357689 
C 457.16952 277.058053 468.590612 251.763138 469.430299 225.043856 
C 470.269986 198.324575 460.459712 172.362437 442.160075 152.875303 
L 442.160075 152.875303 
z
" clip-path="url(#p9514a50476)" style="fill: none; stroke: #00ff33; stroke-linejoin: miter"/>
   </g>
   <g id="patch_40">
    <path d="M 433.204697 143.919925 
C 413.717563 125.620288 387.755425 115.810014 361.036144 116.649701 
C 334.316862 117.489388 309.021947 128.91048 290.722311 148.397614 
C 272.422674 167.884748 262.6124 193.846885 263.452087 220.566167 
C 264.291774 247.285448 275.712866 272.580363 295.2 290.88 
C 314.687134 309.179637 340.649271 318.989911 367.368553 318.150224 
C 394.087834 317.310536 419.382749 305.889444 437.682386 286.402311 
C 455.982023 266.915177 465.792297 240.953039 464.95261 214.233758 
C 464.112922 187.514476 452.69183 162.219561 433.204697 143.919925 
L 433.204697 143.919925 
z
" clip-path="url(#p9514a50476)" style="fill: none; stroke: #00ff45; stroke-linejoin: miter"/>
   </g>
   <g id="patch_41">
    <path d="M 423.704676 135.54453 
C 403.106952 118.504611 376.580053 110.343871 349.96622 112.859619 
C 323.352387 115.375367 298.824523 128.362203 281.784603 148.959927 
C 264.744684 169.557651 256.583944 196.08455 259.099692 222.698383 
C 261.61544 249.312216 274.602276 273.840081 295.2 290.88 
C 315.797724 307.919919 342.324623 316.080659 368.938456 313.564911 
C 395.552289 311.049163 420.080154 298.062327 437.120073 277.464603 
C 454.159992 256.866879 462.320732 230.33998 459.804984 203.726147 
C 457.289236 177.112314 444.3024 152.58445 423.704676 135.54453 
L 423.704676 135.54453 
z
" clip-path="url(#p9514a50476)" style="fill: none; stroke: #00ff51; stroke-linejoin: miter"/>
   </g>
   <g id="patch_42">
    <path d="M 413.697507 127.782174 
C 392.070482 112.069221 365.083511 105.590222 338.680159 109.772102 
C 312.276808 113.953982 288.612793 128.455309 272.89984 150.082334 
C 257.186887 171.709358 250.707889 198.69633 254.889769 225.099681 
C 259.071649 251.503032 273.572975 275.167047 295.2 290.88 
C 316.827025 306.592953 343.813996 313.071952 370.217348 308.890072 
C 396.620699 304.708192 420.284713 290.206865 435.997666 268.57984 
C 451.71062 246.952816 458.189618 219.965844 454.007738 193.562493 
C 449.825858 167.159142 435.324531 143.495127 413.697507 127.782174 
L 413.697507 127.782174 
z
" clip-path="url(#p9514a50476)" style="fill: none; stroke: #00ff62; stroke-linejoin: miter"/>
   </g>
   <g id="patch_43">
    <path d="M 403.222682 120.66349 
C 380.651709 106.339515 353.31117 101.567827 327.222502 107.399336 
C 301.133834 113.230844 278.427061 129.189431 264.103086 151.760404 
C 249.779111 174.331377 245.007423 201.671916 250.838931 227.760584 
C 256.67044 253.849252 272.629027 276.556025 295.2 290.88 
C 317.770973 305.203975 345.111512 309.975663 371.20018 304.144155 
C 397.288848 298.312647 419.995621 282.354059 434.319596 259.783086 
C 448.643571 237.212113 453.415259 209.871574 447.583751 183.782906 
C 441.752242 157.694238 425.793655 134.987465 403.222682 120.66349 
L 403.222682 120.66349 
z
" clip-path="url(#p9514a50476)" style="fill: none; stroke: #00ff74; stroke-linejoin: miter"/>
   </g>
   <g id="patch_44">
    <path d="M 392.321541 114.216573 
C 368.895696 101.338106 341.309491 98.292561 315.638467 105.750683 
C 289.967442 113.208805 268.307524 130.561672 255.429057 153.987516 
C 242.55059 177.413361 239.505045 204.999566 246.963167 230.67059 
C 254.421289 256.341615 271.774156 278.001533 295.2 290.88 
C 318.625844 303.758467 346.212049 306.804012 371.883074 299.34589 
C 397.554098 291.887768 419.214017 274.534901 432.092484 251.109057 
C 444.970951 227.683213 448.016496 200.097008 440.558374 174.425983 
C 433.100252 148.754959 415.747385 127.09504 392.321541 114.216573 
L 392.321541 114.216573 
z
" clip-path="url(#p9514a50476)" style="fill: none; stroke: #00ff80; stroke-linejoin: miter"/>
   </g>
   <g id="patch_45">
    <path d="M 381.037105 108.466866 
C 356.848841 97.084733 329.125839 95.777349 303.97377 104.832652 
C 278.821701 113.887954 258.294119 132.566616 246.911986 156.754881 
C 235.529853 180.943145 234.222469 208.666146 243.277771 233.818215 
C 252.333073 258.970285 271.011736 279.497867 295.2 290.88 
C 319.388264 302.262133 347.111266 303.569517 372.263335 294.514215 
C 397.415404 285.458912 417.942986 266.78025 429.325119 242.591986 
C 440.707253 218.403721 442.014636 190.68072 432.959334 165.528651 
C 423.904032 140.376581 405.225369 119.848999 381.037105 108.466866 
L 381.037105 108.466866 
z
" clip-path="url(#p9514a50476)" style="fill: none; stroke: #00ff92; stroke-linejoin: miter"/>
   </g>
   <g id="patch_46">
    <path d="M 369.41391 103.43706 
C 344.558685 93.596181 316.808298 94.032119 292.274448 104.648864 
C 267.740597 115.265609 248.426365 135.196351 238.585485 160.051575 
C 228.744606 184.9068 229.180544 212.657187 239.797289 237.191038 
C 250.414034 261.724888 270.344776 281.039121 295.2 290.88 
C 320.055224 300.720879 347.805612 300.284942 372.339462 289.668196 
C 396.873313 279.051451 416.187545 259.120709 426.028425 234.265485 
C 435.869304 209.410261 435.433366 181.659873 424.816621 157.126023 
C 414.199876 132.592173 394.269134 113.27794 369.41391 103.43706 
L 369.41391 103.43706 
z
" clip-path="url(#p9514a50476)" style="fill: none; stroke: #00ff9d; stroke-linejoin: miter"/>
   </g>
   <g id="patch_47">
    <path d="M 357.497826 99.147006 
C 332.073734 90.886218 304.405478 93.063757 280.586671 105.200046 
C 256.767863 117.336334 238.743204 138.440498 230.482416 163.86459 
C 222.221628 189.288682 224.399167 216.956938 236.535455 240.775746 
C 248.671744 264.594553 269.775908 282.619212 295.2 290.88 
C 320.624092 299.140788 348.292348 296.963249 372.111155 284.826961 
C 395.929963 272.690672 413.954622 251.586508 422.21541 226.162416 
C 430.476198 200.738324 428.298659 173.070068 416.162371 149.251261 
C 404.026082 125.432453 382.921918 107.407795 357.497826 99.147006 
L 357.497826 99.147006 
z
" clip-path="url(#p9514a50476)" style="fill: none; stroke: #00ffaf; stroke-linejoin: miter"/>
   </g>
   <g id="patch_48">
    <path d="M 345.335881 95.613635 
C 319.443259 88.965539 291.966328 92.876085 268.956566 106.484021 
C 245.946803 120.091957 229.282854 142.286254 222.634758 168.178877 
C 215.986662 194.071499 219.897209 221.54843 233.505144 244.558192 
C 247.11308 267.567955 269.307377 284.231904 295.2 290.88 
C 321.092623 297.528096 348.569553 293.617549 371.579315 280.009614 
C 394.589078 266.401678 411.253028 244.207381 417.901123 218.314758 
C 424.549219 192.422135 420.638673 164.945205 407.030737 141.935443 
C 393.422801 118.92568 371.228504 102.26173 345.335881 95.613635 
L 345.335881 95.613635 
z
" clip-path="url(#p9514a50476)" style="fill: none; stroke: #00ffbb; stroke-linejoin: miter"/>
   </g>
   <g id="patch_49">
    <path d="M 332.976073 92.85089 
C 306.717106 87.841724 279.539941 93.469845 257.430032 108.495723 
C 235.320123 123.521602 220.082647 146.718442 215.073482 172.977409 
C 210.064316 199.236376 215.692436 226.413541 230.718315 248.52345 
C 245.744193 270.633358 268.941033 285.870834 295.2 290.88 
C 321.458967 295.889166 348.636132 290.261045 370.746041 275.235167 
C 392.85595 260.209289 408.093426 237.012449 413.102591 210.753482 
C 418.111757 184.494515 412.483637 157.317349 397.457758 135.207441 
C 382.43188 113.097532 359.23504 97.860056 332.976073 92.85089 
L 332.976073 92.85089 
z
" clip-path="url(#p9514a50476)" style="fill: none; stroke: #00ffcd; stroke-linejoin: miter"/>
   </g>
   <g id="patch_50">
    <path d="M 320.46718 90.869676 
C 293.945501 87.519209 267.175356 94.842692 246.052559 111.227213 
C 224.929762 127.611734 211.178895 151.719569 207.828428 178.241248 
C 204.477961 204.762927 211.801444 231.533072 228.185965 252.655869 
C 244.570486 273.778666 268.678321 287.529533 295.2 290.88 
C 321.721679 294.230467 348.491824 286.906984 369.614621 270.522463 
C 390.737418 254.137942 404.488285 230.030107 407.838752 203.508428 
C 411.189219 176.986749 403.865736 150.216604 387.481215 129.093807 
C 371.096694 107.97101 346.988859 94.220143 320.46718 90.869676 
L 320.46718 90.869676 
z
" clip-path="url(#p9514a50476)" style="fill: none; stroke: #00ffde; stroke-linejoin: miter"/>
   </g>
   <g id="patch_51">
    <path d="M 307.858569 89.677812 
C 281.178847 87.999266 254.921372 96.989209 234.869048 114.66771 
C 214.816725 132.346211 202.606736 157.269899 200.92819 183.949621 
C 199.249644 210.629343 208.239587 236.886818 225.918089 256.939142 
C 243.59659 276.991465 268.520278 289.201454 295.2 290.88 
C 321.879722 292.558546 348.137197 283.568603 368.18952 265.890102 
C 388.241844 248.2116 400.451833 223.287912 402.130379 196.60819 
C 403.808924 169.928468 394.818981 143.670993 377.14048 123.61867 
C 359.461979 103.566346 334.538291 91.356357 307.858569 89.677812 
L 307.858569 89.677812 
z
" clip-path="url(#p9514a50476)" style="fill: none; stroke: #00ffea; stroke-linejoin: miter"/>
   </g>
   <g id="patch_52">
    <path d="M 295.2 89.28 
C 268.467528 89.28 242.826349 99.900924 223.923636 118.803636 
C 205.020924 137.706349 194.4 163.347528 194.4 190.08 
C 194.4 216.812472 205.020924 242.453651 223.923636 261.356364 
C 242.826349 280.259076 268.467528 290.88 295.2 290.88 
C 321.932472 290.88 347.573651 280.259076 366.476364 261.356364 
C 385.379076 242.453651 396 216.812472 396 190.08 
C 396 163.347528 385.379076 137.706349 366.476364 118.803636 
C 347.573651 99.900924 321.932472 89.28 295.2 89.28 
L 295.2 89.28 
z
" clip-path="url(#p9514a50476)" style="fill: none; stroke: #00fffc; stroke-linejoin: miter"/>
   </g>
   <g id="patch_53">
    <path d="M 282.541431 89.677812 
C 255.861709 91.356357 230.938021 103.566346 213.25952 123.61867 
C 195.581019 143.670993 186.591076 169.928468 188.269621 196.60819 
C 189.948167 223.287912 202.158156 248.2116 222.21048 265.890102 
C 242.262803 283.568603 268.520278 292.558546 295.2 290.88 
C 321.879722 289.201454 346.80341 276.991465 364.481911 256.939142 
C 382.160413 236.886818 391.150356 210.629343 389.47181 183.949621 
C 387.793264 157.269899 375.583275 132.346211 355.530952 114.66771 
C 335.478628 96.989209 309.221153 87.999266 282.541431 89.677812 
L 282.541431 89.677812 
z
" clip-path="url(#p9514a50476)" style="fill: none; stroke: #00f6ff; stroke-linejoin: miter"/>
   </g>
   <g id="patch_54">
    <path d="M 269.93282 90.869676 
C 243.411141 94.220143 219.303306 107.97101 202.918785 129.093807 
C 186.534264 150.216604 179.210781 176.986749 182.561248 203.508428 
C 185.911715 230.030107 199.662582 254.137942 220.785379 270.522463 
C 241.908176 286.906984 268.678321 294.230467 295.2 290.88 
C 321.721679 287.529533 345.829514 273.778666 362.214035 252.655869 
C 378.598556 231.533072 385.922039 204.762927 382.571572 178.241248 
C 379.221105 151.719569 365.470238 127.611734 344.347441 111.227213 
C 323.224644 94.842692 296.454499 87.519209 269.93282 90.869676 
L 269.93282 90.869676 
z
" clip-path="url(#p9514a50476)" style="fill: none; stroke: #00e5ff; stroke-linejoin: miter"/>
   </g>
   <g id="patch_55">
    <path d="M 257.423927 92.85089 
C 231.16496 97.860056 207.96812 113.097532 192.942242 135.207441 
C 177.916363 157.317349 172.288243 184.494515 177.297409 210.753482 
C 182.306574 237.012449 197.54405 260.209289 219.653959 275.235167 
C 241.763868 290.261045 268.941033 295.889166 295.2 290.88 
C 321.458967 285.870834 344.655807 270.633358 359.681685 248.52345 
C 374.707564 226.413541 380.335684 199.236376 375.326518 172.977409 
C 370.317353 146.718442 355.079877 123.521602 332.969968 108.495723 
C 310.860059 93.469845 283.682894 87.841724 257.423927 92.85089 
L 257.423927 92.85089 
z
" clip-path="url(#p9514a50476)" style="fill: none; stroke: #00d3ff; stroke-linejoin: miter"/>
   </g>
   <g id="patch_56">
    <path d="M 245.064119 95.613635 
C 219.171496 102.26173 196.977199 118.92568 183.369263 141.935443 
C 169.761327 164.945205 165.850781 192.422135 172.498877 218.314758 
C 179.146972 244.207381 195.810922 266.401678 218.820685 280.009614 
C 241.830447 293.617549 269.307377 297.528096 295.2 290.88 
C 321.092623 284.231904 343.28692 267.567955 356.894856 244.558192 
C 370.502791 221.54843 374.413338 194.071499 367.765242 168.178877 
C 361.117146 142.286254 344.453197 120.091957 321.443434 106.484021 
C 298.433672 92.876085 270.956741 88.965539 245.064119 95.613635 
L 245.064119 95.613635 
z
" clip-path="url(#p9514a50476)" style="fill: none; stroke: #00c7ff; stroke-linejoin: miter"/>
   </g>
   <g id="patch_57">
    <path d="M 232.902174 99.147006 
C 207.478082 107.407795 186.373918 125.432453 174.237629 149.251261 
C 162.101341 173.070068 159.923802 200.738324 168.18459 226.162416 
C 176.445378 251.586508 194.470037 272.690672 218.288845 284.826961 
C 242.107652 296.963249 269.775908 299.140788 295.2 290.88 
C 320.624092 282.619212 341.728256 264.594553 353.864545 240.775746 
C 366.000833 216.956938 368.178372 189.288682 359.917584 163.86459 
C 351.656796 138.440498 333.632137 117.336334 309.813329 105.200046 
C 285.994522 93.063757 258.326266 90.886218 232.902174 99.147006 
L 232.902174 99.147006 
z
" clip-path="url(#p9514a50476)" style="fill: none; stroke: #00b5ff; stroke-linejoin: miter"/>
   </g>
   <g id="patch_58">
    <path d="M 220.98609 103.43706 
C 196.130866 113.27794 176.200124 132.592173 165.583379 157.126023 
C 154.966634 181.659873 154.530696 209.410261 164.371575 234.265485 
C 174.212455 259.120709 193.526687 279.051451 218.060538 289.668196 
C 242.594388 300.284942 270.344776 300.720879 295.2 290.88 
C 320.055224 281.039121 339.985966 261.724888 350.602711 237.191038 
C 361.219456 212.657187 361.655394 184.9068 351.814515 160.051575 
C 341.973635 135.196351 322.659403 115.265609 298.125552 104.648864 
C 273.591702 94.032119 245.841315 93.596181 220.98609 103.43706 
L 220.98609 103.43706 
z
" clip-path="url(#p9514a50476)" style="fill: none; stroke: #00aaff; stroke-linejoin: miter"/>
   </g>
   <g id="patch_59">
    <path d="M 209.362895 108.466866 
C 185.174631 119.848999 166.495968 140.376581 157.440666 165.528651 
C 148.385364 190.68072 149.692747 218.403721 161.074881 242.591986 
C 172.457014 266.78025 192.984596 285.458912 218.136665 294.514215 
C 243.288734 303.569517 271.011736 302.262133 295.2 290.88 
C 319.388264 279.497867 338.066927 258.970285 347.122229 233.818215 
C 356.177531 208.666146 354.870147 180.943145 343.488014 156.754881 
C 332.105881 132.566616 311.578299 113.887954 286.42623 104.832652 
C 261.274161 95.777349 233.551159 97.084733 209.362895 108.466866 
L 209.362895 108.466866 
z
" clip-path="url(#p9514a50476)" style="fill: none; stroke: #0098ff; stroke-linejoin: miter"/>
   </g>
   <g id="patch_60">
    <path d="M 198.078459 114.216573 
C 174.652615 127.09504 157.299748 148.754959 149.841626 174.425983 
C 142.383504 200.097008 145.429049 227.683213 158.307516 251.109057 
C 171.185983 274.534901 192.845902 291.887768 218.516926 299.34589 
C 244.187951 306.804012 271.774156 303.758467 295.2 290.88 
C 318.625844 278.001533 335.978711 256.341615 343.436833 230.67059 
C 350.894955 204.999566 347.84941 177.413361 334.970943 153.987516 
C 322.092476 130.561672 300.432558 113.208805 274.761533 105.750683 
C 249.090509 98.292561 221.504304 101.338106 198.078459 114.216573 
L 198.078459 114.216573 
z
" clip-path="url(#p9514a50476)" style="fill: none; stroke: #008cff; stroke-linejoin: miter"/>
   </g>
   <g id="patch_61">
    <path d="M 187.177318 120.66349 
C 164.606345 134.987465 148.647758 157.694238 142.816249 183.782906 
C 136.984741 209.871574 141.756429 237.212113 156.080404 259.783086 
C 170.404379 282.354059 193.111152 298.312647 219.19982 304.144155 
C 245.288488 309.975663 272.629027 305.203975 295.2 290.88 
C 317.770973 276.556025 333.72956 253.849252 339.561069 227.760584 
C 345.392577 201.671916 340.620889 174.331377 326.296914 151.760404 
C 311.972939 129.189431 289.266166 113.230844 263.177498 107.399336 
C 237.08883 101.567827 209.748291 106.339515 187.177318 120.66349 
L 187.177318 120.66349 
z
" clip-path="url(#p9514a50476)" style="fill: none; stroke: #007aff; stroke-linejoin: miter"/>
   </g>
   <g id="patch_62">
    <path d="M 176.702493 127.782174 
C 155.075469 143.495127 140.574142 167.159142 136.392262 193.562493 
C 132.210382 219.965844 138.68938 246.952816 154.402334 268.57984 
C 170.115287 290.206865 193.779301 304.708192 220.182652 308.890072 
C 246.586004 313.071952 273.572975 306.592953 295.2 290.88 
C 316.827025 275.167047 331.328351 251.503032 335.510231 225.099681 
C 339.692111 198.69633 333.213113 171.709358 317.50016 150.082334 
C 301.787207 128.455309 278.123192 113.953982 251.719841 109.772102 
C 225.316489 105.590222 198.329518 112.069221 176.702493 127.782174 
L 176.702493 127.782174 
z
" clip-path="url(#p9514a50476)" style="fill: none; stroke: #0069ff; stroke-linejoin: miter"/>
   </g>
   <g id="patch_63">
    <path d="M 166.695324 135.54453 
C 146.0976 152.58445 133.110764 177.112314 130.595016 203.726147 
C 128.079268 230.33998 136.240008 256.866879 153.279927 277.464603 
C 170.319846 298.062327 194.847711 311.049163 221.461544 313.564911 
C 248.075377 316.080659 274.602276 307.919919 295.2 290.88 
C 315.797724 273.840081 328.78456 249.312216 331.300308 222.698383 
C 333.816056 196.08455 325.655316 169.557651 308.615397 148.959927 
C 291.575477 128.362203 267.047613 115.375367 240.43378 112.859619 
C 213.819947 110.343871 187.293048 118.504611 166.695324 135.54453 
L 166.695324 135.54453 
z
" clip-path="url(#p9514a50476)" style="fill: none; stroke: #005dff; stroke-linejoin: miter"/>
   </g>
   <g id="patch_64">
    <path d="M 157.195303 143.919925 
C 137.70817 162.219561 126.287078 187.514476 125.44739 214.233758 
C 124.607703 240.953039 134.417977 266.915177 152.717614 286.402311 
C 171.017251 305.889444 196.312166 317.310536 223.031447 318.150224 
C 249.750729 318.989911 275.712866 309.179637 295.2 290.88 
C 314.687134 272.580363 326.108226 247.285448 326.947913 220.566167 
C 327.7876 193.846885 317.977326 167.884748 299.677689 148.397614 
C 281.378053 128.91048 256.083138 117.489388 229.363856 116.649701 
C 202.644575 115.810014 176.682437 125.620288 157.195303 143.919925 
L 157.195303 143.919925 
z
" clip-path="url(#p9514a50476)" style="fill: none; stroke: #004bff; stroke-linejoin: miter"/>
   </g>
   <g id="patch_65">
    <path d="M 148.239925 152.875303 
C 129.940288 172.362437 120.130014 198.324575 120.969701 225.043856 
C 121.809388 251.763138 133.23048 277.058053 152.717614 295.357689 
C 172.204748 313.657326 198.166885 323.4676 224.886167 322.627913 
C 251.605448 321.788226 276.900363 310.367134 295.2 290.88 
C 313.499637 271.392866 323.309911 245.430729 322.470224 218.711447 
C 321.630536 191.992166 310.209444 166.697251 290.722311 148.397614 
C 271.235177 130.097977 245.273039 120.287703 218.553758 121.12739 
C 191.834476 121.967078 166.539561 133.38817 148.239925 152.875303 
L 148.239925 152.875303 
z
" clip-path="url(#p9514a50476)" style="fill: none; stroke: #003fff; stroke-linejoin: miter"/>
   </g>
   <g id="patch_66">
    <path d="M 139.86453 162.375324 
C 122.824611 182.973048 114.663871 209.499947 117.179619 236.11378 
C 119.695367 262.727613 132.682203 287.255477 153.279927 304.295397 
C 173.877651 321.335316 200.40455 329.496056 227.018383 326.980308 
C 253.632216 324.46456 278.160081 311.477724 295.2 290.88 
C 312.239919 270.282276 320.400659 243.755377 317.884911 217.141544 
C 315.369163 190.527711 302.382327 165.999846 281.784603 148.959927 
C 261.186879 131.920008 234.65998 123.759268 208.046147 126.275016 
C 181.432314 128.790764 156.90445 141.7776 139.86453 162.375324 
L 139.86453 162.375324 
z
" clip-path="url(#p9514a50476)" style="fill: none; stroke: #002dff; stroke-linejoin: miter"/>
   </g>
   <g id="patch_67">
    <path d="M 132.102174 172.382493 
C 116.389221 194.009518 109.910222 220.996489 114.092102 247.399841 
C 118.273982 273.803192 132.775309 297.467207 154.402334 313.18016 
C 176.029358 328.893113 203.01633 335.372111 229.419681 331.190231 
C 255.823032 327.008351 279.487047 312.507025 295.2 290.88 
C 310.912953 269.252975 317.391952 242.266004 313.210072 215.862652 
C 309.028192 189.459301 294.526865 165.795287 272.89984 150.082334 
C 251.272816 134.36938 224.285844 127.890382 197.882493 132.072262 
C 171.479142 136.254142 147.815127 150.755469 132.102174 172.382493 
L 132.102174 172.382493 
z
" clip-path="url(#p9514a50476)" style="fill: none; stroke: #001cff; stroke-linejoin: miter"/>
   </g>
   <g id="patch_68">
    <path d="M 124.98349 182.857318 
C 110.659515 205.428291 105.887827 232.76883 111.719336 258.857498 
C 117.550844 284.946166 133.509431 307.652939 156.080404 321.976914 
C 178.651377 336.300889 205.991916 341.072577 232.080584 335.241069 
C 258.169252 329.40956 280.876025 313.450973 295.2 290.88 
C 309.523975 268.309027 314.295663 240.968488 308.464155 214.87982 
C 302.632647 188.791152 286.674059 166.084379 264.103086 151.760404 
C 241.532113 137.436429 214.191574 132.664741 188.102906 138.496249 
C 162.014238 144.327758 139.307465 160.286345 124.98349 182.857318 
L 124.98349 182.857318 
z
" clip-path="url(#p9514a50476)" style="fill: none; stroke: #0010ff; stroke-linejoin: miter"/>
   </g>
   <g id="patch_69">
    <path d="M 118.536573 193.758459 
C 105.658106 217.184304 102.612561 244.770509 110.070683 270.441533 
C 117.528805 296.112558 134.881672 317.772476 158.307516 330.650943 
C 181.733361 343.52941 209.319566 346.574955 234.99059 339.116833 
C 260.661615 331.658711 282.321533 314.305844 295.2 290.88 
C 308.078467 267.454156 311.124012 239.867951 303.66589 214.196926 
C 296.207768 188.525902 278.854901 166.865983 255.429057 153.987516 
C 232.003213 141.109049 204.417008 138.063504 178.745983 145.521626 
C 153.074959 152.979748 131.41504 170.332615 118.536573 193.758459 
L 118.536573 193.758459 
z
" clip-path="url(#p9514a50476)" style="fill: none; stroke: #0604ff; stroke-linejoin: miter"/>
   </g>
   <g id="patch_70">
    <path d="M 112.786866 205.042895 
C 101.404733 229.231159 100.097349 256.954161 109.152652 282.10623 
C 118.207954 307.258299 136.886616 327.785881 161.074881 339.168014 
C 185.263145 350.550147 212.986146 351.857531 238.138215 342.802229 
C 263.290285 333.746927 283.817867 315.068264 295.2 290.88 
C 306.582133 266.691736 307.889517 238.968734 298.834215 213.816665 
C 289.778912 188.664596 271.10025 168.137014 246.911986 156.754881 
C 222.723721 145.372747 195.00072 144.065364 169.848651 153.120666 
C 144.696581 162.175968 124.168999 180.854631 112.786866 205.042895 
L 112.786866 205.042895 
z
" clip-path="url(#p9514a50476)" style="fill: none; stroke: #0e00ff; stroke-linejoin: miter"/>
   </g>
   <g id="patch_71">
    <path d="M 107.75706 216.66609 
C 97.916181 241.521315 98.352119 269.271702 108.968864 293.805552 
C 119.585609 318.339403 139.516351 337.653635 164.371575 347.494515 
C 189.2268 357.335394 216.977187 356.899456 241.511038 346.282711 
C 266.044888 335.665966 285.359121 315.735224 295.2 290.88 
C 305.040879 266.024776 304.604942 238.274388 293.988196 213.740538 
C 283.371451 189.206687 263.440709 169.892455 238.585485 160.051575 
C 213.730261 150.210696 185.979873 150.646634 161.446023 161.263379 
C 136.912173 171.880124 117.59794 191.810866 107.75706 216.66609 
L 107.75706 216.66609 
z
" clip-path="url(#p9514a50476)" style="fill: none; stroke: #1f00ff; stroke-linejoin: miter"/>
   </g>
   <g id="patch_72">
    <path d="M 103.467006 228.582174 
C 95.206218 254.006266 97.383757 281.674522 109.520046 305.493329 
C 121.656334 329.312137 142.760498 347.336796 168.18459 355.597584 
C 193.608682 363.858372 221.276938 361.680833 245.095746 349.544545 
C 268.914553 337.408256 286.939212 316.304092 295.2 290.88 
C 303.460788 265.455908 301.283249 237.787652 289.146961 213.968845 
C 277.010672 190.150037 255.906508 172.125378 230.482416 163.86459 
C 205.058324 155.603802 177.390068 157.781341 153.571261 169.917629 
C 129.752453 182.053918 111.727795 203.158082 103.467006 228.582174 
L 103.467006 228.582174 
z
" clip-path="url(#p9514a50476)" style="fill: none; stroke: #3100ff; stroke-linejoin: miter"/>
   </g>
   <g id="patch_73">
    <path d="M 99.933635 240.744119 
C 93.285539 266.636741 97.196085 294.113672 110.804021 317.123434 
C 124.411957 340.133197 146.606254 356.797146 172.498877 363.445242 
C 198.391499 370.093338 225.86843 366.182791 248.878192 352.574856 
C 271.887955 338.96692 288.551904 316.772623 295.2 290.88 
C 301.848096 264.987377 297.937549 237.510447 284.329614 214.500685 
C 270.721678 191.490922 248.527381 174.826972 222.634758 168.178877 
C 196.742135 161.530781 169.265205 165.441327 146.255443 179.049263 
C 123.24568 192.657199 106.58173 214.851496 99.933635 240.744119 
L 99.933635 240.744119 
z
" clip-path="url(#p9514a50476)" style="fill: none; stroke: #3d00ff; stroke-linejoin: miter"/>
   </g>
   <g id="patch_74">
    <path d="M 97.17089 253.103927 
C 92.161724 279.362894 97.789845 306.540059 112.815723 328.649968 
C 127.841602 350.759877 151.038442 365.997353 177.297409 371.006518 
C 203.556376 376.015684 230.733541 370.387564 252.84345 355.361685 
C 274.953358 340.335807 290.190834 317.138967 295.2 290.88 
C 300.209166 264.621033 294.581045 237.443868 279.555167 215.333959 
C 264.529289 193.22405 241.332449 177.986574 215.073482 172.977409 
C 188.814515 167.968243 161.637349 173.596363 139.527441 188.622242 
C 117.417532 203.64812 102.180056 226.84496 97.17089 253.103927 
L 97.17089 253.103927 
z
" clip-path="url(#p9514a50476)" style="fill: none; stroke: #4f00ff; stroke-linejoin: miter"/>
   </g>
   <g id="patch_75">
    <path d="M 95.189676 265.61282 
C 91.839209 292.134499 99.162692 318.904644 115.547213 340.027441 
C 131.931734 361.150238 156.039569 374.901105 182.561248 378.251572 
C 209.082927 381.602039 235.853072 374.278556 256.975869 357.894035 
C 278.098666 341.509514 291.849533 317.401679 295.2 290.88 
C 298.550467 264.358321 291.226984 237.588176 274.842463 216.465379 
C 258.457942 195.342582 234.350107 181.591715 207.828428 178.241248 
C 181.306749 174.890781 154.536604 182.214264 133.413807 198.598785 
C 112.29101 214.983306 98.540143 239.091141 95.189676 265.61282 
L 95.189676 265.61282 
z
" clip-path="url(#p9514a50476)" style="fill: none; stroke: #5a00ff; stroke-linejoin: miter"/>
   </g>
   <g id="patch_76">
    <path d="M 93.997812 278.221431 
C 92.319266 304.901153 101.309209 331.158628 118.98771 351.210952 
C 136.666211 371.263275 161.589899 383.473264 188.269621 385.15181 
C 214.949343 386.830356 241.206818 377.840413 261.259142 360.161911 
C 281.311465 342.48341 293.521454 317.559722 295.2 290.88 
C 296.878546 264.200278 287.888603 237.942803 270.210102 217.89048 
C 252.5316 197.838156 227.607912 185.628167 200.92819 183.949621 
C 174.248468 182.271076 147.990993 191.261019 127.93867 208.93952 
C 107.886346 226.618021 95.676357 251.541709 93.997812 278.221431 
L 93.997812 278.221431 
z
" clip-path="url(#p9514a50476)" style="fill: none; stroke: #6c00ff; stroke-linejoin: miter"/>
   </g>
   <g id="patch_77">
    <path d="M 93.6 290.88 
C 93.6 317.612472 104.220924 343.253651 123.123636 362.156364 
C 142.026349 381.059076 167.667528 391.68 194.4 391.68 
C 221.132472 391.68 246.773651 381.059076 265.676364 362.156364 
C 284.579076 343.253651 295.2 317.612472 295.2 290.88 
C 295.2 264.147528 284.579076 238.506349 265.676364 219.603636 
C 246.773651 200.700924 221.132472 190.08 194.4 190.08 
C 167.667528 190.08 142.026349 200.700924 123.123636 219.603636 
C 104.220924 238.506349 93.6 264.147528 93.6 290.88 
L 93.6 290.88 
z
" clip-path="url(#p9514a50476)" style="fill: none; stroke: #7800ff; stroke-linejoin: miter"/>
   </g>
   <g id="patch_78">
    <path d="M 93.997812 303.538569 
C 95.676357 330.218291 107.886346 355.141979 127.93867 372.82048 
C 147.990993 390.498981 174.248468 399.488924 200.92819 397.810379 
C 227.607912 396.131833 252.5316 383.921844 270.210102 363.86952 
C 287.888603 343.817197 296.878546 317.559722 295.2 290.88 
C 293.521454 264.200278 281.311465 239.27659 261.259142 221.598089 
C 241.206818 203.919587 214.949343 194.929644 188.269621 196.60819 
C 161.589899 198.286736 136.666211 210.496725 118.98771 230.549048 
C 101.309209 250.601372 92.319266 276.858847 93.997812 303.538569 
L 93.997812 303.538569 
z
" clip-path="url(#p9514a50476)" style="fill: none; stroke: #8a00ff; stroke-linejoin: miter"/>
   </g>
   <g id="patch_79">
    <path d="M 95.189676 316.14718 
C 98.540143 342.668859 112.29101 366.776694 133.413807 383.161215 
C 154.536604 399.545736 181.306749 406.869219 207.828428 403.518752 
C 234.350107 400.168285 258.457942 386.417418 274.842463 365.294621 
C 291.226984 344.171824 298.550467 317.401679 295.2 290.88 
C 291.849533 264.358321 278.098666 240.250486 256.975869 223.865965 
C 235.853072 207.481444 209.082927 200.157961 182.561248 203.508428 
C 156.039569 206.858895 131.931734 220.609762 115.547213 241.732559 
C 99.162692 262.855356 91.839209 289.625501 95.189676 316.14718 
L 95.189676 316.14718 
z
" clip-path="url(#p9514a50476)" style="fill: none; stroke: #9b00ff; stroke-linejoin: miter"/>
   </g>
   <g id="patch_80">
    <path d="M 97.17089 328.656073 
C 102.180056 354.91504 117.417532 378.11188 139.527441 393.137758 
C 161.637349 408.163637 188.814515 413.791757 215.073482 408.782591 
C 241.332449 403.773426 264.529289 388.53595 279.555167 366.426041 
C 294.581045 344.316132 300.209166 317.138967 295.2 290.88 
C 290.190834 264.621033 274.953358 241.424193 252.84345 226.398315 
C 230.733541 211.372436 203.556376 205.744316 177.297409 210.753482 
C 151.038442 215.762647 127.841602 231.000123 112.815723 253.110032 
C 97.789845 275.219941 92.161724 302.397106 97.17089 328.656073 
L 97.17089 328.656073 
z
" clip-path="url(#p9514a50476)" style="fill: none; stroke: #a700ff; stroke-linejoin: miter"/>
   </g>
   <g id="patch_81">
    <path d="M 99.933635 341.015881 
C 106.58173 366.908504 123.24568 389.102801 146.255443 402.710737 
C 169.265205 416.318673 196.742135 420.229219 222.634758 413.581123 
C 248.527381 406.933028 270.721678 390.269078 284.329614 367.259315 
C 297.937549 344.249553 301.848096 316.772623 295.2 290.88 
C 288.551904 264.987377 271.887955 242.79308 248.878192 229.185144 
C 225.86843 215.577209 198.391499 211.666662 172.498877 218.314758 
C 146.606254 224.962854 124.411957 241.626803 110.804021 264.636566 
C 97.196085 287.646328 93.285539 315.123259 99.933635 341.015881 
L 99.933635 341.015881 
z
" clip-path="url(#p9514a50476)" style="fill: none; stroke: #b900ff; stroke-linejoin: miter"/>
   </g>
   <g id="patch_82">
    <path d="M 103.467006 353.177826 
C 111.727795 378.601918 129.752453 399.706082 153.571261 411.842371 
C 177.390068 423.978659 205.058324 426.156198 230.482416 417.89541 
C 255.906508 409.634622 277.010672 391.609963 289.146961 367.791155 
C 301.283249 343.972348 303.460788 316.304092 295.2 290.88 
C 286.939212 265.455908 268.914553 244.351744 245.095746 232.215455 
C 221.276938 220.079167 193.608682 217.901628 168.18459 226.162416 
C 142.760498 234.423204 121.656334 252.447863 109.520046 276.266671 
C 97.383757 300.085478 95.206218 327.753734 103.467006 353.177826 
L 103.467006 353.177826 
z
" clip-path="url(#p9514a50476)" style="fill: none; stroke: #c500ff; stroke-linejoin: miter"/>
   </g>
   <g id="patch_83">
    <path d="M 107.75706 365.09391 
C 117.59794 389.949134 136.912173 409.879876 161.446023 420.496621 
C 185.979873 431.113366 213.730261 431.549304 238.585485 421.708425 
C 263.440709 411.867545 283.371451 392.553313 293.988196 368.019462 
C 304.604942 343.485612 305.040879 315.735224 295.2 290.88 
C 285.359121 266.024776 266.044888 246.094034 241.511038 235.477289 
C 216.977187 224.860544 189.2268 224.424606 164.371575 234.265485 
C 139.516351 244.106365 119.585609 263.420597 108.968864 287.954448 
C 98.352119 312.488298 97.916181 340.238685 107.75706 365.09391 
L 107.75706 365.09391 
z
" clip-path="url(#p9514a50476)" style="fill: none; stroke: #d600ff; stroke-linejoin: miter"/>
   </g>
   <g id="patch_84">
    <path d="M 112.786866 376.717105 
C 124.168999 400.905369 144.696581 419.584032 169.848651 428.639334 
C 195.00072 437.694636 222.723721 436.387253 246.911986 425.005119 
C 271.10025 413.622986 289.778912 393.095404 298.834215 367.943335 
C 307.889517 342.791266 306.582133 315.068264 295.2 290.88 
C 283.817867 266.691736 263.290285 248.013073 238.138215 238.957771 
C 212.986146 229.902469 185.263145 231.209853 161.074881 242.591986 
C 136.886616 253.974119 118.207954 274.501701 109.152652 299.65377 
C 100.097349 324.805839 101.404733 352.528841 112.786866 376.717105 
L 112.786866 376.717105 
z
" clip-path="url(#p9514a50476)" style="fill: none; stroke: #e800ff; stroke-linejoin: miter"/>
   </g>
   <g id="patch_85">
    <path d="M 118.536573 388.001541 
C 131.41504 411.427385 153.074959 428.780252 178.745983 436.238374 
C 204.417008 443.696496 232.003213 440.650951 255.429057 427.772484 
C 278.854901 414.894017 296.207768 393.234098 303.66589 367.563074 
C 311.124012 341.892049 308.078467 314.305844 295.2 290.88 
C 282.321533 267.454156 260.661615 250.101289 234.99059 242.643167 
C 209.319566 235.185045 181.733361 238.23059 158.307516 251.109057 
C 134.881672 263.987524 117.528805 285.647442 110.070683 311.318467 
C 102.612561 336.989491 105.658106 364.575696 118.536573 388.001541 
L 118.536573 388.001541 
z
" clip-path="url(#p9514a50476)" style="fill: none; stroke: #f400ff; stroke-linejoin: miter"/>
   </g>
   <g id="patch_86">
    <path d="M 124.98349 398.902682 
C 139.307465 421.473655 162.014238 437.432242 188.102906 443.263751 
C 214.191574 449.095259 241.532113 444.323571 264.103086 429.999596 
C 286.674059 415.675621 302.632647 392.968848 308.464155 366.88018 
C 314.295663 340.791512 309.523975 313.450973 295.2 290.88 
C 280.876025 268.309027 258.169252 252.35044 232.080584 246.518931 
C 205.991916 240.687423 178.651377 245.459111 156.080404 259.783086 
C 133.509431 274.107061 117.550844 296.813834 111.719336 322.902502 
C 105.887827 348.99117 110.659515 376.331709 124.98349 398.902682 
L 124.98349 398.902682 
z
" clip-path="url(#p9514a50476)" style="fill: none; stroke: #fc00f5; stroke-linejoin: miter"/>
   </g>
   <g id="patch_87">
    <path d="M 132.102174 409.377507 
C 147.815127 431.004531 171.479142 445.505858 197.882493 449.687738 
C 224.285844 453.869618 251.272816 447.39062 272.89984 431.677666 
C 294.526865 415.964713 309.028192 392.300699 313.210072 365.897348 
C 317.391952 339.493996 310.912953 312.507025 295.2 290.88 
C 279.487047 269.252975 255.823032 254.751649 229.419681 250.569769 
C 203.01633 246.387889 176.029358 252.866887 154.402334 268.57984 
C 132.775309 284.292793 118.273982 307.956808 114.092102 334.360159 
C 109.910222 360.763511 116.389221 387.750482 132.102174 409.377507 
L 132.102174 409.377507 
z
" clip-path="url(#p9514a50476)" style="fill: none; stroke: #ff00ed; stroke-linejoin: miter"/>
   </g>
   <g id="patch_88">
    <path d="M 139.86453 419.384676 
C 156.90445 439.9824 181.432314 452.969236 208.046147 455.484984 
C 234.65998 458.000732 261.186879 449.839992 281.784603 432.800073 
C 302.382327 415.760154 315.369163 391.232289 317.884911 364.618456 
C 320.400659 338.004623 312.239919 311.477724 295.2 290.88 
C 278.160081 270.282276 253.632216 257.29544 227.018383 254.779692 
C 200.40455 252.263944 173.877651 260.424684 153.279927 277.464603 
C 132.682203 294.504523 119.695367 319.032387 117.179619 345.64622 
C 114.663871 372.260053 122.824611 398.786952 139.86453 419.384676 
L 139.86453 419.384676 
z
" clip-path="url(#p9514a50476)" style="fill: none; stroke: #ff00db; stroke-linejoin: miter"/>
   </g>
   <g id="patch_89">
    <path d="M 148.239925 428.884697 
C 166.539561 448.37183 191.834476 459.792922 218.553758 460.63261 
C 245.273039 461.472297 271.235177 451.662023 290.722311 433.362386 
C 310.209444 415.062749 321.630536 389.767834 322.470224 363.048553 
C 323.309911 336.329271 313.499637 310.367134 295.2 290.88 
C 276.900363 271.392866 251.605448 259.971774 224.886167 259.132087 
C 198.166885 258.2924 172.204748 268.102674 152.717614 286.402311 
C 133.23048 304.701947 121.809388 329.996862 120.969701 356.716144 
C 120.130014 383.435425 129.940288 409.397563 148.239925 428.884697 
L 148.239925 428.884697 
z
" clip-path="url(#p9514a50476)" style="fill: none; stroke: #ff00cf; stroke-linejoin: miter"/>
   </g>
   <g id="patch_90">
    <path d="M 157.195303 437.840075 
C 176.682437 456.139712 202.644575 465.949986 229.363856 465.110299 
C 256.083138 464.270612 281.378053 452.84952 299.677689 433.362386 
C 317.977326 413.875252 327.7876 387.913115 326.947913 361.193833 
C 326.108226 334.474552 314.687134 309.179637 295.2 290.88 
C 275.712866 272.580363 249.750729 262.770089 223.031447 263.609776 
C 196.312166 264.449464 171.017251 275.870556 152.717614 295.357689 
C 134.417977 314.844823 124.607703 340.806961 125.44739 367.526242 
C 126.287078 394.245524 137.70817 419.540439 157.195303 437.840075 
L 157.195303 437.840075 
z
" clip-path="url(#p9514a50476)" style="fill: none; stroke: #ff00bd; stroke-linejoin: miter"/>
   </g>
   <g id="patch_91">
    <path d="M 166.695324 446.21547 
C 187.293048 463.255389 213.819947 471.416129 240.43378 468.900381 
C 267.047613 466.384633 291.575477 453.397797 308.615397 432.800073 
C 325.655316 412.202349 333.816056 385.67545 331.300308 359.061617 
C 328.78456 332.447784 315.797724 307.919919 295.2 290.88 
C 274.602276 273.840081 248.075377 265.679341 221.461544 268.195089 
C 194.847711 270.710837 170.319846 283.697673 153.279927 304.295397 
C 136.240008 324.893121 128.079268 351.42002 130.595016 378.033853 
C 133.110764 404.647686 146.0976 429.17555 166.695324 446.21547 
L 166.695324 446.21547 
z
" clip-path="url(#p9514a50476)" style="fill: none; stroke: #ff00ac; stroke-linejoin: miter"/>
   </g>
   <g id="patch_92">
    <path d="M 176.702493 453.977826 
C 198.329518 469.690779 225.316489 476.169778 251.719841 471.987898 
C 278.123192 467.806018 301.787207 453.304691 317.50016 431.677666 
C 333.213113 410.050642 339.692111 383.06367 335.510231 356.660319 
C 331.328351 330.256968 316.827025 306.592953 295.2 290.88 
C 273.572975 275.167047 246.586004 268.688048 220.182652 272.869928 
C 193.779301 277.051808 170.115287 291.553135 154.402334 313.18016 
C 138.68938 334.807184 132.210382 361.794156 136.392262 388.197507 
C 140.574142 414.600858 155.075469 438.264873 176.702493 453.977826 
L 176.702493 453.977826 
z
" clip-path="url(#p9514a50476)" style="fill: none; stroke: #ff00a0; stroke-linejoin: miter"/>
   </g>
   <g id="patch_93">
    <path d="M 187.177318 461.09651 
C 209.748291 475.420485 237.08883 480.192173 263.177498 474.360664 
C 289.266166 468.529156 311.972939 452.570569 326.296914 429.999596 
C 340.620889 407.428623 345.392577 380.088084 339.561069 353.999416 
C 333.72956 327.910748 317.770973 305.203975 295.2 290.88 
C 272.629027 276.556025 245.288488 271.784337 219.19982 277.615845 
C 193.111152 283.447353 170.404379 299.405941 156.080404 321.976914 
C 141.756429 344.547887 136.984741 371.888426 142.816249 397.977094 
C 148.647758 424.065762 164.606345 446.772535 187.177318 461.09651 
L 187.177318 461.09651 
z
" clip-path="url(#p9514a50476)" style="fill: none; stroke: #ff008e; stroke-linejoin: miter"/>
   </g>
   <g id="patch_94">
    <path d="M 198.078459 467.543427 
C 221.504304 480.421894 249.090509 483.467439 274.761533 476.009317 
C 300.432558 468.551195 322.092476 451.198328 334.970943 427.772484 
C 347.84941 404.346639 350.894955 376.760434 343.436833 351.08941 
C 335.978711 325.418385 318.625844 303.758467 295.2 290.88 
C 271.774156 278.001533 244.187951 274.955988 218.516926 282.41411 
C 192.845902 289.872232 171.185983 307.225099 158.307516 330.650943 
C 145.429049 354.076787 142.383504 381.662992 149.841626 407.334017 
C 157.299748 433.005041 174.652615 454.66496 198.078459 467.543427 
L 198.078459 467.543427 
z
" clip-path="url(#p9514a50476)" style="fill: none; stroke: #ff0082; stroke-linejoin: miter"/>
   </g>
   <g id="patch_95">
    <path d="M 209.362895 473.293134 
C 233.551159 484.675267 261.274161 485.982651 286.42623 476.927348 
C 311.578299 467.872046 332.105881 449.193384 343.488014 425.005119 
C 354.870147 400.816855 356.177531 373.093854 347.122229 347.941785 
C 338.066927 322.789715 319.388264 302.262133 295.2 290.88 
C 271.011736 279.497867 243.288734 278.190483 218.136665 287.245785 
C 192.984596 296.301088 172.457014 314.97975 161.074881 339.168014 
C 149.692747 363.356279 148.385364 391.07928 157.440666 416.231349 
C 166.495968 441.383419 185.174631 461.911001 209.362895 473.293134 
L 209.362895 473.293134 
z
" clip-path="url(#p9514a50476)" style="fill: none; stroke: #ff0071; stroke-linejoin: miter"/>
   </g>
   <g id="patch_96">
    <path d="M 220.98609 478.32294 
C 245.841315 488.163819 273.591702 487.727881 298.125552 477.111136 
C 322.659403 466.494391 341.973635 446.563649 351.814515 421.708425 
C 361.655394 396.8532 361.219456 369.102813 350.602711 344.568962 
C 339.985966 320.035112 320.055224 300.720879 295.2 290.88 
C 270.344776 281.039121 242.594388 281.475058 218.060538 292.091804 
C 193.526687 302.708549 174.212455 322.639291 164.371575 347.494515 
C 154.530696 372.349739 154.966634 400.100127 165.583379 424.633977 
C 176.200124 449.167827 196.130866 468.48206 220.98609 478.32294 
L 220.98609 478.32294 
z
" clip-path="url(#p9514a50476)" style="fill: none; stroke: #ff005f; stroke-linejoin: miter"/>
   </g>
   <g id="patch_97">
    <path d="M 232.902174 482.612994 
C 258.326266 490.873782 285.994522 488.696243 309.813329 476.559954 
C 333.632137 464.423666 351.656796 443.319502 359.917584 417.89541 
C 368.178372 392.471318 366.000833 364.803062 353.864545 340.984254 
C 341.728256 317.165447 320.624092 299.140788 295.2 290.88 
C 269.775908 282.619212 242.107652 284.796751 218.288845 296.933039 
C 194.470037 309.069328 176.445378 330.173492 168.18459 355.597584 
C 159.923802 381.021676 162.101341 408.689932 174.237629 432.508739 
C 186.373918 456.327547 207.478082 474.352205 232.902174 482.612994 
L 232.902174 482.612994 
z
" clip-path="url(#p9514a50476)" style="fill: none; stroke: #ff0053; stroke-linejoin: miter"/>
   </g>
   <g id="patch_98">
    <path d="M 245.064119 486.146365 
C 270.956741 492.794461 298.433672 488.883915 321.443434 475.275979 
C 344.453197 461.668043 361.117146 439.473746 367.765242 413.581123 
C 374.413338 387.688501 370.502791 360.21157 356.894856 337.201808 
C 343.28692 314.192045 321.092623 297.528096 295.2 290.88 
C 269.307377 284.231904 241.830447 288.142451 218.820685 301.750386 
C 195.810922 315.358322 179.146972 337.552619 172.498877 363.445242 
C 165.850781 389.337865 169.761327 416.814795 183.369263 439.824557 
C 196.977199 462.83432 219.171496 479.49827 245.064119 486.146365 
L 245.064119 486.146365 
z
" clip-path="url(#p9514a50476)" style="fill: none; stroke: #ff0041; stroke-linejoin: miter"/>
   </g>
   <g id="patch_99">
    <path d="M 257.423927 488.90911 
C 283.682894 493.918276 310.860059 488.290155 332.969968 473.264277 
C 355.079877 458.238398 370.317353 435.041558 375.326518 408.782591 
C 380.335684 382.523624 374.707564 355.346459 359.681685 333.23655 
C 344.655807 311.126642 321.458967 295.889166 295.2 290.88 
C 268.941033 285.870834 241.763868 291.498955 219.653959 306.524833 
C 197.54405 321.550711 182.306574 344.747551 177.297409 371.006518 
C 172.288243 397.265485 177.916363 424.442651 192.942242 446.552559 
C 207.96812 468.662468 231.16496 483.899944 257.423927 488.90911 
L 257.423927 488.90911 
z
" clip-path="url(#p9514a50476)" style="fill: none; stroke: #ff0035; stroke-linejoin: miter"/>
   </g>
   <g id="patch_100">
    <path d="M 269.93282 490.890324 
C 296.454499 494.240791 323.224644 486.917308 344.347441 470.532787 
C 365.470238 454.148266 379.221105 430.040431 382.571572 403.518752 
C 385.922039 376.997073 378.598556 350.226928 362.214035 329.104131 
C 345.829514 307.981334 321.721679 294.230467 295.2 290.88 
C 268.678321 287.529533 241.908176 294.853016 220.785379 311.237537 
C 199.662582 327.622058 185.911715 351.729893 182.561248 378.251572 
C 179.210781 404.773251 186.534264 431.543396 202.918785 452.666193 
C 219.303306 473.78899 243.411141 487.539857 269.93282 490.890324 
L 269.93282 490.890324 
z
" clip-path="url(#p9514a50476)" style="fill: none; stroke: #ff0024; stroke-linejoin: miter"/>
   </g>
   <g id="patch_101">
    <path d="M 282.541431 492.082188 
C 309.221153 493.760734 335.478628 484.770791 355.530952 467.09229 
C 375.583275 449.413789 387.793264 424.490101 389.47181 397.810379 
C 391.150356 371.130657 382.160413 344.873182 364.481911 324.820858 
C 346.80341 304.768535 321.879722 292.558546 295.2 290.88 
C 268.520278 289.201454 242.262803 298.191397 222.21048 315.869898 
C 202.158156 333.5484 189.948167 358.472088 188.269621 385.15181 
C 186.591076 411.831532 195.581019 438.089007 213.25952 458.14133 
C 230.938021 478.193654 255.861709 490.403643 282.541431 492.082188 
L 282.541431 492.082188 
z
" clip-path="url(#p9514a50476)" style="fill: none; stroke: #ff0018; stroke-linejoin: miter"/>
   </g>
   <g id="line2d_1">
    <path d="M 295.2 290.88 
" clip-path="url(#p9514a50476)" style="fill: none; stroke: #ff0000; stroke-width: 1.5; stroke-linecap: square"/>
    <defs>
     <path id="m6078a2262e" d="M 0 5 
C 1.326016 5 2.597899 4.473168 3.535534 3.535534 
C 4.473168 2.597899 5 1.326016 5 0 
C 5 -1.326016 4.473168 -2.597899 3.535534 -3.535534 
C 2.597899 -4.473168 1.326016 -5 0 -5 
C -1.326016 -5 -2.597899 -4.473168 -3.535534 -3.535534 
C -4.473168 -2.597899 -5 -1.326016 -5 0 
C -5 1.326016 -4.473168 2.597899 -3.535534 3.535534 
C -2.597899 4.473168 -1.326016 5 0 5 
z
" style="stroke: #ff0000"/>
    </defs>
    <g clip-path="url(#p9514a50476)">
     <use xlink:href="#m6078a2262e" x="295.2" y="290.88" style="fill: #ff0000; stroke: #ff0000"/>
    </g>
   </g>
  </g>
 </g>
 <defs>
  <clipPath id="p9514a50476">
   <rect x="73.44" y="69.12" width="443.52" height="443.52"/>
  </clipPath>
 </defs>
</svg>
