<?xml version="1.0" encoding="utf-8" standalone="no"?>
<!DOCTYPE svg PUBLIC "-//W3C//DTD SVG 1.1//EN"
  "http://www.w3.org/Graphics/SVG/1.1/DTD/svg11.dtd">
<svg xmlns:xlink="http://www.w3.org/1999/xlink" width="460.8pt" height="345.6pt" viewBox="0 0 460.8 345.6" xmlns="http://www.w3.org/2000/svg" version="1.1">
 <metadata>
  <rdf:RDF xmlns:dc="http://purl.org/dc/elements/1.1/" xmlns:cc="http://creativecommons.org/ns#" xmlns:rdf="http://www.w3.org/1999/02/22-rdf-syntax-ns#">
   <cc:Work>
    <dc:type rdf:resource="http://purl.org/dc/dcmitype/StillImage"/>
    <dc:date>2025-11-29T13:16:34.715170</dc:date>
    <dc:format>image/svg+xml</dc:format>
    <dc:creator>
     <cc:Agent>
      <dc:title>Matplotlib v3.10.6, https://matplotlib.org/</dc:title>
     </cc:Agent>
    </dc:creator>
   </cc:Work>
  </rdf:RDF>
 </metadata>
 <defs>
  <style type="text/css">*{stroke-linejoin: round; stroke-linecap: butt}</style>
 </defs>
 <g id="figure_1">
  <g id="patch_1">
   <path d="M 0 345.6 
L 460.8 345.6 
L 460.8 0 
L 0 0 
z
" style="fill: #ffffff"/>
  </g>
  <g id="axes_1">
   <g id="patch_2">
    <path d="M 369.216 174.528 
C 369.216 157.055246 365.774248 139.752393 359.087715 123.609673 
C 352.401182 107.466954 342.599903 92.798303 330.2448 80.4432 
C 317.889697 68.088097 303.221046 58.286818 287.078327 51.600285 
C 270.935607 44.913752 253.632754 41.472 236.16 41.472 
C 218.687246 41.472 201.384393 44.913752 185.241673 51.600285 
C 169.098954 58.286818 154.430303 68.088097 142.0752 80.4432 
C 129.720097 92.798303 119.918818 107.466954 113.232285 123.609673 
C 106.545752 139.752393 103.104 157.055246 103.104 174.528 
C 103.104 192.000754 106.545752 209.303607 113.232285 225.446327 
C 119.918818 241.589046 129.720097 256.257697 142.0752 268.6128 
C 154.430303 280.967903 169.098954 290.769182 185.241673 297.455715 
C 201.384393 304.142248 218.687246 307.584 236.16 307.584 
C 253.632754 307.584 270.935607 304.142248 287.078327 297.455715 
C 303.221046 290.769182 317.889697 280.967903 330.2448 268.6128 
C 342.599903 256.257697 352.401182 241.589046 359.087715 225.446327 
C 365.774248 209.303607 369.216 192.000754 369.216 174.528 
M 236.16 174.528 
C 236.16 174.528 236.16 174.528 236.16 174.528 
C 236.16 174.528 236.16 174.528 236.16 174.528 
C 236.16 174.528 236.16 174.528 236.16 174.528 
C 236.16 174.528 236.16 174.528 236.16 174.528 
C 236.16 174.528 236.16 174.528 236.16 174.528 
C 236.16 174.528 236.16 174.528 236.16 174.528 
C 236.16 174.528 236.16 174.528 236.16 174.528 
C 236.16 174.528 236.16 174.528 236.16 174.528 
C 236.16 174.528 236.16 174.528 236.16 174.528 
C 236.16 174.528 236.16 174.528 236.16 174.528 
C 236.16 174.528 236.16 174.528 236.16 174.528 
C 236.16 174.528 236.16 174.528 236.16 174.528 
C 236.16 174.528 236.16 174.528 236.16 174.528 
C 236.16 174.528 236.16 174.528 236.16 174.528 
C 236.16 174.528 236.16 174.528 236.16 174.528 
C 236.16 174.528 236.16 174.528 236.16 174.528 
z
" style="fill: #ffffff"/>
   </g>
   <g id="matplotlib.axis_1">
    <g id="xtick_1">
     <g id="line2d_1">
      <path d="M 236.16 174.528 
L 369.216 174.528 
" clip-path="url(#pfb4f067798)" style="fill: none; stroke: #b0b0b0; stroke-width: 0.8; stroke-linecap: square"/>
     </g>
     <g id="text_1">
      <!-- 0° -->
      <g transform="translate(377.53475 177.287375) scale(0.1 -0.1)">
       <defs>
        <path id="DejaVuSans-30" d="M 2034 4250 
Q 1547 4250 1301 3770 
Q 1056 3291 1056 2328 
Q 1056 1369 1301 889 
Q 1547 409 2034 409 
Q 2525 409 2770 889 
Q 3016 1369 3016 2328 
Q 3016 3291 2770 3770 
Q 2525 4250 2034 4250 
z
M 2034 4750 
Q 2819 4750 3233 4129 
Q 3647 3509 3647 2328 
Q 3647 1150 3233 529 
Q 2819 -91 2034 -91 
Q 1250 -91 836 529 
Q 422 1150 422 2328 
Q 422 3509 836 4129 
Q 1250 4750 2034 4750 
z
" transform="scale(0.015625)"/>
        <path id="DejaVuSans-b0" d="M 1600 4347 
Q 1350 4347 1178 4173 
Q 1006 4000 1006 3750 
Q 1006 3503 1178 3333 
Q 1350 3163 1600 3163 
Q 1850 3163 2022 3333 
Q 2194 3503 2194 3750 
Q 2194 3997 2020 4172 
Q 1847 4347 1600 4347 
z
M 1600 4750 
Q 1800 4750 1984 4673 
Q 2169 4597 2303 4453 
Q 2447 4313 2519 4134 
Q 2591 3956 2591 3750 
Q 2591 3338 2302 3052 
Q 2013 2766 1594 2766 
Q 1172 2766 890 3047 
Q 609 3328 609 3750 
Q 609 4169 896 4459 
Q 1184 4750 1600 4750 
z
" transform="scale(0.015625)"/>
       </defs>
       <use xlink:href="#DejaVuSans-30"/>
       <use xlink:href="#DejaVuSans-b0" transform="translate(63.623047 0)"/>
      </g>
     </g>
    </g>
    <g id="xtick_2">
     <g id="line2d_2">
      <path d="M 236.16 174.528 
L 330.2448 80.4432 
" clip-path="url(#pfb4f067798)" style="fill: none; stroke: #b0b0b0; stroke-width: 0.8; stroke-linecap: square"/>
     </g>
     <g id="text_2">
      <!-- 45° -->
      <g transform="translate(331.281795 73.30308) scale(0.1 -0.1)">
       <defs>
        <path id="DejaVuSans-34" d="M 2419 4116 
L 825 1625 
L 2419 1625 
L 2419 4116 
z
M 2253 4666 
L 3047 4666 
L 3047 1625 
L 3713 1625 
L 3713 1100 
L 3047 1100 
L 3047 0 
L 2419 0 
L 2419 1100 
L 313 1100 
L 313 1709 
L 2253 4666 
z
" transform="scale(0.015625)"/>
        <path id="DejaVuSans-35" d="M 691 4666 
L 3169 4666 
L 3169 4134 
L 1269 4134 
L 1269 2991 
Q 1406 3038 1543 3061 
Q 1681 3084 1819 3084 
Q 2600 3084 3056 2656 
Q 3513 2228 3513 1497 
Q 3513 744 3044 326 
Q 2575 -91 1722 -91 
Q 1428 -91 1123 -41 
Q 819 9 494 109 
L 494 744 
Q 775 591 1075 516 
Q 1375 441 1709 441 
Q 2250 441 2565 725 
Q 2881 1009 2881 1497 
Q 2881 1984 2565 2268 
Q 2250 2553 1709 2553 
Q 1456 2553 1204 2497 
Q 953 2441 691 2322 
L 691 4666 
z
" transform="scale(0.015625)"/>
       </defs>
       <use xlink:href="#DejaVuSans-34"/>
       <use xlink:href="#DejaVuSans-35" transform="translate(63.623047 0)"/>
       <use xlink:href="#DejaVuSans-b0" transform="translate(127.246094 0)"/>
      </g>
     </g>
    </g>
    <g id="xtick_3">
     <g id="line2d_3">
      <path d="M 236.16 174.528 
L 236.16 41.472 
" clip-path="url(#pfb4f067798)" style="fill: none; stroke: #b0b0b0; stroke-width: 0.8; stroke-linecap: square"/>
     </g>
     <g id="text_3">
      <!-- 90° -->
      <g transform="translate(227.2975 30.231375) scale(0.1 -0.1)">
       <defs>
        <path id="DejaVuSans-39" d="M 703 97 
L 703 672 
Q 941 559 1184 500 
Q 1428 441 1663 441 
Q 2288 441 2617 861 
Q 2947 1281 2994 2138 
Q 2813 1869 2534 1725 
Q 2256 1581 1919 1581 
Q 1219 1581 811 2004 
Q 403 2428 403 3163 
Q 403 3881 828 4315 
Q 1253 4750 1959 4750 
Q 2769 4750 3195 4129 
Q 3622 3509 3622 2328 
Q 3622 1225 3098 567 
Q 2575 -91 1691 -91 
Q 1453 -91 1209 -44 
Q 966 3 703 97 
z
M 1959 2075 
Q 2384 2075 2632 2365 
Q 2881 2656 2881 3163 
Q 2881 3666 2632 3958 
Q 2384 4250 1959 4250 
Q 1534 4250 1286 3958 
Q 1038 3666 1038 3163 
Q 1038 2656 1286 2365 
Q 1534 2075 1959 2075 
z
" transform="scale(0.015625)"/>
       </defs>
       <use xlink:href="#DejaVuSans-39"/>
       <use xlink:href="#DejaVuSans-30" transform="translate(63.623047 0)"/>
       <use xlink:href="#DejaVuSans-b0" transform="translate(127.246094 0)"/>
      </g>
     </g>
    </g>
    <g id="xtick_4">
     <g id="line2d_4">
      <path d="M 236.16 174.528 
L 142.0752 80.4432 
" clip-path="url(#pfb4f067798)" style="fill: none; stroke: #b0b0b0; stroke-width: 0.8; stroke-linecap: square"/>
     </g>
     <g id="text_4">
      <!-- 135° -->
      <g transform="translate(120.131955 73.30308) scale(0.1 -0.1)">
       <defs>
        <path id="DejaVuSans-31" d="M 794 531 
L 1825 531 
L 1825 4091 
L 703 3866 
L 703 4441 
L 1819 4666 
L 2450 4666 
L 2450 531 
L 3481 531 
L 3481 0 
L 794 0 
L 794 531 
z
" transform="scale(0.015625)"/>
        <path id="DejaVuSans-33" d="M 2597 2516 
Q 3050 2419 3304 2112 
Q 3559 1806 3559 1356 
Q 3559 666 3084 287 
Q 2609 -91 1734 -91 
Q 1441 -91 1130 -33 
Q 819 25 488 141 
L 488 750 
Q 750 597 1062 519 
Q 1375 441 1716 441 
Q 2309 441 2620 675 
Q 2931 909 2931 1356 
Q 2931 1769 2642 2001 
Q 2353 2234 1838 2234 
L 1294 2234 
L 1294 2753 
L 1863 2753 
Q 2328 2753 2575 2939 
Q 2822 3125 2822 3475 
Q 2822 3834 2567 4026 
Q 2313 4219 1838 4219 
Q 1578 4219 1281 4162 
Q 984 4106 628 3988 
L 628 4550 
Q 988 4650 1302 4700 
Q 1616 4750 1894 4750 
Q 2613 4750 3031 4423 
Q 3450 4097 3450 3541 
Q 3450 3153 3228 2886 
Q 3006 2619 2597 2516 
z
" transform="scale(0.015625)"/>
       </defs>
       <use xlink:href="#DejaVuSans-31"/>
       <use xlink:href="#DejaVuSans-33" transform="translate(63.623047 0)"/>
       <use xlink:href="#DejaVuSans-35" transform="translate(127.246094 0)"/>
       <use xlink:href="#DejaVuSans-b0" transform="translate(190.869141 0)"/>
      </g>
     </g>
    </g>
    <g id="xtick_5">
     <g id="line2d_5">
      <path d="M 236.16 174.528 
L 103.104 174.528 
" clip-path="url(#pfb4f067798)" style="fill: none; stroke: #b0b0b0; stroke-width: 0.8; stroke-linecap: square"/>
     </g>
     <g id="text_5">
      <!-- 180° -->
      <g transform="translate(77.06025 177.287375) scale(0.1 -0.1)">
       <defs>
        <path id="DejaVuSans-38" d="M 2034 2216 
Q 1584 2216 1326 1975 
Q 1069 1734 1069 1313 
Q 1069 891 1326 650 
Q 1584 409 2034 409 
Q 2484 409 2743 651 
Q 3003 894 3003 1313 
Q 3003 1734 2745 1975 
Q 2488 2216 2034 2216 
z
M 1403 2484 
Q 997 2584 770 2862 
Q 544 3141 544 3541 
Q 544 4100 942 4425 
Q 1341 4750 2034 4750 
Q 2731 4750 3128 4425 
Q 3525 4100 3525 3541 
Q 3525 3141 3298 2862 
Q 3072 2584 2669 2484 
Q 3125 2378 3379 2068 
Q 3634 1759 3634 1313 
Q 3634 634 3220 271 
Q 2806 -91 2034 -91 
Q 1263 -91 848 271 
Q 434 634 434 1313 
Q 434 1759 690 2068 
Q 947 2378 1403 2484 
z
M 1172 3481 
Q 1172 3119 1398 2916 
Q 1625 2713 2034 2713 
Q 2441 2713 2670 2916 
Q 2900 3119 2900 3481 
Q 2900 3844 2670 4047 
Q 2441 4250 2034 4250 
Q 1625 4250 1398 4047 
Q 1172 3844 1172 3481 
z
" transform="scale(0.015625)"/>
       </defs>
       <use xlink:href="#DejaVuSans-31"/>
       <use xlink:href="#DejaVuSans-38" transform="translate(63.623047 0)"/>
       <use xlink:href="#DejaVuSans-30" transform="translate(127.246094 0)"/>
       <use xlink:href="#DejaVuSans-b0" transform="translate(190.869141 0)"/>
      </g>
     </g>
    </g>
    <g id="xtick_6">
     <g id="line2d_6">
      <path d="M 236.16 174.528 
L 142.0752 268.6128 
" clip-path="url(#pfb4f067798)" style="fill: none; stroke: #b0b0b0; stroke-width: 0.8; stroke-linecap: square"/>
     </g>
     <g id="text_6">
      <!-- 225° -->
      <g transform="translate(120.131955 281.27167) scale(0.1 -0.1)">
       <defs>
        <path id="DejaVuSans-32" d="M 1228 531 
L 3431 531 
L 3431 0 
L 469 0 
L 469 531 
Q 828 903 1448 1529 
Q 2069 2156 2228 2338 
Q 2531 2678 2651 2914 
Q 2772 3150 2772 3378 
Q 2772 3750 2511 3984 
Q 2250 4219 1831 4219 
Q 1534 4219 1204 4116 
Q 875 4013 500 3803 
L 500 4441 
Q 881 4594 1212 4672 
Q 1544 4750 1819 4750 
Q 2544 4750 2975 4387 
Q 3406 4025 3406 3419 
Q 3406 3131 3298 2873 
Q 3191 2616 2906 2266 
Q 2828 2175 2409 1742 
Q 1991 1309 1228 531 
z
" transform="scale(0.015625)"/>
       </defs>
       <use xlink:href="#DejaVuSans-32"/>
       <use xlink:href="#DejaVuSans-32" transform="translate(63.623047 0)"/>
       <use xlink:href="#DejaVuSans-35" transform="translate(127.246094 0)"/>
       <use xlink:href="#DejaVuSans-b0" transform="translate(190.869141 0)"/>
      </g>
     </g>
    </g>
    <g id="xtick_7">
     <g id="line2d_7">
      <path d="M 236.16 174.528 
L 236.16 307.584 
" clip-path="url(#pfb4f067798)" style="fill: none; stroke: #b0b0b0; stroke-width: 0.8; stroke-linecap: square"/>
     </g>
     <g id="text_7">
      <!-- 270° -->
      <g transform="translate(224.11625 324.343375) scale(0.1 -0.1)">
       <defs>
        <path id="DejaVuSans-37" d="M 525 4666 
L 3525 4666 
L 3525 4397 
L 1831 0 
L 1172 0 
L 2766 4134 
L 525 4134 
L 525 4666 
z
" transform="scale(0.015625)"/>
       </defs>
       <use xlink:href="#DejaVuSans-32"/>
       <use xlink:href="#DejaVuSans-37" transform="translate(63.623047 0)"/>
       <use xlink:href="#DejaVuSans-30" transform="translate(127.246094 0)"/>
       <use xlink:href="#DejaVuSans-b0" transform="translate(190.869141 0)"/>
      </g>
     </g>
    </g>
    <g id="xtick_8">
     <g id="line2d_8">
      <path d="M 236.16 174.528 
L 330.2448 268.6128 
" clip-path="url(#pfb4f067798)" style="fill: none; stroke: #b0b0b0; stroke-width: 0.8; stroke-linecap: square"/>
     </g>
     <g id="text_8">
      <!-- 315° -->
      <g transform="translate(328.100545 281.27167) scale(0.1 -0.1)">
       <use xlink:href="#DejaVuSans-33"/>
       <use xlink:href="#DejaVuSans-31" transform="translate(63.623047 0)"/>
       <use xlink:href="#DejaVuSans-35" transform="translate(127.246094 0)"/>
       <use xlink:href="#DejaVuSans-b0" transform="translate(190.869141 0)"/>
      </g>
     </g>
    </g>
   </g>
   <g id="matplotlib.axis_2">
    <g id="ytick_1">
     <g id="line2d_9">
      <path d="M 257.62073 174.528 
C 257.62073 171.709803 257.065606 168.919009 255.987129 166.315334 
C 254.908652 163.711659 253.327794 161.345739 251.335028 159.352972 
C 249.342261 157.360206 246.976341 155.779348 244.372666 154.700871 
C 241.768991 153.622394 238.978197 153.06727 236.16 153.06727 
C 233.341803 153.06727 230.551009 153.622394 227.947334 154.700871 
C 225.343659 155.779348 222.977739 157.360206 220.984972 159.352972 
C 218.992206 161.345739 217.411348 163.711659 216.332871 166.315334 
C 215.254394 168.919009 214.69927 171.709803 214.69927 174.528 
C 214.69927 177.346197 215.254394 180.136991 216.332871 182.740666 
C 217.411348 185.344341 218.992206 187.710261 220.984972 189.703028 
C 222.977739 191.695794 225.343659 193.276652 227.947334 194.355129 
C 230.551009 195.433606 233.341803 195.98873 236.16 195.98873 
C 238.978197 195.98873 241.768991 195.433606 244.372666 194.355129 
C 246.976341 193.276652 249.342261 191.695794 251.335028 189.703028 
C 253.327794 187.710261 254.908652 185.344341 255.987129 182.740666 
C 257.065606 180.136991 257.62073 177.346197 257.62073 174.528 
" clip-path="url(#pfb4f067798)" style="fill: none; stroke: #b0b0b0; stroke-width: 0.8; stroke-linecap: square"/>
     </g>
     <g id="text_9">
      <!-- 0.5 -->
      <g transform="translate(255.987129 164.235647) scale(0.1 -0.1)">
       <defs>
        <path id="DejaVuSans-2e" d="M 684 794 
L 1344 794 
L 1344 0 
L 684 0 
L 684 794 
z
" transform="scale(0.015625)"/>
       </defs>
       <use xlink:href="#DejaVuSans-30"/>
       <use xlink:href="#DejaVuSans-2e" transform="translate(63.623047 0)"/>
       <use xlink:href="#DejaVuSans-35" transform="translate(95.410156 0)"/>
      </g>
     </g>
    </g>
    <g id="ytick_2">
     <g id="line2d_10">
      <path d="M 279.08146 174.528 
C 279.08146 168.891606 277.971213 163.310018 275.814258 158.102668 
C 273.657303 152.895319 270.495588 148.163477 266.510055 144.177945 
C 262.524523 140.192412 257.792681 137.030697 252.585332 134.873742 
C 247.377982 132.716787 241.796394 131.60654 236.16 131.60654 
C 230.523606 131.60654 224.942018 132.716787 219.734668 134.873742 
C 214.527319 137.030697 209.795477 140.192412 205.809945 144.177945 
C 201.824412 148.163477 198.662697 152.895319 196.505742 158.102668 
C 194.348787 163.310018 193.23854 168.891606 193.23854 174.528 
C 193.23854 180.164394 194.348787 185.745982 196.505742 190.953332 
C 198.662697 196.160681 201.824412 200.892523 205.809945 204.878055 
C 209.795477 208.863588 214.527319 212.025303 219.734668 214.182258 
C 224.942018 216.339213 230.523606 217.44946 236.16 217.44946 
C 241.796394 217.44946 247.377982 216.339213 252.585332 214.182258 
C 257.792681 212.025303 262.524523 208.863588 266.510055 204.878055 
C 270.495588 200.892523 273.657303 196.160681 275.814258 190.953332 
C 277.971213 185.745982 279.08146 180.164394 279.08146 174.528 
" clip-path="url(#pfb4f067798)" style="fill: none; stroke: #b0b0b0; stroke-width: 0.8; stroke-linecap: square"/>
     </g>
     <g id="text_10">
      <!-- 1.0 -->
      <g transform="translate(275.814258 156.022981) scale(0.1 -0.1)">
       <use xlink:href="#DejaVuSans-31"/>
       <use xlink:href="#DejaVuSans-2e" transform="translate(63.623047 0)"/>
       <use xlink:href="#DejaVuSans-30" transform="translate(95.410156 0)"/>
      </g>
     </g>
    </g>
    <g id="ytick_3">
     <g id="line2d_11">
      <path d="M 300.54219 174.528 
C 300.54219 166.073408 298.876819 157.701027 295.641387 149.890003 
C 292.405955 142.078978 287.663382 134.981216 281.685083 129.002917 
C 275.706784 123.024618 268.609022 118.282045 260.797997 115.046613 
C 252.986973 111.811181 244.614592 110.14581 236.16 110.14581 
C 227.705408 110.14581 219.333027 111.811181 211.522003 115.046613 
C 203.710978 118.282045 196.613216 123.024618 190.634917 129.002917 
C 184.656618 134.981216 179.914045 142.078978 176.678613 149.890003 
C 173.443181 157.701027 171.77781 166.073408 171.77781 174.528 
C 171.77781 182.982592 173.443181 191.354973 176.678613 199.165997 
C 179.914045 206.977022 184.656618 214.074784 190.634917 220.053083 
C 196.613216 226.031382 203.710978 230.773955 211.522003 234.009387 
C 219.333027 237.244819 227.705408 238.91019 236.16 238.91019 
C 244.614592 238.91019 252.986973 237.244819 260.797997 234.009387 
C 268.609022 230.773955 275.706784 226.031382 281.685083 220.053083 
C 287.663382 214.074784 292.405955 206.977022 295.641387 199.165997 
C 298.876819 191.354973 300.54219 182.982592 300.54219 174.528 
" clip-path="url(#pfb4f067798)" style="fill: none; stroke: #b0b0b0; stroke-width: 0.8; stroke-linecap: square"/>
     </g>
     <g id="text_11">
      <!-- 1.5 -->
      <g transform="translate(295.641387 147.810315) scale(0.1 -0.1)">
       <use xlink:href="#DejaVuSans-31"/>
       <use xlink:href="#DejaVuSans-2e" transform="translate(63.623047 0)"/>
       <use xlink:href="#DejaVuSans-35" transform="translate(95.410156 0)"/>
      </g>
     </g>
    </g>
    <g id="ytick_4">
     <g id="line2d_12">
      <path d="M 322.00292 174.528 
C 322.00292 163.255211 319.782426 152.092036 315.468516 141.677337 
C 311.154607 131.262638 304.831176 121.798955 296.860111 113.827889 
C 288.889045 105.856824 279.425362 99.533393 269.010663 95.219484 
C 258.595964 90.905574 247.432789 88.68508 236.16 88.68508 
C 224.887211 88.68508 213.724036 90.905574 203.309337 95.219484 
C 192.894638 99.533393 183.430955 105.856824 175.459889 113.827889 
C 167.488824 121.798955 161.165393 131.262638 156.851484 141.677337 
C 152.537574 152.092036 150.31708 163.255211 150.31708 174.528 
C 150.31708 185.800789 152.537574 196.963964 156.851484 207.378663 
C 161.165393 217.793362 167.488824 227.257045 175.459889 235.228111 
C 183.430955 243.199176 192.894638 249.522607 203.309337 253.836516 
C 213.724036 258.150426 224.887211 260.37092 236.16 260.37092 
C 247.432789 260.37092 258.595964 258.150426 269.010663 253.836516 
C 279.425362 249.522607 288.889045 243.199176 296.860111 235.228111 
C 304.831176 227.257045 311.154607 217.793362 315.468516 207.378663 
C 319.782426 196.963964 322.00292 185.800789 322.00292 174.528 
" clip-path="url(#pfb4f067798)" style="fill: none; stroke: #b0b0b0; stroke-width: 0.8; stroke-linecap: square"/>
     </g>
     <g id="text_12">
      <!-- 2.0 -->
      <g transform="translate(315.468516 139.597649) scale(0.1 -0.1)">
       <use xlink:href="#DejaVuSans-32"/>
       <use xlink:href="#DejaVuSans-2e" transform="translate(63.623047 0)"/>
       <use xlink:href="#DejaVuSans-30" transform="translate(95.410156 0)"/>
      </g>
     </g>
    </g>
    <g id="ytick_5">
     <g id="line2d_13">
      <path d="M 343.463649 174.528 
C 343.463649 160.437014 340.688032 146.483045 335.295645 133.464671 
C 329.903259 120.446297 321.99897 108.616694 312.035138 98.652862 
C 302.071306 88.68903 290.241703 80.784741 277.223329 75.392355 
C 264.204955 69.999968 250.250986 67.224351 236.16 67.224351 
C 222.069014 67.224351 208.115045 69.999968 195.096671 75.392355 
C 182.078297 80.784741 170.248694 88.68903 160.284862 98.652862 
C 150.32103 108.616694 142.416741 120.446297 137.024355 133.464671 
C 131.631968 146.483045 128.856351 160.437014 128.856351 174.528 
C 128.856351 188.618986 131.631968 202.572955 137.024355 215.591329 
C 142.416741 228.609703 150.32103 240.439306 160.284862 250.403138 
C 170.248694 260.36697 182.078297 268.271259 195.096671 273.663645 
C 208.115045 279.056032 222.069014 281.831649 236.16 281.831649 
C 250.250986 281.831649 264.204955 279.056032 277.223329 273.663645 
C 290.241703 268.271259 302.071306 260.36697 312.035138 250.403138 
C 321.99897 240.439306 329.903259 228.609703 335.295645 215.591329 
C 340.688032 202.572955 343.463649 188.618986 343.463649 174.528 
" clip-path="url(#pfb4f067798)" style="fill: none; stroke: #b0b0b0; stroke-width: 0.8; stroke-linecap: square"/>
     </g>
     <g id="text_13">
      <!-- 2.5 -->
      <g transform="translate(335.295645 131.384984) scale(0.1 -0.1)">
       <use xlink:href="#DejaVuSans-32"/>
       <use xlink:href="#DejaVuSans-2e" transform="translate(63.623047 0)"/>
       <use xlink:href="#DejaVuSans-35" transform="translate(95.410156 0)"/>
      </g>
     </g>
    </g>
    <g id="ytick_6">
     <g id="line2d_14">
      <path d="M 364.924379 174.528 
C 364.924379 157.618817 361.593639 140.874054 355.122775 125.252005 
C 348.65191 109.629957 339.166764 95.434432 327.210166 83.477834 
C 315.253568 71.521236 301.058043 62.03609 285.435995 55.565225 
C 269.813946 49.094361 253.069183 45.763621 236.16 45.763621 
C 219.250817 45.763621 202.506054 49.094361 186.884005 55.565225 
C 171.261957 62.03609 157.066432 71.521236 145.109834 83.477834 
C 133.153236 95.434432 123.66809 109.629957 117.197225 125.252005 
C 110.726361 140.874054 107.395621 157.618817 107.395621 174.528 
C 107.395621 191.437183 110.726361 208.181946 117.197225 223.803995 
C 123.66809 239.426043 133.153236 253.621568 145.109834 265.578166 
C 157.066432 277.534764 171.261957 287.01991 186.884005 293.490775 
C 202.506054 299.961639 219.250817 303.292379 236.16 303.292379 
C 253.069183 303.292379 269.813946 299.961639 285.435995 293.490775 
C 301.058043 287.01991 315.253568 277.534764 327.210166 265.578166 
C 339.166764 253.621568 348.65191 239.426043 355.122775 223.803995 
C 361.593639 208.181946 364.924379 191.437183 364.924379 174.528 
" clip-path="url(#pfb4f067798)" style="fill: none; stroke: #b0b0b0; stroke-width: 0.8; stroke-linecap: square"/>
     </g>
     <g id="text_14">
      <!-- 3.0 -->
      <g transform="translate(355.122775 123.172318) scale(0.1 -0.1)">
       <use xlink:href="#DejaVuSans-33"/>
       <use xlink:href="#DejaVuSans-2e" transform="translate(63.623047 0)"/>
       <use xlink:href="#DejaVuSans-30" transform="translate(95.410156 0)"/>
      </g>
     </g>
    </g>
   </g>
   <g id="line2d_15">
    <path d="M 322.00292 174.528 
L 326.835565 172.816892 
L 331.570443 170.9258 
L 336.141374 168.862475 
L 340.484209 166.639282 
L 344.537798 164.272966 
L 348.244908 161.784316 
L 351.553084 159.197752 
L 353.513496 157.432474 
L 355.263254 155.6447 
L 356.791299 153.843687 
L 358.087957 152.039037 
L 359.145008 150.240613 
L 359.955728 148.458445 
L 360.514936 146.702635 
L 360.819022 144.983269 
L 360.865965 143.310317 
L 360.65534 141.693542 
L 360.188314 140.142405 
L 359.467634 138.665973 
L 358.497596 137.272832 
L 357.284012 135.971003 
L 355.834164 134.767857 
L 354.15674 133.670043 
L 352.261776 132.683415 
L 350.160574 131.812969 
L 347.865619 131.062783 
L 345.390486 130.435971 
L 342.749743 129.934637 
L 338.512122 129.419935 
L 333.992112 129.188744 
L 329.248019 129.234602 
L 324.340234 129.54552 
L 319.33028 130.10408 
L 314.279846 130.887635 
L 309.249835 131.868609 
L 302.676845 133.427574 
L 296.377713 135.192915 
L 290.473341 137.067298 
L 283.807934 139.403539 
L 270.543667 144.170492 
L 268.852283 144.547392 
L 267.572363 144.610643 
L 266.94268 144.462917 
L 266.486523 144.153755 
L 266.197944 143.676208 
L 266.069853 143.024475 
L 266.094088 142.193968 
L 266.395762 140.606088 
L 267.238245 137.84322 
L 269.253266 132.334891 
L 272.79295 122.645992 
L 275.148869 115.450844 
L 276.942334 109.216928 
L 278.546972 102.685491 
L 279.572449 97.669919 
L 280.408129 92.618933 
L 281.02526 87.59309 
L 281.399929 82.653972 
L 281.51339 77.863234 
L 281.352284 73.281639 
L 280.908763 68.968105 
L 280.454814 66.269197 
L 279.874865 63.730203 
L 279.170633 61.366035 
L 278.344857 59.190652 
L 277.40126 57.216959 
L 276.344499 55.456712 
L 275.180115 53.92043 
L 273.914466 52.617317 
L 272.55466 51.555188 
L 271.108484 50.740413 
L 269.584323 50.177861 
L 267.991072 49.870864 
L 266.338057 49.821183 
L 264.634937 50.028991 
L 262.891616 50.492867 
L 261.118147 51.209793 
L 259.324637 52.175175 
L 257.521156 53.382865 
L 255.717638 54.825197 
L 253.923793 56.493036 
L 252.14902 58.375834 
L 250.402316 60.461699 
L 247.853369 63.942132 
L 245.412922 67.800276 
L 243.103938 71.981584 
L 240.945566 76.427085 
L 238.952762 81.074262 
L 237.135993 85.858 
L 235.501035 90.711571 
L 233.604904 97.175282 
L 232.022244 103.485481 
L 230.727418 109.489718 
L 229.235367 117.613577 
L 227.306681 128.557258 
L 226.632411 130.985156 
L 226.060484 132.211414 
L 225.629522 132.740697 
L 225.14782 133.038814 
L 224.606294 133.107044 
L 223.996259 132.948239 
L 223.309525 132.566793 
L 222.11913 131.590482 
L 220.198118 129.576617 
L 217.201939 126.03156 
L 209.070669 116.3153 
L 205.027292 111.80166 
L 200.573367 107.139852 
L 195.759858 102.474748 
L 191.953347 99.060007 
L 188.015288 95.782431 
L 183.983137 92.697733 
L 179.897763 89.85808 
L 175.802795 87.311324 
L 171.743909 85.100312 
L 167.768066 83.262283 
L 163.922712 81.828371 
L 161.454939 81.109379 
L 159.079826 80.586713 
L 156.810737 80.264635 
L 154.660587 80.146031 
L 152.641739 80.232396 
L 150.765898 80.52385 
L 149.044015 81.019149 
L 147.486195 81.715714 
L 146.101603 82.609664 
L 144.898387 83.695866 
L 143.8836 84.967984 
L 143.063134 86.418548 
L 142.441659 88.039018 
L 142.02257 89.819867 
L 141.807951 91.750662 
L 141.798538 93.820157 
L 141.993695 96.01639 
L 142.391405 98.326778 
L 142.988267 100.738225 
L 143.779502 103.237227 
L 144.758972 105.809981 
L 146.564426 109.776764 
L 148.745697 113.830535 
L 151.266037 117.924264 
L 154.083045 122.012137 
L 157.149261 126.050326 
L 160.412848 129.997708 
L 163.818359 133.816518 
L 168.478878 138.650441 
L 173.145138 143.128503 
L 178.765454 148.148043 
L 185.743564 153.992263 
L 191.645204 158.957211 
L 193.510946 160.803812 
L 194.367584 161.944535 
L 194.666151 162.601582 
L 194.740251 163.184938 
L 194.586063 163.702989 
L 194.201324 164.16458 
L 193.585346 164.578923 
L 192.230219 165.132666 
L 190.366967 165.634208 
L 186.183959 166.443324 
L 171.4835 169.023219 
L 165.503248 170.301227 
L 159.207786 171.864998 
L 152.749076 173.74106 
L 147.892725 175.360757 
L 143.100603 177.16253 
L 138.43953 179.141 
L 133.974793 181.286086 
L 129.769162 183.583195 
L 125.881937 186.013514 
L 122.368068 188.554382 
L 120.25772 190.296968 
L 118.348861 192.068715 
L 116.653547 193.860682 
L 115.182498 195.663516 
L 113.945028 197.467542 
L 112.94899 199.262847 
L 112.200723 201.039374 
L 111.705019 202.787015 
L 111.465091 204.495706 
L 111.482563 206.155518 
L 111.757459 207.756757 
L 112.288217 209.290051 
L 113.0717 210.746445 
L 114.103227 212.117486 
L 115.376616 213.395308 
L 116.884227 214.572714 
L 118.617027 215.643248 
L 120.564658 216.601264 
L 122.715513 217.441991 
L 125.056826 218.161586 
L 127.574763 218.757185 
L 130.254527 219.226943 
L 134.543145 219.69418 
L 139.104619 219.878597 
L 143.88023 219.787581 
L 148.809332 219.434036 
L 153.830308 218.836266 
L 158.881531 218.017765 
L 163.902326 217.006895 
L 170.448129 215.417136 
L 176.704251 213.632661 
L 182.551487 211.751895 
L 190.33298 208.98212 
L 200.774829 205.18057 
L 203.214586 204.550556 
L 204.562519 204.432731 
L 205.236374 204.541313 
L 205.735401 204.80942 
L 206.065253 205.244281 
L 206.232741 205.851989 
L 206.245767 206.637441 
L 205.995453 208.156509 
L 205.211901 210.827087 
L 203.639882 215.194383 
L 199.290988 227.094399 
L 197.40375 232.852886 
L 195.593469 239.041002 
L 193.960125 245.542175 
L 192.906127 250.546081 
L 192.036693 255.595329 
L 191.381341 260.629622 
L 190.964817 265.587486 
L 190.806746 270.407211 
L 190.921396 275.027815 
L 191.317538 279.390011 
L 191.99841 283.437141 
L 192.609632 285.933791 
L 193.344545 288.252032 
L 194.200163 290.37816 
L 195.172523 292.299546 
L 196.256742 294.004738 
L 197.447069 295.483537 
L 198.736952 296.727081 
L 200.119105 297.727911 
L 201.585584 298.480028 
L 203.127871 298.978942 
L 204.736951 299.221714 
L 206.403409 299.206977 
L 208.117515 298.934955 
L 209.869319 298.407472 
L 211.648746 297.62794 
L 213.445689 296.601345 
L 215.250104 295.334218 
L 217.052103 293.834596 
L 218.842047 292.111975 
L 220.610629 290.177245 
L 222.348964 288.042622 
L 224.881571 284.495661 
L 227.301605 280.579739 
L 229.586708 276.350196 
L 231.718406 271.86666 
L 233.682473 267.192144 
L 235.469212 262.392104 
L 237.073643 257.53344 
L 238.929684 251.080351 
L 240.474669 244.80022 
L 242.01156 237.423113 
L 243.583748 228.457783 
L 244.932699 220.864339 
L 245.599031 218.325258 
L 246.158608 217.013026 
L 246.578343 216.425936 
L 247.046495 216.070086 
L 247.572234 215.944591 
L 248.164353 216.046989 
L 248.831174 216.37327 
L 249.988292 217.269973 
L 251.354267 218.632826 
L 254.146486 221.850859 
L 263.73097 233.291883 
L 267.827884 237.831929 
L 272.32988 242.502073 
L 277.183952 247.157449 
L 281.014826 250.553324 
L 284.971268 253.802537 
L 289.01521 256.849909 
L 293.105277 259.643942 
L 297.197448 262.137571 
L 301.245778 264.288847 
L 305.203169 266.061513 
L 307.767467 267.017835 
L 310.256274 267.785082 
L 312.65582 268.357283 
L 314.952645 268.729832 
L 317.133712 268.899499 
L 319.186511 268.864441 
L 321.099162 268.624196 
L 322.860516 268.179668 
L 324.460249 267.533106 
L 325.888953 266.688069 
L 327.138218 265.649382 
L 328.200711 264.423085 
L 329.070243 263.016373 
L 329.741836 261.437523 
L 330.211768 259.695825 
L 330.477626 257.801493 
L 330.538336 255.765577 
L 330.394187 253.599871 
L 330.04685 251.316813 
L 329.499381 248.929379 
L 328.756217 246.450981 
L 327.823157 243.895358 
L 326.083487 239.947688 
L 323.96246 235.905127 
L 321.495832 231.814834 
L 318.725102 227.722879 
L 315.696931 223.673472 
L 312.462476 219.708234 
L 309.07664 215.865534 
L 304.426966 210.991581 
L 299.753504 206.465858 
L 295.201096 202.342387 
L 288.911653 196.988303 
L 280.39849 189.846172 
L 278.633004 188.048288 
L 277.856997 186.939856 
L 277.614105 186.30199 
L 277.596779 185.735765 
L 277.808453 185.232675 
L 278.251 184.783772 
L 278.924708 184.379765 
L 280.365417 183.837009 
L 283.069981 183.180296 
L 287.63818 182.358057 
L 300.118343 180.174301 
L 306.048958 178.929454 
L 312.313165 177.403145 
L 318.760018 175.567076 
L 322.00292 174.528 
L 322.00292 174.528 
" clip-path="url(#pfb4f067798)" style="fill: none; stroke: #1f77b4; stroke-width: 1.5; stroke-linecap: square"/>
   </g>
   <g id="patch_3">
    <path d="M 369.216 174.528 
C 369.216 157.055246 365.774248 139.752393 359.087715 123.609673 
C 352.401182 107.466954 342.599903 92.798303 330.2448 80.4432 
C 317.889697 68.088097 303.221046 58.286818 287.078327 51.600285 
C 270.935607 44.913752 253.632754 41.472 236.16 41.472 
C 218.687246 41.472 201.384393 44.913752 185.241673 51.600285 
C 169.098954 58.286818 154.430303 68.088097 142.0752 80.4432 
C 129.720097 92.798303 119.918818 107.466954 113.232285 123.609673 
C 106.545752 139.752393 103.104 157.055246 103.104 174.528 
C 103.104 192.000754 106.545752 209.303607 113.232285 225.446327 
C 119.918818 241.589046 129.720097 256.257697 142.0752 268.6128 
C 154.430303 280.967903 169.098954 290.769182 185.241673 297.455715 
C 201.384393 304.142248 218.687246 307.584 236.16 307.584 
C 253.632754 307.584 270.935607 304.142248 287.078327 297.455715 
C 303.221046 290.769182 317.889697 280.967903 330.2448 268.6128 
C 342.599903 256.257697 352.401182 241.589046 359.087715 225.446327 
C 365.774248 209.303607 369.216 192.000754 369.216 174.528 
" style="fill: none; stroke: #000000; stroke-width: 0.8; stroke-linejoin: miter; stroke-linecap: square"/>
   </g>
  </g>
 </g>
 <defs>
  <clipPath id="pfb4f067798">
   <path d="M 369.216 174.528 
C 369.216 157.055246 365.774248 139.752393 359.087715 123.609673 
C 352.401182 107.466954 342.599903 92.798303 330.2448 80.4432 
C 317.889697 68.088097 303.221046 58.286818 287.078327 51.600285 
C 270.935607 44.913752 253.632754 41.472 236.16 41.472 
C 218.687246 41.472 201.384393 44.913752 185.241673 51.600285 
C 169.098954 58.286818 154.430303 68.088097 142.0752 80.4432 
C 129.720097 92.798303 119.918818 107.466954 113.232285 123.609673 
C 106.545752 139.752393 103.104 157.055246 103.104 174.528 
C 103.104 192.000754 106.545752 209.303607 113.232285 225.446327 
C 119.918818 241.589046 129.720097 256.257697 142.0752 268.6128 
C 154.430303 280.967903 169.098954 290.769182 185.241673 297.455715 
C 201.384393 304.142248 218.687246 307.584 236.16 307.584 
C 253.632754 307.584 270.935607 304.142248 287.078327 297.455715 
C 303.221046 290.769182 317.889697 280.967903 330.2448 268.6128 
C 342.599903 256.257697 352.401182 241.589046 359.087715 225.446327 
C 365.774248 209.303607 369.216 192.000754 369.216 174.528 
M 236.16 174.528 
C 236.16 174.528 236.16 174.528 236.16 174.528 
C 236.16 174.528 236.16 174.528 236.16 174.528 
C 236.16 174.528 236.16 174.528 236.16 174.528 
C 236.16 174.528 236.16 174.528 236.16 174.528 
C 236.16 174.528 236.16 174.528 236.16 174.528 
C 236.16 174.528 236.16 174.528 236.16 174.528 
C 236.16 174.528 236.16 174.528 236.16 174.528 
C 236.16 174.528 236.16 174.528 236.16 174.528 
C 236.16 174.528 236.16 174.528 236.16 174.528 
C 236.16 174.528 236.16 174.528 236.16 174.528 
C 236.16 174.528 236.16 174.528 236.16 174.528 
C 236.16 174.528 236.16 174.528 236.16 174.528 
C 236.16 174.528 236.16 174.528 236.16 174.528 
C 236.16 174.528 236.16 174.528 236.16 174.528 
C 236.16 174.528 236.16 174.528 236.16 174.528 
C 236.16 174.528 236.16 174.528 236.16 174.528 
z
"/>
  </clipPath>
 </defs>
</svg>
