<?xml version="1.0" encoding="utf-8" standalone="no"?>
<!DOCTYPE svg PUBLIC "-//W3C//DTD SVG 1.1//EN"
  "http://www.w3.org/Graphics/SVG/1.1/DTD/svg11.dtd">
<svg xmlns:xlink="http://www.w3.org/1999/xlink" width="460.8pt" height="345.6pt" viewBox="0 0 460.8 345.6" xmlns="http://www.w3.org/2000/svg" version="1.1">
 <metadata>
  <rdf:RDF xmlns:dc="http://purl.org/dc/elements/1.1/" xmlns:cc="http://creativecommons.org/ns#" xmlns:rdf="http://www.w3.org/1999/02/22-rdf-syntax-ns#">
   <cc:Work>
    <dc:type rdf:resource="http://purl.org/dc/dcmitype/StillImage"/>
    <dc:date>2025-11-29T14:19:42.870922</dc:date>
    <dc:format>image/svg+xml</dc:format>
    <dc:creator>
     <cc:Agent>
      <dc:title>Matplotlib v3.10.6, https://matplotlib.org/</dc:title>
     </cc:Agent>
    </dc:creator>
   </cc:Work>
  </rdf:RDF>
 </metadata>
 <defs>
  <style type="text/css">*{stroke-linejoin: round; stroke-linecap: butt}</style>
 </defs>
 <g id="figure_1">
  <g id="patch_1">
   <path d="M 0 345.6 
L 460.8 345.6 
L 460.8 0 
L 0 0 
z
" style="fill: #ffffff"/>
  </g>
  <g id="axes_1">
   <g id="patch_2">
    <path d="M 369.216 241.056 
C 369.216 205.780889 355.18807 171.914471 330.2448 146.9712 
C 305.301529 122.02793 271.435111 108 236.16 108 
C 200.884889 108 167.018471 122.02793 142.0752 146.9712 
C 117.13193 171.914471 103.104 205.780889 103.104 241.056 
L 236.16 241.056 
C 236.16 241.056 236.16 241.056 236.16 241.056 
C 236.16 241.056 236.16 241.056 236.16 241.056 
C 236.16 241.056 236.16 241.056 236.16 241.056 
C 236.16 241.056 236.16 241.056 236.16 241.056 
z
" style="fill: #ffffff"/>
   </g>
   <g id="PathCollection_1">
    <path d="M 332.771274 254.145347 
C 335.630006 254.145347 338.372038 253.00956 340.393467 250.988131 
C 342.414896 248.966701 343.550683 246.22467 343.550683 243.365937 
C 343.550683 240.507205 342.414896 237.765173 340.393467 235.743744 
C 338.372038 233.722315 335.630006 232.586528 332.771274 232.586528 
C 329.912541 232.586528 327.17051 233.722315 325.14908 235.743744 
C 323.127651 237.765173 321.991864 240.507205 321.991864 243.365937 
C 321.991864 246.22467 323.127651 248.966701 325.14908 250.988131 
C 327.17051 253.00956 329.912541 254.145347 332.771274 254.145347 
z
" clip-path="url(#p5675887abb)" style="fill: #ff0018; fill-opacity: 0.75; stroke: #ff0018; stroke-opacity: 0.75"/>
    <path d="M 278.084269 223.886582 
C 279.491429 223.886582 280.841145 223.327511 281.836158 222.332499 
C 282.83117 221.337486 283.390241 219.98777 283.390241 218.58061 
C 283.390241 217.17345 282.83117 215.823734 281.836158 214.828721 
C 280.841145 213.833709 279.491429 213.274638 278.084269 213.274638 
C 276.677109 213.274638 275.327393 213.833709 274.33238 214.828721 
C 273.337368 215.823734 272.778297 217.17345 272.778297 218.58061 
C 272.778297 219.98777 273.337368 221.337486 274.33238 222.332499 
C 275.327393 223.327511 276.677109 223.886582 278.084269 223.886582 
z
" clip-path="url(#p5675887abb)" style="fill: #ff7000; fill-opacity: 0.75; stroke: #ff7000; stroke-opacity: 0.75"/>
    <path d="M 135.597804 281.95357 
C 138.695602 281.95357 141.66694 280.722801 143.857414 278.532327 
C 146.047888 276.341853 147.278657 273.370516 147.278657 270.272717 
C 147.278657 267.174919 146.047888 264.203581 143.857414 262.013107 
C 141.66694 259.822633 138.695602 258.591865 135.597804 258.591865 
C 132.500006 258.591865 129.528668 259.822633 127.338194 262.013107 
C 125.14772 264.203581 123.916952 267.174919 123.916952 270.272717 
C 123.916952 273.370516 125.14772 276.341853 127.338194 278.532327 
C 129.528668 280.722801 132.500006 281.95357 135.597804 281.95357 
z
" clip-path="url(#p5675887abb)" style="fill: #00c7ff; fill-opacity: 0.75; stroke: #00c7ff; stroke-opacity: 0.75"/>
    <path d="M 240.992021 283.503379 
C 242.129787 283.503379 243.221106 283.05134 244.025628 282.246818 
C 244.83015 281.442296 245.282189 280.350977 245.282189 279.213211 
C 245.282189 278.075445 244.83015 276.984126 244.025628 276.179604 
C 243.221106 275.375082 242.129787 274.923043 240.992021 274.923043 
C 239.854256 274.923043 238.762937 275.375082 237.958415 276.179604 
C 237.153893 276.984126 236.701853 278.075445 236.701853 279.213211 
C 236.701853 280.350977 237.153893 281.442296 237.958415 282.246818 
C 238.762937 283.05134 239.854256 283.503379 240.992021 283.503379 
z
" clip-path="url(#p5675887abb)" style="fill: #9000ff; fill-opacity: 0.75; stroke: #9000ff; stroke-opacity: 0.75"/>
    <path d="M 202.324656 319.499579 
C 204.619047 319.499579 206.819774 318.588008 208.442153 316.965629 
C 210.064532 315.34325 210.976103 313.142523 210.976103 310.848132 
C 210.976103 308.553742 210.064532 306.353014 208.442153 304.730635 
C 206.819774 303.108256 204.619047 302.196685 202.324656 302.196685 
C 200.030266 302.196685 197.829539 303.108256 196.207159 304.730635 
C 194.58478 306.353014 193.673209 308.553742 193.673209 310.848132 
C 193.673209 313.142523 194.58478 315.34325 196.207159 316.965629 
C 197.829539 318.588008 200.030266 319.499579 202.324656 319.499579 
z
" clip-path="url(#p5675887abb)" style="fill: #0604ff; fill-opacity: 0.75; stroke: #0604ff; stroke-opacity: 0.75"/>
    <path d="M 197.056101 189.535221 
C 199.161275 189.535221 201.180511 188.698827 202.669094 187.210243 
C 204.157678 185.72166 204.994072 183.702424 204.994072 181.59725 
C 204.994072 179.492075 204.157678 177.47284 202.669094 175.984256 
C 201.180511 174.495673 199.161275 173.659278 197.056101 173.659278 
C 194.950926 173.659278 192.93169 174.495673 191.443107 175.984256 
C 189.954524 177.47284 189.118129 179.492075 189.118129 181.59725 
C 189.118129 183.702424 189.954524 185.72166 191.443107 187.210243 
C 192.93169 188.698827 194.950926 189.535221 197.056101 189.535221 
z
" clip-path="url(#p5675887abb)" style="fill: #04ff08; fill-opacity: 0.75; stroke: #04ff08; stroke-opacity: 0.75"/>
    <path d="M 349.708218 296.07915 
C 353.284841 296.07915 356.715455 294.658143 359.244509 292.129089 
C 361.773564 289.600035 363.194571 286.16942 363.194571 282.592797 
C 363.194571 279.016175 361.773564 275.58556 359.244509 273.056506 
C 356.715455 270.527452 353.284841 269.106445 349.708218 269.106445 
C 346.131596 269.106445 342.700981 270.527452 340.171927 273.056506 
C 337.642873 275.58556 336.221865 279.016175 336.221865 282.592797 
C 336.221865 286.16942 337.642873 289.600035 340.171927 292.129089 
C 342.700981 294.658143 346.131596 296.07915 349.708218 296.07915 
z
" clip-path="url(#p5675887abb)" style="fill: #ff0065; fill-opacity: 0.75; stroke: #ff0065; stroke-opacity: 0.75"/>
    <path d="M 206.561668 281.598226 
C 207.926566 281.598226 209.235746 281.055946 210.200875 280.090817 
C 211.166004 279.125688 211.708284 277.816508 211.708284 276.45161 
C 211.708284 275.086711 211.166004 273.777532 210.200875 272.812403 
C 209.235746 271.847274 207.926566 271.304994 206.561668 271.304994 
C 205.196769 271.304994 203.88759 271.847274 202.922461 272.812403 
C 201.957332 273.777532 201.415052 275.086711 201.415052 276.45161 
C 201.415052 277.816508 201.957332 279.125688 202.922461 280.090817 
C 203.88759 281.055946 205.196769 281.598226 206.561668 281.598226 
z
" clip-path="url(#p5675887abb)" style="fill: #0039ff; fill-opacity: 0.75; stroke: #0039ff; stroke-opacity: 0.75"/>
    <path d="M 131.259024 276.490908 
C 134.438722 276.490908 137.488616 275.227601 139.737001 272.979215 
C 141.985387 270.730829 143.248695 267.680936 143.248695 264.501238 
C 143.248695 261.32154 141.985387 258.271647 139.737001 256.023261 
C 137.488616 253.774875 134.438722 252.511568 131.259024 252.511568 
C 128.079326 252.511568 125.029433 253.774875 122.781047 256.023261 
C 120.532661 258.271647 119.269354 261.32154 119.269354 264.501238 
C 119.269354 267.680936 120.532661 270.730829 122.781047 272.979215 
C 125.029433 275.227601 128.079326 276.490908 131.259024 276.490908 
z
" clip-path="url(#p5675887abb)" style="fill: #00d3ff; fill-opacity: 0.75; stroke: #00d3ff; stroke-opacity: 0.75"/>
    <path d="M 288.514647 205.204367 
C 290.527073 205.204367 292.457345 204.404822 293.880345 202.981823 
C 295.303345 201.558823 296.10289 199.62855 296.10289 197.616125 
C 296.10289 195.603699 295.303345 193.673426 293.880345 192.250427 
C 292.457345 190.827427 290.527073 190.027882 288.514647 190.027882 
C 286.502221 190.027882 284.571949 190.827427 283.148949 192.250427 
C 281.725949 193.673426 280.926404 195.603699 280.926404 197.616125 
C 280.926404 199.62855 281.725949 201.558823 283.148949 202.981823 
C 284.571949 204.404822 286.502221 205.204367 288.514647 205.204367 
z
" clip-path="url(#p5675887abb)" style="fill: #ff9f00; fill-opacity: 0.75; stroke: #ff9f00; stroke-opacity: 0.75"/>
    <path d="M 208.131355 369.08461 
C 211.628302 369.08461 214.982493 367.695258 217.455208 365.222544 
C 219.927923 362.749829 221.317274 359.395638 221.317274 355.898691 
C 221.317274 352.401744 219.927923 349.047553 217.455208 346.574838 
C 214.982493 344.102124 211.628302 342.712772 208.131355 342.712772 
C 204.634409 342.712772 201.280217 344.102124 198.807503 346.574838 
C 196.334788 349.047553 194.945437 352.401744 194.945437 355.898691 
C 194.945437 359.395638 196.334788 362.749829 198.807503 365.222544 
C 201.280217 367.695258 204.634409 369.08461 208.131355 369.08461 
z
" clip-path="url(#p5675887abb)" style="fill: #3700ff; fill-opacity: 0.75; stroke: #3700ff; stroke-opacity: 0.75"/>
    <path d="M 162.163334 315.012985 
C 165.040249 315.012985 167.799721 313.869974 169.834008 311.835688 
C 171.868295 309.801401 173.011305 307.041929 173.011305 304.165013 
C 173.011305 301.288097 171.868295 298.528625 169.834008 296.494339 
C 167.799721 294.460052 165.040249 293.317041 162.163334 293.317041 
C 159.286418 293.317041 156.526946 294.460052 154.492659 296.494339 
C 152.458372 298.528625 151.315362 301.288097 151.315362 304.165013 
C 151.315362 307.041929 152.458372 309.801401 154.492659 311.835688 
C 156.526946 313.869974 159.286418 315.012985 162.163334 315.012985 
z
" clip-path="url(#p5675887abb)" style="fill: #0063ff; fill-opacity: 0.75; stroke: #0063ff; stroke-opacity: 0.75"/>
    <path d="M 307.214006 178.924083 
C 310.238933 178.924083 313.140375 177.722267 315.279322 175.58332 
C 317.418269 173.444373 318.620086 170.542931 318.620086 167.518004 
C 318.620086 164.493076 317.418269 161.591634 315.279322 159.452687 
C 313.140375 157.31374 310.238933 156.111924 307.214006 156.111924 
C 304.189078 156.111924 301.287636 157.31374 299.148689 159.452687 
C 297.009742 161.591634 295.807926 164.493076 295.807926 167.518004 
C 295.807926 170.542931 297.009742 173.444373 299.148689 175.58332 
C 301.287636 177.722267 304.189078 178.924083 307.214006 178.924083 
z
" clip-path="url(#p5675887abb)" style="fill: #ffbd00; fill-opacity: 0.75; stroke: #ffbd00; stroke-opacity: 0.75"/>
    <path d="M 263.232996 312.156795 
C 265.272581 312.156795 267.228904 311.346459 268.671108 309.904255 
C 270.113313 308.462051 270.923648 306.505727 270.923648 304.466142 
C 270.923648 302.426557 270.113313 300.470234 268.671108 299.02803 
C 267.228904 297.585825 265.272581 296.77549 263.232996 296.77549 
C 261.193411 296.77549 259.237087 297.585825 257.794883 299.02803 
C 256.352679 300.470234 255.542343 302.426557 255.542343 304.466142 
C 255.542343 306.505727 256.352679 308.462051 257.794883 309.904255 
C 259.237087 311.346459 261.193411 312.156795 263.232996 312.156795 
z
" clip-path="url(#p5675887abb)" style="fill: #d000ff; fill-opacity: 0.75; stroke: #d000ff; stroke-opacity: 0.75"/>
    <path d="M 238.037433 242.060657 
C 238.09755 242.060657 238.155213 242.036772 238.197722 241.994263 
C 238.240231 241.951754 238.264115 241.894091 238.264115 241.833974 
C 238.264115 241.773857 238.240231 241.716195 238.197722 241.673686 
C 238.155213 241.631176 238.09755 241.607292 238.037433 241.607292 
C 237.977316 241.607292 237.919653 241.631176 237.877144 241.673686 
C 237.834635 241.716195 237.81075 241.773857 237.81075 241.833974 
C 237.81075 241.894091 237.834635 241.951754 237.877144 241.994263 
C 237.919653 242.036772 237.977316 242.060657 238.037433 242.060657 
z
" clip-path="url(#p5675887abb)" style="fill: #ff0071; fill-opacity: 0.75; stroke: #ff0071; stroke-opacity: 0.75"/>
    <path d="M 220.54679 202.799297 
C 221.911226 202.799297 223.219962 202.2572 224.184765 201.292398 
C 225.149567 200.327596 225.691663 199.01886 225.691663 197.654423 
C 225.691663 196.289987 225.149567 194.981251 224.184765 194.016448 
C 223.219962 193.051646 221.911226 192.50955 220.54679 192.50955 
C 219.182353 192.50955 217.873617 193.051646 216.908815 194.016448 
C 215.944013 194.981251 215.401916 196.289987 215.401916 197.654423 
C 215.401916 199.01886 215.944013 200.327596 216.908815 201.292398 
C 217.873617 202.2572 219.182353 202.799297 220.54679 202.799297 
z
" clip-path="url(#p5675887abb)" style="fill: #37ff00; fill-opacity: 0.75; stroke: #37ff00; stroke-opacity: 0.75"/>
    <path d="M 262.85772 171.277905 
C 265.327002 171.277905 267.695481 170.296849 269.441527 168.550803 
C 271.187573 166.804757 272.168629 164.436278 272.168629 161.966996 
C 272.168629 159.497714 271.187573 157.129235 269.441527 155.383189 
C 267.695481 153.637143 265.327002 152.656086 262.85772 152.656086 
C 260.388438 152.656086 258.019959 153.637143 256.273913 155.383189 
C 254.527866 157.129235 253.54681 159.497714 253.54681 161.966996 
C 253.54681 164.436278 254.527866 166.804757 256.273913 168.550803 
C 258.019959 170.296849 260.388438 171.277905 262.85772 171.277905 
z
" clip-path="url(#p5675887abb)" style="fill: #d7ff00; fill-opacity: 0.75; stroke: #d7ff00; stroke-opacity: 0.75"/>
    <path d="M 241.41613 255.098478 
C 241.818001 255.098478 242.203466 254.938813 242.487631 254.654648 
C 242.771796 254.370483 242.931461 253.985018 242.931461 253.583147 
C 242.931461 253.181277 242.771796 252.795812 242.487631 252.511646 
C 242.203466 252.227481 241.818001 252.067816 241.41613 252.067816 
C 241.01426 252.067816 240.628795 252.227481 240.344629 252.511646 
C 240.060464 252.795812 239.900799 253.181277 239.900799 253.583147 
C 239.900799 253.985018 240.060464 254.370483 240.344629 254.654648 
C 240.628795 254.938813 241.01426 255.098478 241.41613 255.098478 
z
" clip-path="url(#p5675887abb)" style="fill: #d000ff; fill-opacity: 0.75; stroke: #d000ff; stroke-opacity: 0.75"/>
    <path d="M 339.396732 294.758795 
C 342.685951 294.758795 345.840895 293.451975 348.166724 291.126145 
C 350.492554 288.800316 351.799374 285.645372 351.799374 282.356153 
C 351.799374 279.066934 350.492554 275.91199 348.166724 273.58616 
C 345.840895 271.260331 342.685951 269.953511 339.396732 269.953511 
C 336.107513 269.953511 332.952569 271.260331 330.626739 273.58616 
C 328.30091 275.91199 326.99409 279.066934 326.99409 282.356153 
C 326.99409 285.645372 328.30091 288.800316 330.626739 291.126145 
C 332.952569 293.451975 336.107513 294.758795 339.396732 294.758795 
z
" clip-path="url(#p5675887abb)" style="fill: #ff006b; fill-opacity: 0.75; stroke: #ff006b; stroke-opacity: 0.75"/>
    <path d="M 296.762044 180.918026 
C 299.512347 180.918026 302.150375 179.825319 304.095133 177.880561 
C 306.039891 175.935803 307.132598 173.297775 307.132598 170.547472 
C 307.132598 167.797169 306.039891 165.159141 304.095133 163.214383 
C 302.150375 161.269625 299.512347 160.176918 296.762044 160.176918 
C 294.011741 160.176918 291.373713 161.269625 289.428955 163.214383 
C 287.484197 165.159141 286.39149 167.797169 286.39149 170.547472 
C 286.39149 173.297775 287.484197 175.935803 289.428955 177.880561 
C 291.373713 179.825319 294.011741 180.918026 296.762044 180.918026 
z
" clip-path="url(#p5675887abb)" style="fill: #ffc900; fill-opacity: 0.75; stroke: #ffc900; stroke-opacity: 0.75"/>
    <path d="M 204.079111 198.821942 
C 205.805281 198.821942 207.460985 198.136127 208.681572 196.91554 
C 209.902159 195.694953 210.587974 194.039249 210.587974 192.313079 
C 210.587974 190.586908 209.902159 188.931204 208.681572 187.710617 
C 207.460985 186.49003 205.805281 185.804215 204.079111 185.804215 
C 202.35294 185.804215 200.697236 186.49003 199.476649 187.710617 
C 198.256062 188.931204 197.570247 190.586908 197.570247 192.313079 
C 197.570247 194.039249 198.256062 195.694953 199.476649 196.91554 
C 200.697236 198.136127 202.35294 198.821942 204.079111 198.821942 
z
" clip-path="url(#p5675887abb)" style="fill: #04ff08; fill-opacity: 0.75; stroke: #04ff08; stroke-opacity: 0.75"/>
    <path d="M 221.563647 242.666567 
C 221.995431 242.666567 222.409588 242.495017 222.714905 242.1897 
C 223.020222 241.884383 223.191772 241.470226 223.191772 241.038442 
C 223.191772 240.606658 223.020222 240.192501 222.714905 239.887184 
C 222.409588 239.581866 221.995431 239.410317 221.563647 239.410317 
C 221.131863 239.410317 220.717706 239.581866 220.412389 239.887184 
C 220.107072 240.192501 219.935522 240.606658 219.935522 241.038442 
C 219.935522 241.470226 220.107072 241.884383 220.412389 242.1897 
C 220.717706 242.495017 221.131863 242.666567 221.563647 242.666567 
z
" clip-path="url(#p5675887abb)" style="fill: #00fff6; fill-opacity: 0.75; stroke: #00fff6; stroke-opacity: 0.75"/>
    <path d="M 235.90882 240.26168 
C 235.936414 240.26168 235.962882 240.250717 235.982395 240.231205 
C 236.001907 240.211692 236.01287 240.185224 236.01287 240.15763 
C 236.01287 240.130036 236.001907 240.103568 235.982395 240.084055 
C 235.962882 240.064543 235.936414 240.05358 235.90882 240.05358 
C 235.881226 240.05358 235.854758 240.064543 235.835246 240.084055 
C 235.815733 240.103568 235.80477 240.130036 235.80477 240.15763 
C 235.80477 240.185224 235.815733 240.211692 235.835246 240.231205 
C 235.854758 240.250717 235.881226 240.26168 235.90882 240.26168 
z
" clip-path="url(#p5675887abb)" style="fill: #49ff00; fill-opacity: 0.75; stroke: #49ff00; stroke-opacity: 0.75"/>
    <path d="M 310.213069 246.716919 
C 312.405031 246.716919 314.507512 245.846043 316.057463 244.296092 
C 317.607415 242.74614 318.478291 240.64366 318.478291 238.451697 
C 318.478291 236.259735 317.607415 234.157254 316.057463 232.607303 
C 314.507512 231.057351 312.405031 230.186475 310.213069 230.186475 
C 308.021106 230.186475 305.918626 231.057351 304.368674 232.607303 
C 302.818723 234.157254 301.947847 236.259735 301.947847 238.451697 
C 301.947847 240.64366 302.818723 242.74614 304.368674 244.296092 
C 305.918626 245.846043 308.021106 246.716919 310.213069 246.716919 
z
" clip-path="url(#p5675887abb)" style="fill: #ff0000; fill-opacity: 0.75; stroke: #ff0000; stroke-opacity: 0.75"/>
    <path d="M 231.319726 272.351472 
C 232.163603 272.351472 232.973031 272.016196 233.569743 271.419485 
C 234.166454 270.822773 234.50173 270.013346 234.50173 269.169468 
C 234.50173 268.325591 234.166454 267.516163 233.569743 266.919452 
C 232.973031 266.322741 232.163603 265.987465 231.319726 265.987465 
C 230.475849 265.987465 229.666421 266.322741 229.06971 266.919452 
C 228.472999 267.516163 228.137723 268.325591 228.137723 269.169468 
C 228.137723 270.013346 228.472999 270.822773 229.06971 271.419485 
C 229.666421 272.016196 230.475849 272.351472 231.319726 272.351472 
z
" clip-path="url(#p5675887abb)" style="fill: #4900ff; fill-opacity: 0.75; stroke: #4900ff; stroke-opacity: 0.75"/>
    <path d="M 242.752357 321.482939 
C 244.900746 321.482939 246.961431 320.629376 248.480571 319.110236 
C 249.999711 317.591095 250.853275 315.53041 250.853275 313.382022 
C 250.853275 311.233633 249.999711 309.172948 248.480571 307.653808 
C 246.961431 306.134668 244.900746 305.281104 242.752357 305.281104 
C 240.603969 305.281104 238.543284 306.134668 237.024143 307.653808 
C 235.505003 309.172948 234.65144 311.233633 234.65144 313.382022 
C 234.65144 315.53041 235.505003 317.591095 237.024143 319.110236 
C 238.543284 320.629376 240.603969 321.482939 242.752357 321.482939 
z
" clip-path="url(#p5675887abb)" style="fill: #8a00ff; fill-opacity: 0.75; stroke: #8a00ff; stroke-opacity: 0.75"/>
    <path d="M 164.969015 314.913618 
C 167.785798 314.913618 170.487592 313.794498 172.479359 311.802732 
C 174.471125 309.810965 175.590245 307.109171 175.590245 304.292388 
C 175.590245 301.475605 174.471125 298.773811 172.479359 296.782045 
C 170.487592 294.790278 167.785798 293.671159 164.969015 293.671159 
C 162.152232 293.671159 159.450438 294.790278 157.458672 296.782045 
C 155.466905 298.773811 154.347786 301.475605 154.347786 304.292388 
C 154.347786 307.109171 155.466905 309.810965 157.458672 311.802732 
C 159.450438 313.794498 162.152232 314.913618 164.969015 314.913618 
z
" clip-path="url(#p5675887abb)" style="fill: #005dff; fill-opacity: 0.75; stroke: #005dff; stroke-opacity: 0.75"/>
    <path d="M 272.505692 264.40953 
C 273.716033 264.40953 274.876963 263.928657 275.732803 263.072817 
C 276.588643 262.216977 277.069516 261.056046 277.069516 259.845706 
C 277.069516 258.635366 276.588643 257.474435 275.732803 256.618595 
C 274.876963 255.762756 273.716033 255.281882 272.505692 255.281882 
C 271.295352 255.281882 270.134421 255.762756 269.278582 256.618595 
C 268.422742 257.474435 267.941868 258.635366 267.941868 259.845706 
C 267.941868 261.056046 268.422742 262.216977 269.278582 263.072817 
C 270.134421 263.928657 271.295352 264.40953 272.505692 264.40953 
z
" clip-path="url(#p5675887abb)" style="fill: #ff0082; fill-opacity: 0.75; stroke: #ff0082; stroke-opacity: 0.75"/>
    <path d="M 295.494793 254.325842 
C 297.26087 254.325842 298.954852 253.624172 300.203657 252.375367 
C 301.452463 251.126562 302.154133 249.43258 302.154133 247.666503 
C 302.154133 245.900425 301.452463 244.206444 300.203657 242.957638 
C 298.954852 241.708833 297.26087 241.007163 295.494793 241.007163 
C 293.728715 241.007163 292.034734 241.708833 290.785928 242.957638 
C 289.537123 244.206444 288.835453 245.900425 288.835453 247.666503 
C 288.835453 249.43258 289.537123 251.126562 290.785928 252.375367 
C 292.034734 253.624172 293.728715 254.325842 295.494793 254.325842 
z
" clip-path="url(#p5675887abb)" style="fill: #ff002a; fill-opacity: 0.75; stroke: #ff002a; stroke-opacity: 0.75"/>
    <path d="M 227.940384 255.563556 
C 228.390622 255.563556 228.822479 255.384674 229.140845 255.066308 
C 229.459212 254.747942 229.638093 254.316085 229.638093 253.865847 
C 229.638093 253.415609 229.459212 252.983752 229.140845 252.665386 
C 228.822479 252.347019 228.390622 252.168138 227.940384 252.168138 
C 227.490146 252.168138 227.058289 252.347019 226.739923 252.665386 
C 226.421557 252.983752 226.242675 253.415609 226.242675 253.865847 
C 226.242675 254.316085 226.421557 254.747942 226.739923 255.066308 
C 227.058289 255.384674 227.490146 255.563556 227.940384 255.563556 
z
" clip-path="url(#p5675887abb)" style="fill: #0016ff; fill-opacity: 0.75; stroke: #0016ff; stroke-opacity: 0.75"/>
    <path d="M 118.246784 266.846309 
C 121.754589 266.846309 125.119195 265.452643 127.599588 262.972251 
C 130.07998 260.491858 131.473646 257.127252 131.473646 253.619447 
C 131.473646 250.111642 130.07998 246.747036 127.599588 244.266643 
C 125.119195 241.78625 121.754589 240.392585 118.246784 240.392585 
C 114.738979 240.392585 111.374373 241.78625 108.89398 244.266643 
C 106.413588 246.747036 105.019922 250.111642 105.019922 253.619447 
C 105.019922 257.127252 106.413588 260.491858 108.89398 262.972251 
C 111.374373 265.452643 114.738979 266.846309 118.246784 266.846309 
z
" clip-path="url(#p5675887abb)" style="fill: #00f0ff; fill-opacity: 0.75; stroke: #00f0ff; stroke-opacity: 0.75"/>
    <path d="M 278.157824 302.039922 
C 280.167625 302.039922 282.095382 301.241419 283.516526 299.820275 
C 284.937671 298.39913 285.736173 296.471374 285.736173 294.461572 
C 285.736173 292.45177 284.937671 290.524014 283.516526 289.10287 
C 282.095382 287.681725 280.167625 286.883222 278.157824 286.883222 
C 276.148022 286.883222 274.220265 287.681725 272.799121 289.10287 
C 271.377976 290.524014 270.579474 292.45177 270.579474 294.461572 
C 270.579474 296.471374 271.377976 298.39913 272.799121 299.820275 
C 274.220265 301.241419 276.148022 302.039922 278.157824 302.039922 
z
" clip-path="url(#p5675887abb)" style="fill: #ff00ed; fill-opacity: 0.75; stroke: #ff00ed; stroke-opacity: 0.75"/>
    <path d="M 229.556341 361.895103 
C 232.777577 361.895103 235.867313 360.615292 238.14507 358.337535 
C 240.422828 356.059777 241.702639 352.970041 241.702639 349.748805 
C 241.702639 346.52757 240.422828 343.437834 238.14507 341.160076 
C 235.867313 338.882318 232.777577 337.602508 229.556341 337.602508 
C 226.335105 337.602508 223.245369 338.882318 220.967612 341.160076 
C 218.689854 343.437834 217.410044 346.52757 217.410044 349.748805 
C 217.410044 352.970041 218.689854 356.059777 220.967612 358.337535 
C 223.245369 360.615292 226.335105 361.895103 229.556341 361.895103 
z
" clip-path="url(#p5675887abb)" style="fill: #6000ff; fill-opacity: 0.75; stroke: #6000ff; stroke-opacity: 0.75"/>
    <path d="M 234.919715 195.50025 
C 236.437015 195.50025 237.892375 194.89742 238.965268 193.824527 
C 240.038161 192.751634 240.640991 191.296274 240.640991 189.778974 
C 240.640991 188.261674 240.038161 186.806314 238.965268 185.733421 
C 237.892375 184.660528 236.437015 184.057698 234.919715 184.057698 
C 233.402415 184.057698 231.947055 184.660528 230.874162 185.733421 
C 229.801269 186.806314 229.198439 188.261674 229.198439 189.778974 
C 229.198439 191.296274 229.801269 192.751634 230.874162 193.824527 
C 231.947055 194.89742 233.402415 195.50025 234.919715 195.50025 
z
" clip-path="url(#p5675887abb)" style="fill: #84ff00; fill-opacity: 0.75; stroke: #84ff00; stroke-opacity: 0.75"/>
    <path d="M 224.344949 271.232371 
C 225.214047 271.232371 226.047666 270.887075 226.662212 270.27253 
C 227.276757 269.657984 227.622053 268.824365 227.622053 267.955267 
C 227.622053 267.086169 227.276757 266.25255 226.662212 265.638005 
C 226.047666 265.023459 225.214047 264.678163 224.344949 264.678163 
C 223.475851 264.678163 222.642232 265.023459 222.027687 265.638005 
C 221.413141 266.25255 221.067845 267.086169 221.067845 267.955267 
C 221.067845 268.824365 221.413141 269.657984 222.027687 270.27253 
C 222.642232 270.887075 223.475851 271.232371 224.344949 271.232371 
z
" clip-path="url(#p5675887abb)" style="fill: #0e00ff; fill-opacity: 0.75; stroke: #0e00ff; stroke-opacity: 0.75"/>
    <path d="M 158.247283 306.67977 
C 161.068248 306.67977 163.774053 305.558988 165.768776 303.564265 
C 167.763499 301.569542 168.88428 298.863737 168.88428 296.042773 
C 168.88428 293.221809 167.763499 290.516004 165.768776 288.521281 
C 163.774053 286.526558 161.068248 285.405776 158.247283 285.405776 
C 155.426319 285.405776 152.720514 286.526558 150.725791 288.521281 
C 148.731068 290.516004 147.610287 293.221809 147.610287 296.042773 
C 147.610287 298.863737 148.731068 301.569542 150.725791 303.564265 
C 152.720514 305.558988 155.426319 306.67977 158.247283 306.67977 
z
" clip-path="url(#p5675887abb)" style="fill: #0074ff; fill-opacity: 0.75; stroke: #0074ff; stroke-opacity: 0.75"/>
    <path d="M 242.362506 241.115453 
C 242.546948 241.115453 242.723861 241.042173 242.854281 240.911753 
C 242.984701 240.781333 243.057981 240.60442 243.057981 240.419978 
C 243.057981 240.235536 242.984701 240.058623 242.854281 239.928203 
C 242.723861 239.797782 242.546948 239.724503 242.362506 239.724503 
C 242.178064 239.724503 242.001151 239.797782 241.870731 239.928203 
C 241.74031 240.058623 241.667031 240.235536 241.667031 240.419978 
C 241.667031 240.60442 241.74031 240.781333 241.870731 240.911753 
C 242.001151 241.042173 242.178064 241.115453 242.362506 241.115453 
z
" clip-path="url(#p5675887abb)" style="fill: #ff1200; fill-opacity: 0.75; stroke: #ff1200; stroke-opacity: 0.75"/>
    <path d="M 196.663232 263.962451 
C 197.947984 263.962451 199.180288 263.452014 200.088745 262.543557 
C 200.997202 261.6351 201.507639 260.402796 201.507639 259.118044 
C 201.507639 257.833292 200.997202 256.600988 200.088745 255.692531 
C 199.180288 254.784074 197.947984 254.273637 196.663232 254.273637 
C 195.37848 254.273637 194.146176 254.784074 193.237719 255.692531 
C 192.329262 256.600988 191.818825 257.833292 191.818825 259.118044 
C 191.818825 260.402796 192.329262 261.6351 193.237719 262.543557 
C 194.146176 263.452014 195.37848 263.962451 196.663232 263.962451 
z
" clip-path="url(#p5675887abb)" style="fill: #00a4ff; fill-opacity: 0.75; stroke: #00a4ff; stroke-opacity: 0.75"/>
    <path d="M 308.697996 345.395367 
C 312.148143 345.395367 315.457445 344.024609 317.897068 341.584986 
C 320.33669 339.145364 321.707448 335.836061 321.707448 332.385914 
C 321.707448 328.935767 320.33669 325.626464 317.897068 323.186841 
C 315.457445 320.747219 312.148143 319.376461 308.697996 319.376461 
C 305.247848 319.376461 301.938546 320.747219 299.498923 323.186841 
C 297.059301 325.626464 295.688543 328.935767 295.688543 332.385914 
C 295.688543 335.836061 297.059301 339.145364 299.498923 341.584986 
C 301.938546 344.024609 305.247848 345.395367 308.697996 345.395367 
z
" clip-path="url(#p5675887abb)" style="fill: #ff00ed; fill-opacity: 0.75; stroke: #ff00ed; stroke-opacity: 0.75"/>
    <path d="M 261.06057 235.37039 
C 261.840105 235.37039 262.587817 235.060677 263.139032 234.509463 
C 263.690246 233.958249 263.999959 233.210536 263.999959 232.431001 
C 263.999959 231.651467 263.690246 230.903754 263.139032 230.35254 
C 262.587817 229.801326 261.840105 229.491613 261.06057 229.491613 
C 260.281035 229.491613 259.533323 229.801326 258.982109 230.35254 
C 258.430894 230.903754 258.121182 231.651467 258.121182 232.431001 
C 258.121182 233.210536 258.430894 233.958249 258.982109 234.509463 
C 259.533323 235.060677 260.281035 235.37039 261.06057 235.37039 
z
" clip-path="url(#p5675887abb)" style="fill: #ff4d00; fill-opacity: 0.75; stroke: #ff4d00; stroke-opacity: 0.75"/>
    <path d="M 234.283326 237.729036 
C 234.408688 237.729036 234.528933 237.679229 234.617578 237.590584 
C 234.706222 237.50194 234.756029 237.381695 234.756029 237.256333 
C 234.756029 237.13097 234.706222 237.010725 234.617578 236.922081 
C 234.528933 236.833436 234.408688 236.783629 234.283326 236.783629 
C 234.157964 236.783629 234.037719 236.833436 233.949074 236.922081 
C 233.86043 237.010725 233.810623 237.13097 233.810623 237.256333 
C 233.810623 237.381695 233.86043 237.50194 233.949074 237.590584 
C 234.037719 237.679229 234.157964 237.729036 234.283326 237.729036 
z
" clip-path="url(#p5675887abb)" style="fill: #1aff00; fill-opacity: 0.75; stroke: #1aff00; stroke-opacity: 0.75"/>
    <path d="M 242.754821 250.332779 
C 243.064053 250.332779 243.360661 250.20992 243.579321 249.99126 
C 243.797981 249.7726 243.92084 249.475992 243.92084 249.16676 
C 243.92084 248.857529 243.797981 248.56092 243.579321 248.34226 
C 243.360661 248.1236 243.064053 248.000741 242.754821 248.000741 
C 242.445589 248.000741 242.148981 248.1236 241.930321 248.34226 
C 241.711661 248.56092 241.588802 248.857529 241.588802 249.16676 
C 241.588802 249.475992 241.711661 249.7726 241.930321 249.99126 
C 242.148981 250.20992 242.445589 250.332779 242.754821 250.332779 
z
" clip-path="url(#p5675887abb)" style="fill: #ff00e7; fill-opacity: 0.75; stroke: #ff00e7; stroke-opacity: 0.75"/>
    <path d="M 282.941782 207.196788 
C 284.777675 207.196788 286.538622 206.46738 287.836795 205.169207 
C 289.134967 203.871035 289.864375 202.110088 289.864375 200.274195 
C 289.864375 198.438302 289.134967 196.677355 287.836795 195.379183 
C 286.538622 194.081011 284.777675 193.351603 282.941782 193.351603 
C 281.105889 193.351603 279.344943 194.081011 278.04677 195.379183 
C 276.748598 196.677355 276.01919 198.438302 276.01919 200.274195 
C 276.01919 202.110088 276.748598 203.871035 278.04677 205.169207 
C 279.344943 206.46738 281.105889 207.196788 282.941782 207.196788 
z
" clip-path="url(#p5675887abb)" style="fill: #ffa500; fill-opacity: 0.75; stroke: #ffa500; stroke-opacity: 0.75"/>
    <path d="M 247.957378 131.356126 
C 251.6286 131.356126 255.149953 129.897534 257.7459 127.301587 
C 260.341846 124.705641 261.800438 121.184288 261.800438 117.513066 
C 261.800438 113.841843 260.341846 110.32049 257.7459 107.724544 
C 255.149953 105.128598 251.6286 103.670006 247.957378 103.670006 
C 244.286155 103.670006 240.764803 105.128598 238.168856 107.724544 
C 235.57291 110.32049 234.114318 113.841843 234.114318 117.513066 
C 234.114318 121.184288 235.57291 124.705641 238.168856 127.301587 
C 240.764803 129.897534 244.286155 131.356126 247.957378 131.356126 
z
" clip-path="url(#p5675887abb)" style="fill: #a2ff00; fill-opacity: 0.75; stroke: #a2ff00; stroke-opacity: 0.75"/>
    <path d="M 199.764947 174.375876 
C 202.259995 174.375876 204.653189 173.384583 206.417454 171.620317 
C 208.18172 169.856052 209.173013 167.462858 209.173013 164.96781 
C 209.173013 162.472762 208.18172 160.079568 206.417454 158.315302 
C 204.653189 156.551037 202.259995 155.559744 199.764947 155.559744 
C 197.269899 155.559744 194.876705 156.551037 193.112439 158.315302 
C 191.348174 160.079568 190.356881 162.472762 190.356881 164.96781 
C 190.356881 167.462858 191.348174 169.856052 193.112439 171.620317 
C 194.876705 173.384583 197.269899 174.375876 199.764947 174.375876 
z
" clip-path="url(#p5675887abb)" style="fill: #1aff00; fill-opacity: 0.75; stroke: #1aff00; stroke-opacity: 0.75"/>
    <path d="M 126.421395 289.370639 
C 129.832828 289.370639 133.104997 288.015263 135.517244 285.603015 
C 137.929491 283.190768 139.284868 279.9186 139.284868 276.507167 
C 139.284868 273.095734 137.929491 269.823566 135.517244 267.411319 
C 133.104997 264.999072 129.832828 263.643695 126.421395 263.643695 
C 123.009963 263.643695 119.737794 264.999072 117.325547 267.411319 
C 114.9133 269.823566 113.557923 273.095734 113.557923 276.507167 
C 113.557923 279.9186 114.9133 283.190768 117.325547 285.603015 
C 119.737794 288.015263 123.009963 289.370639 126.421395 289.370639 
z
" clip-path="url(#p5675887abb)" style="fill: #00c1ff; fill-opacity: 0.75; stroke: #00c1ff; stroke-opacity: 0.75"/>
    <path d="M 142.113876 332.413662 
C 145.72347 332.413662 149.18571 330.979556 151.738078 328.427187 
C 154.290446 325.874819 155.724553 322.412579 155.724553 318.802986 
C 155.724553 315.193392 154.290446 311.731152 151.738078 309.178784 
C 149.18571 306.626416 145.72347 305.192309 142.113876 305.192309 
C 138.504282 305.192309 135.042042 306.626416 132.489674 309.178784 
C 129.937306 311.731152 128.503199 315.193392 128.503199 318.802986 
C 128.503199 322.412579 129.937306 325.874819 132.489674 328.427187 
C 135.042042 330.979556 138.504282 332.413662 142.113876 332.413662 
z
" clip-path="url(#p5675887abb)" style="fill: #0063ff; fill-opacity: 0.75; stroke: #0063ff; stroke-opacity: 0.75"/>
    <path d="M 238.311722 344.633498 
C 241.0689 344.633498 243.713523 343.53806 245.663142 341.58844 
C 247.612762 339.638821 248.708201 336.994198 248.708201 334.237019 
C 248.708201 331.479841 247.612762 328.835218 245.663142 326.885599 
C 243.713523 324.935979 241.0689 323.840541 238.311722 323.840541 
C 235.554543 323.840541 232.909921 324.935979 230.960301 326.885599 
C 229.010682 328.835218 227.915243 331.479841 227.915243 334.237019 
C 227.915243 336.994198 229.010682 339.638821 230.960301 341.58844 
C 232.909921 343.53806 235.554543 344.633498 238.311722 344.633498 
z
" clip-path="url(#p5675887abb)" style="fill: #7800ff; fill-opacity: 0.75; stroke: #7800ff; stroke-opacity: 0.75"/>
    <path d="M 286.035691 165.607794 
C 288.991817 165.607794 291.827265 164.433313 293.917562 162.343016 
C 296.007859 160.252719 297.18234 157.41727 297.18234 154.461144 
C 297.18234 151.505018 296.007859 148.669569 293.917562 146.579273 
C 291.827265 144.488976 288.991817 143.314495 286.035691 143.314495 
C 283.079565 143.314495 280.244116 144.488976 278.153819 146.579273 
C 276.063522 148.669569 274.889041 151.505018 274.889041 154.461144 
C 274.889041 157.41727 276.063522 160.252719 278.153819 162.343016 
C 280.244116 164.433313 283.079565 165.607794 286.035691 165.607794 
z
" clip-path="url(#p5675887abb)" style="fill: #fcf500; fill-opacity: 0.75; stroke: #fcf500; stroke-opacity: 0.75"/>
    <path d="M 280.54384 285.849877 
C 282.277227 285.849877 283.939852 285.161195 285.165542 283.935506 
C 286.391232 282.709816 287.079914 281.047191 287.079914 279.313804 
C 287.079914 277.580417 286.391232 275.917791 285.165542 274.692102 
C 283.939852 273.466412 282.277227 272.77773 280.54384 272.77773 
C 278.810453 272.77773 277.147828 273.466412 275.922138 274.692102 
C 274.696448 275.917791 274.007766 277.580417 274.007766 279.313804 
C 274.007766 281.047191 274.696448 282.709816 275.922138 283.935506 
C 277.147828 285.161195 278.810453 285.849877 280.54384 285.849877 
z
" clip-path="url(#p5675887abb)" style="fill: #ff00bd; fill-opacity: 0.75; stroke: #ff00bd; stroke-opacity: 0.75"/>
    <path d="M 358.499059 288.352323 
C 362.248612 288.352323 365.845097 286.86261 368.496432 284.211276 
C 371.147766 281.559942 372.637479 277.963456 372.637479 274.213903 
C 372.637479 270.46435 371.147766 266.867865 368.496432 264.216531 
C 365.845097 261.565196 362.248612 260.075483 358.499059 260.075483 
C 354.749506 260.075483 351.15302 261.565196 348.501686 264.216531 
C 345.850352 266.867865 344.360639 270.46435 344.360639 274.213903 
C 344.360639 277.963456 345.850352 281.559942 348.501686 284.211276 
C 351.15302 286.86261 354.749506 288.352323 358.499059 288.352323 
z
" clip-path="url(#p5675887abb)" style="fill: #ff0053; fill-opacity: 0.75; stroke: #ff0053; stroke-opacity: 0.75"/>
    <path d="M 267.345434 272.721198 
C 268.566821 272.721198 269.738348 272.235936 270.601999 271.372285 
C 271.465649 270.508634 271.950912 269.337107 271.950912 268.11572 
C 271.950912 266.894333 271.465649 265.722807 270.601999 264.859156 
C 269.738348 263.995505 268.566821 263.510243 267.345434 263.510243 
C 266.124047 263.510243 264.952521 263.995505 264.08887 264.859156 
C 263.225219 265.722807 262.739957 266.894333 262.739957 268.11572 
C 262.739957 269.337107 263.225219 270.508634 264.08887 271.372285 
C 264.952521 272.235936 266.124047 272.721198 267.345434 272.721198 
z
" clip-path="url(#p5675887abb)" style="fill: #ff00bd; fill-opacity: 0.75; stroke: #ff00bd; stroke-opacity: 0.75"/>
    <path d="M 299.233748 302.032252 
C 301.649414 302.032252 303.966466 301.072498 305.6746 299.364364 
C 307.382734 297.65623 308.342488 295.339178 308.342488 292.923512 
C 308.342488 290.507846 307.382734 288.190794 305.6746 286.48266 
C 303.966466 284.774526 301.649414 283.814772 299.233748 283.814772 
C 296.818082 283.814772 294.50103 284.774526 292.792896 286.48266 
C 291.084762 288.190794 290.125008 290.507846 290.125008 292.923512 
C 290.125008 295.339178 291.084762 297.65623 292.792896 299.364364 
C 294.50103 301.072498 296.818082 302.032252 299.233748 302.032252 
z
" clip-path="url(#p5675887abb)" style="fill: #ff00b7; fill-opacity: 0.75; stroke: #ff00b7; stroke-opacity: 0.75"/>
    <path d="M 248.19184 230.581502 
C 248.702988 230.581502 249.193268 230.378421 249.554704 230.016985 
C 249.91614 229.655549 250.119221 229.165269 250.119221 228.654121 
C 250.119221 228.142974 249.91614 227.652693 249.554704 227.291258 
C 249.193268 226.929822 248.702988 226.726741 248.19184 226.726741 
C 247.680693 226.726741 247.190412 226.929822 246.828977 227.291258 
C 246.467541 227.652693 246.26446 228.142974 246.26446 228.654121 
C 246.26446 229.165269 246.467541 229.655549 246.828977 230.016985 
C 247.190412 230.378421 247.680693 230.581502 248.19184 230.581502 
z
" clip-path="url(#p5675887abb)" style="fill: #ffbd00; fill-opacity: 0.75; stroke: #ffbd00; stroke-opacity: 0.75"/>
    <path d="M 171.889716 185.610456 
C 174.608453 185.610456 177.216203 184.53029 179.13864 182.607853 
C 181.061077 180.685416 182.141242 178.077666 182.141242 175.35893 
C 182.141242 172.640194 181.061077 170.032444 179.13864 168.110007 
C 177.216203 166.18757 174.608453 165.107404 171.889716 165.107404 
C 169.17098 165.107404 166.56323 166.18757 164.640793 168.110007 
C 162.718356 170.032444 161.638191 172.640194 161.638191 175.35893 
C 161.638191 178.077666 162.718356 180.685416 164.640793 182.607853 
C 166.56323 184.53029 169.17098 185.610456 171.889716 185.610456 
z
" clip-path="url(#p5675887abb)" style="fill: #00ff33; fill-opacity: 0.75; stroke: #00ff33; stroke-opacity: 0.75"/>
    <path d="M 314.642185 229.378752 
C 317.043448 229.378752 319.346686 228.42472 321.044636 226.72677 
C 322.742585 225.02882 323.696618 222.725583 323.696618 220.324319 
C 323.696618 217.923055 322.742585 215.619818 321.044636 213.921868 
C 319.346686 212.223919 317.043448 211.269886 314.642185 211.269886 
C 312.240921 211.269886 309.937684 212.223919 308.239734 213.921868 
C 306.541784 215.619818 305.587752 217.923055 305.587752 220.324319 
C 305.587752 222.725583 306.541784 225.02882 308.239734 226.72677 
C 309.937684 228.42472 312.240921 229.378752 314.642185 229.378752 
z
" clip-path="url(#p5675887abb)" style="fill: #ff3b00; fill-opacity: 0.75; stroke: #ff3b00; stroke-opacity: 0.75"/>
    <path d="M 224.730516 229.03018 
C 225.266192 229.03018 225.78 228.817354 226.15878 228.438574 
C 226.53756 228.059794 226.750386 227.545986 226.750386 227.01031 
C 226.750386 226.474634 226.53756 225.960826 226.15878 225.582046 
C 225.78 225.203266 225.266192 224.99044 224.730516 224.99044 
C 224.19484 224.99044 223.681032 225.203266 223.302252 225.582046 
C 222.923472 225.960826 222.710646 226.474634 222.710646 227.01031 
C 222.710646 227.545986 222.923472 228.059794 223.302252 228.438574 
C 223.681032 228.817354 224.19484 229.03018 224.730516 229.03018 
z
" clip-path="url(#p5675887abb)" style="fill: #00ff1b; fill-opacity: 0.75; stroke: #00ff1b; stroke-opacity: 0.75"/>
    <path d="M 197.263425 239.815979 
C 198.426012 239.815979 199.541139 239.354078 200.363213 238.532005 
C 201.185286 237.709932 201.647187 236.594805 201.647187 235.432218 
C 201.647187 234.269631 201.185286 233.154503 200.363213 232.33243 
C 199.541139 231.510357 198.426012 231.048456 197.263425 231.048456 
C 196.100838 231.048456 194.985711 231.510357 194.163638 232.33243 
C 193.341564 233.154503 192.879664 234.269631 192.879664 235.432218 
C 192.879664 236.594805 193.341564 237.709932 194.163638 238.532005 
C 194.985711 239.354078 196.100838 239.815979 197.263425 239.815979 
z
" clip-path="url(#p5675887abb)" style="fill: #00ffd3; fill-opacity: 0.75; stroke: #00ffd3; stroke-opacity: 0.75"/>
    <path d="M 260.177879 243.429366 
C 260.888424 243.429366 261.569963 243.147063 262.072394 242.644632 
C 262.574825 242.142201 262.857127 241.460662 262.857127 240.750117 
C 262.857127 240.039573 262.574825 239.358034 262.072394 238.855603 
C 261.569963 238.353172 260.888424 238.070869 260.177879 238.070869 
C 259.467334 238.070869 258.785796 238.353172 258.283365 238.855603 
C 257.780934 239.358034 257.498631 240.039573 257.498631 240.750117 
C 257.498631 241.460662 257.780934 242.142201 258.283365 242.644632 
C 258.785796 243.147063 259.467334 243.429366 260.177879 243.429366 
z
" clip-path="url(#p5675887abb)" style="fill: #ff0000; fill-opacity: 0.75; stroke: #ff0000; stroke-opacity: 0.75"/>
    <path d="M 278.371927 246.473166 
C 279.620799 246.473166 280.818688 245.976984 281.701774 245.093898 
C 282.58486 244.210812 283.081042 243.012923 283.081042 241.764051 
C 283.081042 240.515179 282.58486 239.317289 281.701774 238.434203 
C 280.818688 237.551117 279.620799 237.054935 278.371927 237.054935 
C 277.123055 237.054935 275.925165 237.551117 275.042079 238.434203 
C 274.158994 239.317289 273.662812 240.515179 273.662812 241.764051 
C 273.662812 243.012923 274.158994 244.210812 275.042079 245.093898 
C 275.925165 245.976984 277.123055 246.473166 278.371927 246.473166 
z
" clip-path="url(#p5675887abb)" style="fill: #ff0018; fill-opacity: 0.75; stroke: #ff0018; stroke-opacity: 0.75"/>
    <path d="M 287.349552 256.748634 
C 288.891753 256.748634 290.370998 256.135911 291.461499 255.045409 
C 292.552 253.954908 293.164724 252.475664 293.164724 250.933462 
C 293.164724 249.39126 292.552 247.912016 291.461499 246.821515 
C 290.370998 245.731013 288.891753 245.11829 287.349552 245.11829 
C 285.80735 245.11829 284.328106 245.731013 283.237604 246.821515 
C 282.147103 247.912016 281.53438 249.39126 281.53438 250.933462 
C 281.53438 252.475664 282.147103 253.954908 283.237604 255.045409 
C 284.328106 256.135911 285.80735 256.748634 287.349552 256.748634 
z
" clip-path="url(#p5675887abb)" style="fill: #ff0041; fill-opacity: 0.75; stroke: #ff0041; stroke-opacity: 0.75"/>
    <path d="M 279.838899 202.147331 
C 281.715006 202.147331 283.514524 201.401946 284.841131 200.075339 
C 286.167739 198.748731 286.913123 196.949213 286.913123 195.073107 
C 286.913123 193.197001 286.167739 191.397482 284.841131 190.070875 
C 283.514524 188.744268 281.715006 187.998883 279.838899 187.998883 
C 277.962793 187.998883 276.163275 188.744268 274.836668 190.070875 
C 273.51006 191.397482 272.764675 193.197001 272.764675 195.073107 
C 272.764675 196.949213 273.51006 198.748731 274.836668 200.075339 
C 276.163275 201.401946 277.962793 202.147331 279.838899 202.147331 
z
" clip-path="url(#p5675887abb)" style="fill: #ffbd00; fill-opacity: 0.75; stroke: #ffbd00; stroke-opacity: 0.75"/>
    <path d="M 263.556011 253.169913 
C 264.408128 253.169913 265.22546 252.831363 265.827998 252.228825 
C 266.430536 251.626287 266.769086 250.808955 266.769086 249.956837 
C 266.769086 249.10472 266.430536 248.287388 265.827998 247.68485 
C 265.22546 247.082311 264.408128 246.743762 263.556011 246.743762 
C 262.703893 246.743762 261.886561 247.082311 261.284023 247.68485 
C 260.681485 248.287388 260.342935 249.10472 260.342935 249.956837 
C 260.342935 250.808955 260.681485 251.626287 261.284023 252.228825 
C 261.886561 252.831363 262.703893 253.169913 263.556011 253.169913 
z
" clip-path="url(#p5675887abb)" style="fill: #ff005f; fill-opacity: 0.75; stroke: #ff005f; stroke-opacity: 0.75"/>
    <path d="M 226.873082 202.068199 
C 228.203473 202.068199 229.479554 201.539629 230.420283 200.5989 
C 231.361012 199.658171 231.889582 198.38209 231.889582 197.051699 
C 231.889582 195.721308 231.361012 194.445227 230.420283 193.504498 
C 229.479554 192.563769 228.203473 192.035199 226.873082 192.035199 
C 225.542691 192.035199 224.26661 192.563769 223.325881 193.504498 
C 222.385153 194.445227 221.856583 195.721308 221.856583 197.051699 
C 221.856583 198.38209 222.385153 199.658171 223.325881 200.5989 
C 224.26661 201.539629 225.542691 202.068199 226.873082 202.068199 
z
" clip-path="url(#p5675887abb)" style="fill: #55ff00; fill-opacity: 0.75; stroke: #55ff00; stroke-opacity: 0.75"/>
    <path d="M 224.065939 268.705525 
C 224.876639 268.705525 225.654244 268.383431 226.227495 267.81018 
C 226.800746 267.236928 227.12284 266.459324 227.12284 265.648624 
C 227.12284 264.837924 226.800746 264.06032 226.227495 263.487069 
C 225.654244 262.913817 224.876639 262.591723 224.065939 262.591723 
C 223.25524 262.591723 222.477635 262.913817 221.904384 263.487069 
C 221.331133 264.06032 221.009038 264.837924 221.009038 265.648624 
C 221.009038 266.459324 221.331133 267.236928 221.904384 267.81018 
C 222.477635 268.383431 223.25524 268.705525 224.065939 268.705525 
z
" clip-path="url(#p5675887abb)" style="fill: #0604ff; fill-opacity: 0.75; stroke: #0604ff; stroke-opacity: 0.75"/>
    <path d="M 216.677313 333.340188 
C 219.193462 333.340188 221.606894 332.340512 223.38608 330.561326 
C 225.165265 328.78214 226.164942 326.368708 226.164942 323.852559 
C 226.164942 321.336411 225.165265 318.922978 223.38608 317.143793 
C 221.606894 315.364607 219.193462 314.364931 216.677313 314.364931 
C 214.161165 314.364931 211.747732 315.364607 209.968546 317.143793 
C 208.189361 318.922978 207.189684 321.336411 207.189684 323.852559 
C 207.189684 326.368708 208.189361 328.78214 209.968546 330.561326 
C 211.747732 332.340512 214.161165 333.340188 216.677313 333.340188 
z
" clip-path="url(#p5675887abb)" style="fill: #3700ff; fill-opacity: 0.75; stroke: #3700ff; stroke-opacity: 0.75"/>
    <path d="M 259.581544 201.10381 
C 261.100048 201.10381 262.556563 200.500501 263.630307 199.426757 
C 264.704052 198.353012 265.30736 196.896498 265.30736 195.377993 
C 265.30736 193.859489 264.704052 192.402974 263.630307 191.32923 
C 262.556563 190.255485 261.100048 189.652177 259.581544 189.652177 
C 258.06304 189.652177 256.606525 190.255485 255.53278 191.32923 
C 254.459036 192.402974 253.855727 193.859489 253.855727 195.377993 
C 253.855727 196.896498 254.459036 198.353012 255.53278 199.426757 
C 256.606525 200.500501 258.06304 201.10381 259.581544 201.10381 
z
" clip-path="url(#p5675887abb)" style="fill: #f8fd00; fill-opacity: 0.75; stroke: #f8fd00; stroke-opacity: 0.75"/>
    <path d="M 159.771133 208.675673 
C 162.351439 208.675673 164.82641 207.650507 166.650962 205.825955 
C 168.475513 204.001403 169.50068 201.526433 169.50068 198.946127 
C 169.50068 196.365821 168.475513 193.890851 166.650962 192.066299 
C 164.82641 190.241747 162.351439 189.216581 159.771133 189.216581 
C 157.190828 189.216581 154.715857 190.241747 152.891305 192.066299 
C 151.066753 193.890851 150.041587 196.365821 150.041587 198.946127 
C 150.041587 201.526433 151.066753 204.001403 152.891305 205.825955 
C 154.715857 207.650507 157.190828 208.675673 159.771133 208.675673 
z
" clip-path="url(#p5675887abb)" style="fill: #00ff7a; fill-opacity: 0.75; stroke: #00ff7a; stroke-opacity: 0.75"/>
    <path d="M 187.578125 249.076694 
C 189.017301 249.076694 190.397727 248.504903 191.415378 247.487252 
C 192.43303 246.4696 193.004821 245.089175 193.004821 243.649998 
C 193.004821 242.210821 192.43303 240.830396 191.415378 239.812744 
C 190.397727 238.795093 189.017301 238.223302 187.578125 238.223302 
C 186.138948 238.223302 184.758522 238.795093 183.740871 239.812744 
C 182.723219 240.830396 182.151428 242.210821 182.151428 243.649998 
C 182.151428 245.089175 182.723219 246.4696 183.740871 247.487252 
C 184.758522 248.504903 186.138948 249.076694 187.578125 249.076694 
z
" clip-path="url(#p5675887abb)" style="fill: #00fcff; fill-opacity: 0.75; stroke: #00fcff; stroke-opacity: 0.75"/>
    <path d="M 180.114361 357.931053 
C 183.601962 357.931053 186.94719 356.545414 189.413297 354.079307 
C 191.879403 351.613201 193.265042 348.267973 193.265042 344.780372 
C 193.265042 341.29277 191.879403 337.947542 189.413297 335.481436 
C 186.94719 333.015329 183.601962 331.62969 180.114361 331.62969 
C 176.626759 331.62969 173.281531 333.015329 170.815425 335.481436 
C 168.349318 337.947542 166.963679 341.29277 166.963679 344.780372 
C 166.963679 348.267973 168.349318 351.613201 170.815425 354.079307 
C 173.281531 356.545414 176.626759 357.931053 180.114361 357.931053 
z
" clip-path="url(#p5675887abb)" style="fill: #0408ff; fill-opacity: 0.75; stroke: #0408ff; stroke-opacity: 0.75"/>
    <path d="M 185.950772 262.353515 
C 187.504667 262.353515 188.995127 261.736146 190.093897 260.637377 
C 191.192666 259.538607 191.810035 258.048147 191.810035 256.494252 
C 191.810035 254.940357 191.192666 253.449897 190.093897 252.351127 
C 188.995127 251.252358 187.504667 250.634989 185.950772 250.634989 
C 184.396877 250.634989 182.906417 251.252358 181.807647 252.351127 
C 180.708878 253.449897 180.091509 254.940357 180.091509 256.494252 
C 180.091509 258.048147 180.708878 259.538607 181.807647 260.637377 
C 182.906417 261.736146 184.396877 262.353515 185.950772 262.353515 
z
" clip-path="url(#p5675887abb)" style="fill: #00c1ff; fill-opacity: 0.75; stroke: #00c1ff; stroke-opacity: 0.75"/>
    <path d="M 246.700905 313.145185 
C 248.642099 313.145185 250.504048 312.373941 251.87668 311.001309 
C 253.249311 309.628678 254.020556 307.766729 254.020556 305.825535 
C 254.020556 303.884341 253.249311 302.022392 251.87668 300.649761 
C 250.504048 299.277129 248.642099 298.505885 246.700905 298.505885 
C 244.759712 298.505885 242.897763 299.277129 241.525131 300.649761 
C 240.1525 302.022392 239.381255 303.884341 239.381255 305.825535 
C 239.381255 307.766729 240.1525 309.628678 241.525131 311.001309 
C 242.897763 312.373941 244.759712 313.145185 246.700905 313.145185 
z
" clip-path="url(#p5675887abb)" style="fill: #9500ff; fill-opacity: 0.75; stroke: #9500ff; stroke-opacity: 0.75"/>
    <path d="M 177.558032 268.167771 
C 179.391647 268.167771 181.150409 267.439268 182.446971 266.142706 
C 183.743533 264.846144 184.472036 263.087382 184.472036 261.253767 
C 184.472036 259.420151 183.743533 257.661389 182.446971 256.364827 
C 181.150409 255.068265 179.391647 254.339762 177.558032 254.339762 
C 175.724416 254.339762 173.965654 255.068265 172.669092 256.364827 
C 171.37253 257.661389 170.644027 259.420151 170.644027 261.253767 
C 170.644027 263.087382 171.37253 264.846144 172.669092 266.142706 
C 173.965654 267.439268 175.724416 268.167771 177.558032 268.167771 
z
" clip-path="url(#p5675887abb)" style="fill: #00bbff; fill-opacity: 0.75; stroke: #00bbff; stroke-opacity: 0.75"/>
    <path d="M 231.988654 232.417034 
C 232.304541 232.417034 232.607533 232.291531 232.830899 232.068165 
C 233.054266 231.844798 233.179769 231.541806 233.179769 231.225919 
C 233.179769 230.910031 233.054266 230.607039 232.830899 230.383673 
C 232.607533 230.160307 232.304541 230.034804 231.988654 230.034804 
C 231.672766 230.034804 231.369774 230.160307 231.146408 230.383673 
C 230.923042 230.607039 230.797538 230.910031 230.797538 231.225919 
C 230.797538 231.541806 230.923042 231.844798 231.146408 232.068165 
C 231.369774 232.291531 231.672766 232.417034 231.988654 232.417034 
z
" clip-path="url(#p5675887abb)" style="fill: #25ff00; fill-opacity: 0.75; stroke: #25ff00; stroke-opacity: 0.75"/>
    <path d="M 216.807995 231.921719 
C 217.476249 231.921719 218.117224 231.656219 218.589751 231.183692 
C 219.062278 230.711165 219.327778 230.07019 219.327778 229.401936 
C 219.327778 228.733682 219.062278 228.092707 218.589751 227.62018 
C 218.117224 227.147653 217.476249 226.882152 216.807995 226.882152 
C 216.13974 226.882152 215.498766 227.147653 215.026239 227.62018 
C 214.553712 228.092707 214.288211 228.733682 214.288211 229.401936 
C 214.288211 230.07019 214.553712 230.711165 215.026239 231.183692 
C 215.498766 231.656219 216.13974 231.921719 216.807995 231.921719 
z
" clip-path="url(#p5675887abb)" style="fill: #00ff6e; fill-opacity: 0.75; stroke: #00ff6e; stroke-opacity: 0.75"/>
    <path d="M 248.421758 233.55923 
C 248.875353 233.55923 249.310431 233.379014 249.631172 233.058274 
C 249.951912 232.737534 250.132127 232.302456 250.132127 231.848861 
C 250.132127 231.395265 249.951912 230.960187 249.631172 230.639447 
C 249.310431 230.318707 248.875353 230.138492 248.421758 230.138492 
C 247.968163 230.138492 247.533085 230.318707 247.212345 230.639447 
C 246.891604 230.960187 246.711389 231.395265 246.711389 231.848861 
C 246.711389 232.302456 246.891604 232.737534 247.212345 233.058274 
C 247.533085 233.379014 247.968163 233.55923 248.421758 233.55923 
z
" clip-path="url(#p5675887abb)" style="fill: #ff9400; fill-opacity: 0.75; stroke: #ff9400; stroke-opacity: 0.75"/>
    <path d="M 216.485323 357.508989 
C 219.63332 357.508989 222.652808 356.258277 224.878778 354.032306 
C 227.104748 351.806336 228.355461 348.786849 228.355461 345.638852 
C 228.355461 342.490854 227.104748 339.471367 224.878778 337.245397 
C 222.652808 335.019427 219.63332 333.768714 216.485323 333.768714 
C 213.337326 333.768714 210.317838 335.019427 208.091868 337.245397 
C 205.865898 339.471367 204.615185 342.490854 204.615185 345.638852 
C 204.615185 348.786849 205.865898 351.806336 208.091868 354.032306 
C 210.317838 356.258277 213.337326 357.508989 216.485323 357.508989 
z
" clip-path="url(#p5675887abb)" style="fill: #4300ff; fill-opacity: 0.75; stroke: #4300ff; stroke-opacity: 0.75"/>
    <path d="M 249.256018 237.016194 
C 249.677699 237.016194 250.082166 236.848658 250.38034 236.550484 
C 250.678513 236.25231 250.846049 235.847843 250.846049 235.426162 
C 250.846049 235.004481 250.678513 234.600014 250.38034 234.30184 
C 250.082166 234.003666 249.677699 233.836131 249.256018 233.836131 
C 248.834336 233.836131 248.429869 234.003666 248.131696 234.30184 
C 247.833522 234.600014 247.665986 235.004481 247.665986 235.426162 
C 247.665986 235.847843 247.833522 236.25231 248.131696 236.550484 
C 248.429869 236.848658 248.834336 237.016194 249.256018 237.016194 
z
" clip-path="url(#p5675887abb)" style="fill: #ff5f00; fill-opacity: 0.75; stroke: #ff5f00; stroke-opacity: 0.75"/>
    <path d="M 166.019871 239.479122 
C 168.11356 239.479122 170.12178 238.64729 171.602242 237.166828 
C 173.082703 235.686366 173.914535 233.678147 173.914535 231.584458 
C 173.914535 229.490768 173.082703 227.482549 171.602242 226.002087 
C 170.12178 224.521625 168.11356 223.689794 166.019871 223.689794 
C 163.926182 223.689794 161.917963 224.521625 160.437501 226.002087 
C 158.957039 227.482549 158.125207 229.490768 158.125207 231.584458 
C 158.125207 233.678147 158.957039 235.686366 160.437501 237.166828 
C 161.917963 238.64729 163.926182 239.479122 166.019871 239.479122 
z
" clip-path="url(#p5675887abb)" style="fill: #00ffd3; fill-opacity: 0.75; stroke: #00ffd3; stroke-opacity: 0.75"/>
    <path d="M 329.818395 331.437556 
C 333.402579 331.437556 336.840447 330.013544 339.374848 327.479143 
C 341.909249 324.944742 343.333261 321.506874 343.333261 317.92269 
C 343.333261 314.338505 341.909249 310.900637 339.374848 308.366236 
C 336.840447 305.831835 333.402579 304.407824 329.818395 304.407824 
C 326.23421 304.407824 322.796342 305.831835 320.261941 308.366236 
C 317.72754 310.900637 316.303529 314.338505 316.303529 317.92269 
C 316.303529 321.506874 317.72754 324.944742 320.261941 327.479143 
C 322.796342 330.013544 326.23421 331.437556 329.818395 331.437556 
z
" clip-path="url(#p5675887abb)" style="fill: #ff00b7; fill-opacity: 0.75; stroke: #ff00b7; stroke-opacity: 0.75"/>
    <path d="M 317.639522 271.861926 
C 320.13163 271.861926 322.522004 270.871801 324.28419 269.109614 
C 326.046377 267.347428 327.036502 264.957054 327.036502 262.464946 
C 327.036502 259.972838 326.046377 257.582465 324.28419 255.820278 
C 322.522004 254.058092 320.13163 253.067967 317.639522 253.067967 
C 315.147414 253.067967 312.757041 254.058092 310.994854 255.820278 
C 309.232668 257.582465 308.242543 259.972838 308.242543 262.464946 
C 308.242543 264.957054 309.232668 267.347428 310.994854 269.109614 
C 312.757041 270.871801 315.147414 271.861926 317.639522 271.861926 
z
" clip-path="url(#p5675887abb)" style="fill: #ff004d; fill-opacity: 0.75; stroke: #ff004d; stroke-opacity: 0.75"/>
    <path d="M 209.263 355.385392 
C 212.398006 355.385392 215.405033 354.139841 217.621817 351.923057 
C 219.8386 349.706273 221.084152 346.699247 221.084152 343.564241 
C 221.084152 340.429235 219.8386 337.422209 217.621817 335.205425 
C 215.405033 332.988641 212.398006 331.74309 209.263 331.74309 
C 206.127994 331.74309 203.120968 332.988641 200.904184 335.205425 
C 198.6874 337.422209 197.441849 340.429235 197.441849 343.564241 
C 197.441849 346.699247 198.6874 349.706273 200.904184 351.923057 
C 203.120968 354.139841 206.127994 355.385392 209.263 355.385392 
z
" clip-path="url(#p5675887abb)" style="fill: #3100ff; fill-opacity: 0.75; stroke: #3100ff; stroke-opacity: 0.75"/>
    <path d="M 260.17413 240.785504 
C 260.889917 240.785504 261.576484 240.501119 262.082621 239.994981 
C 262.588759 239.488844 262.873144 238.802277 262.873144 238.08649 
C 262.873144 237.370703 262.588759 236.684137 262.082621 236.177999 
C 261.576484 235.671861 260.889917 235.387476 260.17413 235.387476 
C 259.458343 235.387476 258.771777 235.671861 258.265639 236.177999 
C 257.759501 236.684137 257.475116 237.370703 257.475116 238.08649 
C 257.475116 238.802277 257.759501 239.488844 258.265639 239.994981 
C 258.771777 240.501119 259.458343 240.785504 260.17413 240.785504 
z
" clip-path="url(#p5675887abb)" style="fill: #ff1800; fill-opacity: 0.75; stroke: #ff1800; stroke-opacity: 0.75"/>
    <path d="M 209.683319 237.864355 
C 210.487901 237.864355 211.259638 237.544691 211.828563 236.975766 
C 212.397489 236.40684 212.717153 235.635103 212.717153 234.830521 
C 212.717153 234.025939 212.397489 233.254202 211.828563 232.685277 
C 211.259638 232.116351 210.487901 231.796688 209.683319 231.796688 
C 208.878737 231.796688 208.107 232.116351 207.538075 232.685277 
C 206.969149 233.254202 206.649485 234.025939 206.649485 234.830521 
C 206.649485 235.635103 206.969149 236.40684 207.538075 236.975766 
C 208.107 237.544691 208.878737 237.864355 209.683319 237.864355 
z
" clip-path="url(#p5675887abb)" style="fill: #00ffbb; fill-opacity: 0.75; stroke: #00ffbb; stroke-opacity: 0.75"/>
    <path d="M 155.243099 339.679617 
C 158.725278 339.679617 162.065304 338.296133 164.527575 335.833861 
C 166.989847 333.371589 168.373331 330.031564 168.373331 326.549385 
C 168.373331 323.067207 166.989847 319.727181 164.527575 317.264909 
C 162.065304 314.802637 158.725278 313.419153 155.243099 313.419153 
C 151.760921 313.419153 148.420895 314.802637 145.958623 317.264909 
C 143.496352 319.727181 142.112867 323.067207 142.112867 326.549385 
C 142.112867 330.031564 143.496352 333.371589 145.958623 335.833861 
C 148.420895 338.296133 151.760921 339.679617 155.243099 339.679617 
z
" clip-path="url(#p5675887abb)" style="fill: #0045ff; fill-opacity: 0.75; stroke: #0045ff; stroke-opacity: 0.75"/>
    <path d="M 234.386682 371.878292 
C 237.868623 371.878292 241.208422 370.494902 243.670526 368.032798 
C 246.13263 365.570694 247.51602 362.230896 247.51602 358.748955 
C 247.51602 355.267014 246.13263 351.927215 243.670526 349.465111 
C 241.208422 347.003007 237.868623 345.619617 234.386682 345.619617 
C 230.904741 345.619617 227.564943 347.003007 225.102839 349.465111 
C 222.640734 351.927215 221.257345 355.267014 221.257345 358.748955 
C 221.257345 362.230896 222.640734 365.570694 225.102839 368.032798 
C 227.564943 370.494902 230.904741 371.878292 234.386682 371.878292 
z
" clip-path="url(#p5675887abb)" style="fill: #6c00ff; fill-opacity: 0.75; stroke: #6c00ff; stroke-opacity: 0.75"/>
    <path d="M 311.804736 198.011192 
C 314.543329 198.011192 317.170126 196.923138 319.106604 194.98666 
C 321.043082 193.050182 322.131137 190.423385 322.131137 187.684792 
C 322.131137 184.946198 321.043082 182.319402 319.106604 180.382924 
C 317.170126 178.446446 314.543329 177.358391 311.804736 177.358391 
C 309.066142 177.358391 306.439346 178.446446 304.502868 180.382924 
C 302.56639 182.319402 301.478335 184.946198 301.478335 187.684792 
C 301.478335 190.423385 302.56639 193.050182 304.502868 194.98666 
C 306.439346 196.923138 309.066142 198.011192 311.804736 198.011192 
z
" clip-path="url(#p5675887abb)" style="fill: #ff8e00; fill-opacity: 0.75; stroke: #ff8e00; stroke-opacity: 0.75"/>
    <path d="M 210.927624 225.374844 
C 211.8659 225.374844 212.765873 225.002063 213.429335 224.338601 
C 214.092797 223.675139 214.465578 222.775166 214.465578 221.83689 
C 214.465578 220.898613 214.092797 219.99864 213.429335 219.335178 
C 212.765873 218.671717 211.8659 218.298936 210.927624 218.298936 
C 209.989347 218.298936 209.089374 218.671717 208.425912 219.335178 
C 207.762451 219.99864 207.38967 220.898613 207.38967 221.83689 
C 207.38967 222.775166 207.762451 223.675139 208.425912 224.338601 
C 209.089374 225.002063 209.989347 225.374844 210.927624 225.374844 
z
" clip-path="url(#p5675887abb)" style="fill: #00ff57; fill-opacity: 0.75; stroke: #00ff57; stroke-opacity: 0.75"/>
    <path d="M 114.834815 276.356394 
C 118.480012 276.356394 121.976402 274.908142 124.553946 272.330599 
C 127.13149 269.753055 128.579742 266.256665 128.579742 262.611468 
C 128.579742 258.966271 127.13149 255.46988 124.553946 252.892337 
C 121.976402 250.314793 118.480012 248.866541 114.834815 248.866541 
C 111.189618 248.866541 107.693228 250.314793 105.115684 252.892337 
C 102.538141 255.46988 101.089889 258.966271 101.089889 262.611468 
C 101.089889 266.256665 102.538141 269.753055 105.115684 272.330599 
C 107.693228 274.908142 111.189618 276.356394 114.834815 276.356394 
z
" clip-path="url(#p5675887abb)" style="fill: #00dfff; fill-opacity: 0.75; stroke: #00dfff; stroke-opacity: 0.75"/>
    <path d="M 192.868051 348.514436 
C 195.976236 348.514436 198.957537 347.279541 201.155356 345.081722 
C 203.353175 342.883903 204.58807 339.902602 204.58807 336.794417 
C 204.58807 333.686232 203.353175 330.704931 201.155356 328.507112 
C 198.957537 326.309293 195.976236 325.074398 192.868051 325.074398 
C 189.759865 325.074398 186.778565 326.309293 184.580746 328.507112 
C 182.382927 330.704931 181.148031 333.686232 181.148031 336.794417 
C 181.148031 339.902602 182.382927 342.883903 184.580746 345.081722 
C 186.778565 347.279541 189.759865 348.514436 192.868051 348.514436 
z
" clip-path="url(#p5675887abb)" style="fill: #0e00ff; fill-opacity: 0.75; stroke: #0e00ff; stroke-opacity: 0.75"/>
    <path d="M 250.845526 223.511208 
C 251.587735 223.511208 252.299645 223.216325 252.824467 222.691504 
C 253.349288 222.166683 253.644171 221.454772 253.644171 220.712563 
C 253.644171 219.970353 253.349288 219.258443 252.824467 218.733622 
C 252.299645 218.208801 251.587735 217.913918 250.845526 217.913918 
C 250.103316 217.913918 249.391406 218.208801 248.866585 218.733622 
C 248.341763 219.258443 248.04688 219.970353 248.04688 220.712563 
C 248.04688 221.454772 248.341763 222.166683 248.866585 222.691504 
C 249.391406 223.216325 250.103316 223.511208 250.845526 223.511208 
z
" clip-path="url(#p5675887abb)" style="fill: #ffe000; fill-opacity: 0.75; stroke: #ffe000; stroke-opacity: 0.75"/>
    <path d="M 247.69821 310.530011 
C 249.575281 310.530011 251.375724 309.784243 252.703014 308.456954 
C 254.030303 307.129664 254.776071 305.329221 254.776071 303.45215 
C 254.776071 301.575079 254.030303 299.774636 252.703014 298.447346 
C 251.375724 297.120057 249.575281 296.374289 247.69821 296.374289 
C 245.821139 296.374289 244.020696 297.120057 242.693406 298.447346 
C 241.366117 299.774636 240.620349 301.575079 240.620349 303.45215 
C 240.620349 305.329221 241.366117 307.129664 242.693406 308.456954 
C 244.020696 309.784243 245.821139 310.530011 247.69821 310.530011 
z
" clip-path="url(#p5675887abb)" style="fill: #9b00ff; fill-opacity: 0.75; stroke: #9b00ff; stroke-opacity: 0.75"/>
    <path d="M 242.698786 279.016232 
C 243.725564 279.016232 244.710426 278.608289 245.436468 277.882247 
C 246.16251 277.156205 246.570453 276.171343 246.570453 275.144565 
C 246.570453 274.117787 246.16251 273.132924 245.436468 272.406883 
C 244.710426 271.680841 243.725564 271.272898 242.698786 271.272898 
C 241.672008 271.272898 240.687146 271.680841 239.961104 272.406883 
C 239.235062 273.132924 238.827119 274.117787 238.827119 275.144565 
C 238.827119 276.171343 239.235062 277.156205 239.961104 277.882247 
C 240.687146 278.608289 241.672008 279.016232 242.698786 279.016232 
z
" clip-path="url(#p5675887abb)" style="fill: #a100ff; fill-opacity: 0.75; stroke: #a100ff; stroke-opacity: 0.75"/>
    <path d="M 205.817277 255.676449 
C 206.772223 255.676449 207.688186 255.297045 208.363436 254.621795 
C 209.038685 253.946546 209.418089 253.030583 209.418089 252.075636 
C 209.418089 251.12069 209.038685 250.204727 208.363436 249.529477 
C 207.688186 248.854228 206.772223 248.474824 205.817277 248.474824 
C 204.86233 248.474824 203.946367 248.854228 203.271118 249.529477 
C 202.595868 250.204727 202.216464 251.12069 202.216464 252.075636 
C 202.216464 253.030583 202.595868 253.946546 203.271118 254.621795 
C 203.946367 255.297045 204.86233 255.676449 205.817277 255.676449 
z
" clip-path="url(#p5675887abb)" style="fill: #00b5ff; fill-opacity: 0.75; stroke: #00b5ff; stroke-opacity: 0.75"/>
    <path d="M 306.514608 358.96407 
C 310.226741 358.96407 313.787334 357.489224 316.412208 354.864349 
C 319.037083 352.239475 320.511929 348.678882 320.511929 344.966749 
C 320.511929 341.254616 319.037083 337.694022 316.412208 335.069148 
C 313.787334 332.444274 310.226741 330.969427 306.514608 330.969427 
C 302.802475 330.969427 299.241881 332.444274 296.617007 335.069148 
C 293.992133 337.694022 292.517287 341.254616 292.517287 344.966749 
C 292.517287 348.678882 293.992133 352.239475 296.617007 354.864349 
C 299.241881 357.489224 302.802475 358.96407 306.514608 358.96407 
z
" clip-path="url(#p5675887abb)" style="fill: #fa00f9; fill-opacity: 0.75; stroke: #fa00f9; stroke-opacity: 0.75"/>
    <path d="M 242.093044 241.135971 
C 242.269404 241.135971 242.438564 241.065903 242.56327 240.941197 
C 242.687975 240.816492 242.758044 240.647331 242.758044 240.470971 
C 242.758044 240.294611 242.687975 240.12545 242.56327 240.000745 
C 242.438564 239.87604 242.269404 239.805971 242.093044 239.805971 
C 241.916684 239.805971 241.747523 239.87604 241.622818 240.000745 
C 241.498112 240.12545 241.428044 240.294611 241.428044 240.470971 
C 241.428044 240.647331 241.498112 240.816492 241.622818 240.941197 
C 241.747523 241.065903 241.916684 241.135971 242.093044 241.135971 
z
" clip-path="url(#p5675887abb)" style="fill: #ff1200; fill-opacity: 0.75; stroke: #ff1200; stroke-opacity: 0.75"/>
    <path d="M 285.291973 208.162723 
C 287.165338 208.162723 288.962226 207.418427 290.286895 206.093758 
C 291.611564 204.769089 292.35586 202.972201 292.35586 201.098836 
C 292.35586 199.225471 291.611564 197.428583 290.286895 196.103914 
C 288.962226 194.779245 287.165338 194.03495 285.291973 194.03495 
C 283.418609 194.03495 281.62172 194.779245 280.297051 196.103914 
C 278.972382 197.428583 278.228087 199.225471 278.228087 201.098836 
C 278.228087 202.972201 278.972382 204.769089 280.297051 206.093758 
C 281.62172 207.418427 283.418609 208.162723 285.291973 208.162723 
z
" clip-path="url(#p5675887abb)" style="fill: #ff9f00; fill-opacity: 0.75; stroke: #ff9f00; stroke-opacity: 0.75"/>
    <path d="M 236.684249 240.683741 
C 236.704672 240.683741 236.724262 240.675626 236.738704 240.661184 
C 236.753146 240.646743 236.76126 240.627153 236.76126 240.606729 
C 236.76126 240.586305 236.753146 240.566715 236.738704 240.552273 
C 236.724262 240.537832 236.704672 240.529717 236.684249 240.529717 
C 236.663825 240.529717 236.644235 240.537832 236.629793 240.552273 
C 236.615351 240.566715 236.607237 240.586305 236.607237 240.606729 
C 236.607237 240.627153 236.615351 240.646743 236.629793 240.661184 
C 236.644235 240.675626 236.663825 240.683741 236.684249 240.683741 
z
" clip-path="url(#p5675887abb)" style="fill: #ffa500; fill-opacity: 0.75; stroke: #ffa500; stroke-opacity: 0.75"/>
    <path d="M 231.44929 245.557977 
C 231.628795 245.557977 231.800972 245.486658 231.927902 245.359729 
C 232.054831 245.2328 232.126149 245.060622 232.126149 244.881117 
C 232.126149 244.701612 232.054831 244.529434 231.927902 244.402505 
C 231.800972 244.275576 231.628795 244.204258 231.44929 244.204258 
C 231.269785 244.204258 231.097607 244.275576 230.970678 244.402505 
C 230.843748 244.529434 230.77243 244.701612 230.77243 244.881117 
C 230.77243 245.060622 230.843748 245.2328 230.970678 245.359729 
C 231.097607 245.486658 231.269785 245.557977 231.44929 245.557977 
z
" clip-path="url(#p5675887abb)" style="fill: #0063ff; fill-opacity: 0.75; stroke: #0063ff; stroke-opacity: 0.75"/>
    <path d="M 247.848251 132.640104 
C 251.476596 132.640104 254.956821 131.198547 257.522448 128.63292 
C 260.088075 126.067293 261.529632 122.587068 261.529632 118.958723 
C 261.529632 115.330379 260.088075 111.850154 257.522448 109.284527 
C 254.956821 106.7189 251.476596 105.277343 247.848251 105.277343 
C 244.219907 105.277343 240.739682 106.7189 238.174055 109.284527 
C 235.608428 111.850154 234.166871 115.330379 234.166871 118.958723 
C 234.166871 122.587068 235.608428 126.067293 238.174055 128.63292 
C 240.739682 131.198547 244.219907 132.640104 247.848251 132.640104 
z
" clip-path="url(#p5675887abb)" style="fill: #a2ff00; fill-opacity: 0.75; stroke: #a2ff00; stroke-opacity: 0.75"/>
   </g>
   <g id="matplotlib.axis_1">
    <g id="xtick_1">
     <g id="line2d_1">
      <path d="M 236.16 241.056 
L 369.216 241.056 
" clip-path="url(#p5675887abb)" style="fill: none; stroke: #808080; stroke-width: 0.5; stroke-linecap: square"/>
     </g>
     <g id="text_1">
      <!-- 0° -->
      <g transform="translate(377.53475 243.815375) scale(0.1 -0.1)">
       <defs>
        <path id="DejaVuSans-30" d="M 2034 4250 
Q 1547 4250 1301 3770 
Q 1056 3291 1056 2328 
Q 1056 1369 1301 889 
Q 1547 409 2034 409 
Q 2525 409 2770 889 
Q 3016 1369 3016 2328 
Q 3016 3291 2770 3770 
Q 2525 4250 2034 4250 
z
M 2034 4750 
Q 2819 4750 3233 4129 
Q 3647 3509 3647 2328 
Q 3647 1150 3233 529 
Q 2819 -91 2034 -91 
Q 1250 -91 836 529 
Q 422 1150 422 2328 
Q 422 3509 836 4129 
Q 1250 4750 2034 4750 
z
" transform="scale(0.015625)"/>
        <path id="DejaVuSans-b0" d="M 1600 4347 
Q 1350 4347 1178 4173 
Q 1006 4000 1006 3750 
Q 1006 3503 1178 3333 
Q 1350 3163 1600 3163 
Q 1850 3163 2022 3333 
Q 2194 3503 2194 3750 
Q 2194 3997 2020 4172 
Q 1847 4347 1600 4347 
z
M 1600 4750 
Q 1800 4750 1984 4673 
Q 2169 4597 2303 4453 
Q 2447 4313 2519 4134 
Q 2591 3956 2591 3750 
Q 2591 3338 2302 3052 
Q 2013 2766 1594 2766 
Q 1172 2766 890 3047 
Q 609 3328 609 3750 
Q 609 4169 896 4459 
Q 1184 4750 1600 4750 
z
" transform="scale(0.015625)"/>
       </defs>
       <use xlink:href="#DejaVuSans-30"/>
       <use xlink:href="#DejaVuSans-b0" transform="translate(63.623047 0)"/>
      </g>
     </g>
    </g>
    <g id="xtick_2">
     <g id="line2d_2">
      <path d="M 236.16 241.056 
L 351.389876 174.528 
" clip-path="url(#p5675887abb)" style="fill: none; stroke: #808080; stroke-width: 0.5; stroke-linecap: square"/>
     </g>
     <g id="text_2">
      <!-- 30° -->
      <g transform="translate(354.651732 170.287375) scale(0.1 -0.1)">
       <defs>
        <path id="DejaVuSans-33" d="M 2597 2516 
Q 3050 2419 3304 2112 
Q 3559 1806 3559 1356 
Q 3559 666 3084 287 
Q 2609 -91 1734 -91 
Q 1441 -91 1130 -33 
Q 819 25 488 141 
L 488 750 
Q 750 597 1062 519 
Q 1375 441 1716 441 
Q 2309 441 2620 675 
Q 2931 909 2931 1356 
Q 2931 1769 2642 2001 
Q 2353 2234 1838 2234 
L 1294 2234 
L 1294 2753 
L 1863 2753 
Q 2328 2753 2575 2939 
Q 2822 3125 2822 3475 
Q 2822 3834 2567 4026 
Q 2313 4219 1838 4219 
Q 1578 4219 1281 4162 
Q 984 4106 628 3988 
L 628 4550 
Q 988 4650 1302 4700 
Q 1616 4750 1894 4750 
Q 2613 4750 3031 4423 
Q 3450 4097 3450 3541 
Q 3450 3153 3228 2886 
Q 3006 2619 2597 2516 
z
" transform="scale(0.015625)"/>
       </defs>
       <use xlink:href="#DejaVuSans-33"/>
       <use xlink:href="#DejaVuSans-30" transform="translate(63.623047 0)"/>
       <use xlink:href="#DejaVuSans-b0" transform="translate(127.246094 0)"/>
      </g>
     </g>
    </g>
    <g id="xtick_3">
     <g id="line2d_3">
      <path d="M 236.16 241.056 
L 302.688 125.826124 
" clip-path="url(#p5675887abb)" style="fill: none; stroke: #808080; stroke-width: 0.5; stroke-linecap: square"/>
     </g>
     <g id="text_3">
      <!-- 60° -->
      <g transform="translate(300.8255 116.461143) scale(0.1 -0.1)">
       <defs>
        <path id="DejaVuSans-36" d="M 2113 2584 
Q 1688 2584 1439 2293 
Q 1191 2003 1191 1497 
Q 1191 994 1439 701 
Q 1688 409 2113 409 
Q 2538 409 2786 701 
Q 3034 994 3034 1497 
Q 3034 2003 2786 2293 
Q 2538 2584 2113 2584 
z
M 3366 4563 
L 3366 3988 
Q 3128 4100 2886 4159 
Q 2644 4219 2406 4219 
Q 1781 4219 1451 3797 
Q 1122 3375 1075 2522 
Q 1259 2794 1537 2939 
Q 1816 3084 2150 3084 
Q 2853 3084 3261 2657 
Q 3669 2231 3669 1497 
Q 3669 778 3244 343 
Q 2819 -91 2113 -91 
Q 1303 -91 875 529 
Q 447 1150 447 2328 
Q 447 3434 972 4092 
Q 1497 4750 2381 4750 
Q 2619 4750 2861 4703 
Q 3103 4656 3366 4563 
z
" transform="scale(0.015625)"/>
       </defs>
       <use xlink:href="#DejaVuSans-36"/>
       <use xlink:href="#DejaVuSans-30" transform="translate(63.623047 0)"/>
       <use xlink:href="#DejaVuSans-b0" transform="translate(127.246094 0)"/>
      </g>
     </g>
    </g>
    <g id="xtick_4">
     <g id="line2d_4">
      <path d="M 236.16 241.056 
L 236.16 108 
" clip-path="url(#p5675887abb)" style="fill: none; stroke: #808080; stroke-width: 0.5; stroke-linecap: square"/>
     </g>
     <g id="text_4">
      <!-- 90° -->
      <g transform="translate(227.2975 96.759375) scale(0.1 -0.1)">
       <defs>
        <path id="DejaVuSans-39" d="M 703 97 
L 703 672 
Q 941 559 1184 500 
Q 1428 441 1663 441 
Q 2288 441 2617 861 
Q 2947 1281 2994 2138 
Q 2813 1869 2534 1725 
Q 2256 1581 1919 1581 
Q 1219 1581 811 2004 
Q 403 2428 403 3163 
Q 403 3881 828 4315 
Q 1253 4750 1959 4750 
Q 2769 4750 3195 4129 
Q 3622 3509 3622 2328 
Q 3622 1225 3098 567 
Q 2575 -91 1691 -91 
Q 1453 -91 1209 -44 
Q 966 3 703 97 
z
M 1959 2075 
Q 2384 2075 2632 2365 
Q 2881 2656 2881 3163 
Q 2881 3666 2632 3958 
Q 2384 4250 1959 4250 
Q 1534 4250 1286 3958 
Q 1038 3666 1038 3163 
Q 1038 2656 1286 2365 
Q 1534 2075 1959 2075 
z
" transform="scale(0.015625)"/>
       </defs>
       <use xlink:href="#DejaVuSans-39"/>
       <use xlink:href="#DejaVuSans-30" transform="translate(63.623047 0)"/>
       <use xlink:href="#DejaVuSans-b0" transform="translate(127.246094 0)"/>
      </g>
     </g>
    </g>
    <g id="xtick_5">
     <g id="line2d_5">
      <path d="M 236.16 241.056 
L 169.632 125.826124 
" clip-path="url(#p5675887abb)" style="fill: none; stroke: #808080; stroke-width: 0.5; stroke-linecap: square"/>
     </g>
     <g id="text_5">
      <!-- 120° -->
      <g transform="translate(150.58825 116.461143) scale(0.1 -0.1)">
       <defs>
        <path id="DejaVuSans-31" d="M 794 531 
L 1825 531 
L 1825 4091 
L 703 3866 
L 703 4441 
L 1819 4666 
L 2450 4666 
L 2450 531 
L 3481 531 
L 3481 0 
L 794 0 
L 794 531 
z
" transform="scale(0.015625)"/>
        <path id="DejaVuSans-32" d="M 1228 531 
L 3431 531 
L 3431 0 
L 469 0 
L 469 531 
Q 828 903 1448 1529 
Q 2069 2156 2228 2338 
Q 2531 2678 2651 2914 
Q 2772 3150 2772 3378 
Q 2772 3750 2511 3984 
Q 2250 4219 1831 4219 
Q 1534 4219 1204 4116 
Q 875 4013 500 3803 
L 500 4441 
Q 881 4594 1212 4672 
Q 1544 4750 1819 4750 
Q 2544 4750 2975 4387 
Q 3406 4025 3406 3419 
Q 3406 3131 3298 2873 
Q 3191 2616 2906 2266 
Q 2828 2175 2409 1742 
Q 1991 1309 1228 531 
z
" transform="scale(0.015625)"/>
       </defs>
       <use xlink:href="#DejaVuSans-31"/>
       <use xlink:href="#DejaVuSans-32" transform="translate(63.623047 0)"/>
       <use xlink:href="#DejaVuSans-30" transform="translate(127.246094 0)"/>
       <use xlink:href="#DejaVuSans-b0" transform="translate(190.869141 0)"/>
      </g>
     </g>
    </g>
    <g id="xtick_6">
     <g id="line2d_6">
      <path d="M 236.16 241.056 
L 120.930124 174.528 
" clip-path="url(#p5675887abb)" style="fill: none; stroke: #808080; stroke-width: 0.5; stroke-linecap: square"/>
     </g>
     <g id="text_6">
      <!-- 150° -->
      <g transform="translate(96.762018 170.287375) scale(0.1 -0.1)">
       <defs>
        <path id="DejaVuSans-35" d="M 691 4666 
L 3169 4666 
L 3169 4134 
L 1269 4134 
L 1269 2991 
Q 1406 3038 1543 3061 
Q 1681 3084 1819 3084 
Q 2600 3084 3056 2656 
Q 3513 2228 3513 1497 
Q 3513 744 3044 326 
Q 2575 -91 1722 -91 
Q 1428 -91 1123 -41 
Q 819 9 494 109 
L 494 744 
Q 775 591 1075 516 
Q 1375 441 1709 441 
Q 2250 441 2565 725 
Q 2881 1009 2881 1497 
Q 2881 1984 2565 2268 
Q 2250 2553 1709 2553 
Q 1456 2553 1204 2497 
Q 953 2441 691 2322 
L 691 4666 
z
" transform="scale(0.015625)"/>
       </defs>
       <use xlink:href="#DejaVuSans-31"/>
       <use xlink:href="#DejaVuSans-35" transform="translate(63.623047 0)"/>
       <use xlink:href="#DejaVuSans-30" transform="translate(127.246094 0)"/>
       <use xlink:href="#DejaVuSans-b0" transform="translate(190.869141 0)"/>
      </g>
     </g>
    </g>
    <g id="xtick_7">
     <g id="line2d_7">
      <path d="M 236.16 241.056 
L 103.104 241.056 
" clip-path="url(#p5675887abb)" style="fill: none; stroke: #808080; stroke-width: 0.5; stroke-linecap: square"/>
     </g>
     <g id="text_7">
      <!-- 180° -->
      <g transform="translate(77.06025 243.815375) scale(0.1 -0.1)">
       <defs>
        <path id="DejaVuSans-38" d="M 2034 2216 
Q 1584 2216 1326 1975 
Q 1069 1734 1069 1313 
Q 1069 891 1326 650 
Q 1584 409 2034 409 
Q 2484 409 2743 651 
Q 3003 894 3003 1313 
Q 3003 1734 2745 1975 
Q 2488 2216 2034 2216 
z
M 1403 2484 
Q 997 2584 770 2862 
Q 544 3141 544 3541 
Q 544 4100 942 4425 
Q 1341 4750 2034 4750 
Q 2731 4750 3128 4425 
Q 3525 4100 3525 3541 
Q 3525 3141 3298 2862 
Q 3072 2584 2669 2484 
Q 3125 2378 3379 2068 
Q 3634 1759 3634 1313 
Q 3634 634 3220 271 
Q 2806 -91 2034 -91 
Q 1263 -91 848 271 
Q 434 634 434 1313 
Q 434 1759 690 2068 
Q 947 2378 1403 2484 
z
M 1172 3481 
Q 1172 3119 1398 2916 
Q 1625 2713 2034 2713 
Q 2441 2713 2670 2916 
Q 2900 3119 2900 3481 
Q 2900 3844 2670 4047 
Q 2441 4250 2034 4250 
Q 1625 4250 1398 4047 
Q 1172 3844 1172 3481 
z
" transform="scale(0.015625)"/>
       </defs>
       <use xlink:href="#DejaVuSans-31"/>
       <use xlink:href="#DejaVuSans-38" transform="translate(63.623047 0)"/>
       <use xlink:href="#DejaVuSans-30" transform="translate(127.246094 0)"/>
       <use xlink:href="#DejaVuSans-b0" transform="translate(190.869141 0)"/>
      </g>
     </g>
    </g>
   </g>
   <g id="matplotlib.axis_2">
    <g id="ytick_1">
     <g id="line2d_8">
      <path d="M 236.16 241.056 
C 236.16 241.056 236.16 241.056 236.16 241.056 
C 236.16 241.056 236.16 241.056 236.16 241.056 
C 236.16 241.056 236.16 241.056 236.16 241.056 
C 236.16 241.056 236.16 241.056 236.16 241.056 
" clip-path="url(#p5675887abb)" style="fill: none; stroke: #808080; stroke-width: 0.5; stroke-linecap: square"/>
     </g>
     <g id="text_8">
      <!-- 0.00 -->
      <g transform="translate(225.027188 255.654437) scale(0.1 -0.1)">
       <defs>
        <path id="DejaVuSans-2e" d="M 684 794 
L 1344 794 
L 1344 0 
L 684 0 
L 684 794 
z
" transform="scale(0.015625)"/>
       </defs>
       <use xlink:href="#DejaVuSans-30"/>
       <use xlink:href="#DejaVuSans-2e" transform="translate(63.623047 0)"/>
       <use xlink:href="#DejaVuSans-30" transform="translate(95.410156 0)"/>
       <use xlink:href="#DejaVuSans-30" transform="translate(159.033203 0)"/>
      </g>
     </g>
    </g>
    <g id="ytick_2">
     <g id="line2d_9">
      <path d="M 252.008273 241.056 
C 252.008273 236.854389 250.33741 232.820566 247.366422 229.849578 
C 244.395434 226.87859 240.361611 225.207727 236.16 225.207727 
C 231.958389 225.207727 227.924566 226.87859 224.953578 229.849578 
C 221.98259 232.820566 220.311727 236.854389 220.311727 241.056 
" clip-path="url(#p5675887abb)" style="fill: none; stroke: #808080; stroke-width: 0.5; stroke-linecap: square"/>
     </g>
     <g id="text_9">
      <!-- 0.25 -->
      <g transform="translate(240.875461 255.654437) scale(0.1 -0.1)">
       <use xlink:href="#DejaVuSans-30"/>
       <use xlink:href="#DejaVuSans-2e" transform="translate(63.623047 0)"/>
       <use xlink:href="#DejaVuSans-32" transform="translate(95.410156 0)"/>
       <use xlink:href="#DejaVuSans-35" transform="translate(159.033203 0)"/>
      </g>
     </g>
    </g>
    <g id="ytick_3">
     <g id="line2d_10">
      <path d="M 267.856547 241.056 
C 267.856547 232.652777 264.514819 224.585133 258.572843 218.643157 
C 252.630867 212.701181 244.563223 209.359453 236.16 209.359453 
C 227.756777 209.359453 219.689133 212.701181 213.747157 218.643157 
C 207.805181 224.585133 204.463453 232.652777 204.463453 241.056 
" clip-path="url(#p5675887abb)" style="fill: none; stroke: #808080; stroke-width: 0.5; stroke-linecap: square"/>
     </g>
     <g id="text_10">
      <!-- 0.50 -->
      <g transform="translate(256.723734 255.654437) scale(0.1 -0.1)">
       <use xlink:href="#DejaVuSans-30"/>
       <use xlink:href="#DejaVuSans-2e" transform="translate(63.623047 0)"/>
       <use xlink:href="#DejaVuSans-35" transform="translate(95.410156 0)"/>
       <use xlink:href="#DejaVuSans-30" transform="translate(159.033203 0)"/>
      </g>
     </g>
    </g>
    <g id="ytick_4">
     <g id="line2d_11">
      <path d="M 283.70482 241.056 
C 283.70482 228.451166 278.692229 216.349699 269.779265 207.436735 
C 260.866301 198.523771 248.764834 193.51118 236.16 193.51118 
C 223.555166 193.51118 211.453699 198.523771 202.540735 207.436735 
C 193.627771 216.349699 188.61518 228.451166 188.61518 241.056 
" clip-path="url(#p5675887abb)" style="fill: none; stroke: #808080; stroke-width: 0.5; stroke-linecap: square"/>
     </g>
     <g id="text_11">
      <!-- 0.75 -->
      <g transform="translate(272.572008 255.654437) scale(0.1 -0.1)">
       <defs>
        <path id="DejaVuSans-37" d="M 525 4666 
L 3525 4666 
L 3525 4397 
L 1831 0 
L 1172 0 
L 2766 4134 
L 525 4134 
L 525 4666 
z
" transform="scale(0.015625)"/>
       </defs>
       <use xlink:href="#DejaVuSans-30"/>
       <use xlink:href="#DejaVuSans-2e" transform="translate(63.623047 0)"/>
       <use xlink:href="#DejaVuSans-37" transform="translate(95.410156 0)"/>
       <use xlink:href="#DejaVuSans-35" transform="translate(159.033203 0)"/>
      </g>
     </g>
    </g>
    <g id="ytick_5">
     <g id="line2d_12">
      <path d="M 299.553094 241.056 
C 299.553094 224.249554 292.869638 208.114265 280.985686 196.230314 
C 269.101735 184.346362 252.966446 177.662906 236.16 177.662906 
C 219.353554 177.662906 203.218265 184.346362 191.334314 196.230314 
C 179.450362 208.114265 172.766906 224.249554 172.766906 241.056 
" clip-path="url(#p5675887abb)" style="fill: none; stroke: #808080; stroke-width: 0.5; stroke-linecap: square"/>
     </g>
     <g id="text_12">
      <!-- 1.00 -->
      <g transform="translate(288.420281 255.654437) scale(0.1 -0.1)">
       <use xlink:href="#DejaVuSans-31"/>
       <use xlink:href="#DejaVuSans-2e" transform="translate(63.623047 0)"/>
       <use xlink:href="#DejaVuSans-30" transform="translate(95.410156 0)"/>
       <use xlink:href="#DejaVuSans-30" transform="translate(159.033203 0)"/>
      </g>
     </g>
    </g>
    <g id="ytick_6">
     <g id="line2d_13">
      <path d="M 315.401367 241.056 
C 315.401367 220.047943 307.047048 199.878832 292.192108 185.023892 
C 277.337168 170.168952 257.168057 161.814633 236.16 161.814633 
C 215.151943 161.814633 194.982832 170.168952 180.127892 185.023892 
C 165.272952 199.878832 156.918633 220.047943 156.918633 241.056 
" clip-path="url(#p5675887abb)" style="fill: none; stroke: #808080; stroke-width: 0.5; stroke-linecap: square"/>
     </g>
     <g id="text_13">
      <!-- 1.25 -->
      <g transform="translate(304.268554 255.654437) scale(0.1 -0.1)">
       <use xlink:href="#DejaVuSans-31"/>
       <use xlink:href="#DejaVuSans-2e" transform="translate(63.623047 0)"/>
       <use xlink:href="#DejaVuSans-32" transform="translate(95.410156 0)"/>
       <use xlink:href="#DejaVuSans-35" transform="translate(159.033203 0)"/>
      </g>
     </g>
    </g>
    <g id="ytick_7">
     <g id="line2d_14">
      <path d="M 331.24964 241.056 
C 331.24964 215.846332 321.224457 191.643398 303.398529 173.817471 
C 285.572602 155.991543 261.369668 145.96636 236.16 145.96636 
C 210.950332 145.96636 186.747398 155.991543 168.921471 173.817471 
C 151.095543 191.643398 141.07036 215.846332 141.07036 241.056 
" clip-path="url(#p5675887abb)" style="fill: none; stroke: #808080; stroke-width: 0.5; stroke-linecap: square"/>
     </g>
     <g id="text_14">
      <!-- 1.50 -->
      <g transform="translate(320.116828 255.654437) scale(0.1 -0.1)">
       <use xlink:href="#DejaVuSans-31"/>
       <use xlink:href="#DejaVuSans-2e" transform="translate(63.623047 0)"/>
       <use xlink:href="#DejaVuSans-35" transform="translate(95.410156 0)"/>
       <use xlink:href="#DejaVuSans-30" transform="translate(159.033203 0)"/>
      </g>
     </g>
    </g>
    <g id="ytick_8">
     <g id="line2d_15">
      <path d="M 347.097914 241.056 
C 347.097914 211.64472 335.401867 183.407964 314.604951 162.611049 
C 293.808036 141.814133 265.57128 130.118086 236.16 130.118086 
C 206.74872 130.118086 178.511964 141.814133 157.715049 162.611049 
C 136.918133 183.407964 125.222086 211.64472 125.222086 241.056 
" clip-path="url(#p5675887abb)" style="fill: none; stroke: #808080; stroke-width: 0.5; stroke-linecap: square"/>
     </g>
     <g id="text_15">
      <!-- 1.75 -->
      <g transform="translate(335.965101 255.654437) scale(0.1 -0.1)">
       <use xlink:href="#DejaVuSans-31"/>
       <use xlink:href="#DejaVuSans-2e" transform="translate(63.623047 0)"/>
       <use xlink:href="#DejaVuSans-37" transform="translate(95.410156 0)"/>
       <use xlink:href="#DejaVuSans-35" transform="translate(159.033203 0)"/>
      </g>
     </g>
    </g>
    <g id="ytick_9">
     <g id="line2d_16">
      <path d="M 362.946187 241.056 
C 362.946187 207.443109 349.579276 175.172531 325.811373 151.404627 
C 302.043469 127.636724 269.772891 114.269813 236.16 114.269813 
C 202.547109 114.269813 170.276531 127.636724 146.508627 151.404627 
C 122.740724 175.172531 109.373813 207.443109 109.373813 241.056 
" clip-path="url(#p5675887abb)" style="fill: none; stroke: #808080; stroke-width: 0.5; stroke-linecap: square"/>
     </g>
     <g id="text_16">
      <!-- 2.00 -->
      <g transform="translate(351.813375 255.654437) scale(0.1 -0.1)">
       <use xlink:href="#DejaVuSans-32"/>
       <use xlink:href="#DejaVuSans-2e" transform="translate(63.623047 0)"/>
       <use xlink:href="#DejaVuSans-30" transform="translate(95.410156 0)"/>
       <use xlink:href="#DejaVuSans-30" transform="translate(159.033203 0)"/>
      </g>
     </g>
    </g>
   </g>
   <g id="patch_3">
    <path d="M 369.216 241.056 
C 369.216 205.780889 355.18807 171.914471 330.2448 146.9712 
C 305.301529 122.02793 271.435111 108 236.16 108 
C 200.884889 108 167.018471 122.02793 142.0752 146.9712 
C 117.13193 171.914471 103.104 205.780889 103.104 241.056 
" style="fill: none; stroke: #000000; stroke-width: 0.8; stroke-linejoin: miter; stroke-linecap: square"/>
   </g>
   <g id="patch_4">
    <path d="M 236.16 241.056 
L 369.216 241.056 
" style="fill: none; stroke: #000000; stroke-width: 0.8; stroke-linejoin: miter; stroke-linecap: square"/>
   </g>
   <g id="patch_5">
    <path d="M 236.16 241.056 
L 103.104 241.056 
" style="fill: none; stroke: #000000; stroke-width: 0.8; stroke-linejoin: miter; stroke-linecap: square"/>
   </g>
  </g>
 </g>
 <defs>
  <clipPath id="p5675887abb">
   <path d="M 369.216 241.056 
C 369.216 205.780889 355.18807 171.914471 330.2448 146.9712 
C 305.301529 122.02793 271.435111 108 236.16 108 
C 200.884889 108 167.018471 122.02793 142.0752 146.9712 
C 117.13193 171.914471 103.104 205.780889 103.104 241.056 
L 236.16 241.056 
C 236.16 241.056 236.16 241.056 236.16 241.056 
C 236.16 241.056 236.16 241.056 236.16 241.056 
C 236.16 241.056 236.16 241.056 236.16 241.056 
C 236.16 241.056 236.16 241.056 236.16 241.056 
z
"/>
  </clipPath>
 </defs>
</svg>
