<?xml version="1.0" encoding="utf-8" standalone="no"?>
<!DOCTYPE svg PUBLIC "-//W3C//DTD SVG 1.1//EN"
  "http://www.w3.org/Graphics/SVG/1.1/DTD/svg11.dtd">
<svg xmlns:xlink="http://www.w3.org/1999/xlink" width="460.8pt" height="345.6pt" viewBox="0 0 460.8 345.6" xmlns="http://www.w3.org/2000/svg" version="1.1">
 <metadata>
  <rdf:RDF xmlns:dc="http://purl.org/dc/elements/1.1/" xmlns:cc="http://creativecommons.org/ns#" xmlns:rdf="http://www.w3.org/1999/02/22-rdf-syntax-ns#">
   <cc:Work>
    <dc:type rdf:resource="http://purl.org/dc/dcmitype/StillImage"/>
    <dc:date>2025-11-29T14:20:03.884343</dc:date>
    <dc:format>image/svg+xml</dc:format>
    <dc:creator>
     <cc:Agent>
      <dc:title>Matplotlib v3.10.6, https://matplotlib.org/</dc:title>
     </cc:Agent>
    </dc:creator>
   </cc:Work>
  </rdf:RDF>
 </metadata>
 <defs>
  <style type="text/css">*{stroke-linejoin: round; stroke-linecap: butt}</style>
 </defs>
 <g id="figure_1">
  <g id="patch_1">
   <path d="M 0 345.6 
L 460.8 345.6 
L 460.8 0 
L 0 0 
z
" style="fill: #ffffff"/>
  </g>
  <g id="axes_1">
   <g id="patch_2">
    <path d="M 237.436018 41.472 
C 211.375519 41.472 185.891495 49.202494 164.222982 63.680931 
C 142.55447 78.159369 125.660111 98.745205 115.68719 122.821966 
C 105.714268 146.898728 103.104 173.401228 108.188151 198.960981 
C 113.272302 224.520735 125.825944 248.006946 144.253499 266.434501 
C 162.681054 284.862056 186.167265 297.415698 211.727019 302.499849 
C 237.286772 307.584 263.789272 304.973732 287.866034 295.00081 
C 311.942795 285.027889 332.528631 268.13353 347.007069 246.465018 
C 361.485506 224.796505 369.216 199.312481 369.216 173.251982 
L 237.436018 173.251982 
C 237.436018 173.251982 237.436018 173.251982 237.436018 173.251982 
C 237.436018 173.251982 237.436018 173.251982 237.436018 173.251982 
C 237.436018 173.251982 237.436018 173.251982 237.436018 173.251982 
C 237.436018 173.251982 237.436018 173.251982 237.436018 173.251982 
C 237.436018 173.251982 237.436018 173.251982 237.436018 173.251982 
C 237.436018 173.251982 237.436018 173.251982 237.436018 173.251982 
C 237.436018 173.251982 237.436018 173.251982 237.436018 173.251982 
C 237.436018 173.251982 237.436018 173.251982 237.436018 173.251982 
z
" style="fill: #ffffff"/>
   </g>
   <g id="PathCollection_1">
    <path d="M 333.120782 186.319176 
C 335.979514 186.319176 338.721546 185.18339 340.742975 183.16196 
C 342.764404 181.140531 343.900191 178.3985 343.900191 175.539767 
C 343.900191 172.681034 342.764404 169.939003 340.742975 167.917574 
C 338.721546 165.896144 335.979514 164.760358 333.120782 164.760358 
C 330.262049 164.760358 327.520017 165.896144 325.498588 167.917574 
C 323.477159 169.939003 322.341372 172.681034 322.341372 175.539767 
C 322.341372 178.3985 323.477159 181.140531 325.498588 183.16196 
C 327.520017 185.18339 330.262049 186.319176 333.120782 186.319176 
z
" clip-path="url(#pa70f61bde2)" style="fill: #ff0018; fill-opacity: 0.75; stroke: #ff0018; stroke-opacity: 0.75"/>
    <path d="M 278.95823 156.298105 
C 280.36539 156.298105 281.715106 155.739034 282.710119 154.744021 
C 283.705131 153.749009 284.264202 152.399293 284.264202 150.992133 
C 284.264202 149.584973 283.705131 148.235257 282.710119 147.240244 
C 281.715106 146.245232 280.36539 145.686161 278.95823 145.686161 
C 277.55107 145.686161 276.201354 146.245232 275.206341 147.240244 
C 274.211329 148.235257 273.652258 149.584973 273.652258 150.992133 
C 273.652258 152.399293 274.211329 153.749009 275.206341 154.744021 
C 276.201354 155.739034 277.55107 156.298105 278.95823 156.298105 
z
" clip-path="url(#pa70f61bde2)" style="fill: #ff7000; fill-opacity: 0.75; stroke: #ff7000; stroke-opacity: 0.75"/>
    <path d="M 137.838222 213.869361 
C 140.93602 213.869361 143.907357 212.638593 146.097832 210.448119 
C 148.288306 208.257645 149.519074 205.286307 149.519074 202.188509 
C 149.519074 199.09071 148.288306 196.119373 146.097832 193.928899 
C 143.907357 191.738425 140.93602 190.507656 137.838222 190.507656 
C 134.740423 190.507656 131.769086 191.738425 129.578612 193.928899 
C 127.388137 196.119373 126.157369 199.09071 126.157369 202.188509 
C 126.157369 205.286307 127.388137 208.257645 129.578612 210.448119 
C 131.769086 212.638593 134.740423 213.869361 137.838222 213.869361 
z
" clip-path="url(#pa70f61bde2)" style="fill: #00c7ff; fill-opacity: 0.75; stroke: #00c7ff; stroke-opacity: 0.75"/>
    <path d="M 242.2217 215.33343 
C 243.359466 215.33343 244.450785 214.881391 245.255307 214.076869 
C 246.059829 213.272347 246.511868 212.181028 246.511868 211.043262 
C 246.511868 209.905497 246.059829 208.814177 245.255307 208.009655 
C 244.450785 207.205134 243.359466 206.753094 242.2217 206.753094 
C 241.083934 206.753094 239.992615 207.205134 239.188093 208.009655 
C 238.383571 208.814177 237.931532 209.905497 237.931532 211.043262 
C 237.931532 212.181028 238.383571 213.272347 239.188093 214.076869 
C 239.992615 214.881391 241.083934 215.33343 242.2217 215.33343 
z
" clip-path="url(#pa70f61bde2)" style="fill: #9000ff; fill-opacity: 0.75; stroke: #9000ff; stroke-opacity: 0.75"/>
    <path d="M 203.925158 251.026249 
C 206.219548 251.026249 208.420275 250.114678 210.042655 248.492299 
C 211.665034 246.86992 212.576605 244.669193 212.576605 242.374802 
C 212.576605 240.080412 211.665034 237.879684 210.042655 236.257305 
C 208.420275 234.634926 206.219548 233.723355 203.925158 233.723355 
C 201.630767 233.723355 199.43004 234.634926 197.807661 236.257305 
C 196.185282 237.879684 195.273711 240.080412 195.273711 242.374802 
C 195.273711 244.669193 196.185282 246.86992 197.807661 248.492299 
C 199.43004 250.114678 201.630767 251.026249 203.925158 251.026249 
z
" clip-path="url(#pa70f61bde2)" style="fill: #0604ff; fill-opacity: 0.75; stroke: #0604ff; stroke-opacity: 0.75"/>
    <path d="M 198.707128 122.301418 
C 200.812303 122.301418 202.831538 121.465023 204.320122 119.97644 
C 205.808705 118.487856 206.6451 116.468621 206.6451 114.363446 
C 206.6451 112.258272 205.808705 110.239036 204.320122 108.750453 
C 202.831538 107.261869 200.812303 106.425475 198.707128 106.425475 
C 196.601953 106.425475 194.582718 107.261869 193.094135 108.750453 
C 191.605551 110.239036 190.769157 112.258272 190.769157 114.363446 
C 190.769157 116.468621 191.605551 118.487856 193.094135 119.97644 
C 194.582718 121.465023 196.601953 122.301418 198.707128 122.301418 
z
" clip-path="url(#pa70f61bde2)" style="fill: #04ff08; fill-opacity: 0.75; stroke: #04ff08; stroke-opacity: 0.75"/>
    <path d="M 349.895299 227.876791 
C 353.471922 227.876791 356.902537 226.455784 359.431591 223.92673 
C 361.960645 221.397676 363.381652 217.967061 363.381652 214.390438 
C 363.381652 210.813816 361.960645 207.383201 359.431591 204.854147 
C 356.902537 202.325093 353.471922 200.904086 349.895299 200.904086 
C 346.318677 200.904086 342.888062 202.325093 340.359008 204.854147 
C 337.829954 207.383201 336.408947 210.813816 336.408947 214.390438 
C 336.408947 217.967061 337.829954 221.397676 340.359008 223.92673 
C 342.888062 226.455784 346.318677 227.876791 349.895299 227.876791 
z
" clip-path="url(#pa70f61bde2)" style="fill: #ff0065; fill-opacity: 0.75; stroke: #ff0065; stroke-opacity: 0.75"/>
    <path d="M 208.121536 213.454761 
C 209.486435 213.454761 210.795614 212.912481 211.760743 211.947352 
C 212.725872 210.982223 213.268152 209.673044 213.268152 208.308145 
C 213.268152 206.943247 212.725872 205.634067 211.760743 204.668938 
C 210.795614 203.703809 209.486435 203.161529 208.121536 203.161529 
C 206.756638 203.161529 205.447458 203.703809 204.482329 204.668938 
C 203.5172 205.634067 202.97492 206.943247 202.97492 208.308145 
C 202.97492 209.673044 203.5172 210.982223 204.482329 211.947352 
C 205.447458 212.912481 206.756638 213.454761 208.121536 213.454761 
z
" clip-path="url(#pa70f61bde2)" style="fill: #0039ff; fill-opacity: 0.75; stroke: #0039ff; stroke-opacity: 0.75"/>
    <path d="M 133.541051 208.462049 
C 136.720749 208.462049 139.770642 207.198742 142.019028 204.950356 
C 144.267414 202.70197 145.530721 199.652076 145.530721 196.472378 
C 145.530721 193.292681 144.267414 190.242787 142.019028 187.994401 
C 139.770642 185.746015 136.720749 184.482708 133.541051 184.482708 
C 130.361353 184.482708 127.311459 185.746015 125.063074 187.994401 
C 122.814688 190.242787 121.55138 193.292681 121.55138 196.472378 
C 121.55138 199.652076 122.814688 202.70197 125.063074 204.950356 
C 127.311459 207.198742 130.361353 208.462049 133.541051 208.462049 
z
" clip-path="url(#pa70f61bde2)" style="fill: #00d3ff; fill-opacity: 0.75; stroke: #00d3ff; stroke-opacity: 0.75"/>
    <path d="M 289.28858 137.816942 
C 291.301005 137.816942 293.231278 137.017396 294.654278 135.594397 
C 296.077277 134.171397 296.876822 132.241124 296.876822 130.228699 
C 296.876822 128.216273 296.077277 126.286 294.654278 124.863001 
C 293.231278 123.440001 291.301005 122.640456 289.28858 122.640456 
C 287.276154 122.640456 285.345881 123.440001 283.922882 124.863001 
C 282.499882 126.286 281.700337 128.216273 281.700337 130.228699 
C 281.700337 132.241124 282.499882 134.171397 283.922882 135.594397 
C 285.345881 137.017396 287.276154 137.816942 289.28858 137.816942 
z
" clip-path="url(#pa70f61bde2)" style="fill: #ff9f00; fill-opacity: 0.75; stroke: #ff9f00; stroke-opacity: 0.75"/>
    <path d="M 209.67617 300.179241 
C 213.173117 300.179241 216.527308 298.78989 219.000023 296.317175 
C 221.472737 293.84446 222.862089 290.490269 222.862089 286.993322 
C 222.862089 283.496376 221.472737 280.142184 219.000023 277.66947 
C 216.527308 275.196755 213.173117 273.807404 209.67617 273.807404 
C 206.179224 273.807404 202.825032 275.196755 200.352318 277.66947 
C 197.879603 280.142184 196.490251 283.496376 196.490251 286.993322 
C 196.490251 290.490269 197.879603 293.84446 200.352318 296.317175 
C 202.825032 298.78989 206.179224 300.179241 209.67617 300.179241 
z
" clip-path="url(#pa70f61bde2)" style="fill: #3700ff; fill-opacity: 0.75; stroke: #3700ff; stroke-opacity: 0.75"/>
    <path d="M 164.148985 246.603747 
C 167.025901 246.603747 169.785373 245.460736 171.81966 243.426449 
C 173.853946 241.392163 174.996957 238.63269 174.996957 235.755775 
C 174.996957 232.878859 173.853946 230.119387 171.81966 228.0851 
C 169.785373 226.050814 167.025901 224.907803 164.148985 224.907803 
C 161.27207 224.907803 158.512598 226.050814 156.478311 228.0851 
C 154.444024 230.119387 153.301014 232.878859 153.301014 235.755775 
C 153.301014 238.63269 154.444024 241.392163 156.478311 243.426449 
C 158.512598 245.460736 161.27207 246.603747 164.148985 246.603747 
z
" clip-path="url(#pa70f61bde2)" style="fill: #0063ff; fill-opacity: 0.75; stroke: #0063ff; stroke-opacity: 0.75"/>
    <path d="M 307.80861 111.825301 
C 310.833538 111.825301 313.734979 110.623484 315.873926 108.484538 
C 318.012873 106.345591 319.21469 103.444149 319.21469 100.419221 
C 319.21469 97.394293 318.012873 94.492852 315.873926 92.353905 
C 313.734979 90.214958 310.833538 89.013141 307.80861 89.013141 
C 304.783682 89.013141 301.88224 90.214958 299.743293 92.353905 
C 297.604347 94.492852 296.40253 97.394293 296.40253 100.419221 
C 296.40253 103.444149 297.604347 106.345591 299.743293 108.484538 
C 301.88224 110.623484 304.783682 111.825301 307.80861 111.825301 
z
" clip-path="url(#pa70f61bde2)" style="fill: #ffbd00; fill-opacity: 0.75; stroke: #ffbd00; stroke-opacity: 0.75"/>
    <path d="M 264.249381 243.744669 
C 266.288966 243.744669 268.24529 242.934333 269.687494 241.492129 
C 271.129698 240.049924 271.940034 238.093601 271.940034 236.054016 
C 271.940034 234.014431 271.129698 232.058108 269.687494 230.615903 
C 268.24529 229.173699 266.288966 228.363363 264.249381 228.363363 
C 262.209796 228.363363 260.253473 229.173699 258.811269 230.615903 
C 257.369064 232.058108 256.558729 234.014431 256.558729 236.054016 
C 256.558729 238.093601 257.369064 240.049924 258.811269 241.492129 
C 260.253473 242.934333 262.209796 243.744669 264.249381 243.744669 
z
" clip-path="url(#pa70f61bde2)" style="fill: #d000ff; fill-opacity: 0.75; stroke: #d000ff; stroke-opacity: 0.75"/>
    <path d="M 239.295446 174.249178 
C 239.355563 174.249178 239.413226 174.225293 239.455735 174.182784 
C 239.498244 174.140275 239.522129 174.082612 239.522129 174.022496 
C 239.522129 173.962379 239.498244 173.904716 239.455735 173.862207 
C 239.413226 173.819698 239.355563 173.795813 239.295446 173.795813 
C 239.235329 173.795813 239.177666 173.819698 239.135157 173.862207 
C 239.092648 173.904716 239.068764 173.962379 239.068764 174.022496 
C 239.068764 174.082612 239.092648 174.140275 239.135157 174.182784 
C 239.177666 174.225293 239.235329 174.249178 239.295446 174.249178 
z
" clip-path="url(#pa70f61bde2)" style="fill: #ff0071; fill-opacity: 0.75; stroke: #ff0071; stroke-opacity: 0.75"/>
    <path d="M 221.97254 135.411504 
C 223.336976 135.411504 224.645712 134.869407 225.610514 133.904605 
C 226.575317 132.939803 227.117413 131.631067 227.117413 130.26663 
C 227.117413 128.902194 226.575317 127.593457 225.610514 126.628655 
C 224.645712 125.663853 223.336976 125.121757 221.97254 125.121757 
C 220.608103 125.121757 219.299367 125.663853 218.334565 126.628655 
C 217.369762 127.593457 216.827666 128.902194 216.827666 130.26663 
C 216.827666 131.631067 217.369762 132.939803 218.334565 133.904605 
C 219.299367 134.869407 220.608103 135.411504 221.97254 135.411504 
z
" clip-path="url(#pa70f61bde2)" style="fill: #37ff00; fill-opacity: 0.75; stroke: #37ff00; stroke-opacity: 0.75"/>
    <path d="M 263.877704 104.232358 
C 266.346986 104.232358 268.715465 103.251301 270.461512 101.505255 
C 272.207558 99.759209 273.188614 97.39073 273.188614 94.921448 
C 273.188614 92.452166 272.207558 90.083687 270.461512 88.337641 
C 268.715465 86.591595 266.346986 85.610539 263.877704 85.610539 
C 261.408422 85.610539 259.039943 86.591595 257.293897 88.337641 
C 255.547851 90.083687 254.566795 92.452166 254.566795 94.921448 
C 254.566795 97.39073 255.547851 99.759209 257.293897 101.505255 
C 259.039943 103.251301 261.408422 104.232358 263.877704 104.232358 
z
" clip-path="url(#pa70f61bde2)" style="fill: #d7ff00; fill-opacity: 0.75; stroke: #d7ff00; stroke-opacity: 0.75"/>
    <path d="M 242.641741 187.174324 
C 243.043612 187.174324 243.429077 187.014659 243.713242 186.730494 
C 243.997407 186.446328 244.157072 186.060863 244.157072 185.658993 
C 244.157072 185.257122 243.997407 184.871657 243.713242 184.587492 
C 243.429077 184.303327 243.043612 184.143662 242.641741 184.143662 
C 242.239871 184.143662 241.854406 184.303327 241.57024 184.587492 
C 241.286075 184.871657 241.12641 185.257122 241.12641 185.658993 
C 241.12641 186.060863 241.286075 186.446328 241.57024 186.730494 
C 241.854406 187.014659 242.239871 187.174324 242.641741 187.174324 
z
" clip-path="url(#pa70f61bde2)" style="fill: #d000ff; fill-opacity: 0.75; stroke: #d000ff; stroke-opacity: 0.75"/>
    <path d="M 339.682701 226.558706 
C 342.97192 226.558706 346.126864 225.251885 348.452694 222.926056 
C 350.778523 220.600227 352.085344 217.445282 352.085344 214.156063 
C 352.085344 210.866844 350.778523 207.7119 348.452694 205.386071 
C 346.126864 203.060242 342.97192 201.753421 339.682701 201.753421 
C 336.393482 201.753421 333.238538 203.060242 330.912709 205.386071 
C 328.586879 207.7119 327.280059 210.866844 327.280059 214.156063 
C 327.280059 217.445282 328.586879 220.600227 330.912709 222.926056 
C 333.238538 225.251885 336.393482 226.558706 339.682701 226.558706 
z
" clip-path="url(#pa70f61bde2)" style="fill: #ff006b; fill-opacity: 0.75; stroke: #ff006b; stroke-opacity: 0.75"/>
    <path d="M 297.456883 113.79019 
C 300.207186 113.79019 302.845214 112.697483 304.789972 110.752725 
C 306.73473 108.807968 307.827437 106.16994 307.827437 103.419637 
C 307.827437 100.669334 306.73473 98.031306 304.789972 96.086548 
C 302.845214 94.14179 300.207186 93.049083 297.456883 93.049083 
C 294.70658 93.049083 292.068552 94.14179 290.123794 96.086548 
C 288.179037 98.031306 287.08633 100.669334 287.08633 103.419637 
C 287.08633 106.16994 288.179037 108.807968 290.123794 110.752725 
C 292.068552 112.697483 294.70658 113.79019 297.456883 113.79019 
z
" clip-path="url(#pa70f61bde2)" style="fill: #ffc900; fill-opacity: 0.75; stroke: #ffc900; stroke-opacity: 0.75"/>
    <path d="M 205.662787 131.485373 
C 207.388958 131.485373 209.044661 130.799558 210.265248 129.578971 
C 211.485836 128.358384 212.17165 126.70268 212.17165 124.976509 
C 212.17165 123.250339 211.485836 121.594635 210.265248 120.374048 
C 209.044661 119.153461 207.388958 118.467646 205.662787 118.467646 
C 203.936616 118.467646 202.280912 119.153461 201.060325 120.374048 
C 199.839738 121.594635 199.153923 123.250339 199.153923 124.976509 
C 199.153923 126.70268 199.839738 128.358384 201.060325 129.578971 
C 202.280912 130.799558 203.936616 131.485373 205.662787 131.485373 
z
" clip-path="url(#pa70f61bde2)" style="fill: #04ff08; fill-opacity: 0.75; stroke: #04ff08; stroke-opacity: 0.75"/>
    <path d="M 222.979645 174.862717 
C 223.411429 174.862717 223.825586 174.691168 224.130903 174.385851 
C 224.43622 174.080533 224.60777 173.666376 224.60777 173.234592 
C 224.60777 172.802809 224.43622 172.388651 224.130903 172.083334 
C 223.825586 171.778017 223.411429 171.606467 222.979645 171.606467 
C 222.547861 171.606467 222.133704 171.778017 221.828387 172.083334 
C 221.52307 172.388651 221.35152 172.802809 221.35152 173.234592 
C 221.35152 173.666376 221.52307 174.080533 221.828387 174.385851 
C 222.133704 174.691168 222.547861 174.862717 222.979645 174.862717 
z
" clip-path="url(#pa70f61bde2)" style="fill: #00fff6; fill-opacity: 0.75; stroke: #00fff6; stroke-opacity: 0.75"/>
    <path d="M 237.187247 172.466278 
C 237.214841 172.466278 237.241309 172.455314 237.260821 172.435802 
C 237.280333 172.41629 237.291297 172.389822 237.291297 172.362228 
C 237.291297 172.334633 237.280333 172.308165 237.260821 172.288653 
C 237.241309 172.269141 237.214841 172.258177 237.187247 172.258177 
C 237.159652 172.258177 237.133184 172.269141 237.113672 172.288653 
C 237.09416 172.308165 237.083197 172.334633 237.083197 172.362228 
C 237.083197 172.389822 237.09416 172.41629 237.113672 172.435802 
C 237.133184 172.455314 237.159652 172.466278 237.187247 172.466278 
z
" clip-path="url(#pa70f61bde2)" style="fill: #49ff00; fill-opacity: 0.75; stroke: #49ff00; stroke-opacity: 0.75"/>
    <path d="M 310.778912 178.937877 
C 312.970874 178.937877 315.073355 178.067001 316.623306 176.517049 
C 318.173258 174.967098 319.044134 172.864617 319.044134 170.672655 
C 319.044134 168.480693 318.173258 166.378212 316.623306 164.828261 
C 315.073355 163.278309 312.970874 162.407433 310.778912 162.407433 
C 308.586949 162.407433 306.484469 163.278309 304.934517 164.828261 
C 303.384566 166.378212 302.51369 168.480693 302.51369 170.672655 
C 302.51369 172.864617 303.384566 174.967098 304.934517 176.517049 
C 306.484469 178.067001 308.586949 178.937877 310.778912 178.937877 
z
" clip-path="url(#pa70f61bde2)" style="fill: #ff0000; fill-opacity: 0.75; stroke: #ff0000; stroke-opacity: 0.75"/>
    <path d="M 232.642163 204.277844 
C 233.48604 204.277844 234.295468 203.942568 234.892179 203.345856 
C 235.48889 202.749145 235.824166 201.939717 235.824166 201.09584 
C 235.824166 200.251963 235.48889 199.442535 234.892179 198.845824 
C 234.295468 198.249113 233.48604 197.913837 232.642163 197.913837 
C 231.798285 197.913837 230.988858 198.249113 230.392146 198.845824 
C 229.795435 199.442535 229.460159 200.251963 229.460159 201.09584 
C 229.460159 201.939717 229.795435 202.749145 230.392146 203.345856 
C 230.988858 203.942568 231.798285 204.277844 232.642163 204.277844 
z
" clip-path="url(#pa70f61bde2)" style="fill: #4900ff; fill-opacity: 0.75; stroke: #4900ff; stroke-opacity: 0.75"/>
    <path d="M 243.965154 252.985309 
C 246.113542 252.985309 248.174228 252.131745 249.693368 250.612605 
C 251.212508 249.093465 252.066072 247.03278 252.066072 244.884391 
C 252.066072 242.736003 251.212508 240.675318 249.693368 239.156178 
C 248.174228 237.637037 246.113542 236.783474 243.965154 236.783474 
C 241.816765 236.783474 239.75608 237.637037 238.23694 239.156178 
C 236.7178 240.675318 235.864236 242.736003 235.864236 244.884391 
C 235.864236 247.03278 236.7178 249.093465 238.23694 250.612605 
C 239.75608 252.131745 241.816765 252.985309 243.965154 252.985309 
z
" clip-path="url(#pa70f61bde2)" style="fill: #8a00ff; fill-opacity: 0.75; stroke: #8a00ff; stroke-opacity: 0.75"/>
    <path d="M 166.92776 246.503158 
C 169.744543 246.503158 172.446337 245.384038 174.438104 243.392272 
C 176.42987 241.400505 177.54899 238.698711 177.54899 235.881928 
C 177.54899 233.065145 176.42987 230.363351 174.438104 228.371585 
C 172.446337 226.379818 169.744543 225.260699 166.92776 225.260699 
C 164.110977 225.260699 161.409183 226.379818 159.417417 228.371585 
C 157.42565 230.363351 156.306531 233.065145 156.306531 235.881928 
C 156.306531 238.698711 157.42565 241.400505 159.417417 243.392272 
C 161.409183 245.384038 164.110977 246.503158 166.92776 246.503158 
z
" clip-path="url(#pa70f61bde2)" style="fill: #005dff; fill-opacity: 0.75; stroke: #005dff; stroke-opacity: 0.75"/>
    <path d="M 273.433152 196.425317 
C 274.643492 196.425317 275.804423 195.944444 276.660263 195.088604 
C 277.516103 194.232765 277.996976 193.071834 277.996976 191.861494 
C 277.996976 190.651153 277.516103 189.490222 276.660263 188.634383 
C 275.804423 187.778543 274.643492 187.29767 273.433152 187.29767 
C 272.222812 187.29767 271.061881 187.778543 270.206041 188.634383 
C 269.350201 189.490222 268.869328 190.651153 268.869328 191.861494 
C 268.869328 193.071834 269.350201 194.232765 270.206041 195.088604 
C 271.061881 195.944444 272.222812 196.425317 273.433152 196.425317 
z
" clip-path="url(#pa70f61bde2)" style="fill: #ff0082; fill-opacity: 0.75; stroke: #ff0082; stroke-opacity: 0.75"/>
    <path d="M 296.201785 186.458429 
C 297.967863 186.458429 299.661844 185.756759 300.910649 184.507954 
C 302.159455 183.259148 302.861125 181.565167 302.861125 179.79909 
C 302.861125 178.033012 302.159455 176.339031 300.910649 175.090225 
C 299.661844 173.84142 297.967863 173.13975 296.201785 173.13975 
C 294.435708 173.13975 292.741726 173.84142 291.492921 175.090225 
C 290.244115 176.339031 289.542445 178.033012 289.542445 179.79909 
C 289.542445 181.565167 290.244115 183.259148 291.492921 184.507954 
C 292.741726 185.756759 294.435708 186.458429 296.201785 186.458429 
z
" clip-path="url(#pa70f61bde2)" style="fill: #ff002a; fill-opacity: 0.75; stroke: #ff002a; stroke-opacity: 0.75"/>
    <path d="M 229.295229 187.63669 
C 229.745466 187.63669 230.177324 187.457809 230.49569 187.139443 
C 230.814056 186.821077 230.992937 186.389219 230.992937 185.938982 
C 230.992937 185.488744 230.814056 185.056886 230.49569 184.73852 
C 230.177324 184.420154 229.745466 184.241273 229.295229 184.241273 
C 228.844991 184.241273 228.413133 184.420154 228.094767 184.73852 
C 227.776401 185.056886 227.59752 185.488744 227.59752 185.938982 
C 227.59752 186.389219 227.776401 186.821077 228.094767 187.139443 
C 228.413133 187.457809 228.844991 187.63669 229.295229 187.63669 
z
" clip-path="url(#pa70f61bde2)" style="fill: #0016ff; fill-opacity: 0.75; stroke: #0016ff; stroke-opacity: 0.75"/>
    <path d="M 120.653599 198.921807 
C 124.161404 198.921807 127.52601 197.528141 130.006403 195.047748 
C 132.486796 192.567356 133.880461 189.202749 133.880461 185.694945 
C 133.880461 182.18714 132.486796 178.822533 130.006403 176.342141 
C 127.52601 173.861748 124.161404 172.468083 120.653599 172.468083 
C 117.145794 172.468083 113.781188 173.861748 111.300795 176.342141 
C 108.820403 178.822533 107.426737 182.18714 107.426737 185.694945 
C 107.426737 189.202749 108.820403 192.567356 111.300795 195.047748 
C 113.781188 197.528141 117.145794 198.921807 120.653599 198.921807 
z
" clip-path="url(#pa70f61bde2)" style="fill: #00f0ff; fill-opacity: 0.75; stroke: #00f0ff; stroke-opacity: 0.75"/>
    <path d="M 279.031079 233.723741 
C 281.040881 233.723741 282.968637 232.925238 284.389781 231.504093 
C 285.810926 230.082949 286.609429 228.155192 286.609429 226.145391 
C 286.609429 224.135589 285.810926 222.207833 284.389781 220.786688 
C 282.968637 219.365543 281.040881 218.567041 279.031079 218.567041 
C 277.021277 218.567041 275.093521 219.365543 273.672376 220.786688 
C 272.251232 222.207833 271.452729 224.135589 271.452729 226.145391 
C 271.452729 228.155192 272.251232 230.082949 273.672376 231.504093 
C 275.093521 232.925238 277.021277 233.723741 279.031079 233.723741 
z
" clip-path="url(#pa70f61bde2)" style="fill: #ff00ed; fill-opacity: 0.75; stroke: #ff00ed; stroke-opacity: 0.75"/>
    <path d="M 230.895689 293.048712 
C 234.116924 293.048712 237.20666 291.768902 239.484418 289.491144 
C 241.762175 287.213386 243.041986 284.12365 243.041986 280.902415 
C 243.041986 277.681179 241.762175 274.591443 239.484418 272.313685 
C 237.20666 270.035928 234.116924 268.756117 230.895689 268.756117 
C 227.674453 268.756117 224.584717 270.035928 222.306959 272.313685 
C 220.029202 274.591443 218.749391 277.681179 218.749391 280.902415 
C 218.749391 284.12365 220.029202 287.213386 222.306959 289.491144 
C 224.584717 291.768902 227.674453 293.048712 230.895689 293.048712 
z
" clip-path="url(#pa70f61bde2)" style="fill: #6000ff; fill-opacity: 0.75; stroke: #6000ff; stroke-opacity: 0.75"/>
    <path d="M 236.207627 128.187983 
C 237.724927 128.187983 239.180287 127.585153 240.25318 126.51226 
C 241.326074 125.439367 241.928903 123.984007 241.928903 122.466707 
C 241.928903 120.949407 241.326074 119.494047 240.25318 118.421154 
C 239.180287 117.348261 237.724927 116.745431 236.207627 116.745431 
C 234.690327 116.745431 233.234968 117.348261 232.162074 118.421154 
C 231.089181 119.494047 230.486351 120.949407 230.486351 122.466707 
C 230.486351 123.984007 231.089181 125.439367 232.162074 126.51226 
C 233.234968 127.585153 234.690327 128.187983 236.207627 128.187983 
z
" clip-path="url(#pa70f61bde2)" style="fill: #84ff00; fill-opacity: 0.75; stroke: #84ff00; stroke-opacity: 0.75"/>
    <path d="M 225.734274 203.170387 
C 226.603372 203.170387 227.436991 202.825091 228.051537 202.210546 
C 228.666082 201.596 229.011378 200.762381 229.011378 199.893283 
C 229.011378 199.024185 228.666082 198.190566 228.051537 197.576021 
C 227.436991 196.961476 226.603372 196.616179 225.734274 196.616179 
C 224.865176 196.616179 224.031557 196.961476 223.417012 197.576021 
C 222.802467 198.190566 222.45717 199.024185 222.45717 199.893283 
C 222.45717 200.762381 222.802467 201.596 223.417012 202.210546 
C 224.031557 202.825091 224.865176 203.170387 225.734274 203.170387 
z
" clip-path="url(#pa70f61bde2)" style="fill: #0e00ff; fill-opacity: 0.75; stroke: #0e00ff; stroke-opacity: 0.75"/>
    <path d="M 160.27049 238.348424 
C 163.091455 238.348424 165.79726 237.227643 167.791983 235.23292 
C 169.786706 233.238197 170.907487 230.532392 170.907487 227.711428 
C 170.907487 224.890463 169.786706 222.184658 167.791983 220.189935 
C 165.79726 218.195212 163.091455 217.074431 160.27049 217.074431 
C 157.449526 217.074431 154.743721 218.195212 152.748998 220.189935 
C 150.754275 222.184658 149.633494 224.890463 149.633494 227.711428 
C 149.633494 230.532392 150.754275 233.238197 152.748998 235.23292 
C 154.743721 237.227643 157.449526 238.348424 160.27049 238.348424 
z
" clip-path="url(#pa70f61bde2)" style="fill: #0074ff; fill-opacity: 0.75; stroke: #0074ff; stroke-opacity: 0.75"/>
    <path d="M 243.579041 173.317535 
C 243.763483 173.317535 243.940396 173.244255 244.070816 173.113835 
C 244.201237 172.983414 244.274516 172.806502 244.274516 172.622059 
C 244.274516 172.437617 244.201237 172.260704 244.070816 172.130284 
C 243.940396 171.999864 243.763483 171.926584 243.579041 171.926584 
C 243.394599 171.926584 243.217686 171.999864 243.087266 172.130284 
C 242.956846 172.260704 242.883566 172.437617 242.883566 172.622059 
C 242.883566 172.806502 242.956846 172.983414 243.087266 173.113835 
C 243.217686 173.244255 243.394599 173.317535 243.579041 173.317535 
z
" clip-path="url(#pa70f61bde2)" style="fill: #ff1200; fill-opacity: 0.75; stroke: #ff1200; stroke-opacity: 0.75"/>
    <path d="M 198.318027 195.985217 
C 199.602779 195.985217 200.835083 195.474779 201.74354 194.566323 
C 202.651997 193.657866 203.162434 192.425561 203.162434 191.14081 
C 203.162434 189.856058 202.651997 188.623753 201.74354 187.715297 
C 200.835083 186.80684 199.602779 186.296403 198.318027 186.296403 
C 197.033275 186.296403 195.800971 186.80684 194.892514 187.715297 
C 193.984057 188.623753 193.47362 189.856058 193.47362 191.14081 
C 193.47362 192.425561 193.984057 193.657866 194.892514 194.566323 
C 195.800971 195.474779 197.033275 195.985217 198.318027 195.985217 
z
" clip-path="url(#pa70f61bde2)" style="fill: #00a4ff; fill-opacity: 0.75; stroke: #00a4ff; stroke-opacity: 0.75"/>
    <path d="M 309.278368 276.715488 
C 312.728515 276.715488 316.037818 275.34473 318.47744 272.905107 
C 320.917063 270.465485 322.287821 267.156182 322.287821 263.706035 
C 322.287821 260.255887 320.917063 256.946585 318.47744 254.506962 
C 316.037818 252.06734 312.728515 250.696582 309.278368 250.696582 
C 305.828221 250.696582 302.518918 252.06734 300.079296 254.506962 
C 297.639673 256.946585 296.268915 260.255887 296.268915 263.706035 
C 296.268915 267.156182 297.639673 270.465485 300.079296 272.905107 
C 302.518918 275.34473 305.828221 276.715488 309.278368 276.715488 
z
" clip-path="url(#pa70f61bde2)" style="fill: #ff00ed; fill-opacity: 0.75; stroke: #ff00ed; stroke-opacity: 0.75"/>
    <path d="M 262.09779 167.649087 
C 262.877325 167.649087 263.625037 167.339374 264.176251 166.78816 
C 264.727466 166.236945 265.037178 165.489233 265.037178 164.709698 
C 265.037178 163.930163 264.727466 163.182451 264.176251 162.631237 
C 263.625037 162.080022 262.877325 161.77031 262.09779 161.77031 
C 261.318255 161.77031 260.570543 162.080022 260.019328 162.631237 
C 259.468114 163.182451 259.158401 163.930163 259.158401 164.709698 
C 259.158401 165.489233 259.468114 166.236945 260.019328 166.78816 
C 260.570543 167.339374 261.318255 167.649087 262.09779 167.649087 
z
" clip-path="url(#pa70f61bde2)" style="fill: #ff4d00; fill-opacity: 0.75; stroke: #ff4d00; stroke-opacity: 0.75"/>
    <path d="M 235.577341 169.961457 
C 235.702704 169.961457 235.822949 169.91165 235.911593 169.823006 
C 236.000238 169.734361 236.050045 169.614116 236.050045 169.488754 
C 236.050045 169.363391 236.000238 169.243147 235.911593 169.154502 
C 235.822949 169.065857 235.702704 169.01605 235.577341 169.01605 
C 235.451979 169.01605 235.331734 169.065857 235.24309 169.154502 
C 235.154445 169.243147 235.104638 169.363391 235.104638 169.488754 
C 235.104638 169.614116 235.154445 169.734361 235.24309 169.823006 
C 235.331734 169.91165 235.451979 169.961457 235.577341 169.961457 
z
" clip-path="url(#pa70f61bde2)" style="fill: #1aff00; fill-opacity: 0.75; stroke: #1aff00; stroke-opacity: 0.75"/>
    <path d="M 243.967594 182.450979 
C 244.276826 182.450979 244.573434 182.32812 244.792094 182.10946 
C 245.010754 181.8908 245.133613 181.594192 245.133613 181.28496 
C 245.133613 180.975728 245.010754 180.67912 244.792094 180.46046 
C 244.573434 180.2418 244.276826 180.118941 243.967594 180.118941 
C 243.658362 180.118941 243.361754 180.2418 243.143094 180.46046 
C 242.924434 180.67912 242.801575 180.975728 242.801575 181.28496 
C 242.801575 181.594192 242.924434 181.8908 243.143094 182.10946 
C 243.361754 182.32812 243.658362 182.450979 243.967594 182.450979 
z
" clip-path="url(#pa70f61bde2)" style="fill: #ff00e7; fill-opacity: 0.75; stroke: #ff00e7; stroke-opacity: 0.75"/>
    <path d="M 283.769159 139.783871 
C 285.605052 139.783871 287.365999 139.054463 288.664171 137.75629 
C 289.962344 136.458118 290.691752 134.697171 290.691752 132.861278 
C 290.691752 131.025385 289.962344 129.264438 288.664171 127.966266 
C 287.365999 126.668094 285.605052 125.938686 283.769159 125.938686 
C 281.933266 125.938686 280.17232 126.668094 278.874147 127.966266 
C 277.575975 129.264438 276.846567 131.025385 276.846567 132.861278 
C 276.846567 134.697171 277.575975 136.458118 278.874147 137.75629 
C 280.17232 139.054463 281.933266 139.783871 283.769159 139.783871 
z
" clip-path="url(#pa70f61bde2)" style="fill: #ffa500; fill-opacity: 0.75; stroke: #ffa500; stroke-opacity: 0.75"/>
    <path d="M 249.120258 64.736895 
C 252.79148 64.736895 256.312833 63.278303 258.90878 60.682356 
C 261.504726 58.08641 262.963318 54.565057 262.963318 50.893835 
C 262.963318 47.222612 261.504726 43.701259 258.90878 41.105313 
C 256.312833 38.509367 252.79148 37.050775 249.120258 37.050775 
C 245.449036 37.050775 241.927683 38.509367 239.331736 41.105313 
C 236.73579 43.701259 235.277198 47.222612 235.277198 50.893835 
C 235.277198 54.565057 236.73579 58.08641 239.331736 60.682356 
C 241.927683 63.278303 245.449036 64.736895 249.120258 64.736895 
z
" clip-path="url(#pa70f61bde2)" style="fill: #a2ff00; fill-opacity: 0.75; stroke: #a2ff00; stroke-opacity: 0.75"/>
    <path d="M 201.389996 107.30155 
C 203.885045 107.30155 206.278238 106.310257 208.042504 104.545991 
C 209.806769 102.781726 210.798063 100.388532 210.798063 97.893484 
C 210.798063 95.398436 209.806769 93.005242 208.042504 91.240976 
C 206.278238 89.476711 203.885045 88.485418 201.389996 88.485418 
C 198.894948 88.485418 196.501754 89.476711 194.737489 91.240976 
C 192.973223 93.005242 191.98193 95.398436 191.98193 97.893484 
C 191.98193 100.388532 192.973223 102.781726 194.737489 104.545991 
C 196.501754 106.310257 198.894948 107.30155 201.389996 107.30155 
z
" clip-path="url(#pa70f61bde2)" style="fill: #1aff00; fill-opacity: 0.75; stroke: #1aff00; stroke-opacity: 0.75"/>
    <path d="M 128.749815 221.226642 
C 132.161248 221.226642 135.433417 219.871265 137.845664 217.459018 
C 140.257911 215.046771 141.613287 211.774602 141.613287 208.36317 
C 141.613287 204.951737 140.257911 201.679569 137.845664 199.267321 
C 135.433417 196.855074 132.161248 195.499698 128.749815 195.499698 
C 125.338383 195.499698 122.066214 196.855074 119.653967 199.267321 
C 117.24172 201.679569 115.886343 204.951737 115.886343 208.36317 
C 115.886343 211.774602 117.24172 215.046771 119.653967 217.459018 
C 122.066214 219.871265 125.338383 221.226642 128.749815 221.226642 
z
" clip-path="url(#pa70f61bde2)" style="fill: #00c1ff; fill-opacity: 0.75; stroke: #00c1ff; stroke-opacity: 0.75"/>
    <path d="M 144.291804 263.864045 
C 147.901397 263.864045 151.363637 262.429938 153.916006 259.87757 
C 156.468374 257.325202 157.90248 253.862962 157.90248 250.253368 
C 157.90248 246.643774 156.468374 243.181534 153.916006 240.629166 
C 151.363637 238.076798 147.901397 236.642691 144.291804 236.642691 
C 140.68221 236.642691 137.21997 238.076798 134.667602 240.629166 
C 132.115234 243.181534 130.681127 246.643774 130.681127 250.253368 
C 130.681127 253.862962 132.115234 257.325202 134.667602 259.87757 
C 137.21997 262.429938 140.68221 263.864045 144.291804 263.864045 
z
" clip-path="url(#pa70f61bde2)" style="fill: #0063ff; fill-opacity: 0.75; stroke: #0063ff; stroke-opacity: 0.75"/>
    <path d="M 239.567104 275.935867 
C 242.324283 275.935867 244.968906 274.840428 246.918525 272.890809 
C 248.868145 270.941189 249.963583 268.296566 249.963583 265.539388 
C 249.963583 262.78221 248.868145 260.137587 246.918525 258.187967 
C 244.968906 256.238348 242.324283 255.142909 239.567104 255.142909 
C 236.809926 255.142909 234.165303 256.238348 232.215684 258.187967 
C 230.266064 260.137587 229.170626 262.78221 229.170626 265.539388 
C 229.170626 268.296566 230.266064 270.941189 232.215684 272.890809 
C 234.165303 274.840428 236.809926 275.935867 239.567104 275.935867 
z
" clip-path="url(#pa70f61bde2)" style="fill: #7800ff; fill-opacity: 0.75; stroke: #7800ff; stroke-opacity: 0.75"/>
    <path d="M 286.833397 98.634228 
C 289.789523 98.634228 292.624971 97.459746 294.715268 95.36945 
C 296.805565 93.279153 297.980046 90.443704 297.980046 87.487578 
C 297.980046 84.531452 296.805565 81.696003 294.715268 79.605706 
C 292.624971 77.51541 289.789523 76.340928 286.833397 76.340928 
C 283.87727 76.340928 281.041822 77.51541 278.951525 79.605706 
C 276.861228 81.696003 275.686747 84.531452 275.686747 87.487578 
C 275.686747 90.443704 276.861228 93.279153 278.951525 95.36945 
C 281.041822 97.459746 283.87727 98.634228 286.833397 98.634228 
z
" clip-path="url(#pa70f61bde2)" style="fill: #fcf500; fill-opacity: 0.75; stroke: #fcf500; stroke-opacity: 0.75"/>
    <path d="M 281.394213 217.678964 
C 283.1276 217.678964 284.790226 216.990282 286.015915 215.764592 
C 287.241605 214.538903 287.930287 212.876277 287.930287 211.14289 
C 287.930287 209.409503 287.241605 207.746878 286.015915 206.521188 
C 284.790226 205.295499 283.1276 204.606817 281.394213 204.606817 
C 279.660826 204.606817 277.998201 205.295499 276.772511 206.521188 
C 275.546821 207.746878 274.858139 209.409503 274.858139 211.14289 
C 274.858139 212.876277 275.546821 214.538903 276.772511 215.764592 
C 277.998201 216.990282 279.660826 217.678964 281.394213 217.678964 
z
" clip-path="url(#pa70f61bde2)" style="fill: #ff00bd; fill-opacity: 0.75; stroke: #ff00bd; stroke-opacity: 0.75"/>
    <path d="M 358.601835 220.230319 
C 362.351388 220.230319 365.947874 218.740605 368.599208 216.089271 
C 371.250542 213.437937 372.740255 209.841451 372.740255 206.091898 
C 372.740255 202.342346 371.250542 198.74586 368.599208 196.094526 
C 365.947874 193.443191 362.351388 191.953478 358.601835 191.953478 
C 354.852282 191.953478 351.255797 193.443191 348.604462 196.094526 
C 345.953128 198.74586 344.463415 202.342346 344.463415 206.091898 
C 344.463415 209.841451 345.953128 213.437937 348.604462 216.089271 
C 351.255797 218.740605 354.852282 220.230319 358.601835 220.230319 
z
" clip-path="url(#pa70f61bde2)" style="fill: #ff0053; fill-opacity: 0.75; stroke: #ff0053; stroke-opacity: 0.75"/>
    <path d="M 268.322381 204.657675 
C 269.543768 204.657675 270.715295 204.172413 271.578946 203.308762 
C 272.442596 202.445111 272.927859 201.273584 272.927859 200.052198 
C 272.927859 198.830811 272.442596 197.659284 271.578946 196.795633 
C 270.715295 195.931982 269.543768 195.44672 268.322381 195.44672 
C 267.100994 195.44672 265.929468 195.931982 265.065817 196.795633 
C 264.202166 197.659284 263.716904 198.830811 263.716904 200.052198 
C 263.716904 201.273584 264.202166 202.445111 265.065817 203.308762 
C 265.929468 204.172413 267.100994 204.657675 268.322381 204.657675 
z
" clip-path="url(#pa70f61bde2)" style="fill: #ff00bd; fill-opacity: 0.75; stroke: #ff00bd; stroke-opacity: 0.75"/>
    <path d="M 299.904884 233.730821 
C 302.32055 233.730821 304.637602 232.771066 306.345736 231.062933 
C 308.05387 229.354799 309.013624 227.037747 309.013624 224.62208 
C 309.013624 222.206414 308.05387 219.889362 306.345736 218.181228 
C 304.637602 216.473094 302.32055 215.51334 299.904884 215.51334 
C 297.489217 215.51334 295.172165 216.473094 293.464032 218.181228 
C 291.755898 219.889362 290.796143 222.206414 290.796143 224.62208 
C 290.796143 227.037747 291.755898 229.354799 293.464032 231.062933 
C 295.172165 232.771066 297.489217 233.730821 299.904884 233.730821 
z
" clip-path="url(#pa70f61bde2)" style="fill: #ff00b7; fill-opacity: 0.75; stroke: #ff00b7; stroke-opacity: 0.75"/>
    <path d="M 249.352472 162.896419 
C 249.863619 162.896419 250.3539 162.693338 250.715336 162.331902 
C 251.076771 161.970467 251.279852 161.480186 251.279852 160.969039 
C 251.279852 160.457891 251.076771 159.96761 250.715336 159.606175 
C 250.3539 159.244739 249.863619 159.041658 249.352472 159.041658 
C 248.841325 159.041658 248.351044 159.244739 247.989608 159.606175 
C 247.628172 159.96761 247.425092 160.457891 247.425092 160.969039 
C 247.425092 161.480186 247.628172 161.970467 247.989608 162.331902 
C 248.351044 162.693338 248.841325 162.896419 249.352472 162.896419 
z
" clip-path="url(#pa70f61bde2)" style="fill: #ffbd00; fill-opacity: 0.75; stroke: #ffbd00; stroke-opacity: 0.75"/>
    <path d="M 173.782091 118.436478 
C 176.500828 118.436478 179.108578 117.356313 181.031015 115.433876 
C 182.953452 113.511439 184.033617 110.903689 184.033617 108.184952 
C 184.033617 105.466216 182.953452 102.858466 181.031015 100.936029 
C 179.108578 99.013592 176.500828 97.933427 173.782091 97.933427 
C 171.063355 97.933427 168.455605 99.013592 166.533168 100.936029 
C 164.610731 102.858466 163.530566 105.466216 163.530566 108.184952 
C 163.530566 110.903689 164.610731 113.511439 166.533168 115.433876 
C 168.455605 117.356313 171.063355 118.436478 173.782091 118.436478 
z
" clip-path="url(#pa70f61bde2)" style="fill: #00ff33; fill-opacity: 0.75; stroke: #00ff33; stroke-opacity: 0.75"/>
    <path d="M 315.165552 161.773552 
C 317.566816 161.773552 319.870053 160.81952 321.568003 159.121571 
C 323.265953 157.423621 324.219985 155.120383 324.219985 152.71912 
C 324.219985 150.317856 323.265953 148.014619 321.568003 146.316669 
C 319.870053 144.618719 317.566816 143.664687 315.165552 143.664687 
C 312.764289 143.664687 310.461051 144.618719 308.763101 146.316669 
C 307.065152 148.014619 306.111119 150.317856 306.111119 152.71912 
C 306.111119 155.120383 307.065152 157.423621 308.763101 159.121571 
C 310.461051 160.81952 312.764289 161.773552 315.165552 161.773552 
z
" clip-path="url(#pa70f61bde2)" style="fill: #ff3b00; fill-opacity: 0.75; stroke: #ff3b00; stroke-opacity: 0.75"/>
    <path d="M 226.116144 161.360861 
C 226.651819 161.360861 227.165627 161.148035 227.544407 160.769255 
C 227.923187 160.390475 228.136013 159.876667 228.136013 159.340991 
C 228.136013 158.805316 227.923187 158.291508 227.544407 157.912728 
C 227.165627 157.533948 226.651819 157.321122 226.116144 157.321122 
C 225.580468 157.321122 225.06666 157.533948 224.68788 157.912728 
C 224.3091 158.291508 224.096274 158.805316 224.096274 159.340991 
C 224.096274 159.876667 224.3091 160.390475 224.68788 160.769255 
C 225.06666 161.148035 225.580468 161.360861 226.116144 161.360861 
z
" clip-path="url(#pa70f61bde2)" style="fill: #00ff1b; fill-opacity: 0.75; stroke: #00ff1b; stroke-opacity: 0.75"/>
    <path d="M 198.912464 172.065894 
C 200.075051 172.065894 201.190179 171.603993 202.012252 170.78192 
C 202.834325 169.959847 203.296226 168.844719 203.296226 167.682132 
C 203.296226 166.519545 202.834325 165.404418 202.012252 164.582345 
C 201.190179 163.760272 200.075051 163.298371 198.912464 163.298371 
C 197.749877 163.298371 196.63475 163.760272 195.812677 164.582345 
C 194.990604 165.404418 194.528703 166.519545 194.528703 167.682132 
C 194.528703 168.844719 194.990604 169.959847 195.812677 170.78192 
C 196.63475 171.603993 197.749877 172.065894 198.912464 172.065894 
z
" clip-path="url(#pa70f61bde2)" style="fill: #00ffd3; fill-opacity: 0.75; stroke: #00ffd3; stroke-opacity: 0.75"/>
    <path d="M 261.223564 175.628281 
C 261.934108 175.628281 262.615647 175.345979 263.118078 174.843548 
C 263.620509 174.341116 263.902812 173.659578 263.902812 172.949033 
C 263.902812 172.238488 263.620509 171.55695 263.118078 171.054519 
C 262.615647 170.552087 261.934108 170.269785 261.223564 170.269785 
C 260.513019 170.269785 259.83148 170.552087 259.329049 171.054519 
C 258.826618 171.55695 258.544315 172.238488 258.544315 172.949033 
C 258.544315 173.659578 258.826618 174.341116 259.329049 174.843548 
C 259.83148 175.345979 260.513019 175.628281 261.223564 175.628281 
z
" clip-path="url(#pa70f61bde2)" style="fill: #ff0000; fill-opacity: 0.75; stroke: #ff0000; stroke-opacity: 0.75"/>
    <path d="M 279.243129 178.662358 
C 280.492001 178.662358 281.68989 178.166176 282.572976 177.28309 
C 283.456062 176.400004 283.952244 175.202114 283.952244 173.953243 
C 283.952244 172.704371 283.456062 171.506481 282.572976 170.623395 
C 281.68989 169.740309 280.492001 169.244127 279.243129 169.244127 
C 277.994257 169.244127 276.796367 169.740309 275.913282 170.623395 
C 275.030196 171.506481 274.534014 172.704371 274.534014 173.953243 
C 274.534014 175.202114 275.030196 176.400004 275.913282 177.28309 
C 276.796367 178.166176 277.994257 178.662358 279.243129 178.662358 
z
" clip-path="url(#pa70f61bde2)" style="fill: #ff0018; fill-opacity: 0.75; stroke: #ff0018; stroke-opacity: 0.75"/>
    <path d="M 288.134658 188.84989 
C 289.676859 188.84989 291.156104 188.237167 292.246605 187.146666 
C 293.337106 186.056165 293.94983 184.57692 293.94983 183.034718 
C 293.94983 181.492517 293.337106 180.013272 292.246605 178.922771 
C 291.156104 177.83227 289.676859 177.219547 288.134658 177.219547 
C 286.592456 177.219547 285.113212 177.83227 284.02271 178.922771 
C 282.932209 180.013272 282.319486 181.492517 282.319486 183.034718 
C 282.319486 184.57692 282.932209 186.056165 284.02271 187.146666 
C 285.113212 188.237167 286.592456 188.84989 288.134658 188.84989 
z
" clip-path="url(#pa70f61bde2)" style="fill: #ff0041; fill-opacity: 0.75; stroke: #ff0041; stroke-opacity: 0.75"/>
    <path d="M 280.696033 134.784293 
C 282.572139 134.784293 284.371657 134.038908 285.698265 132.7123 
C 287.024872 131.385693 287.770257 129.586175 287.770257 127.710069 
C 287.770257 125.833962 287.024872 124.034444 285.698265 122.707837 
C 284.371657 121.381229 282.572139 120.635845 280.696033 120.635845 
C 278.819927 120.635845 277.020409 121.381229 275.693801 122.707837 
C 274.367194 124.034444 273.621809 125.833962 273.621809 127.710069 
C 273.621809 129.586175 274.367194 131.385693 275.693801 132.7123 
C 277.020409 134.038908 278.819927 134.784293 280.696033 134.784293 
z
" clip-path="url(#pa70f61bde2)" style="fill: #ffbd00; fill-opacity: 0.75; stroke: #ffbd00; stroke-opacity: 0.75"/>
    <path d="M 264.569299 185.280535 
C 265.421416 185.280535 266.238748 184.941985 266.841286 184.339447 
C 267.443824 183.736909 267.782374 182.919577 267.782374 182.06746 
C 267.782374 181.215342 267.443824 180.39801 266.841286 179.795472 
C 266.238748 179.192934 265.421416 178.854384 264.569299 178.854384 
C 263.717181 178.854384 262.899849 179.192934 262.297311 179.795472 
C 261.694773 180.39801 261.356223 181.215342 261.356223 182.06746 
C 261.356223 182.919577 261.694773 183.736909 262.297311 184.339447 
C 262.899849 184.941985 263.717181 185.280535 264.569299 185.280535 
z
" clip-path="url(#pa70f61bde2)" style="fill: #ff005f; fill-opacity: 0.75; stroke: #ff005f; stroke-opacity: 0.75"/>
    <path d="M 228.238162 134.686186 
C 229.568554 134.686186 230.844634 134.157616 231.785363 133.216887 
C 232.726092 132.276158 233.254662 131.000077 233.254662 129.669686 
C 233.254662 128.339295 232.726092 127.063214 231.785363 126.122485 
C 230.844634 125.181756 229.568554 124.653186 228.238162 124.653186 
C 226.907771 124.653186 225.63169 125.181756 224.690961 126.122485 
C 223.750233 127.063214 223.221663 128.339295 223.221663 129.669686 
C 223.221663 131.000077 223.750233 132.276158 224.690961 133.216887 
C 225.63169 134.157616 226.907771 134.686186 228.238162 134.686186 
z
" clip-path="url(#pa70f61bde2)" style="fill: #55ff00; fill-opacity: 0.75; stroke: #55ff00; stroke-opacity: 0.75"/>
    <path d="M 225.45794 200.665662 
C 226.26864 200.665662 227.046244 200.343568 227.619496 199.770316 
C 228.192747 199.197065 228.514841 198.419461 228.514841 197.608761 
C 228.514841 196.798061 228.192747 196.020457 227.619496 195.447206 
C 227.046244 194.873954 226.26864 194.55186 225.45794 194.55186 
C 224.647241 194.55186 223.869636 194.873954 223.296385 195.447206 
C 222.723134 196.020457 222.401039 196.798061 222.401039 197.608761 
C 222.401039 198.419461 222.723134 199.197065 223.296385 199.770316 
C 223.869636 200.343568 224.647241 200.665662 225.45794 200.665662 
z
" clip-path="url(#pa70f61bde2)" style="fill: #0604ff; fill-opacity: 0.75; stroke: #0604ff; stroke-opacity: 0.75"/>
    <path d="M 218.140171 264.742144 
C 220.65632 264.742144 223.069752 263.742468 224.848938 261.963282 
C 226.628124 260.184097 227.6278 257.770664 227.6278 255.254516 
C 227.6278 252.738367 226.628124 250.324935 224.848938 248.545749 
C 223.069752 246.766563 220.65632 245.766887 218.140171 245.766887 
C 215.624023 245.766887 213.210591 246.766563 211.431405 248.545749 
C 209.652219 250.324935 208.652543 252.738367 208.652543 255.254516 
C 208.652543 257.770664 209.652219 260.184097 211.431405 261.963282 
C 213.210591 263.742468 215.624023 264.742144 218.140171 264.742144 
z
" clip-path="url(#pa70f61bde2)" style="fill: #3700ff; fill-opacity: 0.75; stroke: #3700ff; stroke-opacity: 0.75"/>
    <path d="M 260.632947 133.737847 
C 262.151451 133.737847 263.607966 133.134539 264.681711 132.060795 
C 265.755455 130.98705 266.358763 129.530535 266.358763 128.012031 
C 266.358763 126.493527 265.755455 125.037012 264.681711 123.963268 
C 263.607966 122.889523 262.151451 122.286215 260.632947 122.286215 
C 259.114443 122.286215 257.657928 122.889523 256.584184 123.963268 
C 255.510439 125.037012 254.907131 126.493527 254.907131 128.012031 
C 254.907131 129.530535 255.510439 130.98705 256.584184 132.060795 
C 257.657928 133.134539 259.114443 133.737847 260.632947 133.737847 
z
" clip-path="url(#pa70f61bde2)" style="fill: #f8fd00; fill-opacity: 0.75; stroke: #f8fd00; stroke-opacity: 0.75"/>
    <path d="M 161.779727 141.275493 
C 164.360032 141.275493 166.835003 140.250326 168.659555 138.425774 
C 170.484107 136.601223 171.509273 134.126252 171.509273 131.545946 
C 171.509273 128.96564 170.484107 126.49067 168.659555 124.666118 
C 166.835003 122.841566 164.360032 121.8164 161.779727 121.8164 
C 159.199421 121.8164 156.72445 122.841566 154.899898 124.666118 
C 153.075347 126.49067 152.05018 128.96564 152.05018 131.545946 
C 152.05018 134.126252 153.075347 136.601223 154.899898 138.425774 
C 156.72445 140.250326 159.199421 141.275493 161.779727 141.275493 
z
" clip-path="url(#pa70f61bde2)" style="fill: #00ff7a; fill-opacity: 0.75; stroke: #00ff7a; stroke-opacity: 0.75"/>
    <path d="M 189.320046 181.2478 
C 190.759223 181.2478 192.139649 180.676009 193.1573 179.658357 
C 194.174952 178.640706 194.746743 177.26028 194.746743 175.821104 
C 194.746743 174.381927 194.174952 173.001501 193.1573 171.98385 
C 192.139649 170.966198 190.759223 170.394407 189.320046 170.394407 
C 187.88087 170.394407 186.500444 170.966198 185.482793 171.98385 
C 184.465141 173.001501 183.89335 174.381927 183.89335 175.821104 
C 183.89335 177.26028 184.465141 178.640706 185.482793 179.658357 
C 186.500444 180.676009 187.88087 181.2478 189.320046 181.2478 
z
" clip-path="url(#pa70f61bde2)" style="fill: #00fcff; fill-opacity: 0.75; stroke: #00fcff; stroke-opacity: 0.75"/>
    <path d="M 181.927861 289.13231 
C 185.415462 289.13231 188.76069 287.746671 191.226797 285.280564 
C 193.692903 282.814458 195.078542 279.46923 195.078542 275.981629 
C 195.078542 272.494027 193.692903 269.148799 191.226797 266.682693 
C 188.76069 264.216586 185.415462 262.830947 181.927861 262.830947 
C 178.440259 262.830947 175.095032 264.216586 172.628925 266.682693 
C 170.162818 269.148799 168.77718 272.494027 168.77718 275.981629 
C 168.77718 279.46923 170.162818 282.814458 172.628925 285.280564 
C 175.095032 287.746671 178.440259 289.13231 181.927861 289.13231 
z
" clip-path="url(#pa70f61bde2)" style="fill: #0408ff; fill-opacity: 0.75; stroke: #0408ff; stroke-opacity: 0.75"/>
    <path d="M 187.7083 194.401444 
C 189.262195 194.401444 190.752655 193.784075 191.851425 192.685305 
C 192.950195 191.586536 193.567563 190.096075 193.567563 188.54218 
C 193.567563 186.988286 192.950195 185.497825 191.851425 184.399056 
C 190.752655 183.300286 189.262195 182.682917 187.7083 182.682917 
C 186.154405 182.682917 184.663945 183.300286 183.565175 184.399056 
C 182.466406 185.497825 181.849037 186.988286 181.849037 188.54218 
C 181.849037 190.096075 182.466406 191.586536 183.565175 192.685305 
C 184.663945 193.784075 186.154405 194.401444 187.7083 194.401444 
z
" clip-path="url(#pa70f61bde2)" style="fill: #00c1ff; fill-opacity: 0.75; stroke: #00c1ff; stroke-opacity: 0.75"/>
    <path d="M 247.875835 244.720022 
C 249.817029 244.720022 251.678978 243.948778 253.051609 242.576146 
C 254.424241 241.203515 255.195485 239.341566 255.195485 237.400372 
C 255.195485 235.459178 254.424241 233.597229 253.051609 232.224598 
C 251.678978 230.851966 249.817029 230.080722 247.875835 230.080722 
C 245.934641 230.080722 244.072692 230.851966 242.700061 232.224598 
C 241.32743 233.597229 240.556185 235.459178 240.556185 237.400372 
C 240.556185 239.341566 241.32743 241.203515 242.700061 242.576146 
C 244.072692 243.948778 245.934641 244.720022 247.875835 244.720022 
z
" clip-path="url(#pa70f61bde2)" style="fill: #9500ff; fill-opacity: 0.75; stroke: #9500ff; stroke-opacity: 0.75"/>
    <path d="M 179.396047 200.170055 
C 181.229663 200.170055 182.988425 199.441552 184.284987 198.14499 
C 185.581549 196.848428 186.310052 195.089666 186.310052 193.256051 
C 186.310052 191.422435 185.581549 189.663673 184.284987 188.367111 
C 182.988425 187.070549 181.229663 186.342046 179.396047 186.342046 
C 177.562432 186.342046 175.803669 187.070549 174.507107 188.367111 
C 173.210545 189.663673 172.482042 191.422435 172.482042 193.256051 
C 172.482042 195.089666 173.210545 196.848428 174.507107 198.14499 
C 175.803669 199.441552 177.562432 200.170055 179.396047 200.170055 
z
" clip-path="url(#pa70f61bde2)" style="fill: #00bbff; fill-opacity: 0.75; stroke: #00bbff; stroke-opacity: 0.75"/>
    <path d="M 233.304675 164.707288 
C 233.620563 164.707288 233.923555 164.581784 234.146921 164.358418 
C 234.370287 164.135052 234.49579 163.83206 234.49579 163.516172 
C 234.49579 163.200285 234.370287 162.897293 234.146921 162.673927 
C 233.923555 162.45056 233.620563 162.325057 233.304675 162.325057 
C 232.988788 162.325057 232.685796 162.45056 232.462429 162.673927 
C 232.239063 162.897293 232.11356 163.200285 232.11356 163.516172 
C 232.11356 163.83206 232.239063 164.135052 232.462429 164.358418 
C 232.685796 164.581784 232.988788 164.707288 233.304675 164.707288 
z
" clip-path="url(#pa70f61bde2)" style="fill: #25ff00; fill-opacity: 0.75; stroke: #25ff00; stroke-opacity: 0.75"/>
    <path d="M 218.2696 164.229465 
C 218.937854 164.229465 219.578829 163.963965 220.051356 163.491437 
C 220.523883 163.01891 220.789383 162.377936 220.789383 161.709681 
C 220.789383 161.041427 220.523883 160.400453 220.051356 159.927926 
C 219.578829 159.455398 218.937854 159.189898 218.2696 159.189898 
C 217.601346 159.189898 216.960371 159.455398 216.487844 159.927926 
C 216.015317 160.400453 215.749817 161.041427 215.749817 161.709681 
C 215.749817 162.377936 216.015317 163.01891 216.487844 163.491437 
C 216.960371 163.963965 217.601346 164.229465 218.2696 164.229465 
z
" clip-path="url(#pa70f61bde2)" style="fill: #00ff6e; fill-opacity: 0.75; stroke: #00ff6e; stroke-opacity: 0.75"/>
    <path d="M 249.580185 165.843509 
C 250.03378 165.843509 250.468858 165.663294 250.789598 165.342553 
C 251.110338 165.021813 251.290554 164.586735 251.290554 164.13314 
C 251.290554 163.679545 251.110338 163.244467 250.789598 162.923726 
C 250.468858 162.602986 250.03378 162.422771 249.580185 162.422771 
C 249.12659 162.422771 248.691511 162.602986 248.370771 162.923726 
C 248.050031 163.244467 247.869816 163.679545 247.869816 164.13314 
C 247.869816 164.586735 248.050031 165.021813 248.370771 165.342553 
C 248.691511 165.663294 249.12659 165.843509 249.580185 165.843509 
z
" clip-path="url(#pa70f61bde2)" style="fill: #ff9400; fill-opacity: 0.75; stroke: #ff9400; stroke-opacity: 0.75"/>
    <path d="M 217.950023 288.702013 
C 221.09802 288.702013 224.117507 287.451301 226.343477 285.225331 
C 228.569448 282.99936 229.82016 279.979873 229.82016 276.831876 
C 229.82016 273.683878 228.569448 270.664391 226.343477 268.438421 
C 224.117507 266.212451 221.09802 264.961738 217.950023 264.961738 
C 214.802025 264.961738 211.782538 266.212451 209.556568 268.438421 
C 207.330598 270.664391 206.079885 273.683878 206.079885 276.831876 
C 206.079885 279.979873 207.330598 282.99936 209.556568 285.225331 
C 211.782538 287.451301 214.802025 288.702013 217.950023 288.702013 
z
" clip-path="url(#pa70f61bde2)" style="fill: #4300ff; fill-opacity: 0.75; stroke: #4300ff; stroke-opacity: 0.75"/>
    <path d="M 250.406444 169.266166 
C 250.828125 169.266166 251.232592 169.098631 251.530766 168.800457 
C 251.828939 168.502283 251.996475 168.097816 251.996475 167.676135 
C 251.996475 167.254454 251.828939 166.849987 251.530766 166.551813 
C 251.232592 166.253639 250.828125 166.086103 250.406444 166.086103 
C 249.984762 166.086103 249.580295 166.253639 249.282122 166.551813 
C 248.983948 166.849987 248.816412 167.254454 248.816412 167.676135 
C 248.816412 168.097816 248.983948 168.502283 249.282122 168.800457 
C 249.580295 169.098631 249.984762 169.266166 250.406444 169.266166 
z
" clip-path="url(#pa70f61bde2)" style="fill: #ff5f00; fill-opacity: 0.75; stroke: #ff5f00; stroke-opacity: 0.75"/>
    <path d="M 167.968538 171.765937 
C 170.062228 171.765937 172.070447 170.934105 173.550909 169.453643 
C 175.031371 167.973181 175.863202 165.964962 175.863202 163.871273 
C 175.863202 161.777583 175.031371 159.769364 173.550909 158.288902 
C 172.070447 156.80844 170.062228 155.976609 167.968538 155.976609 
C 165.874849 155.976609 163.86663 156.80844 162.386168 158.288902 
C 160.905706 159.769364 160.073874 161.777583 160.073874 163.871273 
C 160.073874 165.964962 160.905706 167.973181 162.386168 169.453643 
C 163.86663 170.934105 165.874849 171.765937 167.968538 171.765937 
z
" clip-path="url(#pa70f61bde2)" style="fill: #00ffd3; fill-opacity: 0.75; stroke: #00ffd3; stroke-opacity: 0.75"/>
    <path d="M 330.196221 262.89638 
C 333.780405 262.89638 337.218273 261.472369 339.752674 258.937968 
C 342.287076 256.403566 343.711087 252.965698 343.711087 249.381514 
C 343.711087 245.79733 342.287076 242.359462 339.752674 239.825061 
C 337.218273 237.290659 333.780405 235.866648 330.196221 235.866648 
C 326.612037 235.866648 323.174169 237.290659 320.639768 239.825061 
C 318.105366 242.359462 316.681355 245.79733 316.681355 249.381514 
C 316.681355 252.965698 318.105366 256.403566 320.639768 258.937968 
C 323.174169 261.472369 326.612037 262.89638 330.196221 262.89638 
z
" clip-path="url(#pa70f61bde2)" style="fill: #ff00b7; fill-opacity: 0.75; stroke: #ff00b7; stroke-opacity: 0.75"/>
    <path d="M 318.134145 203.852594 
C 320.626253 203.852594 323.016626 202.862469 324.778813 201.100283 
C 326.540999 199.338096 327.531124 196.947723 327.531124 194.455615 
C 327.531124 191.963507 326.540999 189.573133 324.778813 187.810947 
C 323.016626 186.04876 320.626253 185.058635 318.134145 185.058635 
C 315.642037 185.058635 313.251664 186.04876 311.489477 187.810947 
C 309.72729 189.573133 308.737165 191.963507 308.737165 194.455615 
C 308.737165 196.947723 309.72729 199.338096 311.489477 201.100283 
C 313.251664 202.862469 315.642037 203.852594 318.134145 203.852594 
z
" clip-path="url(#pa70f61bde2)" style="fill: #ff004d; fill-opacity: 0.75; stroke: #ff004d; stroke-opacity: 0.75"/>
    <path d="M 210.796963 286.598312 
C 213.931969 286.598312 216.938995 285.352761 219.155779 283.135977 
C 221.372563 280.919193 222.618114 277.912167 222.618114 274.777161 
C 222.618114 271.642155 221.372563 268.635129 219.155779 266.418345 
C 216.938995 264.201561 213.931969 262.95601 210.796963 262.95601 
C 207.661957 262.95601 204.65493 264.201561 202.438146 266.418345 
C 200.221362 268.635129 198.975811 271.642155 198.975811 274.777161 
C 198.975811 277.912167 200.221362 280.919193 202.438146 283.135977 
C 204.65493 285.352761 207.661957 286.598312 210.796963 286.598312 
z
" clip-path="url(#pa70f61bde2)" style="fill: #3100ff; fill-opacity: 0.75; stroke: #3100ff; stroke-opacity: 0.75"/>
    <path d="M 261.21985 173.009964 
C 261.935637 173.009964 262.622204 172.725579 263.128342 172.219441 
C 263.63448 171.713304 263.918865 171.026737 263.918865 170.31095 
C 263.918865 169.595163 263.63448 168.908597 263.128342 168.402459 
C 262.622204 167.896321 261.935637 167.611936 261.21985 167.611936 
C 260.504064 167.611936 259.817497 167.896321 259.311359 168.402459 
C 258.805221 168.908597 258.520836 169.595163 258.520836 170.31095 
C 258.520836 171.026737 258.805221 171.713304 259.311359 172.219441 
C 259.817497 172.725579 260.504064 173.009964 261.21985 173.009964 
z
" clip-path="url(#pa70f61bde2)" style="fill: #ff1800; fill-opacity: 0.75; stroke: #ff1800; stroke-opacity: 0.75"/>
    <path d="M 211.21325 170.12004 
C 212.017832 170.12004 212.789569 169.800376 213.358495 169.231451 
C 213.92742 168.662525 214.247084 167.890788 214.247084 167.086206 
C 214.247084 166.281624 213.92742 165.509887 213.358495 164.940962 
C 212.789569 164.372036 212.017832 164.052373 211.21325 164.052373 
C 210.408668 164.052373 209.636931 164.372036 209.068006 164.940962 
C 208.499081 165.509887 208.179417 166.281624 208.179417 167.086206 
C 208.179417 167.890788 208.499081 168.662525 209.068006 169.231451 
C 209.636931 169.800376 210.408668 170.12004 211.21325 170.12004 
z
" clip-path="url(#pa70f61bde2)" style="fill: #00ffbb; fill-opacity: 0.75; stroke: #00ffbb; stroke-opacity: 0.75"/>
    <path d="M 157.295117 271.055711 
C 160.777295 271.055711 164.117321 269.672227 166.579593 267.209955 
C 169.041865 264.747683 170.425349 261.407657 170.425349 257.925479 
C 170.425349 254.443301 169.041865 251.103275 166.579593 248.641003 
C 164.117321 246.178731 160.777295 244.795247 157.295117 244.795247 
C 153.812939 244.795247 150.472913 246.178731 148.010641 248.641003 
C 145.548369 251.103275 144.164885 254.443301 144.164885 257.925479 
C 144.164885 261.407657 145.548369 264.747683 148.010641 267.209955 
C 150.472913 269.672227 153.812939 271.055711 157.295117 271.055711 
z
" clip-path="url(#pa70f61bde2)" style="fill: #0045ff; fill-opacity: 0.75; stroke: #0045ff; stroke-opacity: 0.75"/>
    <path d="M 235.679706 302.945589 
C 239.161647 302.945589 242.501446 301.5622 244.96355 299.100095 
C 247.425654 296.637991 248.809044 293.298193 248.809044 289.816252 
C 248.809044 286.334311 247.425654 282.994512 244.96355 280.532408 
C 242.501446 278.070304 239.161647 276.686914 235.679706 276.686914 
C 232.197765 276.686914 228.857967 278.070304 226.395863 280.532408 
C 223.933759 282.994512 222.550369 286.334311 222.550369 289.816252 
C 222.550369 293.298193 223.933759 296.637991 226.395863 299.100095 
C 228.857967 301.5622 232.197765 302.945589 235.679706 302.945589 
z
" clip-path="url(#pa70f61bde2)" style="fill: #6c00ff; fill-opacity: 0.75; stroke: #6c00ff; stroke-opacity: 0.75"/>
    <path d="M 312.355315 130.719009 
C 315.093908 130.719009 317.720704 129.630954 319.657182 127.694476 
C 321.593661 125.757998 322.681715 123.131202 322.681715 120.392608 
C 322.681715 117.654015 321.593661 115.027218 319.657182 113.09074 
C 317.720704 111.154262 315.093908 110.066207 312.355315 110.066207 
C 309.616721 110.066207 306.989925 111.154262 305.053447 113.09074 
C 303.116969 115.027218 302.028914 117.654015 302.028914 120.392608 
C 302.028914 123.131202 303.116969 125.757998 305.053447 127.694476 
C 306.989925 129.630954 309.616721 130.719009 312.355315 130.719009 
z
" clip-path="url(#pa70f61bde2)" style="fill: #ff8e00; fill-opacity: 0.75; stroke: #ff8e00; stroke-opacity: 0.75"/>
    <path d="M 212.445622 157.755139 
C 213.383898 157.755139 214.283872 157.382358 214.947333 156.718896 
C 215.610795 156.055434 215.983576 155.155461 215.983576 154.217185 
C 215.983576 153.278908 215.610795 152.378935 214.947333 151.715473 
C 214.283872 151.052012 213.383898 150.679231 212.445622 150.679231 
C 211.507346 150.679231 210.607372 151.052012 209.943911 151.715473 
C 209.280449 152.378935 208.907668 153.278908 208.907668 154.217185 
C 208.907668 155.155461 209.280449 156.055434 209.943911 156.718896 
C 210.607372 157.382358 211.507346 157.755139 212.445622 157.755139 
z
" clip-path="url(#pa70f61bde2)" style="fill: #00ff57; fill-opacity: 0.75; stroke: #00ff57; stroke-opacity: 0.75"/>
    <path d="M 117.274351 208.345658 
C 120.919549 208.345658 124.415939 206.897406 126.993482 204.319862 
C 129.571026 201.742318 131.019278 198.245928 131.019278 194.600731 
C 131.019278 190.955534 129.571026 187.459144 126.993482 184.8816 
C 124.415939 182.304057 120.919549 180.855805 117.274351 180.855805 
C 113.629154 180.855805 110.132764 182.304057 107.555221 184.8816 
C 104.977677 187.459144 103.529425 190.955534 103.529425 194.600731 
C 103.529425 198.245928 104.977677 201.742318 107.555221 204.319862 
C 110.132764 206.897406 113.629154 208.345658 117.274351 208.345658 
z
" clip-path="url(#pa70f61bde2)" style="fill: #00dfff; fill-opacity: 0.75; stroke: #00dfff; stroke-opacity: 0.75"/>
    <path d="M 194.559242 279.792279 
C 197.667427 279.792279 200.648728 278.557384 202.846547 276.359565 
C 205.044366 274.161746 206.279261 271.180445 206.279261 268.07226 
C 206.279261 264.964075 205.044366 261.982774 202.846547 259.784955 
C 200.648728 257.587136 197.667427 256.352241 194.559242 256.352241 
C 191.451056 256.352241 188.469756 257.587136 186.271937 259.784955 
C 184.074118 261.982774 182.839223 264.964075 182.839223 268.07226 
C 182.839223 271.180445 184.074118 274.161746 186.271937 276.359565 
C 188.469756 278.557384 191.451056 279.792279 194.559242 279.792279 
z
" clip-path="url(#pa70f61bde2)" style="fill: #0e00ff; fill-opacity: 0.75; stroke: #0e00ff; stroke-opacity: 0.75"/>
    <path d="M 251.980708 155.902286 
C 252.722918 155.902286 253.434828 155.607403 253.959649 155.082581 
C 254.48447 154.55776 254.779353 153.84585 254.779353 153.10364 
C 254.779353 152.361431 254.48447 151.649521 253.959649 151.124699 
C 253.434828 150.599878 252.722918 150.304995 251.980708 150.304995 
C 251.238499 150.304995 250.526588 150.599878 250.001767 151.124699 
C 249.476946 151.649521 249.182063 152.361431 249.182063 153.10364 
C 249.182063 153.84585 249.476946 154.55776 250.001767 155.082581 
C 250.526588 155.607403 251.238499 155.902286 251.980708 155.902286 
z
" clip-path="url(#pa70f61bde2)" style="fill: #ffe000; fill-opacity: 0.75; stroke: #ffe000; stroke-opacity: 0.75"/>
    <path d="M 248.863575 242.127609 
C 250.740646 242.127609 252.54109 241.381841 253.868379 240.054552 
C 255.195668 238.727262 255.941437 236.926819 255.941437 235.049748 
C 255.941437 233.172677 255.195668 231.372234 253.868379 230.044944 
C 252.54109 228.717655 250.740646 227.971887 248.863575 227.971887 
C 246.986505 227.971887 245.186061 228.717655 243.858772 230.044944 
C 242.531482 231.372234 241.785714 233.172677 241.785714 235.049748 
C 241.785714 236.926819 242.531482 238.727262 243.858772 240.054552 
C 245.186061 241.381841 246.986505 242.127609 248.863575 242.127609 
z
" clip-path="url(#pa70f61bde2)" style="fill: #9b00ff; fill-opacity: 0.75; stroke: #9b00ff; stroke-opacity: 0.75"/>
    <path d="M 243.912096 210.885302 
C 244.938874 210.885302 245.923736 210.477359 246.649778 209.751317 
C 247.37582 209.025275 247.783763 208.040413 247.783763 207.013635 
C 247.783763 205.986857 247.37582 205.001995 246.649778 204.275953 
C 245.923736 203.549911 244.938874 203.141968 243.912096 203.141968 
C 242.885318 203.141968 241.900456 203.549911 241.174414 204.275953 
C 240.448372 205.001995 240.040429 205.986857 240.040429 207.013635 
C 240.040429 208.040413 240.448372 209.025275 241.174414 209.751317 
C 241.900456 210.477359 242.885318 210.885302 243.912096 210.885302 
z
" clip-path="url(#pa70f61bde2)" style="fill: #a100ff; fill-opacity: 0.75; stroke: #a100ff; stroke-opacity: 0.75"/>
    <path d="M 207.384284 187.766752 
C 208.33923 187.766752 209.255193 187.387348 209.930443 186.712098 
C 210.605692 186.036849 210.985096 185.120886 210.985096 184.165939 
C 210.985096 183.210993 210.605692 182.29503 209.930443 181.61978 
C 209.255193 180.944531 208.33923 180.565127 207.384284 180.565127 
C 206.429337 180.565127 205.513374 180.944531 204.838125 181.61978 
C 204.162875 182.29503 203.783471 183.210993 203.783471 184.165939 
C 203.783471 185.120886 204.162875 186.036849 204.838125 186.712098 
C 205.513374 187.387348 206.429337 187.766752 207.384284 187.766752 
z
" clip-path="url(#pa70f61bde2)" style="fill: #00b5ff; fill-opacity: 0.75; stroke: #00b5ff; stroke-opacity: 0.75"/>
    <path d="M 307.115919 290.16354 
C 310.828052 290.16354 314.388646 288.688693 317.01352 286.063819 
C 319.638394 283.438945 321.11324 279.878351 321.11324 276.166218 
C 321.11324 272.454085 319.638394 268.893492 317.01352 266.268618 
C 314.388646 263.643743 310.828052 262.168897 307.115919 262.168897 
C 303.403786 262.168897 299.843193 263.643743 297.218318 266.268618 
C 294.593444 268.893492 293.118598 272.454085 293.118598 276.166218 
C 293.118598 279.878351 294.593444 283.438945 297.218318 286.063819 
C 299.843193 288.688693 303.403786 290.16354 307.115919 290.16354 
z
" clip-path="url(#pa70f61bde2)" style="fill: #fa00f9; fill-opacity: 0.75; stroke: #fa00f9; stroke-opacity: 0.75"/>
    <path d="M 243.312163 173.337564 
C 243.488523 173.337564 243.657684 173.267495 243.782389 173.14279 
C 243.907095 173.018084 243.977163 172.848924 243.977163 172.672564 
C 243.977163 172.496204 243.907095 172.327043 243.782389 172.202338 
C 243.657684 172.077632 243.488523 172.007564 243.312163 172.007564 
C 243.135803 172.007564 242.966642 172.077632 242.841937 172.202338 
C 242.717232 172.327043 242.647163 172.496204 242.647163 172.672564 
C 242.647163 172.848924 242.717232 173.018084 242.841937 173.14279 
C 242.966642 173.267495 243.135803 173.337564 243.312163 173.337564 
z
" clip-path="url(#pa70f61bde2)" style="fill: #ff1200; fill-opacity: 0.75; stroke: #ff1200; stroke-opacity: 0.75"/>
    <path d="M 286.096811 140.741897 
C 287.970176 140.741897 289.767065 139.997601 291.091733 138.672933 
C 292.416402 137.348264 293.160698 135.551375 293.160698 133.678011 
C 293.160698 131.804646 292.416402 130.007757 291.091733 128.683089 
C 289.767065 127.35842 287.970176 126.614124 286.096811 126.614124 
C 284.223447 126.614124 282.426558 127.35842 281.101889 128.683089 
C 279.777221 130.007757 279.032925 131.804646 279.032925 133.678011 
C 279.032925 135.551375 279.777221 137.348264 281.101889 138.672933 
C 282.426558 139.997601 284.223447 140.741897 286.096811 140.741897 
z
" clip-path="url(#pa70f61bde2)" style="fill: #ff9f00; fill-opacity: 0.75; stroke: #ff9f00; stroke-opacity: 0.75"/>
    <path d="M 237.955239 172.884031 
C 237.975663 172.884031 237.995253 172.875917 238.009694 172.861475 
C 238.024136 172.847033 238.032251 172.827443 238.032251 172.80702 
C 238.032251 172.786596 238.024136 172.767006 238.009694 172.752564 
C 237.995253 172.738122 237.975663 172.730008 237.955239 172.730008 
C 237.934815 172.730008 237.915225 172.738122 237.900783 172.752564 
C 237.886342 172.767006 237.878227 172.786596 237.878227 172.80702 
C 237.878227 172.827443 237.886342 172.847033 237.900783 172.861475 
C 237.915225 172.875917 237.934815 172.884031 237.955239 172.884031 
z
" clip-path="url(#pa70f61bde2)" style="fill: #ffa500; fill-opacity: 0.75; stroke: #ffa500; stroke-opacity: 0.75"/>
    <path d="M 232.770484 177.717276 
C 232.949989 177.717276 233.122166 177.645957 233.249096 177.519028 
C 233.376025 177.392099 233.447343 177.219921 233.447343 177.040416 
C 233.447343 176.860911 233.376025 176.688733 233.249096 176.561804 
C 233.122166 176.434875 232.949989 176.363557 232.770484 176.363557 
C 232.590978 176.363557 232.418801 176.434875 232.291872 176.561804 
C 232.164942 176.688733 232.093624 176.860911 232.093624 177.040416 
C 232.093624 177.219921 232.164942 177.392099 232.291872 177.519028 
C 232.418801 177.645957 232.590978 177.717276 232.770484 177.717276 
z
" clip-path="url(#pa70f61bde2)" style="fill: #0063ff; fill-opacity: 0.75; stroke: #0063ff; stroke-opacity: 0.75"/>
    <path d="M 249.012178 66.007009 
C 252.640523 66.007009 256.120748 64.565452 258.686375 61.999825 
C 261.252002 59.434198 262.693558 55.953973 262.693558 52.325628 
C 262.693558 48.697284 261.252002 45.217059 258.686375 42.651432 
C 256.120748 40.085805 252.640523 38.644248 249.012178 38.644248 
C 245.383834 38.644248 241.903608 40.085805 239.337981 42.651432 
C 236.772354 45.217059 235.330798 48.697284 235.330798 52.325628 
C 235.330798 55.953973 236.772354 59.434198 239.337981 61.999825 
C 241.903608 64.565452 245.383834 66.007009 249.012178 66.007009 
z
" clip-path="url(#pa70f61bde2)" style="fill: #a2ff00; fill-opacity: 0.75; stroke: #a2ff00; stroke-opacity: 0.75"/>
   </g>
   <g id="matplotlib.axis_1">
    <g id="xtick_1">
     <g id="line2d_1">
      <path d="M 237.436018 173.251982 
L 237.436018 41.472 
" clip-path="url(#pa70f61bde2)" style="fill: none; stroke: #808080; stroke-width: 0.5; stroke-linecap: square"/>
     </g>
     <g id="text_1">
      <!-- 90° -->
      <g transform="translate(228.573518 30.231375) scale(0.1 -0.1)">
       <defs>
        <path id="DejaVuSans-39" d="M 703 97 
L 703 672 
Q 941 559 1184 500 
Q 1428 441 1663 441 
Q 2288 441 2617 861 
Q 2947 1281 2994 2138 
Q 2813 1869 2534 1725 
Q 2256 1581 1919 1581 
Q 1219 1581 811 2004 
Q 403 2428 403 3163 
Q 403 3881 828 4315 
Q 1253 4750 1959 4750 
Q 2769 4750 3195 4129 
Q 3622 3509 3622 2328 
Q 3622 1225 3098 567 
Q 2575 -91 1691 -91 
Q 1453 -91 1209 -44 
Q 966 3 703 97 
z
M 1959 2075 
Q 2384 2075 2632 2365 
Q 2881 2656 2881 3163 
Q 2881 3666 2632 3958 
Q 2384 4250 1959 4250 
Q 1534 4250 1286 3958 
Q 1038 3666 1038 3163 
Q 1038 2656 1286 2365 
Q 1534 2075 1959 2075 
z
" transform="scale(0.015625)"/>
        <path id="DejaVuSans-30" d="M 2034 4250 
Q 1547 4250 1301 3770 
Q 1056 3291 1056 2328 
Q 1056 1369 1301 889 
Q 1547 409 2034 409 
Q 2525 409 2770 889 
Q 3016 1369 3016 2328 
Q 3016 3291 2770 3770 
Q 2525 4250 2034 4250 
z
M 2034 4750 
Q 2819 4750 3233 4129 
Q 3647 3509 3647 2328 
Q 3647 1150 3233 529 
Q 2819 -91 2034 -91 
Q 1250 -91 836 529 
Q 422 1150 422 2328 
Q 422 3509 836 4129 
Q 1250 4750 2034 4750 
z
" transform="scale(0.015625)"/>
        <path id="DejaVuSans-b0" d="M 1600 4347 
Q 1350 4347 1178 4173 
Q 1006 4000 1006 3750 
Q 1006 3503 1178 3333 
Q 1350 3163 1600 3163 
Q 1850 3163 2022 3333 
Q 2194 3503 2194 3750 
Q 2194 3997 2020 4172 
Q 1847 4347 1600 4347 
z
M 1600 4750 
Q 1800 4750 1984 4673 
Q 2169 4597 2303 4453 
Q 2447 4313 2519 4134 
Q 2591 3956 2591 3750 
Q 2591 3338 2302 3052 
Q 2013 2766 1594 2766 
Q 1172 2766 890 3047 
Q 609 3328 609 3750 
Q 609 4169 896 4459 
Q 1184 4750 1600 4750 
z
" transform="scale(0.015625)"/>
       </defs>
       <use xlink:href="#DejaVuSans-39"/>
       <use xlink:href="#DejaVuSans-30" transform="translate(63.623047 0)"/>
       <use xlink:href="#DejaVuSans-b0" transform="translate(127.246094 0)"/>
      </g>
     </g>
    </g>
    <g id="xtick_2">
     <g id="line2d_2">
      <path d="M 237.436018 173.251982 
L 144.253499 80.069463 
" clip-path="url(#pa70f61bde2)" style="fill: none; stroke: #808080; stroke-width: 0.5; stroke-linecap: square"/>
     </g>
     <g id="text_2">
      <!-- 135° -->
      <g transform="translate(122.310254 72.929343) scale(0.1 -0.1)">
       <defs>
        <path id="DejaVuSans-31" d="M 794 531 
L 1825 531 
L 1825 4091 
L 703 3866 
L 703 4441 
L 1819 4666 
L 2450 4666 
L 2450 531 
L 3481 531 
L 3481 0 
L 794 0 
L 794 531 
z
" transform="scale(0.015625)"/>
        <path id="DejaVuSans-33" d="M 2597 2516 
Q 3050 2419 3304 2112 
Q 3559 1806 3559 1356 
Q 3559 666 3084 287 
Q 2609 -91 1734 -91 
Q 1441 -91 1130 -33 
Q 819 25 488 141 
L 488 750 
Q 750 597 1062 519 
Q 1375 441 1716 441 
Q 2309 441 2620 675 
Q 2931 909 2931 1356 
Q 2931 1769 2642 2001 
Q 2353 2234 1838 2234 
L 1294 2234 
L 1294 2753 
L 1863 2753 
Q 2328 2753 2575 2939 
Q 2822 3125 2822 3475 
Q 2822 3834 2567 4026 
Q 2313 4219 1838 4219 
Q 1578 4219 1281 4162 
Q 984 4106 628 3988 
L 628 4550 
Q 988 4650 1302 4700 
Q 1616 4750 1894 4750 
Q 2613 4750 3031 4423 
Q 3450 4097 3450 3541 
Q 3450 3153 3228 2886 
Q 3006 2619 2597 2516 
z
" transform="scale(0.015625)"/>
        <path id="DejaVuSans-35" d="M 691 4666 
L 3169 4666 
L 3169 4134 
L 1269 4134 
L 1269 2991 
Q 1406 3038 1543 3061 
Q 1681 3084 1819 3084 
Q 2600 3084 3056 2656 
Q 3513 2228 3513 1497 
Q 3513 744 3044 326 
Q 2575 -91 1722 -91 
Q 1428 -91 1123 -41 
Q 819 9 494 109 
L 494 744 
Q 775 591 1075 516 
Q 1375 441 1709 441 
Q 2250 441 2565 725 
Q 2881 1009 2881 1497 
Q 2881 1984 2565 2268 
Q 2250 2553 1709 2553 
Q 1456 2553 1204 2497 
Q 953 2441 691 2322 
L 691 4666 
z
" transform="scale(0.015625)"/>
       </defs>
       <use xlink:href="#DejaVuSans-31"/>
       <use xlink:href="#DejaVuSans-33" transform="translate(63.623047 0)"/>
       <use xlink:href="#DejaVuSans-35" transform="translate(127.246094 0)"/>
       <use xlink:href="#DejaVuSans-b0" transform="translate(190.869141 0)"/>
      </g>
     </g>
    </g>
    <g id="xtick_3">
     <g id="line2d_3">
      <path d="M 237.436018 173.251982 
L 105.656036 173.251982 
" clip-path="url(#pa70f61bde2)" style="fill: none; stroke: #808080; stroke-width: 0.5; stroke-linecap: square"/>
     </g>
     <g id="text_3">
      <!-- 180° -->
      <g transform="translate(79.612286 176.011357) scale(0.1 -0.1)">
       <defs>
        <path id="DejaVuSans-38" d="M 2034 2216 
Q 1584 2216 1326 1975 
Q 1069 1734 1069 1313 
Q 1069 891 1326 650 
Q 1584 409 2034 409 
Q 2484 409 2743 651 
Q 3003 894 3003 1313 
Q 3003 1734 2745 1975 
Q 2488 2216 2034 2216 
z
M 1403 2484 
Q 997 2584 770 2862 
Q 544 3141 544 3541 
Q 544 4100 942 4425 
Q 1341 4750 2034 4750 
Q 2731 4750 3128 4425 
Q 3525 4100 3525 3541 
Q 3525 3141 3298 2862 
Q 3072 2584 2669 2484 
Q 3125 2378 3379 2068 
Q 3634 1759 3634 1313 
Q 3634 634 3220 271 
Q 2806 -91 2034 -91 
Q 1263 -91 848 271 
Q 434 634 434 1313 
Q 434 1759 690 2068 
Q 947 2378 1403 2484 
z
M 1172 3481 
Q 1172 3119 1398 2916 
Q 1625 2713 2034 2713 
Q 2441 2713 2670 2916 
Q 2900 3119 2900 3481 
Q 2900 3844 2670 4047 
Q 2441 4250 2034 4250 
Q 1625 4250 1398 4047 
Q 1172 3844 1172 3481 
z
" transform="scale(0.015625)"/>
       </defs>
       <use xlink:href="#DejaVuSans-31"/>
       <use xlink:href="#DejaVuSans-38" transform="translate(63.623047 0)"/>
       <use xlink:href="#DejaVuSans-30" transform="translate(127.246094 0)"/>
       <use xlink:href="#DejaVuSans-b0" transform="translate(190.869141 0)"/>
      </g>
     </g>
    </g>
    <g id="xtick_4">
     <g id="line2d_4">
      <path d="M 237.436018 173.251982 
L 144.253499 266.434501 
" clip-path="url(#pa70f61bde2)" style="fill: none; stroke: #808080; stroke-width: 0.5; stroke-linecap: square"/>
     </g>
     <g id="text_4">
      <!-- 225° -->
      <g transform="translate(122.310254 279.093371) scale(0.1 -0.1)">
       <defs>
        <path id="DejaVuSans-32" d="M 1228 531 
L 3431 531 
L 3431 0 
L 469 0 
L 469 531 
Q 828 903 1448 1529 
Q 2069 2156 2228 2338 
Q 2531 2678 2651 2914 
Q 2772 3150 2772 3378 
Q 2772 3750 2511 3984 
Q 2250 4219 1831 4219 
Q 1534 4219 1204 4116 
Q 875 4013 500 3803 
L 500 4441 
Q 881 4594 1212 4672 
Q 1544 4750 1819 4750 
Q 2544 4750 2975 4387 
Q 3406 4025 3406 3419 
Q 3406 3131 3298 2873 
Q 3191 2616 2906 2266 
Q 2828 2175 2409 1742 
Q 1991 1309 1228 531 
z
" transform="scale(0.015625)"/>
       </defs>
       <use xlink:href="#DejaVuSans-32"/>
       <use xlink:href="#DejaVuSans-32" transform="translate(63.623047 0)"/>
       <use xlink:href="#DejaVuSans-35" transform="translate(127.246094 0)"/>
       <use xlink:href="#DejaVuSans-b0" transform="translate(190.869141 0)"/>
      </g>
     </g>
    </g>
    <g id="xtick_5">
     <g id="line2d_5">
      <path d="M 237.436018 173.251982 
L 237.436018 305.031964 
" clip-path="url(#pa70f61bde2)" style="fill: none; stroke: #808080; stroke-width: 0.5; stroke-linecap: square"/>
     </g>
     <g id="text_5">
      <!-- 270° -->
      <g transform="translate(225.392268 321.791339) scale(0.1 -0.1)">
       <defs>
        <path id="DejaVuSans-37" d="M 525 4666 
L 3525 4666 
L 3525 4397 
L 1831 0 
L 1172 0 
L 2766 4134 
L 525 4134 
L 525 4666 
z
" transform="scale(0.015625)"/>
       </defs>
       <use xlink:href="#DejaVuSans-32"/>
       <use xlink:href="#DejaVuSans-37" transform="translate(63.623047 0)"/>
       <use xlink:href="#DejaVuSans-30" transform="translate(127.246094 0)"/>
       <use xlink:href="#DejaVuSans-b0" transform="translate(190.869141 0)"/>
      </g>
     </g>
    </g>
    <g id="xtick_6">
     <g id="line2d_6">
      <path d="M 237.436018 173.251982 
L 330.618537 266.434501 
" clip-path="url(#pa70f61bde2)" style="fill: none; stroke: #808080; stroke-width: 0.5; stroke-linecap: square"/>
     </g>
     <g id="text_6">
      <!-- 315° -->
      <g transform="translate(328.474282 279.093371) scale(0.1 -0.1)">
       <use xlink:href="#DejaVuSans-33"/>
       <use xlink:href="#DejaVuSans-31" transform="translate(63.623047 0)"/>
       <use xlink:href="#DejaVuSans-35" transform="translate(127.246094 0)"/>
       <use xlink:href="#DejaVuSans-b0" transform="translate(190.869141 0)"/>
      </g>
     </g>
    </g>
    <g id="xtick_7">
     <g id="line2d_7">
      <path d="M 237.436018 173.251982 
L 369.216 173.251982 
" clip-path="url(#pa70f61bde2)" style="fill: none; stroke: #808080; stroke-width: 0.5; stroke-linecap: square"/>
     </g>
     <g id="text_7">
      <!-- 360° -->
      <g transform="translate(371.17225 176.011357) scale(0.1 -0.1)">
       <defs>
        <path id="DejaVuSans-36" d="M 2113 2584 
Q 1688 2584 1439 2293 
Q 1191 2003 1191 1497 
Q 1191 994 1439 701 
Q 1688 409 2113 409 
Q 2538 409 2786 701 
Q 3034 994 3034 1497 
Q 3034 2003 2786 2293 
Q 2538 2584 2113 2584 
z
M 3366 4563 
L 3366 3988 
Q 3128 4100 2886 4159 
Q 2644 4219 2406 4219 
Q 1781 4219 1451 3797 
Q 1122 3375 1075 2522 
Q 1259 2794 1537 2939 
Q 1816 3084 2150 3084 
Q 2853 3084 3261 2657 
Q 3669 2231 3669 1497 
Q 3669 778 3244 343 
Q 2819 -91 2113 -91 
Q 1303 -91 875 529 
Q 447 1150 447 2328 
Q 447 3434 972 4092 
Q 1497 4750 2381 4750 
Q 2619 4750 2861 4703 
Q 3103 4656 3366 4563 
z
" transform="scale(0.015625)"/>
       </defs>
       <use xlink:href="#DejaVuSans-33"/>
       <use xlink:href="#DejaVuSans-36" transform="translate(63.623047 0)"/>
       <use xlink:href="#DejaVuSans-30" transform="translate(127.246094 0)"/>
       <use xlink:href="#DejaVuSans-b0" transform="translate(190.869141 0)"/>
      </g>
     </g>
    </g>
   </g>
   <g id="matplotlib.axis_2">
    <g id="ytick_1">
     <g id="line2d_8">
      <path d="M 237.436018 173.251982 
C 237.436018 173.251982 237.436018 173.251982 237.436018 173.251982 
C 237.436018 173.251982 237.436018 173.251982 237.436018 173.251982 
C 237.436018 173.251982 237.436018 173.251982 237.436018 173.251982 
C 237.436018 173.251982 237.436018 173.251982 237.436018 173.251982 
C 237.436018 173.251982 237.436018 173.251982 237.436018 173.251982 
C 237.436018 173.251982 237.436018 173.251982 237.436018 173.251982 
C 237.436018 173.251982 237.436018 173.251982 237.436018 173.251982 
C 237.436018 173.251982 237.436018 173.251982 237.436018 173.251982 
" clip-path="url(#pa70f61bde2)" style="fill: none; stroke: #808080; stroke-width: 0.5; stroke-linecap: square"/>
     </g>
     <g id="text_8">
      <!-- 0.00 -->
      <g transform="translate(244.436018 176.011357) scale(0.1 -0.1)">
       <defs>
        <path id="DejaVuSans-2e" d="M 684 794 
L 1344 794 
L 1344 0 
L 684 0 
L 684 794 
z
" transform="scale(0.015625)"/>
       </defs>
       <use xlink:href="#DejaVuSans-30"/>
       <use xlink:href="#DejaVuSans-2e" transform="translate(63.623047 0)"/>
       <use xlink:href="#DejaVuSans-30" transform="translate(95.410156 0)"/>
       <use xlink:href="#DejaVuSans-30" transform="translate(159.033203 0)"/>
      </g>
     </g>
    </g>
    <g id="ytick_2">
     <g id="line2d_9">
      <path d="M 237.436018 157.555695 
C 234.331957 157.555695 231.29656 158.476473 228.715628 160.200996 
C 226.134696 161.92552 224.122412 164.377495 222.934539 167.245273 
C 221.746667 170.113051 221.435758 173.269759 222.04133 176.314176 
C 222.646903 179.358593 224.142164 182.156031 226.337067 184.350933 
C 228.531969 186.545836 231.329407 188.041097 234.373824 188.64667 
C 237.418241 189.252242 240.574949 188.941333 243.442727 187.753461 
C 246.310505 186.565588 248.76248 184.553304 250.487004 181.972372 
C 252.211527 179.39144 253.132305 176.356043 253.132305 173.251982 
" clip-path="url(#pa70f61bde2)" style="fill: none; stroke: #808080; stroke-width: 0.5; stroke-linecap: square"/>
     </g>
     <g id="text_9">
      <!-- 0.25 -->
      <g transform="translate(244.436018 160.31507) scale(0.1 -0.1)">
       <use xlink:href="#DejaVuSans-30"/>
       <use xlink:href="#DejaVuSans-2e" transform="translate(63.623047 0)"/>
       <use xlink:href="#DejaVuSans-32" transform="translate(95.410156 0)"/>
       <use xlink:href="#DejaVuSans-35" transform="translate(159.033203 0)"/>
      </g>
     </g>
    </g>
    <g id="ytick_3">
     <g id="line2d_10">
      <path d="M 237.436018 141.859408 
C 231.227896 141.859408 225.157102 143.700963 219.995238 147.150011 
C 214.833374 150.599058 210.808806 155.503008 208.433061 161.238564 
C 206.057316 166.97412 205.435499 173.287535 206.646643 179.37637 
C 207.857787 185.465204 210.848311 191.06008 215.238116 195.449884 
C 219.62792 199.839689 225.222796 202.830213 231.31163 204.041357 
C 237.400465 205.252501 243.71388 204.630684 249.449436 202.254939 
C 255.184992 199.879194 260.088942 195.854626 263.537989 190.692762 
C 266.987037 185.530898 268.828592 179.460104 268.828592 173.251982 
" clip-path="url(#pa70f61bde2)" style="fill: none; stroke: #808080; stroke-width: 0.5; stroke-linecap: square"/>
     </g>
     <g id="text_10">
      <!-- 0.50 -->
      <g transform="translate(244.436018 144.618783) scale(0.1 -0.1)">
       <use xlink:href="#DejaVuSans-30"/>
       <use xlink:href="#DejaVuSans-2e" transform="translate(63.623047 0)"/>
       <use xlink:href="#DejaVuSans-35" transform="translate(95.410156 0)"/>
       <use xlink:href="#DejaVuSans-30" transform="translate(159.033203 0)"/>
      </g>
     </g>
    </g>
    <g id="ytick_4">
     <g id="line2d_11">
      <path d="M 237.436018 126.163121 
C 228.123836 126.163121 219.017645 128.925454 211.274848 134.099025 
C 203.532052 139.272596 197.4952 146.62852 193.931583 155.231855 
C 190.367965 163.83519 189.435239 173.305312 191.251956 182.438563 
C 193.068672 191.571815 197.554457 199.964128 204.139165 206.548835 
C 210.723872 213.133543 219.116185 217.619328 228.249437 219.436044 
C 237.382688 221.252761 246.85281 220.320035 255.456145 216.756417 
C 264.05948 213.1928 271.415404 207.155948 276.588975 199.413152 
C 281.762546 191.670355 284.524879 182.564164 284.524879 173.251982 
" clip-path="url(#pa70f61bde2)" style="fill: none; stroke: #808080; stroke-width: 0.5; stroke-linecap: square"/>
     </g>
     <g id="text_11">
      <!-- 0.75 -->
      <g transform="translate(244.436018 128.922496) scale(0.1 -0.1)">
       <use xlink:href="#DejaVuSans-30"/>
       <use xlink:href="#DejaVuSans-2e" transform="translate(63.623047 0)"/>
       <use xlink:href="#DejaVuSans-37" transform="translate(95.410156 0)"/>
       <use xlink:href="#DejaVuSans-35" transform="translate(159.033203 0)"/>
      </g>
     </g>
    </g>
    <g id="ytick_5">
     <g id="line2d_12">
      <path d="M 237.436018 110.466834 
C 225.019775 110.466834 212.878187 114.149944 202.554458 121.048039 
C 192.230729 127.946134 184.181595 137.754033 179.430104 149.225146 
C 174.678614 160.696259 173.434979 173.323089 175.857268 185.500757 
C 178.279557 197.678425 184.260604 208.868177 193.040213 217.647787 
C 201.819823 226.427396 213.009575 232.408443 225.187243 234.830732 
C 237.364911 237.253021 249.991741 236.009386 261.462854 231.257896 
C 272.933967 226.506405 282.741866 218.457271 289.639961 208.133542 
C 296.538056 197.809813 300.221166 185.668225 300.221166 173.251982 
" clip-path="url(#pa70f61bde2)" style="fill: none; stroke: #808080; stroke-width: 0.5; stroke-linecap: square"/>
     </g>
     <g id="text_12">
      <!-- 1.00 -->
      <g transform="translate(244.436018 113.226209) scale(0.1 -0.1)">
       <use xlink:href="#DejaVuSans-31"/>
       <use xlink:href="#DejaVuSans-2e" transform="translate(63.623047 0)"/>
       <use xlink:href="#DejaVuSans-30" transform="translate(95.410156 0)"/>
       <use xlink:href="#DejaVuSans-30" transform="translate(159.033203 0)"/>
      </g>
     </g>
    </g>
    <g id="ytick_6">
     <g id="line2d_13">
      <path d="M 237.436018 94.770546 
C 221.915714 94.770546 206.738729 99.374434 193.834068 107.997053 
C 180.929407 116.619672 170.867989 128.879546 164.928626 143.218437 
C 158.989263 157.557328 157.43472 173.340865 160.462581 188.562951 
C 163.490442 203.785036 170.96675 217.772226 181.941262 228.746738 
C 192.915774 239.72125 206.902964 247.197558 222.125049 250.225419 
C 237.347135 253.25328 253.130672 251.698737 267.469563 245.759374 
C 281.808454 239.820011 294.068328 229.758593 302.690947 216.853932 
C 311.313566 203.949271 315.917454 188.772286 315.917454 173.251982 
" clip-path="url(#pa70f61bde2)" style="fill: none; stroke: #808080; stroke-width: 0.5; stroke-linecap: square"/>
     </g>
     <g id="text_13">
      <!-- 1.25 -->
      <g transform="translate(244.436018 97.529921) scale(0.1 -0.1)">
       <use xlink:href="#DejaVuSans-31"/>
       <use xlink:href="#DejaVuSans-2e" transform="translate(63.623047 0)"/>
       <use xlink:href="#DejaVuSans-32" transform="translate(95.410156 0)"/>
       <use xlink:href="#DejaVuSans-35" transform="translate(159.033203 0)"/>
      </g>
     </g>
    </g>
    <g id="ytick_7">
     <g id="line2d_14">
      <path d="M 237.436018 79.074259 
C 218.811653 79.074259 200.599271 84.598925 185.113678 94.946067 
C 169.628085 105.29321 157.554383 120.005059 150.427147 137.211728 
C 143.299911 154.418397 141.43446 173.358642 145.067893 191.625144 
C 148.701327 209.891647 157.672897 226.676274 170.842311 239.845689 
C 184.011726 253.015103 200.796353 261.986673 219.062856 265.620107 
C 237.329358 269.25354 256.269603 267.388089 273.476272 260.260853 
C 290.682941 253.133617 305.39479 241.059915 315.741933 225.574322 
C 326.089075 210.088729 331.613741 191.876347 331.613741 173.251982 
" clip-path="url(#pa70f61bde2)" style="fill: none; stroke: #808080; stroke-width: 0.5; stroke-linecap: square"/>
     </g>
     <g id="text_14">
      <!-- 1.50 -->
      <g transform="translate(244.436018 81.833634) scale(0.1 -0.1)">
       <use xlink:href="#DejaVuSans-31"/>
       <use xlink:href="#DejaVuSans-2e" transform="translate(63.623047 0)"/>
       <use xlink:href="#DejaVuSans-35" transform="translate(95.410156 0)"/>
       <use xlink:href="#DejaVuSans-30" transform="translate(159.033203 0)"/>
      </g>
     </g>
    </g>
    <g id="ytick_8">
     <g id="line2d_15">
      <path d="M 237.436018 63.377972 
C 215.707593 63.377972 194.459814 69.823415 176.393288 81.895082 
C 158.326763 93.966748 144.240777 111.130571 135.925669 131.205019 
C 127.61056 151.279466 125.434201 173.376419 129.673206 194.687338 
C 133.912211 215.998258 144.379043 235.580323 159.74336 250.94464 
C 175.107677 266.308957 194.689742 276.775789 216.000662 281.014794 
C 237.311581 285.253799 259.408534 283.07744 279.482981 274.762331 
C 299.557429 266.447223 316.721252 252.361237 328.792918 234.294712 
C 340.864585 216.228186 347.310028 194.980407 347.310028 173.251982 
" clip-path="url(#pa70f61bde2)" style="fill: none; stroke: #808080; stroke-width: 0.5; stroke-linecap: square"/>
     </g>
     <g id="text_15">
      <!-- 1.75 -->
      <g transform="translate(244.436018 66.137347) scale(0.1 -0.1)">
       <use xlink:href="#DejaVuSans-31"/>
       <use xlink:href="#DejaVuSans-2e" transform="translate(63.623047 0)"/>
       <use xlink:href="#DejaVuSans-37" transform="translate(95.410156 0)"/>
       <use xlink:href="#DejaVuSans-35" transform="translate(159.033203 0)"/>
      </g>
     </g>
    </g>
    <g id="ytick_9">
     <g id="line2d_16">
      <path d="M 237.436018 47.681685 
C 212.603532 47.681685 188.320356 55.047906 167.672899 68.844096 
C 147.025441 82.640286 130.927171 102.256084 121.42419 125.19831 
C 111.921209 148.140535 109.433941 173.394195 114.278519 197.749532 
C 119.123096 222.104869 131.08519 244.484372 148.644409 262.043591 
C 166.203628 279.60281 188.583131 291.564904 212.938468 296.409481 
C 237.293805 301.254059 262.547465 298.766791 285.48969 289.26381 
C 308.431916 279.760829 328.047714 263.662559 341.843904 243.015101 
C 355.640094 222.367644 363.006315 198.084468 363.006315 173.251982 
" clip-path="url(#pa70f61bde2)" style="fill: none; stroke: #808080; stroke-width: 0.5; stroke-linecap: square"/>
     </g>
     <g id="text_16">
      <!-- 2.00 -->
      <g transform="translate(244.436018 50.44106) scale(0.1 -0.1)">
       <use xlink:href="#DejaVuSans-32"/>
       <use xlink:href="#DejaVuSans-2e" transform="translate(63.623047 0)"/>
       <use xlink:href="#DejaVuSans-30" transform="translate(95.410156 0)"/>
       <use xlink:href="#DejaVuSans-30" transform="translate(159.033203 0)"/>
      </g>
     </g>
    </g>
   </g>
   <g id="patch_3">
    <path d="M 237.436018 41.472 
C 211.375519 41.472 185.891495 49.202494 164.222982 63.680931 
C 142.55447 78.159369 125.660111 98.745205 115.68719 122.821966 
C 105.714268 146.898728 103.104 173.401228 108.188151 198.960981 
C 113.272302 224.520735 125.825944 248.006946 144.253499 266.434501 
C 162.681054 284.862056 186.167265 297.415698 211.727019 302.499849 
C 237.286772 307.584 263.789272 304.973732 287.866034 295.00081 
C 311.942795 285.027889 332.528631 268.13353 347.007069 246.465018 
C 361.485506 224.796505 369.216 199.312481 369.216 173.251982 
" style="fill: none; stroke: #000000; stroke-width: 0.8; stroke-linejoin: miter; stroke-linecap: square"/>
   </g>
   <g id="patch_4">
    <path d="M 237.436018 173.251982 
L 237.436018 41.472 
" style="fill: none; stroke: #000000; stroke-width: 0.8; stroke-linejoin: miter; stroke-linecap: square"/>
   </g>
   <g id="patch_5">
    <path d="M 237.436018 173.251982 
L 369.216 173.251982 
" style="fill: none; stroke: #000000; stroke-width: 0.8; stroke-linejoin: miter; stroke-linecap: square"/>
   </g>
   <g id="patch_6">
    <path d="M 237.436018 173.251982 
C 237.436018 173.251982 237.436018 173.251982 237.436018 173.251982 
C 237.436018 173.251982 237.436018 173.251982 237.436018 173.251982 
C 237.436018 173.251982 237.436018 173.251982 237.436018 173.251982 
C 237.436018 173.251982 237.436018 173.251982 237.436018 173.251982 
C 237.436018 173.251982 237.436018 173.251982 237.436018 173.251982 
C 237.436018 173.251982 237.436018 173.251982 237.436018 173.251982 
C 237.436018 173.251982 237.436018 173.251982 237.436018 173.251982 
C 237.436018 173.251982 237.436018 173.251982 237.436018 173.251982 
" style="fill: none; stroke: #000000; stroke-width: 0.8; stroke-linejoin: miter; stroke-linecap: square"/>
   </g>
  </g>
 </g>
 <defs>
  <clipPath id="pa70f61bde2">
   <path d="M 237.436018 41.472 
C 211.375519 41.472 185.891495 49.202494 164.222982 63.680931 
C 142.55447 78.159369 125.660111 98.745205 115.68719 122.821966 
C 105.714268 146.898728 103.104 173.401228 108.188151 198.960981 
C 113.272302 224.520735 125.825944 248.006946 144.253499 266.434501 
C 162.681054 284.862056 186.167265 297.415698 211.727019 302.499849 
C 237.286772 307.584 263.789272 304.973732 287.866034 295.00081 
C 311.942795 285.027889 332.528631 268.13353 347.007069 246.465018 
C 361.485506 224.796505 369.216 199.312481 369.216 173.251982 
L 237.436018 173.251982 
C 237.436018 173.251982 237.436018 173.251982 237.436018 173.251982 
C 237.436018 173.251982 237.436018 173.251982 237.436018 173.251982 
C 237.436018 173.251982 237.436018 173.251982 237.436018 173.251982 
C 237.436018 173.251982 237.436018 173.251982 237.436018 173.251982 
C 237.436018 173.251982 237.436018 173.251982 237.436018 173.251982 
C 237.436018 173.251982 237.436018 173.251982 237.436018 173.251982 
C 237.436018 173.251982 237.436018 173.251982 237.436018 173.251982 
C 237.436018 173.251982 237.436018 173.251982 237.436018 173.251982 
z
"/>
  </clipPath>
 </defs>
</svg>
