<?xml version="1.0" encoding="utf-8" standalone="no"?>
<!DOCTYPE svg PUBLIC "-//W3C//DTD SVG 1.1//EN"
  "http://www.w3.org/Graphics/SVG/1.1/DTD/svg11.dtd">
<svg xmlns:xlink="http://www.w3.org/1999/xlink" width="460.8pt" height="345.6pt" viewBox="0 0 460.8 345.6" xmlns="http://www.w3.org/2000/svg" version="1.1">
 <metadata>
  <rdf:RDF xmlns:dc="http://purl.org/dc/elements/1.1/" xmlns:cc="http://creativecommons.org/ns#" xmlns:rdf="http://www.w3.org/1999/02/22-rdf-syntax-ns#">
   <cc:Work>
    <dc:type rdf:resource="http://purl.org/dc/dcmitype/StillImage"/>
    <dc:date>2025-11-29T14:25:57.909001</dc:date>
    <dc:format>image/svg+xml</dc:format>
    <dc:creator>
     <cc:Agent>
      <dc:title>Matplotlib v3.10.6, https://matplotlib.org/</dc:title>
     </cc:Agent>
    </dc:creator>
   </cc:Work>
  </rdf:RDF>
 </metadata>
 <defs>
  <style type="text/css">*{stroke-linejoin: round; stroke-linecap: butt}</style>
 </defs>
 <g id="figure_1">
  <g id="patch_1">
   <path d="M 0 345.6 
L 460.8 345.6 
L 460.8 0 
L 0 0 
z
" style="fill: #ffffff"/>
  </g>
  <g id="axes_1">
   <g id="patch_2">
    <path d="M 369.216 174.528 
C 369.216 157.055246 365.774248 139.752393 359.087715 123.609673 
C 352.401182 107.466954 342.599903 92.798303 330.2448 80.4432 
C 317.889697 68.088097 303.221046 58.286818 287.078327 51.600285 
C 270.935607 44.913752 253.632754 41.472 236.16 41.472 
C 218.687246 41.472 201.384393 44.913752 185.241673 51.600285 
C 169.098954 58.286818 154.430303 68.088097 142.0752 80.4432 
C 129.720097 92.798303 119.918818 107.466954 113.232285 123.609673 
C 106.545752 139.752393 103.104 157.055246 103.104 174.528 
C 103.104 192.000754 106.545752 209.303607 113.232285 225.446327 
C 119.918818 241.589046 129.720097 256.257697 142.0752 268.6128 
C 154.430303 280.967903 169.098954 290.769182 185.241673 297.455715 
C 201.384393 304.142248 218.687246 307.584 236.16 307.584 
C 253.632754 307.584 270.935607 304.142248 287.078327 297.455715 
C 303.221046 290.769182 317.889697 280.967903 330.2448 268.6128 
C 342.599903 256.257697 352.401182 241.589046 359.087715 225.446327 
C 365.774248 209.303607 369.216 192.000754 369.216 174.528 
M 236.16 174.528 
C 236.16 174.528 236.16 174.528 236.16 174.528 
C 236.16 174.528 236.16 174.528 236.16 174.528 
C 236.16 174.528 236.16 174.528 236.16 174.528 
C 236.16 174.528 236.16 174.528 236.16 174.528 
C 236.16 174.528 236.16 174.528 236.16 174.528 
C 236.16 174.528 236.16 174.528 236.16 174.528 
C 236.16 174.528 236.16 174.528 236.16 174.528 
C 236.16 174.528 236.16 174.528 236.16 174.528 
C 236.16 174.528 236.16 174.528 236.16 174.528 
C 236.16 174.528 236.16 174.528 236.16 174.528 
C 236.16 174.528 236.16 174.528 236.16 174.528 
C 236.16 174.528 236.16 174.528 236.16 174.528 
C 236.16 174.528 236.16 174.528 236.16 174.528 
C 236.16 174.528 236.16 174.528 236.16 174.528 
C 236.16 174.528 236.16 174.528 236.16 174.528 
C 236.16 174.528 236.16 174.528 236.16 174.528 
z
" style="fill: #ffffff"/>
   </g>
   <g id="patch_3">
    <path d="M 236.16 174.528 
C 236.16 174.528 236.16 174.528 236.16 174.528 
C 236.16 174.528 236.16 174.528 236.16 174.528 
L 343.378477 170.283848 
C 343.43445 171.697873 343.462445 173.112867 343.462445 174.528 
C 343.462445 175.943133 343.43445 177.358127 343.378477 178.772152 
z
" clip-path="url(#pc94236503e)" style="fill: #5e93c3; opacity: 0.5"/>
   </g>
   <g id="patch_4">
    <path d="M 236.16 174.528 
C 236.16 174.528 236.16 174.528 236.16 174.528 
C 236.16 174.528 236.16 174.528 236.16 174.528 
L 285.281843 166.912362 
C 285.353297 167.373254 285.418262 167.835129 285.476717 168.29785 
C 285.535172 168.76057 285.587112 169.224091 285.632522 169.688273 
z
" clip-path="url(#pc94236503e)" style="fill: #fedc8c; opacity: 0.5"/>
   </g>
   <g id="patch_5">
    <path d="M 236.16 174.528 
C 236.16 174.528 236.16 174.528 236.16 174.528 
C 236.16 174.528 236.16 174.528 236.16 174.528 
L 303.305616 127.546194 
C 308.94594 135.607251 313.088808 144.618533 315.535516 154.147831 
C 317.982224 163.67713 318.693019 173.569618 317.63381 183.350823 
z
" clip-path="url(#pc94236503e)" style="fill: #c7e7f1; opacity: 0.5"/>
   </g>
   <g id="patch_6">
    <path d="M 236.16 174.528 
C 236.16 174.528 236.16 174.528 236.16 174.528 
C 236.16 174.528 236.16 174.528 236.16 174.528 
L 312.144185 115.160882 
C 317.818419 122.423354 322.422251 130.461962 325.815002 139.031074 
C 329.207753 147.600185 331.35451 156.611618 332.189676 165.790013 
z
" clip-path="url(#pc94236503e)" style="fill: #8abeda; opacity: 0.5"/>
   </g>
   <g id="patch_7">
    <path d="M 236.16 174.528 
C 236.16 174.528 236.16 174.528 236.16 174.528 
C 236.16 174.528 236.16 174.528 236.16 174.528 
L 289.570425 111.732796 
C 297.196376 118.219044 303.577381 126.040533 308.400371 134.81352 
C 313.223362 143.586507 316.40815 153.165131 317.798481 163.079439 
z
" clip-path="url(#pc94236503e)" style="fill: #c5e6f0; opacity: 0.5"/>
   </g>
   <g id="patch_8">
    <path d="M 236.16 174.528 
C 236.16 174.528 236.16 174.528 236.16 174.528 
C 236.16 174.528 236.16 174.528 236.16 174.528 
L 256.975004 148.063291 
C 259.413712 149.981383 261.575632 152.227389 263.399317 154.737477 
C 265.223003 157.247566 266.691013 159.997727 267.761624 162.909799 
z
" clip-path="url(#pc94236503e)" style="fill: #fa9656; opacity: 0.5"/>
   </g>
   <g id="patch_9">
    <path d="M 236.16 174.528 
C 236.16 174.528 236.16 174.528 236.16 174.528 
C 236.16 174.528 236.16 174.528 236.16 174.528 
L 313.803998 74.381268 
C 319.058237 78.454892 323.983751 82.935704 328.534904 87.782191 
C 333.086058 92.628677 337.248753 97.825824 340.984422 103.32548 
z
" clip-path="url(#pc94236503e)" style="fill: #313695; opacity: 0.5"/>
   </g>
   <g id="patch_10">
    <path d="M 236.16 174.528 
C 236.16 174.528 236.16 174.528 236.16 174.528 
C 236.16 174.528 236.16 174.528 236.16 174.528 
L 292.456357 72.768309 
C 298.764287 76.258036 304.734091 80.326744 310.28864 84.921867 
C 315.84319 89.516989 320.958459 94.618652 325.568361 100.160941 
z
" clip-path="url(#pc94236503e)" style="fill: #416aaf; opacity: 0.5"/>
   </g>
   <g id="patch_11">
    <path d="M 236.16 174.528 
C 236.16 174.528 236.16 174.528 236.16 174.528 
C 236.16 174.528 236.16 174.528 236.16 174.528 
L 248.004816 137.194015 
C 251.223302 138.215132 254.296276 139.648165 257.147222 141.45743 
C 259.998168 143.266695 262.603223 145.43705 264.897522 147.914453 
z
" clip-path="url(#pc94236503e)" style="fill: #fdb164; opacity: 0.5"/>
   </g>
   <g id="patch_12">
    <path d="M 236.16 174.528 
C 236.16 174.528 236.16 174.528 236.16 174.528 
C 236.16 174.528 236.16 174.528 236.16 174.528 
L 251.638453 127.995112 
C 253.480165 128.60773 255.283884 129.329146 257.040088 130.155553 
C 258.796293 130.98196 260.501888 131.911902 262.147869 132.940468 
z
" clip-path="url(#pc94236503e)" style="fill: #fed889; opacity: 0.5"/>
   </g>
   <g id="patch_13">
    <path d="M 236.16 174.528 
C 236.16 174.528 236.16 174.528 236.16 174.528 
C 236.16 174.528 236.16 174.528 236.16 174.528 
L 242.734274 153.998896 
C 242.763269 154.008181 242.792244 154.017528 242.821199 154.026936 
C 242.850155 154.036344 242.87909 154.045814 242.908005 154.055345 
z
" clip-path="url(#pc94236503e)" style="fill: #eb5a3a; opacity: 0.5"/>
   </g>
   <g id="patch_14">
    <path d="M 236.16 174.528 
C 236.16 174.528 236.16 174.528 236.16 174.528 
C 236.16 174.528 236.16 174.528 236.16 174.528 
L 250.567217 85.1664 
C 251.420554 85.303978 252.271876 85.453773 253.120921 85.615737 
C 253.969967 85.777701 254.816649 85.951818 255.660707 86.138035 
z
" clip-path="url(#pc94236503e)" style="fill: #a3d3e6; opacity: 0.5"/>
   </g>
   <g id="patch_15">
    <path d="M 236.16 174.528 
C 236.16 174.528 236.16 174.528 236.16 174.528 
C 236.16 174.528 236.16 174.528 236.16 174.528 
L 214.734629 95.828721 
C 223.375056 93.47642 232.344189 92.56305 241.281422 93.125333 
C 250.218655 93.687616 259.002587 95.717914 267.280061 99.134599 
z
" clip-path="url(#pc94236503e)" style="fill: #c9e8f2; opacity: 0.5"/>
   </g>
   <g id="patch_16">
    <path d="M 236.16 174.528 
C 236.16 174.528 236.16 174.528 236.16 174.528 
C 236.16 174.528 236.16 174.528 236.16 174.528 
L 212.434736 63.783732 
C 217.908474 62.611068 223.46163 61.84584 229.048525 61.494342 
C 234.63542 61.142844 240.240696 61.206044 245.818246 61.68342 
z
" clip-path="url(#pc94236503e)" style="fill: #4878b6; opacity: 0.5"/>
   </g>
   <g id="patch_17">
    <path d="M 236.16 174.528 
C 236.16 174.528 236.16 174.528 236.16 174.528 
C 236.16 174.528 236.16 174.528 236.16 174.528 
L 216.099246 131.702187 
C 219.666626 130.031131 223.428868 128.812346 227.29846 128.074182 
C 231.168053 127.336018 235.114761 127.084242 239.046784 127.32471 
z
" clip-path="url(#pc94236503e)" style="fill: #fed283; opacity: 0.5"/>
   </g>
   <g id="patch_18">
    <path d="M 236.16 174.528 
C 236.16 174.528 236.16 174.528 236.16 174.528 
C 236.16 174.528 236.16 174.528 236.16 174.528 
L 181.471838 75.147974 
C 187.734418 71.701718 194.308756 68.855134 201.107086 66.646223 
C 207.905415 64.437312 214.897347 62.875948 221.989538 61.982975 
z
" clip-path="url(#pc94236503e)" style="fill: #4878b6; opacity: 0.5"/>
   </g>
   <g id="patch_19">
    <path d="M 236.16 174.528 
C 236.16 174.528 236.16 174.528 236.16 174.528 
C 236.16 174.528 236.16 174.528 236.16 174.528 
L 233.383019 168.875254 
C 233.414694 168.859693 233.446498 168.844399 233.47843 168.829374 
C 233.510362 168.814348 233.542419 168.79959 233.574599 168.785103 
z
" clip-path="url(#pc94236503e)" style="fill: #bd1726; opacity: 0.5"/>
   </g>
   <g id="patch_20">
    <path d="M 236.16 174.528 
C 236.16 174.528 236.16 174.528 236.16 174.528 
C 236.16 174.528 236.16 174.528 236.16 174.528 
L 192.805185 123.90846 
C 195.215015 121.84448 197.76916 119.955218 200.448128 118.255094 
C 203.127095 116.554969 205.924053 115.048318 208.817653 113.746639 
z
" clip-path="url(#pc94236503e)" style="fill: #f7fcce; opacity: 0.5"/>
   </g>
   <g id="patch_21">
    <path d="M 236.16 174.528 
C 236.16 174.528 236.16 174.528 236.16 174.528 
C 236.16 174.528 236.16 174.528 236.16 174.528 
L 149.410246 98.658454 
C 153.485483 93.998801 157.929534 89.675057 162.699249 85.729206 
C 167.468964 81.783355 172.548854 78.228209 177.889595 75.098288 
z
" clip-path="url(#pc94236503e)" style="fill: #436fb1; opacity: 0.5"/>
   </g>
   <g id="patch_22">
    <path d="M 236.16 174.528 
C 236.16 174.528 236.16 174.528 236.16 174.528 
C 236.16 174.528 236.16 174.528 236.16 174.528 
L 187.435557 152.700352 
C 189.862605 147.282612 193.176353 142.307416 197.240191 137.979867 
C 201.30403 133.652318 206.061337 130.032714 211.315991 127.270273 
z
" clip-path="url(#pc94236503e)" style="fill: #fee699; opacity: 0.5"/>
   </g>
   <g id="patch_23">
    <path d="M 236.16 174.528 
C 236.16 174.528 236.16 174.528 236.16 174.528 
C 236.16 174.528 236.16 174.528 236.16 174.528 
L 204.798188 153.75555 
C 205.098094 153.302758 205.407771 152.856514 205.727001 152.417132 
C 206.046231 151.97775 206.374938 151.545332 206.712893 151.120184 
z
" clip-path="url(#pc94236503e)" style="fill: #fcaa5f; opacity: 0.5"/>
   </g>
   <g id="patch_24">
    <path d="M 236.16 174.528 
C 236.16 174.528 236.16 174.528 236.16 174.528 
C 236.16 174.528 236.16 174.528 236.16 174.528 
L 121.340493 137.957137 
C 123.711006 130.51457 126.79955 123.320087 130.56251 116.475289 
C 134.32547 109.63049 138.745048 103.167749 143.758831 97.178332 
z
" clip-path="url(#pc94236503e)" style="fill: #3b56a5; opacity: 0.5"/>
   </g>
   <g id="patch_25">
    <path d="M 236.16 174.528 
C 236.16 174.528 236.16 174.528 236.16 174.528 
C 236.16 174.528 236.16 174.528 236.16 174.528 
L 136.421337 166.663168 
C 137.204809 156.727487 139.468548 146.964415 143.13747 137.697775 
C 146.806393 128.431136 151.83948 119.764526 158.069796 111.985403 
z
" clip-path="url(#pc94236503e)" style="fill: #7ab2d4; opacity: 0.5"/>
   </g>
   <g id="patch_26">
    <path d="M 236.16 174.528 
C 236.16 174.528 236.16 174.528 236.16 174.528 
C 236.16 174.528 236.16 174.528 236.16 174.528 
L 178.314283 163.276375 
C 178.536389 162.134507 178.792256 160.999467 179.081549 159.872745 
C 179.370842 158.746023 179.693434 157.628114 180.0489 156.520488 
z
" clip-path="url(#pc94236503e)" style="fill: #fff3ad; opacity: 0.5"/>
   </g>
   <g id="patch_27">
    <path d="M 236.16 174.528 
C 236.16 174.528 236.16 174.528 236.16 174.528 
C 236.16 174.528 236.16 174.528 236.16 174.528 
L 171.073642 177.398356 
C 170.911144 173.71365 171.06184 170.021791 171.524105 166.362587 
C 171.986369 162.703384 172.758536 159.090035 173.832278 155.561502 
z
" clip-path="url(#pc94236503e)" style="fill: #fbfdc7; opacity: 0.5"/>
   </g>
   <g id="patch_28">
    <path d="M 236.16 174.528 
C 236.16 174.528 236.16 174.528 236.16 174.528 
C 236.16 174.528 236.16 174.528 236.16 174.528 
L 201.704143 177.714476 
C 201.606176 176.655143 201.557115 175.591854 201.557115 174.528 
C 201.557115 173.464146 201.606176 172.400857 201.704143 171.341524 
z
" clip-path="url(#pc94236503e)" style="fill: #fa9b58; opacity: 0.5"/>
   </g>
   <g id="patch_29">
    <path d="M 236.16 174.528 
C 236.16 174.528 236.16 174.528 236.16 174.528 
C 236.16 174.528 236.16 174.528 236.16 174.528 
L 160.505702 199.435496 
C 158.907176 194.580116 157.779772 189.582105 157.1391 184.510661 
C 156.498428 179.439218 156.347457 174.317855 156.688278 169.217478 
z
" clip-path="url(#pc94236503e)" style="fill: #d1ecf4; opacity: 0.5"/>
   </g>
   <g id="patch_30">
    <path d="M 236.16 174.528 
C 236.16 174.528 236.16 174.528 236.16 174.528 
C 236.16 174.528 236.16 174.528 236.16 174.528 
L 196.481986 194.881436 
C 194.969942 191.933782 193.791065 188.826793 192.967194 185.618028 
C 192.143324 182.409262 191.679578 179.118659 191.584549 175.807178 
z
" clip-path="url(#pc94236503e)" style="fill: #fdc778; opacity: 0.5"/>
   </g>
   <g id="patch_31">
    <path d="M 236.16 174.528 
C 236.16 174.528 236.16 174.528 236.16 174.528 
C 236.16 174.528 236.16 174.528 236.16 174.528 
L 149.907752 248.549788 
C 141.691156 238.975583 135.125747 228.099757 130.481278 216.369166 
C 125.836808 204.638575 123.17777 192.216108 122.613416 179.612165 
z
" clip-path="url(#pc94236503e)" style="fill: #4878b6; opacity: 0.5"/>
   </g>
   <g id="patch_32">
    <path d="M 236.16 174.528 
C 236.16 174.528 236.16 174.528 236.16 174.528 
C 236.16 174.528 236.16 174.528 236.16 174.528 
L 232.000745 179.501548 
C 231.382805 178.98478 230.866551 178.357345 230.478478 177.651443 
C 230.090405 176.945541 229.837267 176.173457 229.732054 175.374815 
z
" clip-path="url(#pc94236503e)" style="fill: #be1827; opacity: 0.5"/>
   </g>
   <g id="patch_33">
    <path d="M 236.16 174.528 
C 236.16 174.528 236.16 174.528 236.16 174.528 
C 236.16 174.528 236.16 174.528 236.16 174.528 
L 220.488259 198.233617 
C 217.649147 196.356686 215.170176 193.984887 213.169682 191.231444 
C 211.169188 188.478 209.679518 185.387432 208.771784 182.107273 
z
" clip-path="url(#pc94236503e)" style="fill: #f67c4a; opacity: 0.5"/>
   </g>
   <g id="patch_34">
    <path d="M 236.16 174.528 
C 236.16 174.528 236.16 174.528 236.16 174.528 
C 236.16 174.528 236.16 174.528 236.16 174.528 
L 234.182678 176.951126 
C 234.075714 176.863842 233.974647 176.76957 233.88014 176.668931 
C 233.785634 176.568291 233.697894 176.461504 233.617498 176.349271 
z
" clip-path="url(#pc94236503e)" style="fill: #b10b26; opacity: 0.5"/>
   </g>
   <g id="patch_35">
    <path d="M 236.16 174.528 
C 236.16 174.528 236.16 174.528 236.16 174.528 
C 236.16 174.528 236.16 174.528 236.16 174.528 
L 179.532946 278.155972 
C 172.928899 274.547219 166.684917 270.315417 160.886246 265.518339 
C 155.087574 260.721261 149.760723 255.380838 144.978416 249.569979 
z
" clip-path="url(#pc94236503e)" style="fill: #3f62ab; opacity: 0.5"/>
   </g>
   <g id="patch_36">
    <path d="M 236.16 174.528 
C 236.16 174.528 236.16 174.528 236.16 174.528 
C 236.16 174.528 236.16 174.528 236.16 174.528 
L 235.664855 175.866595 
C 235.570532 175.831705 235.480161 175.786943 235.395248 175.733056 
C 235.310335 175.679169 235.231356 175.616457 235.159626 175.545967 
z
" clip-path="url(#pc94236503e)" style="fill: #a90426; opacity: 0.5"/>
   </g>
   <g id="patch_37">
    <path d="M 236.16 174.528 
C 236.16 174.528 236.16 174.528 236.16 174.528 
C 236.16 174.528 236.16 174.528 236.16 174.528 
L 230.20956 224.787026 
C 224.803868 224.147017 219.536666 222.639052 214.611288 220.321345 
C 209.685909 218.003638 205.166561 214.906401 201.227708 211.149202 
z
" clip-path="url(#pc94236503e)" style="fill: #fede8e; opacity: 0.5"/>
   </g>
   <g id="patch_38">
    <path d="M 236.16 174.528 
C 236.16 174.528 236.16 174.528 236.16 174.528 
C 236.16 174.528 236.16 174.528 236.16 174.528 
L 241.157932 252.736748 
C 231.274981 253.368318 221.361287 252.120894 211.942869 249.060665 
C 202.524451 246.000435 193.770887 241.182499 186.146639 234.862495 
z
" clip-path="url(#pc94236503e)" style="fill: #d8eff6; opacity: 0.5"/>
   </g>
   <g id="patch_39">
    <path d="M 236.16 174.528 
C 236.16 174.528 236.16 174.528 236.16 174.528 
C 236.16 174.528 236.16 174.528 236.16 174.528 
L 230.951811 276.385774 
C 226.284617 276.147131 221.639338 275.587989 217.048822 274.712301 
C 212.458307 273.836613 207.933402 272.646449 203.506104 271.150225 
z
" clip-path="url(#pc94236503e)" style="fill: #72abd0; opacity: 0.5"/>
   </g>
   <g id="patch_40">
    <path d="M 236.16 174.528 
C 236.16 174.528 236.16 174.528 236.16 174.528 
C 236.16 174.528 236.16 174.528 236.16 174.528 
L 246.697134 238.285232 
C 241.875746 239.082061 236.979493 239.329427 232.102345 239.022583 
C 227.225197 238.715739 222.398555 237.85666 217.715054 236.461834 
z
" clip-path="url(#pc94236503e)" style="fill: #fcfec5; opacity: 0.5"/>
   </g>
   <g id="patch_41">
    <path d="M 236.16 174.528 
C 236.16 174.528 236.16 174.528 236.16 174.528 
C 236.16 174.528 236.16 174.528 236.16 174.528 
L 260.551487 273.57572 
C 254.650147 275.028983 248.630716 275.951934 242.565062 276.333553 
C 236.499409 276.715171 230.411767 276.553933 224.374818 275.851763 
z
" clip-path="url(#pc94236503e)" style="fill: #72abd0; opacity: 0.5"/>
   </g>
   <g id="patch_42">
    <path d="M 236.16 174.528 
C 236.16 174.528 236.16 174.528 236.16 174.528 
C 236.16 174.528 236.16 174.528 236.16 174.528 
L 299.155312 279.182796 
C 286.796922 286.621735 273.217995 291.813158 259.048945 294.516049 
C 244.879894 297.21894 230.343437 297.390814 216.11444 295.02369 
z
" clip-path="url(#pc94236503e)" style="fill: #384ca0; opacity: 0.5"/>
   </g>
   <g id="patch_43">
    <path d="M 236.16 174.528 
C 236.16 174.528 236.16 174.528 236.16 174.528 
C 236.16 174.528 236.16 174.528 236.16 174.528 
L 254.138384 211.362987 
C 252.41987 212.201757 250.644762 212.919236 248.826073 213.510164 
C 247.007384 214.101092 245.149568 214.564022 243.266244 214.895559 
z
" clip-path="url(#pc94236503e)" style="fill: #fdb96b; opacity: 0.5"/>
   </g>
   <g id="patch_44">
    <path d="M 236.16 174.528 
C 236.16 174.528 236.16 174.528 236.16 174.528 
C 236.16 174.528 236.16 174.528 236.16 174.528 
L 291.784043 272.440466 
C 289.276847 273.864804 286.715866 275.192315 284.106766 276.420065 
C 281.497666 277.647814 278.84237 278.774896 276.146752 279.798817 
z
" clip-path="url(#pc94236503e)" style="fill: #4b7db8; opacity: 0.5"/>
   </g>
   <g id="patch_45">
    <path d="M 236.16 174.528 
C 236.16 174.528 236.16 174.528 236.16 174.528 
C 236.16 174.528 236.16 174.528 236.16 174.528 
L 243.691334 186.226399 
C 243.665941 186.242746 243.640495 186.259011 243.614996 186.275194 
C 243.589497 186.291376 243.563945 186.307475 243.538342 186.32349 
z
" clip-path="url(#pc94236503e)" style="fill: #da362a; opacity: 0.5"/>
   </g>
   <g id="patch_46">
    <path d="M 236.16 174.528 
C 236.16 174.528 236.16 174.528 236.16 174.528 
C 236.16 174.528 236.16 174.528 236.16 174.528 
L 299.7978 232.525318 
C 297.078797 235.508755 294.153354 238.297297 291.043125 240.870302 
C 287.932896 243.443307 284.645574 245.794412 281.205491 247.906213 
z
" clip-path="url(#pc94236503e)" style="fill: #b6dfec; opacity: 0.5"/>
   </g>
   <g id="patch_47">
    <path d="M 236.16 174.528 
C 236.16 174.528 236.16 174.528 236.16 174.528 
C 236.16 174.528 236.16 174.528 236.16 174.528 
L 273.597653 190.447973 
C 271.72539 194.850817 269.091028 198.88906 265.815887 202.376731 
C 262.540745 205.864403 258.675884 208.747129 254.399288 210.892155 
z
" clip-path="url(#pc94236503e)" style="fill: #fdb769; opacity: 0.5"/>
   </g>
   <g id="patch_48">
    <path d="M 236.16 174.528 
C 236.16 174.528 236.16 174.528 236.16 174.528 
C 236.16 174.528 236.16 174.528 236.16 174.528 
L 264.716181 181.532968 
C 263.80793 185.235509 262.188192 188.726311 259.947371 191.810537 
C 257.70655 194.894762 254.887127 197.513942 251.646466 199.521888 
z
" clip-path="url(#pc94236503e)" style="fill: #f7814c; opacity: 0.5"/>
   </g>
   <g id="patch_49">
    <path d="M 236.16 174.528 
C 236.16 174.528 236.16 174.528 236.16 174.528 
C 236.16 174.528 236.16 174.528 236.16 174.528 
L 329.469611 195.4127 
C 327.499968 204.212762 324.295286 212.690103 319.950932 220.592454 
C 315.606577 228.494806 310.166075 235.742995 303.791325 242.121328 
z
" clip-path="url(#pc94236503e)" style="fill: #8ec2dc; opacity: 0.5"/>
   </g>
   <g id="patch_50">
    <path d="M 236.16 174.528 
C 236.16 174.528 236.16 174.528 236.16 174.528 
C 236.16 174.528 236.16 174.528 236.16 174.528 
L 340.801108 201.22356 
C 339.668802 205.66197 338.255255 210.023845 336.569035 214.282749 
C 334.882816 218.541653 332.927338 222.688963 330.714453 226.699542 
z
" clip-path="url(#pc94236503e)" style="fill: #5c90c2; opacity: 0.5"/>
   </g>
   <g id="patch_51">
    <path d="M 236.16 174.528 
C 236.16 174.528 236.16 174.528 236.16 174.528 
C 236.16 174.528 236.16 174.528 236.16 174.528 
L 250.498111 174.200672 
C 250.52807 175.512998 250.377719 176.823245 250.051271 178.094672 
C 249.724824 179.3661 249.225362 180.586711 248.566891 181.722277 
z
" clip-path="url(#pc94236503e)" style="fill: #da362a; opacity: 0.5"/>
   </g>
   <g id="patch_52">
    <path d="M 236.16 174.528 
C 236.16 174.528 236.16 174.528 236.16 174.528 
C 236.16 174.528 236.16 174.528 236.16 174.528 
L 259.568079 172.430117 
C 259.718605 174.109678 259.687929 175.800573 259.47658 177.473569 
C 259.265232 179.146565 258.874436 180.791966 258.310949 182.381327 
z
" clip-path="url(#pc94236503e)" style="fill: #ef633f; opacity: 0.5"/>
   </g>
   <g id="matplotlib.axis_1">
    <g id="xtick_1">
     <g id="line2d_1">
      <path d="M 236.16 174.528 
L 369.216 174.528 
" clip-path="url(#pc94236503e)" style="fill: none; stroke: #808080; stroke-width: 0.5; stroke-linecap: square"/>
     </g>
     <g id="text_1">
      <!-- 0° -->
      <g transform="translate(377.53475 177.287375) scale(0.1 -0.1)">
       <defs>
        <path id="DejaVuSans-30" d="M 2034 4250 
Q 1547 4250 1301 3770 
Q 1056 3291 1056 2328 
Q 1056 1369 1301 889 
Q 1547 409 2034 409 
Q 2525 409 2770 889 
Q 3016 1369 3016 2328 
Q 3016 3291 2770 3770 
Q 2525 4250 2034 4250 
z
M 2034 4750 
Q 2819 4750 3233 4129 
Q 3647 3509 3647 2328 
Q 3647 1150 3233 529 
Q 2819 -91 2034 -91 
Q 1250 -91 836 529 
Q 422 1150 422 2328 
Q 422 3509 836 4129 
Q 1250 4750 2034 4750 
z
" transform="scale(0.015625)"/>
        <path id="DejaVuSans-b0" d="M 1600 4347 
Q 1350 4347 1178 4173 
Q 1006 4000 1006 3750 
Q 1006 3503 1178 3333 
Q 1350 3163 1600 3163 
Q 1850 3163 2022 3333 
Q 2194 3503 2194 3750 
Q 2194 3997 2020 4172 
Q 1847 4347 1600 4347 
z
M 1600 4750 
Q 1800 4750 1984 4673 
Q 2169 4597 2303 4453 
Q 2447 4313 2519 4134 
Q 2591 3956 2591 3750 
Q 2591 3338 2302 3052 
Q 2013 2766 1594 2766 
Q 1172 2766 890 3047 
Q 609 3328 609 3750 
Q 609 4169 896 4459 
Q 1184 4750 1600 4750 
z
" transform="scale(0.015625)"/>
       </defs>
       <use xlink:href="#DejaVuSans-30"/>
       <use xlink:href="#DejaVuSans-b0" transform="translate(63.623047 0)"/>
      </g>
     </g>
    </g>
    <g id="xtick_2">
     <g id="line2d_2">
      <path d="M 236.16 174.528 
L 330.2448 80.4432 
" clip-path="url(#pc94236503e)" style="fill: none; stroke: #808080; stroke-width: 0.5; stroke-linecap: square"/>
     </g>
     <g id="text_2">
      <!-- 45° -->
      <g transform="translate(331.281795 73.30308) scale(0.1 -0.1)">
       <defs>
        <path id="DejaVuSans-34" d="M 2419 4116 
L 825 1625 
L 2419 1625 
L 2419 4116 
z
M 2253 4666 
L 3047 4666 
L 3047 1625 
L 3713 1625 
L 3713 1100 
L 3047 1100 
L 3047 0 
L 2419 0 
L 2419 1100 
L 313 1100 
L 313 1709 
L 2253 4666 
z
" transform="scale(0.015625)"/>
        <path id="DejaVuSans-35" d="M 691 4666 
L 3169 4666 
L 3169 4134 
L 1269 4134 
L 1269 2991 
Q 1406 3038 1543 3061 
Q 1681 3084 1819 3084 
Q 2600 3084 3056 2656 
Q 3513 2228 3513 1497 
Q 3513 744 3044 326 
Q 2575 -91 1722 -91 
Q 1428 -91 1123 -41 
Q 819 9 494 109 
L 494 744 
Q 775 591 1075 516 
Q 1375 441 1709 441 
Q 2250 441 2565 725 
Q 2881 1009 2881 1497 
Q 2881 1984 2565 2268 
Q 2250 2553 1709 2553 
Q 1456 2553 1204 2497 
Q 953 2441 691 2322 
L 691 4666 
z
" transform="scale(0.015625)"/>
       </defs>
       <use xlink:href="#DejaVuSans-34"/>
       <use xlink:href="#DejaVuSans-35" transform="translate(63.623047 0)"/>
       <use xlink:href="#DejaVuSans-b0" transform="translate(127.246094 0)"/>
      </g>
     </g>
    </g>
    <g id="xtick_3">
     <g id="line2d_3">
      <path d="M 236.16 174.528 
L 236.16 41.472 
" clip-path="url(#pc94236503e)" style="fill: none; stroke: #808080; stroke-width: 0.5; stroke-linecap: square"/>
     </g>
     <g id="text_3">
      <!-- 90° -->
      <g transform="translate(227.2975 30.231375) scale(0.1 -0.1)">
       <defs>
        <path id="DejaVuSans-39" d="M 703 97 
L 703 672 
Q 941 559 1184 500 
Q 1428 441 1663 441 
Q 2288 441 2617 861 
Q 2947 1281 2994 2138 
Q 2813 1869 2534 1725 
Q 2256 1581 1919 1581 
Q 1219 1581 811 2004 
Q 403 2428 403 3163 
Q 403 3881 828 4315 
Q 1253 4750 1959 4750 
Q 2769 4750 3195 4129 
Q 3622 3509 3622 2328 
Q 3622 1225 3098 567 
Q 2575 -91 1691 -91 
Q 1453 -91 1209 -44 
Q 966 3 703 97 
z
M 1959 2075 
Q 2384 2075 2632 2365 
Q 2881 2656 2881 3163 
Q 2881 3666 2632 3958 
Q 2384 4250 1959 4250 
Q 1534 4250 1286 3958 
Q 1038 3666 1038 3163 
Q 1038 2656 1286 2365 
Q 1534 2075 1959 2075 
z
" transform="scale(0.015625)"/>
       </defs>
       <use xlink:href="#DejaVuSans-39"/>
       <use xlink:href="#DejaVuSans-30" transform="translate(63.623047 0)"/>
       <use xlink:href="#DejaVuSans-b0" transform="translate(127.246094 0)"/>
      </g>
     </g>
    </g>
    <g id="xtick_4">
     <g id="line2d_4">
      <path d="M 236.16 174.528 
L 142.0752 80.4432 
" clip-path="url(#pc94236503e)" style="fill: none; stroke: #808080; stroke-width: 0.5; stroke-linecap: square"/>
     </g>
     <g id="text_4">
      <!-- 135° -->
      <g transform="translate(120.131955 73.30308) scale(0.1 -0.1)">
       <defs>
        <path id="DejaVuSans-31" d="M 794 531 
L 1825 531 
L 1825 4091 
L 703 3866 
L 703 4441 
L 1819 4666 
L 2450 4666 
L 2450 531 
L 3481 531 
L 3481 0 
L 794 0 
L 794 531 
z
" transform="scale(0.015625)"/>
        <path id="DejaVuSans-33" d="M 2597 2516 
Q 3050 2419 3304 2112 
Q 3559 1806 3559 1356 
Q 3559 666 3084 287 
Q 2609 -91 1734 -91 
Q 1441 -91 1130 -33 
Q 819 25 488 141 
L 488 750 
Q 750 597 1062 519 
Q 1375 441 1716 441 
Q 2309 441 2620 675 
Q 2931 909 2931 1356 
Q 2931 1769 2642 2001 
Q 2353 2234 1838 2234 
L 1294 2234 
L 1294 2753 
L 1863 2753 
Q 2328 2753 2575 2939 
Q 2822 3125 2822 3475 
Q 2822 3834 2567 4026 
Q 2313 4219 1838 4219 
Q 1578 4219 1281 4162 
Q 984 4106 628 3988 
L 628 4550 
Q 988 4650 1302 4700 
Q 1616 4750 1894 4750 
Q 2613 4750 3031 4423 
Q 3450 4097 3450 3541 
Q 3450 3153 3228 2886 
Q 3006 2619 2597 2516 
z
" transform="scale(0.015625)"/>
       </defs>
       <use xlink:href="#DejaVuSans-31"/>
       <use xlink:href="#DejaVuSans-33" transform="translate(63.623047 0)"/>
       <use xlink:href="#DejaVuSans-35" transform="translate(127.246094 0)"/>
       <use xlink:href="#DejaVuSans-b0" transform="translate(190.869141 0)"/>
      </g>
     </g>
    </g>
    <g id="xtick_5">
     <g id="line2d_5">
      <path d="M 236.16 174.528 
L 103.104 174.528 
" clip-path="url(#pc94236503e)" style="fill: none; stroke: #808080; stroke-width: 0.5; stroke-linecap: square"/>
     </g>
     <g id="text_5">
      <!-- 180° -->
      <g transform="translate(77.06025 177.287375) scale(0.1 -0.1)">
       <defs>
        <path id="DejaVuSans-38" d="M 2034 2216 
Q 1584 2216 1326 1975 
Q 1069 1734 1069 1313 
Q 1069 891 1326 650 
Q 1584 409 2034 409 
Q 2484 409 2743 651 
Q 3003 894 3003 1313 
Q 3003 1734 2745 1975 
Q 2488 2216 2034 2216 
z
M 1403 2484 
Q 997 2584 770 2862 
Q 544 3141 544 3541 
Q 544 4100 942 4425 
Q 1341 4750 2034 4750 
Q 2731 4750 3128 4425 
Q 3525 4100 3525 3541 
Q 3525 3141 3298 2862 
Q 3072 2584 2669 2484 
Q 3125 2378 3379 2068 
Q 3634 1759 3634 1313 
Q 3634 634 3220 271 
Q 2806 -91 2034 -91 
Q 1263 -91 848 271 
Q 434 634 434 1313 
Q 434 1759 690 2068 
Q 947 2378 1403 2484 
z
M 1172 3481 
Q 1172 3119 1398 2916 
Q 1625 2713 2034 2713 
Q 2441 2713 2670 2916 
Q 2900 3119 2900 3481 
Q 2900 3844 2670 4047 
Q 2441 4250 2034 4250 
Q 1625 4250 1398 4047 
Q 1172 3844 1172 3481 
z
" transform="scale(0.015625)"/>
       </defs>
       <use xlink:href="#DejaVuSans-31"/>
       <use xlink:href="#DejaVuSans-38" transform="translate(63.623047 0)"/>
       <use xlink:href="#DejaVuSans-30" transform="translate(127.246094 0)"/>
       <use xlink:href="#DejaVuSans-b0" transform="translate(190.869141 0)"/>
      </g>
     </g>
    </g>
    <g id="xtick_6">
     <g id="line2d_6">
      <path d="M 236.16 174.528 
L 142.0752 268.6128 
" clip-path="url(#pc94236503e)" style="fill: none; stroke: #808080; stroke-width: 0.5; stroke-linecap: square"/>
     </g>
     <g id="text_6">
      <!-- 225° -->
      <g transform="translate(120.131955 281.27167) scale(0.1 -0.1)">
       <defs>
        <path id="DejaVuSans-32" d="M 1228 531 
L 3431 531 
L 3431 0 
L 469 0 
L 469 531 
Q 828 903 1448 1529 
Q 2069 2156 2228 2338 
Q 2531 2678 2651 2914 
Q 2772 3150 2772 3378 
Q 2772 3750 2511 3984 
Q 2250 4219 1831 4219 
Q 1534 4219 1204 4116 
Q 875 4013 500 3803 
L 500 4441 
Q 881 4594 1212 4672 
Q 1544 4750 1819 4750 
Q 2544 4750 2975 4387 
Q 3406 4025 3406 3419 
Q 3406 3131 3298 2873 
Q 3191 2616 2906 2266 
Q 2828 2175 2409 1742 
Q 1991 1309 1228 531 
z
" transform="scale(0.015625)"/>
       </defs>
       <use xlink:href="#DejaVuSans-32"/>
       <use xlink:href="#DejaVuSans-32" transform="translate(63.623047 0)"/>
       <use xlink:href="#DejaVuSans-35" transform="translate(127.246094 0)"/>
       <use xlink:href="#DejaVuSans-b0" transform="translate(190.869141 0)"/>
      </g>
     </g>
    </g>
    <g id="xtick_7">
     <g id="line2d_7">
      <path d="M 236.16 174.528 
L 236.16 307.584 
" clip-path="url(#pc94236503e)" style="fill: none; stroke: #808080; stroke-width: 0.5; stroke-linecap: square"/>
     </g>
     <g id="text_7">
      <!-- 270° -->
      <g transform="translate(224.11625 324.343375) scale(0.1 -0.1)">
       <defs>
        <path id="DejaVuSans-37" d="M 525 4666 
L 3525 4666 
L 3525 4397 
L 1831 0 
L 1172 0 
L 2766 4134 
L 525 4134 
L 525 4666 
z
" transform="scale(0.015625)"/>
       </defs>
       <use xlink:href="#DejaVuSans-32"/>
       <use xlink:href="#DejaVuSans-37" transform="translate(63.623047 0)"/>
       <use xlink:href="#DejaVuSans-30" transform="translate(127.246094 0)"/>
       <use xlink:href="#DejaVuSans-b0" transform="translate(190.869141 0)"/>
      </g>
     </g>
    </g>
    <g id="xtick_8">
     <g id="line2d_8">
      <path d="M 236.16 174.528 
L 330.2448 268.6128 
" clip-path="url(#pc94236503e)" style="fill: none; stroke: #808080; stroke-width: 0.5; stroke-linecap: square"/>
     </g>
     <g id="text_8">
      <!-- 315° -->
      <g transform="translate(328.100545 281.27167) scale(0.1 -0.1)">
       <use xlink:href="#DejaVuSans-33"/>
       <use xlink:href="#DejaVuSans-31" transform="translate(63.623047 0)"/>
       <use xlink:href="#DejaVuSans-35" transform="translate(127.246094 0)"/>
       <use xlink:href="#DejaVuSans-b0" transform="translate(190.869141 0)"/>
      </g>
     </g>
    </g>
   </g>
   <g id="matplotlib.axis_2">
    <g id="ytick_1">
     <g id="line2d_9">
      <path d="M 261.575016 174.528 
C 261.575016 171.190531 260.917608 167.885514 259.640414 164.802094 
C 258.363219 161.718675 256.491078 158.916817 254.13113 156.55687 
C 251.771183 154.196922 248.969325 152.324781 245.885906 151.047586 
C 242.802486 149.770392 239.497469 149.112984 236.16 149.112984 
C 232.822531 149.112984 229.517514 149.770392 226.434094 151.047586 
C 223.350675 152.324781 220.548817 154.196922 218.18887 156.55687 
C 215.828922 158.916817 213.956781 161.718675 212.679586 164.802094 
C 211.402392 167.885514 210.744984 171.190531 210.744984 174.528 
C 210.744984 177.865469 211.402392 181.170486 212.679586 184.253906 
C 213.956781 187.337325 215.828922 190.139183 218.18887 192.49913 
C 220.548817 194.859078 223.350675 196.731219 226.434094 198.008414 
C 229.517514 199.285608 232.822531 199.943016 236.16 199.943016 
C 239.497469 199.943016 242.802486 199.285608 245.885906 198.008414 
C 248.969325 196.731219 251.771183 194.859078 254.13113 192.49913 
C 256.491078 190.139183 258.363219 187.337325 259.640414 184.253906 
C 260.917608 181.170486 261.575016 177.865469 261.575016 174.528 
" clip-path="url(#pc94236503e)" style="fill: none; stroke: #808080; stroke-width: 0.5; stroke-linecap: square"/>
     </g>
     <g id="text_9">
      <!-- 2 -->
      <g transform="translate(259.640414 162.722407) scale(0.1 -0.1)">
       <use xlink:href="#DejaVuSans-32"/>
      </g>
     </g>
    </g>
    <g id="ytick_2">
     <g id="line2d_10">
      <path d="M 286.990033 174.528 
C 286.990033 167.853061 285.675215 161.243028 283.120827 155.076189 
C 280.566439 148.909349 276.822155 143.305634 272.102261 138.585739 
C 267.382366 133.865845 261.778651 130.121561 255.611811 127.567173 
C 249.444972 125.012785 242.834939 123.697967 236.16 123.697967 
C 229.485061 123.697967 222.875028 125.012785 216.708189 127.567173 
C 210.541349 130.121561 204.937634 133.865845 200.217739 138.585739 
C 195.497845 143.305634 191.753561 148.909349 189.199173 155.076189 
C 186.644785 161.243028 185.329967 167.853061 185.329967 174.528 
C 185.329967 181.202939 186.644785 187.812972 189.199173 193.979811 
C 191.753561 200.146651 195.497845 205.750366 200.217739 210.470261 
C 204.937634 215.190155 210.541349 218.934439 216.708189 221.488827 
C 222.875028 224.043215 229.485061 225.358033 236.16 225.358033 
C 242.834939 225.358033 249.444972 224.043215 255.611811 221.488827 
C 261.778651 218.934439 267.382366 215.190155 272.102261 210.470261 
C 276.822155 205.750366 280.566439 200.146651 283.120827 193.979811 
C 285.675215 187.812972 286.990033 181.202939 286.990033 174.528 
" clip-path="url(#pc94236503e)" style="fill: none; stroke: #808080; stroke-width: 0.5; stroke-linecap: square"/>
     </g>
     <g id="text_10">
      <!-- 4 -->
      <g transform="translate(283.120827 152.996501) scale(0.1 -0.1)">
       <use xlink:href="#DejaVuSans-34"/>
      </g>
     </g>
    </g>
    <g id="ytick_3">
     <g id="line2d_11">
      <path d="M 312.405049 174.528 
C 312.405049 164.515592 310.432823 154.600542 306.601241 145.350283 
C 302.769658 136.100024 297.153233 127.69445 290.073391 120.614609 
C 282.99355 113.534767 274.587976 107.918342 265.337717 104.086759 
C 256.087458 100.255177 246.172408 98.282951 236.16 98.282951 
C 226.147592 98.282951 216.232542 100.255177 206.982283 104.086759 
C 197.732024 107.918342 189.32645 113.534767 182.246609 120.614609 
C 175.166767 127.69445 169.550342 136.100024 165.718759 145.350283 
C 161.887177 154.600542 159.914951 164.515592 159.914951 174.528 
C 159.914951 184.540408 161.887177 194.455458 165.718759 203.705717 
C 169.550342 212.955976 175.166767 221.36155 182.246609 228.441391 
C 189.32645 235.521233 197.732024 241.137658 206.982283 244.969241 
C 216.232542 248.800823 226.147592 250.773049 236.16 250.773049 
C 246.172408 250.773049 256.087458 248.800823 265.337717 244.969241 
C 274.587976 241.137658 282.99355 235.521233 290.073391 228.441391 
C 297.153233 221.36155 302.769658 212.955976 306.601241 203.705717 
C 310.432823 194.455458 312.405049 184.540408 312.405049 174.528 
" clip-path="url(#pc94236503e)" style="fill: none; stroke: #808080; stroke-width: 0.5; stroke-linecap: square"/>
     </g>
     <g id="text_11">
      <!-- 6 -->
      <g transform="translate(306.601241 143.270595) scale(0.1 -0.1)">
       <defs>
        <path id="DejaVuSans-36" d="M 2113 2584 
Q 1688 2584 1439 2293 
Q 1191 2003 1191 1497 
Q 1191 994 1439 701 
Q 1688 409 2113 409 
Q 2538 409 2786 701 
Q 3034 994 3034 1497 
Q 3034 2003 2786 2293 
Q 2538 2584 2113 2584 
z
M 3366 4563 
L 3366 3988 
Q 3128 4100 2886 4159 
Q 2644 4219 2406 4219 
Q 1781 4219 1451 3797 
Q 1122 3375 1075 2522 
Q 1259 2794 1537 2939 
Q 1816 3084 2150 3084 
Q 2853 3084 3261 2657 
Q 3669 2231 3669 1497 
Q 3669 778 3244 343 
Q 2819 -91 2113 -91 
Q 1303 -91 875 529 
Q 447 1150 447 2328 
Q 447 3434 972 4092 
Q 1497 4750 2381 4750 
Q 2619 4750 2861 4703 
Q 3103 4656 3366 4563 
z
" transform="scale(0.015625)"/>
       </defs>
       <use xlink:href="#DejaVuSans-36"/>
      </g>
     </g>
    </g>
    <g id="ytick_4">
     <g id="line2d_12">
      <path d="M 337.820066 174.528 
C 337.820066 161.178122 335.190431 147.958056 330.081654 135.624377 
C 324.972877 123.290698 317.484311 112.083267 308.044522 102.643478 
C 298.604733 93.203689 287.397302 85.715123 275.063623 80.606346 
C 262.729944 75.497569 249.509878 72.867934 236.16 72.867934 
C 222.810122 72.867934 209.590056 75.497569 197.256377 80.606346 
C 184.922698 85.715123 173.715267 93.203689 164.275478 102.643478 
C 154.835689 112.083267 147.347123 123.290698 142.238346 135.624377 
C 137.129569 147.958056 134.499934 161.178122 134.499934 174.528 
C 134.499934 187.877878 137.129569 201.097944 142.238346 213.431623 
C 147.347123 225.765302 154.835689 236.972733 164.275478 246.412522 
C 173.715267 255.852311 184.922698 263.340877 197.256377 268.449654 
C 209.590056 273.558431 222.810122 276.188066 236.16 276.188066 
C 249.509878 276.188066 262.729944 273.558431 275.063623 268.449654 
C 287.397302 263.340877 298.604733 255.852311 308.044522 246.412522 
C 317.484311 236.972733 324.972877 225.765302 330.081654 213.431623 
C 335.190431 201.097944 337.820066 187.877878 337.820066 174.528 
" clip-path="url(#pc94236503e)" style="fill: none; stroke: #808080; stroke-width: 0.5; stroke-linecap: square"/>
     </g>
     <g id="text_12">
      <!-- 8 -->
      <g transform="translate(330.081654 133.54469) scale(0.1 -0.1)">
       <use xlink:href="#DejaVuSans-38"/>
      </g>
     </g>
    </g>
    <g id="ytick_5">
     <g id="line2d_13">
      <path d="M 363.235082 174.528 
C 363.235082 157.840653 359.948039 141.31557 353.562068 125.898471 
C 347.176096 110.481373 337.815389 96.472084 326.015652 84.672348 
C 314.215916 72.872611 300.206627 63.511904 284.789529 57.125932 
C 269.37243 50.739961 252.847347 47.452918 236.16 47.452918 
C 219.472653 47.452918 202.94757 50.739961 187.530471 57.125932 
C 172.113373 63.511904 158.104084 72.872611 146.304348 84.672348 
C 134.504611 96.472084 125.143904 110.481373 118.757932 125.898471 
C 112.371961 141.31557 109.084918 157.840653 109.084918 174.528 
C 109.084918 191.215347 112.371961 207.74043 118.757932 223.157529 
C 125.143904 238.574627 134.504611 252.583916 146.304348 264.383652 
C 158.104084 276.183389 172.113373 285.544096 187.530471 291.930068 
C 202.94757 298.316039 219.472653 301.603082 236.16 301.603082 
C 252.847347 301.603082 269.37243 298.316039 284.789529 291.930068 
C 300.206627 285.544096 314.215916 276.183389 326.015652 264.383652 
C 337.815389 252.583916 347.176096 238.574627 353.562068 223.157529 
C 359.948039 207.74043 363.235082 191.215347 363.235082 174.528 
" clip-path="url(#pc94236503e)" style="fill: none; stroke: #808080; stroke-width: 0.5; stroke-linecap: square"/>
     </g>
     <g id="text_13">
      <!-- 10 -->
      <g transform="translate(353.562068 123.818784) scale(0.1 -0.1)">
       <use xlink:href="#DejaVuSans-31"/>
       <use xlink:href="#DejaVuSans-30" transform="translate(63.623047 0)"/>
      </g>
     </g>
    </g>
   </g>
   <g id="patch_53">
    <path d="M 369.216 174.528 
C 369.216 157.055246 365.774248 139.752393 359.087715 123.609673 
C 352.401182 107.466954 342.599903 92.798303 330.2448 80.4432 
C 317.889697 68.088097 303.221046 58.286818 287.078327 51.600285 
C 270.935607 44.913752 253.632754 41.472 236.16 41.472 
C 218.687246 41.472 201.384393 44.913752 185.241673 51.600285 
C 169.098954 58.286818 154.430303 68.088097 142.0752 80.4432 
C 129.720097 92.798303 119.918818 107.466954 113.232285 123.609673 
C 106.545752 139.752393 103.104 157.055246 103.104 174.528 
C 103.104 192.000754 106.545752 209.303607 113.232285 225.446327 
C 119.918818 241.589046 129.720097 256.257697 142.0752 268.6128 
C 154.430303 280.967903 169.098954 290.769182 185.241673 297.455715 
C 201.384393 304.142248 218.687246 307.584 236.16 307.584 
C 253.632754 307.584 270.935607 304.142248 287.078327 297.455715 
C 303.221046 290.769182 317.889697 280.967903 330.2448 268.6128 
C 342.599903 256.257697 352.401182 241.589046 359.087715 225.446327 
C 365.774248 209.303607 369.216 192.000754 369.216 174.528 
" style="fill: none; stroke: #000000; stroke-width: 0.8; stroke-linejoin: miter; stroke-linecap: square"/>
   </g>
  </g>
 </g>
 <defs>
  <clipPath id="pc94236503e">
   <path d="M 369.216 174.528 
C 369.216 157.055246 365.774248 139.752393 359.087715 123.609673 
C 352.401182 107.466954 342.599903 92.798303 330.2448 80.4432 
C 317.889697 68.088097 303.221046 58.286818 287.078327 51.600285 
C 270.935607 44.913752 253.632754 41.472 236.16 41.472 
C 218.687246 41.472 201.384393 44.913752 185.241673 51.600285 
C 169.098954 58.286818 154.430303 68.088097 142.0752 80.4432 
C 129.720097 92.798303 119.918818 107.466954 113.232285 123.609673 
C 106.545752 139.752393 103.104 157.055246 103.104 174.528 
C 103.104 192.000754 106.545752 209.303607 113.232285 225.446327 
C 119.918818 241.589046 129.720097 256.257697 142.0752 268.6128 
C 154.430303 280.967903 169.098954 290.769182 185.241673 297.455715 
C 201.384393 304.142248 218.687246 307.584 236.16 307.584 
C 253.632754 307.584 270.935607 304.142248 287.078327 297.455715 
C 303.221046 290.769182 317.889697 280.967903 330.2448 268.6128 
C 342.599903 256.257697 352.401182 241.589046 359.087715 225.446327 
C 365.774248 209.303607 369.216 192.000754 369.216 174.528 
M 236.16 174.528 
C 236.16 174.528 236.16 174.528 236.16 174.528 
C 236.16 174.528 236.16 174.528 236.16 174.528 
C 236.16 174.528 236.16 174.528 236.16 174.528 
C 236.16 174.528 236.16 174.528 236.16 174.528 
C 236.16 174.528 236.16 174.528 236.16 174.528 
C 236.16 174.528 236.16 174.528 236.16 174.528 
C 236.16 174.528 236.16 174.528 236.16 174.528 
C 236.16 174.528 236.16 174.528 236.16 174.528 
C 236.16 174.528 236.16 174.528 236.16 174.528 
C 236.16 174.528 236.16 174.528 236.16 174.528 
C 236.16 174.528 236.16 174.528 236.16 174.528 
C 236.16 174.528 236.16 174.528 236.16 174.528 
C 236.16 174.528 236.16 174.528 236.16 174.528 
C 236.16 174.528 236.16 174.528 236.16 174.528 
C 236.16 174.528 236.16 174.528 236.16 174.528 
C 236.16 174.528 236.16 174.528 236.16 174.528 
z
"/>
  </clipPath>
 </defs>
</svg>
