<?xml version="1.0" encoding="utf-8" standalone="no"?>
<!DOCTYPE svg PUBLIC "-//W3C//DTD SVG 1.1//EN"
  "http://www.w3.org/Graphics/SVG/1.1/DTD/svg11.dtd">
<svg xmlns:xlink="http://www.w3.org/1999/xlink" width="460.8pt" height="345.6pt" viewBox="0 0 460.8 345.6" xmlns="http://www.w3.org/2000/svg" version="1.1">
 <metadata>
  <rdf:RDF xmlns:dc="http://purl.org/dc/elements/1.1/" xmlns:cc="http://creativecommons.org/ns#" xmlns:rdf="http://www.w3.org/1999/02/22-rdf-syntax-ns#">
   <cc:Work>
    <dc:type rdf:resource="http://purl.org/dc/dcmitype/StillImage"/>
    <dc:date>2025-11-29T13:40:46.167172</dc:date>
    <dc:format>image/svg+xml</dc:format>
    <dc:creator>
     <cc:Agent>
      <dc:title>Matplotlib v3.10.6, https://matplotlib.org/</dc:title>
     </cc:Agent>
    </dc:creator>
   </cc:Work>
  </rdf:RDF>
 </metadata>
 <defs>
  <style type="text/css">*{stroke-linejoin: round; stroke-linecap: butt}</style>
 </defs>
 <g id="figure_1">
  <g id="patch_1">
   <path d="M 0 345.6 
L 460.8 345.6 
L 460.8 0 
L 0 0 
z
" style="fill: #ffffff"/>
  </g>
  <g id="axes_1">
   <g id="patch_2">
    <path d="M 369.216 174.528 
C 369.216 157.055246 365.774248 139.752393 359.087715 123.609673 
C 352.401182 107.466954 342.599903 92.798303 330.2448 80.4432 
C 317.889697 68.088097 303.221046 58.286818 287.078327 51.600285 
C 270.935607 44.913752 253.632754 41.472 236.16 41.472 
C 218.687246 41.472 201.384393 44.913752 185.241673 51.600285 
C 169.098954 58.286818 154.430303 68.088097 142.0752 80.4432 
C 129.720097 92.798303 119.918818 107.466954 113.232285 123.609673 
C 106.545752 139.752393 103.104 157.055246 103.104 174.528 
C 103.104 192.000754 106.545752 209.303607 113.232285 225.446327 
C 119.918818 241.589046 129.720097 256.257697 142.0752 268.6128 
C 154.430303 280.967903 169.098954 290.769182 185.241673 297.455715 
C 201.384393 304.142248 218.687246 307.584 236.16 307.584 
C 253.632754 307.584 270.935607 304.142248 287.078327 297.455715 
C 303.221046 290.769182 317.889697 280.967903 330.2448 268.6128 
C 342.599903 256.257697 352.401182 241.589046 359.087715 225.446327 
C 365.774248 209.303607 369.216 192.000754 369.216 174.528 
M 236.16 174.528 
C 236.16 174.528 236.16 174.528 236.16 174.528 
C 236.16 174.528 236.16 174.528 236.16 174.528 
C 236.16 174.528 236.16 174.528 236.16 174.528 
C 236.16 174.528 236.16 174.528 236.16 174.528 
C 236.16 174.528 236.16 174.528 236.16 174.528 
C 236.16 174.528 236.16 174.528 236.16 174.528 
C 236.16 174.528 236.16 174.528 236.16 174.528 
C 236.16 174.528 236.16 174.528 236.16 174.528 
C 236.16 174.528 236.16 174.528 236.16 174.528 
C 236.16 174.528 236.16 174.528 236.16 174.528 
C 236.16 174.528 236.16 174.528 236.16 174.528 
C 236.16 174.528 236.16 174.528 236.16 174.528 
C 236.16 174.528 236.16 174.528 236.16 174.528 
C 236.16 174.528 236.16 174.528 236.16 174.528 
C 236.16 174.528 236.16 174.528 236.16 174.528 
C 236.16 174.528 236.16 174.528 236.16 174.528 
z
" style="fill: #ffffff"/>
   </g>
   <g id="PathCollection_1">
    <path d="M 226.217288 166.297162 
C 226.627711 166.297162 227.021379 166.134099 227.311592 165.843887 
C 227.601805 165.553674 227.764867 165.160005 227.764867 164.749582 
C 227.764867 164.33916 227.601805 163.945491 227.311592 163.655278 
C 227.021379 163.365066 226.627711 163.202003 226.217288 163.202003 
C 225.806865 163.202003 225.413196 163.365066 225.122984 163.655278 
C 224.832771 163.945491 224.669708 164.33916 224.669708 164.749582 
C 224.669708 165.160005 224.832771 165.553674 225.122984 165.843887 
C 225.413196 166.134099 225.806865 166.297162 226.217288 166.297162 
z
" clip-path="url(#p9620e7dab5)" style="fill: #00ff33; fill-opacity: 0.75; stroke: #00ff33; stroke-opacity: 0.75"/>
    <path d="M 195.296416 169.190739 
C 196.534587 169.190739 197.722212 168.698809 198.597731 167.823289 
C 199.47325 166.94777 199.965181 165.760145 199.965181 164.521974 
C 199.965181 163.283803 199.47325 162.096177 198.597731 161.220658 
C 197.722212 160.345139 196.534587 159.853208 195.296416 159.853208 
C 194.058245 159.853208 192.870619 160.345139 191.9951 161.220658 
C 191.119581 162.096177 190.62765 163.283803 190.62765 164.521974 
C 190.62765 165.760145 191.119581 166.94777 191.9951 167.823289 
C 192.870619 168.698809 194.058245 169.190739 195.296416 169.190739 
z
" clip-path="url(#p9620e7dab5)" style="fill: #00ffb5; fill-opacity: 0.75; stroke: #00ffb5; stroke-opacity: 0.75"/>
    <path d="M 206.458003 167.944187 
C 207.380969 167.944187 208.266256 167.577489 208.918892 166.924853 
C 209.571527 166.272218 209.938225 165.386931 209.938225 164.463965 
C 209.938225 163.541 209.571527 162.655712 208.918892 162.003077 
C 208.266256 161.350442 207.380969 160.983744 206.458003 160.983744 
C 205.535038 160.983744 204.64975 161.350442 203.997115 162.003077 
C 203.34448 162.655712 202.977782 163.541 202.977782 164.463965 
C 202.977782 165.386931 203.34448 166.272218 203.997115 166.924853 
C 204.64975 167.577489 205.535038 167.944187 206.458003 167.944187 
z
" clip-path="url(#p9620e7dab5)" style="fill: #00ff9d; fill-opacity: 0.75; stroke: #00ff9d; stroke-opacity: 0.75"/>
    <path d="M 176.418787 229.333318 
C 178.645214 229.333318 180.780752 228.448749 182.355073 226.874428 
C 183.929394 225.300107 184.813963 223.164569 184.813963 220.938143 
C 184.813963 218.711716 183.929394 216.576178 182.355073 215.001857 
C 180.780752 213.427536 178.645214 212.542967 176.418787 212.542967 
C 174.192361 212.542967 172.056823 213.427536 170.482502 215.001857 
C 168.908181 216.576178 168.023612 218.711716 168.023612 220.938143 
C 168.023612 223.164569 168.908181 225.300107 170.482502 226.874428 
C 172.056823 228.448749 174.192361 229.333318 176.418787 229.333318 
z
" clip-path="url(#p9620e7dab5)" style="fill: #006eff; fill-opacity: 0.75; stroke: #006eff; stroke-opacity: 0.75"/>
    <path d="M 362.110803 202.296274 
C 365.839507 202.296274 369.415995 200.814844 372.052587 198.178252 
C 374.689179 195.54166 376.170609 191.965172 376.170609 188.236467 
C 376.170609 184.507763 374.689179 180.931275 372.052587 178.294683 
C 369.415995 175.658091 365.839507 174.176661 362.110803 174.176661 
C 358.382098 174.176661 354.80561 175.658091 352.169018 178.294683 
C 349.532426 180.931275 348.050996 184.507763 348.050996 188.236467 
C 348.050996 191.965172 349.532426 195.54166 352.169018 198.178252 
C 354.80561 200.814844 358.382098 202.296274 362.110803 202.296274 
z
" clip-path="url(#p9620e7dab5)" style="fill: #ff002a; fill-opacity: 0.75; stroke: #ff002a; stroke-opacity: 0.75"/>
    <path d="M 281.281711 157.771671 
C 282.763574 157.771671 284.184942 157.182921 285.232777 156.135087 
C 286.280611 155.087252 286.869361 153.665883 286.869361 152.184021 
C 286.869361 150.702159 286.280611 149.280791 285.232777 148.232956 
C 284.184942 147.185121 282.763574 146.596371 281.281711 146.596371 
C 279.799849 146.596371 278.378481 147.185121 277.330646 148.232956 
C 276.282812 149.280791 275.694062 150.702159 275.694062 152.184021 
C 275.694062 153.665883 276.282812 155.087252 277.330646 156.135087 
C 278.378481 157.182921 279.799849 157.771671 281.281711 157.771671 
z
" clip-path="url(#p9620e7dab5)" style="fill: #ff5f00; fill-opacity: 0.75; stroke: #ff5f00; stroke-opacity: 0.75"/>
    <path d="M 195.194207 240.291804 
C 197.281468 240.291804 199.283522 239.462526 200.759439 237.986609 
C 202.235355 236.510693 203.064633 234.508639 203.064633 232.421378 
C 203.064633 230.334117 202.235355 228.332063 200.759439 226.856146 
C 199.283522 225.38023 197.281468 224.550952 195.194207 224.550952 
C 193.106946 224.550952 191.104892 225.38023 189.628976 226.856146 
C 188.153059 228.332063 187.323781 230.334117 187.323781 232.421378 
C 187.323781 234.508639 188.153059 236.510693 189.628976 237.986609 
C 191.104892 239.462526 193.106946 240.291804 195.194207 240.291804 
z
" clip-path="url(#p9620e7dab5)" style="fill: #0028ff; fill-opacity: 0.75; stroke: #0028ff; stroke-opacity: 0.75"/>
    <path d="M 350.583352 224.832918 
C 354.122234 224.832918 357.516648 223.426906 360.019016 220.924539 
C 362.521383 218.422171 363.927395 215.027757 363.927395 211.488875 
C 363.927395 207.949993 362.521383 204.555579 360.019016 202.053212 
C 357.516648 199.550844 354.122234 198.144832 350.583352 198.144832 
C 347.04447 198.144832 343.650056 199.550844 341.147688 202.053212 
C 338.645321 204.555579 337.239309 207.949993 337.239309 211.488875 
C 337.239309 215.027757 338.645321 218.422171 341.147688 220.924539 
C 343.650056 223.426906 347.04447 224.832918 350.583352 224.832918 
z
" clip-path="url(#p9620e7dab5)" style="fill: #ff0059; fill-opacity: 0.75; stroke: #ff0059; stroke-opacity: 0.75"/>
    <path d="M 307.755836 100.741286 
C 311.054241 100.741286 314.217995 99.430816 316.550319 97.098492 
C 318.882644 94.766167 320.193114 91.602413 320.193114 88.304008 
C 320.193114 85.005603 318.882644 81.841849 316.550319 79.509525 
C 314.217995 77.1772 311.054241 75.86673 307.755836 75.86673 
C 304.457431 75.86673 301.293677 77.1772 298.961352 79.509525 
C 296.629028 81.841849 295.318558 85.005603 295.318558 88.304008 
C 295.318558 91.602413 296.629028 94.766167 298.961352 97.098492 
C 301.293677 99.430816 304.457431 100.741286 307.755836 100.741286 
z
" clip-path="url(#p9620e7dab5)" style="fill: #ffc900; fill-opacity: 0.75; stroke: #ffc900; stroke-opacity: 0.75"/>
    <path d="M 353.987142 181.597966 
C 357.459398 181.597966 360.789907 180.218424 363.245162 177.763169 
C 365.700418 175.307913 367.07996 171.977404 367.07996 168.505148 
C 367.07996 165.032892 365.700418 161.702383 363.245162 159.247127 
C 360.789907 156.791871 357.459398 155.41233 353.987142 155.41233 
C 350.514886 155.41233 347.184377 156.791871 344.729121 159.247127 
C 342.273865 161.702383 340.894323 165.032892 340.894323 168.505148 
C 340.894323 171.977404 342.273865 175.307913 344.729121 177.763169 
C 347.184377 180.218424 350.514886 181.597966 353.987142 181.597966 
z
" clip-path="url(#p9620e7dab5)" style="fill: #ff0000; fill-opacity: 0.75; stroke: #ff0000; stroke-opacity: 0.75"/>
    <path d="M 319.967291 198.382505 
C 322.470025 198.382505 324.870591 197.388159 326.640291 195.618458 
C 328.409991 193.848758 329.404338 191.448193 329.404338 188.945458 
C 329.404338 186.442724 328.409991 184.042159 326.640291 182.272458 
C 324.870591 180.502758 322.470025 179.508411 319.967291 179.508411 
C 317.464557 179.508411 315.063991 180.502758 313.294291 182.272458 
C 311.524591 184.042159 310.530244 186.442724 310.530244 188.945458 
C 310.530244 191.448193 311.524591 193.848758 313.294291 195.618458 
C 315.063991 197.388159 317.464557 198.382505 319.967291 198.382505 
z
" clip-path="url(#p9620e7dab5)" style="fill: #ff003b; fill-opacity: 0.75; stroke: #ff003b; stroke-opacity: 0.75"/>
    <path d="M 325.230025 178.098088 
C 327.858044 178.098088 330.37878 177.053965 332.23707 175.195675 
C 334.095361 173.337385 335.139484 170.816648 335.139484 168.188629 
C 335.139484 165.56061 334.095361 163.039874 332.23707 161.181584 
C 330.37878 159.323293 327.858044 158.27917 325.230025 158.27917 
C 322.602006 158.27917 320.081269 159.323293 318.222979 161.181584 
C 316.364689 163.039874 315.320566 165.56061 315.320566 168.188629 
C 315.320566 170.816648 316.364689 173.337385 318.222979 175.195675 
C 320.081269 177.053965 322.602006 178.098088 325.230025 178.098088 
z
" clip-path="url(#p9620e7dab5)" style="fill: #ff0000; fill-opacity: 0.75; stroke: #ff0000; stroke-opacity: 0.75"/>
    <path d="M 265.897248 294.993629 
C 269.194928 294.993629 272.357987 293.683447 274.689799 291.351635 
C 277.02161 289.019823 278.331792 285.856764 278.331792 282.559085 
C 278.331792 279.261405 277.02161 276.098346 274.689799 273.766534 
C 272.357987 271.434723 269.194928 270.124541 265.897248 270.124541 
C 262.599569 270.124541 259.43651 271.434723 257.104698 273.766534 
C 254.772886 276.098346 253.462704 279.261405 253.462704 282.559085 
C 253.462704 285.856764 254.772886 289.019823 257.104698 291.351635 
C 259.43651 293.683447 262.599569 294.993629 265.897248 294.993629 
z
" clip-path="url(#p9620e7dab5)" style="fill: #b300ff; fill-opacity: 0.75; stroke: #b300ff; stroke-opacity: 0.75"/>
    <path d="M 195.254561 116.086083 
C 197.569125 116.086083 199.789202 115.166497 201.425846 113.529853 
C 203.06249 111.893209 203.982076 109.673133 203.982076 107.358569 
C 203.982076 105.044005 203.06249 102.823928 201.425846 101.187284 
C 199.789202 99.55064 197.569125 98.631054 195.254561 98.631054 
C 192.939997 98.631054 190.71992 99.55064 189.083276 101.187284 
C 187.446633 102.823928 186.527047 105.044005 186.527047 107.358569 
C 186.527047 109.673133 187.446633 111.893209 189.083276 113.529853 
C 190.71992 115.166497 192.939997 116.086083 195.254561 116.086083 
z
" clip-path="url(#p9620e7dab5)" style="fill: #08ff00; fill-opacity: 0.75; stroke: #08ff00; stroke-opacity: 0.75"/>
    <path d="M 216.465993 126.674115 
C 218.164823 126.674115 219.794302 125.999163 220.995556 124.797909 
C 222.19681 123.596654 222.871762 121.967175 222.871762 120.268345 
C 222.871762 118.569515 222.19681 116.940036 220.995556 115.738782 
C 219.794302 114.537528 218.164823 113.862576 216.465993 113.862576 
C 214.767163 113.862576 213.137684 114.537528 211.936429 115.738782 
C 210.735175 116.940036 210.060223 118.569515 210.060223 120.268345 
C 210.060223 121.967175 210.735175 123.596654 211.936429 124.797909 
C 213.137684 125.999163 214.767163 126.674115 216.465993 126.674115 
z
" clip-path="url(#p9620e7dab5)" style="fill: #37ff00; fill-opacity: 0.75; stroke: #37ff00; stroke-opacity: 0.75"/>
    <path d="M 183.76991 304.119456 
C 187.502911 304.119456 191.08352 302.636319 193.72315 299.996689 
C 196.362781 297.357059 197.845917 293.77645 197.845917 290.043449 
C 197.845917 286.310448 196.362781 282.729839 193.72315 280.090208 
C 191.08352 277.450578 187.502911 275.967441 183.76991 275.967441 
C 180.036909 275.967441 176.4563 277.450578 173.816669 280.090208 
C 171.177039 282.729839 169.693902 286.310448 169.693902 290.043449 
C 169.693902 293.77645 171.177039 297.357059 173.816669 299.996689 
C 176.4563 302.636319 180.036909 304.119456 183.76991 304.119456 
z
" clip-path="url(#p9620e7dab5)" style="fill: #0800ff; fill-opacity: 0.75; stroke: #0800ff; stroke-opacity: 0.75"/>
    <path d="M 216.387121 166.402406 
C 217.047621 166.402406 217.681157 166.139986 218.1482 165.672943 
C 218.615244 165.205899 218.877663 164.572363 218.877663 163.911864 
C 218.877663 163.251365 218.615244 162.617829 218.1482 162.150785 
C 217.681157 161.683742 217.047621 161.421322 216.387121 161.421322 
C 215.726622 161.421322 215.093086 161.683742 214.626043 162.150785 
C 214.158999 162.617829 213.89658 163.251365 213.89658 163.911864 
C 213.89658 164.572363 214.158999 165.205899 214.626043 165.672943 
C 215.093086 166.139986 215.726622 166.402406 216.387121 166.402406 
z
" clip-path="url(#p9620e7dab5)" style="fill: #00ff7a; fill-opacity: 0.75; stroke: #00ff7a; stroke-opacity: 0.75"/>
    <path d="M 329.190721 169.219929 
C 331.967781 169.219929 334.631473 168.116592 336.595151 166.152914 
C 338.558829 164.189236 339.662167 161.525544 339.662167 158.748484 
C 339.662167 155.971424 338.558829 153.307732 336.595151 151.344054 
C 334.631473 149.380376 331.967781 148.277038 329.190721 148.277038 
C 326.413661 148.277038 323.749969 149.380376 321.786291 151.344054 
C 319.822613 153.307732 318.719276 155.971424 318.719276 158.748484 
C 318.719276 161.525544 319.822613 164.189236 321.786291 166.152914 
C 323.749969 168.116592 326.413661 169.219929 329.190721 169.219929 
z
" clip-path="url(#p9620e7dab5)" style="fill: #ff1800; fill-opacity: 0.75; stroke: #ff1800; stroke-opacity: 0.75"/>
    <path d="M 133.74484 161.060973 
C 136.848682 161.060973 139.825816 159.827803 142.020563 157.633056 
C 144.215311 155.438308 145.44848 152.461174 145.44848 149.357333 
C 145.44848 146.253491 144.215311 143.276357 142.020563 141.081609 
C 139.825816 138.886862 136.848682 137.653692 133.74484 137.653692 
C 130.640998 137.653692 127.663864 138.886862 125.469117 141.081609 
C 123.274369 143.276357 122.0412 146.253491 122.0412 149.357333 
C 122.0412 152.461174 123.274369 155.438308 125.469117 157.633056 
C 127.663864 159.827803 130.640998 161.060973 133.74484 161.060973 
z
" clip-path="url(#p9620e7dab5)" style="fill: #00ffb5; fill-opacity: 0.75; stroke: #00ffb5; stroke-opacity: 0.75"/>
    <path d="M 260.385812 298.50135 
C 263.738989 298.50135 266.95528 297.169119 269.326334 294.798065 
C 271.697389 292.42701 273.02962 289.21072 273.02962 285.857543 
C 273.02962 282.504366 271.697389 279.288075 269.326334 276.917021 
C 266.95528 274.545966 263.738989 273.213735 260.385812 273.213735 
C 257.032635 273.213735 253.816345 274.545966 251.44529 276.917021 
C 249.074236 279.288075 247.742005 282.504366 247.742005 285.857543 
C 247.742005 289.21072 249.074236 292.42701 251.44529 294.798065 
C 253.816345 297.169119 257.032635 298.50135 260.385812 298.50135 
z
" clip-path="url(#p9620e7dab5)" style="fill: #a700ff; fill-opacity: 0.75; stroke: #a700ff; stroke-opacity: 0.75"/>
    <path d="M 219.899461 208.849433 
C 220.916359 208.849433 221.891744 208.445415 222.610799 207.72636 
C 223.329854 207.007305 223.733871 206.03192 223.733871 205.015023 
C 223.733871 203.998126 223.329854 203.022741 222.610799 202.303686 
C 221.891744 201.584631 220.916359 201.180613 219.899461 201.180613 
C 218.882564 201.180613 217.907179 201.584631 217.188124 202.303686 
C 216.469069 203.022741 216.065051 203.998126 216.065051 205.015023 
C 216.065051 206.03192 216.469069 207.007305 217.188124 207.72636 
C 217.907179 208.445415 218.882564 208.849433 219.899461 208.849433 
z
" clip-path="url(#p9620e7dab5)" style="fill: #020cff; fill-opacity: 0.75; stroke: #020cff; stroke-opacity: 0.75"/>
    <path d="M 218.930854 239.823653 
C 220.726377 239.823653 222.448602 239.110284 223.718228 237.840658 
C 224.987855 236.571031 225.701224 234.848806 225.701224 233.053283 
C 225.701224 231.25776 224.987855 229.535535 223.718228 228.265909 
C 222.448602 226.996282 220.726377 226.282913 218.930854 226.282913 
C 217.135331 226.282913 215.413106 226.996282 214.143479 228.265909 
C 212.873853 229.535535 212.160484 231.25776 212.160484 233.053283 
C 212.160484 234.848806 212.873853 236.571031 214.143479 237.840658 
C 215.413106 239.110284 217.135331 239.823653 218.930854 239.823653 
z
" clip-path="url(#p9620e7dab5)" style="fill: #2b00ff; fill-opacity: 0.75; stroke: #2b00ff; stroke-opacity: 0.75"/>
    <path d="M 284.966582 187.336964 
C 286.419109 187.336964 287.812339 186.759869 288.839431 185.732777 
C 289.866522 184.705686 290.443617 183.312455 290.443617 181.859929 
C 290.443617 180.407402 289.866522 179.014172 288.839431 177.98708 
C 287.812339 176.959989 286.419109 176.382894 284.966582 176.382894 
C 283.514055 176.382894 282.120825 176.959989 281.093734 177.98708 
C 280.066642 179.014172 279.489547 180.407402 279.489547 181.859929 
C 279.489547 183.312455 280.066642 184.705686 281.093734 185.732777 
C 282.120825 186.759869 283.514055 187.336964 284.966582 187.336964 
z
" clip-path="url(#p9620e7dab5)" style="fill: #ff0035; fill-opacity: 0.75; stroke: #ff0035; stroke-opacity: 0.75"/>
    <path d="M 182.527884 272.738005 
C 185.53276 272.738005 188.414968 271.544155 190.539736 269.419387 
C 192.664504 267.294619 193.858354 264.412411 193.858354 261.407535 
C 193.858354 258.40266 192.664504 255.520451 190.539736 253.395684 
C 188.414968 251.270916 185.53276 250.077066 182.527884 250.077066 
C 179.523009 250.077066 176.6408 251.270916 174.516032 253.395684 
C 172.391264 255.520451 171.197415 258.40266 171.197415 261.407535 
C 171.197415 264.412411 172.391264 267.294619 174.516032 269.419387 
C 176.6408 271.544155 179.523009 272.738005 182.527884 272.738005 
z
" clip-path="url(#p9620e7dab5)" style="fill: #0016ff; fill-opacity: 0.75; stroke: #0016ff; stroke-opacity: 0.75"/>
    <path d="M 239.811703 146.933899 
C 240.732269 146.933899 241.615255 146.568154 242.266193 145.917216 
C 242.917132 145.266277 243.282877 144.383291 243.282877 143.462725 
C 243.282877 142.542159 242.917132 141.659173 242.266193 141.008235 
C 241.615255 140.357296 240.732269 139.991551 239.811703 139.991551 
C 238.891137 139.991551 238.008151 140.357296 237.357213 141.008235 
C 236.706274 141.659173 236.340529 142.542159 236.340529 143.462725 
C 236.340529 144.383291 236.706274 145.266277 237.357213 145.917216 
C 238.008151 146.568154 238.891137 146.933899 239.811703 146.933899 
z
" clip-path="url(#p9620e7dab5)" style="fill: #adff00; fill-opacity: 0.75; stroke: #adff00; stroke-opacity: 0.75"/>
    <path d="M 256.838678 221.103977 
C 258.201611 221.103977 259.508905 220.562478 260.472643 219.598739 
C 261.436382 218.635 261.977881 217.327707 261.977881 215.964774 
C 261.977881 214.601842 261.436382 213.294548 260.472643 212.330809 
C 259.508905 211.36707 258.201611 210.825572 256.838678 210.825572 
C 255.475746 210.825572 254.168452 211.36707 253.204713 212.330809 
C 252.240975 213.294548 251.699476 214.601842 251.699476 215.964774 
C 251.699476 217.327707 252.240975 218.635 253.204713 219.598739 
C 254.168452 220.562478 255.475746 221.103977 256.838678 221.103977 
z
" clip-path="url(#p9620e7dab5)" style="fill: #e200ff; fill-opacity: 0.75; stroke: #e200ff; stroke-opacity: 0.75"/>
    <path d="M 230.341372 175.000095 
C 230.512695 175.000095 230.677023 174.932028 230.798167 174.810885 
C 230.91931 174.689742 230.987377 174.525413 230.987377 174.354091 
C 230.987377 174.182768 230.91931 174.01844 230.798167 173.897297 
C 230.677023 173.776153 230.512695 173.708086 230.341372 173.708086 
C 230.17005 173.708086 230.005721 173.776153 229.884578 173.897297 
C 229.763435 174.01844 229.695368 174.182768 229.695368 174.354091 
C 229.695368 174.525413 229.763435 174.689742 229.884578 174.810885 
C 230.005721 174.932028 230.17005 175.000095 230.341372 175.000095 
z
" clip-path="url(#p9620e7dab5)" style="fill: #00ffea; fill-opacity: 0.75; stroke: #00ffea; stroke-opacity: 0.75"/>
    <path d="M 255.347179 169.497271 
C 255.951456 169.497271 256.531065 169.257189 256.958354 168.8299 
C 257.385642 168.402611 257.625724 167.823002 257.625724 167.218725 
C 257.625724 166.614448 257.385642 166.034839 256.958354 165.60755 
C 256.531065 165.180261 255.951456 164.940179 255.347179 164.940179 
C 254.742901 164.940179 254.163292 165.180261 253.736004 165.60755 
C 253.308715 166.034839 253.068633 166.614448 253.068633 167.218725 
C 253.068633 167.823002 253.308715 168.402611 253.736004 168.8299 
C 254.163292 169.257189 254.742901 169.497271 255.347179 169.497271 
z
" clip-path="url(#p9620e7dab5)" style="fill: #ff4700; fill-opacity: 0.75; stroke: #ff4700; stroke-opacity: 0.75"/>
    <path d="M 191.81602 186.002761 
C 193.135043 186.002761 194.400219 185.478707 195.332909 184.546018 
C 196.265599 183.613328 196.789652 182.348151 196.789652 181.029129 
C 196.789652 179.710106 196.265599 178.44493 195.332909 177.51224 
C 194.400219 176.57955 193.135043 176.055497 191.81602 176.055497 
C 190.496997 176.055497 189.231821 176.57955 188.299131 177.51224 
C 187.366441 178.44493 186.842388 179.710106 186.842388 181.029129 
C 186.842388 182.348151 187.366441 183.613328 188.299131 184.546018 
C 189.231821 185.478707 190.496997 186.002761 191.81602 186.002761 
z
" clip-path="url(#p9620e7dab5)" style="fill: #00eaff; fill-opacity: 0.75; stroke: #00eaff; stroke-opacity: 0.75"/>
    <path d="M 265.946832 182.562718 
C 266.83427 182.562718 267.685481 182.210135 268.312995 181.582621 
C 268.940509 180.955107 269.293092 180.103896 269.293092 179.216458 
C 269.293092 178.329019 268.940509 177.477808 268.312995 176.850294 
C 267.685481 176.222781 266.83427 175.870198 265.946832 175.870198 
C 265.059393 175.870198 264.208182 176.222781 263.580669 176.850294 
C 262.953155 177.477808 262.600572 178.329019 262.600572 179.216458 
C 262.600572 180.103896 262.953155 180.955107 263.580669 181.582621 
C 264.208182 182.210135 265.059393 182.562718 265.946832 182.562718 
z
" clip-path="url(#p9620e7dab5)" style="fill: #ff0035; fill-opacity: 0.75; stroke: #ff0035; stroke-opacity: 0.75"/>
    <path d="M 233.852485 148.71203 
C 234.710136 148.71203 235.532774 148.371282 236.139225 147.764832 
C 236.745675 147.158381 237.086424 146.335742 237.086424 145.478092 
C 237.086424 144.620441 236.745675 143.797803 236.139225 143.191352 
C 235.532774 142.584902 234.710136 142.244154 233.852485 142.244154 
C 232.994835 142.244154 232.172196 142.584902 231.565745 143.191352 
C 230.959295 143.797803 230.618547 144.620441 230.618547 145.478092 
C 230.618547 146.335742 230.959295 147.158381 231.565745 147.764832 
C 232.172196 148.371282 232.994835 148.71203 233.852485 148.71203 
z
" clip-path="url(#p9620e7dab5)" style="fill: #7eff00; fill-opacity: 0.75; stroke: #7eff00; stroke-opacity: 0.75"/>
    <path d="M 228.191377 174.100585 
C 228.429113 174.100585 228.657144 174.006132 228.825249 173.838027 
C 228.993353 173.669922 229.087807 173.441891 229.087807 173.204155 
C 229.087807 172.966419 228.993353 172.738388 228.825249 172.570283 
C 228.657144 172.402178 228.429113 172.307725 228.191377 172.307725 
C 227.953641 172.307725 227.72561 172.402178 227.557505 172.570283 
C 227.3894 172.738388 227.294946 172.966419 227.294946 173.204155 
C 227.294946 173.441891 227.3894 173.669922 227.557505 173.838027 
C 227.72561 174.006132 227.953641 174.100585 228.191377 174.100585 
z
" clip-path="url(#p9620e7dab5)" style="fill: #00ffc7; fill-opacity: 0.75; stroke: #00ffc7; stroke-opacity: 0.75"/>
    <path d="M 247.836436 230.569687 
C 249.356452 230.569687 250.814417 229.965778 251.88923 228.890965 
C 252.964044 227.816151 253.567952 226.358187 253.567952 224.838171 
C 253.567952 223.318155 252.964044 221.860191 251.88923 220.785377 
C 250.814417 219.710564 249.356452 219.106655 247.836436 219.106655 
C 246.31642 219.106655 244.858456 219.710564 243.783642 220.785377 
C 242.708829 221.860191 242.10492 223.318155 242.10492 224.838171 
C 242.10492 226.358187 242.708829 227.816151 243.783642 228.890965 
C 244.858456 229.965778 246.31642 230.569687 247.836436 230.569687 
z
" clip-path="url(#p9620e7dab5)" style="fill: #a700ff; fill-opacity: 0.75; stroke: #a700ff; stroke-opacity: 0.75"/>
    <path d="M 287.187025 138.668904 
C 289.156311 138.668904 291.045205 137.886498 292.437701 136.494002 
C 293.830197 135.101507 294.612603 133.212612 294.612603 131.243326 
C 294.612603 129.27404 293.830197 127.385145 292.437701 125.992649 
C 291.045205 124.600154 289.156311 123.817748 287.187025 123.817748 
C 285.217738 123.817748 283.328844 124.600154 281.936348 125.992649 
C 280.543853 127.385145 279.761447 129.27404 279.761447 131.243326 
C 279.761447 133.212612 280.543853 135.101507 281.936348 136.494002 
C 283.328844 137.886498 285.217738 138.668904 287.187025 138.668904 
z
" clip-path="url(#p9620e7dab5)" style="fill: #ff9a00; fill-opacity: 0.75; stroke: #ff9a00; stroke-opacity: 0.75"/>
    <path d="M 232.652605 314.54686 
C 236.363116 314.54686 239.922154 313.072658 242.545881 310.448931 
C 245.169609 307.825203 246.643811 304.266165 246.643811 300.555654 
C 246.643811 296.845143 245.169609 293.286105 242.545881 290.662378 
C 239.922154 288.03865 236.363116 286.564448 232.652605 286.564448 
C 228.942094 286.564448 225.383056 288.03865 222.759328 290.662378 
C 220.135601 293.286105 218.661399 296.845143 218.661399 300.555654 
C 218.661399 304.266165 220.135601 307.825203 222.759328 310.448931 
C 225.383056 313.072658 228.942094 314.54686 232.652605 314.54686 
z
" clip-path="url(#p9620e7dab5)" style="fill: #6c00ff; fill-opacity: 0.75; stroke: #6c00ff; stroke-opacity: 0.75"/>
    <path d="M 342.392704 244.009388 
C 345.929023 244.009388 349.320979 242.604393 351.821534 240.103838 
C 354.322089 237.603283 355.727083 234.211327 355.727083 230.675009 
C 355.727083 227.13869 354.322089 223.746734 351.821534 221.246179 
C 349.320979 218.745624 345.929023 217.34063 342.392704 217.34063 
C 338.856385 217.34063 335.464429 218.745624 332.963874 221.246179 
C 330.463319 223.746734 329.058325 227.13869 329.058325 230.675009 
C 329.058325 234.211327 330.463319 237.603283 332.963874 240.103838 
C 335.464429 242.604393 338.856385 244.009388 342.392704 244.009388 
z
" clip-path="url(#p9620e7dab5)" style="fill: #ff0088; fill-opacity: 0.75; stroke: #ff0088; stroke-opacity: 0.75"/>
    <path d="M 236.363924 127.091335 
C 237.934297 127.091335 239.440564 126.467419 240.550986 125.356997 
C 241.661408 124.246575 242.285324 122.740309 242.285324 121.169935 
C 242.285324 119.599561 241.661408 118.093294 240.550986 116.982873 
C 239.440564 115.872451 237.934297 115.248535 236.363924 115.248535 
C 234.79355 115.248535 233.287283 115.872451 232.176861 116.982873 
C 231.066439 118.093294 230.442523 119.599561 230.442523 121.169935 
C 230.442523 122.740309 231.066439 124.246575 232.176861 125.356997 
C 233.287283 126.467419 234.79355 127.091335 236.363924 127.091335 
z
" clip-path="url(#p9620e7dab5)" style="fill: #90ff00; fill-opacity: 0.75; stroke: #90ff00; stroke-opacity: 0.75"/>
    <path d="M 271.150989 189.384433 
C 272.22867 189.384433 273.262358 188.956265 274.024394 188.194229 
C 274.786431 187.432193 275.214598 186.398505 275.214598 185.320823 
C 275.214598 184.243142 274.786431 183.209454 274.024394 182.447418 
C 273.262358 181.685381 272.22867 181.257214 271.150989 181.257214 
C 270.073307 181.257214 269.039619 181.685381 268.277583 182.447418 
C 267.515547 183.209454 267.087379 184.243142 267.087379 185.320823 
C 267.087379 186.398505 267.515547 187.432193 268.277583 188.194229 
C 269.039619 188.956265 270.073307 189.384433 271.150989 189.384433 
z
" clip-path="url(#p9620e7dab5)" style="fill: #ff0059; fill-opacity: 0.75; stroke: #ff0059; stroke-opacity: 0.75"/>
    <path d="M 285.605585 184.541179 
C 287.066823 184.541179 288.468409 183.960623 289.501661 182.927371 
C 290.534912 181.89412 291.115468 180.492533 291.115468 179.031295 
C 291.115468 177.570057 290.534912 176.16847 289.501661 175.135219 
C 288.468409 174.101967 287.066823 173.521411 285.605585 173.521411 
C 284.144346 173.521411 282.74276 174.101967 281.709508 175.135219 
C 280.676257 176.16847 280.095701 177.570057 280.095701 179.031295 
C 280.095701 180.492533 280.676257 181.89412 281.709508 182.927371 
C 282.74276 183.960623 284.144346 184.541179 285.605585 184.541179 
z
" clip-path="url(#p9620e7dab5)" style="fill: #ff0024; fill-opacity: 0.75; stroke: #ff0024; stroke-opacity: 0.75"/>
    <path d="M 308.921596 215.546191 
C 311.263203 215.546191 313.50922 214.615861 315.164986 212.960094 
C 316.820752 211.304328 317.751083 209.058311 317.751083 206.716704 
C 317.751083 204.375097 316.820752 202.129081 315.164986 200.473314 
C 313.50922 198.817548 311.263203 197.887217 308.921596 197.887217 
C 306.579989 197.887217 304.333972 198.817548 302.678206 200.473314 
C 301.02244 202.129081 300.092109 204.375097 300.092109 206.716704 
C 300.092109 209.058311 301.02244 211.304328 302.678206 212.960094 
C 304.333972 214.615861 306.579989 215.546191 308.921596 215.546191 
z
" clip-path="url(#p9620e7dab5)" style="fill: #ff0076; fill-opacity: 0.75; stroke: #ff0076; stroke-opacity: 0.75"/>
    <path d="M 289.007392 218.108498 
C 290.896892 218.108498 292.709257 217.357791 294.045335 216.021713 
C 295.381414 214.685635 296.13212 212.873269 296.13212 210.983769 
C 296.13212 209.094269 295.381414 207.281904 294.045335 205.945826 
C 292.709257 204.609747 290.896892 203.859041 289.007392 203.859041 
C 287.117892 203.859041 285.305526 204.609747 283.969448 205.945826 
C 282.63337 207.281904 281.882663 209.094269 281.882663 210.983769 
C 281.882663 212.873269 282.63337 214.685635 283.969448 216.021713 
C 285.305526 217.357791 287.117892 218.108498 289.007392 218.108498 
z
" clip-path="url(#p9620e7dab5)" style="fill: #ff00a0; fill-opacity: 0.75; stroke: #ff00a0; stroke-opacity: 0.75"/>
    <path d="M 190.920789 165.129547 
C 192.32052 165.129547 193.663109 164.573428 194.652868 163.583669 
C 195.642627 162.59391 196.198746 161.251321 196.198746 159.85159 
C 196.198746 158.451859 195.642627 157.10927 194.652868 156.119511 
C 193.663109 155.129752 192.32052 154.573633 190.920789 154.573633 
C 189.521058 154.573633 188.178469 155.129752 187.18871 156.119511 
C 186.198951 157.10927 185.642832 158.451859 185.642832 159.85159 
C 185.642832 161.251321 186.198951 162.59391 187.18871 163.583669 
C 188.178469 164.573428 189.521058 165.129547 190.920789 165.129547 
z
" clip-path="url(#p9620e7dab5)" style="fill: #00ffa3; fill-opacity: 0.75; stroke: #00ffa3; stroke-opacity: 0.75"/>
    <path d="M 326.982897 102.696109 
C 330.657764 102.696109 334.182613 101.236069 336.781137 98.637545 
C 339.37966 96.039022 340.8397 92.514173 340.8397 88.839306 
C 340.8397 85.164439 339.37966 81.63959 336.781137 79.041066 
C 334.182613 76.442543 330.657764 74.982503 326.982897 74.982503 
C 323.30803 74.982503 319.783181 76.442543 317.184658 79.041066 
C 314.586134 81.63959 313.126094 85.164439 313.126094 88.839306 
C 313.126094 92.514173 314.586134 96.039022 317.184658 98.637545 
C 319.783181 101.236069 323.30803 102.696109 326.982897 102.696109 
z
" clip-path="url(#p9620e7dab5)" style="fill: #ffab00; fill-opacity: 0.75; stroke: #ffab00; stroke-opacity: 0.75"/>
    <path d="M 324.71278 115.676114 
C 328.062078 115.676114 331.274647 114.345424 333.642958 111.977113 
C 336.011269 109.608802 337.341959 106.396232 337.341959 103.046934 
C 337.341959 99.697637 336.011269 96.485067 333.642958 94.116756 
C 331.274647 91.748445 328.062078 90.417755 324.71278 90.417755 
C 321.363482 90.417755 318.150913 91.748445 315.782602 94.116756 
C 313.414291 96.485067 312.083601 99.697637 312.083601 103.046934 
C 312.083601 106.396232 313.414291 109.608802 315.782602 111.977113 
C 318.150913 114.345424 321.363482 115.676114 324.71278 115.676114 
z
" clip-path="url(#p9620e7dab5)" style="fill: #ff9400; fill-opacity: 0.75; stroke: #ff9400; stroke-opacity: 0.75"/>
    <path d="M 276.118445 214.393099 
C 277.663313 214.393099 279.145115 213.779317 280.237502 212.68693 
C 281.329888 211.594544 281.943671 210.112742 281.943671 208.567874 
C 281.943671 207.023006 281.329888 205.541204 280.237502 204.448817 
C 279.145115 203.356431 277.663313 202.742648 276.118445 202.742648 
C 274.573577 202.742648 273.091775 203.356431 271.999389 204.448817 
C 270.907002 205.541204 270.29322 207.023006 270.29322 208.567874 
C 270.29322 210.112742 270.907002 211.594544 271.999389 212.68693 
C 273.091775 213.779317 274.573577 214.393099 276.118445 214.393099 
z
" clip-path="url(#p9620e7dab5)" style="fill: #ff00bd; fill-opacity: 0.75; stroke: #ff00bd; stroke-opacity: 0.75"/>
    <path d="M 155.063941 279.06125 
C 158.651421 279.06125 162.092451 277.635929 164.629182 275.099198 
C 167.165914 272.562466 168.591235 269.121437 168.591235 265.533957 
C 168.591235 261.946476 167.165914 258.505447 164.629182 255.968716 
C 162.092451 253.431984 158.651421 252.006663 155.063941 252.006663 
C 151.476461 252.006663 148.035432 253.431984 145.4987 255.968716 
C 142.961968 258.505447 141.536647 261.946476 141.536647 265.533957 
C 141.536647 269.121437 142.961968 272.562466 145.4987 275.099198 
C 148.035432 277.635929 151.476461 279.06125 155.063941 279.06125 
z
" clip-path="url(#p9620e7dab5)" style="fill: #003fff; fill-opacity: 0.75; stroke: #003fff; stroke-opacity: 0.75"/>
    <path d="M 238.431044 118.790311 
C 240.277566 118.790311 242.048708 118.056681 243.354396 116.750992 
C 244.660084 115.445304 245.393715 113.674162 245.393715 111.82764 
C 245.393715 109.981118 244.660084 108.209976 243.354396 106.904288 
C 242.048708 105.5986 240.277566 104.864969 238.431044 104.864969 
C 236.584522 104.864969 234.81338 105.5986 233.507692 106.904288 
C 232.202004 108.209976 231.468373 109.981118 231.468373 111.82764 
C 231.468373 113.674162 232.202004 115.445304 233.507692 116.750992 
C 234.81338 118.056681 236.584522 118.790311 238.431044 118.790311 
z
" clip-path="url(#p9620e7dab5)" style="fill: #96ff00; fill-opacity: 0.75; stroke: #96ff00; stroke-opacity: 0.75"/>
    <path d="M 270.461745 143.578842 
C 271.936062 143.578842 273.350193 142.99309 274.392692 141.950591 
C 275.435191 140.908091 276.020944 139.49396 276.020944 138.019644 
C 276.020944 136.545327 275.435191 135.131196 274.392692 134.088697 
C 273.350193 133.046198 271.936062 132.460446 270.461745 132.460446 
C 268.987429 132.460446 267.573298 133.046198 266.530799 134.088697 
C 265.488299 135.131196 264.902547 136.545327 264.902547 138.019644 
C 264.902547 139.49396 265.488299 140.908091 266.530799 141.950591 
C 267.573298 142.99309 268.987429 143.578842 270.461745 143.578842 
z
" clip-path="url(#p9620e7dab5)" style="fill: #ffb700; fill-opacity: 0.75; stroke: #ffb700; stroke-opacity: 0.75"/>
    <path d="M 278.510183 172.297785 
C 279.773457 172.297785 280.98516 171.795881 281.87843 170.902611 
C 282.771699 170.009342 283.273603 168.797639 283.273603 167.534365 
C 283.273603 166.271091 282.771699 165.059387 281.87843 164.166118 
C 280.98516 163.272848 279.773457 162.770944 278.510183 162.770944 
C 277.246909 162.770944 276.035206 163.272848 275.141936 164.166118 
C 274.248667 165.059387 273.746763 166.271091 273.746763 167.534365 
C 273.746763 168.797639 274.248667 170.009342 275.141936 170.902611 
C 276.035206 171.795881 277.246909 172.297785 278.510183 172.297785 
z
" clip-path="url(#p9620e7dab5)" style="fill: #ff1800; fill-opacity: 0.75; stroke: #ff1800; stroke-opacity: 0.75"/>
    <path d="M 163.444909 245.489027 
C 166.228188 245.489027 168.897847 244.383219 170.865923 242.415143 
C 172.833999 240.447067 173.939807 237.777408 173.939807 234.994129 
C 173.939807 232.210849 172.833999 229.54119 170.865923 227.573114 
C 168.897847 225.605038 166.228188 224.49923 163.444909 224.49923 
C 160.661629 224.49923 157.99197 225.605038 156.023894 227.573114 
C 154.055818 229.54119 152.95001 232.210849 152.95001 234.994129 
C 152.95001 237.777408 154.055818 240.447067 156.023894 242.415143 
C 157.99197 244.383219 160.661629 245.489027 163.444909 245.489027 
z
" clip-path="url(#p9620e7dab5)" style="fill: #0063ff; fill-opacity: 0.75; stroke: #0063ff; stroke-opacity: 0.75"/>
    <path d="M 310.855272 147.115303 
C 313.303911 147.115303 315.65259 146.142448 317.38404 144.410998 
C 319.11549 142.679549 320.088344 140.330869 320.088344 137.88223 
C 320.088344 135.43359 319.11549 133.084911 317.38404 131.353462 
C 315.65259 129.622012 313.303911 128.649157 310.855272 128.649157 
C 308.406632 128.649157 306.057953 129.622012 304.326503 131.353462 
C 302.595054 133.084911 301.622199 135.43359 301.622199 137.88223 
C 301.622199 140.330869 302.595054 142.679549 304.326503 144.410998 
C 306.057953 146.142448 308.406632 147.115303 310.855272 147.115303 
z
" clip-path="url(#p9620e7dab5)" style="fill: #ff5f00; fill-opacity: 0.75; stroke: #ff5f00; stroke-opacity: 0.75"/>
    <path d="M 150.344139 140.055027 
C 153.199198 140.055027 155.937705 138.9207 157.956537 136.901869 
C 159.975368 134.883037 161.109695 132.14453 161.109695 129.289472 
C 161.109695 126.434413 159.975368 123.695906 157.956537 121.677074 
C 155.937705 119.658243 153.199198 118.523916 150.344139 118.523916 
C 147.489081 118.523916 144.750574 119.658243 142.731742 121.677074 
C 140.712911 123.695906 139.578584 126.434413 139.578584 129.289472 
C 139.578584 132.14453 140.712911 134.883037 142.731742 136.901869 
C 144.750574 138.9207 147.489081 140.055027 150.344139 140.055027 
z
" clip-path="url(#p9620e7dab5)" style="fill: #00ff7a; fill-opacity: 0.75; stroke: #00ff7a; stroke-opacity: 0.75"/>
    <path d="M 179.902289 83.943805 
C 183.373763 83.943805 186.703522 82.564573 189.158225 80.109871 
C 191.612928 77.655168 192.992159 74.325409 192.992159 70.853935 
C 192.992159 67.38246 191.612928 64.052702 189.158225 61.597999 
C 186.703522 59.143296 183.373763 57.764064 179.902289 57.764064 
C 176.430815 57.764064 173.101056 59.143296 170.646353 61.597999 
C 168.19165 64.052702 166.812419 67.38246 166.812419 70.853935 
C 166.812419 74.325409 168.19165 77.655168 170.646353 80.109871 
C 173.101056 82.564573 176.430815 83.943805 179.902289 83.943805 
z
" clip-path="url(#p9620e7dab5)" style="fill: #14ff00; fill-opacity: 0.75; stroke: #14ff00; stroke-opacity: 0.75"/>
    <path d="M 243.89399 164.542106 
C 244.302504 164.542106 244.69434 164.379802 244.983203 164.090939 
C 245.272066 163.802076 245.43437 163.410239 245.43437 163.001726 
C 245.43437 162.593213 245.272066 162.201376 244.983203 161.912513 
C 244.69434 161.623651 244.302504 161.461346 243.89399 161.461346 
C 243.485477 161.461346 243.09364 161.623651 242.804777 161.912513 
C 242.515915 162.201376 242.35361 162.593213 242.35361 163.001726 
C 242.35361 163.410239 242.515915 163.802076 242.804777 164.090939 
C 243.09364 164.379802 243.485477 164.542106 243.89399 164.542106 
z
" clip-path="url(#p9620e7dab5)" style="fill: #ffe000; fill-opacity: 0.75; stroke: #ffe000; stroke-opacity: 0.75"/>
    <path d="M 239.061371 217.009982 
C 240.189668 217.009982 241.271904 216.561705 242.06973 215.763879 
C 242.867556 214.966053 243.315833 213.883817 243.315833 212.75552 
C 243.315833 211.627224 242.867556 210.544988 242.06973 209.747162 
C 241.271904 208.949336 240.189668 208.501059 239.061371 208.501059 
C 237.933075 208.501059 236.850839 208.949336 236.053013 209.747162 
C 235.255187 210.544988 234.80691 211.627224 234.80691 212.75552 
C 234.80691 213.883817 235.255187 214.966053 236.053013 215.763879 
C 236.850839 216.561705 237.933075 217.009982 239.061371 217.009982 
z
" clip-path="url(#p9620e7dab5)" style="fill: #8400ff; fill-opacity: 0.75; stroke: #8400ff; stroke-opacity: 0.75"/>
    <path d="M 188.475298 97.41656 
C 191.427259 97.41656 194.258713 96.243734 196.346065 94.156382 
C 198.433416 92.069031 199.606243 89.237577 199.606243 86.285616 
C 199.606243 83.333655 198.433416 80.502201 196.346065 78.41485 
C 194.258713 76.327498 191.427259 75.154672 188.475298 75.154672 
C 185.523337 75.154672 182.691884 76.327498 180.604532 78.41485 
C 178.51718 80.502201 177.344354 83.333655 177.344354 86.285616 
C 177.344354 89.237577 178.51718 92.069031 180.604532 94.156382 
C 182.691884 96.243734 185.523337 97.41656 188.475298 97.41656 
z
" clip-path="url(#p9620e7dab5)" style="fill: #14ff00; fill-opacity: 0.75; stroke: #14ff00; stroke-opacity: 0.75"/>
    <path d="M 242.488714 176.068373 
C 242.676575 176.068373 242.856767 175.993735 242.989605 175.860898 
C 243.122442 175.72806 243.19708 175.547868 243.19708 175.360008 
C 243.19708 175.172147 243.122442 174.991955 242.989605 174.859117 
C 242.856767 174.72628 242.676575 174.651642 242.488714 174.651642 
C 242.300854 174.651642 242.120662 174.72628 241.987824 174.859117 
C 241.854987 174.991955 241.780349 175.172147 241.780349 175.360008 
C 241.780349 175.547868 241.854987 175.72806 241.987824 175.860898 
C 242.120662 175.993735 242.300854 176.068373 242.488714 176.068373 
z
" clip-path="url(#p9620e7dab5)" style="fill: #ff0030; fill-opacity: 0.75; stroke: #ff0030; stroke-opacity: 0.75"/>
    <path d="M 226.744347 224.100679 
C 228.083656 224.100679 229.36829 223.568566 230.315324 222.621532 
C 231.262358 221.674498 231.794471 220.389864 231.794471 219.050555 
C 231.794471 217.711247 231.262358 216.426613 230.315324 215.479578 
C 229.36829 214.532544 228.083656 214.000431 226.744347 214.000431 
C 225.405039 214.000431 224.120405 214.532544 223.17337 215.479578 
C 222.226336 216.426613 221.694223 217.711247 221.694223 219.050555 
C 221.694223 220.389864 222.226336 221.674498 223.17337 222.621532 
C 224.120405 223.568566 225.405039 224.100679 226.744347 224.100679 
z
" clip-path="url(#p9620e7dab5)" style="fill: #3d00ff; fill-opacity: 0.75; stroke: #3d00ff; stroke-opacity: 0.75"/>
    <path d="M 252.138346 166.699721 
C 252.691781 166.699721 253.222623 166.479839 253.61396 166.088502 
C 254.005298 165.697164 254.22518 165.166322 254.22518 164.612888 
C 254.22518 164.059453 254.005298 163.528611 253.61396 163.137274 
C 253.222623 162.745936 252.691781 162.526054 252.138346 162.526054 
C 251.584912 162.526054 251.05407 162.745936 250.662733 163.137274 
C 250.271395 163.528611 250.051513 164.059453 250.051513 164.612888 
C 250.051513 165.166322 250.271395 165.697164 250.662733 166.088502 
C 251.05407 166.479839 251.584912 166.699721 252.138346 166.699721 
z
" clip-path="url(#p9620e7dab5)" style="fill: #ff7600; fill-opacity: 0.75; stroke: #ff7600; stroke-opacity: 0.75"/>
    <path d="M 283.465134 180.842034 
C 284.857706 180.842034 286.193429 180.288759 287.178126 179.304062 
C 288.162823 178.319365 288.716098 176.983642 288.716098 175.59107 
C 288.716098 174.198498 288.162823 172.862774 287.178126 171.878077 
C 286.193429 170.89338 284.857706 170.340105 283.465134 170.340105 
C 282.072562 170.340105 280.736838 170.89338 279.752141 171.878077 
C 278.767444 172.862774 278.214169 174.198498 278.214169 175.59107 
C 278.214169 176.983642 278.767444 178.319365 279.752141 179.304062 
C 280.736838 180.288759 282.072562 180.842034 283.465134 180.842034 
z
" clip-path="url(#p9620e7dab5)" style="fill: #ff0018; fill-opacity: 0.75; stroke: #ff0018; stroke-opacity: 0.75"/>
    <path d="M 179.480065 97.818472 
C 182.569575 97.818472 185.532962 96.590997 187.717576 94.406384 
C 189.902189 92.22177 191.129664 89.258383 191.129664 86.168873 
C 191.129664 83.079363 189.902189 80.115976 187.717576 77.931362 
C 185.532962 75.746749 182.569575 74.519274 179.480065 74.519274 
C 176.390555 74.519274 173.427168 75.746749 171.242554 77.931362 
C 169.057941 80.115976 167.830465 83.079363 167.830465 86.168873 
C 167.830465 89.258383 169.057941 92.22177 171.242554 94.406384 
C 173.427168 96.590997 176.390555 97.818472 179.480065 97.818472 
z
" clip-path="url(#p9620e7dab5)" style="fill: #06ff04; fill-opacity: 0.75; stroke: #06ff04; stroke-opacity: 0.75"/>
    <path d="M 235.793437 187.37637 
C 236.133955 187.37637 236.460572 187.241081 236.701355 187.000298 
C 236.942138 186.759516 237.077427 186.432898 237.077427 186.09238 
C 237.077427 185.751862 236.942138 185.425245 236.701355 185.184462 
C 236.460572 184.94368 236.133955 184.80839 235.793437 184.80839 
C 235.452919 184.80839 235.126302 184.94368 234.885519 185.184462 
C 234.644736 185.425245 234.509447 185.751862 234.509447 186.09238 
C 234.509447 186.432898 234.644736 186.759516 234.885519 187.000298 
C 235.126302 187.241081 235.452919 187.37637 235.793437 187.37637 
z
" clip-path="url(#p9620e7dab5)" style="fill: #6600ff; fill-opacity: 0.75; stroke: #6600ff; stroke-opacity: 0.75"/>
    <path d="M 245.632521 140.695746 
C 246.790816 140.695746 247.901826 140.23555 248.720865 139.416512 
C 249.539903 138.597473 250.000099 137.486463 250.000099 136.328167 
C 250.000099 135.169872 249.539903 134.058862 248.720865 133.239823 
C 247.901826 132.420785 246.790816 131.960589 245.632521 131.960589 
C 244.474225 131.960589 243.363215 132.420785 242.544176 133.239823 
C 241.725138 134.058862 241.264942 135.169872 241.264942 136.328167 
C 241.264942 137.486463 241.725138 138.597473 242.544176 139.416512 
C 243.363215 140.23555 244.474225 140.695746 245.632521 140.695746 
z
" clip-path="url(#p9620e7dab5)" style="fill: #cbff00; fill-opacity: 0.75; stroke: #cbff00; stroke-opacity: 0.75"/>
    <path d="M 288.456296 166.307376 
C 290.051412 166.307376 291.58141 165.67363 292.709328 164.545713 
C 293.837245 163.417796 294.470991 161.887797 294.470991 160.292681 
C 294.470991 158.697566 293.837245 157.167567 292.709328 156.03965 
C 291.58141 154.911733 290.051412 154.277987 288.456296 154.277987 
C 286.861181 154.277987 285.331182 154.911733 284.203265 156.03965 
C 283.075348 157.167567 282.441602 158.697566 282.441602 160.292681 
C 282.441602 161.887797 283.075348 163.417796 284.203265 164.545713 
C 285.331182 165.67363 286.861181 166.307376 288.456296 166.307376 
z
" clip-path="url(#p9620e7dab5)" style="fill: #ff2f00; fill-opacity: 0.75; stroke: #ff2f00; stroke-opacity: 0.75"/>
    <path d="M 288.427337 188.057552 
C 289.98206 188.057552 291.473316 187.439854 292.572671 186.340498 
C 293.672027 185.241142 294.289725 183.749887 294.289725 182.195163 
C 294.289725 180.64044 293.672027 179.149184 292.572671 178.049828 
C 291.473316 176.950473 289.98206 176.332774 288.427337 176.332774 
C 286.872613 176.332774 285.381357 176.950473 284.282002 178.049828 
C 283.182646 179.149184 282.564948 180.64044 282.564948 182.195163 
C 282.564948 183.749887 283.182646 185.241142 284.282002 186.340498 
C 285.381357 187.439854 286.872613 188.057552 288.427337 188.057552 
z
" clip-path="url(#p9620e7dab5)" style="fill: #ff0035; fill-opacity: 0.75; stroke: #ff0035; stroke-opacity: 0.75"/>
    <path d="M 321.196095 101.304668 
C 324.770199 101.304668 328.198398 99.884662 330.725672 97.357388 
C 333.252945 94.830115 334.672952 91.401915 334.672952 87.827811 
C 334.672952 84.253707 333.252945 80.825508 330.725672 78.298234 
C 328.198398 75.770961 324.770199 74.350954 321.196095 74.350954 
C 317.62199 74.350954 314.193791 75.770961 311.666518 78.298234 
C 309.139244 80.825508 307.719237 84.253707 307.719237 87.827811 
C 307.719237 91.401915 309.139244 94.830115 311.666518 97.357388 
C 314.193791 99.884662 317.62199 101.304668 321.196095 101.304668 
z
" clip-path="url(#p9620e7dab5)" style="fill: #ffb100; fill-opacity: 0.75; stroke: #ffb100; stroke-opacity: 0.75"/>
    <path d="M 248.726586 167.969824 
C 249.168602 167.969824 249.592574 167.794209 249.905127 167.481656 
C 250.21768 167.169103 250.393295 166.745131 250.393295 166.303115 
C 250.393295 165.861099 250.21768 165.437127 249.905127 165.124574 
C 249.592574 164.812021 249.168602 164.636406 248.726586 164.636406 
C 248.284569 164.636406 247.860597 164.812021 247.548045 165.124574 
C 247.235492 165.437127 247.059877 165.861099 247.059877 166.303115 
C 247.059877 166.745131 247.235492 167.169103 247.548045 167.481656 
C 247.860597 167.794209 248.284569 167.969824 248.726586 167.969824 
z
" clip-path="url(#p9620e7dab5)" style="fill: #ff7c00; fill-opacity: 0.75; stroke: #ff7c00; stroke-opacity: 0.75"/>
    <path d="M 324.990815 119.540043 
C 328.2718 119.540043 331.418847 118.236493 333.738854 115.916486 
C 336.058861 113.596479 337.36241 110.449433 337.36241 107.168448 
C 337.36241 103.887462 336.058861 100.740416 333.738854 98.420409 
C 331.418847 96.100402 328.2718 94.796853 324.990815 94.796853 
C 321.70983 94.796853 318.562783 96.100402 316.242776 98.420409 
C 313.922769 100.740416 312.61922 103.887462 312.61922 107.168448 
C 312.61922 110.449433 313.922769 113.596479 316.242776 115.916486 
C 318.562783 118.236493 321.70983 119.540043 324.990815 119.540043 
z
" clip-path="url(#p9620e7dab5)" style="fill: #ff8e00; fill-opacity: 0.75; stroke: #ff8e00; stroke-opacity: 0.75"/>
    <path d="M 290.506548 188.649177 
C 292.123345 188.649177 293.674139 188.006817 294.817387 186.863569 
C 295.960634 185.720321 296.602994 184.169527 296.602994 182.552731 
C 296.602994 180.935934 295.960634 179.38514 294.817387 178.241892 
C 293.674139 177.098645 292.123345 176.456285 290.506548 176.456285 
C 288.889752 176.456285 287.338958 177.098645 286.19571 178.241892 
C 285.052462 179.38514 284.410102 180.935934 284.410102 182.552731 
C 284.410102 184.169527 285.052462 185.720321 286.19571 186.863569 
C 287.338958 188.006817 288.889752 188.649177 290.506548 188.649177 
z
" clip-path="url(#p9620e7dab5)" style="fill: #ff0035; fill-opacity: 0.75; stroke: #ff0035; stroke-opacity: 0.75"/>
    <path d="M 317.73894 123.88467 
C 320.754831 123.88467 323.647605 122.686444 325.780162 120.553887 
C 327.912718 118.42133 329.110945 115.528556 329.110945 112.512665 
C 329.110945 109.496774 327.912718 106.604001 325.780162 104.471444 
C 323.647605 102.338887 320.754831 101.140661 317.73894 101.140661 
C 314.723049 101.140661 311.830275 102.338887 309.697719 104.471444 
C 307.565162 106.604001 306.366936 109.496774 306.366936 112.512665 
C 306.366936 115.528556 307.565162 118.42133 309.697719 120.553887 
C 311.830275 122.686444 314.723049 123.88467 317.73894 123.88467 
z
" clip-path="url(#p9620e7dab5)" style="fill: #ff8e00; fill-opacity: 0.75; stroke: #ff8e00; stroke-opacity: 0.75"/>
    <path d="M 294.651254 241.390162 
C 297.070171 241.390162 299.390342 240.429116 301.100775 238.718683 
C 302.811208 237.00825 303.772254 234.688079 303.772254 232.269162 
C 303.772254 229.850244 302.811208 227.530073 301.100775 225.81964 
C 299.390342 224.109207 297.070171 223.148161 294.651254 223.148161 
C 292.232336 223.148161 289.912166 224.109207 288.201733 225.81964 
C 286.491299 227.530073 285.530253 229.850244 285.530253 232.269162 
C 285.530253 234.688079 286.491299 237.00825 288.201733 238.718683 
C 289.912166 240.429116 292.232336 241.390162 294.651254 241.390162 
z
" clip-path="url(#p9620e7dab5)" style="fill: #ff00cf; fill-opacity: 0.75; stroke: #ff00cf; stroke-opacity: 0.75"/>
    <path d="M 236.714355 172.337667 
C 236.788898 172.337667 236.860397 172.308051 236.913107 172.255342 
C 236.965816 172.202632 236.995432 172.131133 236.995432 172.05659 
C 236.995432 171.982048 236.965816 171.910548 236.913107 171.857839 
C 236.860397 171.805129 236.788898 171.775513 236.714355 171.775513 
C 236.639812 171.775513 236.568313 171.805129 236.515603 171.857839 
C 236.462894 171.910548 236.433278 171.982048 236.433278 172.05659 
C 236.433278 172.131133 236.462894 172.202632 236.515603 172.255342 
C 236.568313 172.308051 236.639812 172.337667 236.714355 172.337667 
z
" clip-path="url(#p9620e7dab5)" style="fill: #c5ff00; fill-opacity: 0.75; stroke: #c5ff00; stroke-opacity: 0.75"/>
    <path d="M 111.520539 182.200586 
C 115.193259 182.200586 118.716049 180.741398 121.313054 178.144393 
C 123.91006 175.547388 125.369247 172.024598 125.369247 168.351878 
C 125.369247 164.679157 123.91006 161.156368 121.313054 158.559362 
C 118.716049 155.962357 115.193259 154.503169 111.520539 154.503169 
C 107.847819 154.503169 104.325029 155.962357 101.728023 158.559362 
C 99.131018 161.156368 97.671831 164.679157 97.671831 168.351878 
C 97.671831 172.024598 99.131018 175.547388 101.728023 178.144393 
C 104.325029 180.741398 107.847819 182.200586 111.520539 182.200586 
z
" clip-path="url(#p9620e7dab5)" style="fill: #00ffe4; fill-opacity: 0.75; stroke: #00ffe4; stroke-opacity: 0.75"/>
    <path d="M 210.316287 115.265273 
C 212.436854 115.265273 214.470852 114.422763 215.970319 112.923296 
C 217.469786 111.42383 218.312296 109.389831 218.312296 107.269264 
C 218.312296 105.148698 217.469786 103.114699 215.970319 101.615233 
C 214.470852 100.115766 212.436854 99.273256 210.316287 99.273256 
C 208.195721 99.273256 206.161722 100.115766 204.662255 101.615233 
C 203.162789 103.114699 202.320279 105.148698 202.320279 107.269264 
C 202.320279 109.389831 203.162789 111.42383 204.662255 112.923296 
C 206.161722 114.422763 208.195721 115.265273 210.316287 115.265273 
z
" clip-path="url(#p9620e7dab5)" style="fill: #37ff00; fill-opacity: 0.75; stroke: #37ff00; stroke-opacity: 0.75"/>
    <path d="M 265.285614 72.300982 
C 268.789532 72.300982 272.150409 70.908861 274.628053 68.431217 
C 277.105697 65.953573 278.497818 62.592695 278.497818 59.088778 
C 278.497818 55.58486 277.105697 52.223983 274.628053 49.746339 
C 272.150409 47.268695 268.789532 45.876574 265.285614 45.876574 
C 261.781696 45.876574 258.420819 47.268695 255.943175 49.746339 
C 253.465531 52.223983 252.07341 55.58486 252.07341 59.088778 
C 252.07341 62.592695 253.465531 65.953573 255.943175 68.431217 
C 258.420819 70.908861 261.781696 72.300982 265.285614 72.300982 
z
" clip-path="url(#p9620e7dab5)" style="fill: #cbff00; fill-opacity: 0.75; stroke: #cbff00; stroke-opacity: 0.75"/>
    <path d="M 132.4927 225.950593 
C 135.753764 225.950593 138.881703 224.654958 141.187624 222.349038 
C 143.493544 220.043117 144.789179 216.915178 144.789179 213.654114 
C 144.789179 210.393049 143.493544 207.265111 141.187624 204.95919 
C 138.881703 202.653269 135.753764 201.357635 132.4927 201.357635 
C 129.231636 201.357635 126.103697 202.653269 123.797776 204.95919 
C 121.491856 207.265111 120.196221 210.393049 120.196221 213.654114 
C 120.196221 216.915178 121.491856 220.043117 123.797776 222.349038 
C 126.103697 224.654958 129.231636 225.950593 132.4927 225.950593 
z
" clip-path="url(#p9620e7dab5)" style="fill: #00b5ff; fill-opacity: 0.75; stroke: #00b5ff; stroke-opacity: 0.75"/>
    <path d="M 131.507878 237.065138 
C 134.9173 237.065138 138.18754 235.71056 140.598366 233.299735 
C 143.009191 230.888909 144.363769 227.618669 144.363769 224.209247 
C 144.363769 220.799825 143.009191 217.529585 140.598366 215.11876 
C 138.18754 212.707934 134.9173 211.353356 131.507878 211.353356 
C 128.098456 211.353356 124.828216 212.707934 122.417391 215.11876 
C 120.006565 217.529585 118.651988 220.799825 118.651988 224.209247 
C 118.651988 227.618669 120.006565 230.888909 122.417391 233.299735 
C 124.828216 235.71056 128.098456 237.065138 131.507878 237.065138 
z
" clip-path="url(#p9620e7dab5)" style="fill: #00a4ff; fill-opacity: 0.75; stroke: #00a4ff; stroke-opacity: 0.75"/>
    <path d="M 231.700185 133.178135 
C 233.076105 133.178135 234.395855 132.631477 235.368777 131.658555 
C 236.341699 130.685633 236.888357 129.365883 236.888357 127.989964 
C 236.888357 126.614044 236.341699 125.294294 235.368777 124.321372 
C 234.395855 123.34845 233.076105 122.801792 231.700185 122.801792 
C 230.324266 122.801792 229.004516 123.34845 228.031594 124.321372 
C 227.058672 125.294294 226.512014 126.614044 226.512014 127.989964 
C 226.512014 129.365883 227.058672 130.685633 228.031594 131.658555 
C 229.004516 132.631477 230.324266 133.178135 231.700185 133.178135 
z
" clip-path="url(#p9620e7dab5)" style="fill: #78ff00; fill-opacity: 0.75; stroke: #78ff00; stroke-opacity: 0.75"/>
    <path d="M 237.184716 136.229214 
C 238.452976 136.229214 239.669463 135.725329 240.566258 134.828533 
C 241.463054 133.931738 241.966939 132.715251 241.966939 131.446991 
C 241.966939 130.17873 241.463054 128.962244 240.566258 128.065448 
C 239.669463 127.168653 238.452976 126.664767 237.184716 126.664767 
C 235.916455 126.664767 234.699969 127.168653 233.803173 128.065448 
C 232.906378 128.962244 232.402492 130.17873 232.402492 131.446991 
C 232.402492 132.715251 232.906378 133.931738 233.803173 134.828533 
C 234.699969 135.725329 235.916455 136.229214 237.184716 136.229214 
z
" clip-path="url(#p9620e7dab5)" style="fill: #96ff00; fill-opacity: 0.75; stroke: #96ff00; stroke-opacity: 0.75"/>
    <path d="M 285.376549 169.608975 
C 286.857644 169.608975 288.278276 169.02053 289.325568 167.973238 
C 290.372861 166.925946 290.961306 165.505313 290.961306 164.024218 
C 290.961306 162.543123 290.372861 161.122491 289.325568 160.075198 
C 288.278276 159.027906 286.857644 158.439461 285.376549 158.439461 
C 283.895454 158.439461 282.474821 159.027906 281.427529 160.075198 
C 280.380236 161.122491 279.791791 162.543123 279.791791 164.024218 
C 279.791791 165.505313 280.380236 166.925946 281.427529 167.973238 
C 282.474821 169.02053 283.895454 169.608975 285.376549 169.608975 
z
" clip-path="url(#p9620e7dab5)" style="fill: #ff2300; fill-opacity: 0.75; stroke: #ff2300; stroke-opacity: 0.75"/>
    <path d="M 286.319157 231.792776 
C 288.392102 231.792776 290.380424 230.969186 291.846217 229.503393 
C 293.312011 228.037599 294.135601 226.049277 294.135601 223.976332 
C 294.135601 221.903387 293.312011 219.915065 291.846217 218.449272 
C 290.380424 216.983478 288.392102 216.159888 286.319157 216.159888 
C 284.246211 216.159888 282.25789 216.983478 280.792096 218.449272 
C 279.326302 219.915065 278.502713 221.903387 278.502713 223.976332 
C 278.502713 226.049277 279.326302 228.037599 280.792096 229.503393 
C 282.25789 230.969186 284.246211 231.792776 286.319157 231.792776 
z
" clip-path="url(#p9620e7dab5)" style="fill: #ff00cf; fill-opacity: 0.75; stroke: #ff00cf; stroke-opacity: 0.75"/>
    <path d="M 249.940344 196.686525 
C 250.643274 196.686525 251.317509 196.407248 251.814555 195.910201 
C 252.311602 195.413154 252.590879 194.73892 252.590879 194.035989 
C 252.590879 193.333059 252.311602 192.658825 251.814555 192.161778 
C 251.317509 191.664731 250.643274 191.385454 249.940344 191.385454 
C 249.237414 191.385454 248.563179 191.664731 248.066132 192.161778 
C 247.569086 192.658825 247.289809 193.333059 247.289809 194.035989 
C 247.289809 194.73892 247.569086 195.413154 248.066132 195.910201 
C 248.563179 196.407248 249.237414 196.686525 249.940344 196.686525 
z
" clip-path="url(#p9620e7dab5)" style="fill: #fc00f5; fill-opacity: 0.75; stroke: #fc00f5; stroke-opacity: 0.75"/>
    <path d="M 202.79917 241.816635 
C 204.81188 241.816635 206.742426 241.016976 208.165628 239.593775 
C 209.588829 238.170574 210.388487 236.240028 210.388487 234.227318 
C 210.388487 232.214607 209.588829 230.284061 208.165628 228.86086 
C 206.742426 227.437659 204.81188 226.638001 202.79917 226.638001 
C 200.78646 226.638001 198.855914 227.437659 197.432712 228.86086 
C 196.009511 230.284061 195.209853 232.214607 195.209853 234.227318 
C 195.209853 236.240028 196.009511 238.170574 197.432712 239.593775 
C 198.855914 241.016976 200.78646 241.816635 202.79917 241.816635 
z
" clip-path="url(#p9620e7dab5)" style="fill: #020cff; fill-opacity: 0.75; stroke: #020cff; stroke-opacity: 0.75"/>
    <path d="M 311.515578 160.285364 
C 313.834219 160.285364 316.058207 159.364158 317.697734 157.724631 
C 319.337261 156.085104 320.258467 153.861116 320.258467 151.542475 
C 320.258467 149.223834 319.337261 146.999846 317.697734 145.360319 
C 316.058207 143.720792 313.834219 142.799586 311.515578 142.799586 
C 309.196937 142.799586 306.972949 143.720792 305.333422 145.360319 
C 303.693895 146.999846 302.772689 149.223834 302.772689 151.542475 
C 302.772689 153.861116 303.693895 156.085104 305.333422 157.724631 
C 306.972949 159.364158 309.196937 160.285364 311.515578 160.285364 
z
" clip-path="url(#p9620e7dab5)" style="fill: #ff3b00; fill-opacity: 0.75; stroke: #ff3b00; stroke-opacity: 0.75"/>
    <path d="M 306.929602 164.632543 
C 309.078705 164.632543 311.140075 163.778696 312.65972 162.259051 
C 314.179366 160.739405 315.033213 158.678035 315.033213 156.528932 
C 315.033213 154.37983 314.179366 152.318459 312.65972 150.798814 
C 311.140075 149.279169 309.078705 148.425321 306.929602 148.425321 
C 304.780499 148.425321 302.719129 149.279169 301.199484 150.798814 
C 299.679839 152.318459 298.825991 154.37983 298.825991 156.528932 
C 298.825991 158.678035 299.679839 160.739405 301.199484 162.259051 
C 302.719129 163.778696 304.780499 164.632543 306.929602 164.632543 
z
" clip-path="url(#p9620e7dab5)" style="fill: #ff2f00; fill-opacity: 0.75; stroke: #ff2f00; stroke-opacity: 0.75"/>
    <path d="M 182.445485 74.49435 
C 186.154912 74.49435 189.71291 73.020579 192.335871 70.397618 
C 194.958832 67.774657 196.432603 64.216659 196.432603 60.507232 
C 196.432603 56.797805 194.958832 53.239807 192.335871 50.616846 
C 189.71291 47.993885 186.154912 46.520114 182.445485 46.520114 
C 178.736058 46.520114 175.17806 47.993885 172.555099 50.616846 
C 169.932138 53.239807 168.458367 56.797805 168.458367 60.507232 
C 168.458367 64.216659 169.932138 67.774657 172.555099 70.397618 
C 175.17806 73.020579 178.736058 74.49435 182.445485 74.49435 
z
" clip-path="url(#p9620e7dab5)" style="fill: #25ff00; fill-opacity: 0.75; stroke: #25ff00; stroke-opacity: 0.75"/>
    <path d="M 266.919875 174.637366 
C 267.830429 174.637366 268.703811 174.275599 269.347669 173.63174 
C 269.991528 172.987882 270.353295 172.114499 270.353295 171.203946 
C 270.353295 170.293392 269.991528 169.42001 269.347669 168.776152 
C 268.703811 168.132293 267.830429 167.770526 266.919875 167.770526 
C 266.009321 167.770526 265.135939 168.132293 264.492081 168.776152 
C 263.848222 169.42001 263.486455 170.293392 263.486455 171.203946 
C 263.486455 172.114499 263.848222 172.987882 264.492081 173.63174 
C 265.135939 174.275599 266.009321 174.637366 266.919875 174.637366 
z
" clip-path="url(#p9620e7dab5)" style="fill: #ff0c00; fill-opacity: 0.75; stroke: #ff0c00; stroke-opacity: 0.75"/>
    <path d="M 240.496517 172.530638 
C 240.644662 172.530638 240.78676 172.471779 240.891515 172.367024 
C 240.99627 172.262269 241.055129 172.120171 241.055129 171.972025 
C 241.055129 171.82388 240.99627 171.681782 240.891515 171.577027 
C 240.78676 171.472272 240.644662 171.413413 240.496517 171.413413 
C 240.348371 171.413413 240.206273 171.472272 240.101518 171.577027 
C 239.996763 171.681782 239.937904 171.82388 239.937904 171.972025 
C 239.937904 172.120171 239.996763 172.262269 240.101518 172.367024 
C 240.206273 172.471779 240.348371 172.530638 240.496517 172.530638 
z
" clip-path="url(#p9620e7dab5)" style="fill: #ff7000; fill-opacity: 0.75; stroke: #ff7000; stroke-opacity: 0.75"/>
    <path d="M 253.363767 247.878908 
C 255.365485 247.878908 257.285488 247.083617 258.700917 245.668188 
C 260.116346 244.252759 260.911637 242.332756 260.911637 240.331038 
C 260.911637 238.329319 260.116346 236.409316 258.700917 234.993888 
C 257.285488 233.578459 255.365485 232.783168 253.363767 232.783168 
C 251.362048 232.783168 249.442045 233.578459 248.026616 234.993888 
C 246.611188 236.409316 245.815896 238.329319 245.815896 240.331038 
C 245.815896 242.332756 246.611188 244.252759 248.026616 245.668188 
C 249.442045 247.083617 251.362048 247.878908 253.363767 247.878908 
z
" clip-path="url(#p9620e7dab5)" style="fill: #ad00ff; fill-opacity: 0.75; stroke: #ad00ff; stroke-opacity: 0.75"/>
    <path d="M 274.051404 165.28038 
C 275.237422 165.28038 276.375024 164.80917 277.213666 163.970528 
C 278.052307 163.131887 278.523517 161.994285 278.523517 160.808267 
C 278.523517 159.622248 278.052307 158.484647 277.213666 157.646005 
C 276.375024 156.807363 275.237422 156.336153 274.051404 156.336153 
C 272.865386 156.336153 271.727784 156.807363 270.889142 157.646005 
C 270.050501 158.484647 269.579291 159.622248 269.579291 160.808267 
C 269.579291 161.994285 270.050501 163.131887 270.889142 163.970528 
C 271.727784 164.80917 272.865386 165.28038 274.051404 165.28038 
z
" clip-path="url(#p9620e7dab5)" style="fill: #ff4700; fill-opacity: 0.75; stroke: #ff4700; stroke-opacity: 0.75"/>
    <path d="M 218.908097 185.899439 
C 219.483538 185.899439 220.035488 185.670814 220.442386 185.263915 
C 220.849284 184.857017 221.077909 184.305067 221.077909 183.729626 
C 221.077909 183.154185 220.849284 182.602235 220.442386 182.195337 
C 220.035488 181.788439 219.483538 181.559814 218.908097 181.559814 
C 218.332656 181.559814 217.780706 181.788439 217.373807 182.195337 
C 216.966909 182.602235 216.738284 183.154185 216.738284 183.729626 
C 216.738284 184.305067 216.966909 184.857017 217.373807 185.263915 
C 217.780706 185.670814 218.332656 185.899439 218.908097 185.899439 
z
" clip-path="url(#p9620e7dab5)" style="fill: #0098ff; fill-opacity: 0.75; stroke: #0098ff; stroke-opacity: 0.75"/>
    <path d="M 210.823444 97.545235 
C 213.4915 97.545235 216.050639 96.485205 217.937239 94.598605 
C 219.823839 92.712004 220.883869 90.152866 220.883869 87.48481 
C 220.883869 84.816754 219.823839 82.257616 217.937239 80.371015 
C 216.050639 78.484415 213.4915 77.424385 210.823444 77.424385 
C 208.155388 77.424385 205.59625 78.484415 203.709649 80.371015 
C 201.823049 82.257616 200.763019 84.816754 200.763019 87.48481 
C 200.763019 90.152866 201.823049 92.712004 203.709649 94.598605 
C 205.59625 96.485205 208.155388 97.545235 210.823444 97.545235 
z
" clip-path="url(#p9620e7dab5)" style="fill: #49ff00; fill-opacity: 0.75; stroke: #49ff00; stroke-opacity: 0.75"/>
    <path d="M 295.846215 143.812973 
C 297.938205 143.812973 299.944795 142.981817 301.424055 141.502556 
C 302.903316 140.023295 303.734473 138.016706 303.734473 135.924715 
C 303.734473 133.832724 302.903316 131.826135 301.424055 130.346874 
C 299.944795 128.867613 297.938205 128.036457 295.846215 128.036457 
C 293.754224 128.036457 291.747634 128.867613 290.268374 130.346874 
C 288.789113 131.826135 287.957956 133.832724 287.957956 135.924715 
C 287.957956 138.016706 288.789113 140.023295 290.268374 141.502556 
C 291.747634 142.981817 293.754224 143.812973 295.846215 143.812973 
z
" clip-path="url(#p9620e7dab5)" style="fill: #ff7c00; fill-opacity: 0.75; stroke: #ff7c00; stroke-opacity: 0.75"/>
    <path d="M 231.176061 152.091089 
C 231.934918 152.091089 232.662796 151.789592 233.199389 151.252999 
C 233.735982 150.716406 234.03748 149.988528 234.03748 149.22967 
C 234.03748 148.470813 233.735982 147.742935 233.199389 147.206342 
C 232.662796 146.669749 231.934918 146.368252 231.176061 146.368252 
C 230.417204 146.368252 229.689325 146.669749 229.152732 147.206342 
C 228.616139 147.742935 228.314642 148.470813 228.314642 149.22967 
C 228.314642 149.988528 228.616139 150.716406 229.152732 151.252999 
C 229.689325 151.789592 230.417204 152.091089 231.176061 152.091089 
z
" clip-path="url(#p9620e7dab5)" style="fill: #61ff00; fill-opacity: 0.75; stroke: #61ff00; stroke-opacity: 0.75"/>
    <path d="M 323.768141 246.569282 
C 326.89726 246.569282 329.89864 245.32607 332.111261 243.113448 
C 334.323882 240.900827 335.567095 237.899447 335.567095 234.770328 
C 335.567095 231.641209 334.323882 228.63983 332.111261 226.427209 
C 329.89864 224.214587 326.89726 222.971375 323.768141 222.971375 
C 320.639022 222.971375 317.637643 224.214587 315.425021 226.427209 
C 313.2124 228.63983 311.969188 231.641209 311.969188 234.770328 
C 311.969188 237.899447 313.2124 240.900827 315.425021 243.113448 
C 317.637643 245.32607 320.639022 246.569282 323.768141 246.569282 
z
" clip-path="url(#p9620e7dab5)" style="fill: #ff00a0; fill-opacity: 0.75; stroke: #ff00a0; stroke-opacity: 0.75"/>
    <path d="M 341.175408 228.004782 
C 344.49293 228.004782 347.675022 226.686717 350.020864 224.340874 
C 352.366707 221.995032 353.684772 218.81294 353.684772 215.495417 
C 353.684772 212.177895 352.366707 208.995803 350.020864 206.649961 
C 347.675022 204.304118 344.49293 202.986053 341.175408 202.986053 
C 337.857885 202.986053 334.675794 204.304118 332.329951 206.649961 
C 329.984109 208.995803 328.666043 212.177895 328.666043 215.495417 
C 328.666043 218.81294 329.984109 221.995032 332.329951 224.340874 
C 334.675794 226.686717 337.857885 228.004782 341.175408 228.004782 
z
" clip-path="url(#p9620e7dab5)" style="fill: #ff006b; fill-opacity: 0.75; stroke: #ff006b; stroke-opacity: 0.75"/>
    <path d="M 180.366409 103.039932 
C 183.298643 103.039932 186.111176 101.874943 188.184579 99.80154 
C 190.257982 97.728137 191.422971 94.915604 191.422971 91.983369 
C 191.422971 89.051135 190.257982 86.238602 188.184579 84.165199 
C 186.111176 82.091796 183.298643 80.926807 180.366409 80.926807 
C 177.434174 80.926807 174.621641 82.091796 172.548238 84.165199 
C 170.474835 86.238602 169.309846 89.051135 169.309846 91.983369 
C 169.309846 94.915604 170.474835 97.728137 172.548238 99.80154 
C 174.621641 101.874943 177.434174 103.039932 180.366409 103.039932 
z
" clip-path="url(#p9620e7dab5)" style="fill: #04ff08; fill-opacity: 0.75; stroke: #04ff08; stroke-opacity: 0.75"/>
    <path d="M 282.885314 151.003749 
C 284.514227 151.003749 286.076644 150.356575 287.22846 149.204759 
C 288.380276 148.052943 289.02745 146.490526 289.02745 144.861612 
C 289.02745 143.232699 288.380276 141.670282 287.22846 140.518466 
C 286.076644 139.36665 284.514227 138.719476 282.885314 138.719476 
C 281.2564 138.719476 279.693984 139.36665 278.542168 140.518466 
C 277.390352 141.670282 276.743178 143.232699 276.743178 144.861612 
C 276.743178 146.490526 277.390352 148.052943 278.542168 149.204759 
C 279.693984 150.356575 281.2564 151.003749 282.885314 151.003749 
z
" clip-path="url(#p9620e7dab5)" style="fill: #ff7c00; fill-opacity: 0.75; stroke: #ff7c00; stroke-opacity: 0.75"/>
    <path d="M 243.767979 203.455947 
C 244.563262 203.455947 245.32608 203.139978 245.88843 202.577628 
C 246.45078 202.015278 246.766749 201.25246 246.766749 200.457177 
C 246.766749 199.661894 246.45078 198.899077 245.88843 198.336726 
C 245.32608 197.774376 244.563262 197.458407 243.767979 197.458407 
C 242.972696 197.458407 242.209879 197.774376 241.647529 198.336726 
C 241.085179 198.899077 240.769209 199.661894 240.769209 200.457177 
C 240.769209 201.25246 241.085179 202.015278 241.647529 202.577628 
C 242.209879 203.139978 242.972696 203.455947 243.767979 203.455947 
z
" clip-path="url(#p9620e7dab5)" style="fill: #b300ff; fill-opacity: 0.75; stroke: #b300ff; stroke-opacity: 0.75"/>
    <path d="M 195.751902 146.671811 
C 197.300346 146.671811 198.785578 146.056607 199.880493 144.961692 
C 200.975408 143.866777 201.590611 142.381546 201.590611 140.833102 
C 201.590611 139.284658 200.975408 137.799426 199.880493 136.704511 
C 198.785578 135.609596 197.300346 134.994393 195.751902 134.994393 
C 194.203458 134.994393 192.718227 135.609596 191.623312 136.704511 
C 190.528397 137.799426 189.913193 139.284658 189.913193 140.833102 
C 189.913193 142.381546 190.528397 143.866777 191.623312 144.961692 
C 192.718227 146.056607 194.203458 146.671811 195.751902 146.671811 
z
" clip-path="url(#p9620e7dab5)" style="fill: #00ff45; fill-opacity: 0.75; stroke: #00ff45; stroke-opacity: 0.75"/>
   </g>
   <g id="matplotlib.axis_1">
    <g id="xtick_1">
     <g id="line2d_1">
      <path d="M 236.16 174.528 
L 369.216 174.528 
" clip-path="url(#p9620e7dab5)" style="fill: none; stroke: #b0b0b0; stroke-width: 0.8; stroke-linecap: square"/>
     </g>
     <g id="text_1">
      <!-- 0° -->
      <g transform="translate(377.53475 177.287375) scale(0.1 -0.1)">
       <defs>
        <path id="DejaVuSans-30" d="M 2034 4250 
Q 1547 4250 1301 3770 
Q 1056 3291 1056 2328 
Q 1056 1369 1301 889 
Q 1547 409 2034 409 
Q 2525 409 2770 889 
Q 3016 1369 3016 2328 
Q 3016 3291 2770 3770 
Q 2525 4250 2034 4250 
z
M 2034 4750 
Q 2819 4750 3233 4129 
Q 3647 3509 3647 2328 
Q 3647 1150 3233 529 
Q 2819 -91 2034 -91 
Q 1250 -91 836 529 
Q 422 1150 422 2328 
Q 422 3509 836 4129 
Q 1250 4750 2034 4750 
z
" transform="scale(0.015625)"/>
        <path id="DejaVuSans-b0" d="M 1600 4347 
Q 1350 4347 1178 4173 
Q 1006 4000 1006 3750 
Q 1006 3503 1178 3333 
Q 1350 3163 1600 3163 
Q 1850 3163 2022 3333 
Q 2194 3503 2194 3750 
Q 2194 3997 2020 4172 
Q 1847 4347 1600 4347 
z
M 1600 4750 
Q 1800 4750 1984 4673 
Q 2169 4597 2303 4453 
Q 2447 4313 2519 4134 
Q 2591 3956 2591 3750 
Q 2591 3338 2302 3052 
Q 2013 2766 1594 2766 
Q 1172 2766 890 3047 
Q 609 3328 609 3750 
Q 609 4169 896 4459 
Q 1184 4750 1600 4750 
z
" transform="scale(0.015625)"/>
       </defs>
       <use xlink:href="#DejaVuSans-30"/>
       <use xlink:href="#DejaVuSans-b0" transform="translate(63.623047 0)"/>
      </g>
     </g>
    </g>
    <g id="xtick_2">
     <g id="line2d_2">
      <path d="M 236.16 174.528 
L 330.2448 80.4432 
" clip-path="url(#p9620e7dab5)" style="fill: none; stroke: #b0b0b0; stroke-width: 0.8; stroke-linecap: square"/>
     </g>
     <g id="text_2">
      <!-- 45° -->
      <g transform="translate(331.281795 73.30308) scale(0.1 -0.1)">
       <defs>
        <path id="DejaVuSans-34" d="M 2419 4116 
L 825 1625 
L 2419 1625 
L 2419 4116 
z
M 2253 4666 
L 3047 4666 
L 3047 1625 
L 3713 1625 
L 3713 1100 
L 3047 1100 
L 3047 0 
L 2419 0 
L 2419 1100 
L 313 1100 
L 313 1709 
L 2253 4666 
z
" transform="scale(0.015625)"/>
        <path id="DejaVuSans-35" d="M 691 4666 
L 3169 4666 
L 3169 4134 
L 1269 4134 
L 1269 2991 
Q 1406 3038 1543 3061 
Q 1681 3084 1819 3084 
Q 2600 3084 3056 2656 
Q 3513 2228 3513 1497 
Q 3513 744 3044 326 
Q 2575 -91 1722 -91 
Q 1428 -91 1123 -41 
Q 819 9 494 109 
L 494 744 
Q 775 591 1075 516 
Q 1375 441 1709 441 
Q 2250 441 2565 725 
Q 2881 1009 2881 1497 
Q 2881 1984 2565 2268 
Q 2250 2553 1709 2553 
Q 1456 2553 1204 2497 
Q 953 2441 691 2322 
L 691 4666 
z
" transform="scale(0.015625)"/>
       </defs>
       <use xlink:href="#DejaVuSans-34"/>
       <use xlink:href="#DejaVuSans-35" transform="translate(63.623047 0)"/>
       <use xlink:href="#DejaVuSans-b0" transform="translate(127.246094 0)"/>
      </g>
     </g>
    </g>
    <g id="xtick_3">
     <g id="line2d_3">
      <path d="M 236.16 174.528 
L 236.16 41.472 
" clip-path="url(#p9620e7dab5)" style="fill: none; stroke: #b0b0b0; stroke-width: 0.8; stroke-linecap: square"/>
     </g>
     <g id="text_3">
      <!-- 90° -->
      <g transform="translate(227.2975 30.231375) scale(0.1 -0.1)">
       <defs>
        <path id="DejaVuSans-39" d="M 703 97 
L 703 672 
Q 941 559 1184 500 
Q 1428 441 1663 441 
Q 2288 441 2617 861 
Q 2947 1281 2994 2138 
Q 2813 1869 2534 1725 
Q 2256 1581 1919 1581 
Q 1219 1581 811 2004 
Q 403 2428 403 3163 
Q 403 3881 828 4315 
Q 1253 4750 1959 4750 
Q 2769 4750 3195 4129 
Q 3622 3509 3622 2328 
Q 3622 1225 3098 567 
Q 2575 -91 1691 -91 
Q 1453 -91 1209 -44 
Q 966 3 703 97 
z
M 1959 2075 
Q 2384 2075 2632 2365 
Q 2881 2656 2881 3163 
Q 2881 3666 2632 3958 
Q 2384 4250 1959 4250 
Q 1534 4250 1286 3958 
Q 1038 3666 1038 3163 
Q 1038 2656 1286 2365 
Q 1534 2075 1959 2075 
z
" transform="scale(0.015625)"/>
       </defs>
       <use xlink:href="#DejaVuSans-39"/>
       <use xlink:href="#DejaVuSans-30" transform="translate(63.623047 0)"/>
       <use xlink:href="#DejaVuSans-b0" transform="translate(127.246094 0)"/>
      </g>
     </g>
    </g>
    <g id="xtick_4">
     <g id="line2d_4">
      <path d="M 236.16 174.528 
L 142.0752 80.4432 
" clip-path="url(#p9620e7dab5)" style="fill: none; stroke: #b0b0b0; stroke-width: 0.8; stroke-linecap: square"/>
     </g>
     <g id="text_4">
      <!-- 135° -->
      <g transform="translate(120.131955 73.30308) scale(0.1 -0.1)">
       <defs>
        <path id="DejaVuSans-31" d="M 794 531 
L 1825 531 
L 1825 4091 
L 703 3866 
L 703 4441 
L 1819 4666 
L 2450 4666 
L 2450 531 
L 3481 531 
L 3481 0 
L 794 0 
L 794 531 
z
" transform="scale(0.015625)"/>
        <path id="DejaVuSans-33" d="M 2597 2516 
Q 3050 2419 3304 2112 
Q 3559 1806 3559 1356 
Q 3559 666 3084 287 
Q 2609 -91 1734 -91 
Q 1441 -91 1130 -33 
Q 819 25 488 141 
L 488 750 
Q 750 597 1062 519 
Q 1375 441 1716 441 
Q 2309 441 2620 675 
Q 2931 909 2931 1356 
Q 2931 1769 2642 2001 
Q 2353 2234 1838 2234 
L 1294 2234 
L 1294 2753 
L 1863 2753 
Q 2328 2753 2575 2939 
Q 2822 3125 2822 3475 
Q 2822 3834 2567 4026 
Q 2313 4219 1838 4219 
Q 1578 4219 1281 4162 
Q 984 4106 628 3988 
L 628 4550 
Q 988 4650 1302 4700 
Q 1616 4750 1894 4750 
Q 2613 4750 3031 4423 
Q 3450 4097 3450 3541 
Q 3450 3153 3228 2886 
Q 3006 2619 2597 2516 
z
" transform="scale(0.015625)"/>
       </defs>
       <use xlink:href="#DejaVuSans-31"/>
       <use xlink:href="#DejaVuSans-33" transform="translate(63.623047 0)"/>
       <use xlink:href="#DejaVuSans-35" transform="translate(127.246094 0)"/>
       <use xlink:href="#DejaVuSans-b0" transform="translate(190.869141 0)"/>
      </g>
     </g>
    </g>
    <g id="xtick_5">
     <g id="line2d_5">
      <path d="M 236.16 174.528 
L 103.104 174.528 
" clip-path="url(#p9620e7dab5)" style="fill: none; stroke: #b0b0b0; stroke-width: 0.8; stroke-linecap: square"/>
     </g>
     <g id="text_5">
      <!-- 180° -->
      <g transform="translate(77.06025 177.287375) scale(0.1 -0.1)">
       <defs>
        <path id="DejaVuSans-38" d="M 2034 2216 
Q 1584 2216 1326 1975 
Q 1069 1734 1069 1313 
Q 1069 891 1326 650 
Q 1584 409 2034 409 
Q 2484 409 2743 651 
Q 3003 894 3003 1313 
Q 3003 1734 2745 1975 
Q 2488 2216 2034 2216 
z
M 1403 2484 
Q 997 2584 770 2862 
Q 544 3141 544 3541 
Q 544 4100 942 4425 
Q 1341 4750 2034 4750 
Q 2731 4750 3128 4425 
Q 3525 4100 3525 3541 
Q 3525 3141 3298 2862 
Q 3072 2584 2669 2484 
Q 3125 2378 3379 2068 
Q 3634 1759 3634 1313 
Q 3634 634 3220 271 
Q 2806 -91 2034 -91 
Q 1263 -91 848 271 
Q 434 634 434 1313 
Q 434 1759 690 2068 
Q 947 2378 1403 2484 
z
M 1172 3481 
Q 1172 3119 1398 2916 
Q 1625 2713 2034 2713 
Q 2441 2713 2670 2916 
Q 2900 3119 2900 3481 
Q 2900 3844 2670 4047 
Q 2441 4250 2034 4250 
Q 1625 4250 1398 4047 
Q 1172 3844 1172 3481 
z
" transform="scale(0.015625)"/>
       </defs>
       <use xlink:href="#DejaVuSans-31"/>
       <use xlink:href="#DejaVuSans-38" transform="translate(63.623047 0)"/>
       <use xlink:href="#DejaVuSans-30" transform="translate(127.246094 0)"/>
       <use xlink:href="#DejaVuSans-b0" transform="translate(190.869141 0)"/>
      </g>
     </g>
    </g>
    <g id="xtick_6">
     <g id="line2d_6">
      <path d="M 236.16 174.528 
L 142.0752 268.6128 
" clip-path="url(#p9620e7dab5)" style="fill: none; stroke: #b0b0b0; stroke-width: 0.8; stroke-linecap: square"/>
     </g>
     <g id="text_6">
      <!-- 225° -->
      <g transform="translate(120.131955 281.27167) scale(0.1 -0.1)">
       <defs>
        <path id="DejaVuSans-32" d="M 1228 531 
L 3431 531 
L 3431 0 
L 469 0 
L 469 531 
Q 828 903 1448 1529 
Q 2069 2156 2228 2338 
Q 2531 2678 2651 2914 
Q 2772 3150 2772 3378 
Q 2772 3750 2511 3984 
Q 2250 4219 1831 4219 
Q 1534 4219 1204 4116 
Q 875 4013 500 3803 
L 500 4441 
Q 881 4594 1212 4672 
Q 1544 4750 1819 4750 
Q 2544 4750 2975 4387 
Q 3406 4025 3406 3419 
Q 3406 3131 3298 2873 
Q 3191 2616 2906 2266 
Q 2828 2175 2409 1742 
Q 1991 1309 1228 531 
z
" transform="scale(0.015625)"/>
       </defs>
       <use xlink:href="#DejaVuSans-32"/>
       <use xlink:href="#DejaVuSans-32" transform="translate(63.623047 0)"/>
       <use xlink:href="#DejaVuSans-35" transform="translate(127.246094 0)"/>
       <use xlink:href="#DejaVuSans-b0" transform="translate(190.869141 0)"/>
      </g>
     </g>
    </g>
    <g id="xtick_7">
     <g id="line2d_7">
      <path d="M 236.16 174.528 
L 236.16 307.584 
" clip-path="url(#p9620e7dab5)" style="fill: none; stroke: #b0b0b0; stroke-width: 0.8; stroke-linecap: square"/>
     </g>
     <g id="text_7">
      <!-- 270° -->
      <g transform="translate(224.11625 324.343375) scale(0.1 -0.1)">
       <defs>
        <path id="DejaVuSans-37" d="M 525 4666 
L 3525 4666 
L 3525 4397 
L 1831 0 
L 1172 0 
L 2766 4134 
L 525 4134 
L 525 4666 
z
" transform="scale(0.015625)"/>
       </defs>
       <use xlink:href="#DejaVuSans-32"/>
       <use xlink:href="#DejaVuSans-37" transform="translate(63.623047 0)"/>
       <use xlink:href="#DejaVuSans-30" transform="translate(127.246094 0)"/>
       <use xlink:href="#DejaVuSans-b0" transform="translate(190.869141 0)"/>
      </g>
     </g>
    </g>
    <g id="xtick_8">
     <g id="line2d_8">
      <path d="M 236.16 174.528 
L 330.2448 268.6128 
" clip-path="url(#p9620e7dab5)" style="fill: none; stroke: #b0b0b0; stroke-width: 0.8; stroke-linecap: square"/>
     </g>
     <g id="text_8">
      <!-- 315° -->
      <g transform="translate(328.100545 281.27167) scale(0.1 -0.1)">
       <use xlink:href="#DejaVuSans-33"/>
       <use xlink:href="#DejaVuSans-31" transform="translate(63.623047 0)"/>
       <use xlink:href="#DejaVuSans-35" transform="translate(127.246094 0)"/>
       <use xlink:href="#DejaVuSans-b0" transform="translate(190.869141 0)"/>
      </g>
     </g>
    </g>
   </g>
   <g id="matplotlib.axis_2">
    <g id="ytick_1">
     <g id="line2d_9">
      <path d="M 252.089562 174.528 
C 252.089562 172.436149 251.677513 170.364639 250.876996 168.43202 
C 250.07648 166.499402 248.903063 164.743261 247.423901 163.264099 
C 245.944739 161.784937 244.188598 160.61152 242.25598 159.811004 
C 240.323361 159.010487 238.251851 158.598438 236.16 158.598438 
C 234.068149 158.598438 231.996639 159.010487 230.06402 159.811004 
C 228.131402 160.61152 226.375261 161.784937 224.896099 163.264099 
C 223.416937 164.743261 222.24352 166.499402 221.443004 168.43202 
C 220.642487 170.364639 220.230438 172.436149 220.230438 174.528 
C 220.230438 176.619851 220.642487 178.691361 221.443004 180.62398 
C 222.24352 182.556598 223.416937 184.312739 224.896099 185.791901 
C 226.375261 187.271063 228.131402 188.44448 230.06402 189.244996 
C 231.996639 190.045513 234.068149 190.457562 236.16 190.457562 
C 238.251851 190.457562 240.323361 190.045513 242.25598 189.244996 
C 244.188598 188.44448 245.944739 187.271063 247.423901 185.791901 
C 248.903063 184.312739 250.07648 182.556598 250.876996 180.62398 
C 251.677513 178.691361 252.089562 176.619851 252.089562 174.528 
" clip-path="url(#p9620e7dab5)" style="fill: none; stroke: #b0b0b0; stroke-width: 0.8; stroke-linecap: square"/>
     </g>
     <g id="text_9">
      <!-- 0.25 -->
      <g transform="translate(250.876996 166.352333) scale(0.1 -0.1)">
       <defs>
        <path id="DejaVuSans-2e" d="M 684 794 
L 1344 794 
L 1344 0 
L 684 0 
L 684 794 
z
" transform="scale(0.015625)"/>
       </defs>
       <use xlink:href="#DejaVuSans-30"/>
       <use xlink:href="#DejaVuSans-2e" transform="translate(63.623047 0)"/>
       <use xlink:href="#DejaVuSans-32" transform="translate(95.410156 0)"/>
       <use xlink:href="#DejaVuSans-35" transform="translate(159.033203 0)"/>
      </g>
     </g>
    </g>
    <g id="ytick_2">
     <g id="line2d_10">
      <path d="M 268.019124 174.528 
C 268.019124 170.344298 267.195026 166.201277 265.593993 162.336041 
C 263.99296 158.470804 261.646127 154.958521 258.687803 152.000197 
C 255.729479 149.041873 252.217196 146.69504 248.351959 145.094007 
C 244.486723 143.492974 240.343702 142.668876 236.16 142.668876 
C 231.976298 142.668876 227.833277 143.492974 223.968041 145.094007 
C 220.102804 146.69504 216.590521 149.041873 213.632197 152.000197 
C 210.673873 154.958521 208.32704 158.470804 206.726007 162.336041 
C 205.124974 166.201277 204.300876 170.344298 204.300876 174.528 
C 204.300876 178.711702 205.124974 182.854723 206.726007 186.719959 
C 208.32704 190.585196 210.673873 194.097479 213.632197 197.055803 
C 216.590521 200.014127 220.102804 202.36096 223.968041 203.961993 
C 227.833277 205.563026 231.976298 206.387124 236.16 206.387124 
C 240.343702 206.387124 244.486723 205.563026 248.351959 203.961993 
C 252.217196 202.36096 255.729479 200.014127 258.687803 197.055803 
C 261.646127 194.097479 263.99296 190.585196 265.593993 186.719959 
C 267.195026 182.854723 268.019124 178.711702 268.019124 174.528 
" clip-path="url(#p9620e7dab5)" style="fill: none; stroke: #b0b0b0; stroke-width: 0.8; stroke-linecap: square"/>
     </g>
     <g id="text_10">
      <!-- 0.50 -->
      <g transform="translate(265.593993 160.256353) scale(0.1 -0.1)">
       <use xlink:href="#DejaVuSans-30"/>
       <use xlink:href="#DejaVuSans-2e" transform="translate(63.623047 0)"/>
       <use xlink:href="#DejaVuSans-35" transform="translate(95.410156 0)"/>
       <use xlink:href="#DejaVuSans-30" transform="translate(159.033203 0)"/>
      </g>
     </g>
    </g>
    <g id="ytick_3">
     <g id="line2d_11">
      <path d="M 283.948687 174.528 
C 283.948687 168.252447 282.712539 162.037916 280.310989 156.240061 
C 277.909439 150.442207 274.38919 145.173782 269.951704 140.736296 
C 265.514218 136.29881 260.245793 132.778561 254.447939 130.377011 
C 248.650084 127.975461 242.435553 126.739313 236.16 126.739313 
C 229.884447 126.739313 223.669916 127.975461 217.872061 130.377011 
C 212.074207 132.778561 206.805782 136.29881 202.368296 140.736296 
C 197.93081 145.173782 194.410561 150.442207 192.009011 156.240061 
C 189.607461 162.037916 188.371313 168.252447 188.371313 174.528 
C 188.371313 180.803553 189.607461 187.018084 192.009011 192.815939 
C 194.410561 198.613793 197.93081 203.882218 202.368296 208.319704 
C 206.805782 212.75719 212.074207 216.277439 217.872061 218.678989 
C 223.669916 221.080539 229.884447 222.316687 236.16 222.316687 
C 242.435553 222.316687 248.650084 221.080539 254.447939 218.678989 
C 260.245793 216.277439 265.514218 212.75719 269.951704 208.319704 
C 274.38919 203.882218 277.909439 198.613793 280.310989 192.815939 
C 282.712539 187.018084 283.948687 180.803553 283.948687 174.528 
" clip-path="url(#p9620e7dab5)" style="fill: none; stroke: #b0b0b0; stroke-width: 0.8; stroke-linecap: square"/>
     </g>
     <g id="text_11">
      <!-- 0.75 -->
      <g transform="translate(280.310989 154.160374) scale(0.1 -0.1)">
       <use xlink:href="#DejaVuSans-30"/>
       <use xlink:href="#DejaVuSans-2e" transform="translate(63.623047 0)"/>
       <use xlink:href="#DejaVuSans-37" transform="translate(95.410156 0)"/>
       <use xlink:href="#DejaVuSans-35" transform="translate(159.033203 0)"/>
      </g>
     </g>
    </g>
    <g id="ytick_4">
     <g id="line2d_12">
      <path d="M 299.878249 174.528 
C 299.878249 166.160596 298.230053 157.874555 295.027986 150.144082 
C 291.825919 142.413609 287.132254 135.389042 281.215606 129.472394 
C 275.298958 123.555746 268.274391 118.862081 260.543918 115.660014 
C 252.813445 112.457947 244.527404 110.809751 236.16 110.809751 
C 227.792596 110.809751 219.506555 112.457947 211.776082 115.660014 
C 204.045609 118.862081 197.021042 123.555746 191.104394 129.472394 
C 185.187746 135.389042 180.494081 142.413609 177.292014 150.144082 
C 174.089947 157.874555 172.441751 166.160596 172.441751 174.528 
C 172.441751 182.895404 174.089947 191.181445 177.292014 198.911918 
C 180.494081 206.642391 185.187746 213.666958 191.104394 219.583606 
C 197.021042 225.500254 204.045609 230.193919 211.776082 233.395986 
C 219.506555 236.598053 227.792596 238.246249 236.16 238.246249 
C 244.527404 238.246249 252.813445 236.598053 260.543918 233.395986 
C 268.274391 230.193919 275.298958 225.500254 281.215606 219.583606 
C 287.132254 213.666958 291.825919 206.642391 295.027986 198.911918 
C 298.230053 191.181445 299.878249 182.895404 299.878249 174.528 
" clip-path="url(#p9620e7dab5)" style="fill: none; stroke: #b0b0b0; stroke-width: 0.8; stroke-linecap: square"/>
     </g>
     <g id="text_12">
      <!-- 1.00 -->
      <g transform="translate(295.027986 148.064394) scale(0.1 -0.1)">
       <use xlink:href="#DejaVuSans-31"/>
       <use xlink:href="#DejaVuSans-2e" transform="translate(63.623047 0)"/>
       <use xlink:href="#DejaVuSans-30" transform="translate(95.410156 0)"/>
       <use xlink:href="#DejaVuSans-30" transform="translate(159.033203 0)"/>
      </g>
     </g>
    </g>
    <g id="ytick_5">
     <g id="line2d_13">
      <path d="M 315.807811 174.528 
C 315.807811 164.068745 313.747566 153.711194 309.744982 144.048102 
C 305.742399 134.385011 299.875317 125.604303 292.479507 118.208493 
C 285.083697 110.812683 276.302989 104.945601 266.639898 100.943018 
C 256.976806 96.940434 246.619255 94.880189 236.16 94.880189 
C 225.700745 94.880189 215.343194 96.940434 205.680102 100.943018 
C 196.017011 104.945601 187.236303 110.812683 179.840493 118.208493 
C 172.444683 125.604303 166.577601 134.385011 162.575018 144.048102 
C 158.572434 153.711194 156.512189 164.068745 156.512189 174.528 
C 156.512189 184.987255 158.572434 195.344806 162.575018 205.007898 
C 166.577601 214.670989 172.444683 223.451697 179.840493 230.847507 
C 187.236303 238.243317 196.017011 244.110399 205.680102 248.112982 
C 215.343194 252.115566 225.700745 254.175811 236.16 254.175811 
C 246.619255 254.175811 256.976806 252.115566 266.639898 248.112982 
C 276.302989 244.110399 285.083697 238.243317 292.479507 230.847507 
C 299.875317 223.451697 305.742399 214.670989 309.744982 205.007898 
C 313.747566 195.344806 315.807811 184.987255 315.807811 174.528 
" clip-path="url(#p9620e7dab5)" style="fill: none; stroke: #b0b0b0; stroke-width: 0.8; stroke-linecap: square"/>
     </g>
     <g id="text_13">
      <!-- 1.25 -->
      <g transform="translate(309.744982 141.968415) scale(0.1 -0.1)">
       <use xlink:href="#DejaVuSans-31"/>
       <use xlink:href="#DejaVuSans-2e" transform="translate(63.623047 0)"/>
       <use xlink:href="#DejaVuSans-32" transform="translate(95.410156 0)"/>
       <use xlink:href="#DejaVuSans-35" transform="translate(159.033203 0)"/>
      </g>
     </g>
    </g>
    <g id="ytick_6">
     <g id="line2d_14">
      <path d="M 331.737373 174.528 
C 331.737373 161.976894 329.265079 149.547832 324.461979 137.952123 
C 319.658879 126.356413 312.618381 115.819563 303.743409 106.944591 
C 294.868437 98.069619 284.331587 91.029121 272.735877 86.226021 
C 261.140168 81.422921 248.711106 78.950627 236.16 78.950627 
C 223.608894 78.950627 211.179832 81.422921 199.584123 86.226021 
C 187.988413 91.029121 177.451563 98.069619 168.576591 106.944591 
C 159.701619 115.819563 152.661121 126.356413 147.858021 137.952123 
C 143.054921 149.547832 140.582627 161.976894 140.582627 174.528 
C 140.582627 187.079106 143.054921 199.508168 147.858021 211.103877 
C 152.661121 222.699587 159.701619 233.236437 168.576591 242.111409 
C 177.451563 250.986381 187.988413 258.026879 199.584123 262.829979 
C 211.179832 267.633079 223.608894 270.105373 236.16 270.105373 
C 248.711106 270.105373 261.140168 267.633079 272.735877 262.829979 
C 284.331587 258.026879 294.868437 250.986381 303.743409 242.111409 
C 312.618381 233.236437 319.658879 222.699587 324.461979 211.103877 
C 329.265079 199.508168 331.737373 187.079106 331.737373 174.528 
" clip-path="url(#p9620e7dab5)" style="fill: none; stroke: #b0b0b0; stroke-width: 0.8; stroke-linecap: square"/>
     </g>
     <g id="text_14">
      <!-- 1.50 -->
      <g transform="translate(324.461979 135.872435) scale(0.1 -0.1)">
       <use xlink:href="#DejaVuSans-31"/>
       <use xlink:href="#DejaVuSans-2e" transform="translate(63.623047 0)"/>
       <use xlink:href="#DejaVuSans-35" transform="translate(95.410156 0)"/>
       <use xlink:href="#DejaVuSans-30" transform="translate(159.033203 0)"/>
      </g>
     </g>
    </g>
    <g id="ytick_7">
     <g id="line2d_15">
      <path d="M 347.666935 174.528 
C 347.666935 159.885043 344.782592 145.384471 339.178975 131.856143 
C 333.575358 118.327815 325.361444 106.034824 315.00731 95.68069 
C 304.653176 85.326556 292.360185 77.112642 278.831857 71.509025 
C 265.303529 65.905408 250.802957 63.021065 236.16 63.021065 
C 221.517043 63.021065 207.016471 65.905408 193.488143 71.509025 
C 179.959815 77.112642 167.666824 85.326556 157.31269 95.68069 
C 146.958556 106.034824 138.744642 118.327815 133.141025 131.856143 
C 127.537408 145.384471 124.653065 159.885043 124.653065 174.528 
C 124.653065 189.170957 127.537408 203.671529 133.141025 217.199857 
C 138.744642 230.728185 146.958556 243.021176 157.31269 253.37531 
C 167.666824 263.729444 179.959815 271.943358 193.488143 277.546975 
C 207.016471 283.150592 221.517043 286.034935 236.16 286.034935 
C 250.802957 286.034935 265.303529 283.150592 278.831857 277.546975 
C 292.360185 271.943358 304.653176 263.729444 315.00731 253.37531 
C 325.361444 243.021176 333.575358 230.728185 339.178975 217.199857 
C 344.782592 203.671529 347.666935 189.170957 347.666935 174.528 
" clip-path="url(#p9620e7dab5)" style="fill: none; stroke: #b0b0b0; stroke-width: 0.8; stroke-linecap: square"/>
     </g>
     <g id="text_15">
      <!-- 1.75 -->
      <g transform="translate(339.178975 129.776456) scale(0.1 -0.1)">
       <use xlink:href="#DejaVuSans-31"/>
       <use xlink:href="#DejaVuSans-2e" transform="translate(63.623047 0)"/>
       <use xlink:href="#DejaVuSans-37" transform="translate(95.410156 0)"/>
       <use xlink:href="#DejaVuSans-35" transform="translate(159.033203 0)"/>
      </g>
     </g>
    </g>
    <g id="ytick_8">
     <g id="line2d_16">
      <path d="M 363.596497 174.528 
C 363.596497 157.793192 360.300105 141.22111 353.895972 125.760164 
C 347.491838 110.299218 338.104507 96.250084 326.271212 84.416788 
C 314.437916 72.583493 300.388782 63.196162 284.927836 56.792028 
C 269.46689 50.387895 252.894808 47.091503 236.16 47.091503 
C 219.425192 47.091503 202.85311 50.387895 187.392164 56.792028 
C 171.931218 63.196162 157.882084 72.583493 146.048788 84.416788 
C 134.215493 96.250084 124.828162 110.299218 118.424028 125.760164 
C 112.019895 141.22111 108.723503 157.793192 108.723503 174.528 
C 108.723503 191.262808 112.019895 207.83489 118.424028 223.295836 
C 124.828162 238.756782 134.215493 252.805916 146.048788 264.639212 
C 157.882084 276.472507 171.931218 285.859838 187.392164 292.263972 
C 202.85311 298.668105 219.425192 301.964497 236.16 301.964497 
C 252.894808 301.964497 269.46689 298.668105 284.927836 292.263972 
C 300.388782 285.859838 314.437916 276.472507 326.271212 264.639212 
C 338.104507 252.805916 347.491838 238.756782 353.895972 223.295836 
C 360.300105 207.83489 363.596497 191.262808 363.596497 174.528 
" clip-path="url(#p9620e7dab5)" style="fill: none; stroke: #b0b0b0; stroke-width: 0.8; stroke-linecap: square"/>
     </g>
     <g id="text_16">
      <!-- 2.00 -->
      <g transform="translate(353.895972 123.680476) scale(0.1 -0.1)">
       <use xlink:href="#DejaVuSans-32"/>
       <use xlink:href="#DejaVuSans-2e" transform="translate(63.623047 0)"/>
       <use xlink:href="#DejaVuSans-30" transform="translate(95.410156 0)"/>
       <use xlink:href="#DejaVuSans-30" transform="translate(159.033203 0)"/>
      </g>
     </g>
    </g>
   </g>
   <g id="patch_3">
    <path d="M 369.216 174.528 
C 369.216 157.055246 365.774248 139.752393 359.087715 123.609673 
C 352.401182 107.466954 342.599903 92.798303 330.2448 80.4432 
C 317.889697 68.088097 303.221046 58.286818 287.078327 51.600285 
C 270.935607 44.913752 253.632754 41.472 236.16 41.472 
C 218.687246 41.472 201.384393 44.913752 185.241673 51.600285 
C 169.098954 58.286818 154.430303 68.088097 142.0752 80.4432 
C 129.720097 92.798303 119.918818 107.466954 113.232285 123.609673 
C 106.545752 139.752393 103.104 157.055246 103.104 174.528 
C 103.104 192.000754 106.545752 209.303607 113.232285 225.446327 
C 119.918818 241.589046 129.720097 256.257697 142.0752 268.6128 
C 154.430303 280.967903 169.098954 290.769182 185.241673 297.455715 
C 201.384393 304.142248 218.687246 307.584 236.16 307.584 
C 253.632754 307.584 270.935607 304.142248 287.078327 297.455715 
C 303.221046 290.769182 317.889697 280.967903 330.2448 268.6128 
C 342.599903 256.257697 352.401182 241.589046 359.087715 225.446327 
C 365.774248 209.303607 369.216 192.000754 369.216 174.528 
" style="fill: none; stroke: #000000; stroke-width: 0.8; stroke-linejoin: miter; stroke-linecap: square"/>
   </g>
  </g>
 </g>
 <defs>
  <clipPath id="p9620e7dab5">
   <path d="M 369.216 174.528 
C 369.216 157.055246 365.774248 139.752393 359.087715 123.609673 
C 352.401182 107.466954 342.599903 92.798303 330.2448 80.4432 
C 317.889697 68.088097 303.221046 58.286818 287.078327 51.600285 
C 270.935607 44.913752 253.632754 41.472 236.16 41.472 
C 218.687246 41.472 201.384393 44.913752 185.241673 51.600285 
C 169.098954 58.286818 154.430303 68.088097 142.0752 80.4432 
C 129.720097 92.798303 119.918818 107.466954 113.232285 123.609673 
C 106.545752 139.752393 103.104 157.055246 103.104 174.528 
C 103.104 192.000754 106.545752 209.303607 113.232285 225.446327 
C 119.918818 241.589046 129.720097 256.257697 142.0752 268.6128 
C 154.430303 280.967903 169.098954 290.769182 185.241673 297.455715 
C 201.384393 304.142248 218.687246 307.584 236.16 307.584 
C 253.632754 307.584 270.935607 304.142248 287.078327 297.455715 
C 303.221046 290.769182 317.889697 280.967903 330.2448 268.6128 
C 342.599903 256.257697 352.401182 241.589046 359.087715 225.446327 
C 365.774248 209.303607 369.216 192.000754 369.216 174.528 
M 236.16 174.528 
C 236.16 174.528 236.16 174.528 236.16 174.528 
C 236.16 174.528 236.16 174.528 236.16 174.528 
C 236.16 174.528 236.16 174.528 236.16 174.528 
C 236.16 174.528 236.16 174.528 236.16 174.528 
C 236.16 174.528 236.16 174.528 236.16 174.528 
C 236.16 174.528 236.16 174.528 236.16 174.528 
C 236.16 174.528 236.16 174.528 236.16 174.528 
C 236.16 174.528 236.16 174.528 236.16 174.528 
C 236.16 174.528 236.16 174.528 236.16 174.528 
C 236.16 174.528 236.16 174.528 236.16 174.528 
C 236.16 174.528 236.16 174.528 236.16 174.528 
C 236.16 174.528 236.16 174.528 236.16 174.528 
C 236.16 174.528 236.16 174.528 236.16 174.528 
C 236.16 174.528 236.16 174.528 236.16 174.528 
C 236.16 174.528 236.16 174.528 236.16 174.528 
C 236.16 174.528 236.16 174.528 236.16 174.528 
z
"/>
  </clipPath>
 </defs>
</svg>
