<?xml version="1.0" encoding="utf-8" standalone="no"?>
<!DOCTYPE svg PUBLIC "-//W3C//DTD SVG 1.1//EN"
  "http://www.w3.org/Graphics/SVG/1.1/DTD/svg11.dtd">
<svg xmlns:xlink="http://www.w3.org/1999/xlink" width="360pt" height="360pt" viewBox="0 0 360 360" xmlns="http://www.w3.org/2000/svg" version="1.1">
 <metadata>
  <rdf:RDF xmlns:dc="http://purl.org/dc/elements/1.1/" xmlns:cc="http://creativecommons.org/ns#" xmlns:rdf="http://www.w3.org/1999/02/22-rdf-syntax-ns#">
   <cc:Work>
    <dc:type rdf:resource="http://purl.org/dc/dcmitype/StillImage"/>
    <dc:date>2025-11-29T13:30:49.634228</dc:date>
    <dc:format>image/svg+xml</dc:format>
    <dc:creator>
     <cc:Agent>
      <dc:title>Matplotlib v3.10.6, https://matplotlib.org/</dc:title>
     </cc:Agent>
    </dc:creator>
   </cc:Work>
  </rdf:RDF>
 </metadata>
 <defs>
  <style type="text/css">*{stroke-linejoin: round; stroke-linecap: butt}</style>
 </defs>
 <g id="figure_1">
  <g id="patch_1">
   <path d="M 0 360 
L 360 360 
L 360 0 
L 0 0 
z
" style="fill: #ffffff"/>
  </g>
  <g id="axes_1">
   <g id="patch_2">
    <path d="M 323.1 181.8 
C 323.1 163.599215 319.514842 145.575409 312.549703 128.760076 
C 305.584564 111.944743 295.374899 96.664899 282.505 83.795 
C 269.635101 70.925101 254.355257 60.715436 237.539924 53.750297 
C 220.724591 46.785158 202.700785 43.2 184.5 43.2 
C 166.299215 43.2 148.275409 46.785158 131.460076 53.750297 
C 114.644743 60.715436 99.364899 70.925101 86.495 83.795 
C 73.625101 96.664899 63.415436 111.944743 56.450297 128.760076 
C 49.485158 145.575409 45.9 163.599215 45.9 181.8 
C 45.9 200.000785 49.485158 218.024591 56.450297 234.839924 
C 63.415436 251.655257 73.625101 266.935101 86.495 279.805 
C 99.364899 292.674899 114.644743 302.884564 131.460076 309.849703 
C 148.275409 316.814842 166.299215 320.4 184.5 320.4 
C 202.700785 320.4 220.724591 316.814842 237.539924 309.849703 
C 254.355257 302.884564 269.635101 292.674899 282.505 279.805 
C 295.374899 266.935101 305.584564 251.655257 312.549703 234.839924 
C 319.514842 218.024591 323.1 200.000785 323.1 181.8 
M 184.5 181.8 
C 184.5 181.8 184.5 181.8 184.5 181.8 
C 184.5 181.8 184.5 181.8 184.5 181.8 
C 184.5 181.8 184.5 181.8 184.5 181.8 
C 184.5 181.8 184.5 181.8 184.5 181.8 
C 184.5 181.8 184.5 181.8 184.5 181.8 
C 184.5 181.8 184.5 181.8 184.5 181.8 
C 184.5 181.8 184.5 181.8 184.5 181.8 
C 184.5 181.8 184.5 181.8 184.5 181.8 
C 184.5 181.8 184.5 181.8 184.5 181.8 
C 184.5 181.8 184.5 181.8 184.5 181.8 
C 184.5 181.8 184.5 181.8 184.5 181.8 
C 184.5 181.8 184.5 181.8 184.5 181.8 
C 184.5 181.8 184.5 181.8 184.5 181.8 
C 184.5 181.8 184.5 181.8 184.5 181.8 
C 184.5 181.8 184.5 181.8 184.5 181.8 
C 184.5 181.8 184.5 181.8 184.5 181.8 
z
" style="fill: #ffffff"/>
   </g>
   <g id="matplotlib.axis_1">
    <g id="xtick_1">
     <g id="line2d_1">
      <path d="M 184.5 181.8 
L 323.1 181.8 
" clip-path="url(#pfebca9bea0)" style="fill: none; stroke: #b0b0b0; stroke-width: 0.8; stroke-linecap: square"/>
     </g>
     <g id="text_1">
      <!-- 0° -->
      <g transform="translate(331.41875 184.559375) scale(0.1 -0.1)">
       <defs>
        <path id="DejaVuSans-30" d="M 2034 4250 
Q 1547 4250 1301 3770 
Q 1056 3291 1056 2328 
Q 1056 1369 1301 889 
Q 1547 409 2034 409 
Q 2525 409 2770 889 
Q 3016 1369 3016 2328 
Q 3016 3291 2770 3770 
Q 2525 4250 2034 4250 
z
M 2034 4750 
Q 2819 4750 3233 4129 
Q 3647 3509 3647 2328 
Q 3647 1150 3233 529 
Q 2819 -91 2034 -91 
Q 1250 -91 836 529 
Q 422 1150 422 2328 
Q 422 3509 836 4129 
Q 1250 4750 2034 4750 
z
" transform="scale(0.015625)"/>
        <path id="DejaVuSans-b0" d="M 1600 4347 
Q 1350 4347 1178 4173 
Q 1006 4000 1006 3750 
Q 1006 3503 1178 3333 
Q 1350 3163 1600 3163 
Q 1850 3163 2022 3333 
Q 2194 3503 2194 3750 
Q 2194 3997 2020 4172 
Q 1847 4347 1600 4347 
z
M 1600 4750 
Q 1800 4750 1984 4673 
Q 2169 4597 2303 4453 
Q 2447 4313 2519 4134 
Q 2591 3956 2591 3750 
Q 2591 3338 2302 3052 
Q 2013 2766 1594 2766 
Q 1172 2766 890 3047 
Q 609 3328 609 3750 
Q 609 4169 896 4459 
Q 1184 4750 1600 4750 
z
" transform="scale(0.015625)"/>
       </defs>
       <use xlink:href="#DejaVuSans-30"/>
       <use xlink:href="#DejaVuSans-b0" transform="translate(63.623047 0)"/>
      </g>
     </g>
    </g>
    <g id="xtick_2">
     <g id="line2d_2">
      <path d="M 184.5 181.8 
L 282.505 83.795 
" clip-path="url(#pfebca9bea0)" style="fill: none; stroke: #b0b0b0; stroke-width: 0.8; stroke-linecap: square"/>
     </g>
     <g id="text_2">
      <!-- 45° -->
      <g transform="translate(283.541995 76.65488) scale(0.1 -0.1)">
       <defs>
        <path id="DejaVuSans-34" d="M 2419 4116 
L 825 1625 
L 2419 1625 
L 2419 4116 
z
M 2253 4666 
L 3047 4666 
L 3047 1625 
L 3713 1625 
L 3713 1100 
L 3047 1100 
L 3047 0 
L 2419 0 
L 2419 1100 
L 313 1100 
L 313 1709 
L 2253 4666 
z
" transform="scale(0.015625)"/>
        <path id="DejaVuSans-35" d="M 691 4666 
L 3169 4666 
L 3169 4134 
L 1269 4134 
L 1269 2991 
Q 1406 3038 1543 3061 
Q 1681 3084 1819 3084 
Q 2600 3084 3056 2656 
Q 3513 2228 3513 1497 
Q 3513 744 3044 326 
Q 2575 -91 1722 -91 
Q 1428 -91 1123 -41 
Q 819 9 494 109 
L 494 744 
Q 775 591 1075 516 
Q 1375 441 1709 441 
Q 2250 441 2565 725 
Q 2881 1009 2881 1497 
Q 2881 1984 2565 2268 
Q 2250 2553 1709 2553 
Q 1456 2553 1204 2497 
Q 953 2441 691 2322 
L 691 4666 
z
" transform="scale(0.015625)"/>
       </defs>
       <use xlink:href="#DejaVuSans-34"/>
       <use xlink:href="#DejaVuSans-35" transform="translate(63.623047 0)"/>
       <use xlink:href="#DejaVuSans-b0" transform="translate(127.246094 0)"/>
      </g>
     </g>
    </g>
    <g id="xtick_3">
     <g id="line2d_3">
      <path d="M 184.5 181.8 
L 184.5 43.2 
" clip-path="url(#pfebca9bea0)" style="fill: none; stroke: #b0b0b0; stroke-width: 0.8; stroke-linecap: square"/>
     </g>
     <g id="text_3">
      <!-- 90° -->
      <g transform="translate(175.6375 31.959375) scale(0.1 -0.1)">
       <defs>
        <path id="DejaVuSans-39" d="M 703 97 
L 703 672 
Q 941 559 1184 500 
Q 1428 441 1663 441 
Q 2288 441 2617 861 
Q 2947 1281 2994 2138 
Q 2813 1869 2534 1725 
Q 2256 1581 1919 1581 
Q 1219 1581 811 2004 
Q 403 2428 403 3163 
Q 403 3881 828 4315 
Q 1253 4750 1959 4750 
Q 2769 4750 3195 4129 
Q 3622 3509 3622 2328 
Q 3622 1225 3098 567 
Q 2575 -91 1691 -91 
Q 1453 -91 1209 -44 
Q 966 3 703 97 
z
M 1959 2075 
Q 2384 2075 2632 2365 
Q 2881 2656 2881 3163 
Q 2881 3666 2632 3958 
Q 2384 4250 1959 4250 
Q 1534 4250 1286 3958 
Q 1038 3666 1038 3163 
Q 1038 2656 1286 2365 
Q 1534 2075 1959 2075 
z
" transform="scale(0.015625)"/>
       </defs>
       <use xlink:href="#DejaVuSans-39"/>
       <use xlink:href="#DejaVuSans-30" transform="translate(63.623047 0)"/>
       <use xlink:href="#DejaVuSans-b0" transform="translate(127.246094 0)"/>
      </g>
     </g>
    </g>
    <g id="xtick_4">
     <g id="line2d_4">
      <path d="M 184.5 181.8 
L 86.495 83.795 
" clip-path="url(#pfebca9bea0)" style="fill: none; stroke: #b0b0b0; stroke-width: 0.8; stroke-linecap: square"/>
     </g>
     <g id="text_4">
      <!-- 135° -->
      <g transform="translate(64.551755 76.65488) scale(0.1 -0.1)">
       <defs>
        <path id="DejaVuSans-31" d="M 794 531 
L 1825 531 
L 1825 4091 
L 703 3866 
L 703 4441 
L 1819 4666 
L 2450 4666 
L 2450 531 
L 3481 531 
L 3481 0 
L 794 0 
L 794 531 
z
" transform="scale(0.015625)"/>
        <path id="DejaVuSans-33" d="M 2597 2516 
Q 3050 2419 3304 2112 
Q 3559 1806 3559 1356 
Q 3559 666 3084 287 
Q 2609 -91 1734 -91 
Q 1441 -91 1130 -33 
Q 819 25 488 141 
L 488 750 
Q 750 597 1062 519 
Q 1375 441 1716 441 
Q 2309 441 2620 675 
Q 2931 909 2931 1356 
Q 2931 1769 2642 2001 
Q 2353 2234 1838 2234 
L 1294 2234 
L 1294 2753 
L 1863 2753 
Q 2328 2753 2575 2939 
Q 2822 3125 2822 3475 
Q 2822 3834 2567 4026 
Q 2313 4219 1838 4219 
Q 1578 4219 1281 4162 
Q 984 4106 628 3988 
L 628 4550 
Q 988 4650 1302 4700 
Q 1616 4750 1894 4750 
Q 2613 4750 3031 4423 
Q 3450 4097 3450 3541 
Q 3450 3153 3228 2886 
Q 3006 2619 2597 2516 
z
" transform="scale(0.015625)"/>
       </defs>
       <use xlink:href="#DejaVuSans-31"/>
       <use xlink:href="#DejaVuSans-33" transform="translate(63.623047 0)"/>
       <use xlink:href="#DejaVuSans-35" transform="translate(127.246094 0)"/>
       <use xlink:href="#DejaVuSans-b0" transform="translate(190.869141 0)"/>
      </g>
     </g>
    </g>
    <g id="xtick_5">
     <g id="line2d_5">
      <path d="M 184.5 181.8 
L 45.9 181.8 
" clip-path="url(#pfebca9bea0)" style="fill: none; stroke: #b0b0b0; stroke-width: 0.8; stroke-linecap: square"/>
     </g>
     <g id="text_5">
      <!-- 180° -->
      <g transform="translate(19.85625 184.559375) scale(0.1 -0.1)">
       <defs>
        <path id="DejaVuSans-38" d="M 2034 2216 
Q 1584 2216 1326 1975 
Q 1069 1734 1069 1313 
Q 1069 891 1326 650 
Q 1584 409 2034 409 
Q 2484 409 2743 651 
Q 3003 894 3003 1313 
Q 3003 1734 2745 1975 
Q 2488 2216 2034 2216 
z
M 1403 2484 
Q 997 2584 770 2862 
Q 544 3141 544 3541 
Q 544 4100 942 4425 
Q 1341 4750 2034 4750 
Q 2731 4750 3128 4425 
Q 3525 4100 3525 3541 
Q 3525 3141 3298 2862 
Q 3072 2584 2669 2484 
Q 3125 2378 3379 2068 
Q 3634 1759 3634 1313 
Q 3634 634 3220 271 
Q 2806 -91 2034 -91 
Q 1263 -91 848 271 
Q 434 634 434 1313 
Q 434 1759 690 2068 
Q 947 2378 1403 2484 
z
M 1172 3481 
Q 1172 3119 1398 2916 
Q 1625 2713 2034 2713 
Q 2441 2713 2670 2916 
Q 2900 3119 2900 3481 
Q 2900 3844 2670 4047 
Q 2441 4250 2034 4250 
Q 1625 4250 1398 4047 
Q 1172 3844 1172 3481 
z
" transform="scale(0.015625)"/>
       </defs>
       <use xlink:href="#DejaVuSans-31"/>
       <use xlink:href="#DejaVuSans-38" transform="translate(63.623047 0)"/>
       <use xlink:href="#DejaVuSans-30" transform="translate(127.246094 0)"/>
       <use xlink:href="#DejaVuSans-b0" transform="translate(190.869141 0)"/>
      </g>
     </g>
    </g>
    <g id="xtick_6">
     <g id="line2d_6">
      <path d="M 184.5 181.8 
L 86.495 279.805 
" clip-path="url(#pfebca9bea0)" style="fill: none; stroke: #b0b0b0; stroke-width: 0.8; stroke-linecap: square"/>
     </g>
     <g id="text_6">
      <!-- 225° -->
      <g transform="translate(64.551755 292.46387) scale(0.1 -0.1)">
       <defs>
        <path id="DejaVuSans-32" d="M 1228 531 
L 3431 531 
L 3431 0 
L 469 0 
L 469 531 
Q 828 903 1448 1529 
Q 2069 2156 2228 2338 
Q 2531 2678 2651 2914 
Q 2772 3150 2772 3378 
Q 2772 3750 2511 3984 
Q 2250 4219 1831 4219 
Q 1534 4219 1204 4116 
Q 875 4013 500 3803 
L 500 4441 
Q 881 4594 1212 4672 
Q 1544 4750 1819 4750 
Q 2544 4750 2975 4387 
Q 3406 4025 3406 3419 
Q 3406 3131 3298 2873 
Q 3191 2616 2906 2266 
Q 2828 2175 2409 1742 
Q 1991 1309 1228 531 
z
" transform="scale(0.015625)"/>
       </defs>
       <use xlink:href="#DejaVuSans-32"/>
       <use xlink:href="#DejaVuSans-32" transform="translate(63.623047 0)"/>
       <use xlink:href="#DejaVuSans-35" transform="translate(127.246094 0)"/>
       <use xlink:href="#DejaVuSans-b0" transform="translate(190.869141 0)"/>
      </g>
     </g>
    </g>
    <g id="xtick_7">
     <g id="line2d_7">
      <path d="M 184.5 181.8 
L 184.5 320.4 
" clip-path="url(#pfebca9bea0)" style="fill: none; stroke: #b0b0b0; stroke-width: 0.8; stroke-linecap: square"/>
     </g>
     <g id="text_7">
      <!-- 270° -->
      <g transform="translate(172.45625 337.159375) scale(0.1 -0.1)">
       <defs>
        <path id="DejaVuSans-37" d="M 525 4666 
L 3525 4666 
L 3525 4397 
L 1831 0 
L 1172 0 
L 2766 4134 
L 525 4134 
L 525 4666 
z
" transform="scale(0.015625)"/>
       </defs>
       <use xlink:href="#DejaVuSans-32"/>
       <use xlink:href="#DejaVuSans-37" transform="translate(63.623047 0)"/>
       <use xlink:href="#DejaVuSans-30" transform="translate(127.246094 0)"/>
       <use xlink:href="#DejaVuSans-b0" transform="translate(190.869141 0)"/>
      </g>
     </g>
    </g>
    <g id="xtick_8">
     <g id="line2d_8">
      <path d="M 184.5 181.8 
L 282.505 279.805 
" clip-path="url(#pfebca9bea0)" style="fill: none; stroke: #b0b0b0; stroke-width: 0.8; stroke-linecap: square"/>
     </g>
     <g id="text_8">
      <!-- 315° -->
      <g transform="translate(280.360745 292.46387) scale(0.1 -0.1)">
       <use xlink:href="#DejaVuSans-33"/>
       <use xlink:href="#DejaVuSans-31" transform="translate(63.623047 0)"/>
       <use xlink:href="#DejaVuSans-35" transform="translate(127.246094 0)"/>
       <use xlink:href="#DejaVuSans-b0" transform="translate(190.869141 0)"/>
      </g>
     </g>
    </g>
   </g>
   <g id="matplotlib.axis_2">
    <g id="ytick_1">
     <g id="line2d_9">
      <path d="M 201.26615 181.8 
C 201.26615 179.598289 200.832461 177.417988 199.989903 175.383872 
C 199.147345 173.349757 197.912303 171.501386 196.355458 169.944542 
C 194.798614 168.387697 192.950243 167.152655 190.916128 166.310097 
C 188.882012 165.467539 186.701711 165.03385 184.5 165.03385 
C 182.298289 165.03385 180.117988 165.467539 178.083872 166.310097 
C 176.049757 167.152655 174.201386 168.387697 172.644542 169.944542 
C 171.087697 171.501386 169.852655 173.349757 169.010097 175.383872 
C 168.167539 177.417988 167.73385 179.598289 167.73385 181.8 
C 167.73385 184.001711 168.167539 186.182012 169.010097 188.216128 
C 169.852655 190.250243 171.087697 192.098614 172.644542 193.655458 
C 174.201386 195.212303 176.049757 196.447345 178.083872 197.289903 
C 180.117988 198.132461 182.298289 198.56615 184.5 198.56615 
C 186.701711 198.56615 188.882012 198.132461 190.916128 197.289903 
C 192.950243 196.447345 194.798614 195.212303 196.355458 193.655458 
C 197.912303 192.098614 199.147345 190.250243 199.989903 188.216128 
C 200.832461 186.182012 201.26615 184.001711 201.26615 181.8 
" clip-path="url(#pfebca9bea0)" style="fill: none; stroke: #b0b0b0; stroke-width: 0.8; stroke-linecap: square"/>
     </g>
    </g>
    <g id="ytick_2">
     <g id="line2d_10">
      <path d="M 218.0323 181.8 
C 218.0323 177.396579 217.164922 173.035975 215.479806 168.967744 
C 213.794689 164.899513 211.324606 161.202772 208.210917 158.089083 
C 205.097228 154.975394 201.400487 152.505311 197.332256 150.820194 
C 193.264025 149.135078 188.903421 148.2677 184.5 148.2677 
C 180.096579 148.2677 175.735975 149.135078 171.667744 150.820194 
C 167.599513 152.505311 163.902772 154.975394 160.789083 158.089083 
C 157.675394 161.202772 155.205311 164.899513 153.520194 168.967744 
C 151.835078 173.035975 150.9677 177.396579 150.9677 181.8 
C 150.9677 186.203421 151.835078 190.564025 153.520194 194.632256 
C 155.205311 198.700487 157.675394 202.397228 160.789083 205.510917 
C 163.902772 208.624606 167.599513 211.094689 171.667744 212.779806 
C 175.735975 214.464922 180.096579 215.3323 184.5 215.3323 
C 188.903421 215.3323 193.264025 214.464922 197.332256 212.779806 
C 201.400487 211.094689 205.097228 208.624606 208.210917 205.510917 
C 211.324606 202.397228 213.794689 198.700487 215.479806 194.632256 
C 217.164922 190.564025 218.0323 186.203421 218.0323 181.8 
" clip-path="url(#pfebca9bea0)" style="fill: none; stroke: #b0b0b0; stroke-width: 0.8; stroke-linecap: square"/>
     </g>
    </g>
    <g id="ytick_3">
     <g id="line2d_11">
      <path d="M 234.79845 181.8 
C 234.79845 175.194868 233.497383 168.653963 230.969709 162.551616 
C 228.442034 156.44927 224.736909 150.904158 220.066375 146.233625 
C 215.395842 141.563091 209.85073 137.857966 203.748384 135.330291 
C 197.646037 132.802617 191.105132 131.50155 184.5 131.50155 
C 177.894868 131.50155 171.353963 132.802617 165.251616 135.330291 
C 159.14927 137.857966 153.604158 141.563091 148.933625 146.233625 
C 144.263091 150.904158 140.557966 156.44927 138.030291 162.551616 
C 135.502617 168.653963 134.20155 175.194868 134.20155 181.8 
C 134.20155 188.405132 135.502617 194.946037 138.030291 201.048384 
C 140.557966 207.15073 144.263091 212.695842 148.933625 217.366375 
C 153.604158 222.036909 159.14927 225.742034 165.251616 228.269709 
C 171.353963 230.797383 177.894868 232.09845 184.5 232.09845 
C 191.105132 232.09845 197.646037 230.797383 203.748384 228.269709 
C 209.85073 225.742034 215.395842 222.036909 220.066375 217.366375 
C 224.736909 212.695842 228.442034 207.15073 230.969709 201.048384 
C 233.497383 194.946037 234.79845 188.405132 234.79845 181.8 
" clip-path="url(#pfebca9bea0)" style="fill: none; stroke: #b0b0b0; stroke-width: 0.8; stroke-linecap: square"/>
     </g>
    </g>
    <g id="ytick_4">
     <g id="line2d_12">
      <path d="M 251.5646 181.8 
C 251.5646 172.993157 249.829844 164.27195 246.459612 156.135489 
C 243.089379 147.999027 238.149212 140.605544 231.921834 134.378166 
C 225.694456 128.150788 218.300973 123.210621 210.164511 119.840388 
C 202.02805 116.470156 193.306843 114.7354 184.5 114.7354 
C 175.693157 114.7354 166.97195 116.470156 158.835489 119.840388 
C 150.699027 123.210621 143.305544 128.150788 137.078166 134.378166 
C 130.850788 140.605544 125.910621 147.999027 122.540388 156.135489 
C 119.170156 164.27195 117.4354 172.993157 117.4354 181.8 
C 117.4354 190.606843 119.170156 199.32805 122.540388 207.464511 
C 125.910621 215.600973 130.850788 222.994456 137.078166 229.221834 
C 143.305544 235.449212 150.699027 240.389379 158.835489 243.759612 
C 166.97195 247.129844 175.693157 248.8646 184.5 248.8646 
C 193.306843 248.8646 202.02805 247.129844 210.164511 243.759612 
C 218.300973 240.389379 225.694456 235.449212 231.921834 229.221834 
C 238.149212 222.994456 243.089379 215.600973 246.459612 207.464511 
C 249.829844 199.32805 251.5646 190.606843 251.5646 181.8 
" clip-path="url(#pfebca9bea0)" style="fill: none; stroke: #b0b0b0; stroke-width: 0.8; stroke-linecap: square"/>
     </g>
    </g>
    <g id="ytick_5">
     <g id="line2d_13">
      <path d="M 268.33075 181.8 
C 268.33075 170.791447 266.162305 159.889938 261.949514 149.719361 
C 257.736723 139.548784 251.561515 130.306931 243.777292 122.522708 
C 235.993069 114.738485 226.751216 108.563277 216.580639 104.350486 
C 206.410062 100.137695 195.508553 97.96925 184.5 97.96925 
C 173.491447 97.96925 162.589938 100.137695 152.419361 104.350486 
C 142.248784 108.563277 133.006931 114.738485 125.222708 122.522708 
C 117.438485 130.306931 111.263277 139.548784 107.050486 149.719361 
C 102.837695 159.889938 100.66925 170.791447 100.66925 181.8 
C 100.66925 192.808553 102.837695 203.710062 107.050486 213.880639 
C 111.263277 224.051216 117.438485 233.293069 125.222708 241.077292 
C 133.006931 248.861515 142.248784 255.036723 152.419361 259.249514 
C 162.589938 263.462305 173.491447 265.63075 184.5 265.63075 
C 195.508553 265.63075 206.410062 263.462305 216.580639 259.249514 
C 226.751216 255.036723 235.993069 248.861515 243.777292 241.077292 
C 251.561515 233.293069 257.736723 224.051216 261.949514 213.880639 
C 266.162305 203.710062 268.33075 192.808553 268.33075 181.8 
" clip-path="url(#pfebca9bea0)" style="fill: none; stroke: #b0b0b0; stroke-width: 0.8; stroke-linecap: square"/>
     </g>
    </g>
    <g id="ytick_6">
     <g id="line2d_14">
      <path d="M 285.0969 181.8 
C 285.0969 168.589736 282.494766 155.507925 277.439417 143.303233 
C 272.384068 131.09854 264.973818 120.008317 255.63275 110.66725 
C 246.291683 101.326182 235.20146 93.915932 222.996767 88.860583 
C 210.792075 83.805234 197.710264 81.2031 184.5 81.2031 
C 171.289736 81.2031 158.207925 83.805234 146.003233 88.860583 
C 133.79854 93.915932 122.708317 101.326182 113.36725 110.66725 
C 104.026182 120.008317 96.615932 131.09854 91.560583 143.303233 
C 86.505234 155.507925 83.9031 168.589736 83.9031 181.8 
C 83.9031 195.010264 86.505234 208.092075 91.560583 220.296767 
C 96.615932 232.50146 104.026182 243.591683 113.36725 252.93275 
C 122.708317 262.273818 133.79854 269.684068 146.003233 274.739417 
C 158.207925 279.794766 171.289736 282.3969 184.5 282.3969 
C 197.710264 282.3969 210.792075 279.794766 222.996767 274.739417 
C 235.20146 269.684068 246.291683 262.273818 255.63275 252.93275 
C 264.973818 243.591683 272.384068 232.50146 277.439417 220.296767 
C 282.494766 208.092075 285.0969 195.010264 285.0969 181.8 
" clip-path="url(#pfebca9bea0)" style="fill: none; stroke: #b0b0b0; stroke-width: 0.8; stroke-linecap: square"/>
     </g>
    </g>
    <g id="ytick_7">
     <g id="line2d_15">
      <path d="M 301.86305 181.8 
C 301.86305 166.388025 298.827228 151.125913 292.92932 136.887105 
C 287.031413 122.648297 278.386121 109.709703 267.488209 98.811791 
C 256.590297 87.913879 243.651703 79.268587 229.412895 73.37068 
C 215.174087 67.472772 199.911975 64.43695 184.5 64.43695 
C 169.088025 64.43695 153.825913 67.472772 139.587105 73.37068 
C 125.348297 79.268587 112.409703 87.913879 101.511791 98.811791 
C 90.613879 109.709703 81.968587 122.648297 76.07068 136.887105 
C 70.172772 151.125913 67.13695 166.388025 67.13695 181.8 
C 67.13695 197.211975 70.172772 212.474087 76.07068 226.712895 
C 81.968587 240.951703 90.613879 253.890297 101.511791 264.788209 
C 112.409703 275.686121 125.348297 284.331413 139.587105 290.22932 
C 153.825913 296.127228 169.088025 299.16305 184.5 299.16305 
C 199.911975 299.16305 215.174087 296.127228 229.412895 290.22932 
C 243.651703 284.331413 256.590297 275.686121 267.488209 264.788209 
C 278.386121 253.890297 287.031413 240.951703 292.92932 226.712895 
C 298.827228 212.474087 301.86305 197.211975 301.86305 181.8 
" clip-path="url(#pfebca9bea0)" style="fill: none; stroke: #b0b0b0; stroke-width: 0.8; stroke-linecap: square"/>
     </g>
    </g>
    <g id="ytick_8">
     <g id="line2d_16">
      <path d="M 318.629201 181.8 
C 318.629201 164.186315 315.159689 146.7439 308.419223 130.470977 
C 301.678758 114.198054 291.798424 99.411089 279.343667 86.956333 
C 266.888911 74.501576 252.101946 64.621242 235.829023 57.880777 
C 219.5561 51.140311 202.113685 47.670799 184.5 47.670799 
C 166.886315 47.670799 149.4439 51.140311 133.170977 57.880777 
C 116.898054 64.621242 102.111089 74.501576 89.656333 86.956333 
C 77.201576 99.411089 67.321242 114.198054 60.580777 130.470977 
C 53.840311 146.7439 50.370799 164.186315 50.370799 181.8 
C 50.370799 199.413685 53.840311 216.8561 60.580777 233.129023 
C 67.321242 249.401946 77.201576 264.188911 89.656333 276.643667 
C 102.111089 289.098424 116.898054 298.978758 133.170977 305.719223 
C 149.4439 312.459689 166.886315 315.929201 184.5 315.929201 
C 202.113685 315.929201 219.5561 312.459689 235.829023 305.719223 
C 252.101946 298.978758 266.888911 289.098424 279.343667 276.643667 
C 291.798424 264.188911 301.678758 249.401946 308.419223 233.129023 
C 315.159689 216.8561 318.629201 199.413685 318.629201 181.8 
" clip-path="url(#pfebca9bea0)" style="fill: none; stroke: #b0b0b0; stroke-width: 0.8; stroke-linecap: square"/>
     </g>
    </g>
   </g>
   <g id="line2d_17">
    <path d="M 229.209734 181.8 
L 229.102334 178.00569 
L 228.779361 174.211413 
L 228.238487 170.417335 
L 227.475815 166.623891 
L 226.485852 162.831936 
L 225.261473 159.042903 
L 223.852691 155.399008 
L 222.209028 151.762664 
L 220.31961 148.137714 
L 218.259553 144.667681 
L 215.948401 141.218789 
L 213.48072 137.934653 
L 210.755672 134.685095 
L 207.889381 131.612713 
L 204.760052 128.592143 
L 201.507565 125.763296 
L 197.988543 123.007132 
L 194.368762 120.458564 
L 190.673961 118.120977 
L 186.727982 115.887035 
L 182.738297 113.877391 
L 178.506494 111.995479 
L 174.268497 110.348481 
L 169.803611 108.852895 
L 165.376109 107.598219 
L 160.743324 106.516484 
L 156.196659 105.675079 
L 151.472202 105.024157 
L 146.575023 104.583706 
L 141.833744 104.380694 
L 136.955827 104.399385 
L 132.289547 104.633393 
L 127.525058 105.09241 
L 122.675911 105.792073 
L 118.111346 106.670784 
L 113.502589 107.782439 
L 108.866708 109.138587 
L 104.579956 110.616741 
L 100.303246 112.320059 
L 96.05495 114.255219 
L 91.854973 116.427708 
L 88.065659 118.631142 
L 84.352311 121.039358 
L 80.733184 123.652974 
L 77.227218 126.471169 
L 73.853866 129.491548 
L 70.918892 132.409402 
L 68.124778 135.486674 
L 65.486357 138.71778 
L 63.018205 142.09586 
L 60.734465 145.612765 
L 58.648667 149.25908 
L 56.773549 153.024155 
L 55.275816 156.504514 
L 53.966061 160.062127 
L 52.851218 163.68696 
L 51.937286 167.368398 
L 51.229246 171.095325 
L 50.731 174.856217 
L 50.445314 178.639245 
L 50.373781 182.432376 
L 50.516802 186.223484 
L 50.873577 190.000462 
L 51.442119 193.751334 
L 52.219277 197.46436 
L 53.200785 201.128142 
L 54.381313 204.731721 
L 55.754542 208.264667 
L 57.313242 211.717156 
L 59.252848 215.447792 
L 61.399405 219.056347 
L 63.739921 222.532536 
L 66.260662 225.867321 
L 68.947336 229.052939 
L 71.785273 232.082914 
L 74.759594 234.952042 
L 78.171065 237.917611 
L 81.709804 240.680181 
L 85.35648 243.237797 
L 89.092324 245.590045 
L 92.899293 247.737912 
L 97.113297 249.850629 
L 101.370504 251.727264 
L 105.651386 253.373622 
L 109.937963 254.796649 
L 114.569212 256.095388 
L 119.169207 257.152238 
L 123.721374 257.978894 
L 128.553646 258.625677 
L 133.298148 259.035161 
L 137.941849 259.222983 
L 142.793238 259.195849 
L 147.506089 258.950699 
L 152.371379 258.469208 
L 157.062817 257.781084 
L 161.851826 256.84563 
L 166.436348 255.721381 
L 171.066795 254.348018 
L 175.468328 252.808364 
L 179.869406 251.025196 
L 184.024032 249.100901 
L 188.138233 246.943967 
L 191.995226 244.671794 
L 195.778505 242.181029 
L 199.299853 239.59998 
L 202.72044 236.815686 
L 205.879222 233.96386 
L 208.915482 230.923917 
L 211.693483 227.836143 
L 214.331197 224.574035 
L 216.716099 221.280286 
L 218.945469 217.823898 
L 220.92786 214.34841 
L 222.740411 210.719474 
L 224.310716 207.080449 
L 225.649178 203.434838 
L 226.80326 199.644749 
L 227.725209 195.852233 
L 228.421663 192.058534 
L 228.897638 188.264366 
L 229.156565 184.47007 
L 229.209734 181.8 
L 229.209734 181.8 
" clip-path="url(#pfebca9bea0)" style="fill: none; stroke: #1f77b4; stroke-width: 1.5; stroke-linecap: square"/>
   </g>
   <g id="patch_3">
    <path d="M 323.1 181.8 
C 323.1 163.599215 319.514842 145.575409 312.549703 128.760076 
C 305.584564 111.944743 295.374899 96.664899 282.505 83.795 
C 269.635101 70.925101 254.355257 60.715436 237.539924 53.750297 
C 220.724591 46.785158 202.700785 43.2 184.5 43.2 
C 166.299215 43.2 148.275409 46.785158 131.460076 53.750297 
C 114.644743 60.715436 99.364899 70.925101 86.495 83.795 
C 73.625101 96.664899 63.415436 111.944743 56.450297 128.760076 
C 49.485158 145.575409 45.9 163.599215 45.9 181.8 
C 45.9 200.000785 49.485158 218.024591 56.450297 234.839924 
C 63.415436 251.655257 73.625101 266.935101 86.495 279.805 
C 99.364899 292.674899 114.644743 302.884564 131.460076 309.849703 
C 148.275409 316.814842 166.299215 320.4 184.5 320.4 
C 202.700785 320.4 220.724591 316.814842 237.539924 309.849703 
C 254.355257 302.884564 269.635101 292.674899 282.505 279.805 
C 295.374899 266.935101 305.584564 251.655257 312.549703 234.839924 
C 319.514842 218.024591 323.1 200.000785 323.1 181.8 
" style="fill: none; stroke: #000000; stroke-width: 0.8; stroke-linejoin: miter; stroke-linecap: square"/>
   </g>
  </g>
 </g>
 <defs>
  <clipPath id="pfebca9bea0">
   <path d="M 323.1 181.8 
C 323.1 163.599215 319.514842 145.575409 312.549703 128.760076 
C 305.584564 111.944743 295.374899 96.664899 282.505 83.795 
C 269.635101 70.925101 254.355257 60.715436 237.539924 53.750297 
C 220.724591 46.785158 202.700785 43.2 184.5 43.2 
C 166.299215 43.2 148.275409 46.785158 131.460076 53.750297 
C 114.644743 60.715436 99.364899 70.925101 86.495 83.795 
C 73.625101 96.664899 63.415436 111.944743 56.450297 128.760076 
C 49.485158 145.575409 45.9 163.599215 45.9 181.8 
C 45.9 200.000785 49.485158 218.024591 56.450297 234.839924 
C 63.415436 251.655257 73.625101 266.935101 86.495 279.805 
C 99.364899 292.674899 114.644743 302.884564 131.460076 309.849703 
C 148.275409 316.814842 166.299215 320.4 184.5 320.4 
C 202.700785 320.4 220.724591 316.814842 237.539924 309.849703 
C 254.355257 302.884564 269.635101 292.674899 282.505 279.805 
C 295.374899 266.935101 305.584564 251.655257 312.549703 234.839924 
C 319.514842 218.024591 323.1 200.000785 323.1 181.8 
M 184.5 181.8 
C 184.5 181.8 184.5 181.8 184.5 181.8 
C 184.5 181.8 184.5 181.8 184.5 181.8 
C 184.5 181.8 184.5 181.8 184.5 181.8 
C 184.5 181.8 184.5 181.8 184.5 181.8 
C 184.5 181.8 184.5 181.8 184.5 181.8 
C 184.5 181.8 184.5 181.8 184.5 181.8 
C 184.5 181.8 184.5 181.8 184.5 181.8 
C 184.5 181.8 184.5 181.8 184.5 181.8 
C 184.5 181.8 184.5 181.8 184.5 181.8 
C 184.5 181.8 184.5 181.8 184.5 181.8 
C 184.5 181.8 184.5 181.8 184.5 181.8 
C 184.5 181.8 184.5 181.8 184.5 181.8 
C 184.5 181.8 184.5 181.8 184.5 181.8 
C 184.5 181.8 184.5 181.8 184.5 181.8 
C 184.5 181.8 184.5 181.8 184.5 181.8 
C 184.5 181.8 184.5 181.8 184.5 181.8 
z
"/>
  </clipPath>
 </defs>
</svg>
