<?xml version="1.0" encoding="utf-8" standalone="no"?>
<!DOCTYPE svg PUBLIC "-//W3C//DTD SVG 1.1//EN"
  "http://www.w3.org/Graphics/SVG/1.1/DTD/svg11.dtd">
<svg xmlns:xlink="http://www.w3.org/1999/xlink" width="360pt" height="360pt" viewBox="0 0 360 360" xmlns="http://www.w3.org/2000/svg" version="1.1">
 <metadata>
  <rdf:RDF xmlns:dc="http://purl.org/dc/elements/1.1/" xmlns:cc="http://creativecommons.org/ns#" xmlns:rdf="http://www.w3.org/1999/02/22-rdf-syntax-ns#">
   <cc:Work>
    <dc:type rdf:resource="http://purl.org/dc/dcmitype/StillImage"/>
    <dc:date>2025-11-29T13:23:29.724919</dc:date>
    <dc:format>image/svg+xml</dc:format>
    <dc:creator>
     <cc:Agent>
      <dc:title>Matplotlib v3.10.6, https://matplotlib.org/</dc:title>
     </cc:Agent>
    </dc:creator>
   </cc:Work>
  </rdf:RDF>
 </metadata>
 <defs>
  <style type="text/css">*{stroke-linejoin: round; stroke-linecap: butt}</style>
 </defs>
 <g id="figure_1">
  <g id="patch_1">
   <path d="M 0 360 
L 360 360 
L 360 0 
L 0 0 
z
" style="fill: #ffffff"/>
  </g>
  <g id="axes_1">
   <g id="patch_2">
    <path d="M 323.1 181.8 
C 323.1 163.599215 319.514842 145.575409 312.549703 128.760076 
C 305.584564 111.944743 295.374899 96.664899 282.505 83.795 
C 269.635101 70.925101 254.355257 60.715436 237.539924 53.750297 
C 220.724591 46.785158 202.700785 43.2 184.5 43.2 
C 166.299215 43.2 148.275409 46.785158 131.460076 53.750297 
C 114.644743 60.715436 99.364899 70.925101 86.495 83.795 
C 73.625101 96.664899 63.415436 111.944743 56.450297 128.760076 
C 49.485158 145.575409 45.9 163.599215 45.9 181.8 
C 45.9 200.000785 49.485158 218.024591 56.450297 234.839924 
C 63.415436 251.655257 73.625101 266.935101 86.495 279.805 
C 99.364899 292.674899 114.644743 302.884564 131.460076 309.849703 
C 148.275409 316.814842 166.299215 320.4 184.5 320.4 
C 202.700785 320.4 220.724591 316.814842 237.539924 309.849703 
C 254.355257 302.884564 269.635101 292.674899 282.505 279.805 
C 295.374899 266.935101 305.584564 251.655257 312.549703 234.839924 
C 319.514842 218.024591 323.1 200.000785 323.1 181.8 
M 184.5 181.8 
C 184.5 181.8 184.5 181.8 184.5 181.8 
C 184.5 181.8 184.5 181.8 184.5 181.8 
C 184.5 181.8 184.5 181.8 184.5 181.8 
C 184.5 181.8 184.5 181.8 184.5 181.8 
C 184.5 181.8 184.5 181.8 184.5 181.8 
C 184.5 181.8 184.5 181.8 184.5 181.8 
C 184.5 181.8 184.5 181.8 184.5 181.8 
C 184.5 181.8 184.5 181.8 184.5 181.8 
C 184.5 181.8 184.5 181.8 184.5 181.8 
C 184.5 181.8 184.5 181.8 184.5 181.8 
C 184.5 181.8 184.5 181.8 184.5 181.8 
C 184.5 181.8 184.5 181.8 184.5 181.8 
C 184.5 181.8 184.5 181.8 184.5 181.8 
C 184.5 181.8 184.5 181.8 184.5 181.8 
C 184.5 181.8 184.5 181.8 184.5 181.8 
C 184.5 181.8 184.5 181.8 184.5 181.8 
z
" style="fill: #ffffff"/>
   </g>
   <g id="matplotlib.axis_1">
    <g id="xtick_1">
     <g id="line2d_1">
      <path d="M 184.5 181.8 
L 323.1 181.8 
" clip-path="url(#p640237fc26)" style="fill: none; stroke: #b0b0b0; stroke-width: 0.8; stroke-linecap: square"/>
     </g>
     <g id="text_1">
      <!-- 0° -->
      <g transform="translate(331.41875 184.559375) scale(0.1 -0.1)">
       <defs>
        <path id="DejaVuSans-30" d="M 2034 4250 
Q 1547 4250 1301 3770 
Q 1056 3291 1056 2328 
Q 1056 1369 1301 889 
Q 1547 409 2034 409 
Q 2525 409 2770 889 
Q 3016 1369 3016 2328 
Q 3016 3291 2770 3770 
Q 2525 4250 2034 4250 
z
M 2034 4750 
Q 2819 4750 3233 4129 
Q 3647 3509 3647 2328 
Q 3647 1150 3233 529 
Q 2819 -91 2034 -91 
Q 1250 -91 836 529 
Q 422 1150 422 2328 
Q 422 3509 836 4129 
Q 1250 4750 2034 4750 
z
" transform="scale(0.015625)"/>
        <path id="DejaVuSans-b0" d="M 1600 4347 
Q 1350 4347 1178 4173 
Q 1006 4000 1006 3750 
Q 1006 3503 1178 3333 
Q 1350 3163 1600 3163 
Q 1850 3163 2022 3333 
Q 2194 3503 2194 3750 
Q 2194 3997 2020 4172 
Q 1847 4347 1600 4347 
z
M 1600 4750 
Q 1800 4750 1984 4673 
Q 2169 4597 2303 4453 
Q 2447 4313 2519 4134 
Q 2591 3956 2591 3750 
Q 2591 3338 2302 3052 
Q 2013 2766 1594 2766 
Q 1172 2766 890 3047 
Q 609 3328 609 3750 
Q 609 4169 896 4459 
Q 1184 4750 1600 4750 
z
" transform="scale(0.015625)"/>
       </defs>
       <use xlink:href="#DejaVuSans-30"/>
       <use xlink:href="#DejaVuSans-b0" transform="translate(63.623047 0)"/>
      </g>
     </g>
    </g>
    <g id="xtick_2">
     <g id="line2d_2">
      <path d="M 184.5 181.8 
L 282.505 83.795 
" clip-path="url(#p640237fc26)" style="fill: none; stroke: #b0b0b0; stroke-width: 0.8; stroke-linecap: square"/>
     </g>
     <g id="text_2">
      <!-- 45° -->
      <g transform="translate(283.541995 76.65488) scale(0.1 -0.1)">
       <defs>
        <path id="DejaVuSans-34" d="M 2419 4116 
L 825 1625 
L 2419 1625 
L 2419 4116 
z
M 2253 4666 
L 3047 4666 
L 3047 1625 
L 3713 1625 
L 3713 1100 
L 3047 1100 
L 3047 0 
L 2419 0 
L 2419 1100 
L 313 1100 
L 313 1709 
L 2253 4666 
z
" transform="scale(0.015625)"/>
        <path id="DejaVuSans-35" d="M 691 4666 
L 3169 4666 
L 3169 4134 
L 1269 4134 
L 1269 2991 
Q 1406 3038 1543 3061 
Q 1681 3084 1819 3084 
Q 2600 3084 3056 2656 
Q 3513 2228 3513 1497 
Q 3513 744 3044 326 
Q 2575 -91 1722 -91 
Q 1428 -91 1123 -41 
Q 819 9 494 109 
L 494 744 
Q 775 591 1075 516 
Q 1375 441 1709 441 
Q 2250 441 2565 725 
Q 2881 1009 2881 1497 
Q 2881 1984 2565 2268 
Q 2250 2553 1709 2553 
Q 1456 2553 1204 2497 
Q 953 2441 691 2322 
L 691 4666 
z
" transform="scale(0.015625)"/>
       </defs>
       <use xlink:href="#DejaVuSans-34"/>
       <use xlink:href="#DejaVuSans-35" transform="translate(63.623047 0)"/>
       <use xlink:href="#DejaVuSans-b0" transform="translate(127.246094 0)"/>
      </g>
     </g>
    </g>
    <g id="xtick_3">
     <g id="line2d_3">
      <path d="M 184.5 181.8 
L 184.5 43.2 
" clip-path="url(#p640237fc26)" style="fill: none; stroke: #b0b0b0; stroke-width: 0.8; stroke-linecap: square"/>
     </g>
     <g id="text_3">
      <!-- 90° -->
      <g transform="translate(175.6375 31.959375) scale(0.1 -0.1)">
       <defs>
        <path id="DejaVuSans-39" d="M 703 97 
L 703 672 
Q 941 559 1184 500 
Q 1428 441 1663 441 
Q 2288 441 2617 861 
Q 2947 1281 2994 2138 
Q 2813 1869 2534 1725 
Q 2256 1581 1919 1581 
Q 1219 1581 811 2004 
Q 403 2428 403 3163 
Q 403 3881 828 4315 
Q 1253 4750 1959 4750 
Q 2769 4750 3195 4129 
Q 3622 3509 3622 2328 
Q 3622 1225 3098 567 
Q 2575 -91 1691 -91 
Q 1453 -91 1209 -44 
Q 966 3 703 97 
z
M 1959 2075 
Q 2384 2075 2632 2365 
Q 2881 2656 2881 3163 
Q 2881 3666 2632 3958 
Q 2384 4250 1959 4250 
Q 1534 4250 1286 3958 
Q 1038 3666 1038 3163 
Q 1038 2656 1286 2365 
Q 1534 2075 1959 2075 
z
" transform="scale(0.015625)"/>
       </defs>
       <use xlink:href="#DejaVuSans-39"/>
       <use xlink:href="#DejaVuSans-30" transform="translate(63.623047 0)"/>
       <use xlink:href="#DejaVuSans-b0" transform="translate(127.246094 0)"/>
      </g>
     </g>
    </g>
    <g id="xtick_4">
     <g id="line2d_4">
      <path d="M 184.5 181.8 
L 86.495 83.795 
" clip-path="url(#p640237fc26)" style="fill: none; stroke: #b0b0b0; stroke-width: 0.8; stroke-linecap: square"/>
     </g>
     <g id="text_4">
      <!-- 135° -->
      <g transform="translate(64.551755 76.65488) scale(0.1 -0.1)">
       <defs>
        <path id="DejaVuSans-31" d="M 794 531 
L 1825 531 
L 1825 4091 
L 703 3866 
L 703 4441 
L 1819 4666 
L 2450 4666 
L 2450 531 
L 3481 531 
L 3481 0 
L 794 0 
L 794 531 
z
" transform="scale(0.015625)"/>
        <path id="DejaVuSans-33" d="M 2597 2516 
Q 3050 2419 3304 2112 
Q 3559 1806 3559 1356 
Q 3559 666 3084 287 
Q 2609 -91 1734 -91 
Q 1441 -91 1130 -33 
Q 819 25 488 141 
L 488 750 
Q 750 597 1062 519 
Q 1375 441 1716 441 
Q 2309 441 2620 675 
Q 2931 909 2931 1356 
Q 2931 1769 2642 2001 
Q 2353 2234 1838 2234 
L 1294 2234 
L 1294 2753 
L 1863 2753 
Q 2328 2753 2575 2939 
Q 2822 3125 2822 3475 
Q 2822 3834 2567 4026 
Q 2313 4219 1838 4219 
Q 1578 4219 1281 4162 
Q 984 4106 628 3988 
L 628 4550 
Q 988 4650 1302 4700 
Q 1616 4750 1894 4750 
Q 2613 4750 3031 4423 
Q 3450 4097 3450 3541 
Q 3450 3153 3228 2886 
Q 3006 2619 2597 2516 
z
" transform="scale(0.015625)"/>
       </defs>
       <use xlink:href="#DejaVuSans-31"/>
       <use xlink:href="#DejaVuSans-33" transform="translate(63.623047 0)"/>
       <use xlink:href="#DejaVuSans-35" transform="translate(127.246094 0)"/>
       <use xlink:href="#DejaVuSans-b0" transform="translate(190.869141 0)"/>
      </g>
     </g>
    </g>
    <g id="xtick_5">
     <g id="line2d_5">
      <path d="M 184.5 181.8 
L 45.9 181.8 
" clip-path="url(#p640237fc26)" style="fill: none; stroke: #b0b0b0; stroke-width: 0.8; stroke-linecap: square"/>
     </g>
     <g id="text_5">
      <!-- 180° -->
      <g transform="translate(19.85625 184.559375) scale(0.1 -0.1)">
       <defs>
        <path id="DejaVuSans-38" d="M 2034 2216 
Q 1584 2216 1326 1975 
Q 1069 1734 1069 1313 
Q 1069 891 1326 650 
Q 1584 409 2034 409 
Q 2484 409 2743 651 
Q 3003 894 3003 1313 
Q 3003 1734 2745 1975 
Q 2488 2216 2034 2216 
z
M 1403 2484 
Q 997 2584 770 2862 
Q 544 3141 544 3541 
Q 544 4100 942 4425 
Q 1341 4750 2034 4750 
Q 2731 4750 3128 4425 
Q 3525 4100 3525 3541 
Q 3525 3141 3298 2862 
Q 3072 2584 2669 2484 
Q 3125 2378 3379 2068 
Q 3634 1759 3634 1313 
Q 3634 634 3220 271 
Q 2806 -91 2034 -91 
Q 1263 -91 848 271 
Q 434 634 434 1313 
Q 434 1759 690 2068 
Q 947 2378 1403 2484 
z
M 1172 3481 
Q 1172 3119 1398 2916 
Q 1625 2713 2034 2713 
Q 2441 2713 2670 2916 
Q 2900 3119 2900 3481 
Q 2900 3844 2670 4047 
Q 2441 4250 2034 4250 
Q 1625 4250 1398 4047 
Q 1172 3844 1172 3481 
z
" transform="scale(0.015625)"/>
       </defs>
       <use xlink:href="#DejaVuSans-31"/>
       <use xlink:href="#DejaVuSans-38" transform="translate(63.623047 0)"/>
       <use xlink:href="#DejaVuSans-30" transform="translate(127.246094 0)"/>
       <use xlink:href="#DejaVuSans-b0" transform="translate(190.869141 0)"/>
      </g>
     </g>
    </g>
    <g id="xtick_6">
     <g id="line2d_6">
      <path d="M 184.5 181.8 
L 86.495 279.805 
" clip-path="url(#p640237fc26)" style="fill: none; stroke: #b0b0b0; stroke-width: 0.8; stroke-linecap: square"/>
     </g>
     <g id="text_6">
      <!-- 225° -->
      <g transform="translate(64.551755 292.46387) scale(0.1 -0.1)">
       <defs>
        <path id="DejaVuSans-32" d="M 1228 531 
L 3431 531 
L 3431 0 
L 469 0 
L 469 531 
Q 828 903 1448 1529 
Q 2069 2156 2228 2338 
Q 2531 2678 2651 2914 
Q 2772 3150 2772 3378 
Q 2772 3750 2511 3984 
Q 2250 4219 1831 4219 
Q 1534 4219 1204 4116 
Q 875 4013 500 3803 
L 500 4441 
Q 881 4594 1212 4672 
Q 1544 4750 1819 4750 
Q 2544 4750 2975 4387 
Q 3406 4025 3406 3419 
Q 3406 3131 3298 2873 
Q 3191 2616 2906 2266 
Q 2828 2175 2409 1742 
Q 1991 1309 1228 531 
z
" transform="scale(0.015625)"/>
       </defs>
       <use xlink:href="#DejaVuSans-32"/>
       <use xlink:href="#DejaVuSans-32" transform="translate(63.623047 0)"/>
       <use xlink:href="#DejaVuSans-35" transform="translate(127.246094 0)"/>
       <use xlink:href="#DejaVuSans-b0" transform="translate(190.869141 0)"/>
      </g>
     </g>
    </g>
    <g id="xtick_7">
     <g id="line2d_7">
      <path d="M 184.5 181.8 
L 184.5 320.4 
" clip-path="url(#p640237fc26)" style="fill: none; stroke: #b0b0b0; stroke-width: 0.8; stroke-linecap: square"/>
     </g>
     <g id="text_7">
      <!-- 270° -->
      <g transform="translate(172.45625 337.159375) scale(0.1 -0.1)">
       <defs>
        <path id="DejaVuSans-37" d="M 525 4666 
L 3525 4666 
L 3525 4397 
L 1831 0 
L 1172 0 
L 2766 4134 
L 525 4134 
L 525 4666 
z
" transform="scale(0.015625)"/>
       </defs>
       <use xlink:href="#DejaVuSans-32"/>
       <use xlink:href="#DejaVuSans-37" transform="translate(63.623047 0)"/>
       <use xlink:href="#DejaVuSans-30" transform="translate(127.246094 0)"/>
       <use xlink:href="#DejaVuSans-b0" transform="translate(190.869141 0)"/>
      </g>
     </g>
    </g>
    <g id="xtick_8">
     <g id="line2d_8">
      <path d="M 184.5 181.8 
L 282.505 279.805 
" clip-path="url(#p640237fc26)" style="fill: none; stroke: #b0b0b0; stroke-width: 0.8; stroke-linecap: square"/>
     </g>
     <g id="text_8">
      <!-- 315° -->
      <g transform="translate(280.360745 292.46387) scale(0.1 -0.1)">
       <use xlink:href="#DejaVuSans-33"/>
       <use xlink:href="#DejaVuSans-31" transform="translate(63.623047 0)"/>
       <use xlink:href="#DejaVuSans-35" transform="translate(127.246094 0)"/>
       <use xlink:href="#DejaVuSans-b0" transform="translate(190.869141 0)"/>
      </g>
     </g>
    </g>
   </g>
   <g id="matplotlib.axis_2">
    <g id="ytick_1">
     <g id="line2d_9">
      <path d="M 201.825 181.8 
C 201.825 179.524902 201.376855 177.271926 200.506213 175.17001 
C 199.635571 173.068093 198.359362 171.158112 196.750625 169.549375 
C 195.141888 167.940638 193.231907 166.664429 191.12999 165.793787 
C 189.028074 164.923145 186.775098 164.475 184.5 164.475 
C 182.224902 164.475 179.971926 164.923145 177.87001 165.793787 
C 175.768093 166.664429 173.858112 167.940638 172.249375 169.549375 
C 170.640638 171.158112 169.364429 173.068093 168.493787 175.17001 
C 167.623145 177.271926 167.175 179.524902 167.175 181.8 
C 167.175 184.075098 167.623145 186.328074 168.493787 188.42999 
C 169.364429 190.531907 170.640638 192.441888 172.249375 194.050625 
C 173.858112 195.659362 175.768093 196.935571 177.87001 197.806213 
C 179.971926 198.676855 182.224902 199.125 184.5 199.125 
C 186.775098 199.125 189.028074 198.676855 191.12999 197.806213 
C 193.231907 196.935571 195.141888 195.659362 196.750625 194.050625 
C 198.359362 192.441888 199.635571 190.531907 200.506213 188.42999 
C 201.376855 186.328074 201.825 184.075098 201.825 181.8 
" clip-path="url(#p640237fc26)" style="fill: none; stroke: #b0b0b0; stroke-width: 0.8; stroke-linecap: square"/>
     </g>
    </g>
    <g id="ytick_2">
     <g id="line2d_10">
      <path d="M 219.15 181.8 
C 219.15 177.249804 218.253711 172.743852 216.512426 168.540019 
C 214.771141 164.336186 212.218725 160.516225 209.00125 157.29875 
C 205.783775 154.081275 201.963814 151.528859 197.759981 149.787574 
C 193.556148 148.046289 189.050196 147.15 184.5 147.15 
C 179.949804 147.15 175.443852 148.046289 171.240019 149.787574 
C 167.036186 151.528859 163.216225 154.081275 159.99875 157.29875 
C 156.781275 160.516225 154.228859 164.336186 152.487574 168.540019 
C 150.746289 172.743852 149.85 177.249804 149.85 181.8 
C 149.85 186.350196 150.746289 190.856148 152.487574 195.059981 
C 154.228859 199.263814 156.781275 203.083775 159.99875 206.30125 
C 163.216225 209.518725 167.036186 212.071141 171.240019 213.812426 
C 175.443852 215.553711 179.949804 216.45 184.5 216.45 
C 189.050196 216.45 193.556148 215.553711 197.759981 213.812426 
C 201.963814 212.071141 205.783775 209.518725 209.00125 206.30125 
C 212.218725 203.083775 214.771141 199.263814 216.512426 195.059981 
C 218.253711 190.856148 219.15 186.350196 219.15 181.8 
" clip-path="url(#p640237fc26)" style="fill: none; stroke: #b0b0b0; stroke-width: 0.8; stroke-linecap: square"/>
     </g>
    </g>
    <g id="ytick_3">
     <g id="line2d_11">
      <path d="M 236.475 181.8 
C 236.475 174.974706 235.130566 168.215778 232.518639 161.910029 
C 229.906712 155.604279 226.078087 149.874337 221.251875 145.048125 
C 216.425663 140.221913 210.695721 136.393288 204.389971 133.781361 
C 198.084222 131.169434 191.325294 129.825 184.5 129.825 
C 177.674706 129.825 170.915778 131.169434 164.610029 133.781361 
C 158.304279 136.393288 152.574337 140.221913 147.748125 145.048125 
C 142.921913 149.874337 139.093288 155.604279 136.481361 161.910029 
C 133.869434 168.215778 132.525 174.974706 132.525 181.8 
C 132.525 188.625294 133.869434 195.384222 136.481361 201.689971 
C 139.093288 207.995721 142.921913 213.725663 147.748125 218.551875 
C 152.574337 223.378087 158.304279 227.206712 164.610029 229.818639 
C 170.915778 232.430566 177.674706 233.775 184.5 233.775 
C 191.325294 233.775 198.084222 232.430566 204.389971 229.818639 
C 210.695721 227.206712 216.425663 223.378087 221.251875 218.551875 
C 226.078087 213.725663 229.906712 207.995721 232.518639 201.689971 
C 235.130566 195.384222 236.475 188.625294 236.475 181.8 
" clip-path="url(#p640237fc26)" style="fill: none; stroke: #b0b0b0; stroke-width: 0.8; stroke-linecap: square"/>
     </g>
    </g>
    <g id="ytick_4">
     <g id="line2d_12">
      <path d="M 253.8 181.8 
C 253.8 172.699607 252.007421 163.687705 248.524852 155.280038 
C 245.042282 146.872372 239.937449 139.232449 233.5025 132.7975 
C 227.067551 126.362551 219.427628 121.257718 211.019962 117.775148 
C 202.612295 114.292579 193.600393 112.5 184.5 112.5 
C 175.399607 112.5 166.387705 114.292579 157.980038 117.775148 
C 149.572372 121.257718 141.932449 126.362551 135.4975 132.7975 
C 129.062551 139.232449 123.957718 146.872372 120.475148 155.280038 
C 116.992579 163.687705 115.2 172.699607 115.2 181.8 
C 115.2 190.900393 116.992579 199.912295 120.475148 208.319962 
C 123.957718 216.727628 129.062551 224.367551 135.4975 230.8025 
C 141.932449 237.237449 149.572372 242.342282 157.980038 245.824852 
C 166.387705 249.307421 175.399607 251.1 184.5 251.1 
C 193.600393 251.1 202.612295 249.307421 211.019962 245.824852 
C 219.427628 242.342282 227.067551 237.237449 233.5025 230.8025 
C 239.937449 224.367551 245.042282 216.727628 248.524852 208.319962 
C 252.007421 199.912295 253.8 190.900393 253.8 181.8 
" clip-path="url(#p640237fc26)" style="fill: none; stroke: #b0b0b0; stroke-width: 0.8; stroke-linecap: square"/>
     </g>
    </g>
    <g id="ytick_5">
     <g id="line2d_13">
      <path d="M 271.125 181.8 
C 271.125 170.424509 268.884276 159.159631 264.531065 148.650048 
C 260.177853 138.140465 253.796812 128.590562 245.753125 120.546875 
C 237.709438 112.503188 228.159535 106.122147 217.649952 101.768935 
C 207.140369 97.415724 195.875491 95.175 184.5 95.175 
C 173.124509 95.175 161.859631 97.415724 151.350048 101.768935 
C 140.840465 106.122147 131.290562 112.503188 123.246875 120.546875 
C 115.203188 128.590562 108.822147 138.140465 104.468935 148.650048 
C 100.115724 159.159631 97.875 170.424509 97.875 181.8 
C 97.875 193.175491 100.115724 204.440369 104.468935 214.949952 
C 108.822147 225.459535 115.203188 235.009438 123.246875 243.053125 
C 131.290562 251.096812 140.840465 257.477853 151.350048 261.831065 
C 161.859631 266.184276 173.124509 268.425 184.5 268.425 
C 195.875491 268.425 207.140369 266.184276 217.649952 261.831065 
C 228.159535 257.477853 237.709438 251.096812 245.753125 243.053125 
C 253.796812 235.009438 260.177853 225.459535 264.531065 214.949952 
C 268.884276 204.440369 271.125 193.175491 271.125 181.8 
" clip-path="url(#p640237fc26)" style="fill: none; stroke: #b0b0b0; stroke-width: 0.8; stroke-linecap: square"/>
     </g>
    </g>
    <g id="ytick_6">
     <g id="line2d_14">
      <path d="M 288.45 181.8 
C 288.45 168.149411 285.761132 154.631557 280.537277 142.020057 
C 275.313423 129.408557 267.656174 117.948674 258.00375 108.29625 
C 248.351326 98.643826 236.891443 90.986577 224.279943 85.762723 
C 211.668443 80.538868 198.150589 77.85 184.5 77.85 
C 170.849411 77.85 157.331557 80.538868 144.720057 85.762723 
C 132.108557 90.986577 120.648674 98.643826 110.99625 108.29625 
C 101.343826 117.948674 93.686577 129.408557 88.462723 142.020057 
C 83.238868 154.631557 80.55 168.149411 80.55 181.8 
C 80.55 195.450589 83.238868 208.968443 88.462723 221.579943 
C 93.686577 234.191443 101.343826 245.651326 110.99625 255.30375 
C 120.648674 264.956174 132.108557 272.613423 144.720057 277.837277 
C 157.331557 283.061132 170.849411 285.75 184.5 285.75 
C 198.150589 285.75 211.668443 283.061132 224.279943 277.837277 
C 236.891443 272.613423 248.351326 264.956174 258.00375 255.30375 
C 267.656174 245.651326 275.313423 234.191443 280.537277 221.579943 
C 285.761132 208.968443 288.45 195.450589 288.45 181.8 
" clip-path="url(#p640237fc26)" style="fill: none; stroke: #b0b0b0; stroke-width: 0.8; stroke-linecap: square"/>
     </g>
    </g>
    <g id="ytick_7">
     <g id="line2d_15">
      <path d="M 305.775 181.8 
C 305.775 165.874313 302.637987 150.103483 296.54349 135.390067 
C 290.448994 120.67665 281.515536 107.306786 270.254375 96.045625 
C 258.993214 84.784464 245.62335 75.851006 230.909933 69.75651 
C 216.196517 63.662013 200.425687 60.525 184.5 60.525 
C 168.574313 60.525 152.803483 63.662013 138.090067 69.75651 
C 123.37665 75.851006 110.006786 84.784464 98.745625 96.045625 
C 87.484464 107.306786 78.551006 120.67665 72.45651 135.390067 
C 66.362013 150.103483 63.225 165.874313 63.225 181.8 
C 63.225 197.725687 66.362013 213.496517 72.45651 228.209933 
C 78.551006 242.92335 87.484464 256.293214 98.745625 267.554375 
C 110.006786 278.815536 123.37665 287.748994 138.090067 293.84349 
C 152.803483 299.937987 168.574313 303.075 184.5 303.075 
C 200.425687 303.075 216.196517 299.937987 230.909933 293.84349 
C 245.62335 287.748994 258.993214 278.815536 270.254375 267.554375 
C 281.515536 256.293214 290.448994 242.92335 296.54349 228.209933 
C 302.637987 213.496517 305.775 197.725687 305.775 181.8 
" clip-path="url(#p640237fc26)" style="fill: none; stroke: #b0b0b0; stroke-width: 0.8; stroke-linecap: square"/>
     </g>
    </g>
    <g id="ytick_8">
     <g id="line2d_16">
      <path d="M 323.1 181.8 
C 323.1 163.599215 319.514842 145.575409 312.549703 128.760076 
C 305.584564 111.944743 295.374899 96.664899 282.505 83.795 
C 269.635101 70.925101 254.355257 60.715436 237.539924 53.750297 
C 220.724591 46.785158 202.700785 43.2 184.5 43.2 
C 166.299215 43.2 148.275409 46.785158 131.460076 53.750297 
C 114.644743 60.715436 99.364899 70.925101 86.495 83.795 
C 73.625101 96.664899 63.415436 111.944743 56.450297 128.760076 
C 49.485158 145.575409 45.9 163.599215 45.9 181.8 
C 45.9 200.000785 49.485158 218.024591 56.450297 234.839924 
C 63.415436 251.655257 73.625101 266.935101 86.495 279.805 
C 99.364899 292.674899 114.644743 302.884564 131.460076 309.849703 
C 148.275409 316.814842 166.299215 320.4 184.5 320.4 
C 202.700785 320.4 220.724591 316.814842 237.539924 309.849703 
C 254.355257 302.884564 269.635101 292.674899 282.505 279.805 
C 295.374899 266.935101 305.584564 251.655257 312.549703 234.839924 
C 319.514842 218.024591 323.1 200.000785 323.1 181.8 
" clip-path="url(#p640237fc26)" style="fill: none; stroke: #b0b0b0; stroke-width: 0.8; stroke-linecap: square"/>
     </g>
    </g>
   </g>
   <g id="line2d_17">
    <path d="M 253.8 181.8 
L 253.661875 177.42678 
L 253.24805 173.070992 
L 252.560176 168.750002 
L 251.600994 164.481032 
L 250.374327 160.2811 
L 248.885066 156.16695 
L 247.139147 152.15498 
L 245.143531 148.261184 
L 242.906171 144.501083 
L 240.435987 140.889667 
L 237.742826 137.441332 
L 234.837424 134.169823 
L 231.731361 131.088182 
L 228.437021 128.208693 
L 224.967535 125.542835 
L 221.336733 123.101234 
L 217.55909 120.893624 
L 213.649663 118.928805 
L 209.624037 117.214609 
L 205.498259 115.757869 
L 201.288776 114.564392 
L 197.012368 113.638936 
L 192.686082 112.98519 
L 188.327164 112.60576 
L 183.95299 112.502159 
L 179.580996 112.674799 
L 175.228611 113.122993 
L 170.913184 113.844953 
L 166.651918 114.837802 
L 162.461801 116.097582 
L 158.359533 117.619271 
L 154.36147 119.396803 
L 150.483547 121.423093 
L 146.741224 123.690063 
L 143.149418 126.188676 
L 139.722448 128.908972 
L 136.473975 131.840107 
L 133.416947 134.970397 
L 130.563552 138.287363 
L 127.925163 141.777784 
L 125.512297 145.427745 
L 123.334574 149.222697 
L 121.400675 153.147511 
L 119.718307 157.186542 
L 118.294179 161.32369 
L 117.133966 165.542462 
L 116.242295 169.826042 
L 115.622718 174.157354 
L 115.277707 178.519131 
L 115.208636 182.893987 
L 115.41578 187.264481 
L 115.898315 191.613193 
L 116.654316 195.922787 
L 117.680769 200.176083 
L 118.973584 204.356126 
L 120.527607 208.446254 
L 122.336642 212.430163 
L 124.393478 216.29197 
L 126.689917 220.016283 
L 129.216803 223.588254 
L 131.964065 226.993645 
L 134.92075 230.218881 
L 138.075073 233.251105 
L 141.414459 236.078229 
L 144.925597 238.688985 
L 148.59449 241.072965 
L 152.406513 243.220665 
L 156.346469 245.123524 
L 160.398655 246.773957 
L 164.546915 248.165385 
L 168.774714 249.292262 
L 173.065198 250.150094 
L 177.401265 250.735462 
L 181.76563 251.046034 
L 186.140895 251.080571 
L 190.509618 250.838935 
L 194.854386 250.322089 
L 199.157878 249.532094 
L 203.402939 248.4721 
L 207.572648 247.146331 
L 211.650382 245.560072 
L 215.619887 243.719647 
L 219.465339 241.632392 
L 223.171408 239.306627 
L 226.723323 236.751624 
L 230.106922 233.977568 
L 233.308719 230.995517 
L 236.315951 227.817358 
L 239.116628 224.455761 
L 241.699588 220.924125 
L 244.054533 217.236528 
L 246.172077 213.407672 
L 248.043778 209.452818 
L 249.662174 205.387731 
L 251.020815 201.228617 
L 252.114284 196.992055 
L 252.938223 192.694933 
L 253.489348 188.354381 
L 253.76546 183.9877 
L 253.8 181.8 
L 253.8 181.8 
" clip-path="url(#p640237fc26)" style="fill: none; stroke: #1f77b4; stroke-width: 1.5; stroke-linecap: square"/>
   </g>
   <g id="patch_3">
    <path d="M 323.1 181.8 
C 323.1 163.599215 319.514842 145.575409 312.549703 128.760076 
C 305.584564 111.944743 295.374899 96.664899 282.505 83.795 
C 269.635101 70.925101 254.355257 60.715436 237.539924 53.750297 
C 220.724591 46.785158 202.700785 43.2 184.5 43.2 
C 166.299215 43.2 148.275409 46.785158 131.460076 53.750297 
C 114.644743 60.715436 99.364899 70.925101 86.495 83.795 
C 73.625101 96.664899 63.415436 111.944743 56.450297 128.760076 
C 49.485158 145.575409 45.9 163.599215 45.9 181.8 
C 45.9 200.000785 49.485158 218.024591 56.450297 234.839924 
C 63.415436 251.655257 73.625101 266.935101 86.495 279.805 
C 99.364899 292.674899 114.644743 302.884564 131.460076 309.849703 
C 148.275409 316.814842 166.299215 320.4 184.5 320.4 
C 202.700785 320.4 220.724591 316.814842 237.539924 309.849703 
C 254.355257 302.884564 269.635101 292.674899 282.505 279.805 
C 295.374899 266.935101 305.584564 251.655257 312.549703 234.839924 
C 319.514842 218.024591 323.1 200.000785 323.1 181.8 
" style="fill: none; stroke: #000000; stroke-width: 0.8; stroke-linejoin: miter; stroke-linecap: square"/>
   </g>
  </g>
 </g>
 <defs>
  <clipPath id="p640237fc26">
   <path d="M 323.1 181.8 
C 323.1 163.599215 319.514842 145.575409 312.549703 128.760076 
C 305.584564 111.944743 295.374899 96.664899 282.505 83.795 
C 269.635101 70.925101 254.355257 60.715436 237.539924 53.750297 
C 220.724591 46.785158 202.700785 43.2 184.5 43.2 
C 166.299215 43.2 148.275409 46.785158 131.460076 53.750297 
C 114.644743 60.715436 99.364899 70.925101 86.495 83.795 
C 73.625101 96.664899 63.415436 111.944743 56.450297 128.760076 
C 49.485158 145.575409 45.9 163.599215 45.9 181.8 
C 45.9 200.000785 49.485158 218.024591 56.450297 234.839924 
C 63.415436 251.655257 73.625101 266.935101 86.495 279.805 
C 99.364899 292.674899 114.644743 302.884564 131.460076 309.849703 
C 148.275409 316.814842 166.299215 320.4 184.5 320.4 
C 202.700785 320.4 220.724591 316.814842 237.539924 309.849703 
C 254.355257 302.884564 269.635101 292.674899 282.505 279.805 
C 295.374899 266.935101 305.584564 251.655257 312.549703 234.839924 
C 319.514842 218.024591 323.1 200.000785 323.1 181.8 
M 184.5 181.8 
C 184.5 181.8 184.5 181.8 184.5 181.8 
C 184.5 181.8 184.5 181.8 184.5 181.8 
C 184.5 181.8 184.5 181.8 184.5 181.8 
C 184.5 181.8 184.5 181.8 184.5 181.8 
C 184.5 181.8 184.5 181.8 184.5 181.8 
C 184.5 181.8 184.5 181.8 184.5 181.8 
C 184.5 181.8 184.5 181.8 184.5 181.8 
C 184.5 181.8 184.5 181.8 184.5 181.8 
C 184.5 181.8 184.5 181.8 184.5 181.8 
C 184.5 181.8 184.5 181.8 184.5 181.8 
C 184.5 181.8 184.5 181.8 184.5 181.8 
C 184.5 181.8 184.5 181.8 184.5 181.8 
C 184.5 181.8 184.5 181.8 184.5 181.8 
C 184.5 181.8 184.5 181.8 184.5 181.8 
C 184.5 181.8 184.5 181.8 184.5 181.8 
C 184.5 181.8 184.5 181.8 184.5 181.8 
z
"/>
  </clipPath>
 </defs>
</svg>
