<?xml version="1.0" encoding="utf-8" standalone="no"?>
<!DOCTYPE svg PUBLIC "-//W3C//DTD SVG 1.1//EN"
  "http://www.w3.org/Graphics/SVG/1.1/DTD/svg11.dtd">
<svg xmlns:xlink="http://www.w3.org/1999/xlink" width="360pt" height="216pt" viewBox="0 0 360 216" xmlns="http://www.w3.org/2000/svg" version="1.1">
 <metadata>
  <rdf:RDF xmlns:dc="http://purl.org/dc/elements/1.1/" xmlns:cc="http://creativecommons.org/ns#" xmlns:rdf="http://www.w3.org/1999/02/22-rdf-syntax-ns#">
   <cc:Work>
    <dc:type rdf:resource="http://purl.org/dc/dcmitype/StillImage"/>
    <dc:date>2025-12-03T16:20:01.983005</dc:date>
    <dc:format>image/svg+xml</dc:format>
    <dc:creator>
     <cc:Agent>
      <dc:title>Matplotlib v3.10.6, https://matplotlib.org/</dc:title>
     </cc:Agent>
    </dc:creator>
   </cc:Work>
  </rdf:RDF>
 </metadata>
 <defs>
  <style type="text/css">*{stroke-linejoin: round; stroke-linecap: butt}</style>
 </defs>
 <g id="figure_1">
  <g id="patch_1">
   <path d="M 0 216 
L 360 216 
L 360 0 
L 0 0 
z
" style="fill: #ffffff"/>
  </g>
  <g id="axes_1">
   <g id="patch_2">
    <path d="M 45 192.24 
L 324 192.24 
L 324 25.92 
L 45 25.92 
z
" style="fill: #ffffff"/>
   </g>
   <g id="FillBetweenPolyCollection_1">
    <defs>
     <path id="mb74ed79a28" d="M 45 -106.92 
L 45 -106.92 
L 45.279 -106.92 
L 45.558 -106.92 
L 45.837 -106.92 
L 46.116 -106.92 
L 46.395 -106.92 
L 46.674 -106.92 
L 46.953 -106.92 
L 47.232 -106.92 
L 47.511 -106.92 
L 47.79 -106.92 
L 48.069 -106.92 
L 48.348 -106.92 
L 48.627 -106.92 
L 48.906 -106.92 
L 49.185 -106.92 
L 49.464 -106.92 
L 49.743 -106.92 
L 50.022 -106.92 
L 50.301 -106.92 
L 50.58 -106.92 
L 50.859 -106.92 
L 51.138 -106.92 
L 51.417 -106.92 
L 51.696 -106.92 
L 51.975 -106.92 
L 52.254 -106.92 
L 52.533 -106.92 
L 52.812 -106.92 
L 53.091 -106.92 
L 53.37 -106.92 
L 53.649 -106.92 
L 53.928 -106.92 
L 54.207 -106.92 
L 54.486 -106.92 
L 54.765 -106.92 
L 55.044 -106.92 
L 55.323 -106.92 
L 55.602 -106.92 
L 55.881 -106.92 
L 56.16 -106.92 
L 56.439 -106.92 
L 56.718 -106.92 
L 56.997 -106.92 
L 57.276 -106.92 
L 57.555 -106.92 
L 57.834 -106.92 
L 58.113 -106.92 
L 58.392 -106.92 
L 58.671 -106.92 
L 58.95 -106.92 
L 59.229 -106.92 
L 59.508 -106.92 
L 59.787 -106.92 
L 60.066 -106.92 
L 60.345 -106.92 
L 60.624 -106.92 
L 60.903 -106.92 
L 61.182 -106.92 
L 61.461 -106.92 
L 61.74 -106.92 
L 62.019 -106.92 
L 62.298 -106.92 
L 62.577 -106.92 
L 62.856 -106.92 
L 63.135 -106.92 
L 63.414 -106.92 
L 63.693 -106.92 
L 63.972 -106.92 
L 64.251 -106.92 
L 64.53 -106.92 
L 64.809 -106.92 
L 65.088 -106.92 
L 65.367 -106.92 
L 65.646 -106.92 
L 65.925 -106.92 
L 66.204 -106.92 
L 66.483 -106.92 
L 66.762 -106.92 
L 67.041 -106.92 
L 67.32 -106.92 
L 67.599 -106.92 
L 67.878 -106.92 
L 68.157 -106.92 
L 68.436 -106.92 
L 68.715 -106.92 
L 68.994 -106.92 
L 69.273 -106.92 
L 69.552 -106.92 
L 69.831 -106.92 
L 70.11 -106.92 
L 70.389 -106.92 
L 70.668 -106.92 
L 70.947 -106.92 
L 71.226 -106.92 
L 71.505 -106.92 
L 71.784 -106.92 
L 72.063 -106.92 
L 72.342 -106.92 
L 72.621 -106.92 
L 72.9 -106.92 
L 73.179 -106.92 
L 73.458 -106.92 
L 73.737 -106.92 
L 74.016 -106.92 
L 74.295 -106.92 
L 74.574 -106.92 
L 74.853 -106.92 
L 75.132 -106.92 
L 75.411 -106.92 
L 75.69 -106.92 
L 75.969 -106.92 
L 76.248 -106.92 
L 76.527 -106.92 
L 76.806 -106.92 
L 77.085 -106.92 
L 77.364 -106.92 
L 77.643 -106.92 
L 77.922 -106.92 
L 78.201 -106.92 
L 78.48 -106.92 
L 78.759 -106.92 
L 79.038 -106.92 
L 79.317 -106.92 
L 79.596 -106.92 
L 79.875 -106.92 
L 80.154 -106.92 
L 80.433 -106.92 
L 80.712 -106.92 
L 80.991 -106.92 
L 81.27 -106.92 
L 81.549 -106.92 
L 81.828 -106.92 
L 82.107 -106.92 
L 82.386 -106.92 
L 82.665 -106.92 
L 82.944 -106.92 
L 83.223 -106.92 
L 83.502 -106.92 
L 83.781 -106.92 
L 84.06 -106.92 
L 84.339 -106.92 
L 84.618 -106.92 
L 84.897 -106.92 
L 85.176 -106.92 
L 85.455 -106.92 
L 85.734 -106.92 
L 86.013 -106.92 
L 86.292 -106.92 
L 86.571 -106.92 
L 86.85 -106.92 
L 87.129 -106.92 
L 87.408 -106.92 
L 87.687 -106.92 
L 87.966 -106.92 
L 88.245 -106.92 
L 88.524 -106.92 
L 88.803 -106.92 
L 89.082 -106.92 
L 89.361 -106.92 
L 89.64 -106.92 
L 89.919 -106.92 
L 90.198 -106.92 
L 90.477 -106.92 
L 90.756 -106.92 
L 91.035 -106.92 
L 91.314 -106.92 
L 91.593 -106.92 
L 91.872 -106.92 
L 92.151 -106.92 
L 92.43 -106.92 
L 92.709 -106.92 
L 92.988 -106.92 
L 93.267 -106.92 
L 93.546 -106.92 
L 93.825 -106.92 
L 94.104 -106.92 
L 94.383 -106.92 
L 94.662 -106.92 
L 94.941 -106.92 
L 95.22 -106.92 
L 95.499 -106.92 
L 95.778 -106.92 
L 96.057 -106.92 
L 96.336 -106.92 
L 96.615 -106.92 
L 96.894 -106.92 
L 97.173 -106.92 
L 97.452 -106.92 
L 97.731 -106.92 
L 98.01 -106.92 
L 98.289 -106.92 
L 98.568 -106.92 
L 98.847 -106.92 
L 99.126 -106.92 
L 99.405 -106.92 
L 99.684 -106.92 
L 99.963 -106.92 
L 100.242 -106.92 
L 100.521 -106.92 
L 100.8 -106.92 
L 101.079 -106.92 
L 101.358 -106.92 
L 101.637 -106.92 
L 101.916 -106.92 
L 102.195 -106.92 
L 102.474 -106.92 
L 102.753 -106.92 
L 103.032 -106.92 
L 103.311 -106.92 
L 103.59 -106.92 
L 103.869 -106.92 
L 104.148 -106.92 
L 104.427 -106.92 
L 104.706 -106.92 
L 104.985 -106.92 
L 105.264 -106.92 
L 105.543 -106.92 
L 105.822 -106.92 
L 106.101 -106.92 
L 106.38 -106.92 
L 106.659 -106.92 
L 106.938 -106.92 
L 107.217 -106.92 
L 107.496 -106.92 
L 107.775 -106.92 
L 108.054 -106.92 
L 108.333 -106.92 
L 108.612 -106.92 
L 108.891 -106.92 
L 109.17 -106.92 
L 109.449 -106.92 
L 109.728 -106.92 
L 110.007 -106.92 
L 110.286 -106.92 
L 110.565 -106.92 
L 110.844 -106.92 
L 111.123 -106.92 
L 111.402 -106.92 
L 111.681 -106.92 
L 111.96 -106.92 
L 112.239 -106.92 
L 112.518 -106.92 
L 112.797 -106.92 
L 113.076 -106.92 
L 113.355 -106.92 
L 113.634 -106.92 
L 113.913 -106.92 
L 114.192 -106.92 
L 114.471 -106.92 
L 114.75 -106.92 
L 115.029 -106.92 
L 115.308 -106.92 
L 115.587 -106.92 
L 115.866 -106.92 
L 116.145 -106.92 
L 116.424 -106.92 
L 116.703 -106.92 
L 116.982 -106.92 
L 117.261 -106.92 
L 117.54 -106.92 
L 117.819 -106.92 
L 118.098 -106.92 
L 118.377 -106.92 
L 118.656 -106.92 
L 118.935 -106.92 
L 119.214 -106.92 
L 119.493 -106.92 
L 119.772 -106.92 
L 120.051 -106.92 
L 120.33 -106.92 
L 120.609 -106.92 
L 120.888 -106.92 
L 121.167 -106.92 
L 121.446 -106.92 
L 121.725 -106.92 
L 122.004 -106.92 
L 122.283 -106.92 
L 122.562 -106.92 
L 122.841 -106.92 
L 123.12 -106.92 
L 123.399 -106.92 
L 123.678 -106.92 
L 123.957 -106.92 
L 124.236 -106.92 
L 124.515 -106.92 
L 124.794 -106.92 
L 125.073 -106.92 
L 125.352 -106.92 
L 125.631 -106.92 
L 125.91 -106.92 
L 126.189 -106.92 
L 126.468 -106.92 
L 126.747 -106.92 
L 127.026 -106.92 
L 127.305 -106.92 
L 127.584 -106.92 
L 127.863 -106.92 
L 128.142 -106.92 
L 128.421 -106.92 
L 128.7 -106.92 
L 128.979 -106.92 
L 129.258 -106.92 
L 129.537 -106.92 
L 129.816 -106.92 
L 130.095 -106.92 
L 130.374 -106.92 
L 130.653 -106.92 
L 130.932 -106.92 
L 131.211 -106.92 
L 131.49 -106.92 
L 131.769 -106.92 
L 132.048 -106.92 
L 132.327 -106.92 
L 132.606 -106.92 
L 132.885 -106.92 
L 133.164 -106.92 
L 133.443 -106.92 
L 133.722 -106.92 
L 134.001 -106.92 
L 134.28 -106.92 
L 134.559 -106.92 
L 134.838 -106.92 
L 135.117 -106.92 
L 135.396 -106.92 
L 135.675 -106.92 
L 135.954 -106.92 
L 136.233 -106.92 
L 136.512 -106.92 
L 136.791 -106.92 
L 137.07 -106.92 
L 137.349 -106.92 
L 137.628 -106.92 
L 137.907 -106.92 
L 138.186 -106.92 
L 138.465 -106.92 
L 138.744 -106.92 
L 139.023 -106.92 
L 139.302 -106.92 
L 139.581 -106.92 
L 139.86 -106.92 
L 140.139 -106.92 
L 140.418 -106.92 
L 140.697 -106.92 
L 140.976 -106.92 
L 141.255 -106.92 
L 141.534 -106.92 
L 141.813 -106.92 
L 142.092 -106.92 
L 142.371 -106.92 
L 142.65 -106.92 
L 142.929 -106.92 
L 143.208 -106.92 
L 143.487 -106.92 
L 143.766 -106.92 
L 144.045 -106.92 
L 144.324 -106.92 
L 144.603 -106.92 
L 144.882 -106.92 
L 145.161 -106.92 
L 145.44 -106.92 
L 145.719 -106.92 
L 145.998 -106.92 
L 146.277 -106.92 
L 146.556 -106.92 
L 146.835 -106.92 
L 147.114 -106.92 
L 147.393 -106.92 
L 147.672 -106.92 
L 147.951 -106.92 
L 148.23 -106.92 
L 148.509 -106.92 
L 148.788 -106.92 
L 149.067 -106.92 
L 149.346 -106.92 
L 149.625 -106.92 
L 149.904 -106.92 
L 150.183 -106.92 
L 150.462 -106.92 
L 150.741 -106.92 
L 151.02 -106.92 
L 151.299 -106.92 
L 151.578 -106.92 
L 151.857 -106.92 
L 152.136 -106.92 
L 152.415 -106.92 
L 152.694 -106.92 
L 152.973 -106.92 
L 153.252 -106.92 
L 153.531 -106.92 
L 153.81 -106.92 
L 154.089 -106.92 
L 154.368 -106.92 
L 154.647 -106.92 
L 154.926 -106.92 
L 155.205 -106.92 
L 155.484 -106.92 
L 155.763 -106.92 
L 156.042 -106.92 
L 156.321 -106.92 
L 156.6 -106.92 
L 156.879 -106.92 
L 157.158 -106.92 
L 157.437 -106.92 
L 157.716 -106.92 
L 157.995 -106.92 
L 158.274 -106.92 
L 158.553 -106.92 
L 158.832 -106.92 
L 159.111 -106.92 
L 159.39 -106.92 
L 159.669 -106.92 
L 159.948 -106.92 
L 160.227 -106.92 
L 160.506 -106.92 
L 160.785 -106.92 
L 161.064 -106.92 
L 161.343 -106.92 
L 161.622 -106.92 
L 161.901 -106.92 
L 162.18 -106.92 
L 162.459 -106.92 
L 162.738 -106.92 
L 163.017 -106.92 
L 163.296 -106.92 
L 163.575 -106.92 
L 163.854 -106.92 
L 164.133 -106.92 
L 164.412 -106.92 
L 164.691 -106.92 
L 164.97 -106.92 
L 165.249 -106.92 
L 165.528 -106.92 
L 165.807 -106.92 
L 166.086 -106.92 
L 166.365 -106.92 
L 166.644 -106.92 
L 166.923 -106.92 
L 167.202 -106.92 
L 167.481 -106.92 
L 167.76 -106.92 
L 168.039 -106.92 
L 168.318 -106.92 
L 168.597 -106.92 
L 168.876 -106.92 
L 169.155 -106.92 
L 169.434 -106.92 
L 169.713 -106.92 
L 169.992 -106.92 
L 170.271 -106.92 
L 170.55 -106.92 
L 170.829 -106.92 
L 171.108 -106.92 
L 171.387 -106.92 
L 171.666 -106.92 
L 171.945 -106.92 
L 172.224 -106.92 
L 172.503 -106.92 
L 172.782 -106.92 
L 173.061 -106.92 
L 173.34 -106.92 
L 173.619 -106.92 
L 173.898 -106.92 
L 174.177 -106.92 
L 174.456 -106.92 
L 174.735 -106.92 
L 175.014 -106.92 
L 175.293 -106.92 
L 175.572 -106.92 
L 175.851 -106.92 
L 176.13 -106.92 
L 176.409 -106.92 
L 176.688 -106.92 
L 176.967 -106.92 
L 177.246 -106.92 
L 177.525 -106.92 
L 177.804 -106.92 
L 178.083 -106.92 
L 178.362 -106.92 
L 178.641 -106.92 
L 178.92 -106.92 
L 179.199 -106.92 
L 179.478 -106.92 
L 179.757 -106.92 
L 180.036 -106.92 
L 180.315 -106.92 
L 180.594 -106.92 
L 180.873 -106.92 
L 181.152 -106.92 
L 181.431 -106.92 
L 181.71 -106.92 
L 181.989 -106.92 
L 182.268 -106.92 
L 182.547 -106.92 
L 182.826 -106.92 
L 183.105 -106.92 
L 183.384 -106.92 
L 183.663 -106.92 
L 183.942 -106.92 
L 184.221 -106.92 
L 184.5 -106.92 
L 184.779 -106.92 
L 185.058 -106.92 
L 185.337 -106.92 
L 185.616 -106.92 
L 185.895 -106.92 
L 186.174 -106.92 
L 186.453 -106.92 
L 186.732 -106.92 
L 187.011 -106.92 
L 187.29 -106.92 
L 187.569 -106.92 
L 187.848 -106.92 
L 188.127 -106.92 
L 188.406 -106.92 
L 188.685 -106.92 
L 188.964 -106.92 
L 189.243 -106.92 
L 189.522 -106.92 
L 189.801 -106.92 
L 190.08 -106.92 
L 190.359 -106.92 
L 190.638 -106.92 
L 190.917 -106.92 
L 191.196 -106.92 
L 191.475 -106.92 
L 191.754 -106.92 
L 192.033 -106.92 
L 192.312 -106.92 
L 192.591 -106.92 
L 192.87 -106.92 
L 193.149 -106.92 
L 193.428 -106.92 
L 193.707 -106.92 
L 193.986 -106.92 
L 194.265 -106.92 
L 194.544 -106.92 
L 194.823 -106.92 
L 195.102 -106.92 
L 195.381 -106.92 
L 195.66 -106.92 
L 195.939 -106.92 
L 196.218 -106.92 
L 196.497 -106.92 
L 196.776 -106.92 
L 197.055 -106.92 
L 197.334 -106.92 
L 197.613 -106.92 
L 197.892 -106.92 
L 198.171 -106.92 
L 198.45 -106.92 
L 198.729 -106.92 
L 199.008 -106.92 
L 199.287 -106.92 
L 199.566 -106.92 
L 199.845 -106.92 
L 200.124 -106.92 
L 200.403 -106.92 
L 200.682 -106.92 
L 200.961 -106.92 
L 201.24 -106.92 
L 201.519 -106.92 
L 201.798 -106.92 
L 202.077 -106.92 
L 202.356 -106.92 
L 202.635 -106.92 
L 202.914 -106.92 
L 203.193 -106.92 
L 203.472 -106.92 
L 203.751 -106.92 
L 204.03 -106.92 
L 204.309 -106.92 
L 204.588 -106.92 
L 204.867 -106.92 
L 205.146 -106.92 
L 205.425 -106.92 
L 205.704 -106.92 
L 205.983 -106.92 
L 206.262 -106.92 
L 206.541 -106.92 
L 206.82 -106.92 
L 207.099 -106.92 
L 207.378 -106.92 
L 207.657 -106.92 
L 207.936 -106.92 
L 208.215 -106.92 
L 208.494 -106.92 
L 208.773 -106.92 
L 209.052 -106.92 
L 209.331 -106.92 
L 209.61 -106.92 
L 209.889 -106.92 
L 210.168 -106.92 
L 210.447 -106.92 
L 210.726 -106.92 
L 211.005 -106.92 
L 211.284 -106.92 
L 211.563 -106.92 
L 211.842 -106.92 
L 212.121 -106.92 
L 212.4 -106.92 
L 212.679 -106.92 
L 212.958 -106.92 
L 213.237 -106.92 
L 213.516 -106.92 
L 213.795 -106.92 
L 214.074 -106.92 
L 214.353 -106.92 
L 214.632 -106.92 
L 214.911 -106.92 
L 215.19 -106.92 
L 215.469 -106.92 
L 215.748 -106.92 
L 216.027 -106.92 
L 216.306 -106.92 
L 216.585 -106.92 
L 216.864 -106.92 
L 217.143 -106.92 
L 217.422 -106.92 
L 217.701 -106.92 
L 217.98 -106.92 
L 218.259 -106.92 
L 218.538 -106.92 
L 218.817 -106.92 
L 219.096 -106.92 
L 219.375 -106.92 
L 219.654 -106.92 
L 219.933 -106.92 
L 220.212 -106.92 
L 220.491 -106.92 
L 220.77 -106.92 
L 221.049 -106.92 
L 221.328 -106.92 
L 221.607 -106.92 
L 221.886 -106.92 
L 222.165 -106.92 
L 222.444 -106.92 
L 222.723 -106.92 
L 223.002 -106.92 
L 223.281 -106.92 
L 223.56 -106.92 
L 223.839 -106.92 
L 224.118 -106.92 
L 224.397 -106.92 
L 224.676 -106.92 
L 224.955 -106.92 
L 225.234 -106.92 
L 225.513 -106.92 
L 225.792 -106.92 
L 226.071 -106.92 
L 226.35 -106.92 
L 226.629 -106.92 
L 226.908 -106.92 
L 227.187 -106.92 
L 227.466 -106.92 
L 227.745 -106.92 
L 228.024 -106.92 
L 228.303 -106.92 
L 228.582 -106.92 
L 228.861 -106.92 
L 229.14 -106.92 
L 229.419 -106.92 
L 229.698 -106.92 
L 229.977 -106.92 
L 230.256 -106.92 
L 230.535 -106.92 
L 230.814 -106.92 
L 231.093 -106.92 
L 231.372 -106.92 
L 231.651 -106.92 
L 231.93 -106.92 
L 232.209 -106.92 
L 232.488 -106.92 
L 232.767 -106.92 
L 233.046 -106.92 
L 233.325 -106.92 
L 233.604 -106.92 
L 233.883 -106.92 
L 234.162 -106.92 
L 234.441 -106.92 
L 234.72 -106.92 
L 234.999 -106.92 
L 235.278 -106.92 
L 235.557 -106.92 
L 235.836 -106.92 
L 236.115 -106.92 
L 236.394 -106.92 
L 236.673 -106.92 
L 236.952 -106.92 
L 237.231 -106.92 
L 237.51 -106.92 
L 237.789 -106.92 
L 238.068 -106.92 
L 238.347 -106.92 
L 238.626 -106.92 
L 238.905 -106.92 
L 239.184 -106.92 
L 239.463 -106.92 
L 239.742 -106.92 
L 240.021 -106.92 
L 240.3 -106.92 
L 240.579 -106.92 
L 240.858 -106.92 
L 241.137 -106.92 
L 241.416 -106.92 
L 241.695 -106.92 
L 241.974 -106.92 
L 242.253 -106.92 
L 242.532 -106.92 
L 242.811 -106.92 
L 243.09 -106.92 
L 243.369 -106.92 
L 243.648 -106.92 
L 243.927 -106.92 
L 244.206 -106.92 
L 244.485 -106.92 
L 244.764 -106.92 
L 245.043 -106.92 
L 245.322 -106.92 
L 245.601 -106.92 
L 245.88 -106.92 
L 246.159 -106.92 
L 246.438 -106.92 
L 246.717 -106.92 
L 246.996 -106.92 
L 247.275 -106.92 
L 247.554 -106.92 
L 247.833 -106.92 
L 248.112 -106.92 
L 248.391 -106.92 
L 248.67 -106.92 
L 248.949 -106.92 
L 249.228 -106.92 
L 249.507 -106.92 
L 249.786 -106.92 
L 250.065 -106.92 
L 250.344 -106.92 
L 250.623 -106.92 
L 250.902 -106.92 
L 251.181 -106.92 
L 251.46 -106.92 
L 251.739 -106.92 
L 252.018 -106.92 
L 252.297 -106.92 
L 252.576 -106.92 
L 252.855 -106.92 
L 253.134 -106.92 
L 253.413 -106.92 
L 253.692 -106.92 
L 253.971 -106.92 
L 254.25 -106.92 
L 254.529 -106.92 
L 254.808 -106.92 
L 255.087 -106.92 
L 255.366 -106.92 
L 255.645 -106.92 
L 255.924 -106.92 
L 256.203 -106.92 
L 256.482 -106.92 
L 256.761 -106.92 
L 257.04 -106.92 
L 257.319 -106.92 
L 257.598 -106.92 
L 257.877 -106.92 
L 258.156 -106.92 
L 258.435 -106.92 
L 258.714 -106.92 
L 258.993 -106.92 
L 259.272 -106.92 
L 259.551 -106.92 
L 259.83 -106.92 
L 260.109 -106.92 
L 260.388 -106.92 
L 260.667 -106.92 
L 260.946 -106.92 
L 261.225 -106.92 
L 261.504 -106.92 
L 261.783 -106.92 
L 262.062 -106.92 
L 262.341 -106.92 
L 262.62 -106.92 
L 262.899 -106.92 
L 263.178 -106.92 
L 263.457 -106.92 
L 263.736 -106.92 
L 264.015 -106.92 
L 264.294 -106.92 
L 264.573 -106.92 
L 264.852 -106.92 
L 265.131 -106.92 
L 265.41 -106.92 
L 265.689 -106.92 
L 265.968 -106.92 
L 266.247 -106.92 
L 266.526 -106.92 
L 266.805 -106.92 
L 267.084 -106.92 
L 267.363 -106.92 
L 267.642 -106.92 
L 267.921 -106.92 
L 268.2 -106.92 
L 268.479 -106.92 
L 268.758 -106.92 
L 269.037 -106.92 
L 269.316 -106.92 
L 269.595 -106.92 
L 269.874 -106.92 
L 270.153 -106.92 
L 270.432 -106.92 
L 270.711 -106.92 
L 270.99 -106.92 
L 271.269 -106.92 
L 271.548 -106.92 
L 271.827 -106.92 
L 272.106 -106.92 
L 272.385 -106.92 
L 272.664 -106.92 
L 272.943 -106.92 
L 273.222 -106.92 
L 273.501 -106.92 
L 273.78 -106.92 
L 274.059 -106.92 
L 274.338 -106.92 
L 274.617 -106.92 
L 274.896 -106.92 
L 275.175 -106.92 
L 275.454 -106.92 
L 275.733 -106.92 
L 276.012 -106.92 
L 276.291 -106.92 
L 276.57 -106.92 
L 276.849 -106.92 
L 277.128 -106.92 
L 277.407 -106.92 
L 277.686 -106.92 
L 277.965 -106.92 
L 278.244 -106.92 
L 278.523 -106.92 
L 278.802 -106.92 
L 279.081 -106.92 
L 279.36 -106.92 
L 279.639 -106.92 
L 279.918 -106.92 
L 280.197 -106.92 
L 280.476 -106.92 
L 280.755 -106.92 
L 281.034 -106.92 
L 281.313 -106.92 
L 281.592 -106.92 
L 281.871 -106.92 
L 282.15 -106.92 
L 282.429 -106.92 
L 282.708 -106.92 
L 282.987 -106.92 
L 283.266 -106.92 
L 283.545 -106.92 
L 283.824 -106.92 
L 284.103 -106.92 
L 284.382 -106.92 
L 284.661 -106.92 
L 284.94 -106.92 
L 285.219 -106.92 
L 285.498 -106.92 
L 285.777 -106.92 
L 286.056 -106.92 
L 286.335 -106.92 
L 286.614 -106.92 
L 286.893 -106.92 
L 287.172 -106.92 
L 287.451 -106.92 
L 287.73 -106.92 
L 288.009 -106.92 
L 288.288 -106.92 
L 288.567 -106.92 
L 288.846 -106.92 
L 289.125 -106.92 
L 289.404 -106.92 
L 289.683 -106.92 
L 289.962 -106.92 
L 290.241 -106.92 
L 290.52 -106.92 
L 290.799 -106.92 
L 291.078 -106.92 
L 291.357 -106.92 
L 291.636 -106.92 
L 291.915 -106.92 
L 292.194 -106.92 
L 292.473 -106.92 
L 292.752 -106.92 
L 293.031 -106.92 
L 293.31 -106.92 
L 293.589 -106.92 
L 293.868 -106.92 
L 294.147 -106.92 
L 294.426 -106.92 
L 294.705 -106.92 
L 294.984 -106.92 
L 295.263 -106.92 
L 295.542 -106.92 
L 295.821 -106.92 
L 296.1 -106.92 
L 296.379 -106.92 
L 296.658 -106.92 
L 296.937 -106.92 
L 297.216 -106.92 
L 297.495 -106.92 
L 297.774 -106.92 
L 298.053 -106.92 
L 298.332 -106.92 
L 298.611 -106.92 
L 298.89 -106.92 
L 299.169 -106.92 
L 299.448 -106.92 
L 299.727 -106.92 
L 300.006 -106.92 
L 300.285 -106.92 
L 300.564 -106.92 
L 300.843 -106.92 
L 301.122 -106.92 
L 301.401 -106.92 
L 301.68 -106.92 
L 301.959 -106.92 
L 302.238 -106.92 
L 302.517 -106.92 
L 302.796 -106.92 
L 303.075 -106.92 
L 303.354 -106.92 
L 303.633 -106.92 
L 303.912 -106.92 
L 304.191 -106.92 
L 304.47 -106.92 
L 304.749 -106.92 
L 305.028 -106.92 
L 305.307 -106.92 
L 305.586 -106.92 
L 305.865 -106.92 
L 306.144 -106.92 
L 306.423 -106.92 
L 306.702 -106.92 
L 306.981 -106.92 
L 307.26 -106.92 
L 307.539 -106.92 
L 307.818 -106.92 
L 308.097 -106.92 
L 308.376 -106.92 
L 308.655 -106.92 
L 308.934 -106.92 
L 309.213 -106.92 
L 309.492 -106.92 
L 309.771 -106.92 
L 310.05 -106.92 
L 310.329 -106.92 
L 310.608 -106.92 
L 310.887 -106.92 
L 311.166 -106.92 
L 311.445 -106.92 
L 311.724 -106.92 
L 312.003 -106.92 
L 312.282 -106.92 
L 312.561 -106.92 
L 312.84 -106.92 
L 313.119 -106.92 
L 313.398 -106.92 
L 313.677 -106.92 
L 313.956 -106.92 
L 314.235 -106.92 
L 314.514 -106.92 
L 314.793 -106.92 
L 315.072 -106.92 
L 315.351 -106.92 
L 315.63 -106.92 
L 315.909 -106.92 
L 316.188 -106.92 
L 316.467 -106.92 
L 316.746 -106.92 
L 317.025 -106.92 
L 317.304 -106.92 
L 317.583 -106.92 
L 317.862 -106.92 
L 318.141 -106.92 
L 318.42 -106.92 
L 318.699 -106.92 
L 318.978 -106.92 
L 319.257 -106.92 
L 319.536 -106.92 
L 319.815 -106.92 
L 320.094 -106.92 
L 320.373 -106.92 
L 320.652 -106.92 
L 320.931 -106.92 
L 321.21 -106.92 
L 321.489 -106.92 
L 321.768 -106.92 
L 322.047 -106.92 
L 322.326 -106.92 
L 322.605 -106.92 
L 322.884 -106.92 
L 323.163 -106.92 
L 323.442 -106.92 
L 323.721 -106.92 
L 324 -106.92 
L 324 -106.92 
L 324 -106.92 
L 323.721 -106.049173 
L 323.442 -105.178484 
L 323.163 -104.30807 
L 322.884 -103.438069 
L 322.605 -102.568617 
L 322.326 -101.699852 
L 322.047 -100.831912 
L 321.768 -99.964933 
L 321.489 -99.099053 
L 321.21 -98.234407 
L 320.931 -97.371133 
L 320.652 -96.509367 
L 320.373 -95.649244 
L 320.094 -94.790902 
L 319.815 -93.934475 
L 319.536 -93.080098 
L 319.257 -92.227907 
L 318.978 -91.378036 
L 318.699 -90.53062 
L 318.42 -89.685791 
L 318.141 -88.843684 
L 317.862 -88.004431 
L 317.583 -87.168165 
L 317.304 -86.335018 
L 317.025 -85.505122 
L 316.746 -84.678608 
L 316.467 -83.855606 
L 316.188 -83.036245 
L 315.909 -82.220657 
L 315.63 -81.408968 
L 315.351 -80.601309 
L 315.072 -79.797805 
L 314.793 -78.998584 
L 314.514 -78.203772 
L 314.235 -77.413495 
L 313.956 -76.627877 
L 313.677 -75.847043 
L 313.398 -75.071116 
L 313.119 -74.300218 
L 312.84 -73.53447 
L 312.561 -72.773995 
L 312.282 -72.018912 
L 312.003 -71.26934 
L 311.724 -70.525398 
L 311.445 -69.787203 
L 311.166 -69.054872 
L 310.887 -68.32852 
L 310.608 -67.608262 
L 310.329 -66.894212 
L 310.05 -66.186482 
L 309.771 -65.485185 
L 309.492 -64.79043 
L 309.213 -64.102329 
L 308.934 -63.420989 
L 308.655 -62.746518 
L 308.376 -62.079022 
L 308.097 -61.418607 
L 307.818 -60.765378 
L 307.539 -60.119436 
L 307.26 -59.480886 
L 306.981 -58.849826 
L 306.702 -58.226357 
L 306.423 -57.610578 
L 306.144 -57.002585 
L 305.865 -56.402474 
L 305.586 -55.810341 
L 305.307 -55.226279 
L 305.028 -54.650379 
L 304.749 -54.082734 
L 304.47 -53.523432 
L 304.191 -52.972563 
L 303.912 -52.430212 
L 303.633 -51.896465 
L 303.354 -51.371408 
L 303.075 -50.855122 
L 302.796 -50.34769 
L 302.517 -49.849191 
L 302.238 -49.359704 
L 301.959 -48.879307 
L 301.68 -48.408075 
L 301.401 -47.946082 
L 301.122 -47.493403 
L 300.843 -47.050107 
L 300.564 -46.616266 
L 300.285 -46.191947 
L 300.006 -45.777218 
L 299.727 -45.372144 
L 299.448 -44.976789 
L 299.169 -44.591216 
L 298.89 -44.215485 
L 298.611 -43.849656 
L 298.332 -43.493787 
L 298.053 -43.147933 
L 297.774 -42.81215 
L 297.495 -42.48649 
L 297.216 -42.171004 
L 296.937 -41.865744 
L 296.658 -41.570756 
L 296.379 -41.286087 
L 296.1 -41.011783 
L 295.821 -40.747887 
L 295.542 -40.49444 
L 295.263 -40.251482 
L 294.984 -40.019052 
L 294.705 -39.797187 
L 294.426 -39.585921 
L 294.147 -39.385288 
L 293.868 -39.195319 
L 293.589 -39.016045 
L 293.31 -38.847494 
L 293.031 -38.689692 
L 292.752 -38.542664 
L 292.473 -38.406434 
L 292.194 -38.281023 
L 291.915 -38.166451 
L 291.636 -38.062736 
L 291.357 -37.969895 
L 291.078 -37.887941 
L 290.799 -37.816888 
L 290.52 -37.756748 
L 290.241 -37.707529 
L 289.962 -37.66924 
L 289.683 -37.641886 
L 289.404 -37.625472 
L 289.125 -37.62 
L 288.846 -37.625472 
L 288.567 -37.641886 
L 288.288 -37.66924 
L 288.009 -37.707529 
L 287.73 -37.756748 
L 287.451 -37.816888 
L 287.172 -37.887941 
L 286.893 -37.969895 
L 286.614 -38.062736 
L 286.335 -38.166451 
L 286.056 -38.281023 
L 285.777 -38.406434 
L 285.498 -38.542664 
L 285.219 -38.689692 
L 284.94 -38.847494 
L 284.661 -39.016045 
L 284.382 -39.195319 
L 284.103 -39.385288 
L 283.824 -39.585921 
L 283.545 -39.797187 
L 283.266 -40.019052 
L 282.987 -40.251482 
L 282.708 -40.49444 
L 282.429 -40.747887 
L 282.15 -41.011783 
L 281.871 -41.286087 
L 281.592 -41.570756 
L 281.313 -41.865744 
L 281.034 -42.171004 
L 280.755 -42.48649 
L 280.476 -42.81215 
L 280.197 -43.147933 
L 279.918 -43.493787 
L 279.639 -43.849656 
L 279.36 -44.215485 
L 279.081 -44.591216 
L 278.802 -44.976789 
L 278.523 -45.372144 
L 278.244 -45.777218 
L 277.965 -46.191947 
L 277.686 -46.616266 
L 277.407 -47.050107 
L 277.128 -47.493403 
L 276.849 -47.946082 
L 276.57 -48.408075 
L 276.291 -48.879307 
L 276.012 -49.359704 
L 275.733 -49.849191 
L 275.454 -50.34769 
L 275.175 -50.855122 
L 274.896 -51.371408 
L 274.617 -51.896465 
L 274.338 -52.430212 
L 274.059 -52.972563 
L 273.78 -53.523432 
L 273.501 -54.082734 
L 273.222 -54.650379 
L 272.943 -55.226279 
L 272.664 -55.810341 
L 272.385 -56.402474 
L 272.106 -57.002585 
L 271.827 -57.610578 
L 271.548 -58.226357 
L 271.269 -58.849826 
L 270.99 -59.480886 
L 270.711 -60.119436 
L 270.432 -60.765378 
L 270.153 -61.418607 
L 269.874 -62.079022 
L 269.595 -62.746518 
L 269.316 -63.420989 
L 269.037 -64.102329 
L 268.758 -64.79043 
L 268.479 -65.485185 
L 268.2 -66.186482 
L 267.921 -66.894212 
L 267.642 -67.608262 
L 267.363 -68.32852 
L 267.084 -69.054872 
L 266.805 -69.787203 
L 266.526 -70.525398 
L 266.247 -71.26934 
L 265.968 -72.018912 
L 265.689 -72.773995 
L 265.41 -73.53447 
L 265.131 -74.300218 
L 264.852 -75.071116 
L 264.573 -75.847043 
L 264.294 -76.627877 
L 264.015 -77.413495 
L 263.736 -78.203772 
L 263.457 -78.998584 
L 263.178 -79.797805 
L 262.899 -80.601309 
L 262.62 -81.408968 
L 262.341 -82.220657 
L 262.062 -83.036245 
L 261.783 -83.855606 
L 261.504 -84.678608 
L 261.225 -85.505122 
L 260.946 -86.335018 
L 260.667 -87.168165 
L 260.388 -88.004431 
L 260.109 -88.843684 
L 259.83 -89.685791 
L 259.551 -90.53062 
L 259.272 -91.378036 
L 258.993 -92.227907 
L 258.714 -93.080098 
L 258.435 -93.934475 
L 258.156 -94.790902 
L 257.877 -95.649244 
L 257.598 -96.509367 
L 257.319 -97.371133 
L 257.04 -98.234407 
L 256.761 -99.099053 
L 256.482 -99.964933 
L 256.203 -100.831912 
L 255.924 -101.699852 
L 255.645 -102.568617 
L 255.366 -103.438069 
L 255.087 -104.30807 
L 254.808 -105.178484 
L 254.529 -106.049173 
L 254.25 -106.92 
L 253.971 -107.790827 
L 253.692 -108.661516 
L 253.413 -109.53193 
L 253.134 -110.401931 
L 252.855 -111.271383 
L 252.576 -112.140148 
L 252.297 -113.008088 
L 252.018 -113.875067 
L 251.739 -114.740947 
L 251.46 -115.605593 
L 251.181 -116.468867 
L 250.902 -117.330633 
L 250.623 -118.190756 
L 250.344 -119.049098 
L 250.065 -119.905525 
L 249.786 -120.759902 
L 249.507 -121.612093 
L 249.228 -122.461964 
L 248.949 -123.30938 
L 248.67 -124.154209 
L 248.391 -124.996316 
L 248.112 -125.835569 
L 247.833 -126.671835 
L 247.554 -127.504982 
L 247.275 -128.334878 
L 246.996 -129.161392 
L 246.717 -129.984394 
L 246.438 -130.803755 
L 246.159 -131.619343 
L 245.88 -132.431032 
L 245.601 -133.238691 
L 245.322 -134.042195 
L 245.043 -134.841416 
L 244.764 -135.636228 
L 244.485 -136.426505 
L 244.206 -137.212123 
L 243.927 -137.992957 
L 243.648 -138.768884 
L 243.369 -139.539782 
L 243.09 -140.30553 
L 242.811 -141.066005 
L 242.532 -141.821088 
L 242.253 -142.57066 
L 241.974 -143.314602 
L 241.695 -144.052797 
L 241.416 -144.785128 
L 241.137 -145.51148 
L 240.858 -146.231738 
L 240.579 -146.945788 
L 240.3 -147.653518 
L 240.021 -148.354815 
L 239.742 -149.04957 
L 239.463 -149.737671 
L 239.184 -150.419011 
L 238.905 -151.093482 
L 238.626 -151.760978 
L 238.347 -152.421393 
L 238.068 -153.074622 
L 237.789 -153.720564 
L 237.51 -154.359114 
L 237.231 -154.990174 
L 236.952 -155.613643 
L 236.673 -156.229422 
L 236.394 -156.837415 
L 236.115 -157.437526 
L 235.836 -158.029659 
L 235.557 -158.613721 
L 235.278 -159.189621 
L 234.999 -159.757266 
L 234.72 -160.316568 
L 234.441 -160.867437 
L 234.162 -161.409788 
L 233.883 -161.943535 
L 233.604 -162.468592 
L 233.325 -162.984878 
L 233.046 -163.49231 
L 232.767 -163.990809 
L 232.488 -164.480296 
L 232.209 -164.960693 
L 231.93 -165.431925 
L 231.651 -165.893918 
L 231.372 -166.346597 
L 231.093 -166.789893 
L 230.814 -167.223734 
L 230.535 -167.648053 
L 230.256 -168.062782 
L 229.977 -168.467856 
L 229.698 -168.863211 
L 229.419 -169.248784 
L 229.14 -169.624515 
L 228.861 -169.990344 
L 228.582 -170.346213 
L 228.303 -170.692067 
L 228.024 -171.02785 
L 227.745 -171.35351 
L 227.466 -171.668996 
L 227.187 -171.974256 
L 226.908 -172.269244 
L 226.629 -172.553913 
L 226.35 -172.828217 
L 226.071 -173.092113 
L 225.792 -173.34556 
L 225.513 -173.588518 
L 225.234 -173.820948 
L 224.955 -174.042813 
L 224.676 -174.254079 
L 224.397 -174.454712 
L 224.118 -174.644681 
L 223.839 -174.823955 
L 223.56 -174.992506 
L 223.281 -175.150308 
L 223.002 -175.297336 
L 222.723 -175.433566 
L 222.444 -175.558977 
L 222.165 -175.673549 
L 221.886 -175.777264 
L 221.607 -175.870105 
L 221.328 -175.952059 
L 221.049 -176.023112 
L 220.77 -176.083252 
L 220.491 -176.132471 
L 220.212 -176.17076 
L 219.933 -176.198114 
L 219.654 -176.214528 
L 219.375 -176.22 
L 219.096 -176.214528 
L 218.817 -176.198114 
L 218.538 -176.17076 
L 218.259 -176.132471 
L 217.98 -176.083252 
L 217.701 -176.023112 
L 217.422 -175.952059 
L 217.143 -175.870105 
L 216.864 -175.777264 
L 216.585 -175.673549 
L 216.306 -175.558977 
L 216.027 -175.433566 
L 215.748 -175.297336 
L 215.469 -175.150308 
L 215.19 -174.992506 
L 214.911 -174.823955 
L 214.632 -174.644681 
L 214.353 -174.454712 
L 214.074 -174.254079 
L 213.795 -174.042813 
L 213.516 -173.820948 
L 213.237 -173.588518 
L 212.958 -173.34556 
L 212.679 -173.092113 
L 212.4 -172.828217 
L 212.121 -172.553913 
L 211.842 -172.269244 
L 211.563 -171.974256 
L 211.284 -171.668996 
L 211.005 -171.35351 
L 210.726 -171.02785 
L 210.447 -170.692067 
L 210.168 -170.346213 
L 209.889 -169.990344 
L 209.61 -169.624515 
L 209.331 -169.248784 
L 209.052 -168.863211 
L 208.773 -168.467856 
L 208.494 -168.062782 
L 208.215 -167.648053 
L 207.936 -167.223734 
L 207.657 -166.789893 
L 207.378 -166.346597 
L 207.099 -165.893918 
L 206.82 -165.431925 
L 206.541 -164.960693 
L 206.262 -164.480296 
L 205.983 -163.990809 
L 205.704 -163.49231 
L 205.425 -162.984878 
L 205.146 -162.468592 
L 204.867 -161.943535 
L 204.588 -161.409788 
L 204.309 -160.867437 
L 204.03 -160.316568 
L 203.751 -159.757266 
L 203.472 -159.189621 
L 203.193 -158.613721 
L 202.914 -158.029659 
L 202.635 -157.437526 
L 202.356 -156.837415 
L 202.077 -156.229422 
L 201.798 -155.613643 
L 201.519 -154.990174 
L 201.24 -154.359114 
L 200.961 -153.720564 
L 200.682 -153.074622 
L 200.403 -152.421393 
L 200.124 -151.760978 
L 199.845 -151.093482 
L 199.566 -150.419011 
L 199.287 -149.737671 
L 199.008 -149.04957 
L 198.729 -148.354815 
L 198.45 -147.653518 
L 198.171 -146.945788 
L 197.892 -146.231738 
L 197.613 -145.51148 
L 197.334 -144.785128 
L 197.055 -144.052797 
L 196.776 -143.314602 
L 196.497 -142.57066 
L 196.218 -141.821088 
L 195.939 -141.066005 
L 195.66 -140.30553 
L 195.381 -139.539782 
L 195.102 -138.768884 
L 194.823 -137.992957 
L 194.544 -137.212123 
L 194.265 -136.426505 
L 193.986 -135.636228 
L 193.707 -134.841416 
L 193.428 -134.042195 
L 193.149 -133.238691 
L 192.87 -132.431032 
L 192.591 -131.619343 
L 192.312 -130.803755 
L 192.033 -129.984394 
L 191.754 -129.161392 
L 191.475 -128.334878 
L 191.196 -127.504982 
L 190.917 -126.671835 
L 190.638 -125.835569 
L 190.359 -124.996316 
L 190.08 -124.154209 
L 189.801 -123.30938 
L 189.522 -122.461964 
L 189.243 -121.612093 
L 188.964 -120.759902 
L 188.685 -119.905525 
L 188.406 -119.049098 
L 188.127 -118.190756 
L 187.848 -117.330633 
L 187.569 -116.468867 
L 187.29 -115.605593 
L 187.011 -114.740947 
L 186.732 -113.875067 
L 186.453 -113.008088 
L 186.174 -112.140148 
L 185.895 -111.271383 
L 185.616 -110.401931 
L 185.337 -109.53193 
L 185.058 -108.661516 
L 184.779 -107.790827 
L 184.5 -106.92 
L 184.221 -106.049173 
L 183.942 -105.178484 
L 183.663 -104.30807 
L 183.384 -103.438069 
L 183.105 -102.568617 
L 182.826 -101.699852 
L 182.547 -100.831912 
L 182.268 -99.964933 
L 181.989 -99.099053 
L 181.71 -98.234407 
L 181.431 -97.371133 
L 181.152 -96.509367 
L 180.873 -95.649244 
L 180.594 -94.790902 
L 180.315 -93.934475 
L 180.036 -93.080098 
L 179.757 -92.227907 
L 179.478 -91.378036 
L 179.199 -90.53062 
L 178.92 -89.685791 
L 178.641 -88.843684 
L 178.362 -88.004431 
L 178.083 -87.168165 
L 177.804 -86.335018 
L 177.525 -85.505122 
L 177.246 -84.678608 
L 176.967 -83.855606 
L 176.688 -83.036245 
L 176.409 -82.220657 
L 176.13 -81.408968 
L 175.851 -80.601309 
L 175.572 -79.797805 
L 175.293 -78.998584 
L 175.014 -78.203772 
L 174.735 -77.413495 
L 174.456 -76.627877 
L 174.177 -75.847043 
L 173.898 -75.071116 
L 173.619 -74.300218 
L 173.34 -73.53447 
L 173.061 -72.773995 
L 172.782 -72.018912 
L 172.503 -71.26934 
L 172.224 -70.525398 
L 171.945 -69.787203 
L 171.666 -69.054872 
L 171.387 -68.32852 
L 171.108 -67.608262 
L 170.829 -66.894212 
L 170.55 -66.186482 
L 170.271 -65.485185 
L 169.992 -64.79043 
L 169.713 -64.102329 
L 169.434 -63.420989 
L 169.155 -62.746518 
L 168.876 -62.079022 
L 168.597 -61.418607 
L 168.318 -60.765378 
L 168.039 -60.119436 
L 167.76 -59.480886 
L 167.481 -58.849826 
L 167.202 -58.226357 
L 166.923 -57.610578 
L 166.644 -57.002585 
L 166.365 -56.402474 
L 166.086 -55.810341 
L 165.807 -55.226279 
L 165.528 -54.650379 
L 165.249 -54.082734 
L 164.97 -53.523432 
L 164.691 -52.972563 
L 164.412 -52.430212 
L 164.133 -51.896465 
L 163.854 -51.371408 
L 163.575 -50.855122 
L 163.296 -50.34769 
L 163.017 -49.849191 
L 162.738 -49.359704 
L 162.459 -48.879307 
L 162.18 -48.408075 
L 161.901 -47.946082 
L 161.622 -47.493403 
L 161.343 -47.050107 
L 161.064 -46.616266 
L 160.785 -46.191947 
L 160.506 -45.777218 
L 160.227 -45.372144 
L 159.948 -44.976789 
L 159.669 -44.591216 
L 159.39 -44.215485 
L 159.111 -43.849656 
L 158.832 -43.493787 
L 158.553 -43.147933 
L 158.274 -42.81215 
L 157.995 -42.48649 
L 157.716 -42.171004 
L 157.437 -41.865744 
L 157.158 -41.570756 
L 156.879 -41.286087 
L 156.6 -41.011783 
L 156.321 -40.747887 
L 156.042 -40.49444 
L 155.763 -40.251482 
L 155.484 -40.019052 
L 155.205 -39.797187 
L 154.926 -39.585921 
L 154.647 -39.385288 
L 154.368 -39.195319 
L 154.089 -39.016045 
L 153.81 -38.847494 
L 153.531 -38.689692 
L 153.252 -38.542664 
L 152.973 -38.406434 
L 152.694 -38.281023 
L 152.415 -38.166451 
L 152.136 -38.062736 
L 151.857 -37.969895 
L 151.578 -37.887941 
L 151.299 -37.816888 
L 151.02 -37.756748 
L 150.741 -37.707529 
L 150.462 -37.66924 
L 150.183 -37.641886 
L 149.904 -37.625472 
L 149.625 -37.62 
L 149.346 -37.625472 
L 149.067 -37.641886 
L 148.788 -37.66924 
L 148.509 -37.707529 
L 148.23 -37.756748 
L 147.951 -37.816888 
L 147.672 -37.887941 
L 147.393 -37.969895 
L 147.114 -38.062736 
L 146.835 -38.166451 
L 146.556 -38.281023 
L 146.277 -38.406434 
L 145.998 -38.542664 
L 145.719 -38.689692 
L 145.44 -38.847494 
L 145.161 -39.016045 
L 144.882 -39.195319 
L 144.603 -39.385288 
L 144.324 -39.585921 
L 144.045 -39.797187 
L 143.766 -40.019052 
L 143.487 -40.251482 
L 143.208 -40.49444 
L 142.929 -40.747887 
L 142.65 -41.011783 
L 142.371 -41.286087 
L 142.092 -41.570756 
L 141.813 -41.865744 
L 141.534 -42.171004 
L 141.255 -42.48649 
L 140.976 -42.81215 
L 140.697 -43.147933 
L 140.418 -43.493787 
L 140.139 -43.849656 
L 139.86 -44.215485 
L 139.581 -44.591216 
L 139.302 -44.976789 
L 139.023 -45.372144 
L 138.744 -45.777218 
L 138.465 -46.191947 
L 138.186 -46.616266 
L 137.907 -47.050107 
L 137.628 -47.493403 
L 137.349 -47.946082 
L 137.07 -48.408075 
L 136.791 -48.879307 
L 136.512 -49.359704 
L 136.233 -49.849191 
L 135.954 -50.34769 
L 135.675 -50.855122 
L 135.396 -51.371408 
L 135.117 -51.896465 
L 134.838 -52.430212 
L 134.559 -52.972563 
L 134.28 -53.523432 
L 134.001 -54.082734 
L 133.722 -54.650379 
L 133.443 -55.226279 
L 133.164 -55.810341 
L 132.885 -56.402474 
L 132.606 -57.002585 
L 132.327 -57.610578 
L 132.048 -58.226357 
L 131.769 -58.849826 
L 131.49 -59.480886 
L 131.211 -60.119436 
L 130.932 -60.765378 
L 130.653 -61.418607 
L 130.374 -62.079022 
L 130.095 -62.746518 
L 129.816 -63.420989 
L 129.537 -64.102329 
L 129.258 -64.79043 
L 128.979 -65.485185 
L 128.7 -66.186482 
L 128.421 -66.894212 
L 128.142 -67.608262 
L 127.863 -68.32852 
L 127.584 -69.054872 
L 127.305 -69.787203 
L 127.026 -70.525398 
L 126.747 -71.26934 
L 126.468 -72.018912 
L 126.189 -72.773995 
L 125.91 -73.53447 
L 125.631 -74.300218 
L 125.352 -75.071116 
L 125.073 -75.847043 
L 124.794 -76.627877 
L 124.515 -77.413495 
L 124.236 -78.203772 
L 123.957 -78.998584 
L 123.678 -79.797805 
L 123.399 -80.601309 
L 123.12 -81.408968 
L 122.841 -82.220657 
L 122.562 -83.036245 
L 122.283 -83.855606 
L 122.004 -84.678608 
L 121.725 -85.505122 
L 121.446 -86.335018 
L 121.167 -87.168165 
L 120.888 -88.004431 
L 120.609 -88.843684 
L 120.33 -89.685791 
L 120.051 -90.53062 
L 119.772 -91.378036 
L 119.493 -92.227907 
L 119.214 -93.080098 
L 118.935 -93.934475 
L 118.656 -94.790902 
L 118.377 -95.649244 
L 118.098 -96.509367 
L 117.819 -97.371133 
L 117.54 -98.234407 
L 117.261 -99.099053 
L 116.982 -99.964933 
L 116.703 -100.831912 
L 116.424 -101.699852 
L 116.145 -102.568617 
L 115.866 -103.438069 
L 115.587 -104.30807 
L 115.308 -105.178484 
L 115.029 -106.049173 
L 114.75 -106.92 
L 114.471 -107.790827 
L 114.192 -108.661516 
L 113.913 -109.53193 
L 113.634 -110.401931 
L 113.355 -111.271383 
L 113.076 -112.140148 
L 112.797 -113.008088 
L 112.518 -113.875067 
L 112.239 -114.740947 
L 111.96 -115.605593 
L 111.681 -116.468867 
L 111.402 -117.330633 
L 111.123 -118.190756 
L 110.844 -119.049098 
L 110.565 -119.905525 
L 110.286 -120.759902 
L 110.007 -121.612093 
L 109.728 -122.461964 
L 109.449 -123.30938 
L 109.17 -124.154209 
L 108.891 -124.996316 
L 108.612 -125.835569 
L 108.333 -126.671835 
L 108.054 -127.504982 
L 107.775 -128.334878 
L 107.496 -129.161392 
L 107.217 -129.984394 
L 106.938 -130.803755 
L 106.659 -131.619343 
L 106.38 -132.431032 
L 106.101 -133.238691 
L 105.822 -134.042195 
L 105.543 -134.841416 
L 105.264 -135.636228 
L 104.985 -136.426505 
L 104.706 -137.212123 
L 104.427 -137.992957 
L 104.148 -138.768884 
L 103.869 -139.539782 
L 103.59 -140.30553 
L 103.311 -141.066005 
L 103.032 -141.821088 
L 102.753 -142.57066 
L 102.474 -143.314602 
L 102.195 -144.052797 
L 101.916 -144.785128 
L 101.637 -145.51148 
L 101.358 -146.231738 
L 101.079 -146.945788 
L 100.8 -147.653518 
L 100.521 -148.354815 
L 100.242 -149.04957 
L 99.963 -149.737671 
L 99.684 -150.419011 
L 99.405 -151.093482 
L 99.126 -151.760978 
L 98.847 -152.421393 
L 98.568 -153.074622 
L 98.289 -153.720564 
L 98.01 -154.359114 
L 97.731 -154.990174 
L 97.452 -155.613643 
L 97.173 -156.229422 
L 96.894 -156.837415 
L 96.615 -157.437526 
L 96.336 -158.029659 
L 96.057 -158.613721 
L 95.778 -159.189621 
L 95.499 -159.757266 
L 95.22 -160.316568 
L 94.941 -160.867437 
L 94.662 -161.409788 
L 94.383 -161.943535 
L 94.104 -162.468592 
L 93.825 -162.984878 
L 93.546 -163.49231 
L 93.267 -163.990809 
L 92.988 -164.480296 
L 92.709 -164.960693 
L 92.43 -165.431925 
L 92.151 -165.893918 
L 91.872 -166.346597 
L 91.593 -166.789893 
L 91.314 -167.223734 
L 91.035 -167.648053 
L 90.756 -168.062782 
L 90.477 -168.467856 
L 90.198 -168.863211 
L 89.919 -169.248784 
L 89.64 -169.624515 
L 89.361 -169.990344 
L 89.082 -170.346213 
L 88.803 -170.692067 
L 88.524 -171.02785 
L 88.245 -171.35351 
L 87.966 -171.668996 
L 87.687 -171.974256 
L 87.408 -172.269244 
L 87.129 -172.553913 
L 86.85 -172.828217 
L 86.571 -173.092113 
L 86.292 -173.34556 
L 86.013 -173.588518 
L 85.734 -173.820948 
L 85.455 -174.042813 
L 85.176 -174.254079 
L 84.897 -174.454712 
L 84.618 -174.644681 
L 84.339 -174.823955 
L 84.06 -174.992506 
L 83.781 -175.150308 
L 83.502 -175.297336 
L 83.223 -175.433566 
L 82.944 -175.558977 
L 82.665 -175.673549 
L 82.386 -175.777264 
L 82.107 -175.870105 
L 81.828 -175.952059 
L 81.549 -176.023112 
L 81.27 -176.083252 
L 80.991 -176.132471 
L 80.712 -176.17076 
L 80.433 -176.198114 
L 80.154 -176.214528 
L 79.875 -176.22 
L 79.596 -176.214528 
L 79.317 -176.198114 
L 79.038 -176.17076 
L 78.759 -176.132471 
L 78.48 -176.083252 
L 78.201 -176.023112 
L 77.922 -175.952059 
L 77.643 -175.870105 
L 77.364 -175.777264 
L 77.085 -175.673549 
L 76.806 -175.558977 
L 76.527 -175.433566 
L 76.248 -175.297336 
L 75.969 -175.150308 
L 75.69 -174.992506 
L 75.411 -174.823955 
L 75.132 -174.644681 
L 74.853 -174.454712 
L 74.574 -174.254079 
L 74.295 -174.042813 
L 74.016 -173.820948 
L 73.737 -173.588518 
L 73.458 -173.34556 
L 73.179 -173.092113 
L 72.9 -172.828217 
L 72.621 -172.553913 
L 72.342 -172.269244 
L 72.063 -171.974256 
L 71.784 -171.668996 
L 71.505 -171.35351 
L 71.226 -171.02785 
L 70.947 -170.692067 
L 70.668 -170.346213 
L 70.389 -169.990344 
L 70.11 -169.624515 
L 69.831 -169.248784 
L 69.552 -168.863211 
L 69.273 -168.467856 
L 68.994 -168.062782 
L 68.715 -167.648053 
L 68.436 -167.223734 
L 68.157 -166.789893 
L 67.878 -166.346597 
L 67.599 -165.893918 
L 67.32 -165.431925 
L 67.041 -164.960693 
L 66.762 -164.480296 
L 66.483 -163.990809 
L 66.204 -163.49231 
L 65.925 -162.984878 
L 65.646 -162.468592 
L 65.367 -161.943535 
L 65.088 -161.409788 
L 64.809 -160.867437 
L 64.53 -160.316568 
L 64.251 -159.757266 
L 63.972 -159.189621 
L 63.693 -158.613721 
L 63.414 -158.029659 
L 63.135 -157.437526 
L 62.856 -156.837415 
L 62.577 -156.229422 
L 62.298 -155.613643 
L 62.019 -154.990174 
L 61.74 -154.359114 
L 61.461 -153.720564 
L 61.182 -153.074622 
L 60.903 -152.421393 
L 60.624 -151.760978 
L 60.345 -151.093482 
L 60.066 -150.419011 
L 59.787 -149.737671 
L 59.508 -149.04957 
L 59.229 -148.354815 
L 58.95 -147.653518 
L 58.671 -146.945788 
L 58.392 -146.231738 
L 58.113 -145.51148 
L 57.834 -144.785128 
L 57.555 -144.052797 
L 57.276 -143.314602 
L 56.997 -142.57066 
L 56.718 -141.821088 
L 56.439 -141.066005 
L 56.16 -140.30553 
L 55.881 -139.539782 
L 55.602 -138.768884 
L 55.323 -137.992957 
L 55.044 -137.212123 
L 54.765 -136.426505 
L 54.486 -135.636228 
L 54.207 -134.841416 
L 53.928 -134.042195 
L 53.649 -133.238691 
L 53.37 -132.431032 
L 53.091 -131.619343 
L 52.812 -130.803755 
L 52.533 -129.984394 
L 52.254 -129.161392 
L 51.975 -128.334878 
L 51.696 -127.504982 
L 51.417 -126.671835 
L 51.138 -125.835569 
L 50.859 -124.996316 
L 50.58 -124.154209 
L 50.301 -123.30938 
L 50.022 -122.461964 
L 49.743 -121.612093 
L 49.464 -120.759902 
L 49.185 -119.905525 
L 48.906 -119.049098 
L 48.627 -118.190756 
L 48.348 -117.330633 
L 48.069 -116.468867 
L 47.79 -115.605593 
L 47.511 -114.740947 
L 47.232 -113.875067 
L 46.953 -113.008088 
L 46.674 -112.140148 
L 46.395 -111.271383 
L 46.116 -110.401931 
L 45.837 -109.53193 
L 45.558 -108.661516 
L 45.279 -107.790827 
L 45 -106.92 
z
" style="stroke: #0088ff; stroke-opacity: 0.25"/>
    </defs>
    <g clip-path="url(#p2781c6444d)">
     <use xlink:href="#mb74ed79a28" x="0" y="216" style="fill: #0088ff; fill-opacity: 0.25; stroke: #0088ff; stroke-opacity: 0.25"/>
    </g>
   </g>
   <g id="matplotlib.axis_1">
    <g id="xtick_1">
     <g id="line2d_1">
      <defs>
       <path id="m20e6dffcc1" d="M 0 0 
L 0 3.5 
" style="stroke: #000000; stroke-width: 0.8"/>
      </defs>
      <g>
       <use xlink:href="#m20e6dffcc1" x="45" y="192.24" style="stroke: #000000; stroke-width: 0.8"/>
      </g>
     </g>
     <g id="text_1">
      <!-- 0 -->
      <g transform="translate(41.81875 206.838437) scale(0.1 -0.1)">
       <defs>
        <path id="DejaVuSans-30" d="M 2034 4250 
Q 1547 4250 1301 3770 
Q 1056 3291 1056 2328 
Q 1056 1369 1301 889 
Q 1547 409 2034 409 
Q 2525 409 2770 889 
Q 3016 1369 3016 2328 
Q 3016 3291 2770 3770 
Q 2525 4250 2034 4250 
z
M 2034 4750 
Q 2819 4750 3233 4129 
Q 3647 3509 3647 2328 
Q 3647 1150 3233 529 
Q 2819 -91 2034 -91 
Q 1250 -91 836 529 
Q 422 1150 422 2328 
Q 422 3509 836 4129 
Q 1250 4750 2034 4750 
z
" transform="scale(0.015625)"/>
       </defs>
       <use xlink:href="#DejaVuSans-30"/>
      </g>
     </g>
    </g>
    <g id="xtick_2">
     <g id="line2d_2">
      <g>
       <use xlink:href="#m20e6dffcc1" x="89.404229" y="192.24" style="stroke: #000000; stroke-width: 0.8"/>
      </g>
     </g>
     <g id="text_2">
      <!-- 2 -->
      <g transform="translate(86.222979 206.838437) scale(0.1 -0.1)">
       <defs>
        <path id="DejaVuSans-32" d="M 1228 531 
L 3431 531 
L 3431 0 
L 469 0 
L 469 531 
Q 828 903 1448 1529 
Q 2069 2156 2228 2338 
Q 2531 2678 2651 2914 
Q 2772 3150 2772 3378 
Q 2772 3750 2511 3984 
Q 2250 4219 1831 4219 
Q 1534 4219 1204 4116 
Q 875 4013 500 3803 
L 500 4441 
Q 881 4594 1212 4672 
Q 1544 4750 1819 4750 
Q 2544 4750 2975 4387 
Q 3406 4025 3406 3419 
Q 3406 3131 3298 2873 
Q 3191 2616 2906 2266 
Q 2828 2175 2409 1742 
Q 1991 1309 1228 531 
z
" transform="scale(0.015625)"/>
       </defs>
       <use xlink:href="#DejaVuSans-32"/>
      </g>
     </g>
    </g>
    <g id="xtick_3">
     <g id="line2d_3">
      <g>
       <use xlink:href="#m20e6dffcc1" x="133.808458" y="192.24" style="stroke: #000000; stroke-width: 0.8"/>
      </g>
     </g>
     <g id="text_3">
      <!-- 4 -->
      <g transform="translate(130.627208 206.838437) scale(0.1 -0.1)">
       <defs>
        <path id="DejaVuSans-34" d="M 2419 4116 
L 825 1625 
L 2419 1625 
L 2419 4116 
z
M 2253 4666 
L 3047 4666 
L 3047 1625 
L 3713 1625 
L 3713 1100 
L 3047 1100 
L 3047 0 
L 2419 0 
L 2419 1100 
L 313 1100 
L 313 1709 
L 2253 4666 
z
" transform="scale(0.015625)"/>
       </defs>
       <use xlink:href="#DejaVuSans-34"/>
      </g>
     </g>
    </g>
    <g id="xtick_4">
     <g id="line2d_4">
      <g>
       <use xlink:href="#m20e6dffcc1" x="178.212687" y="192.24" style="stroke: #000000; stroke-width: 0.8"/>
      </g>
     </g>
     <g id="text_4">
      <!-- 6 -->
      <g transform="translate(175.031437 206.838437) scale(0.1 -0.1)">
       <defs>
        <path id="DejaVuSans-36" d="M 2113 2584 
Q 1688 2584 1439 2293 
Q 1191 2003 1191 1497 
Q 1191 994 1439 701 
Q 1688 409 2113 409 
Q 2538 409 2786 701 
Q 3034 994 3034 1497 
Q 3034 2003 2786 2293 
Q 2538 2584 2113 2584 
z
M 3366 4563 
L 3366 3988 
Q 3128 4100 2886 4159 
Q 2644 4219 2406 4219 
Q 1781 4219 1451 3797 
Q 1122 3375 1075 2522 
Q 1259 2794 1537 2939 
Q 1816 3084 2150 3084 
Q 2853 3084 3261 2657 
Q 3669 2231 3669 1497 
Q 3669 778 3244 343 
Q 2819 -91 2113 -91 
Q 1303 -91 875 529 
Q 447 1150 447 2328 
Q 447 3434 972 4092 
Q 1497 4750 2381 4750 
Q 2619 4750 2861 4703 
Q 3103 4656 3366 4563 
z
" transform="scale(0.015625)"/>
       </defs>
       <use xlink:href="#DejaVuSans-36"/>
      </g>
     </g>
    </g>
    <g id="xtick_5">
     <g id="line2d_5">
      <g>
       <use xlink:href="#m20e6dffcc1" x="222.616916" y="192.24" style="stroke: #000000; stroke-width: 0.8"/>
      </g>
     </g>
     <g id="text_5">
      <!-- 8 -->
      <g transform="translate(219.435666 206.838437) scale(0.1 -0.1)">
       <defs>
        <path id="DejaVuSans-38" d="M 2034 2216 
Q 1584 2216 1326 1975 
Q 1069 1734 1069 1313 
Q 1069 891 1326 650 
Q 1584 409 2034 409 
Q 2484 409 2743 651 
Q 3003 894 3003 1313 
Q 3003 1734 2745 1975 
Q 2488 2216 2034 2216 
z
M 1403 2484 
Q 997 2584 770 2862 
Q 544 3141 544 3541 
Q 544 4100 942 4425 
Q 1341 4750 2034 4750 
Q 2731 4750 3128 4425 
Q 3525 4100 3525 3541 
Q 3525 3141 3298 2862 
Q 3072 2584 2669 2484 
Q 3125 2378 3379 2068 
Q 3634 1759 3634 1313 
Q 3634 634 3220 271 
Q 2806 -91 2034 -91 
Q 1263 -91 848 271 
Q 434 634 434 1313 
Q 434 1759 690 2068 
Q 947 2378 1403 2484 
z
M 1172 3481 
Q 1172 3119 1398 2916 
Q 1625 2713 2034 2713 
Q 2441 2713 2670 2916 
Q 2900 3119 2900 3481 
Q 2900 3844 2670 4047 
Q 2441 4250 2034 4250 
Q 1625 4250 1398 4047 
Q 1172 3844 1172 3481 
z
" transform="scale(0.015625)"/>
       </defs>
       <use xlink:href="#DejaVuSans-38"/>
      </g>
     </g>
    </g>
    <g id="xtick_6">
     <g id="line2d_6">
      <g>
       <use xlink:href="#m20e6dffcc1" x="267.021146" y="192.24" style="stroke: #000000; stroke-width: 0.8"/>
      </g>
     </g>
     <g id="text_6">
      <!-- 10 -->
      <g transform="translate(260.658646 206.838437) scale(0.1 -0.1)">
       <defs>
        <path id="DejaVuSans-31" d="M 794 531 
L 1825 531 
L 1825 4091 
L 703 3866 
L 703 4441 
L 1819 4666 
L 2450 4666 
L 2450 531 
L 3481 531 
L 3481 0 
L 794 0 
L 794 531 
z
" transform="scale(0.015625)"/>
       </defs>
       <use xlink:href="#DejaVuSans-31"/>
       <use xlink:href="#DejaVuSans-30" transform="translate(63.623047 0)"/>
      </g>
     </g>
    </g>
    <g id="xtick_7">
     <g id="line2d_7">
      <g>
       <use xlink:href="#m20e6dffcc1" x="311.425375" y="192.24" style="stroke: #000000; stroke-width: 0.8"/>
      </g>
     </g>
     <g id="text_7">
      <!-- 12 -->
      <g transform="translate(305.062875 206.838437) scale(0.1 -0.1)">
       <use xlink:href="#DejaVuSans-31"/>
       <use xlink:href="#DejaVuSans-32" transform="translate(63.623047 0)"/>
      </g>
     </g>
    </g>
    <g id="text_8">
     <!-- x -->
     <g transform="translate(181.540625 220.516562) scale(0.1 -0.1)">
      <defs>
       <path id="DejaVuSans-78" d="M 3513 3500 
L 2247 1797 
L 3578 0 
L 2900 0 
L 1881 1375 
L 863 0 
L 184 0 
L 1544 1831 
L 300 3500 
L 978 3500 
L 1906 2253 
L 2834 3500 
L 3513 3500 
z
" transform="scale(0.015625)"/>
      </defs>
      <use xlink:href="#DejaVuSans-78"/>
     </g>
    </g>
   </g>
   <g id="matplotlib.axis_2">
    <g id="ytick_1">
     <g id="line2d_8">
      <defs>
       <path id="mab2a742af9" d="M 0 0 
L -3.5 0 
" style="stroke: #000000; stroke-width: 0.8"/>
      </defs>
      <g>
       <use xlink:href="#mab2a742af9" x="45" y="178.38" style="stroke: #000000; stroke-width: 0.8"/>
      </g>
     </g>
     <g id="text_9">
      <!-- −1.0 -->
      <g transform="translate(13.717187 182.179219) scale(0.1 -0.1)">
       <defs>
        <path id="DejaVuSans-2212" d="M 678 2272 
L 4684 2272 
L 4684 1741 
L 678 1741 
L 678 2272 
z
" transform="scale(0.015625)"/>
        <path id="DejaVuSans-2e" d="M 684 794 
L 1344 794 
L 1344 0 
L 684 0 
L 684 794 
z
" transform="scale(0.015625)"/>
       </defs>
       <use xlink:href="#DejaVuSans-2212"/>
       <use xlink:href="#DejaVuSans-31" transform="translate(83.789062 0)"/>
       <use xlink:href="#DejaVuSans-2e" transform="translate(147.412109 0)"/>
       <use xlink:href="#DejaVuSans-30" transform="translate(179.199219 0)"/>
      </g>
     </g>
    </g>
    <g id="ytick_2">
     <g id="line2d_9">
      <g>
       <use xlink:href="#mab2a742af9" x="45" y="143.73" style="stroke: #000000; stroke-width: 0.8"/>
      </g>
     </g>
     <g id="text_10">
      <!-- −0.5 -->
      <g transform="translate(13.717187 147.529219) scale(0.1 -0.1)">
       <defs>
        <path id="DejaVuSans-35" d="M 691 4666 
L 3169 4666 
L 3169 4134 
L 1269 4134 
L 1269 2991 
Q 1406 3038 1543 3061 
Q 1681 3084 1819 3084 
Q 2600 3084 3056 2656 
Q 3513 2228 3513 1497 
Q 3513 744 3044 326 
Q 2575 -91 1722 -91 
Q 1428 -91 1123 -41 
Q 819 9 494 109 
L 494 744 
Q 775 591 1075 516 
Q 1375 441 1709 441 
Q 2250 441 2565 725 
Q 2881 1009 2881 1497 
Q 2881 1984 2565 2268 
Q 2250 2553 1709 2553 
Q 1456 2553 1204 2497 
Q 953 2441 691 2322 
L 691 4666 
z
" transform="scale(0.015625)"/>
       </defs>
       <use xlink:href="#DejaVuSans-2212"/>
       <use xlink:href="#DejaVuSans-30" transform="translate(83.789062 0)"/>
       <use xlink:href="#DejaVuSans-2e" transform="translate(147.412109 0)"/>
       <use xlink:href="#DejaVuSans-35" transform="translate(179.199219 0)"/>
      </g>
     </g>
    </g>
    <g id="ytick_3">
     <g id="line2d_10">
      <g>
       <use xlink:href="#mab2a742af9" x="45" y="109.08" style="stroke: #000000; stroke-width: 0.8"/>
      </g>
     </g>
     <g id="text_11">
      <!-- 0.0 -->
      <g transform="translate(22.096875 112.879219) scale(0.1 -0.1)">
       <use xlink:href="#DejaVuSans-30"/>
       <use xlink:href="#DejaVuSans-2e" transform="translate(63.623047 0)"/>
       <use xlink:href="#DejaVuSans-30" transform="translate(95.410156 0)"/>
      </g>
     </g>
    </g>
    <g id="ytick_4">
     <g id="line2d_11">
      <g>
       <use xlink:href="#mab2a742af9" x="45" y="74.43" style="stroke: #000000; stroke-width: 0.8"/>
      </g>
     </g>
     <g id="text_12">
      <!-- 0.5 -->
      <g transform="translate(22.096875 78.229219) scale(0.1 -0.1)">
       <use xlink:href="#DejaVuSans-30"/>
       <use xlink:href="#DejaVuSans-2e" transform="translate(63.623047 0)"/>
       <use xlink:href="#DejaVuSans-35" transform="translate(95.410156 0)"/>
      </g>
     </g>
    </g>
    <g id="ytick_5">
     <g id="line2d_12">
      <g>
       <use xlink:href="#mab2a742af9" x="45" y="39.78" style="stroke: #000000; stroke-width: 0.8"/>
      </g>
     </g>
     <g id="text_13">
      <!-- 1.0 -->
      <g transform="translate(22.096875 43.579219) scale(0.1 -0.1)">
       <use xlink:href="#DejaVuSans-31"/>
       <use xlink:href="#DejaVuSans-2e" transform="translate(63.623047 0)"/>
       <use xlink:href="#DejaVuSans-30" transform="translate(95.410156 0)"/>
      </g>
     </g>
    </g>
    <g id="text_14">
     <!-- f(x) -->
     <g transform="translate(7.6375 117.701094) rotate(-90) scale(0.1 -0.1)">
      <defs>
       <path id="DejaVuSans-66" d="M 2375 4863 
L 2375 4384 
L 1825 4384 
Q 1516 4384 1395 4259 
Q 1275 4134 1275 3809 
L 1275 3500 
L 2222 3500 
L 2222 3053 
L 1275 3053 
L 1275 0 
L 697 0 
L 697 3053 
L 147 3053 
L 147 3500 
L 697 3500 
L 697 3744 
Q 697 4328 969 4595 
Q 1241 4863 1831 4863 
L 2375 4863 
z
" transform="scale(0.015625)"/>
       <path id="DejaVuSans-28" d="M 1984 4856 
Q 1566 4138 1362 3434 
Q 1159 2731 1159 2009 
Q 1159 1288 1364 580 
Q 1569 -128 1984 -844 
L 1484 -844 
Q 1016 -109 783 600 
Q 550 1309 550 2009 
Q 550 2706 781 3412 
Q 1013 4119 1484 4856 
L 1984 4856 
z
" transform="scale(0.015625)"/>
       <path id="DejaVuSans-29" d="M 513 4856 
L 1013 4856 
Q 1481 4119 1714 3412 
Q 1947 2706 1947 2009 
Q 1947 1309 1714 600 
Q 1481 -109 1013 -844 
L 513 -844 
Q 928 -128 1133 580 
Q 1338 1288 1338 2009 
Q 1338 2731 1133 3434 
Q 928 4138 513 4856 
z
" transform="scale(0.015625)"/>
      </defs>
      <use xlink:href="#DejaVuSans-66"/>
      <use xlink:href="#DejaVuSans-28" transform="translate(35.205078 0)"/>
      <use xlink:href="#DejaVuSans-78" transform="translate(74.21875 0)"/>
      <use xlink:href="#DejaVuSans-29" transform="translate(133.398438 0)"/>
     </g>
    </g>
   </g>
   <g id="line2d_13">
    <path d="M 45 109.08 
L 51.975 87.665122 
L 55.602 77.231116 
L 58.671 69.054212 
L 61.461 62.279436 
L 63.693 57.386279 
L 65.925 53.015122 
L 67.878 49.653403 
L 69.831 46.751216 
L 71.505 44.64649 
L 73.179 42.907887 
L 74.574 41.745921 
L 75.969 40.849692 
L 77.364 40.222736 
L 78.759 39.867529 
L 80.154 39.785472 
L 81.549 39.976888 
L 82.944 40.441023 
L 84.339 41.176045 
L 85.734 42.179052 
L 87.129 43.446087 
L 88.803 45.307933 
L 90.477 47.532144 
L 92.151 50.106082 
L 94.104 53.531408 
L 96.057 57.386279 
L 98.289 62.279436 
L 100.8 68.346482 
L 103.59 75.69447 
L 106.938 85.196245 
L 111.123 97.809244 
L 123.678 136.202195 
L 127.026 145.474602 
L 129.816 152.579011 
L 132.327 158.389422 
L 134.559 163.027437 
L 136.512 166.640296 
L 138.465 169.808053 
L 140.139 172.150344 
L 141.813 174.134256 
L 143.487 175.748518 
L 144.882 176.804681 
L 146.277 177.593566 
L 147.672 178.112059 
L 149.067 178.358114 
L 150.462 178.33076 
L 151.857 178.030105 
L 153.252 177.457336 
L 154.647 176.614712 
L 156.042 175.50556 
L 157.437 174.134256 
L 159.111 172.150344 
L 160.785 169.808053 
L 162.738 166.640296 
L 164.691 163.027437 
L 166.923 158.389422 
L 169.434 152.579011 
L 172.224 145.474602 
L 175.293 137.001416 
L 178.92 126.314209 
L 184.5 109.08 
L 191.475 87.665122 
L 195.102 77.231116 
L 198.171 69.054212 
L 200.961 62.279436 
L 203.193 57.386279 
L 205.425 53.015122 
L 207.378 49.653403 
L 209.331 46.751216 
L 211.005 44.64649 
L 212.679 42.907887 
L 214.074 41.745921 
L 215.469 40.849692 
L 216.864 40.222736 
L 218.259 39.867529 
L 219.654 39.785472 
L 221.049 39.976888 
L 222.444 40.441023 
L 223.839 41.176045 
L 225.234 42.179052 
L 226.629 43.446087 
L 228.303 45.307933 
L 229.977 47.532144 
L 231.651 50.106082 
L 233.604 53.531408 
L 235.557 57.386279 
L 237.789 62.279436 
L 240.3 68.346482 
L 243.09 75.69447 
L 246.438 85.196245 
L 250.623 97.809244 
L 263.178 136.202195 
L 266.526 145.474602 
L 269.316 152.579011 
L 271.827 158.389422 
L 274.059 163.027437 
L 276.012 166.640296 
L 277.965 169.808053 
L 279.639 172.150344 
L 281.313 174.134256 
L 282.987 175.748518 
L 284.382 176.804681 
L 285.777 177.593566 
L 287.172 178.112059 
L 288.567 178.358114 
L 289.962 178.33076 
L 291.357 178.030105 
L 292.752 177.457336 
L 294.147 176.614712 
L 295.542 175.50556 
L 296.937 174.134256 
L 298.611 172.150344 
L 300.285 169.808053 
L 302.238 166.640296 
L 304.191 163.027437 
L 306.423 158.389422 
L 308.934 152.579011 
L 311.724 145.474602 
L 314.793 137.001416 
L 318.42 126.314209 
L 324 109.08 
L 324 109.08 
" clip-path="url(#p2781c6444d)" style="fill: none; stroke: #0088ff; stroke-width: 1.5; stroke-linecap: square"/>
   </g>
   <g id="patch_3">
    <path d="M 45 192.24 
L 45 25.92 
" style="fill: none; stroke: #000000; stroke-width: 0.8; stroke-linejoin: miter; stroke-linecap: square"/>
   </g>
   <g id="patch_4">
    <path d="M 324 192.24 
L 324 25.92 
" style="fill: none; stroke: #000000; stroke-width: 0.8; stroke-linejoin: miter; stroke-linecap: square"/>
   </g>
   <g id="patch_5">
    <path d="M 45 192.24 
L 324 192.24 
" style="fill: none; stroke: #000000; stroke-width: 0.8; stroke-linejoin: miter; stroke-linecap: square"/>
   </g>
   <g id="patch_6">
    <path d="M 45 25.92 
L 324 25.92 
" style="fill: none; stroke: #000000; stroke-width: 0.8; stroke-linejoin: miter; stroke-linecap: square"/>
   </g>
  </g>
 </g>
 <defs>
  <clipPath id="p2781c6444d">
   <rect x="45" y="25.92" width="279" height="166.32"/>
  </clipPath>
 </defs>
</svg>
