<?xml version="1.0" encoding="utf-8" standalone="no"?>
<!DOCTYPE svg PUBLIC "-//W3C//DTD SVG 1.1//EN"
  "http://www.w3.org/Graphics/SVG/1.1/DTD/svg11.dtd">
<svg xmlns:xlink="http://www.w3.org/1999/xlink" width="360pt" height="216pt" viewBox="0 0 360 216" xmlns="http://www.w3.org/2000/svg" version="1.1">
 <metadata>
  <rdf:RDF xmlns:dc="http://purl.org/dc/elements/1.1/" xmlns:cc="http://creativecommons.org/ns#" xmlns:rdf="http://www.w3.org/1999/02/22-rdf-syntax-ns#">
   <cc:Work>
    <dc:type rdf:resource="http://purl.org/dc/dcmitype/StillImage"/>
    <dc:date>2025-12-03T16:23:34.507518</dc:date>
    <dc:format>image/svg+xml</dc:format>
    <dc:creator>
     <cc:Agent>
      <dc:title>Matplotlib v3.10.6, https://matplotlib.org/</dc:title>
     </cc:Agent>
    </dc:creator>
   </cc:Work>
  </rdf:RDF>
 </metadata>
 <defs>
  <style type="text/css">*{stroke-linejoin: round; stroke-linecap: butt}</style>
 </defs>
 <g id="figure_1">
  <g id="patch_1">
   <path d="M 0 216 
L 360 216 
L 360 0 
L 0 0 
z
" style="fill: #ffffff"/>
  </g>
  <g id="axes_1">
   <g id="patch_2">
    <path d="M 45 192.24 
L 324 192.24 
L 324 25.92 
L 45 25.92 
z
" style="fill: #ffffff"/>
   </g>
   <g id="FillBetweenPolyCollection_1">
    <path d="M 45 109.08 
L 45 192.24 
L 45.279 192.24 
L 45.558 192.24 
L 45.837 192.24 
L 46.116 192.24 
L 46.395 192.24 
L 46.674 192.24 
L 46.953 192.24 
L 47.232 192.24 
L 47.511 192.24 
L 47.79 192.24 
L 48.069 192.24 
L 48.348 192.24 
L 48.627 192.24 
L 48.906 192.24 
L 49.185 192.24 
L 49.464 192.24 
L 49.743 192.24 
L 50.022 192.24 
L 50.301 192.24 
L 50.58 192.24 
L 50.859 192.24 
L 51.138 192.24 
L 51.417 192.24 
L 51.696 192.24 
L 51.975 192.24 
L 52.254 192.24 
L 52.533 192.24 
L 52.812 192.24 
L 53.091 192.24 
L 53.37 192.24 
L 53.649 192.24 
L 53.928 192.24 
L 54.207 192.24 
L 54.486 192.24 
L 54.765 192.24 
L 55.044 192.24 
L 55.323 192.24 
L 55.602 192.24 
L 55.881 192.24 
L 56.16 192.24 
L 56.439 192.24 
L 56.718 192.24 
L 56.997 192.24 
L 57.276 192.24 
L 57.555 192.24 
L 57.834 192.24 
L 58.113 192.24 
L 58.392 192.24 
L 58.671 192.24 
L 58.95 192.24 
L 59.229 192.24 
L 59.508 192.24 
L 59.787 192.24 
L 60.066 192.24 
L 60.345 192.24 
L 60.624 192.24 
L 60.903 192.24 
L 61.182 192.24 
L 61.461 192.24 
L 61.74 192.24 
L 62.019 192.24 
L 62.298 192.24 
L 62.577 192.24 
L 62.856 192.24 
L 63.135 192.24 
L 63.414 192.24 
L 63.693 192.24 
L 63.972 192.24 
L 64.251 192.24 
L 64.53 192.24 
L 64.809 192.24 
L 65.088 192.24 
L 65.367 192.24 
L 65.646 192.24 
L 65.925 192.24 
L 66.204 192.24 
L 66.483 192.24 
L 66.762 192.24 
L 67.041 192.24 
L 67.32 192.24 
L 67.599 192.24 
L 67.878 192.24 
L 68.157 192.24 
L 68.436 192.24 
L 68.715 192.24 
L 68.994 192.24 
L 69.273 192.24 
L 69.552 192.24 
L 69.831 192.24 
L 70.11 192.24 
L 70.389 192.24 
L 70.668 192.24 
L 70.947 192.24 
L 71.226 192.24 
L 71.505 192.24 
L 71.784 192.24 
L 72.063 192.24 
L 72.342 192.24 
L 72.621 192.24 
L 72.9 192.24 
L 73.179 192.24 
L 73.458 192.24 
L 73.737 192.24 
L 74.016 192.24 
L 74.295 192.24 
L 74.574 192.24 
L 74.853 192.24 
L 75.132 192.24 
L 75.411 192.24 
L 75.69 192.24 
L 75.969 192.24 
L 76.248 192.24 
L 76.527 192.24 
L 76.806 192.24 
L 77.085 192.24 
L 77.364 192.24 
L 77.643 192.24 
L 77.922 192.24 
L 78.201 192.24 
L 78.48 192.24 
L 78.759 192.24 
L 79.038 192.24 
L 79.317 192.24 
L 79.596 192.24 
L 79.875 192.24 
L 80.154 192.24 
L 80.433 192.24 
L 80.712 192.24 
L 80.991 192.24 
L 81.27 192.24 
L 81.549 192.24 
L 81.828 192.24 
L 82.107 192.24 
L 82.386 192.24 
L 82.665 192.24 
L 82.944 192.24 
L 83.223 192.24 
L 83.502 192.24 
L 83.781 192.24 
L 84.06 192.24 
L 84.339 192.24 
L 84.618 192.24 
L 84.897 192.24 
L 85.176 192.24 
L 85.455 192.24 
L 85.734 192.24 
L 86.013 192.24 
L 86.292 192.24 
L 86.571 192.24 
L 86.85 192.24 
L 87.129 192.24 
L 87.408 192.24 
L 87.687 192.24 
L 87.966 192.24 
L 88.245 192.24 
L 88.524 192.24 
L 88.803 192.24 
L 89.082 192.24 
L 89.361 192.24 
L 89.64 192.24 
L 89.919 192.24 
L 90.198 192.24 
L 90.477 192.24 
L 90.756 192.24 
L 91.035 192.24 
L 91.314 192.24 
L 91.593 192.24 
L 91.872 192.24 
L 92.151 192.24 
L 92.43 192.24 
L 92.709 192.24 
L 92.988 192.24 
L 93.267 192.24 
L 93.546 192.24 
L 93.825 192.24 
L 94.104 192.24 
L 94.383 192.24 
L 94.662 192.24 
L 94.941 192.24 
L 95.22 192.24 
L 95.499 192.24 
L 95.778 192.24 
L 96.057 192.24 
L 96.336 192.24 
L 96.615 192.24 
L 96.894 192.24 
L 97.173 192.24 
L 97.452 192.24 
L 97.731 192.24 
L 98.01 192.24 
L 98.289 192.24 
L 98.568 192.24 
L 98.847 192.24 
L 99.126 192.24 
L 99.405 192.24 
L 99.684 192.24 
L 99.963 192.24 
L 100.242 192.24 
L 100.521 192.24 
L 100.8 192.24 
L 101.079 192.24 
L 101.358 192.24 
L 101.637 192.24 
L 101.916 192.24 
L 102.195 192.24 
L 102.474 192.24 
L 102.753 192.24 
L 103.032 192.24 
L 103.311 192.24 
L 103.59 192.24 
L 103.869 192.24 
L 104.148 192.24 
L 104.427 192.24 
L 104.706 192.24 
L 104.985 192.24 
L 105.264 192.24 
L 105.543 192.24 
L 105.822 192.24 
L 106.101 192.24 
L 106.38 192.24 
L 106.659 192.24 
L 106.938 192.24 
L 107.217 192.24 
L 107.496 192.24 
L 107.775 192.24 
L 108.054 192.24 
L 108.333 192.24 
L 108.612 192.24 
L 108.891 192.24 
L 109.17 192.24 
L 109.449 192.24 
L 109.728 192.24 
L 110.007 192.24 
L 110.286 192.24 
L 110.565 192.24 
L 110.844 192.24 
L 111.123 192.24 
L 111.402 192.24 
L 111.681 192.24 
L 111.96 192.24 
L 112.239 192.24 
L 112.518 192.24 
L 112.797 192.24 
L 113.076 192.24 
L 113.355 192.24 
L 113.634 192.24 
L 113.913 192.24 
L 114.192 192.24 
L 114.471 192.24 
L 114.75 192.24 
L 115.029 192.24 
L 115.308 192.24 
L 115.587 192.24 
L 115.866 192.24 
L 116.145 192.24 
L 116.424 192.24 
L 116.703 192.24 
L 116.982 192.24 
L 117.261 192.24 
L 117.54 192.24 
L 117.819 192.24 
L 118.098 192.24 
L 118.377 192.24 
L 118.656 192.24 
L 118.935 192.24 
L 119.214 192.24 
L 119.493 192.24 
L 119.772 192.24 
L 120.051 192.24 
L 120.33 192.24 
L 120.609 192.24 
L 120.888 192.24 
L 121.167 192.24 
L 121.446 192.24 
L 121.725 192.24 
L 122.004 192.24 
L 122.283 192.24 
L 122.562 192.24 
L 122.841 192.24 
L 123.12 192.24 
L 123.399 192.24 
L 123.678 192.24 
L 123.957 192.24 
L 124.236 192.24 
L 124.515 192.24 
L 124.794 192.24 
L 125.073 192.24 
L 125.352 192.24 
L 125.631 192.24 
L 125.91 192.24 
L 126.189 192.24 
L 126.468 192.24 
L 126.747 192.24 
L 127.026 192.24 
L 127.305 192.24 
L 127.584 192.24 
L 127.863 192.24 
L 128.142 192.24 
L 128.421 192.24 
L 128.7 192.24 
L 128.979 192.24 
L 129.258 192.24 
L 129.537 192.24 
L 129.816 192.24 
L 130.095 192.24 
L 130.374 192.24 
L 130.653 192.24 
L 130.932 192.24 
L 131.211 192.24 
L 131.49 192.24 
L 131.769 192.24 
L 132.048 192.24 
L 132.327 192.24 
L 132.606 192.24 
L 132.885 192.24 
L 133.164 192.24 
L 133.443 192.24 
L 133.722 192.24 
L 134.001 192.24 
L 134.28 192.24 
L 134.559 192.24 
L 134.838 192.24 
L 135.117 192.24 
L 135.396 192.24 
L 135.675 192.24 
L 135.954 192.24 
L 136.233 192.24 
L 136.512 192.24 
L 136.791 192.24 
L 137.07 192.24 
L 137.349 192.24 
L 137.628 192.24 
L 137.907 192.24 
L 138.186 192.24 
L 138.465 192.24 
L 138.744 192.24 
L 139.023 192.24 
L 139.302 192.24 
L 139.581 192.24 
L 139.86 192.24 
L 140.139 192.24 
L 140.418 192.24 
L 140.697 192.24 
L 140.976 192.24 
L 141.255 192.24 
L 141.534 192.24 
L 141.813 192.24 
L 142.092 192.24 
L 142.371 192.24 
L 142.65 192.24 
L 142.929 192.24 
L 143.208 192.24 
L 143.487 192.24 
L 143.766 192.24 
L 144.045 192.24 
L 144.324 192.24 
L 144.603 192.24 
L 144.882 192.24 
L 145.161 192.24 
L 145.44 192.24 
L 145.719 192.24 
L 145.998 192.24 
L 146.277 192.24 
L 146.556 192.24 
L 146.835 192.24 
L 147.114 192.24 
L 147.393 192.24 
L 147.672 192.24 
L 147.951 192.24 
L 148.23 192.24 
L 148.509 192.24 
L 148.788 192.24 
L 149.067 192.24 
L 149.346 192.24 
L 149.625 192.24 
L 149.904 192.24 
L 150.183 192.24 
L 150.462 192.24 
L 150.741 192.24 
L 151.02 192.24 
L 151.299 192.24 
L 151.578 192.24 
L 151.857 192.24 
L 152.136 192.24 
L 152.415 192.24 
L 152.694 192.24 
L 152.973 192.24 
L 153.252 192.24 
L 153.531 192.24 
L 153.81 192.24 
L 154.089 192.24 
L 154.368 192.24 
L 154.647 192.24 
L 154.926 192.24 
L 155.205 192.24 
L 155.484 192.24 
L 155.763 192.24 
L 156.042 192.24 
L 156.321 192.24 
L 156.6 192.24 
L 156.879 192.24 
L 157.158 192.24 
L 157.437 192.24 
L 157.716 192.24 
L 157.995 192.24 
L 158.274 192.24 
L 158.553 192.24 
L 158.832 192.24 
L 159.111 192.24 
L 159.39 192.24 
L 159.669 192.24 
L 159.948 192.24 
L 160.227 192.24 
L 160.506 192.24 
L 160.785 192.24 
L 161.064 192.24 
L 161.343 192.24 
L 161.622 192.24 
L 161.901 192.24 
L 162.18 192.24 
L 162.459 192.24 
L 162.738 192.24 
L 163.017 192.24 
L 163.296 192.24 
L 163.575 192.24 
L 163.854 192.24 
L 164.133 192.24 
L 164.412 192.24 
L 164.691 192.24 
L 164.97 192.24 
L 165.249 192.24 
L 165.528 192.24 
L 165.807 192.24 
L 166.086 192.24 
L 166.365 192.24 
L 166.644 192.24 
L 166.923 192.24 
L 167.202 192.24 
L 167.481 192.24 
L 167.76 192.24 
L 168.039 192.24 
L 168.318 192.24 
L 168.597 192.24 
L 168.876 192.24 
L 169.155 192.24 
L 169.434 192.24 
L 169.713 192.24 
L 169.992 192.24 
L 170.271 192.24 
L 170.55 192.24 
L 170.829 192.24 
L 171.108 192.24 
L 171.387 192.24 
L 171.666 192.24 
L 171.945 192.24 
L 172.224 192.24 
L 172.503 192.24 
L 172.782 192.24 
L 173.061 192.24 
L 173.34 192.24 
L 173.619 192.24 
L 173.898 192.24 
L 174.177 192.24 
L 174.456 192.24 
L 174.735 192.24 
L 175.014 192.24 
L 175.293 192.24 
L 175.572 192.24 
L 175.851 192.24 
L 176.13 192.24 
L 176.409 192.24 
L 176.688 192.24 
L 176.967 192.24 
L 177.246 192.24 
L 177.525 192.24 
L 177.804 192.24 
L 178.083 192.24 
L 178.362 192.24 
L 178.641 192.24 
L 178.92 192.24 
L 179.199 192.24 
L 179.478 192.24 
L 179.757 192.24 
L 180.036 192.24 
L 180.315 192.24 
L 180.594 192.24 
L 180.873 192.24 
L 181.152 192.24 
L 181.431 192.24 
L 181.71 192.24 
L 181.989 192.24 
L 182.268 192.24 
L 182.547 192.24 
L 182.826 192.24 
L 183.105 192.24 
L 183.384 192.24 
L 183.663 192.24 
L 183.942 192.24 
L 184.221 192.24 
L 184.5 192.24 
L 184.779 192.24 
L 185.058 192.24 
L 185.337 192.24 
L 185.616 192.24 
L 185.895 192.24 
L 186.174 192.24 
L 186.453 192.24 
L 186.732 192.24 
L 187.011 192.24 
L 187.29 192.24 
L 187.569 192.24 
L 187.848 192.24 
L 188.127 192.24 
L 188.406 192.24 
L 188.685 192.24 
L 188.964 192.24 
L 189.243 192.24 
L 189.522 192.24 
L 189.801 192.24 
L 190.08 192.24 
L 190.359 192.24 
L 190.638 192.24 
L 190.917 192.24 
L 191.196 192.24 
L 191.475 192.24 
L 191.754 192.24 
L 192.033 192.24 
L 192.312 192.24 
L 192.591 192.24 
L 192.87 192.24 
L 193.149 192.24 
L 193.428 192.24 
L 193.707 192.24 
L 193.986 192.24 
L 194.265 192.24 
L 194.544 192.24 
L 194.823 192.24 
L 195.102 192.24 
L 195.381 192.24 
L 195.66 192.24 
L 195.939 192.24 
L 196.218 192.24 
L 196.497 192.24 
L 196.776 192.24 
L 197.055 192.24 
L 197.334 192.24 
L 197.613 192.24 
L 197.892 192.24 
L 198.171 192.24 
L 198.45 192.24 
L 198.729 192.24 
L 199.008 192.24 
L 199.287 192.24 
L 199.566 192.24 
L 199.845 192.24 
L 200.124 192.24 
L 200.403 192.24 
L 200.682 192.24 
L 200.961 192.24 
L 201.24 192.24 
L 201.519 192.24 
L 201.798 192.24 
L 202.077 192.24 
L 202.356 192.24 
L 202.635 192.24 
L 202.914 192.24 
L 203.193 192.24 
L 203.472 192.24 
L 203.751 192.24 
L 204.03 192.24 
L 204.309 192.24 
L 204.588 192.24 
L 204.867 192.24 
L 205.146 192.24 
L 205.425 192.24 
L 205.704 192.24 
L 205.983 192.24 
L 206.262 192.24 
L 206.541 192.24 
L 206.82 192.24 
L 207.099 192.24 
L 207.378 192.24 
L 207.657 192.24 
L 207.936 192.24 
L 208.215 192.24 
L 208.494 192.24 
L 208.773 192.24 
L 209.052 192.24 
L 209.331 192.24 
L 209.61 192.24 
L 209.889 192.24 
L 210.168 192.24 
L 210.447 192.24 
L 210.726 192.24 
L 211.005 192.24 
L 211.284 192.24 
L 211.563 192.24 
L 211.842 192.24 
L 212.121 192.24 
L 212.4 192.24 
L 212.679 192.24 
L 212.958 192.24 
L 213.237 192.24 
L 213.516 192.24 
L 213.795 192.24 
L 214.074 192.24 
L 214.353 192.24 
L 214.632 192.24 
L 214.911 192.24 
L 215.19 192.24 
L 215.469 192.24 
L 215.748 192.24 
L 216.027 192.24 
L 216.306 192.24 
L 216.585 192.24 
L 216.864 192.24 
L 217.143 192.24 
L 217.422 192.24 
L 217.701 192.24 
L 217.98 192.24 
L 218.259 192.24 
L 218.538 192.24 
L 218.817 192.24 
L 219.096 192.24 
L 219.375 192.24 
L 219.654 192.24 
L 219.933 192.24 
L 220.212 192.24 
L 220.491 192.24 
L 220.77 192.24 
L 221.049 192.24 
L 221.328 192.24 
L 221.607 192.24 
L 221.886 192.24 
L 222.165 192.24 
L 222.444 192.24 
L 222.723 192.24 
L 223.002 192.24 
L 223.281 192.24 
L 223.56 192.24 
L 223.839 192.24 
L 224.118 192.24 
L 224.397 192.24 
L 224.676 192.24 
L 224.955 192.24 
L 225.234 192.24 
L 225.513 192.24 
L 225.792 192.24 
L 226.071 192.24 
L 226.35 192.24 
L 226.629 192.24 
L 226.908 192.24 
L 227.187 192.24 
L 227.466 192.24 
L 227.745 192.24 
L 228.024 192.24 
L 228.303 192.24 
L 228.582 192.24 
L 228.861 192.24 
L 229.14 192.24 
L 229.419 192.24 
L 229.698 192.24 
L 229.977 192.24 
L 230.256 192.24 
L 230.535 192.24 
L 230.814 192.24 
L 231.093 192.24 
L 231.372 192.24 
L 231.651 192.24 
L 231.93 192.24 
L 232.209 192.24 
L 232.488 192.24 
L 232.767 192.24 
L 233.046 192.24 
L 233.325 192.24 
L 233.604 192.24 
L 233.883 192.24 
L 234.162 192.24 
L 234.441 192.24 
L 234.72 192.24 
L 234.999 192.24 
L 235.278 192.24 
L 235.557 192.24 
L 235.836 192.24 
L 236.115 192.24 
L 236.394 192.24 
L 236.673 192.24 
L 236.952 192.24 
L 237.231 192.24 
L 237.51 192.24 
L 237.789 192.24 
L 238.068 192.24 
L 238.347 192.24 
L 238.626 192.24 
L 238.905 192.24 
L 239.184 192.24 
L 239.463 192.24 
L 239.742 192.24 
L 240.021 192.24 
L 240.3 192.24 
L 240.579 192.24 
L 240.858 192.24 
L 241.137 192.24 
L 241.416 192.24 
L 241.695 192.24 
L 241.974 192.24 
L 242.253 192.24 
L 242.532 192.24 
L 242.811 192.24 
L 243.09 192.24 
L 243.369 192.24 
L 243.648 192.24 
L 243.927 192.24 
L 244.206 192.24 
L 244.485 192.24 
L 244.764 192.24 
L 245.043 192.24 
L 245.322 192.24 
L 245.601 192.24 
L 245.88 192.24 
L 246.159 192.24 
L 246.438 192.24 
L 246.717 192.24 
L 246.996 192.24 
L 247.275 192.24 
L 247.554 192.24 
L 247.833 192.24 
L 248.112 192.24 
L 248.391 192.24 
L 248.67 192.24 
L 248.949 192.24 
L 249.228 192.24 
L 249.507 192.24 
L 249.786 192.24 
L 250.065 192.24 
L 250.344 192.24 
L 250.623 192.24 
L 250.902 192.24 
L 251.181 192.24 
L 251.46 192.24 
L 251.739 192.24 
L 252.018 192.24 
L 252.297 192.24 
L 252.576 192.24 
L 252.855 192.24 
L 253.134 192.24 
L 253.413 192.24 
L 253.692 192.24 
L 253.971 192.24 
L 254.25 192.24 
L 254.529 192.24 
L 254.808 192.24 
L 255.087 192.24 
L 255.366 192.24 
L 255.645 192.24 
L 255.924 192.24 
L 256.203 192.24 
L 256.482 192.24 
L 256.761 192.24 
L 257.04 192.24 
L 257.319 192.24 
L 257.598 192.24 
L 257.877 192.24 
L 258.156 192.24 
L 258.435 192.24 
L 258.714 192.24 
L 258.993 192.24 
L 259.272 192.24 
L 259.551 192.24 
L 259.83 192.24 
L 260.109 192.24 
L 260.388 192.24 
L 260.667 192.24 
L 260.946 192.24 
L 261.225 192.24 
L 261.504 192.24 
L 261.783 192.24 
L 262.062 192.24 
L 262.341 192.24 
L 262.62 192.24 
L 262.899 192.24 
L 263.178 192.24 
L 263.457 192.24 
L 263.736 192.24 
L 264.015 192.24 
L 264.294 192.24 
L 264.573 192.24 
L 264.852 192.24 
L 265.131 192.24 
L 265.41 192.24 
L 265.689 192.24 
L 265.968 192.24 
L 266.247 192.24 
L 266.526 192.24 
L 266.805 192.24 
L 267.084 192.24 
L 267.363 192.24 
L 267.642 192.24 
L 267.921 192.24 
L 268.2 192.24 
L 268.479 192.24 
L 268.758 192.24 
L 269.037 192.24 
L 269.316 192.24 
L 269.595 192.24 
L 269.874 192.24 
L 270.153 192.24 
L 270.432 192.24 
L 270.711 192.24 
L 270.99 192.24 
L 271.269 192.24 
L 271.548 192.24 
L 271.827 192.24 
L 272.106 192.24 
L 272.385 192.24 
L 272.664 192.24 
L 272.943 192.24 
L 273.222 192.24 
L 273.501 192.24 
L 273.78 192.24 
L 274.059 192.24 
L 274.338 192.24 
L 274.617 192.24 
L 274.896 192.24 
L 275.175 192.24 
L 275.454 192.24 
L 275.733 192.24 
L 276.012 192.24 
L 276.291 192.24 
L 276.57 192.24 
L 276.849 192.24 
L 277.128 192.24 
L 277.407 192.24 
L 277.686 192.24 
L 277.965 192.24 
L 278.244 192.24 
L 278.523 192.24 
L 278.802 192.24 
L 279.081 192.24 
L 279.36 192.24 
L 279.639 192.24 
L 279.918 192.24 
L 280.197 192.24 
L 280.476 192.24 
L 280.755 192.24 
L 281.034 192.24 
L 281.313 192.24 
L 281.592 192.24 
L 281.871 192.24 
L 282.15 192.24 
L 282.429 192.24 
L 282.708 192.24 
L 282.987 192.24 
L 283.266 192.24 
L 283.545 192.24 
L 283.824 192.24 
L 284.103 192.24 
L 284.382 192.24 
L 284.661 192.24 
L 284.94 192.24 
L 285.219 192.24 
L 285.498 192.24 
L 285.777 192.24 
L 286.056 192.24 
L 286.335 192.24 
L 286.614 192.24 
L 286.893 192.24 
L 287.172 192.24 
L 287.451 192.24 
L 287.73 192.24 
L 288.009 192.24 
L 288.288 192.24 
L 288.567 192.24 
L 288.846 192.24 
L 289.125 192.24 
L 289.404 192.24 
L 289.683 192.24 
L 289.962 192.24 
L 290.241 192.24 
L 290.52 192.24 
L 290.799 192.24 
L 291.078 192.24 
L 291.357 192.24 
L 291.636 192.24 
L 291.915 192.24 
L 292.194 192.24 
L 292.473 192.24 
L 292.752 192.24 
L 293.031 192.24 
L 293.31 192.24 
L 293.589 192.24 
L 293.868 192.24 
L 294.147 192.24 
L 294.426 192.24 
L 294.705 192.24 
L 294.984 192.24 
L 295.263 192.24 
L 295.542 192.24 
L 295.821 192.24 
L 296.1 192.24 
L 296.379 192.24 
L 296.658 192.24 
L 296.937 192.24 
L 297.216 192.24 
L 297.495 192.24 
L 297.774 192.24 
L 298.053 192.24 
L 298.332 192.24 
L 298.611 192.24 
L 298.89 192.24 
L 299.169 192.24 
L 299.448 192.24 
L 299.727 192.24 
L 300.006 192.24 
L 300.285 192.24 
L 300.564 192.24 
L 300.843 192.24 
L 301.122 192.24 
L 301.401 192.24 
L 301.68 192.24 
L 301.959 192.24 
L 302.238 192.24 
L 302.517 192.24 
L 302.796 192.24 
L 303.075 192.24 
L 303.354 192.24 
L 303.633 192.24 
L 303.912 192.24 
L 304.191 192.24 
L 304.47 192.24 
L 304.749 192.24 
L 305.028 192.24 
L 305.307 192.24 
L 305.586 192.24 
L 305.865 192.24 
L 306.144 192.24 
L 306.423 192.24 
L 306.702 192.24 
L 306.981 192.24 
L 307.26 192.24 
L 307.539 192.24 
L 307.818 192.24 
L 308.097 192.24 
L 308.376 192.24 
L 308.655 192.24 
L 308.934 192.24 
L 309.213 192.24 
L 309.492 192.24 
L 309.771 192.24 
L 310.05 192.24 
L 310.329 192.24 
L 310.608 192.24 
L 310.887 192.24 
L 311.166 192.24 
L 311.445 192.24 
L 311.724 192.24 
L 312.003 192.24 
L 312.282 192.24 
L 312.561 192.24 
L 312.84 192.24 
L 313.119 192.24 
L 313.398 192.24 
L 313.677 192.24 
L 313.956 192.24 
L 314.235 192.24 
L 314.514 192.24 
L 314.793 192.24 
L 315.072 192.24 
L 315.351 192.24 
L 315.63 192.24 
L 315.909 192.24 
L 316.188 192.24 
L 316.467 192.24 
L 316.746 192.24 
L 317.025 192.24 
L 317.304 192.24 
L 317.583 192.24 
L 317.862 192.24 
L 318.141 192.24 
L 318.42 192.24 
L 318.699 192.24 
L 318.978 192.24 
L 319.257 192.24 
L 319.536 192.24 
L 319.815 192.24 
L 320.094 192.24 
L 320.373 192.24 
L 320.652 192.24 
L 320.931 192.24 
L 321.21 192.24 
L 321.489 192.24 
L 321.768 192.24 
L 322.047 192.24 
L 322.326 192.24 
L 322.605 192.24 
L 322.884 192.24 
L 323.163 192.24 
L 323.442 192.24 
L 323.721 192.24 
L 324 192.24 
L 324 109.08 
L 324 109.08 
L 323.721 109.950827 
L 323.442 110.821516 
L 323.163 111.69193 
L 322.884 112.561931 
L 322.605 113.431383 
L 322.326 114.300148 
L 322.047 115.168088 
L 321.768 116.035067 
L 321.489 116.900947 
L 321.21 117.765593 
L 320.931 118.628867 
L 320.652 119.490633 
L 320.373 120.350756 
L 320.094 121.209098 
L 319.815 122.065525 
L 319.536 122.919902 
L 319.257 123.772093 
L 318.978 124.621964 
L 318.699 125.46938 
L 318.42 126.314209 
L 318.141 127.156316 
L 317.862 127.995569 
L 317.583 128.831835 
L 317.304 129.664982 
L 317.025 130.494878 
L 316.746 131.321392 
L 316.467 132.144394 
L 316.188 132.963755 
L 315.909 133.779343 
L 315.63 134.591032 
L 315.351 135.398691 
L 315.072 136.202195 
L 314.793 137.001416 
L 314.514 137.796228 
L 314.235 138.586505 
L 313.956 139.372123 
L 313.677 140.152957 
L 313.398 140.928884 
L 313.119 141.699782 
L 312.84 142.46553 
L 312.561 143.226005 
L 312.282 143.981088 
L 312.003 144.73066 
L 311.724 145.474602 
L 311.445 146.212797 
L 311.166 146.945128 
L 310.887 147.67148 
L 310.608 148.391738 
L 310.329 149.105788 
L 310.05 149.813518 
L 309.771 150.514815 
L 309.492 151.20957 
L 309.213 151.897671 
L 308.934 152.579011 
L 308.655 153.253482 
L 308.376 153.920978 
L 308.097 154.581393 
L 307.818 155.234622 
L 307.539 155.880564 
L 307.26 156.519114 
L 306.981 157.150174 
L 306.702 157.773643 
L 306.423 158.389422 
L 306.144 158.997415 
L 305.865 159.597526 
L 305.586 160.189659 
L 305.307 160.773721 
L 305.028 161.349621 
L 304.749 161.917266 
L 304.47 162.476568 
L 304.191 163.027437 
L 303.912 163.569788 
L 303.633 164.103535 
L 303.354 164.628592 
L 303.075 165.144878 
L 302.796 165.65231 
L 302.517 166.150809 
L 302.238 166.640296 
L 301.959 167.120693 
L 301.68 167.591925 
L 301.401 168.053918 
L 301.122 168.506597 
L 300.843 168.949893 
L 300.564 169.383734 
L 300.285 169.808053 
L 300.006 170.222782 
L 299.727 170.627856 
L 299.448 171.023211 
L 299.169 171.408784 
L 298.89 171.784515 
L 298.611 172.150344 
L 298.332 172.506213 
L 298.053 172.852067 
L 297.774 173.18785 
L 297.495 173.51351 
L 297.216 173.828996 
L 296.937 174.134256 
L 296.658 174.429244 
L 296.379 174.713913 
L 296.1 174.988217 
L 295.821 175.252113 
L 295.542 175.50556 
L 295.263 175.748518 
L 294.984 175.980948 
L 294.705 176.202813 
L 294.426 176.414079 
L 294.147 176.614712 
L 293.868 176.804681 
L 293.589 176.983955 
L 293.31 177.152506 
L 293.031 177.310308 
L 292.752 177.457336 
L 292.473 177.593566 
L 292.194 177.718977 
L 291.915 177.833549 
L 291.636 177.937264 
L 291.357 178.030105 
L 291.078 178.112059 
L 290.799 178.183112 
L 290.52 178.243252 
L 290.241 178.292471 
L 289.962 178.33076 
L 289.683 178.358114 
L 289.404 178.374528 
L 289.125 178.38 
L 288.846 178.374528 
L 288.567 178.358114 
L 288.288 178.33076 
L 288.009 178.292471 
L 287.73 178.243252 
L 287.451 178.183112 
L 287.172 178.112059 
L 286.893 178.030105 
L 286.614 177.937264 
L 286.335 177.833549 
L 286.056 177.718977 
L 285.777 177.593566 
L 285.498 177.457336 
L 285.219 177.310308 
L 284.94 177.152506 
L 284.661 176.983955 
L 284.382 176.804681 
L 284.103 176.614712 
L 283.824 176.414079 
L 283.545 176.202813 
L 283.266 175.980948 
L 282.987 175.748518 
L 282.708 175.50556 
L 282.429 175.252113 
L 282.15 174.988217 
L 281.871 174.713913 
L 281.592 174.429244 
L 281.313 174.134256 
L 281.034 173.828996 
L 280.755 173.51351 
L 280.476 173.18785 
L 280.197 172.852067 
L 279.918 172.506213 
L 279.639 172.150344 
L 279.36 171.784515 
L 279.081 171.408784 
L 278.802 171.023211 
L 278.523 170.627856 
L 278.244 170.222782 
L 277.965 169.808053 
L 277.686 169.383734 
L 277.407 168.949893 
L 277.128 168.506597 
L 276.849 168.053918 
L 276.57 167.591925 
L 276.291 167.120693 
L 276.012 166.640296 
L 275.733 166.150809 
L 275.454 165.65231 
L 275.175 165.144878 
L 274.896 164.628592 
L 274.617 164.103535 
L 274.338 163.569788 
L 274.059 163.027437 
L 273.78 162.476568 
L 273.501 161.917266 
L 273.222 161.349621 
L 272.943 160.773721 
L 272.664 160.189659 
L 272.385 159.597526 
L 272.106 158.997415 
L 271.827 158.389422 
L 271.548 157.773643 
L 271.269 157.150174 
L 270.99 156.519114 
L 270.711 155.880564 
L 270.432 155.234622 
L 270.153 154.581393 
L 269.874 153.920978 
L 269.595 153.253482 
L 269.316 152.579011 
L 269.037 151.897671 
L 268.758 151.20957 
L 268.479 150.514815 
L 268.2 149.813518 
L 267.921 149.105788 
L 267.642 148.391738 
L 267.363 147.67148 
L 267.084 146.945128 
L 266.805 146.212797 
L 266.526 145.474602 
L 266.247 144.73066 
L 265.968 143.981088 
L 265.689 143.226005 
L 265.41 142.46553 
L 265.131 141.699782 
L 264.852 140.928884 
L 264.573 140.152957 
L 264.294 139.372123 
L 264.015 138.586505 
L 263.736 137.796228 
L 263.457 137.001416 
L 263.178 136.202195 
L 262.899 135.398691 
L 262.62 134.591032 
L 262.341 133.779343 
L 262.062 132.963755 
L 261.783 132.144394 
L 261.504 131.321392 
L 261.225 130.494878 
L 260.946 129.664982 
L 260.667 128.831835 
L 260.388 127.995569 
L 260.109 127.156316 
L 259.83 126.314209 
L 259.551 125.46938 
L 259.272 124.621964 
L 258.993 123.772093 
L 258.714 122.919902 
L 258.435 122.065525 
L 258.156 121.209098 
L 257.877 120.350756 
L 257.598 119.490633 
L 257.319 118.628867 
L 257.04 117.765593 
L 256.761 116.900947 
L 256.482 116.035067 
L 256.203 115.168088 
L 255.924 114.300148 
L 255.645 113.431383 
L 255.366 112.561931 
L 255.087 111.69193 
L 254.808 110.821516 
L 254.529 109.950827 
L 254.25 109.08 
L 253.971 108.209173 
L 253.692 107.338484 
L 253.413 106.46807 
L 253.134 105.598069 
L 252.855 104.728617 
L 252.576 103.859852 
L 252.297 102.991912 
L 252.018 102.124933 
L 251.739 101.259053 
L 251.46 100.394407 
L 251.181 99.531133 
L 250.902 98.669367 
L 250.623 97.809244 
L 250.344 96.950902 
L 250.065 96.094475 
L 249.786 95.240098 
L 249.507 94.387907 
L 249.228 93.538036 
L 248.949 92.69062 
L 248.67 91.845791 
L 248.391 91.003684 
L 248.112 90.164431 
L 247.833 89.328165 
L 247.554 88.495018 
L 247.275 87.665122 
L 246.996 86.838608 
L 246.717 86.015606 
L 246.438 85.196245 
L 246.159 84.380657 
L 245.88 83.568968 
L 245.601 82.761309 
L 245.322 81.957805 
L 245.043 81.158584 
L 244.764 80.363772 
L 244.485 79.573495 
L 244.206 78.787877 
L 243.927 78.007043 
L 243.648 77.231116 
L 243.369 76.460218 
L 243.09 75.69447 
L 242.811 74.933995 
L 242.532 74.178912 
L 242.253 73.42934 
L 241.974 72.685398 
L 241.695 71.947203 
L 241.416 71.214872 
L 241.137 70.48852 
L 240.858 69.768262 
L 240.579 69.054212 
L 240.3 68.346482 
L 240.021 67.645185 
L 239.742 66.95043 
L 239.463 66.262329 
L 239.184 65.580989 
L 238.905 64.906518 
L 238.626 64.239022 
L 238.347 63.578607 
L 238.068 62.925378 
L 237.789 62.279436 
L 237.51 61.640886 
L 237.231 61.009826 
L 236.952 60.386357 
L 236.673 59.770578 
L 236.394 59.162585 
L 236.115 58.562474 
L 235.836 57.970341 
L 235.557 57.386279 
L 235.278 56.810379 
L 234.999 56.242734 
L 234.72 55.683432 
L 234.441 55.132563 
L 234.162 54.590212 
L 233.883 54.056465 
L 233.604 53.531408 
L 233.325 53.015122 
L 233.046 52.50769 
L 232.767 52.009191 
L 232.488 51.519704 
L 232.209 51.039307 
L 231.93 50.568075 
L 231.651 50.106082 
L 231.372 49.653403 
L 231.093 49.210107 
L 230.814 48.776266 
L 230.535 48.351947 
L 230.256 47.937218 
L 229.977 47.532144 
L 229.698 47.136789 
L 229.419 46.751216 
L 229.14 46.375485 
L 228.861 46.009656 
L 228.582 45.653787 
L 228.303 45.307933 
L 228.024 44.97215 
L 227.745 44.64649 
L 227.466 44.331004 
L 227.187 44.025744 
L 226.908 43.730756 
L 226.629 43.446087 
L 226.35 43.171783 
L 226.071 42.907887 
L 225.792 42.65444 
L 225.513 42.411482 
L 225.234 42.179052 
L 224.955 41.957187 
L 224.676 41.745921 
L 224.397 41.545288 
L 224.118 41.355319 
L 223.839 41.176045 
L 223.56 41.007494 
L 223.281 40.849692 
L 223.002 40.702664 
L 222.723 40.566434 
L 222.444 40.441023 
L 222.165 40.326451 
L 221.886 40.222736 
L 221.607 40.129895 
L 221.328 40.047941 
L 221.049 39.976888 
L 220.77 39.916748 
L 220.491 39.867529 
L 220.212 39.82924 
L 219.933 39.801886 
L 219.654 39.785472 
L 219.375 39.78 
L 219.096 39.785472 
L 218.817 39.801886 
L 218.538 39.82924 
L 218.259 39.867529 
L 217.98 39.916748 
L 217.701 39.976888 
L 217.422 40.047941 
L 217.143 40.129895 
L 216.864 40.222736 
L 216.585 40.326451 
L 216.306 40.441023 
L 216.027 40.566434 
L 215.748 40.702664 
L 215.469 40.849692 
L 215.19 41.007494 
L 214.911 41.176045 
L 214.632 41.355319 
L 214.353 41.545288 
L 214.074 41.745921 
L 213.795 41.957187 
L 213.516 42.179052 
L 213.237 42.411482 
L 212.958 42.65444 
L 212.679 42.907887 
L 212.4 43.171783 
L 212.121 43.446087 
L 211.842 43.730756 
L 211.563 44.025744 
L 211.284 44.331004 
L 211.005 44.64649 
L 210.726 44.97215 
L 210.447 45.307933 
L 210.168 45.653787 
L 209.889 46.009656 
L 209.61 46.375485 
L 209.331 46.751216 
L 209.052 47.136789 
L 208.773 47.532144 
L 208.494 47.937218 
L 208.215 48.351947 
L 207.936 48.776266 
L 207.657 49.210107 
L 207.378 49.653403 
L 207.099 50.106082 
L 206.82 50.568075 
L 206.541 51.039307 
L 206.262 51.519704 
L 205.983 52.009191 
L 205.704 52.50769 
L 205.425 53.015122 
L 205.146 53.531408 
L 204.867 54.056465 
L 204.588 54.590212 
L 204.309 55.132563 
L 204.03 55.683432 
L 203.751 56.242734 
L 203.472 56.810379 
L 203.193 57.386279 
L 202.914 57.970341 
L 202.635 58.562474 
L 202.356 59.162585 
L 202.077 59.770578 
L 201.798 60.386357 
L 201.519 61.009826 
L 201.24 61.640886 
L 200.961 62.279436 
L 200.682 62.925378 
L 200.403 63.578607 
L 200.124 64.239022 
L 199.845 64.906518 
L 199.566 65.580989 
L 199.287 66.262329 
L 199.008 66.95043 
L 198.729 67.645185 
L 198.45 68.346482 
L 198.171 69.054212 
L 197.892 69.768262 
L 197.613 70.48852 
L 197.334 71.214872 
L 197.055 71.947203 
L 196.776 72.685398 
L 196.497 73.42934 
L 196.218 74.178912 
L 195.939 74.933995 
L 195.66 75.69447 
L 195.381 76.460218 
L 195.102 77.231116 
L 194.823 78.007043 
L 194.544 78.787877 
L 194.265 79.573495 
L 193.986 80.363772 
L 193.707 81.158584 
L 193.428 81.957805 
L 193.149 82.761309 
L 192.87 83.568968 
L 192.591 84.380657 
L 192.312 85.196245 
L 192.033 86.015606 
L 191.754 86.838608 
L 191.475 87.665122 
L 191.196 88.495018 
L 190.917 89.328165 
L 190.638 90.164431 
L 190.359 91.003684 
L 190.08 91.845791 
L 189.801 92.69062 
L 189.522 93.538036 
L 189.243 94.387907 
L 188.964 95.240098 
L 188.685 96.094475 
L 188.406 96.950902 
L 188.127 97.809244 
L 187.848 98.669367 
L 187.569 99.531133 
L 187.29 100.394407 
L 187.011 101.259053 
L 186.732 102.124933 
L 186.453 102.991912 
L 186.174 103.859852 
L 185.895 104.728617 
L 185.616 105.598069 
L 185.337 106.46807 
L 185.058 107.338484 
L 184.779 108.209173 
L 184.5 109.08 
L 184.221 109.950827 
L 183.942 110.821516 
L 183.663 111.69193 
L 183.384 112.561931 
L 183.105 113.431383 
L 182.826 114.300148 
L 182.547 115.168088 
L 182.268 116.035067 
L 181.989 116.900947 
L 181.71 117.765593 
L 181.431 118.628867 
L 181.152 119.490633 
L 180.873 120.350756 
L 180.594 121.209098 
L 180.315 122.065525 
L 180.036 122.919902 
L 179.757 123.772093 
L 179.478 124.621964 
L 179.199 125.46938 
L 178.92 126.314209 
L 178.641 127.156316 
L 178.362 127.995569 
L 178.083 128.831835 
L 177.804 129.664982 
L 177.525 130.494878 
L 177.246 131.321392 
L 176.967 132.144394 
L 176.688 132.963755 
L 176.409 133.779343 
L 176.13 134.591032 
L 175.851 135.398691 
L 175.572 136.202195 
L 175.293 137.001416 
L 175.014 137.796228 
L 174.735 138.586505 
L 174.456 139.372123 
L 174.177 140.152957 
L 173.898 140.928884 
L 173.619 141.699782 
L 173.34 142.46553 
L 173.061 143.226005 
L 172.782 143.981088 
L 172.503 144.73066 
L 172.224 145.474602 
L 171.945 146.212797 
L 171.666 146.945128 
L 171.387 147.67148 
L 171.108 148.391738 
L 170.829 149.105788 
L 170.55 149.813518 
L 170.271 150.514815 
L 169.992 151.20957 
L 169.713 151.897671 
L 169.434 152.579011 
L 169.155 153.253482 
L 168.876 153.920978 
L 168.597 154.581393 
L 168.318 155.234622 
L 168.039 155.880564 
L 167.76 156.519114 
L 167.481 157.150174 
L 167.202 157.773643 
L 166.923 158.389422 
L 166.644 158.997415 
L 166.365 159.597526 
L 166.086 160.189659 
L 165.807 160.773721 
L 165.528 161.349621 
L 165.249 161.917266 
L 164.97 162.476568 
L 164.691 163.027437 
L 164.412 163.569788 
L 164.133 164.103535 
L 163.854 164.628592 
L 163.575 165.144878 
L 163.296 165.65231 
L 163.017 166.150809 
L 162.738 166.640296 
L 162.459 167.120693 
L 162.18 167.591925 
L 161.901 168.053918 
L 161.622 168.506597 
L 161.343 168.949893 
L 161.064 169.383734 
L 160.785 169.808053 
L 160.506 170.222782 
L 160.227 170.627856 
L 159.948 171.023211 
L 159.669 171.408784 
L 159.39 171.784515 
L 159.111 172.150344 
L 158.832 172.506213 
L 158.553 172.852067 
L 158.274 173.18785 
L 157.995 173.51351 
L 157.716 173.828996 
L 157.437 174.134256 
L 157.158 174.429244 
L 156.879 174.713913 
L 156.6 174.988217 
L 156.321 175.252113 
L 156.042 175.50556 
L 155.763 175.748518 
L 155.484 175.980948 
L 155.205 176.202813 
L 154.926 176.414079 
L 154.647 176.614712 
L 154.368 176.804681 
L 154.089 176.983955 
L 153.81 177.152506 
L 153.531 177.310308 
L 153.252 177.457336 
L 152.973 177.593566 
L 152.694 177.718977 
L 152.415 177.833549 
L 152.136 177.937264 
L 151.857 178.030105 
L 151.578 178.112059 
L 151.299 178.183112 
L 151.02 178.243252 
L 150.741 178.292471 
L 150.462 178.33076 
L 150.183 178.358114 
L 149.904 178.374528 
L 149.625 178.38 
L 149.346 178.374528 
L 149.067 178.358114 
L 148.788 178.33076 
L 148.509 178.292471 
L 148.23 178.243252 
L 147.951 178.183112 
L 147.672 178.112059 
L 147.393 178.030105 
L 147.114 177.937264 
L 146.835 177.833549 
L 146.556 177.718977 
L 146.277 177.593566 
L 145.998 177.457336 
L 145.719 177.310308 
L 145.44 177.152506 
L 145.161 176.983955 
L 144.882 176.804681 
L 144.603 176.614712 
L 144.324 176.414079 
L 144.045 176.202813 
L 143.766 175.980948 
L 143.487 175.748518 
L 143.208 175.50556 
L 142.929 175.252113 
L 142.65 174.988217 
L 142.371 174.713913 
L 142.092 174.429244 
L 141.813 174.134256 
L 141.534 173.828996 
L 141.255 173.51351 
L 140.976 173.18785 
L 140.697 172.852067 
L 140.418 172.506213 
L 140.139 172.150344 
L 139.86 171.784515 
L 139.581 171.408784 
L 139.302 171.023211 
L 139.023 170.627856 
L 138.744 170.222782 
L 138.465 169.808053 
L 138.186 169.383734 
L 137.907 168.949893 
L 137.628 168.506597 
L 137.349 168.053918 
L 137.07 167.591925 
L 136.791 167.120693 
L 136.512 166.640296 
L 136.233 166.150809 
L 135.954 165.65231 
L 135.675 165.144878 
L 135.396 164.628592 
L 135.117 164.103535 
L 134.838 163.569788 
L 134.559 163.027437 
L 134.28 162.476568 
L 134.001 161.917266 
L 133.722 161.349621 
L 133.443 160.773721 
L 133.164 160.189659 
L 132.885 159.597526 
L 132.606 158.997415 
L 132.327 158.389422 
L 132.048 157.773643 
L 131.769 157.150174 
L 131.49 156.519114 
L 131.211 155.880564 
L 130.932 155.234622 
L 130.653 154.581393 
L 130.374 153.920978 
L 130.095 153.253482 
L 129.816 152.579011 
L 129.537 151.897671 
L 129.258 151.20957 
L 128.979 150.514815 
L 128.7 149.813518 
L 128.421 149.105788 
L 128.142 148.391738 
L 127.863 147.67148 
L 127.584 146.945128 
L 127.305 146.212797 
L 127.026 145.474602 
L 126.747 144.73066 
L 126.468 143.981088 
L 126.189 143.226005 
L 125.91 142.46553 
L 125.631 141.699782 
L 125.352 140.928884 
L 125.073 140.152957 
L 124.794 139.372123 
L 124.515 138.586505 
L 124.236 137.796228 
L 123.957 137.001416 
L 123.678 136.202195 
L 123.399 135.398691 
L 123.12 134.591032 
L 122.841 133.779343 
L 122.562 132.963755 
L 122.283 132.144394 
L 122.004 131.321392 
L 121.725 130.494878 
L 121.446 129.664982 
L 121.167 128.831835 
L 120.888 127.995569 
L 120.609 127.156316 
L 120.33 126.314209 
L 120.051 125.46938 
L 119.772 124.621964 
L 119.493 123.772093 
L 119.214 122.919902 
L 118.935 122.065525 
L 118.656 121.209098 
L 118.377 120.350756 
L 118.098 119.490633 
L 117.819 118.628867 
L 117.54 117.765593 
L 117.261 116.900947 
L 116.982 116.035067 
L 116.703 115.168088 
L 116.424 114.300148 
L 116.145 113.431383 
L 115.866 112.561931 
L 115.587 111.69193 
L 115.308 110.821516 
L 115.029 109.950827 
L 114.75 109.08 
L 114.471 108.209173 
L 114.192 107.338484 
L 113.913 106.46807 
L 113.634 105.598069 
L 113.355 104.728617 
L 113.076 103.859852 
L 112.797 102.991912 
L 112.518 102.124933 
L 112.239 101.259053 
L 111.96 100.394407 
L 111.681 99.531133 
L 111.402 98.669367 
L 111.123 97.809244 
L 110.844 96.950902 
L 110.565 96.094475 
L 110.286 95.240098 
L 110.007 94.387907 
L 109.728 93.538036 
L 109.449 92.69062 
L 109.17 91.845791 
L 108.891 91.003684 
L 108.612 90.164431 
L 108.333 89.328165 
L 108.054 88.495018 
L 107.775 87.665122 
L 107.496 86.838608 
L 107.217 86.015606 
L 106.938 85.196245 
L 106.659 84.380657 
L 106.38 83.568968 
L 106.101 82.761309 
L 105.822 81.957805 
L 105.543 81.158584 
L 105.264 80.363772 
L 104.985 79.573495 
L 104.706 78.787877 
L 104.427 78.007043 
L 104.148 77.231116 
L 103.869 76.460218 
L 103.59 75.69447 
L 103.311 74.933995 
L 103.032 74.178912 
L 102.753 73.42934 
L 102.474 72.685398 
L 102.195 71.947203 
L 101.916 71.214872 
L 101.637 70.48852 
L 101.358 69.768262 
L 101.079 69.054212 
L 100.8 68.346482 
L 100.521 67.645185 
L 100.242 66.95043 
L 99.963 66.262329 
L 99.684 65.580989 
L 99.405 64.906518 
L 99.126 64.239022 
L 98.847 63.578607 
L 98.568 62.925378 
L 98.289 62.279436 
L 98.01 61.640886 
L 97.731 61.009826 
L 97.452 60.386357 
L 97.173 59.770578 
L 96.894 59.162585 
L 96.615 58.562474 
L 96.336 57.970341 
L 96.057 57.386279 
L 95.778 56.810379 
L 95.499 56.242734 
L 95.22 55.683432 
L 94.941 55.132563 
L 94.662 54.590212 
L 94.383 54.056465 
L 94.104 53.531408 
L 93.825 53.015122 
L 93.546 52.50769 
L 93.267 52.009191 
L 92.988 51.519704 
L 92.709 51.039307 
L 92.43 50.568075 
L 92.151 50.106082 
L 91.872 49.653403 
L 91.593 49.210107 
L 91.314 48.776266 
L 91.035 48.351947 
L 90.756 47.937218 
L 90.477 47.532144 
L 90.198 47.136789 
L 89.919 46.751216 
L 89.64 46.375485 
L 89.361 46.009656 
L 89.082 45.653787 
L 88.803 45.307933 
L 88.524 44.97215 
L 88.245 44.64649 
L 87.966 44.331004 
L 87.687 44.025744 
L 87.408 43.730756 
L 87.129 43.446087 
L 86.85 43.171783 
L 86.571 42.907887 
L 86.292 42.65444 
L 86.013 42.411482 
L 85.734 42.179052 
L 85.455 41.957187 
L 85.176 41.745921 
L 84.897 41.545288 
L 84.618 41.355319 
L 84.339 41.176045 
L 84.06 41.007494 
L 83.781 40.849692 
L 83.502 40.702664 
L 83.223 40.566434 
L 82.944 40.441023 
L 82.665 40.326451 
L 82.386 40.222736 
L 82.107 40.129895 
L 81.828 40.047941 
L 81.549 39.976888 
L 81.27 39.916748 
L 80.991 39.867529 
L 80.712 39.82924 
L 80.433 39.801886 
L 80.154 39.785472 
L 79.875 39.78 
L 79.596 39.785472 
L 79.317 39.801886 
L 79.038 39.82924 
L 78.759 39.867529 
L 78.48 39.916748 
L 78.201 39.976888 
L 77.922 40.047941 
L 77.643 40.129895 
L 77.364 40.222736 
L 77.085 40.326451 
L 76.806 40.441023 
L 76.527 40.566434 
L 76.248 40.702664 
L 75.969 40.849692 
L 75.69 41.007494 
L 75.411 41.176045 
L 75.132 41.355319 
L 74.853 41.545288 
L 74.574 41.745921 
L 74.295 41.957187 
L 74.016 42.179052 
L 73.737 42.411482 
L 73.458 42.65444 
L 73.179 42.907887 
L 72.9 43.171783 
L 72.621 43.446087 
L 72.342 43.730756 
L 72.063 44.025744 
L 71.784 44.331004 
L 71.505 44.64649 
L 71.226 44.97215 
L 70.947 45.307933 
L 70.668 45.653787 
L 70.389 46.009656 
L 70.11 46.375485 
L 69.831 46.751216 
L 69.552 47.136789 
L 69.273 47.532144 
L 68.994 47.937218 
L 68.715 48.351947 
L 68.436 48.776266 
L 68.157 49.210107 
L 67.878 49.653403 
L 67.599 50.106082 
L 67.32 50.568075 
L 67.041 51.039307 
L 66.762 51.519704 
L 66.483 52.009191 
L 66.204 52.50769 
L 65.925 53.015122 
L 65.646 53.531408 
L 65.367 54.056465 
L 65.088 54.590212 
L 64.809 55.132563 
L 64.53 55.683432 
L 64.251 56.242734 
L 63.972 56.810379 
L 63.693 57.386279 
L 63.414 57.970341 
L 63.135 58.562474 
L 62.856 59.162585 
L 62.577 59.770578 
L 62.298 60.386357 
L 62.019 61.009826 
L 61.74 61.640886 
L 61.461 62.279436 
L 61.182 62.925378 
L 60.903 63.578607 
L 60.624 64.239022 
L 60.345 64.906518 
L 60.066 65.580989 
L 59.787 66.262329 
L 59.508 66.95043 
L 59.229 67.645185 
L 58.95 68.346482 
L 58.671 69.054212 
L 58.392 69.768262 
L 58.113 70.48852 
L 57.834 71.214872 
L 57.555 71.947203 
L 57.276 72.685398 
L 56.997 73.42934 
L 56.718 74.178912 
L 56.439 74.933995 
L 56.16 75.69447 
L 55.881 76.460218 
L 55.602 77.231116 
L 55.323 78.007043 
L 55.044 78.787877 
L 54.765 79.573495 
L 54.486 80.363772 
L 54.207 81.158584 
L 53.928 81.957805 
L 53.649 82.761309 
L 53.37 83.568968 
L 53.091 84.380657 
L 52.812 85.196245 
L 52.533 86.015606 
L 52.254 86.838608 
L 51.975 87.665122 
L 51.696 88.495018 
L 51.417 89.328165 
L 51.138 90.164431 
L 50.859 91.003684 
L 50.58 91.845791 
L 50.301 92.69062 
L 50.022 93.538036 
L 49.743 94.387907 
L 49.464 95.240098 
L 49.185 96.094475 
L 48.906 96.950902 
L 48.627 97.809244 
L 48.348 98.669367 
L 48.069 99.531133 
L 47.79 100.394407 
L 47.511 101.259053 
L 47.232 102.124933 
L 46.953 102.991912 
L 46.674 103.859852 
L 46.395 104.728617 
L 46.116 105.598069 
L 45.837 106.46807 
L 45.558 107.338484 
L 45.279 108.209173 
L 45 109.08 
z
" clip-path="url(#p05c283e3ae)" style="fill: url(#h366141cf34); fill-opacity: 0.25; stroke: #0088ff; stroke-opacity: 0.25"/>
   </g>
   <g id="matplotlib.axis_1">
    <g id="xtick_1">
     <g id="line2d_1">
      <defs>
       <path id="m3d3db954b1" d="M 0 0 
L 0 3.5 
" style="stroke: #000000; stroke-width: 0.8"/>
      </defs>
      <g>
       <use xlink:href="#m3d3db954b1" x="45" y="192.24" style="stroke: #000000; stroke-width: 0.8"/>
      </g>
     </g>
     <g id="text_1">
      <!-- 0 -->
      <g transform="translate(41.81875 206.838437) scale(0.1 -0.1)">
       <defs>
        <path id="DejaVuSans-30" d="M 2034 4250 
Q 1547 4250 1301 3770 
Q 1056 3291 1056 2328 
Q 1056 1369 1301 889 
Q 1547 409 2034 409 
Q 2525 409 2770 889 
Q 3016 1369 3016 2328 
Q 3016 3291 2770 3770 
Q 2525 4250 2034 4250 
z
M 2034 4750 
Q 2819 4750 3233 4129 
Q 3647 3509 3647 2328 
Q 3647 1150 3233 529 
Q 2819 -91 2034 -91 
Q 1250 -91 836 529 
Q 422 1150 422 2328 
Q 422 3509 836 4129 
Q 1250 4750 2034 4750 
z
" transform="scale(0.015625)"/>
       </defs>
       <use xlink:href="#DejaVuSans-30"/>
      </g>
     </g>
    </g>
    <g id="xtick_2">
     <g id="line2d_2">
      <g>
       <use xlink:href="#m3d3db954b1" x="89.404229" y="192.24" style="stroke: #000000; stroke-width: 0.8"/>
      </g>
     </g>
     <g id="text_2">
      <!-- 2 -->
      <g transform="translate(86.222979 206.838437) scale(0.1 -0.1)">
       <defs>
        <path id="DejaVuSans-32" d="M 1228 531 
L 3431 531 
L 3431 0 
L 469 0 
L 469 531 
Q 828 903 1448 1529 
Q 2069 2156 2228 2338 
Q 2531 2678 2651 2914 
Q 2772 3150 2772 3378 
Q 2772 3750 2511 3984 
Q 2250 4219 1831 4219 
Q 1534 4219 1204 4116 
Q 875 4013 500 3803 
L 500 4441 
Q 881 4594 1212 4672 
Q 1544 4750 1819 4750 
Q 2544 4750 2975 4387 
Q 3406 4025 3406 3419 
Q 3406 3131 3298 2873 
Q 3191 2616 2906 2266 
Q 2828 2175 2409 1742 
Q 1991 1309 1228 531 
z
" transform="scale(0.015625)"/>
       </defs>
       <use xlink:href="#DejaVuSans-32"/>
      </g>
     </g>
    </g>
    <g id="xtick_3">
     <g id="line2d_3">
      <g>
       <use xlink:href="#m3d3db954b1" x="133.808458" y="192.24" style="stroke: #000000; stroke-width: 0.8"/>
      </g>
     </g>
     <g id="text_3">
      <!-- 4 -->
      <g transform="translate(130.627208 206.838437) scale(0.1 -0.1)">
       <defs>
        <path id="DejaVuSans-34" d="M 2419 4116 
L 825 1625 
L 2419 1625 
L 2419 4116 
z
M 2253 4666 
L 3047 4666 
L 3047 1625 
L 3713 1625 
L 3713 1100 
L 3047 1100 
L 3047 0 
L 2419 0 
L 2419 1100 
L 313 1100 
L 313 1709 
L 2253 4666 
z
" transform="scale(0.015625)"/>
       </defs>
       <use xlink:href="#DejaVuSans-34"/>
      </g>
     </g>
    </g>
    <g id="xtick_4">
     <g id="line2d_4">
      <g>
       <use xlink:href="#m3d3db954b1" x="178.212687" y="192.24" style="stroke: #000000; stroke-width: 0.8"/>
      </g>
     </g>
     <g id="text_4">
      <!-- 6 -->
      <g transform="translate(175.031437 206.838437) scale(0.1 -0.1)">
       <defs>
        <path id="DejaVuSans-36" d="M 2113 2584 
Q 1688 2584 1439 2293 
Q 1191 2003 1191 1497 
Q 1191 994 1439 701 
Q 1688 409 2113 409 
Q 2538 409 2786 701 
Q 3034 994 3034 1497 
Q 3034 2003 2786 2293 
Q 2538 2584 2113 2584 
z
M 3366 4563 
L 3366 3988 
Q 3128 4100 2886 4159 
Q 2644 4219 2406 4219 
Q 1781 4219 1451 3797 
Q 1122 3375 1075 2522 
Q 1259 2794 1537 2939 
Q 1816 3084 2150 3084 
Q 2853 3084 3261 2657 
Q 3669 2231 3669 1497 
Q 3669 778 3244 343 
Q 2819 -91 2113 -91 
Q 1303 -91 875 529 
Q 447 1150 447 2328 
Q 447 3434 972 4092 
Q 1497 4750 2381 4750 
Q 2619 4750 2861 4703 
Q 3103 4656 3366 4563 
z
" transform="scale(0.015625)"/>
       </defs>
       <use xlink:href="#DejaVuSans-36"/>
      </g>
     </g>
    </g>
    <g id="xtick_5">
     <g id="line2d_5">
      <g>
       <use xlink:href="#m3d3db954b1" x="222.616916" y="192.24" style="stroke: #000000; stroke-width: 0.8"/>
      </g>
     </g>
     <g id="text_5">
      <!-- 8 -->
      <g transform="translate(219.435666 206.838437) scale(0.1 -0.1)">
       <defs>
        <path id="DejaVuSans-38" d="M 2034 2216 
Q 1584 2216 1326 1975 
Q 1069 1734 1069 1313 
Q 1069 891 1326 650 
Q 1584 409 2034 409 
Q 2484 409 2743 651 
Q 3003 894 3003 1313 
Q 3003 1734 2745 1975 
Q 2488 2216 2034 2216 
z
M 1403 2484 
Q 997 2584 770 2862 
Q 544 3141 544 3541 
Q 544 4100 942 4425 
Q 1341 4750 2034 4750 
Q 2731 4750 3128 4425 
Q 3525 4100 3525 3541 
Q 3525 3141 3298 2862 
Q 3072 2584 2669 2484 
Q 3125 2378 3379 2068 
Q 3634 1759 3634 1313 
Q 3634 634 3220 271 
Q 2806 -91 2034 -91 
Q 1263 -91 848 271 
Q 434 634 434 1313 
Q 434 1759 690 2068 
Q 947 2378 1403 2484 
z
M 1172 3481 
Q 1172 3119 1398 2916 
Q 1625 2713 2034 2713 
Q 2441 2713 2670 2916 
Q 2900 3119 2900 3481 
Q 2900 3844 2670 4047 
Q 2441 4250 2034 4250 
Q 1625 4250 1398 4047 
Q 1172 3844 1172 3481 
z
" transform="scale(0.015625)"/>
       </defs>
       <use xlink:href="#DejaVuSans-38"/>
      </g>
     </g>
    </g>
    <g id="xtick_6">
     <g id="line2d_6">
      <g>
       <use xlink:href="#m3d3db954b1" x="267.021146" y="192.24" style="stroke: #000000; stroke-width: 0.8"/>
      </g>
     </g>
     <g id="text_6">
      <!-- 10 -->
      <g transform="translate(260.658646 206.838437) scale(0.1 -0.1)">
       <defs>
        <path id="DejaVuSans-31" d="M 794 531 
L 1825 531 
L 1825 4091 
L 703 3866 
L 703 4441 
L 1819 4666 
L 2450 4666 
L 2450 531 
L 3481 531 
L 3481 0 
L 794 0 
L 794 531 
z
" transform="scale(0.015625)"/>
       </defs>
       <use xlink:href="#DejaVuSans-31"/>
       <use xlink:href="#DejaVuSans-30" transform="translate(63.623047 0)"/>
      </g>
     </g>
    </g>
    <g id="xtick_7">
     <g id="line2d_7">
      <g>
       <use xlink:href="#m3d3db954b1" x="311.425375" y="192.24" style="stroke: #000000; stroke-width: 0.8"/>
      </g>
     </g>
     <g id="text_7">
      <!-- 12 -->
      <g transform="translate(305.062875 206.838437) scale(0.1 -0.1)">
       <use xlink:href="#DejaVuSans-31"/>
       <use xlink:href="#DejaVuSans-32" transform="translate(63.623047 0)"/>
      </g>
     </g>
    </g>
    <g id="text_8">
     <!-- x -->
     <g transform="translate(181.540625 220.516562) scale(0.1 -0.1)">
      <defs>
       <path id="DejaVuSans-78" d="M 3513 3500 
L 2247 1797 
L 3578 0 
L 2900 0 
L 1881 1375 
L 863 0 
L 184 0 
L 1544 1831 
L 300 3500 
L 978 3500 
L 1906 2253 
L 2834 3500 
L 3513 3500 
z
" transform="scale(0.015625)"/>
      </defs>
      <use xlink:href="#DejaVuSans-78"/>
     </g>
    </g>
   </g>
   <g id="matplotlib.axis_2">
    <g id="ytick_1">
     <g id="line2d_8">
      <defs>
       <path id="m18214a5d28" d="M 0 0 
L -3.5 0 
" style="stroke: #000000; stroke-width: 0.8"/>
      </defs>
      <g>
       <use xlink:href="#m18214a5d28" x="45" y="178.38" style="stroke: #000000; stroke-width: 0.8"/>
      </g>
     </g>
     <g id="text_9">
      <!-- −1.0 -->
      <g transform="translate(13.717187 182.179219) scale(0.1 -0.1)">
       <defs>
        <path id="DejaVuSans-2212" d="M 678 2272 
L 4684 2272 
L 4684 1741 
L 678 1741 
L 678 2272 
z
" transform="scale(0.015625)"/>
        <path id="DejaVuSans-2e" d="M 684 794 
L 1344 794 
L 1344 0 
L 684 0 
L 684 794 
z
" transform="scale(0.015625)"/>
       </defs>
       <use xlink:href="#DejaVuSans-2212"/>
       <use xlink:href="#DejaVuSans-31" transform="translate(83.789062 0)"/>
       <use xlink:href="#DejaVuSans-2e" transform="translate(147.412109 0)"/>
       <use xlink:href="#DejaVuSans-30" transform="translate(179.199219 0)"/>
      </g>
     </g>
    </g>
    <g id="ytick_2">
     <g id="line2d_9">
      <g>
       <use xlink:href="#m18214a5d28" x="45" y="143.73" style="stroke: #000000; stroke-width: 0.8"/>
      </g>
     </g>
     <g id="text_10">
      <!-- −0.5 -->
      <g transform="translate(13.717187 147.529219) scale(0.1 -0.1)">
       <defs>
        <path id="DejaVuSans-35" d="M 691 4666 
L 3169 4666 
L 3169 4134 
L 1269 4134 
L 1269 2991 
Q 1406 3038 1543 3061 
Q 1681 3084 1819 3084 
Q 2600 3084 3056 2656 
Q 3513 2228 3513 1497 
Q 3513 744 3044 326 
Q 2575 -91 1722 -91 
Q 1428 -91 1123 -41 
Q 819 9 494 109 
L 494 744 
Q 775 591 1075 516 
Q 1375 441 1709 441 
Q 2250 441 2565 725 
Q 2881 1009 2881 1497 
Q 2881 1984 2565 2268 
Q 2250 2553 1709 2553 
Q 1456 2553 1204 2497 
Q 953 2441 691 2322 
L 691 4666 
z
" transform="scale(0.015625)"/>
       </defs>
       <use xlink:href="#DejaVuSans-2212"/>
       <use xlink:href="#DejaVuSans-30" transform="translate(83.789062 0)"/>
       <use xlink:href="#DejaVuSans-2e" transform="translate(147.412109 0)"/>
       <use xlink:href="#DejaVuSans-35" transform="translate(179.199219 0)"/>
      </g>
     </g>
    </g>
    <g id="ytick_3">
     <g id="line2d_10">
      <g>
       <use xlink:href="#m18214a5d28" x="45" y="109.08" style="stroke: #000000; stroke-width: 0.8"/>
      </g>
     </g>
     <g id="text_11">
      <!-- 0.0 -->
      <g transform="translate(22.096875 112.879219) scale(0.1 -0.1)">
       <use xlink:href="#DejaVuSans-30"/>
       <use xlink:href="#DejaVuSans-2e" transform="translate(63.623047 0)"/>
       <use xlink:href="#DejaVuSans-30" transform="translate(95.410156 0)"/>
      </g>
     </g>
    </g>
    <g id="ytick_4">
     <g id="line2d_11">
      <g>
       <use xlink:href="#m18214a5d28" x="45" y="74.43" style="stroke: #000000; stroke-width: 0.8"/>
      </g>
     </g>
     <g id="text_12">
      <!-- 0.5 -->
      <g transform="translate(22.096875 78.229219) scale(0.1 -0.1)">
       <use xlink:href="#DejaVuSans-30"/>
       <use xlink:href="#DejaVuSans-2e" transform="translate(63.623047 0)"/>
       <use xlink:href="#DejaVuSans-35" transform="translate(95.410156 0)"/>
      </g>
     </g>
    </g>
    <g id="ytick_5">
     <g id="line2d_12">
      <g>
       <use xlink:href="#m18214a5d28" x="45" y="39.78" style="stroke: #000000; stroke-width: 0.8"/>
      </g>
     </g>
     <g id="text_13">
      <!-- 1.0 -->
      <g transform="translate(22.096875 43.579219) scale(0.1 -0.1)">
       <use xlink:href="#DejaVuSans-31"/>
       <use xlink:href="#DejaVuSans-2e" transform="translate(63.623047 0)"/>
       <use xlink:href="#DejaVuSans-30" transform="translate(95.410156 0)"/>
      </g>
     </g>
    </g>
    <g id="text_14">
     <!-- f(x) -->
     <g transform="translate(7.6375 117.701094) rotate(-90) scale(0.1 -0.1)">
      <defs>
       <path id="DejaVuSans-66" d="M 2375 4863 
L 2375 4384 
L 1825 4384 
Q 1516 4384 1395 4259 
Q 1275 4134 1275 3809 
L 1275 3500 
L 2222 3500 
L 2222 3053 
L 1275 3053 
L 1275 0 
L 697 0 
L 697 3053 
L 147 3053 
L 147 3500 
L 697 3500 
L 697 3744 
Q 697 4328 969 4595 
Q 1241 4863 1831 4863 
L 2375 4863 
z
" transform="scale(0.015625)"/>
       <path id="DejaVuSans-28" d="M 1984 4856 
Q 1566 4138 1362 3434 
Q 1159 2731 1159 2009 
Q 1159 1288 1364 580 
Q 1569 -128 1984 -844 
L 1484 -844 
Q 1016 -109 783 600 
Q 550 1309 550 2009 
Q 550 2706 781 3412 
Q 1013 4119 1484 4856 
L 1984 4856 
z
" transform="scale(0.015625)"/>
       <path id="DejaVuSans-29" d="M 513 4856 
L 1013 4856 
Q 1481 4119 1714 3412 
Q 1947 2706 1947 2009 
Q 1947 1309 1714 600 
Q 1481 -109 1013 -844 
L 513 -844 
Q 928 -128 1133 580 
Q 1338 1288 1338 2009 
Q 1338 2731 1133 3434 
Q 928 4138 513 4856 
z
" transform="scale(0.015625)"/>
      </defs>
      <use xlink:href="#DejaVuSans-66"/>
      <use xlink:href="#DejaVuSans-28" transform="translate(35.205078 0)"/>
      <use xlink:href="#DejaVuSans-78" transform="translate(74.21875 0)"/>
      <use xlink:href="#DejaVuSans-29" transform="translate(133.398438 0)"/>
     </g>
    </g>
   </g>
   <g id="line2d_13">
    <path d="M 45 109.08 
L 51.975 87.665122 
L 55.602 77.231116 
L 58.671 69.054212 
L 61.461 62.279436 
L 63.693 57.386279 
L 65.925 53.015122 
L 67.878 49.653403 
L 69.831 46.751216 
L 71.505 44.64649 
L 73.179 42.907887 
L 74.574 41.745921 
L 75.969 40.849692 
L 77.364 40.222736 
L 78.759 39.867529 
L 80.154 39.785472 
L 81.549 39.976888 
L 82.944 40.441023 
L 84.339 41.176045 
L 85.734 42.179052 
L 87.129 43.446087 
L 88.803 45.307933 
L 90.477 47.532144 
L 92.151 50.106082 
L 94.104 53.531408 
L 96.057 57.386279 
L 98.289 62.279436 
L 100.8 68.346482 
L 103.59 75.69447 
L 106.938 85.196245 
L 111.123 97.809244 
L 123.678 136.202195 
L 127.026 145.474602 
L 129.816 152.579011 
L 132.327 158.389422 
L 134.559 163.027437 
L 136.512 166.640296 
L 138.465 169.808053 
L 140.139 172.150344 
L 141.813 174.134256 
L 143.487 175.748518 
L 144.882 176.804681 
L 146.277 177.593566 
L 147.672 178.112059 
L 149.067 178.358114 
L 150.462 178.33076 
L 151.857 178.030105 
L 153.252 177.457336 
L 154.647 176.614712 
L 156.042 175.50556 
L 157.437 174.134256 
L 159.111 172.150344 
L 160.785 169.808053 
L 162.738 166.640296 
L 164.691 163.027437 
L 166.923 158.389422 
L 169.434 152.579011 
L 172.224 145.474602 
L 175.293 137.001416 
L 178.92 126.314209 
L 184.5 109.08 
L 191.475 87.665122 
L 195.102 77.231116 
L 198.171 69.054212 
L 200.961 62.279436 
L 203.193 57.386279 
L 205.425 53.015122 
L 207.378 49.653403 
L 209.331 46.751216 
L 211.005 44.64649 
L 212.679 42.907887 
L 214.074 41.745921 
L 215.469 40.849692 
L 216.864 40.222736 
L 218.259 39.867529 
L 219.654 39.785472 
L 221.049 39.976888 
L 222.444 40.441023 
L 223.839 41.176045 
L 225.234 42.179052 
L 226.629 43.446087 
L 228.303 45.307933 
L 229.977 47.532144 
L 231.651 50.106082 
L 233.604 53.531408 
L 235.557 57.386279 
L 237.789 62.279436 
L 240.3 68.346482 
L 243.09 75.69447 
L 246.438 85.196245 
L 250.623 97.809244 
L 263.178 136.202195 
L 266.526 145.474602 
L 269.316 152.579011 
L 271.827 158.389422 
L 274.059 163.027437 
L 276.012 166.640296 
L 277.965 169.808053 
L 279.639 172.150344 
L 281.313 174.134256 
L 282.987 175.748518 
L 284.382 176.804681 
L 285.777 177.593566 
L 287.172 178.112059 
L 288.567 178.358114 
L 289.962 178.33076 
L 291.357 178.030105 
L 292.752 177.457336 
L 294.147 176.614712 
L 295.542 175.50556 
L 296.937 174.134256 
L 298.611 172.150344 
L 300.285 169.808053 
L 302.238 166.640296 
L 304.191 163.027437 
L 306.423 158.389422 
L 308.934 152.579011 
L 311.724 145.474602 
L 314.793 137.001416 
L 318.42 126.314209 
L 324 109.08 
L 324 109.08 
" clip-path="url(#p05c283e3ae)" style="fill: none; stroke: #0088ff; stroke-width: 1.5; stroke-linecap: square"/>
   </g>
   <g id="patch_3">
    <path d="M 45 192.24 
L 45 25.92 
" style="fill: none; stroke: #000000; stroke-width: 0.8; stroke-linejoin: miter; stroke-linecap: square"/>
   </g>
   <g id="patch_4">
    <path d="M 324 192.24 
L 324 25.92 
" style="fill: none; stroke: #000000; stroke-width: 0.8; stroke-linejoin: miter; stroke-linecap: square"/>
   </g>
   <g id="patch_5">
    <path d="M 45 192.24 
L 324 192.24 
" style="fill: none; stroke: #000000; stroke-width: 0.8; stroke-linejoin: miter; stroke-linecap: square"/>
   </g>
   <g id="patch_6">
    <path d="M 45 25.92 
L 324 25.92 
" style="fill: none; stroke: #000000; stroke-width: 0.8; stroke-linejoin: miter; stroke-linecap: square"/>
   </g>
  </g>
 </g>
 <defs>
  <clipPath id="p05c283e3ae">
   <rect x="45" y="25.92" width="279" height="166.32"/>
  </clipPath>
 </defs>
 <defs>
  <pattern id="h366141cf34" patternUnits="userSpaceOnUse" x="0" y="0" width="72" height="72">
   <rect x="0" y="0" width="73" height="73" fill="#0088ff"/>
   <path d="M -36 36 
L 36 -36 
M -32 40 
L 40 -32 
M -28 44 
L 44 -28 
M -24 48 
L 48 -24 
M -20 52 
L 52 -20 
M -16 56 
L 56 -16 
M -12 60 
L 60 -12 
M -8 64 
L 64 -8 
M -4 68 
L 68 -4 
M 0 72 
L 72 0 
M 4 76 
L 76 4 
M 8 80 
L 80 8 
M 12 84 
L 84 12 
M 16 88 
L 88 16 
M 20 92 
L 92 20 
M 24 96 
L 96 24 
M 28 100 
L 100 28 
M 32 104 
L 104 32 
M 36 108 
L 108 36 
" style="fill: #0088ff; stroke: #0088ff; stroke-width: 1.0; stroke-linecap: butt; stroke-linejoin: miter; stroke-opacity: 0.25"/>
  </pattern>
 </defs>
</svg>
