<?xml version="1.0" encoding="utf-8" standalone="no"?>
<!DOCTYPE svg PUBLIC "-//W3C//DTD SVG 1.1//EN"
  "http://www.w3.org/Graphics/SVG/1.1/DTD/svg11.dtd">
<svg xmlns:xlink="http://www.w3.org/1999/xlink" width="432pt" height="432pt" viewBox="0 0 432 432" xmlns="http://www.w3.org/2000/svg" version="1.1">
 <metadata>
  <rdf:RDF xmlns:dc="http://purl.org/dc/elements/1.1/" xmlns:cc="http://creativecommons.org/ns#" xmlns:rdf="http://www.w3.org/1999/02/22-rdf-syntax-ns#">
   <cc:Work>
    <dc:type rdf:resource="http://purl.org/dc/dcmitype/StillImage"/>
    <dc:date>2025-12-12T12:05:08.639962</dc:date>
    <dc:format>image/svg+xml</dc:format>
    <dc:creator>
     <cc:Agent>
      <dc:title>Matplotlib v3.10.6, https://matplotlib.org/</dc:title>
     </cc:Agent>
    </dc:creator>
   </cc:Work>
  </rdf:RDF>
 </metadata>
 <defs>
  <style type="text/css">*{stroke-linejoin: round; stroke-linecap: butt}</style>
 </defs>
 <g id="figure_1">
  <g id="patch_1">
   <path d="M 0 432 
L 432 432 
L 432 0 
L 0 0 
z
" style="fill: #ffffff"/>
  </g>
  <g id="axes_1">
   <g id="patch_2">
    <path d="M 54 361.645714 
L 388.8 361.645714 
L 388.8 74.674286 
L 54 74.674286 
z
" style="fill: #ffffff"/>
   </g>
   <g id="patch_3">
    <path d="M 228.481718 206.87014 
L 233.002795 206.87014 
L 233.002795 202.349063 
L 228.481718 202.349063 
z
" clip-path="url(#pb070bc1f27)" style="fill: #0088ff; opacity: 0.2"/>
   </g>
   <g id="patch_4">
    <path d="M 188.076396 249.675287 
L 200.577552 249.675287 
L 200.577552 237.174131 
L 188.076396 237.174131 
z
" clip-path="url(#pb070bc1f27)" style="fill: #0088ff; opacity: 0.2"/>
   </g>
   <g id="patch_5">
    <path d="M 188.936531 246.40715 
L 198.81465 246.40715 
L 198.81465 236.529031 
L 188.936531 236.529031 
z
" clip-path="url(#pb070bc1f27)" style="fill: #0088ff; opacity: 0.2"/>
   </g>
   <g id="patch_6">
    <path d="M 192.451289 292.27891 
L 250.837238 292.27891 
L 250.837238 233.892961 
L 192.451289 233.892961 
z
" clip-path="url(#pb070bc1f27)" style="fill: #0088ff; opacity: 0.2"/>
   </g>
   <g id="patch_7">
    <path d="M 228.568051 206.80539 
L 271.606768 206.80539 
L 271.606768 163.766673 
L 228.568051 163.766673 
z
" clip-path="url(#pb070bc1f27)" style="fill: #0088ff; opacity: 0.2"/>
   </g>
   <g id="patch_8">
    <path d="M 146.484214 268.368268 
L 173.846124 268.368268 
L 173.846124 241.006359 
L 146.484214 241.006359 
z
" clip-path="url(#pb070bc1f27)" style="fill: #0088ff; opacity: 0.2"/>
   </g>
   <g id="patch_9">
    <path d="M 124.313907 292.778253 
L 132.096162 292.778253 
L 132.096162 284.995998 
L 124.313907 284.995998 
z
" clip-path="url(#pb070bc1f27)" style="fill: #0088ff; opacity: 0.2"/>
   </g>
   <g id="patch_10">
    <path d="M 81.076869 317.423777 
L 99.581901 317.423777 
L 99.581901 298.918745 
L 81.076869 298.918745 
z
" clip-path="url(#pb070bc1f27)" style="fill: #0088ff; opacity: 0.2"/>
   </g>
   <g id="patch_11">
    <path d="M 254.816431 187.119105 
L 261.541383 187.119105 
L 261.541383 180.394153 
L 254.816431 180.394153 
z
" clip-path="url(#pb070bc1f27)" style="fill: #0088ff; opacity: 0.2"/>
   </g>
   <g id="patch_12">
    <path d="M 201.015145 240.714347 
L 214.259423 240.714347 
L 214.259423 227.47007 
L 201.015145 227.47007 
z
" clip-path="url(#pb070bc1f27)" style="fill: #0088ff; opacity: 0.2"/>
   </g>
   <g id="patch_13">
    <path d="M 269.712569 175.947002 
L 293.090396 175.947002 
L 293.090396 152.569175 
L 269.712569 152.569175 
z
" clip-path="url(#pb070bc1f27)" style="fill: #0088ff; opacity: 0.2"/>
   </g>
   <g id="patch_14">
    <path d="M 197.057347 237.865156 
L 204.484085 237.865156 
L 204.484085 230.438418 
L 197.057347 230.438418 
z
" clip-path="url(#pb070bc1f27)" style="fill: #0088ff; opacity: 0.2"/>
   </g>
   <g id="patch_15">
    <path d="M 161.989479 264.602908 
L 169.853068 264.602908 
L 169.853068 256.739319 
L 161.989479 256.739319 
z
" clip-path="url(#pb070bc1f27)" style="fill: #0088ff; opacity: 0.2"/>
   </g>
   <g id="patch_16">
    <path d="M 220.34439 231.91676 
L 239.288014 231.91676 
L 239.288014 212.973136 
L 220.34439 212.973136 
z
" clip-path="url(#pb070bc1f27)" style="fill: #0088ff; opacity: 0.2"/>
   </g>
   <g id="patch_17">
    <path d="M 193.8226 232.864479 
L 204.702597 232.864479 
L 204.702597 221.984481 
L 193.8226 221.984481 
z
" clip-path="url(#pb070bc1f27)" style="fill: #0088ff; opacity: 0.2"/>
   </g>
   <g id="patch_18">
    <path d="M 137.499758 277.478861 
L 139.872008 277.478861 
L 139.872008 275.10661 
L 137.499758 275.10661 
z
" clip-path="url(#pb070bc1f27)" style="fill: #0088ff; opacity: 0.2"/>
   </g>
   <g id="patch_19">
    <path d="M 155.154244 261.865746 
L 168.194434 261.865746 
L 168.194434 248.825555 
L 155.154244 248.825555 
z
" clip-path="url(#pb070bc1f27)" style="fill: #0088ff; opacity: 0.2"/>
   </g>
   <g id="patch_20">
    <path d="M 281.988245 181.260657 
L 296.508657 181.260657 
L 296.508657 166.740245 
L 281.988245 166.740245 
z
" clip-path="url(#pb070bc1f27)" style="fill: #0088ff; opacity: 0.2"/>
   </g>
   <g id="patch_21">
    <path d="M 214.433797 217.406081 
L 217.466794 217.406081 
L 217.466794 214.373083 
L 214.433797 214.373083 
z
" clip-path="url(#pb070bc1f27)" style="fill: #0088ff; opacity: 0.2"/>
   </g>
   <g id="patch_22">
    <path d="M 217.400887 236.518859 
L 238.738984 236.518859 
L 238.738984 215.180763 
L 217.400887 215.180763 
z
" clip-path="url(#pb070bc1f27)" style="fill: #0088ff; opacity: 0.2"/>
   </g>
   <g id="patch_23">
    <path d="M 184.258641 240.037448 
L 204.381674 240.037448 
L 204.381674 219.914414 
L 184.258641 219.914414 
z
" clip-path="url(#pb070bc1f27)" style="fill: #0088ff; opacity: 0.2"/>
   </g>
   <g id="patch_24">
    <path d="M 164.497413 254.858369 
L 168.994138 254.858369 
L 168.994138 250.361644 
L 164.497413 250.361644 
z
" clip-path="url(#pb070bc1f27)" style="fill: #0088ff; opacity: 0.2"/>
   </g>
   <g id="patch_25">
    <path d="M 240.132338 198.132175 
L 248.037708 198.132175 
L 248.037708 190.226805 
L 240.132338 190.226805 
z
" clip-path="url(#pb070bc1f27)" style="fill: #0088ff; opacity: 0.2"/>
   </g>
   <g id="patch_26">
    <path d="M 192.481581 233.870243 
L 202.298488 233.870243 
L 202.298488 224.053335 
L 192.481581 224.053335 
z
" clip-path="url(#pb070bc1f27)" style="fill: #0088ff; opacity: 0.2"/>
   </g>
   <g id="patch_27">
    <path d="M 161.178658 281.518979 
L 185.350201 281.518979 
L 185.350201 257.347435 
L 161.178658 257.347435 
z
" clip-path="url(#pb070bc1f27)" style="fill: #0088ff; opacity: 0.2"/>
   </g>
   <g id="patch_28">
    <path d="M 191.070539 234.928524 
L 209.799753 234.928524 
L 209.799753 216.19931 
L 191.070539 216.19931 
z
" clip-path="url(#pb070bc1f27)" style="fill: #0088ff; opacity: 0.2"/>
   </g>
   <g id="patch_29">
    <path d="M 154.171872 262.602524 
L 203.356451 262.602524 
L 203.356451 213.417946 
L 154.171872 213.417946 
z
" clip-path="url(#pb070bc1f27)" style="fill: #0088ff; opacity: 0.2"/>
   </g>
   <g id="patch_30">
    <path d="M 206.575335 262.482109 
L 245.757517 262.482109 
L 245.757517 223.299927 
L 206.575335 223.299927 
z
" clip-path="url(#pb070bc1f27)" style="fill: #0088ff; opacity: 0.2"/>
   </g>
   <g id="patch_31">
    <path d="M 251.495059 230.967775 
L 292.852699 230.967775 
L 292.852699 189.610135 
L 251.495059 189.610135 
z
" clip-path="url(#pb070bc1f27)" style="fill: #0088ff; opacity: 0.2"/>
   </g>
   <g id="patch_32">
    <path d="M 157.496955 296.095681 
L 193.483924 296.095681 
L 193.483924 260.108712 
L 157.496955 260.108712 
z
" clip-path="url(#pb070bc1f27)" style="fill: #0088ff; opacity: 0.2"/>
   </g>
   <g id="patch_33">
    <path d="M 265.810933 178.873229 
L 285.933822 178.873229 
L 285.933822 158.75034 
L 265.810933 158.75034 
z
" clip-path="url(#pb070bc1f27)" style="fill: #0088ff; opacity: 0.2"/>
   </g>
   <g id="patch_34">
    <path d="M 165.554406 254.065624 
L 168.632549 254.065624 
L 168.632549 250.987481 
L 165.554406 250.987481 
z
" clip-path="url(#pb070bc1f27)" style="fill: #0088ff; opacity: 0.2"/>
   </g>
   <g id="patch_35">
    <path d="M 204.823199 224.614029 
L 230.610988 224.614029 
L 230.610988 198.82624 
L 204.823199 198.82624 
z
" clip-path="url(#pb070bc1f27)" style="fill: #0088ff; opacity: 0.2"/>
   </g>
   <g id="patch_36">
    <path d="M 157.482542 260.119522 
L 174.75896 260.119522 
L 174.75896 242.843104 
L 157.482542 242.843104 
z
" clip-path="url(#pb070bc1f27)" style="fill: #0088ff; opacity: 0.2"/>
   </g>
   <g id="patch_37">
    <path d="M 186.856524 238.089036 
L 191.892198 238.089036 
L 191.892198 233.053361 
L 186.856524 233.053361 
z
" clip-path="url(#pb070bc1f27)" style="fill: #0088ff; opacity: 0.2"/>
   </g>
   <g id="patch_38">
    <path d="M 199.753 228.416679 
L 206.545569 228.416679 
L 206.545569 221.62411 
L 199.753 221.62411 
z
" clip-path="url(#pb070bc1f27)" style="fill: #0088ff; opacity: 0.2"/>
   </g>
   <g id="patch_39">
    <path d="M 176.695354 249.769614 
L 180.755055 249.769614 
L 180.755055 245.709913 
L 176.695354 245.709913 
z
" clip-path="url(#pb070bc1f27)" style="fill: #0088ff; opacity: 0.2"/>
   </g>
   <g id="patch_40">
    <path d="M 163.86759 255.330736 
L 184.636196 255.330736 
L 184.636196 234.56213 
L 163.86759 234.56213 
z
" clip-path="url(#pb070bc1f27)" style="fill: #0088ff; opacity: 0.2"/>
   </g>
   <g id="patch_41">
    <path d="M 165.063386 281.450239 
L 192.079736 281.450239 
L 192.079736 254.433889 
L 165.063386 254.433889 
z
" clip-path="url(#pb070bc1f27)" style="fill: #0088ff; opacity: 0.2"/>
   </g>
   <g id="patch_42">
    <path d="M 158.210807 269.661776 
L 168.299259 269.661776 
L 168.299259 259.573323 
L 158.210807 259.573323 
z
" clip-path="url(#pb070bc1f27)" style="fill: #0088ff; opacity: 0.2"/>
   </g>
   <g id="patch_43">
    <path d="M 122.391031 286.438155 
L 128.20074 286.438155 
L 128.20074 280.628446 
L 122.391031 280.628446 
z
" clip-path="url(#pb070bc1f27)" style="fill: #0088ff; opacity: 0.2"/>
   </g>
   <g id="patch_44">
    <path d="M 184.908253 239.550238 
L 227.987947 239.550238 
L 227.987947 196.470545 
L 184.908253 196.470545 
z
" clip-path="url(#pb070bc1f27)" style="fill: #0088ff; opacity: 0.2"/>
   </g>
   <g id="patch_45">
    <path d="M 216.672538 234.008638 
L 234.954152 234.008638 
L 234.954152 215.727025 
L 216.672538 215.727025 
z
" clip-path="url(#pb070bc1f27)" style="fill: #0088ff; opacity: 0.2"/>
   </g>
   <g id="patch_46">
    <path d="M 240.933281 223.336428 
L 266.738241 223.336428 
L 266.738241 197.531468 
L 240.933281 197.531468 
z
" clip-path="url(#pb070bc1f27)" style="fill: #0088ff; opacity: 0.2"/>
   </g>
   <g id="patch_47">
    <path d="M 228.435713 220.375255 
L 241.906324 220.375255 
L 241.906324 206.904644 
L 228.435713 206.904644 
z
" clip-path="url(#pb070bc1f27)" style="fill: #0088ff; opacity: 0.2"/>
   </g>
   <g id="patch_48">
    <path d="M 315.01661 141.968971 
L 338.196062 141.968971 
L 338.196062 118.789519 
L 315.01661 118.789519 
z
" clip-path="url(#pb070bc1f27)" style="fill: #0088ff; opacity: 0.2"/>
   </g>
   <g id="patch_49">
    <path d="M 212.727802 224.305566 
L 218.34779 224.305566 
L 218.34779 218.685577 
L 212.727802 218.685577 
z
" clip-path="url(#pb070bc1f27)" style="fill: #0088ff; opacity: 0.2"/>
   </g>
   <g id="patch_50">
    <path d="M 175.659916 246.486492 
L 207.330729 246.486492 
L 207.330729 214.815679 
L 175.659916 214.815679 
z
" clip-path="url(#pb070bc1f27)" style="fill: #0088ff; opacity: 0.2"/>
   </g>
   <g id="patch_51">
    <path d="M 287.003325 207.759141 
L 331.783531 207.759141 
L 331.783531 162.978935 
L 287.003325 162.978935 
z
" clip-path="url(#pb070bc1f27)" style="fill: #0088ff; opacity: 0.2"/>
   </g>
   <g id="patch_52">
    <path d="M 147.398769 267.682352 
L 174.386594 267.682352 
L 174.386594 240.694527 
L 147.398769 240.694527 
z
" clip-path="url(#pb070bc1f27)" style="fill: #0088ff; opacity: 0.2"/>
   </g>
   <g id="patch_53">
    <path d="M 243.806615 195.376467 
L 268.554702 195.376467 
L 268.554702 170.628381 
L 243.806615 170.628381 
z
" clip-path="url(#pb070bc1f27)" style="fill: #0088ff; opacity: 0.2"/>
   </g>
   <g id="patch_54">
    <path d="M 151.802504 298.305927 
L 185.728881 298.305927 
L 185.728881 264.37955 
L 151.802504 264.37955 
z
" clip-path="url(#pb070bc1f27)" style="fill: #0088ff; opacity: 0.2"/>
   </g>
   <g id="patch_55">
    <path d="M 214.422369 217.414652 
L 218.09517 217.414652 
L 218.09517 213.741851 
L 214.422369 213.741851 
z
" clip-path="url(#pb070bc1f27)" style="fill: #0088ff; opacity: 0.2"/>
   </g>
   <g id="patch_56">
    <path d="M 103.34011 300.726346 
L 132.414085 300.726346 
L 132.414085 271.652371 
L 103.34011 271.652371 
z
" clip-path="url(#pb070bc1f27)" style="fill: #0088ff; opacity: 0.2"/>
   </g>
   <g id="patch_57">
    <path d="M 240.496691 197.85891 
L 242.599212 197.85891 
L 242.599212 195.756389 
L 240.496691 195.756389 
z
" clip-path="url(#pb070bc1f27)" style="fill: #0088ff; opacity: 0.2"/>
   </g>
   <g id="patch_58">
    <path d="M 189.916957 235.793711 
L 213.824102 235.793711 
L 213.824102 211.886565 
L 189.916957 211.886565 
z
" clip-path="url(#pb070bc1f27)" style="fill: #0088ff; opacity: 0.2"/>
   </g>
   <g id="patch_59">
    <path d="M 151.202892 264.82926 
L 207.996616 264.82926 
L 207.996616 208.035535 
L 151.202892 208.035535 
z
" clip-path="url(#pb070bc1f27)" style="fill: #0088ff; opacity: 0.2"/>
   </g>
   <g id="patch_60">
    <path d="M 277.762099 169.909854 
L 284.312993 169.909854 
L 284.312993 163.35896 
L 277.762099 163.35896 
z
" clip-path="url(#pb070bc1f27)" style="fill: #0088ff; opacity: 0.2"/>
   </g>
   <g id="patch_61">
    <path d="M 234.091535 209.36792 
L 240.796678 209.36792 
L 240.796678 202.662777 
L 234.091535 202.662777 
z
" clip-path="url(#pb070bc1f27)" style="fill: #0088ff; opacity: 0.2"/>
   </g>
   <g id="patch_62">
    <path d="M 199.676638 246.913112 
L 218.115799 246.913112 
L 218.115799 228.47395 
L 199.676638 228.47395 
z
" clip-path="url(#pb070bc1f27)" style="fill: #0088ff; opacity: 0.2"/>
   </g>
   <g id="matplotlib.axis_1"/>
   <g id="matplotlib.axis_2"/>
   <g id="line2d_1">
    <defs>
     <path id="m6a2f142da1" d="M -3 3 
L 3 -3 
M -3 -3 
L 3 3 
" style="stroke: #1f77b4"/>
    </defs>
    <g clip-path="url(#pb070bc1f27)">
     <use xlink:href="#m6a2f142da1" x="228.481718" y="202.349063" style="fill: #1f77b4; stroke: #1f77b4"/>
     <use xlink:href="#m6a2f142da1" x="188.076396" y="249.675287" style="fill: #1f77b4; stroke: #1f77b4"/>
     <use xlink:href="#m6a2f142da1" x="188.936531" y="246.40715" style="fill: #1f77b4; stroke: #1f77b4"/>
     <use xlink:href="#m6a2f142da1" x="192.451289" y="292.27891" style="fill: #1f77b4; stroke: #1f77b4"/>
     <use xlink:href="#m6a2f142da1" x="228.568051" y="163.766673" style="fill: #1f77b4; stroke: #1f77b4"/>
     <use xlink:href="#m6a2f142da1" x="146.484214" y="241.006359" style="fill: #1f77b4; stroke: #1f77b4"/>
     <use xlink:href="#m6a2f142da1" x="124.313907" y="292.778253" style="fill: #1f77b4; stroke: #1f77b4"/>
     <use xlink:href="#m6a2f142da1" x="81.076869" y="298.918745" style="fill: #1f77b4; stroke: #1f77b4"/>
     <use xlink:href="#m6a2f142da1" x="254.816431" y="180.394153" style="fill: #1f77b4; stroke: #1f77b4"/>
     <use xlink:href="#m6a2f142da1" x="201.015145" y="240.714347" style="fill: #1f77b4; stroke: #1f77b4"/>
     <use xlink:href="#m6a2f142da1" x="269.712569" y="152.569175" style="fill: #1f77b4; stroke: #1f77b4"/>
     <use xlink:href="#m6a2f142da1" x="197.057347" y="237.865156" style="fill: #1f77b4; stroke: #1f77b4"/>
     <use xlink:href="#m6a2f142da1" x="161.989479" y="264.602908" style="fill: #1f77b4; stroke: #1f77b4"/>
     <use xlink:href="#m6a2f142da1" x="220.34439" y="231.91676" style="fill: #1f77b4; stroke: #1f77b4"/>
     <use xlink:href="#m6a2f142da1" x="193.8226" y="221.984481" style="fill: #1f77b4; stroke: #1f77b4"/>
     <use xlink:href="#m6a2f142da1" x="137.499758" y="277.478861" style="fill: #1f77b4; stroke: #1f77b4"/>
     <use xlink:href="#m6a2f142da1" x="155.154244" y="248.825555" style="fill: #1f77b4; stroke: #1f77b4"/>
     <use xlink:href="#m6a2f142da1" x="281.988245" y="181.260657" style="fill: #1f77b4; stroke: #1f77b4"/>
     <use xlink:href="#m6a2f142da1" x="214.433797" y="214.373083" style="fill: #1f77b4; stroke: #1f77b4"/>
     <use xlink:href="#m6a2f142da1" x="217.400887" y="236.518859" style="fill: #1f77b4; stroke: #1f77b4"/>
     <use xlink:href="#m6a2f142da1" x="184.258641" y="219.914414" style="fill: #1f77b4; stroke: #1f77b4"/>
     <use xlink:href="#m6a2f142da1" x="164.497413" y="250.361644" style="fill: #1f77b4; stroke: #1f77b4"/>
     <use xlink:href="#m6a2f142da1" x="240.132338" y="190.226805" style="fill: #1f77b4; stroke: #1f77b4"/>
     <use xlink:href="#m6a2f142da1" x="192.481581" y="224.053335" style="fill: #1f77b4; stroke: #1f77b4"/>
     <use xlink:href="#m6a2f142da1" x="161.178658" y="281.518979" style="fill: #1f77b4; stroke: #1f77b4"/>
     <use xlink:href="#m6a2f142da1" x="191.070539" y="216.19931" style="fill: #1f77b4; stroke: #1f77b4"/>
     <use xlink:href="#m6a2f142da1" x="154.171872" y="213.417946" style="fill: #1f77b4; stroke: #1f77b4"/>
     <use xlink:href="#m6a2f142da1" x="206.575335" y="262.482109" style="fill: #1f77b4; stroke: #1f77b4"/>
     <use xlink:href="#m6a2f142da1" x="251.495059" y="230.967775" style="fill: #1f77b4; stroke: #1f77b4"/>
     <use xlink:href="#m6a2f142da1" x="157.496955" y="296.095681" style="fill: #1f77b4; stroke: #1f77b4"/>
     <use xlink:href="#m6a2f142da1" x="265.810933" y="158.75034" style="fill: #1f77b4; stroke: #1f77b4"/>
     <use xlink:href="#m6a2f142da1" x="165.554406" y="250.987481" style="fill: #1f77b4; stroke: #1f77b4"/>
     <use xlink:href="#m6a2f142da1" x="204.823199" y="198.82624" style="fill: #1f77b4; stroke: #1f77b4"/>
     <use xlink:href="#m6a2f142da1" x="157.482542" y="242.843104" style="fill: #1f77b4; stroke: #1f77b4"/>
     <use xlink:href="#m6a2f142da1" x="186.856524" y="233.053361" style="fill: #1f77b4; stroke: #1f77b4"/>
     <use xlink:href="#m6a2f142da1" x="199.753" y="221.62411" style="fill: #1f77b4; stroke: #1f77b4"/>
     <use xlink:href="#m6a2f142da1" x="176.695354" y="249.769614" style="fill: #1f77b4; stroke: #1f77b4"/>
     <use xlink:href="#m6a2f142da1" x="163.86759" y="234.56213" style="fill: #1f77b4; stroke: #1f77b4"/>
     <use xlink:href="#m6a2f142da1" x="165.063386" y="281.450239" style="fill: #1f77b4; stroke: #1f77b4"/>
     <use xlink:href="#m6a2f142da1" x="158.210807" y="269.661776" style="fill: #1f77b4; stroke: #1f77b4"/>
     <use xlink:href="#m6a2f142da1" x="122.391031" y="280.628446" style="fill: #1f77b4; stroke: #1f77b4"/>
     <use xlink:href="#m6a2f142da1" x="184.908253" y="196.470545" style="fill: #1f77b4; stroke: #1f77b4"/>
     <use xlink:href="#m6a2f142da1" x="216.672538" y="234.008638" style="fill: #1f77b4; stroke: #1f77b4"/>
     <use xlink:href="#m6a2f142da1" x="240.933281" y="223.336428" style="fill: #1f77b4; stroke: #1f77b4"/>
     <use xlink:href="#m6a2f142da1" x="228.435713" y="220.375255" style="fill: #1f77b4; stroke: #1f77b4"/>
     <use xlink:href="#m6a2f142da1" x="315.01661" y="118.789519" style="fill: #1f77b4; stroke: #1f77b4"/>
     <use xlink:href="#m6a2f142da1" x="212.727802" y="224.305566" style="fill: #1f77b4; stroke: #1f77b4"/>
     <use xlink:href="#m6a2f142da1" x="175.659916" y="214.815679" style="fill: #1f77b4; stroke: #1f77b4"/>
     <use xlink:href="#m6a2f142da1" x="287.003325" y="207.759141" style="fill: #1f77b4; stroke: #1f77b4"/>
     <use xlink:href="#m6a2f142da1" x="147.398769" y="240.694527" style="fill: #1f77b4; stroke: #1f77b4"/>
     <use xlink:href="#m6a2f142da1" x="243.806615" y="170.628381" style="fill: #1f77b4; stroke: #1f77b4"/>
     <use xlink:href="#m6a2f142da1" x="151.802504" y="298.305927" style="fill: #1f77b4; stroke: #1f77b4"/>
     <use xlink:href="#m6a2f142da1" x="214.422369" y="213.741851" style="fill: #1f77b4; stroke: #1f77b4"/>
     <use xlink:href="#m6a2f142da1" x="103.34011" y="271.652371" style="fill: #1f77b4; stroke: #1f77b4"/>
     <use xlink:href="#m6a2f142da1" x="240.496691" y="195.756389" style="fill: #1f77b4; stroke: #1f77b4"/>
     <use xlink:href="#m6a2f142da1" x="189.916957" y="211.886565" style="fill: #1f77b4; stroke: #1f77b4"/>
     <use xlink:href="#m6a2f142da1" x="151.202892" y="208.035535" style="fill: #1f77b4; stroke: #1f77b4"/>
     <use xlink:href="#m6a2f142da1" x="277.762099" y="163.35896" style="fill: #1f77b4; stroke: #1f77b4"/>
     <use xlink:href="#m6a2f142da1" x="234.091535" y="209.36792" style="fill: #1f77b4; stroke: #1f77b4"/>
     <use xlink:href="#m6a2f142da1" x="199.676638" y="246.913112" style="fill: #1f77b4; stroke: #1f77b4"/>
    </g>
   </g>
   <g id="line2d_2">
    <defs>
     <path id="m1b034f323f" d="M -3 3 
L 3 -3 
M -3 -3 
L 3 3 
" style="stroke: #ff0000"/>
    </defs>
    <g clip-path="url(#pb070bc1f27)">
     <use xlink:href="#m1b034f323f" x="228.481718" y="206.87014" style="fill: #ff0000; stroke: #ff0000"/>
     <use xlink:href="#m1b034f323f" x="188.076396" y="237.174131" style="fill: #ff0000; stroke: #ff0000"/>
     <use xlink:href="#m1b034f323f" x="188.936531" y="236.529031" style="fill: #ff0000; stroke: #ff0000"/>
     <use xlink:href="#m1b034f323f" x="192.451289" y="233.892961" style="fill: #ff0000; stroke: #ff0000"/>
     <use xlink:href="#m1b034f323f" x="228.568051" y="206.80539" style="fill: #ff0000; stroke: #ff0000"/>
     <use xlink:href="#m1b034f323f" x="146.484214" y="268.368268" style="fill: #ff0000; stroke: #ff0000"/>
     <use xlink:href="#m1b034f323f" x="124.313907" y="284.995998" style="fill: #ff0000; stroke: #ff0000"/>
     <use xlink:href="#m1b034f323f" x="81.076869" y="317.423777" style="fill: #ff0000; stroke: #ff0000"/>
     <use xlink:href="#m1b034f323f" x="254.816431" y="187.119105" style="fill: #ff0000; stroke: #ff0000"/>
     <use xlink:href="#m1b034f323f" x="201.015145" y="227.47007" style="fill: #ff0000; stroke: #ff0000"/>
     <use xlink:href="#m1b034f323f" x="269.712569" y="175.947002" style="fill: #ff0000; stroke: #ff0000"/>
     <use xlink:href="#m1b034f323f" x="197.057347" y="230.438418" style="fill: #ff0000; stroke: #ff0000"/>
     <use xlink:href="#m1b034f323f" x="161.989479" y="256.739319" style="fill: #ff0000; stroke: #ff0000"/>
     <use xlink:href="#m1b034f323f" x="220.34439" y="212.973136" style="fill: #ff0000; stroke: #ff0000"/>
     <use xlink:href="#m1b034f323f" x="193.8226" y="232.864479" style="fill: #ff0000; stroke: #ff0000"/>
     <use xlink:href="#m1b034f323f" x="137.499758" y="275.10661" style="fill: #ff0000; stroke: #ff0000"/>
     <use xlink:href="#m1b034f323f" x="155.154244" y="261.865746" style="fill: #ff0000; stroke: #ff0000"/>
     <use xlink:href="#m1b034f323f" x="281.988245" y="166.740245" style="fill: #ff0000; stroke: #ff0000"/>
     <use xlink:href="#m1b034f323f" x="214.433797" y="217.406081" style="fill: #ff0000; stroke: #ff0000"/>
     <use xlink:href="#m1b034f323f" x="217.400887" y="215.180763" style="fill: #ff0000; stroke: #ff0000"/>
     <use xlink:href="#m1b034f323f" x="184.258641" y="240.037448" style="fill: #ff0000; stroke: #ff0000"/>
     <use xlink:href="#m1b034f323f" x="164.497413" y="254.858369" style="fill: #ff0000; stroke: #ff0000"/>
     <use xlink:href="#m1b034f323f" x="240.132338" y="198.132175" style="fill: #ff0000; stroke: #ff0000"/>
     <use xlink:href="#m1b034f323f" x="192.481581" y="233.870243" style="fill: #ff0000; stroke: #ff0000"/>
     <use xlink:href="#m1b034f323f" x="161.178658" y="257.347435" style="fill: #ff0000; stroke: #ff0000"/>
     <use xlink:href="#m1b034f323f" x="191.070539" y="234.928524" style="fill: #ff0000; stroke: #ff0000"/>
     <use xlink:href="#m1b034f323f" x="154.171872" y="262.602524" style="fill: #ff0000; stroke: #ff0000"/>
     <use xlink:href="#m1b034f323f" x="206.575335" y="223.299927" style="fill: #ff0000; stroke: #ff0000"/>
     <use xlink:href="#m1b034f323f" x="251.495059" y="189.610135" style="fill: #ff0000; stroke: #ff0000"/>
     <use xlink:href="#m1b034f323f" x="157.496955" y="260.108712" style="fill: #ff0000; stroke: #ff0000"/>
     <use xlink:href="#m1b034f323f" x="265.810933" y="178.873229" style="fill: #ff0000; stroke: #ff0000"/>
     <use xlink:href="#m1b034f323f" x="165.554406" y="254.065624" style="fill: #ff0000; stroke: #ff0000"/>
     <use xlink:href="#m1b034f323f" x="204.823199" y="224.614029" style="fill: #ff0000; stroke: #ff0000"/>
     <use xlink:href="#m1b034f323f" x="157.482542" y="260.119522" style="fill: #ff0000; stroke: #ff0000"/>
     <use xlink:href="#m1b034f323f" x="186.856524" y="238.089036" style="fill: #ff0000; stroke: #ff0000"/>
     <use xlink:href="#m1b034f323f" x="199.753" y="228.416679" style="fill: #ff0000; stroke: #ff0000"/>
     <use xlink:href="#m1b034f323f" x="176.695354" y="245.709913" style="fill: #ff0000; stroke: #ff0000"/>
     <use xlink:href="#m1b034f323f" x="163.86759" y="255.330736" style="fill: #ff0000; stroke: #ff0000"/>
     <use xlink:href="#m1b034f323f" x="165.063386" y="254.433889" style="fill: #ff0000; stroke: #ff0000"/>
     <use xlink:href="#m1b034f323f" x="158.210807" y="259.573323" style="fill: #ff0000; stroke: #ff0000"/>
     <use xlink:href="#m1b034f323f" x="122.391031" y="286.438155" style="fill: #ff0000; stroke: #ff0000"/>
     <use xlink:href="#m1b034f323f" x="184.908253" y="239.550238" style="fill: #ff0000; stroke: #ff0000"/>
     <use xlink:href="#m1b034f323f" x="216.672538" y="215.727025" style="fill: #ff0000; stroke: #ff0000"/>
     <use xlink:href="#m1b034f323f" x="240.933281" y="197.531468" style="fill: #ff0000; stroke: #ff0000"/>
     <use xlink:href="#m1b034f323f" x="228.435713" y="206.904644" style="fill: #ff0000; stroke: #ff0000"/>
     <use xlink:href="#m1b034f323f" x="315.01661" y="141.968971" style="fill: #ff0000; stroke: #ff0000"/>
     <use xlink:href="#m1b034f323f" x="212.727802" y="218.685577" style="fill: #ff0000; stroke: #ff0000"/>
     <use xlink:href="#m1b034f323f" x="175.659916" y="246.486492" style="fill: #ff0000; stroke: #ff0000"/>
     <use xlink:href="#m1b034f323f" x="287.003325" y="162.978935" style="fill: #ff0000; stroke: #ff0000"/>
     <use xlink:href="#m1b034f323f" x="147.398769" y="267.682352" style="fill: #ff0000; stroke: #ff0000"/>
     <use xlink:href="#m1b034f323f" x="243.806615" y="195.376467" style="fill: #ff0000; stroke: #ff0000"/>
     <use xlink:href="#m1b034f323f" x="151.802504" y="264.37955" style="fill: #ff0000; stroke: #ff0000"/>
     <use xlink:href="#m1b034f323f" x="214.422369" y="217.414652" style="fill: #ff0000; stroke: #ff0000"/>
     <use xlink:href="#m1b034f323f" x="103.34011" y="300.726346" style="fill: #ff0000; stroke: #ff0000"/>
     <use xlink:href="#m1b034f323f" x="240.496691" y="197.85891" style="fill: #ff0000; stroke: #ff0000"/>
     <use xlink:href="#m1b034f323f" x="189.916957" y="235.793711" style="fill: #ff0000; stroke: #ff0000"/>
     <use xlink:href="#m1b034f323f" x="151.202892" y="264.82926" style="fill: #ff0000; stroke: #ff0000"/>
     <use xlink:href="#m1b034f323f" x="277.762099" y="169.909854" style="fill: #ff0000; stroke: #ff0000"/>
     <use xlink:href="#m1b034f323f" x="234.091535" y="202.662777" style="fill: #ff0000; stroke: #ff0000"/>
     <use xlink:href="#m1b034f323f" x="199.676638" y="228.47395" style="fill: #ff0000; stroke: #ff0000"/>
    </g>
   </g>
   <g id="line2d_3">
    <path d="M 54 337.731429 
L 91.2 309.831429 
L 128.4 281.931429 
L 165.6 254.031429 
L 202.8 226.131429 
L 240 198.231429 
L 277.2 170.331429 
L 314.4 142.431429 
L 351.6 114.531429 
L 388.8 86.631429 
" clip-path="url(#pb070bc1f27)" style="fill: none; stroke: #ff0000; stroke-width: 1.5; stroke-linecap: square"/>
   </g>
   <g id="line2d_4">
    <path d="M 228.481718 202.349063 
L 228.481718 206.87014 
" clip-path="url(#pb070bc1f27)" style="fill: none; stroke: #0088ff; stroke-width: 1.5; stroke-linecap: square"/>
   </g>
   <g id="line2d_5">
    <path d="M 188.076396 249.675287 
L 188.076396 237.174131 
" clip-path="url(#pb070bc1f27)" style="fill: none; stroke: #0088ff; stroke-width: 1.5; stroke-linecap: square"/>
   </g>
   <g id="line2d_6">
    <path d="M 188.936531 246.40715 
L 188.936531 236.529031 
" clip-path="url(#pb070bc1f27)" style="fill: none; stroke: #0088ff; stroke-width: 1.5; stroke-linecap: square"/>
   </g>
   <g id="line2d_7">
    <path d="M 192.451289 292.27891 
L 192.451289 233.892961 
" clip-path="url(#pb070bc1f27)" style="fill: none; stroke: #0088ff; stroke-width: 1.5; stroke-linecap: square"/>
   </g>
   <g id="line2d_8">
    <path d="M 228.568051 163.766673 
L 228.568051 206.80539 
" clip-path="url(#pb070bc1f27)" style="fill: none; stroke: #0088ff; stroke-width: 1.5; stroke-linecap: square"/>
   </g>
   <g id="line2d_9">
    <path d="M 146.484214 241.006359 
L 146.484214 268.368268 
" clip-path="url(#pb070bc1f27)" style="fill: none; stroke: #0088ff; stroke-width: 1.5; stroke-linecap: square"/>
   </g>
   <g id="line2d_10">
    <path d="M 124.313907 292.778253 
L 124.313907 284.995998 
" clip-path="url(#pb070bc1f27)" style="fill: none; stroke: #0088ff; stroke-width: 1.5; stroke-linecap: square"/>
   </g>
   <g id="line2d_11">
    <path d="M 81.076869 298.918745 
L 81.076869 317.423777 
" clip-path="url(#pb070bc1f27)" style="fill: none; stroke: #0088ff; stroke-width: 1.5; stroke-linecap: square"/>
   </g>
   <g id="line2d_12">
    <path d="M 254.816431 180.394153 
L 254.816431 187.119105 
" clip-path="url(#pb070bc1f27)" style="fill: none; stroke: #0088ff; stroke-width: 1.5; stroke-linecap: square"/>
   </g>
   <g id="line2d_13">
    <path d="M 201.015145 240.714347 
L 201.015145 227.47007 
" clip-path="url(#pb070bc1f27)" style="fill: none; stroke: #0088ff; stroke-width: 1.5; stroke-linecap: square"/>
   </g>
   <g id="line2d_14">
    <path d="M 269.712569 152.569175 
L 269.712569 175.947002 
" clip-path="url(#pb070bc1f27)" style="fill: none; stroke: #0088ff; stroke-width: 1.5; stroke-linecap: square"/>
   </g>
   <g id="line2d_15">
    <path d="M 197.057347 237.865156 
L 197.057347 230.438418 
" clip-path="url(#pb070bc1f27)" style="fill: none; stroke: #0088ff; stroke-width: 1.5; stroke-linecap: square"/>
   </g>
   <g id="line2d_16">
    <path d="M 161.989479 264.602908 
L 161.989479 256.739319 
" clip-path="url(#pb070bc1f27)" style="fill: none; stroke: #0088ff; stroke-width: 1.5; stroke-linecap: square"/>
   </g>
   <g id="line2d_17">
    <path d="M 220.34439 231.91676 
L 220.34439 212.973136 
" clip-path="url(#pb070bc1f27)" style="fill: none; stroke: #0088ff; stroke-width: 1.5; stroke-linecap: square"/>
   </g>
   <g id="line2d_18">
    <path d="M 193.8226 221.984481 
L 193.8226 232.864479 
" clip-path="url(#pb070bc1f27)" style="fill: none; stroke: #0088ff; stroke-width: 1.5; stroke-linecap: square"/>
   </g>
   <g id="line2d_19">
    <path d="M 137.499758 277.478861 
L 137.499758 275.10661 
" clip-path="url(#pb070bc1f27)" style="fill: none; stroke: #0088ff; stroke-width: 1.5; stroke-linecap: square"/>
   </g>
   <g id="line2d_20">
    <path d="M 155.154244 248.825555 
L 155.154244 261.865746 
" clip-path="url(#pb070bc1f27)" style="fill: none; stroke: #0088ff; stroke-width: 1.5; stroke-linecap: square"/>
   </g>
   <g id="line2d_21">
    <path d="M 281.988245 181.260657 
L 281.988245 166.740245 
" clip-path="url(#pb070bc1f27)" style="fill: none; stroke: #0088ff; stroke-width: 1.5; stroke-linecap: square"/>
   </g>
   <g id="line2d_22">
    <path d="M 214.433797 214.373083 
L 214.433797 217.406081 
" clip-path="url(#pb070bc1f27)" style="fill: none; stroke: #0088ff; stroke-width: 1.5; stroke-linecap: square"/>
   </g>
   <g id="line2d_23">
    <path d="M 217.400887 236.518859 
L 217.400887 215.180763 
" clip-path="url(#pb070bc1f27)" style="fill: none; stroke: #0088ff; stroke-width: 1.5; stroke-linecap: square"/>
   </g>
   <g id="line2d_24">
    <path d="M 184.258641 219.914414 
L 184.258641 240.037448 
" clip-path="url(#pb070bc1f27)" style="fill: none; stroke: #0088ff; stroke-width: 1.5; stroke-linecap: square"/>
   </g>
   <g id="line2d_25">
    <path d="M 164.497413 250.361644 
L 164.497413 254.858369 
" clip-path="url(#pb070bc1f27)" style="fill: none; stroke: #0088ff; stroke-width: 1.5; stroke-linecap: square"/>
   </g>
   <g id="line2d_26">
    <path d="M 240.132338 190.226805 
L 240.132338 198.132175 
" clip-path="url(#pb070bc1f27)" style="fill: none; stroke: #0088ff; stroke-width: 1.5; stroke-linecap: square"/>
   </g>
   <g id="line2d_27">
    <path d="M 192.481581 224.053335 
L 192.481581 233.870243 
" clip-path="url(#pb070bc1f27)" style="fill: none; stroke: #0088ff; stroke-width: 1.5; stroke-linecap: square"/>
   </g>
   <g id="line2d_28">
    <path d="M 161.178658 281.518979 
L 161.178658 257.347435 
" clip-path="url(#pb070bc1f27)" style="fill: none; stroke: #0088ff; stroke-width: 1.5; stroke-linecap: square"/>
   </g>
   <g id="line2d_29">
    <path d="M 191.070539 216.19931 
L 191.070539 234.928524 
" clip-path="url(#pb070bc1f27)" style="fill: none; stroke: #0088ff; stroke-width: 1.5; stroke-linecap: square"/>
   </g>
   <g id="line2d_30">
    <path d="M 154.171872 213.417946 
L 154.171872 262.602524 
" clip-path="url(#pb070bc1f27)" style="fill: none; stroke: #0088ff; stroke-width: 1.5; stroke-linecap: square"/>
   </g>
   <g id="line2d_31">
    <path d="M 206.575335 262.482109 
L 206.575335 223.299927 
" clip-path="url(#pb070bc1f27)" style="fill: none; stroke: #0088ff; stroke-width: 1.5; stroke-linecap: square"/>
   </g>
   <g id="line2d_32">
    <path d="M 251.495059 230.967775 
L 251.495059 189.610135 
" clip-path="url(#pb070bc1f27)" style="fill: none; stroke: #0088ff; stroke-width: 1.5; stroke-linecap: square"/>
   </g>
   <g id="line2d_33">
    <path d="M 157.496955 296.095681 
L 157.496955 260.108712 
" clip-path="url(#pb070bc1f27)" style="fill: none; stroke: #0088ff; stroke-width: 1.5; stroke-linecap: square"/>
   </g>
   <g id="line2d_34">
    <path d="M 265.810933 158.75034 
L 265.810933 178.873229 
" clip-path="url(#pb070bc1f27)" style="fill: none; stroke: #0088ff; stroke-width: 1.5; stroke-linecap: square"/>
   </g>
   <g id="line2d_35">
    <path d="M 165.554406 250.987481 
L 165.554406 254.065624 
" clip-path="url(#pb070bc1f27)" style="fill: none; stroke: #0088ff; stroke-width: 1.5; stroke-linecap: square"/>
   </g>
   <g id="line2d_36">
    <path d="M 204.823199 198.82624 
L 204.823199 224.614029 
" clip-path="url(#pb070bc1f27)" style="fill: none; stroke: #0088ff; stroke-width: 1.5; stroke-linecap: square"/>
   </g>
   <g id="line2d_37">
    <path d="M 157.482542 242.843104 
L 157.482542 260.119522 
" clip-path="url(#pb070bc1f27)" style="fill: none; stroke: #0088ff; stroke-width: 1.5; stroke-linecap: square"/>
   </g>
   <g id="line2d_38">
    <path d="M 186.856524 233.053361 
L 186.856524 238.089036 
" clip-path="url(#pb070bc1f27)" style="fill: none; stroke: #0088ff; stroke-width: 1.5; stroke-linecap: square"/>
   </g>
   <g id="line2d_39">
    <path d="M 199.753 221.62411 
L 199.753 228.416679 
" clip-path="url(#pb070bc1f27)" style="fill: none; stroke: #0088ff; stroke-width: 1.5; stroke-linecap: square"/>
   </g>
   <g id="line2d_40">
    <path d="M 176.695354 249.769614 
L 176.695354 245.709913 
" clip-path="url(#pb070bc1f27)" style="fill: none; stroke: #0088ff; stroke-width: 1.5; stroke-linecap: square"/>
   </g>
   <g id="line2d_41">
    <path d="M 163.86759 234.56213 
L 163.86759 255.330736 
" clip-path="url(#pb070bc1f27)" style="fill: none; stroke: #0088ff; stroke-width: 1.5; stroke-linecap: square"/>
   </g>
   <g id="line2d_42">
    <path d="M 165.063386 281.450239 
L 165.063386 254.433889 
" clip-path="url(#pb070bc1f27)" style="fill: none; stroke: #0088ff; stroke-width: 1.5; stroke-linecap: square"/>
   </g>
   <g id="line2d_43">
    <path d="M 158.210807 269.661776 
L 158.210807 259.573323 
" clip-path="url(#pb070bc1f27)" style="fill: none; stroke: #0088ff; stroke-width: 1.5; stroke-linecap: square"/>
   </g>
   <g id="line2d_44">
    <path d="M 122.391031 280.628446 
L 122.391031 286.438155 
" clip-path="url(#pb070bc1f27)" style="fill: none; stroke: #0088ff; stroke-width: 1.5; stroke-linecap: square"/>
   </g>
   <g id="line2d_45">
    <path d="M 184.908253 196.470545 
L 184.908253 239.550238 
" clip-path="url(#pb070bc1f27)" style="fill: none; stroke: #0088ff; stroke-width: 1.5; stroke-linecap: square"/>
   </g>
   <g id="line2d_46">
    <path d="M 216.672538 234.008638 
L 216.672538 215.727025 
" clip-path="url(#pb070bc1f27)" style="fill: none; stroke: #0088ff; stroke-width: 1.5; stroke-linecap: square"/>
   </g>
   <g id="line2d_47">
    <path d="M 240.933281 223.336428 
L 240.933281 197.531468 
" clip-path="url(#pb070bc1f27)" style="fill: none; stroke: #0088ff; stroke-width: 1.5; stroke-linecap: square"/>
   </g>
   <g id="line2d_48">
    <path d="M 228.435713 220.375255 
L 228.435713 206.904644 
" clip-path="url(#pb070bc1f27)" style="fill: none; stroke: #0088ff; stroke-width: 1.5; stroke-linecap: square"/>
   </g>
   <g id="line2d_49">
    <path d="M 315.01661 118.789519 
L 315.01661 141.968971 
" clip-path="url(#pb070bc1f27)" style="fill: none; stroke: #0088ff; stroke-width: 1.5; stroke-linecap: square"/>
   </g>
   <g id="line2d_50">
    <path d="M 212.727802 224.305566 
L 212.727802 218.685577 
" clip-path="url(#pb070bc1f27)" style="fill: none; stroke: #0088ff; stroke-width: 1.5; stroke-linecap: square"/>
   </g>
   <g id="line2d_51">
    <path d="M 175.659916 214.815679 
L 175.659916 246.486492 
" clip-path="url(#pb070bc1f27)" style="fill: none; stroke: #0088ff; stroke-width: 1.5; stroke-linecap: square"/>
   </g>
   <g id="line2d_52">
    <path d="M 287.003325 207.759141 
L 287.003325 162.978935 
" clip-path="url(#pb070bc1f27)" style="fill: none; stroke: #0088ff; stroke-width: 1.5; stroke-linecap: square"/>
   </g>
   <g id="line2d_53">
    <path d="M 147.398769 240.694527 
L 147.398769 267.682352 
" clip-path="url(#pb070bc1f27)" style="fill: none; stroke: #0088ff; stroke-width: 1.5; stroke-linecap: square"/>
   </g>
   <g id="line2d_54">
    <path d="M 243.806615 170.628381 
L 243.806615 195.376467 
" clip-path="url(#pb070bc1f27)" style="fill: none; stroke: #0088ff; stroke-width: 1.5; stroke-linecap: square"/>
   </g>
   <g id="line2d_55">
    <path d="M 151.802504 298.305927 
L 151.802504 264.37955 
" clip-path="url(#pb070bc1f27)" style="fill: none; stroke: #0088ff; stroke-width: 1.5; stroke-linecap: square"/>
   </g>
   <g id="line2d_56">
    <path d="M 214.422369 213.741851 
L 214.422369 217.414652 
" clip-path="url(#pb070bc1f27)" style="fill: none; stroke: #0088ff; stroke-width: 1.5; stroke-linecap: square"/>
   </g>
   <g id="line2d_57">
    <path d="M 103.34011 271.652371 
L 103.34011 300.726346 
" clip-path="url(#pb070bc1f27)" style="fill: none; stroke: #0088ff; stroke-width: 1.5; stroke-linecap: square"/>
   </g>
   <g id="line2d_58">
    <path d="M 240.496691 195.756389 
L 240.496691 197.85891 
" clip-path="url(#pb070bc1f27)" style="fill: none; stroke: #0088ff; stroke-width: 1.5; stroke-linecap: square"/>
   </g>
   <g id="line2d_59">
    <path d="M 189.916957 211.886565 
L 189.916957 235.793711 
" clip-path="url(#pb070bc1f27)" style="fill: none; stroke: #0088ff; stroke-width: 1.5; stroke-linecap: square"/>
   </g>
   <g id="line2d_60">
    <path d="M 151.202892 208.035535 
L 151.202892 264.82926 
" clip-path="url(#pb070bc1f27)" style="fill: none; stroke: #0088ff; stroke-width: 1.5; stroke-linecap: square"/>
   </g>
   <g id="line2d_61">
    <path d="M 277.762099 163.35896 
L 277.762099 169.909854 
" clip-path="url(#pb070bc1f27)" style="fill: none; stroke: #0088ff; stroke-width: 1.5; stroke-linecap: square"/>
   </g>
   <g id="line2d_62">
    <path d="M 234.091535 209.36792 
L 234.091535 202.662777 
" clip-path="url(#pb070bc1f27)" style="fill: none; stroke: #0088ff; stroke-width: 1.5; stroke-linecap: square"/>
   </g>
   <g id="line2d_63">
    <path d="M 199.676638 246.913112 
L 199.676638 228.47395 
" clip-path="url(#pb070bc1f27)" style="fill: none; stroke: #0088ff; stroke-width: 1.5; stroke-linecap: square"/>
   </g>
   <g id="patch_63">
    <path d="M 54 361.645714 
L 54 74.674286 
" style="fill: none; stroke: #000000; stroke-width: 0.8; stroke-linejoin: miter; stroke-linecap: square"/>
   </g>
   <g id="patch_64">
    <path d="M 388.8 361.645714 
L 388.8 74.674286 
" style="fill: none; stroke: #000000; stroke-width: 0.8; stroke-linejoin: miter; stroke-linecap: square"/>
   </g>
   <g id="patch_65">
    <path d="M 54 361.645714 
L 388.8 361.645714 
" style="fill: none; stroke: #000000; stroke-width: 0.8; stroke-linejoin: miter; stroke-linecap: square"/>
   </g>
   <g id="patch_66">
    <path d="M 54 74.674286 
L 388.8 74.674286 
" style="fill: none; stroke: #000000; stroke-width: 0.8; stroke-linejoin: miter; stroke-linecap: square"/>
   </g>
  </g>
 </g>
 <defs>
  <clipPath id="pb070bc1f27">
   <rect x="54" y="74.674286" width="334.8" height="286.971429"/>
  </clipPath>
 </defs>
</svg>
