<?xml version="1.0" encoding="utf-8" standalone="no"?>
<!DOCTYPE svg PUBLIC "-//W3C//DTD SVG 1.1//EN"
  "http://www.w3.org/Graphics/SVG/1.1/DTD/svg11.dtd">
<svg xmlns:xlink="http://www.w3.org/1999/xlink" width="360pt" height="360pt" viewBox="0 0 360 360" xmlns="http://www.w3.org/2000/svg" version="1.1">
 <metadata>
  <rdf:RDF xmlns:dc="http://purl.org/dc/elements/1.1/" xmlns:cc="http://creativecommons.org/ns#" xmlns:rdf="http://www.w3.org/1999/02/22-rdf-syntax-ns#">
   <cc:Work>
    <dc:type rdf:resource="http://purl.org/dc/dcmitype/StillImage"/>
    <dc:date>2025-11-29T13:31:46.085005</dc:date>
    <dc:format>image/svg+xml</dc:format>
    <dc:creator>
     <cc:Agent>
      <dc:title>Matplotlib v3.10.6, https://matplotlib.org/</dc:title>
     </cc:Agent>
    </dc:creator>
   </cc:Work>
  </rdf:RDF>
 </metadata>
 <defs>
  <style type="text/css">*{stroke-linejoin: round; stroke-linecap: butt}</style>
 </defs>
 <g id="figure_1">
  <g id="patch_1">
   <path d="M 0 360 
L 360 360 
L 360 0 
L 0 0 
z
" style="fill: #ffffff"/>
  </g>
  <g id="axes_1">
   <g id="patch_2">
    <path d="M 323.1 181.8 
C 323.1 163.599215 319.514842 145.575409 312.549703 128.760076 
C 305.584564 111.944743 295.374899 96.664899 282.505 83.795 
C 269.635101 70.925101 254.355257 60.715436 237.539924 53.750297 
C 220.724591 46.785158 202.700785 43.2 184.5 43.2 
C 166.299215 43.2 148.275409 46.785158 131.460076 53.750297 
C 114.644743 60.715436 99.364899 70.925101 86.495 83.795 
C 73.625101 96.664899 63.415436 111.944743 56.450297 128.760076 
C 49.485158 145.575409 45.9 163.599215 45.9 181.8 
C 45.9 200.000785 49.485158 218.024591 56.450297 234.839924 
C 63.415436 251.655257 73.625101 266.935101 86.495 279.805 
C 99.364899 292.674899 114.644743 302.884564 131.460076 309.849703 
C 148.275409 316.814842 166.299215 320.4 184.5 320.4 
C 202.700785 320.4 220.724591 316.814842 237.539924 309.849703 
C 254.355257 302.884564 269.635101 292.674899 282.505 279.805 
C 295.374899 266.935101 305.584564 251.655257 312.549703 234.839924 
C 319.514842 218.024591 323.1 200.000785 323.1 181.8 
M 184.5 181.8 
C 184.5 181.8 184.5 181.8 184.5 181.8 
C 184.5 181.8 184.5 181.8 184.5 181.8 
C 184.5 181.8 184.5 181.8 184.5 181.8 
C 184.5 181.8 184.5 181.8 184.5 181.8 
C 184.5 181.8 184.5 181.8 184.5 181.8 
C 184.5 181.8 184.5 181.8 184.5 181.8 
C 184.5 181.8 184.5 181.8 184.5 181.8 
C 184.5 181.8 184.5 181.8 184.5 181.8 
C 184.5 181.8 184.5 181.8 184.5 181.8 
C 184.5 181.8 184.5 181.8 184.5 181.8 
C 184.5 181.8 184.5 181.8 184.5 181.8 
C 184.5 181.8 184.5 181.8 184.5 181.8 
C 184.5 181.8 184.5 181.8 184.5 181.8 
C 184.5 181.8 184.5 181.8 184.5 181.8 
C 184.5 181.8 184.5 181.8 184.5 181.8 
C 184.5 181.8 184.5 181.8 184.5 181.8 
z
" style="fill: #ffffff"/>
   </g>
   <g id="matplotlib.axis_1">
    <g id="xtick_1">
     <g id="line2d_1">
      <path d="M 184.5 181.8 
L 323.1 181.8 
" clip-path="url(#p5cc19a8ba0)" style="fill: none; stroke: #b0b0b0; stroke-width: 0.8; stroke-linecap: square"/>
     </g>
     <g id="text_1">
      <!-- 0° -->
      <g transform="translate(331.41875 184.559375) scale(0.1 -0.1)">
       <defs>
        <path id="DejaVuSans-30" d="M 2034 4250 
Q 1547 4250 1301 3770 
Q 1056 3291 1056 2328 
Q 1056 1369 1301 889 
Q 1547 409 2034 409 
Q 2525 409 2770 889 
Q 3016 1369 3016 2328 
Q 3016 3291 2770 3770 
Q 2525 4250 2034 4250 
z
M 2034 4750 
Q 2819 4750 3233 4129 
Q 3647 3509 3647 2328 
Q 3647 1150 3233 529 
Q 2819 -91 2034 -91 
Q 1250 -91 836 529 
Q 422 1150 422 2328 
Q 422 3509 836 4129 
Q 1250 4750 2034 4750 
z
" transform="scale(0.015625)"/>
        <path id="DejaVuSans-b0" d="M 1600 4347 
Q 1350 4347 1178 4173 
Q 1006 4000 1006 3750 
Q 1006 3503 1178 3333 
Q 1350 3163 1600 3163 
Q 1850 3163 2022 3333 
Q 2194 3503 2194 3750 
Q 2194 3997 2020 4172 
Q 1847 4347 1600 4347 
z
M 1600 4750 
Q 1800 4750 1984 4673 
Q 2169 4597 2303 4453 
Q 2447 4313 2519 4134 
Q 2591 3956 2591 3750 
Q 2591 3338 2302 3052 
Q 2013 2766 1594 2766 
Q 1172 2766 890 3047 
Q 609 3328 609 3750 
Q 609 4169 896 4459 
Q 1184 4750 1600 4750 
z
" transform="scale(0.015625)"/>
       </defs>
       <use xlink:href="#DejaVuSans-30"/>
       <use xlink:href="#DejaVuSans-b0" transform="translate(63.623047 0)"/>
      </g>
     </g>
    </g>
    <g id="xtick_2">
     <g id="line2d_2">
      <path d="M 184.5 181.8 
L 282.505 83.795 
" clip-path="url(#p5cc19a8ba0)" style="fill: none; stroke: #b0b0b0; stroke-width: 0.8; stroke-linecap: square"/>
     </g>
     <g id="text_2">
      <!-- 45° -->
      <g transform="translate(283.541995 76.65488) scale(0.1 -0.1)">
       <defs>
        <path id="DejaVuSans-34" d="M 2419 4116 
L 825 1625 
L 2419 1625 
L 2419 4116 
z
M 2253 4666 
L 3047 4666 
L 3047 1625 
L 3713 1625 
L 3713 1100 
L 3047 1100 
L 3047 0 
L 2419 0 
L 2419 1100 
L 313 1100 
L 313 1709 
L 2253 4666 
z
" transform="scale(0.015625)"/>
        <path id="DejaVuSans-35" d="M 691 4666 
L 3169 4666 
L 3169 4134 
L 1269 4134 
L 1269 2991 
Q 1406 3038 1543 3061 
Q 1681 3084 1819 3084 
Q 2600 3084 3056 2656 
Q 3513 2228 3513 1497 
Q 3513 744 3044 326 
Q 2575 -91 1722 -91 
Q 1428 -91 1123 -41 
Q 819 9 494 109 
L 494 744 
Q 775 591 1075 516 
Q 1375 441 1709 441 
Q 2250 441 2565 725 
Q 2881 1009 2881 1497 
Q 2881 1984 2565 2268 
Q 2250 2553 1709 2553 
Q 1456 2553 1204 2497 
Q 953 2441 691 2322 
L 691 4666 
z
" transform="scale(0.015625)"/>
       </defs>
       <use xlink:href="#DejaVuSans-34"/>
       <use xlink:href="#DejaVuSans-35" transform="translate(63.623047 0)"/>
       <use xlink:href="#DejaVuSans-b0" transform="translate(127.246094 0)"/>
      </g>
     </g>
    </g>
    <g id="xtick_3">
     <g id="line2d_3">
      <path d="M 184.5 181.8 
L 184.5 43.2 
" clip-path="url(#p5cc19a8ba0)" style="fill: none; stroke: #b0b0b0; stroke-width: 0.8; stroke-linecap: square"/>
     </g>
     <g id="text_3">
      <!-- 90° -->
      <g transform="translate(175.6375 31.959375) scale(0.1 -0.1)">
       <defs>
        <path id="DejaVuSans-39" d="M 703 97 
L 703 672 
Q 941 559 1184 500 
Q 1428 441 1663 441 
Q 2288 441 2617 861 
Q 2947 1281 2994 2138 
Q 2813 1869 2534 1725 
Q 2256 1581 1919 1581 
Q 1219 1581 811 2004 
Q 403 2428 403 3163 
Q 403 3881 828 4315 
Q 1253 4750 1959 4750 
Q 2769 4750 3195 4129 
Q 3622 3509 3622 2328 
Q 3622 1225 3098 567 
Q 2575 -91 1691 -91 
Q 1453 -91 1209 -44 
Q 966 3 703 97 
z
M 1959 2075 
Q 2384 2075 2632 2365 
Q 2881 2656 2881 3163 
Q 2881 3666 2632 3958 
Q 2384 4250 1959 4250 
Q 1534 4250 1286 3958 
Q 1038 3666 1038 3163 
Q 1038 2656 1286 2365 
Q 1534 2075 1959 2075 
z
" transform="scale(0.015625)"/>
       </defs>
       <use xlink:href="#DejaVuSans-39"/>
       <use xlink:href="#DejaVuSans-30" transform="translate(63.623047 0)"/>
       <use xlink:href="#DejaVuSans-b0" transform="translate(127.246094 0)"/>
      </g>
     </g>
    </g>
    <g id="xtick_4">
     <g id="line2d_4">
      <path d="M 184.5 181.8 
L 86.495 83.795 
" clip-path="url(#p5cc19a8ba0)" style="fill: none; stroke: #b0b0b0; stroke-width: 0.8; stroke-linecap: square"/>
     </g>
     <g id="text_4">
      <!-- 135° -->
      <g transform="translate(64.551755 76.65488) scale(0.1 -0.1)">
       <defs>
        <path id="DejaVuSans-31" d="M 794 531 
L 1825 531 
L 1825 4091 
L 703 3866 
L 703 4441 
L 1819 4666 
L 2450 4666 
L 2450 531 
L 3481 531 
L 3481 0 
L 794 0 
L 794 531 
z
" transform="scale(0.015625)"/>
        <path id="DejaVuSans-33" d="M 2597 2516 
Q 3050 2419 3304 2112 
Q 3559 1806 3559 1356 
Q 3559 666 3084 287 
Q 2609 -91 1734 -91 
Q 1441 -91 1130 -33 
Q 819 25 488 141 
L 488 750 
Q 750 597 1062 519 
Q 1375 441 1716 441 
Q 2309 441 2620 675 
Q 2931 909 2931 1356 
Q 2931 1769 2642 2001 
Q 2353 2234 1838 2234 
L 1294 2234 
L 1294 2753 
L 1863 2753 
Q 2328 2753 2575 2939 
Q 2822 3125 2822 3475 
Q 2822 3834 2567 4026 
Q 2313 4219 1838 4219 
Q 1578 4219 1281 4162 
Q 984 4106 628 3988 
L 628 4550 
Q 988 4650 1302 4700 
Q 1616 4750 1894 4750 
Q 2613 4750 3031 4423 
Q 3450 4097 3450 3541 
Q 3450 3153 3228 2886 
Q 3006 2619 2597 2516 
z
" transform="scale(0.015625)"/>
       </defs>
       <use xlink:href="#DejaVuSans-31"/>
       <use xlink:href="#DejaVuSans-33" transform="translate(63.623047 0)"/>
       <use xlink:href="#DejaVuSans-35" transform="translate(127.246094 0)"/>
       <use xlink:href="#DejaVuSans-b0" transform="translate(190.869141 0)"/>
      </g>
     </g>
    </g>
    <g id="xtick_5">
     <g id="line2d_5">
      <path d="M 184.5 181.8 
L 45.9 181.8 
" clip-path="url(#p5cc19a8ba0)" style="fill: none; stroke: #b0b0b0; stroke-width: 0.8; stroke-linecap: square"/>
     </g>
     <g id="text_5">
      <!-- 180° -->
      <g transform="translate(19.85625 184.559375) scale(0.1 -0.1)">
       <defs>
        <path id="DejaVuSans-38" d="M 2034 2216 
Q 1584 2216 1326 1975 
Q 1069 1734 1069 1313 
Q 1069 891 1326 650 
Q 1584 409 2034 409 
Q 2484 409 2743 651 
Q 3003 894 3003 1313 
Q 3003 1734 2745 1975 
Q 2488 2216 2034 2216 
z
M 1403 2484 
Q 997 2584 770 2862 
Q 544 3141 544 3541 
Q 544 4100 942 4425 
Q 1341 4750 2034 4750 
Q 2731 4750 3128 4425 
Q 3525 4100 3525 3541 
Q 3525 3141 3298 2862 
Q 3072 2584 2669 2484 
Q 3125 2378 3379 2068 
Q 3634 1759 3634 1313 
Q 3634 634 3220 271 
Q 2806 -91 2034 -91 
Q 1263 -91 848 271 
Q 434 634 434 1313 
Q 434 1759 690 2068 
Q 947 2378 1403 2484 
z
M 1172 3481 
Q 1172 3119 1398 2916 
Q 1625 2713 2034 2713 
Q 2441 2713 2670 2916 
Q 2900 3119 2900 3481 
Q 2900 3844 2670 4047 
Q 2441 4250 2034 4250 
Q 1625 4250 1398 4047 
Q 1172 3844 1172 3481 
z
" transform="scale(0.015625)"/>
       </defs>
       <use xlink:href="#DejaVuSans-31"/>
       <use xlink:href="#DejaVuSans-38" transform="translate(63.623047 0)"/>
       <use xlink:href="#DejaVuSans-30" transform="translate(127.246094 0)"/>
       <use xlink:href="#DejaVuSans-b0" transform="translate(190.869141 0)"/>
      </g>
     </g>
    </g>
    <g id="xtick_6">
     <g id="line2d_6">
      <path d="M 184.5 181.8 
L 86.495 279.805 
" clip-path="url(#p5cc19a8ba0)" style="fill: none; stroke: #b0b0b0; stroke-width: 0.8; stroke-linecap: square"/>
     </g>
     <g id="text_6">
      <!-- 225° -->
      <g transform="translate(64.551755 292.46387) scale(0.1 -0.1)">
       <defs>
        <path id="DejaVuSans-32" d="M 1228 531 
L 3431 531 
L 3431 0 
L 469 0 
L 469 531 
Q 828 903 1448 1529 
Q 2069 2156 2228 2338 
Q 2531 2678 2651 2914 
Q 2772 3150 2772 3378 
Q 2772 3750 2511 3984 
Q 2250 4219 1831 4219 
Q 1534 4219 1204 4116 
Q 875 4013 500 3803 
L 500 4441 
Q 881 4594 1212 4672 
Q 1544 4750 1819 4750 
Q 2544 4750 2975 4387 
Q 3406 4025 3406 3419 
Q 3406 3131 3298 2873 
Q 3191 2616 2906 2266 
Q 2828 2175 2409 1742 
Q 1991 1309 1228 531 
z
" transform="scale(0.015625)"/>
       </defs>
       <use xlink:href="#DejaVuSans-32"/>
       <use xlink:href="#DejaVuSans-32" transform="translate(63.623047 0)"/>
       <use xlink:href="#DejaVuSans-35" transform="translate(127.246094 0)"/>
       <use xlink:href="#DejaVuSans-b0" transform="translate(190.869141 0)"/>
      </g>
     </g>
    </g>
    <g id="xtick_7">
     <g id="line2d_7">
      <path d="M 184.5 181.8 
L 184.5 320.4 
" clip-path="url(#p5cc19a8ba0)" style="fill: none; stroke: #b0b0b0; stroke-width: 0.8; stroke-linecap: square"/>
     </g>
     <g id="text_7">
      <!-- 270° -->
      <g transform="translate(172.45625 337.159375) scale(0.1 -0.1)">
       <defs>
        <path id="DejaVuSans-37" d="M 525 4666 
L 3525 4666 
L 3525 4397 
L 1831 0 
L 1172 0 
L 2766 4134 
L 525 4134 
L 525 4666 
z
" transform="scale(0.015625)"/>
       </defs>
       <use xlink:href="#DejaVuSans-32"/>
       <use xlink:href="#DejaVuSans-37" transform="translate(63.623047 0)"/>
       <use xlink:href="#DejaVuSans-30" transform="translate(127.246094 0)"/>
       <use xlink:href="#DejaVuSans-b0" transform="translate(190.869141 0)"/>
      </g>
     </g>
    </g>
    <g id="xtick_8">
     <g id="line2d_8">
      <path d="M 184.5 181.8 
L 282.505 279.805 
" clip-path="url(#p5cc19a8ba0)" style="fill: none; stroke: #b0b0b0; stroke-width: 0.8; stroke-linecap: square"/>
     </g>
     <g id="text_8">
      <!-- 315° -->
      <g transform="translate(280.360745 292.46387) scale(0.1 -0.1)">
       <use xlink:href="#DejaVuSans-33"/>
       <use xlink:href="#DejaVuSans-31" transform="translate(63.623047 0)"/>
       <use xlink:href="#DejaVuSans-35" transform="translate(127.246094 0)"/>
       <use xlink:href="#DejaVuSans-b0" transform="translate(190.869141 0)"/>
      </g>
     </g>
    </g>
   </g>
   <g id="matplotlib.axis_2">
    <g id="ytick_1">
     <g id="line2d_9">
      <path d="M 200.999985 181.8 
C 200.999985 179.633242 200.573181 177.487553 199.743998 175.485729 
C 198.914816 173.483906 197.69938 171.664878 196.167251 170.132749 
C 194.635122 168.60062 192.816094 167.385184 190.814271 166.556002 
C 188.812447 165.726819 186.666758 165.300015 184.5 165.300015 
C 182.333242 165.300015 180.187553 165.726819 178.185729 166.556002 
C 176.183906 167.385184 174.364878 168.60062 172.832749 170.132749 
C 171.30062 171.664878 170.085184 173.483906 169.256002 175.485729 
C 168.426819 177.487553 168.000015 179.633242 168.000015 181.8 
C 168.000015 183.966758 168.426819 186.112447 169.256002 188.114271 
C 170.085184 190.116094 171.30062 191.935122 172.832749 193.467251 
C 174.364878 194.99938 176.183906 196.214816 178.185729 197.043998 
C 180.187553 197.873181 182.333242 198.299985 184.5 198.299985 
C 186.666758 198.299985 188.812447 197.873181 190.814271 197.043998 
C 192.816094 196.214816 194.635122 194.99938 196.167251 193.467251 
C 197.69938 191.935122 198.914816 190.116094 199.743998 188.114271 
C 200.573181 186.112447 200.999985 183.966758 200.999985 181.8 
" clip-path="url(#p5cc19a8ba0)" style="fill: none; stroke: #b0b0b0; stroke-width: 0.8; stroke-linecap: square"/>
     </g>
    </g>
    <g id="ytick_2">
     <g id="line2d_10">
      <path d="M 217.49999 181.8 
C 217.49999 177.466481 216.646381 173.1751 214.988015 169.171451 
C 213.329649 165.167801 210.898777 161.529744 207.834517 158.465483 
C 204.770256 155.401223 201.132199 152.970351 197.128549 151.311985 
C 193.1249 149.653619 188.833519 148.80001 184.5 148.80001 
C 180.166481 148.80001 175.8751 149.653619 171.871451 151.311985 
C 167.867801 152.970351 164.229744 155.401223 161.165483 158.465483 
C 158.101223 161.529744 155.670351 165.167801 154.011985 169.171451 
C 152.353619 173.1751 151.50001 177.466481 151.50001 181.8 
C 151.50001 186.133519 152.353619 190.4249 154.011985 194.428549 
C 155.670351 198.432199 158.101223 202.070256 161.165483 205.134517 
C 164.229744 208.198777 167.867801 210.629649 171.871451 212.288015 
C 175.8751 213.946381 180.166481 214.79999 184.5 214.79999 
C 188.833519 214.79999 193.1249 213.946381 197.128549 212.288015 
C 201.132199 210.629649 204.770256 208.198777 207.834517 205.134517 
C 210.898777 202.070256 213.329649 198.432199 214.988015 194.428549 
C 216.646381 190.4249 217.49999 186.133519 217.49999 181.8 
" clip-path="url(#p5cc19a8ba0)" style="fill: none; stroke: #b0b0b0; stroke-width: 0.8; stroke-linecap: square"/>
     </g>
    </g>
    <g id="ytick_3">
     <g id="line2d_11">
      <path d="M 233.999995 181.8 
C 233.999995 175.29972 232.719582 168.862647 230.232032 162.857172 
C 227.744483 156.851697 224.098174 151.39461 219.501782 146.798218 
C 214.90539 142.201826 209.448303 138.555517 203.442828 136.067968 
C 197.437353 133.580418 191.00028 132.300005 184.5 132.300005 
C 177.99972 132.300005 171.562647 133.580418 165.557172 136.067968 
C 159.551697 138.555517 154.09461 142.201826 149.498218 146.798218 
C 144.901826 151.39461 141.255517 156.851697 138.767968 162.857172 
C 136.280418 168.862647 135.000005 175.29972 135.000005 181.8 
C 135.000005 188.30028 136.280418 194.737353 138.767968 200.742828 
C 141.255517 206.748303 144.901826 212.20539 149.498218 216.801782 
C 154.09461 221.398174 159.551697 225.044483 165.557172 227.532032 
C 171.562647 230.019582 177.99972 231.299995 184.5 231.299995 
C 191.00028 231.299995 197.437353 230.019582 203.442828 227.532032 
C 209.448303 225.044483 214.90539 221.398174 219.501782 216.801782 
C 224.098174 212.20539 227.744483 206.748303 230.232032 200.742828 
C 232.719582 194.737353 233.999995 188.30028 233.999995 181.8 
" clip-path="url(#p5cc19a8ba0)" style="fill: none; stroke: #b0b0b0; stroke-width: 0.8; stroke-linecap: square"/>
     </g>
    </g>
    <g id="ytick_4">
     <g id="line2d_12">
      <path d="M 250.5 181.8 
C 250.5 173.132959 248.792782 164.550195 245.476049 156.542893 
C 242.159316 148.535592 237.297571 141.259476 231.169048 135.130952 
C 225.040524 129.002429 217.764408 124.140684 209.757107 120.823951 
C 201.749805 117.507218 193.167041 115.8 184.5 115.8 
C 175.832959 115.8 167.250195 117.507218 159.242893 120.823951 
C 151.235592 124.140684 143.959476 129.002429 137.830952 135.130952 
C 131.702429 141.259476 126.840684 148.535592 123.523951 156.542893 
C 120.207218 164.550195 118.5 173.132959 118.5 181.8 
C 118.5 190.467041 120.207218 199.049805 123.523951 207.057107 
C 126.840684 215.064408 131.702429 222.340524 137.830952 228.469048 
C 143.959476 234.597571 151.235592 239.459316 159.242893 242.776049 
C 167.250195 246.092782 175.832959 247.8 184.5 247.8 
C 193.167041 247.8 201.749805 246.092782 209.757107 242.776049 
C 217.764408 239.459316 225.040524 234.597571 231.169048 228.469048 
C 237.297571 222.340524 242.159316 215.064408 245.476049 207.057107 
C 248.792782 199.049805 250.5 190.467041 250.5 181.8 
" clip-path="url(#p5cc19a8ba0)" style="fill: none; stroke: #b0b0b0; stroke-width: 0.8; stroke-linecap: square"/>
     </g>
    </g>
    <g id="ytick_5">
     <g id="line2d_13">
      <path d="M 267.000005 181.8 
C 267.000005 170.966199 264.865982 160.237742 260.720066 150.228615 
C 256.57415 140.219488 250.496967 131.124341 242.836313 123.463687 
C 235.175659 115.803033 226.080512 109.72585 216.071385 105.579934 
C 206.062258 101.434018 195.333801 99.299995 184.5 99.299995 
C 173.666199 99.299995 162.937742 101.434018 152.928615 105.579934 
C 142.919488 109.72585 133.824341 115.803033 126.163687 123.463687 
C 118.503033 131.124341 112.42585 140.219488 108.279934 150.228615 
C 104.134018 160.237742 101.999995 170.966199 101.999995 181.8 
C 101.999995 192.633801 104.134018 203.362258 108.279934 213.371385 
C 112.42585 223.380512 118.503033 232.475659 126.163687 240.136313 
C 133.824341 247.796967 142.919488 253.87415 152.928615 258.020066 
C 162.937742 262.165982 173.666199 264.300005 184.5 264.300005 
C 195.333801 264.300005 206.062258 262.165982 216.071385 258.020066 
C 226.080512 253.87415 235.175659 247.796967 242.836313 240.136313 
C 250.496967 232.475659 256.57415 223.380512 260.720066 213.371385 
C 264.865982 203.362258 267.000005 192.633801 267.000005 181.8 
" clip-path="url(#p5cc19a8ba0)" style="fill: none; stroke: #b0b0b0; stroke-width: 0.8; stroke-linecap: square"/>
     </g>
    </g>
    <g id="ytick_6">
     <g id="line2d_14">
      <path d="M 283.50001 181.8 
C 283.50001 168.799438 280.939183 155.92529 275.964083 143.914336 
C 270.988983 131.903383 263.696364 120.989207 254.503579 111.796421 
C 245.310793 102.603636 234.396617 95.311017 222.385664 90.335917 
C 210.37471 85.360817 197.500562 82.79999 184.5 82.79999 
C 171.499438 82.79999 158.62529 85.360817 146.614336 90.335917 
C 134.603383 95.311017 123.689207 102.603636 114.496421 111.796421 
C 105.303636 120.989207 98.011017 131.903383 93.035917 143.914336 
C 88.060817 155.92529 85.49999 168.799438 85.49999 181.8 
C 85.49999 194.800562 88.060817 207.67471 93.035917 219.685664 
C 98.011017 231.696617 105.303636 242.610793 114.496421 251.803579 
C 123.689207 260.996364 134.603383 268.288983 146.614336 273.264083 
C 158.62529 278.239183 171.499438 280.80001 184.5 280.80001 
C 197.500562 280.80001 210.37471 278.239183 222.385664 273.264083 
C 234.396617 268.288983 245.310793 260.996364 254.503579 251.803579 
C 263.696364 242.610793 270.988983 231.696617 275.964083 219.685664 
C 280.939183 207.67471 283.50001 194.800562 283.50001 181.8 
" clip-path="url(#p5cc19a8ba0)" style="fill: none; stroke: #b0b0b0; stroke-width: 0.8; stroke-linecap: square"/>
     </g>
    </g>
    <g id="ytick_7">
     <g id="line2d_15">
      <path d="M 300.000015 181.8 
C 300.000015 166.632677 297.012383 151.612837 291.2081 137.600058 
C 285.403817 123.587278 276.895761 110.854073 266.170844 100.129156 
C 255.445927 89.404239 242.712722 80.896183 228.699942 75.0919 
C 214.687163 69.287617 199.667323 66.299985 184.5 66.299985 
C 169.332677 66.299985 154.312837 69.287617 140.300058 75.0919 
C 126.287278 80.896183 113.554073 89.404239 102.829156 100.129156 
C 92.104239 110.854073 83.596183 123.587278 77.7919 137.600058 
C 71.987617 151.612837 68.999985 166.632677 68.999985 181.8 
C 68.999985 196.967323 71.987617 211.987163 77.7919 225.999942 
C 83.596183 240.012722 92.104239 252.745927 102.829156 263.470844 
C 113.554073 274.195761 126.287278 282.703817 140.300058 288.5081 
C 154.312837 294.312383 169.332677 297.300015 184.5 297.300015 
C 199.667323 297.300015 214.687163 294.312383 228.699942 288.5081 
C 242.712722 282.703817 255.445927 274.195761 266.170844 263.470844 
C 276.895761 252.745927 285.403817 240.012722 291.2081 225.999942 
C 297.012383 211.987163 300.000015 196.967323 300.000015 181.8 
" clip-path="url(#p5cc19a8ba0)" style="fill: none; stroke: #b0b0b0; stroke-width: 0.8; stroke-linecap: square"/>
     </g>
    </g>
    <g id="ytick_8">
     <g id="line2d_16">
      <path d="M 316.50002 181.8 
C 316.50002 164.465916 313.085584 147.300384 306.452117 131.285779 
C 299.81865 115.271174 290.095158 100.718939 277.83811 88.46189 
C 265.581061 76.204842 251.028826 66.48135 235.014221 59.847883 
C 218.999616 53.214416 201.834084 49.79998 184.5 49.79998 
C 167.165916 49.79998 150.000384 53.214416 133.985779 59.847883 
C 117.971174 66.48135 103.418939 76.204842 91.16189 88.46189 
C 78.904842 100.718939 69.18135 115.271174 62.547883 131.285779 
C 55.914416 147.300384 52.49998 164.465916 52.49998 181.8 
C 52.49998 199.134084 55.914416 216.299616 62.547883 232.314221 
C 69.18135 248.328826 78.904842 262.881061 91.16189 275.13811 
C 103.418939 287.395158 117.971174 297.11865 133.985779 303.752117 
C 150.000384 310.385584 167.165916 313.80002 184.5 313.80002 
C 201.834084 313.80002 218.999616 310.385584 235.014221 303.752117 
C 251.028826 297.11865 265.581061 287.395158 277.83811 275.13811 
C 290.095158 262.881061 299.81865 248.328826 306.452117 232.314221 
C 313.085584 216.299616 316.50002 199.134084 316.50002 181.8 
" clip-path="url(#p5cc19a8ba0)" style="fill: none; stroke: #b0b0b0; stroke-width: 0.8; stroke-linecap: square"/>
     </g>
    </g>
   </g>
   <g id="line2d_17">
    <path d="M 250.5 181.8 
L 256.705331 180.665141 
L 262.834573 179.337005 
L 268.82857 177.821173 
L 274.62942 176.126693 
L 280.181083 174.265953 
L 285.429962 172.254508 
L 290.325473 170.110867 
L 294.820559 167.856227 
L 298.099256 165.988374 
L 301.074055 164.07758 
L 303.726919 162.137611 
L 306.041886 160.182827 
L 308.005168 158.228059 
L 309.605243 156.288463 
L 310.832925 154.379384 
L 311.50512 152.976862 
L 311.961993 151.606624 
L 312.202341 150.275068 
L 312.225738 148.988487 
L 312.032531 147.753041 
L 311.623836 146.574723 
L 311.001535 145.459322 
L 310.168262 144.412397 
L 309.127392 143.439239 
L 307.883025 142.544847 
L 306.439967 141.733896 
L 304.216403 140.789842 
L 301.664282 140.010964 
L 298.800415 139.405164 
L 295.643459 138.978962 
L 292.213785 138.737413 
L 288.533321 138.684042 
L 284.6254 138.820785 
L 279.458156 139.25937 
L 274.024203 139.992308 
L 268.37579 141.012449 
L 262.5666 142.308557 
L 256.651159 143.865375 
L 250.684239 145.66374 
L 244.720269 147.680756 
L 238.812748 149.890009 
L 233.013682 152.261838 
L 226.268141 155.276554 
L 219.831977 158.417158 
L 213.780086 161.618147 
L 208.179802 164.81075 
L 202.294903 168.430242 
L 197.181763 171.827929 
L 192.357831 175.294859 
L 188.296411 178.471736 
L 185.026277 181.299152 
L 184.500115 181.799885 
L 185.486974 180.74147 
L 187.904342 177.910649 
L 191.105236 173.808484 
L 194.588318 168.949634 
L 197.995883 163.807804 
L 201.621188 157.896667 
L 204.815546 152.276329 
L 208.015373 146.207026 
L 211.152012 139.756427 
L 214.160123 132.999721 
L 216.524574 127.194027 
L 218.724894 121.282434 
L 220.731576 115.317035 
L 222.518378 109.351391 
L 224.062583 103.439961 
L 225.345222 97.63752 
L 226.351236 91.998565 
L 227.069592 86.576721 
L 227.493345 81.42415 
L 227.61818 77.529737 
L 227.552975 73.864278 
L 227.299765 70.451022 
L 226.862175 67.311804 
L 226.245352 64.466893 
L 225.455905 61.934835 
L 224.50182 59.732319 
L 223.683745 58.305618 
L 222.782606 57.078035 
L 221.803106 56.054318 
L 220.750268 55.238507 
L 219.629409 54.633917 
L 218.446106 54.243118 
L 217.206167 54.067929 
L 215.915601 54.109402 
L 214.580579 54.367821 
L 213.207406 54.842694 
L 211.802484 55.532755 
L 210.372278 56.435962 
L 208.437232 57.966843 
L 206.484146 59.862832 
L 204.528224 62.11284 
L 202.584367 64.7035 
L 200.667035 67.61925 
L 198.790114 70.842432 
L 196.966791 74.353407 
L 194.78176 79.113925 
L 192.721798 84.24471 
L 190.806385 89.696352 
L 189.052139 95.416248 
L 187.472577 101.349148 
L 186.077933 107.437732 
L 184.875013 113.623213 
L 183.8671 119.845954 
L 182.914371 127.27816 
L 182.234631 134.575286 
L 181.813438 141.637167 
L 181.629446 148.367538 
L 181.654845 154.675485 
L 181.903886 161.388958 
L 182.32957 167.293346 
L 182.942147 172.919646 
L 183.72944 178.095673 
L 184.5 181.8 
L 184.007087 180.203077 
L 182.687946 176.523799 
L 180.657784 171.564547 
L 178.11734 166.015061 
L 175.301771 160.417956 
L 171.929275 154.263541 
L 168.604335 148.649634 
L 164.896187 142.819358 
L 160.830258 136.866217 
L 156.4401 130.8844 
L 152.563509 125.945088 
L 148.517985 121.10369 
L 144.334397 116.411496 
L 140.046458 111.917612 
L 135.690359 107.66846 
L 131.304368 103.707296 
L 126.928393 100.073783 
L 122.603522 96.803599 
L 118.37154 93.928098 
L 115.081049 91.930004 
L 111.898253 90.213191 
L 108.844226 88.787089 
L 105.939581 87.659042 
L 103.204299 86.834282 
L 100.657568 86.315918 
L 98.317622 86.104937 
L 96.708716 86.147831 
L 95.232558 86.361812 
L 93.895489 86.745005 
L 92.703388 87.294905 
L 91.661645 88.008397 
L 90.775127 88.881776 
L 90.048161 89.910763 
L 89.484501 91.090533 
L 89.087313 92.415739 
L 88.85915 93.880542 
L 88.801943 95.478639 
L 88.916978 97.203293 
L 89.339291 99.687314 
L 90.068536 102.365693 
L 91.102268 105.219524 
L 92.435919 108.229057 
L 94.0628 111.373859 
L 95.974132 114.63298 
L 98.159072 117.985123 
L 101.255259 122.273388 
L 104.729438 126.631504 
L 108.547837 131.018008 
L 112.672542 135.392403 
L 117.061863 139.715626 
L 121.670745 143.950501 
L 126.45123 148.062152 
L 131.352945 152.018387 
L 137.321348 156.519891 
L 143.296269 160.711763 
L 149.183646 164.557502 
L 154.889544 168.028596 
L 161.194038 171.578207 
L 166.984863 174.573195 
L 172.80471 177.315167 
L 178.12259 179.559203 
L 182.555965 181.19157 
L 184.499528 181.799873 
L 183.173075 181.492276 
L 179.106835 180.744294 
L 173.8282 180.02282 
L 167.777224 179.445598 
L 161.541736 179.081338 
L 154.542322 178.919231 
L 148.029876 178.985961 
L 141.135922 179.275596 
L 133.954001 179.813048 
L 126.58235 180.616545 
L 120.367504 181.497629 
L 114.150993 182.573946 
L 107.992672 183.844525 
L 101.951953 185.304842 
L 96.087178 186.946879 
L 90.455009 188.759234 
L 85.109836 190.727281 
L 80.103203 192.833372 
L 75.483279 195.057087 
L 72.095675 196.905432 
L 69.004693 198.801699 
L 66.229118 200.732382 
L 63.785706 202.683326 
L 61.689069 204.639861 
L 59.951587 206.586938 
L 58.583331 208.509265 
L 57.804168 209.92551 
L 57.239435 211.312695 
L 56.890723 212.664385 
L 56.758845 213.974233 
L 56.843842 215.236007 
L 57.144981 216.443626 
L 57.660761 217.591195 
L 58.388924 218.673037 
L 59.326463 219.683723 
L 60.469638 220.618103 
L 61.813995 221.471337 
L 63.354381 222.238925 
L 65.703001 223.122048 
L 68.374098 223.836875 
L 71.350156 224.376013 
L 74.611855 224.733481 
L 78.138224 224.904792 
L 81.906788 224.887011 
L 85.893735 224.678807 
L 91.146369 224.151409 
L 96.650223 223.331373 
L 102.352555 222.227078 
L 108.199368 220.850975 
L 114.136 219.219507 
L 120.107719 217.352978 
L 126.060315 215.275364 
L 131.940677 213.014084 
L 138.829472 210.101362 
L 145.455649 207.026488 
L 151.740391 203.85255 
L 157.611827 200.64655 
L 163.854702 196.958903 
L 169.362263 193.436081 
L 174.669532 189.757572 
L 179.298752 186.259631 
L 182.962462 183.213408 
L 184.498846 181.801151 
L 183.597943 182.764413 
L 180.941269 185.878652 
L 177.692836 190.062232 
L 174.177927 194.990749 
L 170.751038 200.189728 
L 167.114542 206.153043 
L 163.917046 211.813178 
L 160.719901 217.91695 
L 157.59153 224.396026 
L 154.59695 231.174637 
L 152.247497 236.993212 
L 150.065265 242.912559 
L 148.079446 248.880412 
L 146.315942 254.843095 
L 144.797103 260.746091 
L 143.541515 266.534626 
L 142.563837 272.154263 
L 141.874696 277.551499 
L 141.480628 282.674346 
L 141.379604 286.541455 
L 141.468454 290.176633 
L 141.744941 293.556798 
L 142.205248 296.660302 
L 142.84404 299.467084 
L 143.65453 301.958823 
L 144.628568 304.11907 
L 145.460799 305.512944 
L 146.375334 306.70686 
L 147.367414 307.696187 
L 148.431966 308.477005 
L 149.563626 309.046122 
L 150.756778 309.401091 
L 152.005576 309.540222 
L 153.303984 309.46259 
L 154.645806 309.16804 
L 156.024717 308.657194 
L 157.434304 307.931446 
L 158.868092 306.992966 
L 160.806232 305.41592 
L 162.760498 303.475025 
L 164.715719 301.181658 
L 166.657041 298.549467 
L 168.570068 295.594281 
L 170.440995 292.334012 
L 172.25673 288.788537 
L 174.430207 283.988871 
L 176.476546 278.82372 
L 178.37654 273.342837 
L 180.113874 267.599116 
L 181.675348 261.648039 
L 183.051068 255.547101 
L 184.234577 249.355201 
L 185.222946 243.132029 
L 186.152549 235.707185 
L 186.810094 228.425881 
L 187.210612 221.388014 
L 187.376008 214.689456 
L 187.309916 207.423565 
L 187.017484 200.873929 
L 186.488741 194.414145 
L 185.774955 188.625649 
L 184.965539 183.889332 
L 184.500636 181.802361 
L 184.950406 183.267392 
L 186.223662 186.844621 
L 188.206925 191.722412 
L 190.702872 197.209947 
L 193.478596 202.762179 
L 196.81154 208.881286 
L 200.103659 214.472998 
L 203.78073 220.288794 
L 207.818016 226.235294 
L 212.182628 232.21831 
L 216.040747 237.164525 
L 220.070717 242.018053 
L 224.241971 246.727418 
L 228.521066 251.24327 
L 232.87204 255.518897 
L 237.256815 259.510707 
L 241.635624 263.178659 
L 245.967478 266.486661 
L 250.210639 269.402912 
L 253.513093 271.4354 
L 256.710512 273.187932 
L 259.781773 274.650818 
L 262.706198 275.816452 
L 265.463717 276.679336 
L 268.035036 277.236097 
L 270.40179 277.485482 
L 272.032174 277.47124 
L 273.530909 277.28566 
L 274.891581 276.930513 
L 276.10823 276.408198 
L 277.175386 275.721729 
L 278.08809 274.874716 
L 278.841924 273.871343 
L 279.433038 272.716346 
L 279.858166 271.414987 
L 280.11465 269.973024 
L 280.200457 268.396686 
L 280.114191 266.69264 
L 279.73031 264.234195 
L 279.039342 261.579096 
L 278.043464 258.746132 
L 276.746981 255.754957 
L 275.156316 252.625927 
L 273.27999 249.379936 
L 271.128588 246.038249 
L 268.071889 241.759271 
L 264.63406 237.406263 
L 260.848443 233.020756 
L 256.752551 228.643365 
L 252.387717 224.313317 
L 247.798677 220.067997 
L 243.033122 215.942528 
L 238.141205 211.969386 
L 232.17756 207.443967 
L 226.199598 203.224791 
L 220.301326 199.349006 
L 214.576747 195.845803 
L 208.240876 192.257062 
L 202.408851 189.222211 
L 196.530828 186.435204 
L 191.135064 184.143049 
L 186.592136 182.458393 
L 184.500945 181.800252 
L 185.952786 182.134507 
L 189.650222 182.816557 
L 194.83472 183.537742 
L 200.809622 184.12238 
L 206.98614 184.498595 
L 213.934986 184.6772 
L 220.411599 184.627724 
L 227.277258 184.357704 
L 234.438878 183.841696 
L 241.798559 183.060895 
L 248.009948 182.19925 
L 250.5 181.8 
L 250.5 181.8 
" clip-path="url(#p5cc19a8ba0)" style="fill: none; stroke: #1f77b4; stroke-width: 1.5; stroke-linecap: square"/>
   </g>
   <g id="patch_3">
    <path d="M 323.1 181.8 
C 323.1 163.599215 319.514842 145.575409 312.549703 128.760076 
C 305.584564 111.944743 295.374899 96.664899 282.505 83.795 
C 269.635101 70.925101 254.355257 60.715436 237.539924 53.750297 
C 220.724591 46.785158 202.700785 43.2 184.5 43.2 
C 166.299215 43.2 148.275409 46.785158 131.460076 53.750297 
C 114.644743 60.715436 99.364899 70.925101 86.495 83.795 
C 73.625101 96.664899 63.415436 111.944743 56.450297 128.760076 
C 49.485158 145.575409 45.9 163.599215 45.9 181.8 
C 45.9 200.000785 49.485158 218.024591 56.450297 234.839924 
C 63.415436 251.655257 73.625101 266.935101 86.495 279.805 
C 99.364899 292.674899 114.644743 302.884564 131.460076 309.849703 
C 148.275409 316.814842 166.299215 320.4 184.5 320.4 
C 202.700785 320.4 220.724591 316.814842 237.539924 309.849703 
C 254.355257 302.884564 269.635101 292.674899 282.505 279.805 
C 295.374899 266.935101 305.584564 251.655257 312.549703 234.839924 
C 319.514842 218.024591 323.1 200.000785 323.1 181.8 
" style="fill: none; stroke: #000000; stroke-width: 0.8; stroke-linejoin: miter; stroke-linecap: square"/>
   </g>
  </g>
 </g>
 <defs>
  <clipPath id="p5cc19a8ba0">
   <path d="M 323.1 181.8 
C 323.1 163.599215 319.514842 145.575409 312.549703 128.760076 
C 305.584564 111.944743 295.374899 96.664899 282.505 83.795 
C 269.635101 70.925101 254.355257 60.715436 237.539924 53.750297 
C 220.724591 46.785158 202.700785 43.2 184.5 43.2 
C 166.299215 43.2 148.275409 46.785158 131.460076 53.750297 
C 114.644743 60.715436 99.364899 70.925101 86.495 83.795 
C 73.625101 96.664899 63.415436 111.944743 56.450297 128.760076 
C 49.485158 145.575409 45.9 163.599215 45.9 181.8 
C 45.9 200.000785 49.485158 218.024591 56.450297 234.839924 
C 63.415436 251.655257 73.625101 266.935101 86.495 279.805 
C 99.364899 292.674899 114.644743 302.884564 131.460076 309.849703 
C 148.275409 316.814842 166.299215 320.4 184.5 320.4 
C 202.700785 320.4 220.724591 316.814842 237.539924 309.849703 
C 254.355257 302.884564 269.635101 292.674899 282.505 279.805 
C 295.374899 266.935101 305.584564 251.655257 312.549703 234.839924 
C 319.514842 218.024591 323.1 200.000785 323.1 181.8 
M 184.5 181.8 
C 184.5 181.8 184.5 181.8 184.5 181.8 
C 184.5 181.8 184.5 181.8 184.5 181.8 
C 184.5 181.8 184.5 181.8 184.5 181.8 
C 184.5 181.8 184.5 181.8 184.5 181.8 
C 184.5 181.8 184.5 181.8 184.5 181.8 
C 184.5 181.8 184.5 181.8 184.5 181.8 
C 184.5 181.8 184.5 181.8 184.5 181.8 
C 184.5 181.8 184.5 181.8 184.5 181.8 
C 184.5 181.8 184.5 181.8 184.5 181.8 
C 184.5 181.8 184.5 181.8 184.5 181.8 
C 184.5 181.8 184.5 181.8 184.5 181.8 
C 184.5 181.8 184.5 181.8 184.5 181.8 
C 184.5 181.8 184.5 181.8 184.5 181.8 
C 184.5 181.8 184.5 181.8 184.5 181.8 
C 184.5 181.8 184.5 181.8 184.5 181.8 
C 184.5 181.8 184.5 181.8 184.5 181.8 
z
"/>
  </clipPath>
 </defs>
</svg>
