<?xml version="1.0" encoding="utf-8" standalone="no"?>
<!DOCTYPE svg PUBLIC "-//W3C//DTD SVG 1.1//EN"
  "http://www.w3.org/Graphics/SVG/1.1/DTD/svg11.dtd">
<svg xmlns:xlink="http://www.w3.org/1999/xlink" width="360pt" height="360pt" viewBox="0 0 360 360" xmlns="http://www.w3.org/2000/svg" version="1.1">
 <metadata>
  <rdf:RDF xmlns:dc="http://purl.org/dc/elements/1.1/" xmlns:cc="http://creativecommons.org/ns#" xmlns:rdf="http://www.w3.org/1999/02/22-rdf-syntax-ns#">
   <cc:Work>
    <dc:type rdf:resource="http://purl.org/dc/dcmitype/StillImage"/>
    <dc:date>2025-11-29T13:33:05.336445</dc:date>
    <dc:format>image/svg+xml</dc:format>
    <dc:creator>
     <cc:Agent>
      <dc:title>Matplotlib v3.10.6, https://matplotlib.org/</dc:title>
     </cc:Agent>
    </dc:creator>
   </cc:Work>
  </rdf:RDF>
 </metadata>
 <defs>
  <style type="text/css">*{stroke-linejoin: round; stroke-linecap: butt}</style>
 </defs>
 <g id="figure_1">
  <g id="patch_1">
   <path d="M 0 360 
L 360 360 
L 360 0 
L 0 0 
z
" style="fill: #ffffff"/>
  </g>
  <g id="axes_1">
   <g id="patch_2">
    <path d="M 323.1 181.8 
C 323.1 163.599215 319.514842 145.575409 312.549703 128.760076 
C 305.584564 111.944743 295.374899 96.664899 282.505 83.795 
C 269.635101 70.925101 254.355257 60.715436 237.539924 53.750297 
C 220.724591 46.785158 202.700785 43.2 184.5 43.2 
C 166.299215 43.2 148.275409 46.785158 131.460076 53.750297 
C 114.644743 60.715436 99.364899 70.925101 86.495 83.795 
C 73.625101 96.664899 63.415436 111.944743 56.450297 128.760076 
C 49.485158 145.575409 45.9 163.599215 45.9 181.8 
C 45.9 200.000785 49.485158 218.024591 56.450297 234.839924 
C 63.415436 251.655257 73.625101 266.935101 86.495 279.805 
C 99.364899 292.674899 114.644743 302.884564 131.460076 309.849703 
C 148.275409 316.814842 166.299215 320.4 184.5 320.4 
C 202.700785 320.4 220.724591 316.814842 237.539924 309.849703 
C 254.355257 302.884564 269.635101 292.674899 282.505 279.805 
C 295.374899 266.935101 305.584564 251.655257 312.549703 234.839924 
C 319.514842 218.024591 323.1 200.000785 323.1 181.8 
M 184.5 181.8 
C 184.5 181.8 184.5 181.8 184.5 181.8 
C 184.5 181.8 184.5 181.8 184.5 181.8 
C 184.5 181.8 184.5 181.8 184.5 181.8 
C 184.5 181.8 184.5 181.8 184.5 181.8 
C 184.5 181.8 184.5 181.8 184.5 181.8 
C 184.5 181.8 184.5 181.8 184.5 181.8 
C 184.5 181.8 184.5 181.8 184.5 181.8 
C 184.5 181.8 184.5 181.8 184.5 181.8 
C 184.5 181.8 184.5 181.8 184.5 181.8 
C 184.5 181.8 184.5 181.8 184.5 181.8 
C 184.5 181.8 184.5 181.8 184.5 181.8 
C 184.5 181.8 184.5 181.8 184.5 181.8 
C 184.5 181.8 184.5 181.8 184.5 181.8 
C 184.5 181.8 184.5 181.8 184.5 181.8 
C 184.5 181.8 184.5 181.8 184.5 181.8 
C 184.5 181.8 184.5 181.8 184.5 181.8 
z
" style="fill: #ffffff"/>
   </g>
   <g id="matplotlib.axis_1">
    <g id="xtick_1">
     <g id="line2d_1">
      <path d="M 184.5 181.8 
L 323.1 181.8 
" clip-path="url(#p7714bc34ab)" style="fill: none; stroke: #b0b0b0; stroke-width: 0.8; stroke-linecap: square"/>
     </g>
     <g id="text_1">
      <!-- 0° -->
      <g transform="translate(331.41875 184.559375) scale(0.1 -0.1)">
       <defs>
        <path id="DejaVuSans-30" d="M 2034 4250 
Q 1547 4250 1301 3770 
Q 1056 3291 1056 2328 
Q 1056 1369 1301 889 
Q 1547 409 2034 409 
Q 2525 409 2770 889 
Q 3016 1369 3016 2328 
Q 3016 3291 2770 3770 
Q 2525 4250 2034 4250 
z
M 2034 4750 
Q 2819 4750 3233 4129 
Q 3647 3509 3647 2328 
Q 3647 1150 3233 529 
Q 2819 -91 2034 -91 
Q 1250 -91 836 529 
Q 422 1150 422 2328 
Q 422 3509 836 4129 
Q 1250 4750 2034 4750 
z
" transform="scale(0.015625)"/>
        <path id="DejaVuSans-b0" d="M 1600 4347 
Q 1350 4347 1178 4173 
Q 1006 4000 1006 3750 
Q 1006 3503 1178 3333 
Q 1350 3163 1600 3163 
Q 1850 3163 2022 3333 
Q 2194 3503 2194 3750 
Q 2194 3997 2020 4172 
Q 1847 4347 1600 4347 
z
M 1600 4750 
Q 1800 4750 1984 4673 
Q 2169 4597 2303 4453 
Q 2447 4313 2519 4134 
Q 2591 3956 2591 3750 
Q 2591 3338 2302 3052 
Q 2013 2766 1594 2766 
Q 1172 2766 890 3047 
Q 609 3328 609 3750 
Q 609 4169 896 4459 
Q 1184 4750 1600 4750 
z
" transform="scale(0.015625)"/>
       </defs>
       <use xlink:href="#DejaVuSans-30"/>
       <use xlink:href="#DejaVuSans-b0" transform="translate(63.623047 0)"/>
      </g>
     </g>
    </g>
    <g id="xtick_2">
     <g id="line2d_2">
      <path d="M 184.5 181.8 
L 282.505 83.795 
" clip-path="url(#p7714bc34ab)" style="fill: none; stroke: #b0b0b0; stroke-width: 0.8; stroke-linecap: square"/>
     </g>
     <g id="text_2">
      <!-- 45° -->
      <g transform="translate(283.541995 76.65488) scale(0.1 -0.1)">
       <defs>
        <path id="DejaVuSans-34" d="M 2419 4116 
L 825 1625 
L 2419 1625 
L 2419 4116 
z
M 2253 4666 
L 3047 4666 
L 3047 1625 
L 3713 1625 
L 3713 1100 
L 3047 1100 
L 3047 0 
L 2419 0 
L 2419 1100 
L 313 1100 
L 313 1709 
L 2253 4666 
z
" transform="scale(0.015625)"/>
        <path id="DejaVuSans-35" d="M 691 4666 
L 3169 4666 
L 3169 4134 
L 1269 4134 
L 1269 2991 
Q 1406 3038 1543 3061 
Q 1681 3084 1819 3084 
Q 2600 3084 3056 2656 
Q 3513 2228 3513 1497 
Q 3513 744 3044 326 
Q 2575 -91 1722 -91 
Q 1428 -91 1123 -41 
Q 819 9 494 109 
L 494 744 
Q 775 591 1075 516 
Q 1375 441 1709 441 
Q 2250 441 2565 725 
Q 2881 1009 2881 1497 
Q 2881 1984 2565 2268 
Q 2250 2553 1709 2553 
Q 1456 2553 1204 2497 
Q 953 2441 691 2322 
L 691 4666 
z
" transform="scale(0.015625)"/>
       </defs>
       <use xlink:href="#DejaVuSans-34"/>
       <use xlink:href="#DejaVuSans-35" transform="translate(63.623047 0)"/>
       <use xlink:href="#DejaVuSans-b0" transform="translate(127.246094 0)"/>
      </g>
     </g>
    </g>
    <g id="xtick_3">
     <g id="line2d_3">
      <path d="M 184.5 181.8 
L 184.5 43.2 
" clip-path="url(#p7714bc34ab)" style="fill: none; stroke: #b0b0b0; stroke-width: 0.8; stroke-linecap: square"/>
     </g>
     <g id="text_3">
      <!-- 90° -->
      <g transform="translate(175.6375 31.959375) scale(0.1 -0.1)">
       <defs>
        <path id="DejaVuSans-39" d="M 703 97 
L 703 672 
Q 941 559 1184 500 
Q 1428 441 1663 441 
Q 2288 441 2617 861 
Q 2947 1281 2994 2138 
Q 2813 1869 2534 1725 
Q 2256 1581 1919 1581 
Q 1219 1581 811 2004 
Q 403 2428 403 3163 
Q 403 3881 828 4315 
Q 1253 4750 1959 4750 
Q 2769 4750 3195 4129 
Q 3622 3509 3622 2328 
Q 3622 1225 3098 567 
Q 2575 -91 1691 -91 
Q 1453 -91 1209 -44 
Q 966 3 703 97 
z
M 1959 2075 
Q 2384 2075 2632 2365 
Q 2881 2656 2881 3163 
Q 2881 3666 2632 3958 
Q 2384 4250 1959 4250 
Q 1534 4250 1286 3958 
Q 1038 3666 1038 3163 
Q 1038 2656 1286 2365 
Q 1534 2075 1959 2075 
z
" transform="scale(0.015625)"/>
       </defs>
       <use xlink:href="#DejaVuSans-39"/>
       <use xlink:href="#DejaVuSans-30" transform="translate(63.623047 0)"/>
       <use xlink:href="#DejaVuSans-b0" transform="translate(127.246094 0)"/>
      </g>
     </g>
    </g>
    <g id="xtick_4">
     <g id="line2d_4">
      <path d="M 184.5 181.8 
L 86.495 83.795 
" clip-path="url(#p7714bc34ab)" style="fill: none; stroke: #b0b0b0; stroke-width: 0.8; stroke-linecap: square"/>
     </g>
     <g id="text_4">
      <!-- 135° -->
      <g transform="translate(64.551755 76.65488) scale(0.1 -0.1)">
       <defs>
        <path id="DejaVuSans-31" d="M 794 531 
L 1825 531 
L 1825 4091 
L 703 3866 
L 703 4441 
L 1819 4666 
L 2450 4666 
L 2450 531 
L 3481 531 
L 3481 0 
L 794 0 
L 794 531 
z
" transform="scale(0.015625)"/>
        <path id="DejaVuSans-33" d="M 2597 2516 
Q 3050 2419 3304 2112 
Q 3559 1806 3559 1356 
Q 3559 666 3084 287 
Q 2609 -91 1734 -91 
Q 1441 -91 1130 -33 
Q 819 25 488 141 
L 488 750 
Q 750 597 1062 519 
Q 1375 441 1716 441 
Q 2309 441 2620 675 
Q 2931 909 2931 1356 
Q 2931 1769 2642 2001 
Q 2353 2234 1838 2234 
L 1294 2234 
L 1294 2753 
L 1863 2753 
Q 2328 2753 2575 2939 
Q 2822 3125 2822 3475 
Q 2822 3834 2567 4026 
Q 2313 4219 1838 4219 
Q 1578 4219 1281 4162 
Q 984 4106 628 3988 
L 628 4550 
Q 988 4650 1302 4700 
Q 1616 4750 1894 4750 
Q 2613 4750 3031 4423 
Q 3450 4097 3450 3541 
Q 3450 3153 3228 2886 
Q 3006 2619 2597 2516 
z
" transform="scale(0.015625)"/>
       </defs>
       <use xlink:href="#DejaVuSans-31"/>
       <use xlink:href="#DejaVuSans-33" transform="translate(63.623047 0)"/>
       <use xlink:href="#DejaVuSans-35" transform="translate(127.246094 0)"/>
       <use xlink:href="#DejaVuSans-b0" transform="translate(190.869141 0)"/>
      </g>
     </g>
    </g>
    <g id="xtick_5">
     <g id="line2d_5">
      <path d="M 184.5 181.8 
L 45.9 181.8 
" clip-path="url(#p7714bc34ab)" style="fill: none; stroke: #b0b0b0; stroke-width: 0.8; stroke-linecap: square"/>
     </g>
     <g id="text_5">
      <!-- 180° -->
      <g transform="translate(19.85625 184.559375) scale(0.1 -0.1)">
       <defs>
        <path id="DejaVuSans-38" d="M 2034 2216 
Q 1584 2216 1326 1975 
Q 1069 1734 1069 1313 
Q 1069 891 1326 650 
Q 1584 409 2034 409 
Q 2484 409 2743 651 
Q 3003 894 3003 1313 
Q 3003 1734 2745 1975 
Q 2488 2216 2034 2216 
z
M 1403 2484 
Q 997 2584 770 2862 
Q 544 3141 544 3541 
Q 544 4100 942 4425 
Q 1341 4750 2034 4750 
Q 2731 4750 3128 4425 
Q 3525 4100 3525 3541 
Q 3525 3141 3298 2862 
Q 3072 2584 2669 2484 
Q 3125 2378 3379 2068 
Q 3634 1759 3634 1313 
Q 3634 634 3220 271 
Q 2806 -91 2034 -91 
Q 1263 -91 848 271 
Q 434 634 434 1313 
Q 434 1759 690 2068 
Q 947 2378 1403 2484 
z
M 1172 3481 
Q 1172 3119 1398 2916 
Q 1625 2713 2034 2713 
Q 2441 2713 2670 2916 
Q 2900 3119 2900 3481 
Q 2900 3844 2670 4047 
Q 2441 4250 2034 4250 
Q 1625 4250 1398 4047 
Q 1172 3844 1172 3481 
z
" transform="scale(0.015625)"/>
       </defs>
       <use xlink:href="#DejaVuSans-31"/>
       <use xlink:href="#DejaVuSans-38" transform="translate(63.623047 0)"/>
       <use xlink:href="#DejaVuSans-30" transform="translate(127.246094 0)"/>
       <use xlink:href="#DejaVuSans-b0" transform="translate(190.869141 0)"/>
      </g>
     </g>
    </g>
    <g id="xtick_6">
     <g id="line2d_6">
      <path d="M 184.5 181.8 
L 86.495 279.805 
" clip-path="url(#p7714bc34ab)" style="fill: none; stroke: #b0b0b0; stroke-width: 0.8; stroke-linecap: square"/>
     </g>
     <g id="text_6">
      <!-- 225° -->
      <g transform="translate(64.551755 292.46387) scale(0.1 -0.1)">
       <defs>
        <path id="DejaVuSans-32" d="M 1228 531 
L 3431 531 
L 3431 0 
L 469 0 
L 469 531 
Q 828 903 1448 1529 
Q 2069 2156 2228 2338 
Q 2531 2678 2651 2914 
Q 2772 3150 2772 3378 
Q 2772 3750 2511 3984 
Q 2250 4219 1831 4219 
Q 1534 4219 1204 4116 
Q 875 4013 500 3803 
L 500 4441 
Q 881 4594 1212 4672 
Q 1544 4750 1819 4750 
Q 2544 4750 2975 4387 
Q 3406 4025 3406 3419 
Q 3406 3131 3298 2873 
Q 3191 2616 2906 2266 
Q 2828 2175 2409 1742 
Q 1991 1309 1228 531 
z
" transform="scale(0.015625)"/>
       </defs>
       <use xlink:href="#DejaVuSans-32"/>
       <use xlink:href="#DejaVuSans-32" transform="translate(63.623047 0)"/>
       <use xlink:href="#DejaVuSans-35" transform="translate(127.246094 0)"/>
       <use xlink:href="#DejaVuSans-b0" transform="translate(190.869141 0)"/>
      </g>
     </g>
    </g>
    <g id="xtick_7">
     <g id="line2d_7">
      <path d="M 184.5 181.8 
L 184.5 320.4 
" clip-path="url(#p7714bc34ab)" style="fill: none; stroke: #b0b0b0; stroke-width: 0.8; stroke-linecap: square"/>
     </g>
     <g id="text_7">
      <!-- 270° -->
      <g transform="translate(172.45625 337.159375) scale(0.1 -0.1)">
       <defs>
        <path id="DejaVuSans-37" d="M 525 4666 
L 3525 4666 
L 3525 4397 
L 1831 0 
L 1172 0 
L 2766 4134 
L 525 4134 
L 525 4666 
z
" transform="scale(0.015625)"/>
       </defs>
       <use xlink:href="#DejaVuSans-32"/>
       <use xlink:href="#DejaVuSans-37" transform="translate(63.623047 0)"/>
       <use xlink:href="#DejaVuSans-30" transform="translate(127.246094 0)"/>
       <use xlink:href="#DejaVuSans-b0" transform="translate(190.869141 0)"/>
      </g>
     </g>
    </g>
    <g id="xtick_8">
     <g id="line2d_8">
      <path d="M 184.5 181.8 
L 282.505 279.805 
" clip-path="url(#p7714bc34ab)" style="fill: none; stroke: #b0b0b0; stroke-width: 0.8; stroke-linecap: square"/>
     </g>
     <g id="text_8">
      <!-- 315° -->
      <g transform="translate(280.360745 292.46387) scale(0.1 -0.1)">
       <use xlink:href="#DejaVuSans-33"/>
       <use xlink:href="#DejaVuSans-31" transform="translate(63.623047 0)"/>
       <use xlink:href="#DejaVuSans-35" transform="translate(127.246094 0)"/>
       <use xlink:href="#DejaVuSans-b0" transform="translate(190.869141 0)"/>
      </g>
     </g>
    </g>
   </g>
   <g id="matplotlib.axis_2">
    <g id="ytick_1">
     <g id="line2d_9">
      <path d="M 200.999982 181.8 
C 200.999982 179.633242 200.573178 177.487553 199.743996 175.48573 
C 198.914814 173.483907 197.699379 171.66488 196.167249 170.132751 
C 194.63512 168.600621 192.816093 167.385186 190.81427 166.556004 
C 188.812447 165.726822 186.666758 165.300018 184.5 165.300018 
C 182.333242 165.300018 180.187553 165.726822 178.18573 166.556004 
C 176.183907 167.385186 174.36488 168.600621 172.832751 170.132751 
C 171.300621 171.66488 170.085186 173.483907 169.256004 175.48573 
C 168.426822 177.487553 168.000018 179.633242 168.000018 181.8 
C 168.000018 183.966758 168.426822 186.112447 169.256004 188.11427 
C 170.085186 190.116093 171.300621 191.93512 172.832751 193.467249 
C 174.36488 194.999379 176.183907 196.214814 178.18573 197.043996 
C 180.187553 197.873178 182.333242 198.299982 184.5 198.299982 
C 186.666758 198.299982 188.812447 197.873178 190.81427 197.043996 
C 192.816093 196.214814 194.63512 194.999379 196.167249 193.467249 
C 197.699379 191.93512 198.914814 190.116093 199.743996 188.11427 
C 200.573178 186.112447 200.999982 183.966758 200.999982 181.8 
" clip-path="url(#p7714bc34ab)" style="fill: none; stroke: #b0b0b0; stroke-width: 0.8; stroke-linecap: square"/>
     </g>
    </g>
    <g id="ytick_2">
     <g id="line2d_10">
      <path d="M 217.499985 181.8 
C 217.499985 177.466482 216.646377 173.175101 214.988011 169.171452 
C 213.329645 165.167803 210.898774 161.529747 207.834513 158.465487 
C 204.770253 155.401226 201.132197 152.970355 197.128548 151.311989 
C 193.124899 149.653623 188.833518 148.800015 184.5 148.800015 
C 180.166482 148.800015 175.875101 149.653623 171.871452 151.311989 
C 167.867803 152.970355 164.229747 155.401226 161.165487 158.465487 
C 158.101226 161.529747 155.670355 165.167803 154.011989 169.171452 
C 152.353623 173.175101 151.500015 177.466482 151.500015 181.8 
C 151.500015 186.133518 152.353623 190.424899 154.011989 194.428548 
C 155.670355 198.432197 158.101226 202.070253 161.165487 205.134513 
C 164.229747 208.198774 167.867803 210.629645 171.871452 212.288011 
C 175.875101 213.946377 180.166482 214.799985 184.5 214.799985 
C 188.833518 214.799985 193.124899 213.946377 197.128548 212.288011 
C 201.132197 210.629645 204.770253 208.198774 207.834513 205.134513 
C 210.898774 202.070253 213.329645 198.432197 214.988011 194.428548 
C 216.646377 190.424899 217.499985 186.133518 217.499985 181.8 
" clip-path="url(#p7714bc34ab)" style="fill: none; stroke: #b0b0b0; stroke-width: 0.8; stroke-linecap: square"/>
     </g>
    </g>
    <g id="ytick_3">
     <g id="line2d_11">
      <path d="M 233.999988 181.8 
C 233.999988 175.299721 232.719575 168.862649 230.232026 162.857175 
C 227.744477 156.8517 224.098169 151.394614 219.501777 146.798223 
C 214.905386 142.201831 209.4483 138.555523 203.442825 136.067974 
C 197.437351 133.580425 191.000279 132.300012 184.5 132.300012 
C 177.999721 132.300012 171.562649 133.580425 165.557175 136.067974 
C 159.5517 138.555523 154.094614 142.201831 149.498223 146.798223 
C 144.901831 151.394614 141.255523 156.8517 138.767974 162.857175 
C 136.280425 168.862649 135.000012 175.299721 135.000012 181.8 
C 135.000012 188.300279 136.280425 194.737351 138.767974 200.742825 
C 141.255523 206.7483 144.901831 212.205386 149.498223 216.801777 
C 154.094614 221.398169 159.5517 225.044477 165.557175 227.532026 
C 171.562649 230.019575 177.999721 231.299988 184.5 231.299988 
C 191.000279 231.299988 197.437351 230.019575 203.442825 227.532026 
C 209.4483 225.044477 214.905386 221.398169 219.501777 216.801777 
C 224.098169 212.205386 227.744477 206.7483 230.232026 200.742825 
C 232.719575 194.737351 233.999988 188.300279 233.999988 181.8 
" clip-path="url(#p7714bc34ab)" style="fill: none; stroke: #b0b0b0; stroke-width: 0.8; stroke-linecap: square"/>
     </g>
    </g>
    <g id="ytick_4">
     <g id="line2d_12">
      <path d="M 250.499991 181.8 
C 250.499991 173.132961 248.792773 164.550197 245.476041 156.542897 
C 242.159308 148.535597 237.297563 141.259481 231.169041 135.130959 
C 225.040519 129.002437 217.764403 124.140692 209.757103 120.823959 
C 201.749803 117.507227 193.167039 115.800009 184.5 115.800009 
C 175.832961 115.800009 167.250197 117.507227 159.242897 120.823959 
C 151.235597 124.140692 143.959481 129.002437 137.830959 135.130959 
C 131.702437 141.259481 126.840692 148.535597 123.523959 156.542897 
C 120.207227 164.550197 118.500009 173.132961 118.500009 181.8 
C 118.500009 190.467039 120.207227 199.049803 123.523959 207.057103 
C 126.840692 215.064403 131.702437 222.340519 137.830959 228.469041 
C 143.959481 234.597563 151.235597 239.459308 159.242897 242.776041 
C 167.250197 246.092773 175.832961 247.799991 184.5 247.799991 
C 193.167039 247.799991 201.749803 246.092773 209.757103 242.776041 
C 217.764403 239.459308 225.040519 234.597563 231.169041 228.469041 
C 237.297563 222.340519 242.159308 215.064403 245.476041 207.057103 
C 248.792773 199.049803 250.499991 190.467039 250.499991 181.8 
" clip-path="url(#p7714bc34ab)" style="fill: none; stroke: #b0b0b0; stroke-width: 0.8; stroke-linecap: square"/>
     </g>
    </g>
    <g id="ytick_5">
     <g id="line2d_13">
      <path d="M 266.999994 181.8 
C 266.999994 170.9662 264.865971 160.237745 260.720056 150.228619 
C 256.57414 140.219493 250.496958 131.124348 242.836305 123.463695 
C 235.175652 115.803042 226.080507 109.72586 216.071381 105.579944 
C 206.062255 101.434029 195.3338 99.300006 184.5 99.300006 
C 173.6662 99.300006 162.937745 101.434029 152.928619 105.579944 
C 142.919493 109.72586 133.824348 115.803042 126.163695 123.463695 
C 118.503042 131.124348 112.42586 140.219493 108.279944 150.228619 
C 104.134029 160.237745 102.000006 170.9662 102.000006 181.8 
C 102.000006 192.6338 104.134029 203.362255 108.279944 213.371381 
C 112.42586 223.380507 118.503042 232.475652 126.163695 240.136305 
C 133.824348 247.796958 142.919493 253.87414 152.928619 258.020056 
C 162.937745 262.165971 173.6662 264.299994 184.5 264.299994 
C 195.3338 264.299994 206.062255 262.165971 216.071381 258.020056 
C 226.080507 253.87414 235.175652 247.796958 242.836305 240.136305 
C 250.496958 232.475652 256.57414 223.380507 260.720056 213.371381 
C 264.865971 203.362255 266.999994 192.6338 266.999994 181.8 
" clip-path="url(#p7714bc34ab)" style="fill: none; stroke: #b0b0b0; stroke-width: 0.8; stroke-linecap: square"/>
     </g>
    </g>
    <g id="ytick_6">
     <g id="line2d_14">
      <path d="M 283.499997 181.8 
C 283.499997 168.79944 280.93917 155.925293 275.964071 143.914341 
C 270.988971 131.90339 263.696353 120.989216 254.503569 111.796431 
C 245.310784 102.603647 234.39661 95.311029 222.385659 90.335929 
C 210.374707 85.36083 197.50056 82.800003 184.5 82.800003 
C 171.49944 82.800003 158.625293 85.36083 146.614341 90.335929 
C 134.60339 95.311029 123.689216 102.603647 114.496431 111.796431 
C 105.303647 120.989216 98.011029 131.90339 93.035929 143.914341 
C 88.06083 155.925293 85.500003 168.79944 85.500003 181.8 
C 85.500003 194.80056 88.06083 207.674707 93.035929 219.685659 
C 98.011029 231.69661 105.303647 242.610784 114.496431 251.803569 
C 123.689216 260.996353 134.60339 268.288971 146.614341 273.264071 
C 158.625293 278.23917 171.49944 280.799997 184.5 280.799997 
C 197.50056 280.799997 210.374707 278.23917 222.385659 273.264071 
C 234.39661 268.288971 245.310784 260.996353 254.503569 251.803569 
C 263.696353 242.610784 270.988971 231.69661 275.964071 219.685659 
C 280.93917 207.674707 283.499997 194.80056 283.499997 181.8 
" clip-path="url(#p7714bc34ab)" style="fill: none; stroke: #b0b0b0; stroke-width: 0.8; stroke-linecap: square"/>
     </g>
    </g>
    <g id="ytick_7">
     <g id="line2d_15">
      <path d="M 299.999999 181.8 
C 299.999999 166.632679 297.012368 151.612841 291.208085 137.600064 
C 285.403803 123.587286 276.895748 110.854083 266.170833 100.129167 
C 255.445917 89.404252 242.712714 80.896197 228.699936 75.091915 
C 214.687159 69.287632 199.667321 66.300001 184.5 66.300001 
C 169.332679 66.300001 154.312841 69.287632 140.300064 75.091915 
C 126.287286 80.896197 113.554083 89.404252 102.829167 100.129167 
C 92.104252 110.854083 83.596197 123.587286 77.791915 137.600064 
C 71.987632 151.612841 69.000001 166.632679 69.000001 181.8 
C 69.000001 196.967321 71.987632 211.987159 77.791915 225.999936 
C 83.596197 240.012714 92.104252 252.745917 102.829167 263.470833 
C 113.554083 274.195748 126.287286 282.703803 140.300064 288.508085 
C 154.312841 294.312368 169.332679 297.299999 184.5 297.299999 
C 199.667321 297.299999 214.687159 294.312368 228.699936 288.508085 
C 242.712714 282.703803 255.445917 274.195748 266.170833 263.470833 
C 276.895748 252.745917 285.403803 240.012714 291.208085 225.999936 
C 297.012368 211.987159 299.999999 196.967321 299.999999 181.8 
" clip-path="url(#p7714bc34ab)" style="fill: none; stroke: #b0b0b0; stroke-width: 0.8; stroke-linecap: square"/>
     </g>
    </g>
    <g id="ytick_8">
     <g id="line2d_16">
      <path d="M 316.500002 181.8 
C 316.500002 164.465919 313.085566 147.300389 306.4521 131.285786 
C 299.818635 115.271183 290.095143 100.71895 277.838097 88.461903 
C 265.58105 76.204857 251.028817 66.481365 235.014214 59.8479 
C 218.999611 53.214434 201.834081 49.799998 184.5 49.799998 
C 167.165919 49.799998 150.000389 53.214434 133.985786 59.8479 
C 117.971183 66.481365 103.41895 76.204857 91.161903 88.461903 
C 78.904857 100.71895 69.181365 115.271183 62.5479 131.285786 
C 55.914434 147.300389 52.499998 164.465919 52.499998 181.8 
C 52.499998 199.134081 55.914434 216.299611 62.5479 232.314214 
C 69.181365 248.328817 78.904857 262.88105 91.161903 275.138097 
C 103.41895 287.395143 117.971183 297.118635 133.985786 303.7521 
C 150.000389 310.385566 167.165919 313.800002 184.5 313.800002 
C 201.834081 313.800002 218.999611 310.385566 235.014214 303.7521 
C 251.028817 297.118635 265.58105 287.395143 277.838097 275.138097 
C 290.095143 262.88105 299.818635 248.328817 306.4521 232.314214 
C 313.085566 216.299611 316.500002 199.134081 316.500002 181.8 
" clip-path="url(#p7714bc34ab)" style="fill: none; stroke: #b0b0b0; stroke-width: 0.8; stroke-linecap: square"/>
     </g>
    </g>
   </g>
   <g id="line2d_17">
    <path d="M 250.499991 181.8 
L 255.801476 180.230961 
L 261.028734 178.430231 
L 266.139897 176.403401 
L 271.09391 174.159254 
L 275.850906 171.70968 
L 280.372592 169.069542 
L 284.622597 166.256518 
L 288.566819 163.290904 
L 292.173736 160.195392 
L 295.414698 156.994816 
L 298.264192 153.715875 
L 300.700066 150.386837 
L 302.703731 147.037214 
L 304.260318 143.697436 
L 305.358802 140.3985 
L 305.992091 137.17162 
L 306.133156 135.594926 
L 306.157064 134.047868 
L 306.064047 132.534247 
L 305.854584 131.057814 
L 305.529401 129.622254 
L 305.089464 128.231178 
L 304.535979 126.888109 
L 303.87039 125.596475 
L 303.094368 124.3596 
L 302.209813 123.180687 
L 301.218847 122.062818 
L 300.123805 121.008936 
L 298.92723 120.021842 
L 297.631868 119.104185 
L 296.240657 118.25845 
L 293.183367 116.791845 
L 289.782435 115.638419 
L 286.06748 114.811536 
L 282.070354 114.321351 
L 277.824811 114.174663 
L 273.366147 114.374801 
L 268.730848 114.921547 
L 263.956205 115.811098 
L 259.079941 117.036066 
L 254.139827 118.585513 
L 249.173306 120.445029 
L 244.217114 122.596845 
L 239.306925 125.019979 
L 234.476997 127.690424 
L 229.759841 130.581363 
L 225.185912 133.663421 
L 220.783322 136.904935 
L 216.577579 140.272263 
L 212.591359 143.730107 
L 208.844306 147.241854 
L 205.352866 150.769944 
L 202.130164 154.276234 
L 199.185903 157.722385 
L 195.304273 162.695534 
L 192.068684 167.321705 
L 189.468079 171.480714 
L 187.474663 175.060923 
L 185.684053 178.762379 
L 184.510599 181.76508 
L 184.500456 181.798435 
L 184.824808 180.404391 
L 185.320557 177.407035 
L 185.678524 174.088719 
L 185.918611 169.900345 
L 185.950617 164.90511 
L 185.691794 159.183891 
L 185.321147 155.013673 
L 184.769726 150.595836 
L 184.021273 145.965115 
L 183.062289 141.158387 
L 181.882209 136.214328 
L 180.47354 131.173047 
L 178.831966 126.075703 
L 176.956417 120.964121 
L 174.849098 115.880392 
L 172.515488 110.866478 
L 169.964291 105.963812 
L 167.20736 101.212912 
L 164.259583 96.652996 
L 161.138727 92.321618 
L 157.865261 88.254314 
L 154.462135 84.484278 
L 150.954541 81.042053 
L 147.369642 77.955255 
L 143.736277 75.248324 
L 140.084647 72.942308 
L 136.445985 71.054685 
L 132.852214 69.599213 
L 129.335589 68.58583 
L 125.928339 68.020578 
L 122.662306 67.905578 
L 121.092001 68.016515 
L 119.568582 68.23904 
L 118.095762 68.572326 
L 116.67716 69.015311 
L 115.316298 69.566699 
L 114.016583 70.224965 
L 112.781305 70.988363 
L 111.613618 71.854926 
L 110.516539 72.822476 
L 109.492936 73.888629 
L 108.545518 75.050803 
L 107.676826 76.306222 
L 106.88923 77.651927 
L 106.184917 79.084784 
L 105.033938 82.198592 
L 104.237505 85.619401 
L 103.805934 89.316751 
L 103.746097 93.258299 
L 104.061306 97.410166 
L 104.751237 101.73729 
L 105.811892 106.203804 
L 107.2356 110.773402 
L 109.011053 115.409721 
L 111.123385 120.07671 
L 113.554285 124.739004 
L 116.282149 129.362278 
L 119.282269 133.913588 
L 122.527046 138.361705 
L 125.986248 142.677415 
L 129.627284 146.833805 
L 133.415517 150.806514 
L 137.314583 154.573963 
L 141.286746 158.117547 
L 145.293261 161.421796 
L 149.294749 164.474501 
L 153.251579 167.266802 
L 157.124266 169.79324 
L 160.873849 172.05177 
L 166.184535 174.941099 
L 171.010411 177.249943 
L 175.238238 179.012813 
L 178.766646 180.279033 
L 182.234785 181.304605 
L 184.49112 181.798764 
L 183.463575 181.70198 
L 180.744175 181.610958 
L 177.634308 181.681298 
L 173.663599 181.970317 
L 168.902964 182.560474 
L 163.440209 183.524896 
L 159.458526 184.406768 
L 155.243946 185.497768 
L 150.832407 186.81017 
L 146.261713 188.353269 
L 141.571172 190.133239 
L 136.801219 192.153041 
L 131.993032 194.412353 
L 127.188134 196.907551 
L 122.427996 199.63171 
L 117.753649 202.574662 
L 113.205286 205.723075 
L 108.821888 209.060576 
L 104.640855 212.567906 
L 100.697656 216.223109 
L 97.025504 220.001753 
L 93.655044 223.877177 
L 90.614079 227.82077 
L 87.927324 231.802266 
L 85.616181 235.790065 
L 83.698567 239.751567 
L 82.188758 243.653524 
L 81.097287 247.462396 
L 80.430871 251.144717 
L 80.192378 254.667459 
L 80.380839 257.998402 
L 80.633834 259.582186 
L 80.991488 261.106483 
L 81.452628 262.567648 
L 82.015853 263.962153 
L 82.679547 265.286596 
L 83.441875 266.537709 
L 84.300797 267.71237 
L 85.254066 268.807609 
L 86.299245 269.820622 
L 87.433703 270.748772 
L 88.654631 271.589604 
L 89.959048 272.340849 
L 91.343808 273.000431 
L 92.805608 273.566473 
L 94.341003 274.037305 
L 97.618118 274.687722 
L 101.145038 274.942639 
L 104.889967 274.796602 
L 108.819777 274.247848 
L 112.900365 273.298361 
L 117.097023 271.95389 
L 121.374807 270.223933 
L 125.698908 268.121678 
L 130.03502 265.663905 
L 134.349694 262.870857 
L 138.610689 259.766065 
L 142.787297 256.376148 
L 146.850661 252.730571 
L 150.774059 248.861382 
L 154.533173 244.802916 
L 158.106317 240.591473 
L 161.474654 236.264978 
L 164.622357 231.862623 
L 167.536756 227.424493 
L 170.208438 222.99118 
L 172.631313 218.603394 
L 174.802642 214.301568 
L 176.723031 210.125468 
L 178.396383 206.113801 
L 180.459638 200.485676 
L 182.020726 195.428834 
L 183.130991 191.049451 
L 184.022624 186.421093 
L 184.451284 182.815558 
L 184.499973 181.806828 
L 184.528496 182.510671 
L 184.76132 184.900676 
L 185.412755 188.887216 
L 186.293478 192.837118 
L 187.589802 197.518993 
L 189.360625 202.834409 
L 190.827778 206.675399 
L 192.536059 210.712875 
L 194.492134 214.909335 
L 196.699439 219.225896 
L 199.158104 223.622672 
L 201.86491 228.059167 
L 204.813292 232.494664 
L 207.993365 236.888618 
L 211.392 241.201051 
L 214.992934 245.392929 
L 218.776907 249.426536 
L 222.721849 253.265832 
L 226.803079 256.876791 
L 230.993556 260.227716 
L 235.264138 263.289533 
L 239.58388 266.036051 
L 243.920348 268.444196 
L 248.239949 270.49421 
L 252.508282 272.16982 
L 256.690496 273.458359 
L 260.75166 274.350863 
L 264.657127 274.842119 
L 268.372913 274.930683 
L 271.866058 274.618847 
L 275.104984 273.912586 
L 276.619712 273.414393 
L 278.059847 272.821446 
L 279.421981 272.135474 
L 280.702858 271.358412 
L 281.899378 270.492392 
L 283.008606 269.539737 
L 284.027785 268.502955 
L 284.954339 267.38473 
L 285.785882 266.187916 
L 286.520229 264.915527 
L 287.155395 263.570726 
L 287.689609 262.156822 
L 288.121314 260.677254 
L 288.449176 259.135584 
L 288.672084 257.535488 
L 288.799755 254.175213 
L 288.500101 250.627678 
L 287.772698 246.925242 
L 286.620963 243.101018 
L 285.052163 239.188504 
L 283.07737 235.221221 
L 280.711389 231.232346 
L 277.972642 227.254357 
L 274.883019 223.318685 
L 271.467689 219.455377 
L 267.754876 215.692784 
L 263.775612 212.057265 
L 259.563449 208.572913 
L 255.154154 205.261311 
L 250.585374 202.141317 
L 245.896287 199.228877 
L 241.127229 196.536879 
L 236.319315 194.075032 
L 231.514052 191.849791 
L 226.752936 189.864308 
L 222.077062 188.118434 
L 217.526729 186.608744 
L 213.141052 185.32861 
L 206.952914 183.816734 
L 201.337624 182.753639 
L 196.401258 182.080609 
L 192.235379 181.727057 
L 188.006615 181.61245 
L 184.7402 181.771173 
L 184.500789 181.799888 
L 185.748312 181.551568 
L 188.56535 180.803193 
L 191.653943 179.79345 
L 195.493655 178.32131 
L 199.99095 176.32966 
L 205.039071 173.775351 
L 208.652814 171.74551 
L 212.422339 169.448712 
L 216.309447 166.884089 
L 220.275083 164.054174 
L 224.279713 160.964913 
L 228.283721 157.625648 
L 232.247795 154.049062 
L 236.13331 150.251079 
L 239.902704 146.250742 
L 243.519841 142.070038 
L 246.950354 137.733708 
L 250.161972 133.269011 
L 253.124823 128.705465 
L 255.811707 124.074564 
L 258.198345 119.40947 
L 260.263593 114.744677 
L 261.989625 110.115671 
L 263.362076 105.55857 
L 264.370155 101.109753 
L 265.006713 96.805483 
L 265.268278 92.681539 
L 265.15505 88.772834 
L 264.670853 85.11305 
L 263.82306 81.734282 
L 262.622469 78.666693 
L 261.894148 77.258406 
L 261.083151 75.938185 
L 260.191717 74.709114 
L 259.222264 73.574099 
L 258.177385 72.535863 
L 257.059833 71.596932 
L 255.87252 70.759632 
L 254.618503 70.026081 
L 253.300977 69.398183 
L 251.923265 68.877622 
L 250.488808 68.465857 
L 249.001157 68.164118 
L 247.46396 67.973402 
L 245.880953 67.894466 
L 244.255947 67.927829 
L 240.895507 68.332317 
L 237.414257 69.186144 
L 233.844329 70.484666 
L 230.218011 72.219332 
L 226.567383 74.377738 
L 222.923967 76.943719 
L 219.31837 79.897484 
L 215.779956 83.215781 
L 212.33652 86.872102 
L 209.01399 90.836918 
L 205.836147 95.077948 
L 202.824372 99.560457 
L 199.99742 104.247572 
L 197.371225 109.100627 
L 194.95874 114.079527 
L 192.769806 119.14312 
L 190.811058 124.249588 
L 189.085875 129.356841 
L 187.594354 134.422912 
L 186.333331 139.40636 
L 185.29644 144.266657 
L 184.474198 148.964572 
L 183.854136 153.462545 
L 183.268946 159.757508 
L 183.041137 165.413523 
L 183.09666 170.335132 
L 183.351957 174.443075 
L 183.845469 178.551166 
L 184.449851 181.61507 
L 184.499821 181.799392 
L 184.206014 180.943994 
L 183.218439 178.542523 
L 181.914936 175.816726 
L 180.060239 172.389608 
L 177.607332 168.358658 
L 174.524573 163.83309 
L 170.796845 158.9313 
L 167.95372 155.515895 
L 164.829527 152.026684 
L 161.432734 148.501982 
L 157.775253 144.980048 
L 153.872358 141.498693 
L 149.742566 138.094911 
L 145.407493 134.804508 
L 140.89166 131.661757 
L 136.222276 128.699064 
L 131.428992 125.946654 
L 126.543618 123.432288 
L 121.599828 121.181003 
L 116.632826 119.214884 
L 111.679011 117.552866 
L 106.775617 116.210575 
L 101.960339 115.200199 
L 97.270963 114.530399 
L 92.744977 114.206262 
L 88.419197 114.229283 
L 84.329389 114.597392 
L 80.509896 115.30502 
L 76.99329 116.343195 
L 73.810024 117.699679 
L 70.988116 119.359139 
L 69.720687 120.296897 
L 68.55285 121.30335 
L 67.487293 122.375806 
L 66.526502 123.511423 
L 65.67275 124.707216 
L 64.928096 125.960069 
L 64.294375 127.266742 
L 63.773196 128.623882 
L 63.365933 130.028031 
L 63.073725 131.475641 
L 62.897469 132.963078 
L 62.837821 134.486638 
L 62.89519 136.042554 
L 63.069736 137.62701 
L 63.361374 139.236151 
L 64.294325 142.512936 
L 65.688367 145.841705 
L 67.533871 149.191342 
L 69.817328 152.531175 
L 72.521462 155.831324 
L 75.625373 159.06304 
L 79.104723 162.199029 
L 82.931954 165.213757 
L 87.076539 168.083737 
L 91.50526 170.78779 
L 96.182521 173.307278 
L 101.070673 175.626314 
L 106.13037 177.73193 
L 111.320938 179.614219 
L 116.600754 181.266443 
L 121.927641 182.685097 
L 127.259264 183.869947 
L 132.55353 184.82402 
L 137.76898 185.553565 
L 142.865183 186.067971 
L 147.803115 186.379657 
L 152.545518 186.503918 
L 157.057253 186.458748 
L 163.321569 186.118718 
L 168.895449 185.522338 
L 173.696246 184.757124 
L 177.658812 183.917518 
L 181.560936 182.853487 
L 184.494244 181.802655 
L 183.601752 182.263296 
L 181.286585 183.640705 
L 178.722614 185.367608 
L 175.550546 187.74303 
L 171.874396 190.798357 
L 167.807394 194.54801 
L 164.93787 197.432637 
L 161.984291 200.619342 
L 158.983521 204.099138 
L 155.972393 207.859518 
L 152.987334 211.884536 
L 150.063992 216.154925 
L 147.236878 220.648254 
L 144.539015 225.339116 
L 142.001615 230.199351 
L 139.653768 235.198299 
L 137.522164 240.303081 
L 135.630832 245.478905 
L 134.000921 250.689395 
L 132.650503 255.896938 
L 131.594413 261.063048 
L 130.844132 266.148738 
L 130.407693 271.114903 
L 130.289636 275.922707 
L 130.490998 280.533965 
L 131.009336 284.911529 
L 131.838796 289.019656 
L 132.97021 292.824374 
L 134.391237 296.293823 
L 136.086528 299.398585 
L 138.037933 302.111982 
L 139.103296 303.314402 
L 140.224731 304.41036 
L 141.399287 305.39741 
L 142.623889 306.273328 
L 143.895342 307.036111 
L 145.210345 307.683986 
L 146.565497 308.215414 
L 147.957312 308.629096 
L 149.382223 308.923976 
L 150.8366 309.099241 
L 152.316754 309.154328 
L 153.818951 309.088923 
L 155.339426 308.902965 
L 156.874387 308.596644 
L 158.420032 308.170402 
L 161.528173 306.96118 
L 164.633615 305.283843 
L 167.706638 303.150867 
L 170.718386 300.578559 
L 173.641198 297.586907 
L 176.44893 294.199402 
L 179.117257 290.442824 
L 181.623952 286.346991 
L 183.949146 281.944485 
L 186.075558 277.270341 
L 187.988691 272.361725 
L 189.677008 267.257579 
L 191.132059 261.998253 
L 192.348586 256.625128 
L 193.324586 251.180222 
L 194.061338 245.705793 
L 194.56339 240.243945 
L 194.838515 234.836228 
L 194.897626 229.523249 
L 194.754652 224.344297 
L 194.426391 219.336971 
L 193.932316 214.536838 
L 193.294357 209.977106 
L 192.536661 205.688319 
L 191.233119 199.822694 
L 189.813864 194.707624 
L 188.379394 190.405064 
L 187.033487 186.958248 
L 185.556821 183.731977 
L 184.505123 181.808054 
L 185.153389 182.712213 
L 186.915413 184.876721 
L 189.045403 187.2122 
L 191.905755 190.049225 
L 195.511344 193.279754 
L 199.8589 196.789248 
L 203.159502 199.225565 
L 206.769601 201.69796 
L 210.674641 204.171267 
L 214.856602 206.610893 
L 219.294135 208.983179 
L 223.962739 211.255749 
L 228.834966 213.397842 
L 233.880666 215.380626 
L 239.067255 217.177489 
L 244.360009 218.764303 
L 249.722393 220.119659 
L 255.116393 221.225074 
L 260.502884 222.065163 
L 265.841996 222.627773 
L 271.093501 222.904091 
L 276.217198 222.888702 
L 281.173308 222.579621 
L 285.922857 221.978277 
L 290.42806 221.08947 
L 294.652695 219.921281 
L 298.56246 218.484955 
L 302.125313 216.794743 
L 305.311794 214.867714 
L 308.095317 212.723538 
L 310.452441 210.384239 
L 311.464697 209.148877 
L 312.363106 207.873921 
L 313.145723 206.562661 
L 313.810838 205.21848 
L 314.356979 203.844841 
L 314.782919 202.445282 
L 315.087676 201.023399 
L 315.270521 199.582841 
L 315.330972 198.127296 
L 315.268801 196.660479 
L 315.084037 195.186125 
L 314.776959 193.707972 
L 314.348101 192.229758 
L 313.798249 190.755202 
L 313.128442 189.287997 
L 311.434347 186.390218 
L 309.27903 183.565022 
L 306.679506 180.839905 
L 303.656439 178.240924 
L 300.233943 175.792395 
L 296.439354 173.516601 
L 292.302974 171.433528 
L 287.857776 169.560624 
L 283.139098 167.912588 
L 278.184298 166.501187 
L 273.032399 165.335116 
L 267.723722 164.419877 
L 262.299496 163.757704 
L 256.801468 163.347526 
L 251.271506 163.18496 
L 245.751207 163.262346 
L 240.281498 163.56882 
L 234.902259 164.090421 
L 229.651946 164.81023 
L 224.567239 165.708553 
L 219.682701 166.763126 
L 215.030467 167.949352 
L 210.639951 169.24057 
L 204.601862 171.311641 
L 199.28687 173.452814 
L 194.75286 175.557418 
L 191.039109 177.516588 
L 187.395351 179.715809 
L 184.698175 181.636464 
L 184.501426 181.798769 
L 185.392297 180.940063 
L 187.341658 178.809363 
L 189.384604 176.307192 
L 191.811753 173.010095 
L 194.513646 168.920187 
L 197.377194 164.058478 
L 199.319729 160.407451 
L 201.25006 156.447034 
L 203.135555 152.197038 
L 204.944685 147.680604 
L 206.647356 142.924009 
L 208.215228 137.95644 
L 209.622015 132.809739 
L 210.843755 127.518113 
L 211.859055 122.117826 
L 212.649311 116.646864 
L 213.198886 111.144581 
L 213.495268 105.651328 
L 213.529177 100.208077 
L 213.294651 94.856026 
L 212.789084 89.636209 
L 212.013229 84.589102 
L 210.971167 79.754232 
L 209.670238 75.169799 
L 208.120929 70.872301 
L 206.336739 66.896184 
L 204.334001 63.273506 
L 202.131676 60.033623 
L 199.751119 57.202903 
L 197.215819 54.80447 
L 194.551111 52.857976 
L 193.178578 52.059351 
L 191.783876 51.37941 
L 190.370552 50.819555 
L 188.942211 50.38094 
L 187.502501 50.064467 
L 186.055104 49.870792 
L 184.603724 49.800312 
L 183.152079 49.853175 
L 181.703885 50.029269 
L 180.262851 50.328233 
L 178.832662 50.749449 
L 177.416971 51.292049 
L 176.01939 51.954915 
L 174.643475 52.73668 
L 173.292718 53.635737 
L 170.680262 55.778094 
L 168.208279 58.364407 
L 165.901349 61.373509 
L 163.78208 64.780856 
L 161.870832 68.558767 
L 160.185467 72.67669 
L 158.741125 77.101506 
L 157.550036 81.797846 
L 156.621352 86.728438 
L 155.961027 91.854468 
L 155.571724 97.135955 
L 155.452757 102.532135 
L 155.600079 108.001855 
L 156.006299 113.503968 
L 156.660741 118.997719 
L 157.549536 124.443139 
L 158.655755 129.801416 
L 159.959576 135.035259 
L 161.438475 140.109247 
L 163.067463 144.990149 
L 164.819338 149.647228 
L 166.664972 154.052514 
L 168.573616 158.181048 
L 171.484357 163.808319 
L 174.352757 168.705935 
L 177.06493 172.833222 
L 179.507683 176.168269 
L 182.156844 179.380111 
L 184.347995 181.662455 
L 184.499932 181.799941 
L 183.422663 180.966472 
L 180.950062 179.295088 
L 178.116856 177.604401 
L 174.442819 175.654874 
L 169.947129 173.55472 
L 164.668158 171.412842 
L 160.741105 170.014668 
L 156.512213 168.676121 
L 152.006116 167.426515 
L 147.250556 166.293561 
L 142.276148 165.303071 
L 137.116104 164.478672 
L 131.805934 163.841555 
L 126.383122 163.410249 
L 120.886779 163.200423 
L 115.357279 163.224728 
L 109.835885 163.492666 
L 104.364357 164.010497 
L 98.984561 164.781189 
L 93.738071 165.804394 
L 88.665773 167.076468 
L 83.807478 168.59053 
L 79.201541 170.336555 
L 74.884497 172.301496 
L 70.89071 174.469453 
L 67.252046 176.821863 
L 63.997568 179.337724 
L 61.153263 181.99385 
L 58.741792 184.76514 
L 56.782277 187.624881 
L 55.29012 190.545066 
L 54.723063 192.018797 
L 54.276866 193.496716 
L 53.952352 194.975105 
L 53.750091 196.450231 
L 53.6704 197.918354 
L 53.713342 199.375738 
L 53.878725 200.818663 
L 54.166106 202.243438 
L 54.574788 203.646408 
L 55.103827 205.023967 
L 55.75203 206.372571 
L 56.51796 207.688743 
L 57.399941 208.969089 
L 58.396061 210.210305 
L 59.504176 211.409186 
L 62.046701 213.667698 
L 65.00598 215.721377 
L 68.357193 217.549175 
L 72.072487 219.132509 
L 76.12126 220.455493 
L 80.470458 221.505142 
L 85.084916 222.271552 
L 89.927695 222.748033 
L 94.960457 222.931222 
L 100.143833 222.821151 
L 105.437817 222.421274 
L 110.802148 221.738469 
L 116.196704 220.78299 
L 121.581889 219.568389 
L 126.919008 218.111398 
L 132.170639 216.431778 
L 137.30098 214.552129 
L 142.27619 212.497676 
L 147.06469 210.296015 
L 151.637458 207.976841 
L 155.968281 205.571648 
L 160.033985 203.113403 
L 163.814629 200.636209 
L 168.915862 196.96132 
L 173.298354 193.441473 
L 176.939494 190.195023 
L 179.835138 187.336748 
L 182.563107 184.31567 
L 184.497759 181.803511 
L 184.009168 182.649118 
L 182.815789 185.034133 
L 181.597107 187.853975 
L 180.215221 191.548577 
L 178.774603 196.08853 
L 177.378363 201.425161 
L 176.521364 205.393093 
L 175.756091 209.661434 
L 175.108755 214.202793 
L 174.603647 218.986826 
L 174.262866 223.980505 
L 174.106068 229.148424 
L 174.150247 234.453114 
L 174.409544 239.855397 
L 174.895092 245.314748 
L 175.61489 250.78967 
L 176.57372 256.238087 
L 177.773094 261.617738 
L 179.211243 266.886574 
L 180.883141 272.003157 
L 182.780563 276.92705 
L 184.892187 281.619197 
L 187.203724 286.042295 
L 189.698084 290.161145 
L 192.355576 293.942979 
L 195.154134 297.357771 
L 198.069573 300.378518 
L 201.07587 302.981485 
L 204.145461 305.146426 
L 207.249564 306.856769 
L 210.358511 308.099758 
L 211.905372 308.543081 
L 213.442093 308.866567 
L 214.964869 309.069737 
L 216.469909 309.152365 
L 217.953441 309.114478 
L 219.411727 308.956353 
L 220.841072 308.678517 
L 222.237834 308.281748 
L 223.59844 307.767066 
L 224.919388 307.135738 
L 226.197267 306.389268 
L 227.42876 305.529395 
L 228.610657 304.558089 
L 229.739864 303.477545 
L 230.813414 302.290176 
L 232.782349 299.605676 
L 234.496567 296.528019 
L 235.937727 293.083673 
L 237.090274 289.301874 
L 237.941645 285.214315 
L 238.48244 280.85483 
L 238.706564 276.259047 
L 238.61133 271.464026 
L 238.197524 266.50789 
L 237.469435 261.429442 
L 236.434848 256.26778 
L 235.105001 251.061912 
L 233.494491 245.850372 
L 231.621167 240.670849 
L 229.505961 235.559818 
L 227.172705 230.552196 
L 224.647907 225.681008 
L 221.960494 220.977083 
L 219.141536 216.468768 
L 216.223939 212.181674 
L 213.242118 208.138453 
L 210.231651 204.358601 
L 207.228922 200.858307 
L 204.270748 197.650327 
L 199.997611 193.405686 
L 196.030295 189.85486 
L 192.486968 186.996023 
L 189.478496 184.809811 
L 186.471866 182.876629 
L 184.511537 181.805344 
L 185.513264 182.203244 
L 188.139284 183.065879 
L 191.174271 183.877353 
L 195.095612 184.71806 
L 199.857826 185.489002 
L 205.396634 186.095472 
L 209.480871 186.36465 
L 213.845946 186.497595 
L 218.460692 186.472519 
L 223.291327 186.269983 
L 228.301763 185.873126 
L 233.453941 185.267865 
L 238.708189 184.443063 
L 244.023587 183.390664 
L 249.358358 182.105793 
L 254.670256 180.586818 
L 259.916964 178.835376 
L 265.056494 176.856363 
L 270.047584 174.657888 
L 274.850081 172.251182 
L 279.425323 169.650484 
L 283.736499 166.872884 
L 287.748992 163.938136 
L 291.430702 160.868437 
L 294.752342 157.688186 
L 297.687704 154.423707 
L 300.2139 151.102957 
L 302.311562 147.75521 
L 303.965012 144.410727 
L 305.162393 141.100413 
L 305.895765 137.855467 
L 306.08705 136.267247 
L 306.161154 134.707019 
L 306.118203 133.178605 
L 305.958572 131.685779 
L 305.682879 130.232256 
L 305.291988 128.821678 
L 304.787004 127.457609 
L 304.169268 126.143519 
L 303.440354 124.882776 
L 302.602067 123.678637 
L 301.656432 122.534238 
L 300.605694 121.452581 
L 299.452309 120.436531 
L 298.198935 119.488801 
L 296.84843 118.611948 
L 293.868393 117.080267 
L 290.538687 115.8585 
L 286.888412 114.960676 
L 282.94897 114.397653 
L 278.753734 114.176959 
L 274.337703 114.302674 
L 269.737137 114.775344 
L 264.989186 115.591937 
L 260.131514 116.745831 
L 255.201914 118.226843 
L 250.237929 120.021299 
L 245.276479 122.112139 
L 240.353495 124.479054 
L 235.503566 127.098669 
L 230.759607 129.94475 
L 226.152536 132.988445 
L 221.71099 136.19856 
L 217.461057 139.541848 
L 213.426037 142.983338 
L 209.626238 146.48667 
L 206.078804 150.014455 
L 202.797581 153.528643 
L 199.793011 156.990905 
L 195.819196 162.003439 
L 192.491591 166.686702 
L 189.801595 170.919512 
L 187.723748 174.588846 
L 185.831983 178.429917 
L 184.5832 181.540613 
L 184.500974 181.796718 
L 184.778933 180.62659 
L 185.265304 177.80723 
L 185.632425 174.617275 
L 185.895018 170.549756 
L 185.962016 165.665232 
L 185.749461 160.042145 
L 185.415186 155.929275 
L 184.903961 151.561655 
L 184.198963 146.973515 
L 183.286084 142.201303 
L 182.154119 137.283339 
L 180.794906 132.259456 
L 179.203442 127.170621 
L 177.377956 122.05855 
L 175.319953 116.96531 
L 173.03421 111.932923 
L 170.528746 107.00297 
L 167.81475 102.216198 
L 164.906468 97.612133 
L 161.821066 93.228717 
L 158.578451 89.101947 
L 155.201061 85.265545 
L 151.713629 81.750646 
L 148.142921 78.585516 
L 144.51744 75.795294 
L 140.867124 73.401772 
L 137.223014 71.423206 
L 133.616915 69.874163 
L 130.081039 68.765405 
L 126.647652 68.103812 
L 123.348709 67.892347 
L 121.759467 67.955267 
L 120.215495 68.130056 
L 118.720541 68.41599 
L 117.278265 68.812106 
L 115.892233 69.317209 
L 114.565903 69.929871 
L 113.302614 70.64844 
L 112.105582 71.471044 
L 110.977882 72.395594 
L 109.922449 73.419794 
L 108.942059 74.541145 
L 108.039327 75.756953 
L 107.216697 77.064338 
L 106.476435 78.460239 
L 105.820622 79.941425 
L 104.769694 83.145933 
L 104.076602 86.64895 
L 103.750694 90.419445 
L 103.797832 94.4246 
L 104.220298 98.63016 
L 105.016719 103.000797 
L 106.182047 107.500477 
L 107.707564 112.092842 
L 109.580938 116.741579 
L 111.786305 121.410797 
L 114.304396 126.065391 
L 117.1127 130.671396 
L 120.185658 135.196326 
L 123.494893 139.609498 
L 127.009468 143.882328 
L 130.696177 147.988605 
L 134.519854 151.904744 
L 138.443706 155.609996 
L 142.429673 159.086636 
L 146.438788 162.320117 
L 150.431561 165.299176 
L 154.368364 168.015924 
L 158.209821 170.465876 
L 163.708767 173.639145 
L 168.780261 176.221066 
L 173.306301 178.238648 
L 177.179562 179.734336 
L 181.167789 181.01619 
L 184.284133 181.764052 
L 184.5 181.8 
L 183.177717 181.683326 
L 180.220895 181.611579 
L 176.942428 181.716855 
L 175.657696 181.8 
L 175.657696 181.8 
" clip-path="url(#p7714bc34ab)" style="fill: none; stroke: #1f77b4; stroke-width: 1.5; stroke-linecap: square"/>
   </g>
   <g id="patch_3">
    <path d="M 323.1 181.8 
C 323.1 163.599215 319.514842 145.575409 312.549703 128.760076 
C 305.584564 111.944743 295.374899 96.664899 282.505 83.795 
C 269.635101 70.925101 254.355257 60.715436 237.539924 53.750297 
C 220.724591 46.785158 202.700785 43.2 184.5 43.2 
C 166.299215 43.2 148.275409 46.785158 131.460076 53.750297 
C 114.644743 60.715436 99.364899 70.925101 86.495 83.795 
C 73.625101 96.664899 63.415436 111.944743 56.450297 128.760076 
C 49.485158 145.575409 45.9 163.599215 45.9 181.8 
C 45.9 200.000785 49.485158 218.024591 56.450297 234.839924 
C 63.415436 251.655257 73.625101 266.935101 86.495 279.805 
C 99.364899 292.674899 114.644743 302.884564 131.460076 309.849703 
C 148.275409 316.814842 166.299215 320.4 184.5 320.4 
C 202.700785 320.4 220.724591 316.814842 237.539924 309.849703 
C 254.355257 302.884564 269.635101 292.674899 282.505 279.805 
C 295.374899 266.935101 305.584564 251.655257 312.549703 234.839924 
C 319.514842 218.024591 323.1 200.000785 323.1 181.8 
" style="fill: none; stroke: #000000; stroke-width: 0.8; stroke-linejoin: miter; stroke-linecap: square"/>
   </g>
  </g>
 </g>
 <defs>
  <clipPath id="p7714bc34ab">
   <path d="M 323.1 181.8 
C 323.1 163.599215 319.514842 145.575409 312.549703 128.760076 
C 305.584564 111.944743 295.374899 96.664899 282.505 83.795 
C 269.635101 70.925101 254.355257 60.715436 237.539924 53.750297 
C 220.724591 46.785158 202.700785 43.2 184.5 43.2 
C 166.299215 43.2 148.275409 46.785158 131.460076 53.750297 
C 114.644743 60.715436 99.364899 70.925101 86.495 83.795 
C 73.625101 96.664899 63.415436 111.944743 56.450297 128.760076 
C 49.485158 145.575409 45.9 163.599215 45.9 181.8 
C 45.9 200.000785 49.485158 218.024591 56.450297 234.839924 
C 63.415436 251.655257 73.625101 266.935101 86.495 279.805 
C 99.364899 292.674899 114.644743 302.884564 131.460076 309.849703 
C 148.275409 316.814842 166.299215 320.4 184.5 320.4 
C 202.700785 320.4 220.724591 316.814842 237.539924 309.849703 
C 254.355257 302.884564 269.635101 292.674899 282.505 279.805 
C 295.374899 266.935101 305.584564 251.655257 312.549703 234.839924 
C 319.514842 218.024591 323.1 200.000785 323.1 181.8 
M 184.5 181.8 
C 184.5 181.8 184.5 181.8 184.5 181.8 
C 184.5 181.8 184.5 181.8 184.5 181.8 
C 184.5 181.8 184.5 181.8 184.5 181.8 
C 184.5 181.8 184.5 181.8 184.5 181.8 
C 184.5 181.8 184.5 181.8 184.5 181.8 
C 184.5 181.8 184.5 181.8 184.5 181.8 
C 184.5 181.8 184.5 181.8 184.5 181.8 
C 184.5 181.8 184.5 181.8 184.5 181.8 
C 184.5 181.8 184.5 181.8 184.5 181.8 
C 184.5 181.8 184.5 181.8 184.5 181.8 
C 184.5 181.8 184.5 181.8 184.5 181.8 
C 184.5 181.8 184.5 181.8 184.5 181.8 
C 184.5 181.8 184.5 181.8 184.5 181.8 
C 184.5 181.8 184.5 181.8 184.5 181.8 
C 184.5 181.8 184.5 181.8 184.5 181.8 
C 184.5 181.8 184.5 181.8 184.5 181.8 
z
"/>
  </clipPath>
 </defs>
</svg>
