<?xml version="1.0" encoding="utf-8" standalone="no"?>
<!DOCTYPE svg PUBLIC "-//W3C//DTD SVG 1.1//EN"
  "http://www.w3.org/Graphics/SVG/1.1/DTD/svg11.dtd">
<svg xmlns:xlink="http://www.w3.org/1999/xlink" width="360pt" height="288pt" viewBox="0 0 360 288" xmlns="http://www.w3.org/2000/svg" version="1.1">
 <metadata>
  <rdf:RDF xmlns:dc="http://purl.org/dc/elements/1.1/" xmlns:cc="http://creativecommons.org/ns#" xmlns:rdf="http://www.w3.org/1999/02/22-rdf-syntax-ns#">
   <cc:Work>
    <dc:type rdf:resource="http://purl.org/dc/dcmitype/StillImage"/>
    <dc:date>2025-11-28T13:44:30.053697</dc:date>
    <dc:format>image/svg+xml</dc:format>
    <dc:creator>
     <cc:Agent>
      <dc:title>Matplotlib v3.10.6, https://matplotlib.org/</dc:title>
     </cc:Agent>
    </dc:creator>
   </cc:Work>
  </rdf:RDF>
 </metadata>
 <defs>
  <style type="text/css">*{stroke-linejoin: round; stroke-linecap: butt}</style>
 </defs>
 <g id="figure_1">
  <g id="patch_1">
   <path d="M 0 288 
L 360 288 
L 360 0 
L 0 0 
z
" style="fill: #ffffff"/>
  </g>
  <g id="axes_1">
   <g id="patch_2">
    <path d="M 45 256.32 
L 324 256.32 
L 324 34.56 
L 45 34.56 
z
" style="fill: #ffffff"/>
   </g>
   <g id="matplotlib.axis_1">
    <g id="xtick_1">
     <g id="line2d_1">
      <defs>
       <path id="m26d0f95c14" d="M 0 0 
L 0 3.5 
" style="stroke: #000000; stroke-width: 0.8"/>
      </defs>
      <g>
       <use xlink:href="#m26d0f95c14" x="45" y="256.32" style="stroke: #000000; stroke-width: 0.8"/>
      </g>
     </g>
     <g id="text_1">
      <!-- −6 -->
      <g transform="translate(37.628906 270.918437) scale(0.1 -0.1)">
       <defs>
        <path id="DejaVuSans-2212" d="M 678 2272 
L 4684 2272 
L 4684 1741 
L 678 1741 
L 678 2272 
z
" transform="scale(0.015625)"/>
        <path id="DejaVuSans-36" d="M 2113 2584 
Q 1688 2584 1439 2293 
Q 1191 2003 1191 1497 
Q 1191 994 1439 701 
Q 1688 409 2113 409 
Q 2538 409 2786 701 
Q 3034 994 3034 1497 
Q 3034 2003 2786 2293 
Q 2538 2584 2113 2584 
z
M 3366 4563 
L 3366 3988 
Q 3128 4100 2886 4159 
Q 2644 4219 2406 4219 
Q 1781 4219 1451 3797 
Q 1122 3375 1075 2522 
Q 1259 2794 1537 2939 
Q 1816 3084 2150 3084 
Q 2853 3084 3261 2657 
Q 3669 2231 3669 1497 
Q 3669 778 3244 343 
Q 2819 -91 2113 -91 
Q 1303 -91 875 529 
Q 447 1150 447 2328 
Q 447 3434 972 4092 
Q 1497 4750 2381 4750 
Q 2619 4750 2861 4703 
Q 3103 4656 3366 4563 
z
" transform="scale(0.015625)"/>
       </defs>
       <use xlink:href="#DejaVuSans-2212"/>
       <use xlink:href="#DejaVuSans-36" transform="translate(83.789062 0)"/>
      </g>
     </g>
    </g>
    <g id="xtick_2">
     <g id="line2d_2">
      <g>
       <use xlink:href="#m26d0f95c14" x="91.5" y="256.32" style="stroke: #000000; stroke-width: 0.8"/>
      </g>
     </g>
     <g id="text_2">
      <!-- −4 -->
      <g transform="translate(84.128906 270.918437) scale(0.1 -0.1)">
       <defs>
        <path id="DejaVuSans-34" d="M 2419 4116 
L 825 1625 
L 2419 1625 
L 2419 4116 
z
M 2253 4666 
L 3047 4666 
L 3047 1625 
L 3713 1625 
L 3713 1100 
L 3047 1100 
L 3047 0 
L 2419 0 
L 2419 1100 
L 313 1100 
L 313 1709 
L 2253 4666 
z
" transform="scale(0.015625)"/>
       </defs>
       <use xlink:href="#DejaVuSans-2212"/>
       <use xlink:href="#DejaVuSans-34" transform="translate(83.789062 0)"/>
      </g>
     </g>
    </g>
    <g id="xtick_3">
     <g id="line2d_3">
      <g>
       <use xlink:href="#m26d0f95c14" x="138" y="256.32" style="stroke: #000000; stroke-width: 0.8"/>
      </g>
     </g>
     <g id="text_3">
      <!-- −2 -->
      <g transform="translate(130.628906 270.918437) scale(0.1 -0.1)">
       <defs>
        <path id="DejaVuSans-32" d="M 1228 531 
L 3431 531 
L 3431 0 
L 469 0 
L 469 531 
Q 828 903 1448 1529 
Q 2069 2156 2228 2338 
Q 2531 2678 2651 2914 
Q 2772 3150 2772 3378 
Q 2772 3750 2511 3984 
Q 2250 4219 1831 4219 
Q 1534 4219 1204 4116 
Q 875 4013 500 3803 
L 500 4441 
Q 881 4594 1212 4672 
Q 1544 4750 1819 4750 
Q 2544 4750 2975 4387 
Q 3406 4025 3406 3419 
Q 3406 3131 3298 2873 
Q 3191 2616 2906 2266 
Q 2828 2175 2409 1742 
Q 1991 1309 1228 531 
z
" transform="scale(0.015625)"/>
       </defs>
       <use xlink:href="#DejaVuSans-2212"/>
       <use xlink:href="#DejaVuSans-32" transform="translate(83.789062 0)"/>
      </g>
     </g>
    </g>
    <g id="xtick_4">
     <g id="line2d_4">
      <g>
       <use xlink:href="#m26d0f95c14" x="184.5" y="256.32" style="stroke: #000000; stroke-width: 0.8"/>
      </g>
     </g>
     <g id="text_4">
      <!-- 0 -->
      <g transform="translate(181.31875 270.918437) scale(0.1 -0.1)">
       <defs>
        <path id="DejaVuSans-30" d="M 2034 4250 
Q 1547 4250 1301 3770 
Q 1056 3291 1056 2328 
Q 1056 1369 1301 889 
Q 1547 409 2034 409 
Q 2525 409 2770 889 
Q 3016 1369 3016 2328 
Q 3016 3291 2770 3770 
Q 2525 4250 2034 4250 
z
M 2034 4750 
Q 2819 4750 3233 4129 
Q 3647 3509 3647 2328 
Q 3647 1150 3233 529 
Q 2819 -91 2034 -91 
Q 1250 -91 836 529 
Q 422 1150 422 2328 
Q 422 3509 836 4129 
Q 1250 4750 2034 4750 
z
" transform="scale(0.015625)"/>
       </defs>
       <use xlink:href="#DejaVuSans-30"/>
      </g>
     </g>
    </g>
    <g id="xtick_5">
     <g id="line2d_5">
      <g>
       <use xlink:href="#m26d0f95c14" x="231" y="256.32" style="stroke: #000000; stroke-width: 0.8"/>
      </g>
     </g>
     <g id="text_5">
      <!-- 2 -->
      <g transform="translate(227.81875 270.918437) scale(0.1 -0.1)">
       <use xlink:href="#DejaVuSans-32"/>
      </g>
     </g>
    </g>
    <g id="xtick_6">
     <g id="line2d_6">
      <g>
       <use xlink:href="#m26d0f95c14" x="277.5" y="256.32" style="stroke: #000000; stroke-width: 0.8"/>
      </g>
     </g>
     <g id="text_6">
      <!-- 4 -->
      <g transform="translate(274.31875 270.918437) scale(0.1 -0.1)">
       <use xlink:href="#DejaVuSans-34"/>
      </g>
     </g>
    </g>
    <g id="xtick_7">
     <g id="line2d_7">
      <g>
       <use xlink:href="#m26d0f95c14" x="324" y="256.32" style="stroke: #000000; stroke-width: 0.8"/>
      </g>
     </g>
     <g id="text_7">
      <!-- 6 -->
      <g transform="translate(320.81875 270.918437) scale(0.1 -0.1)">
       <use xlink:href="#DejaVuSans-36"/>
      </g>
     </g>
    </g>
    <g id="text_8">
     <!-- x -->
     <g transform="translate(181.540625 284.596563) scale(0.1 -0.1)">
      <defs>
       <path id="DejaVuSans-78" d="M 3513 3500 
L 2247 1797 
L 3578 0 
L 2900 0 
L 1881 1375 
L 863 0 
L 184 0 
L 1544 1831 
L 300 3500 
L 978 3500 
L 1906 2253 
L 2834 3500 
L 3513 3500 
z
" transform="scale(0.015625)"/>
      </defs>
      <use xlink:href="#DejaVuSans-78"/>
     </g>
    </g>
   </g>
   <g id="matplotlib.axis_2">
    <g id="ytick_1">
     <g id="line2d_8">
      <defs>
       <path id="mb94b4abcac" d="M 0 0 
L -3.5 0 
" style="stroke: #000000; stroke-width: 0.8"/>
      </defs>
      <g>
       <use xlink:href="#mb94b4abcac" x="45" y="256.32" style="stroke: #000000; stroke-width: 0.8"/>
      </g>
     </g>
     <g id="text_9">
      <!-- 0.0 -->
      <g transform="translate(22.096875 260.119219) scale(0.1 -0.1)">
       <defs>
        <path id="DejaVuSans-2e" d="M 684 794 
L 1344 794 
L 1344 0 
L 684 0 
L 684 794 
z
" transform="scale(0.015625)"/>
       </defs>
       <use xlink:href="#DejaVuSans-30"/>
       <use xlink:href="#DejaVuSans-2e" transform="translate(63.623047 0)"/>
       <use xlink:href="#DejaVuSans-30" transform="translate(95.410156 0)"/>
      </g>
     </g>
    </g>
    <g id="ytick_2">
     <g id="line2d_9">
      <g>
       <use xlink:href="#mb94b4abcac" x="45" y="211.968" style="stroke: #000000; stroke-width: 0.8"/>
      </g>
     </g>
     <g id="text_10">
      <!-- 0.2 -->
      <g transform="translate(22.096875 215.767219) scale(0.1 -0.1)">
       <use xlink:href="#DejaVuSans-30"/>
       <use xlink:href="#DejaVuSans-2e" transform="translate(63.623047 0)"/>
       <use xlink:href="#DejaVuSans-32" transform="translate(95.410156 0)"/>
      </g>
     </g>
    </g>
    <g id="ytick_3">
     <g id="line2d_10">
      <g>
       <use xlink:href="#mb94b4abcac" x="45" y="167.616" style="stroke: #000000; stroke-width: 0.8"/>
      </g>
     </g>
     <g id="text_11">
      <!-- 0.4 -->
      <g transform="translate(22.096875 171.415219) scale(0.1 -0.1)">
       <use xlink:href="#DejaVuSans-30"/>
       <use xlink:href="#DejaVuSans-2e" transform="translate(63.623047 0)"/>
       <use xlink:href="#DejaVuSans-34" transform="translate(95.410156 0)"/>
      </g>
     </g>
    </g>
    <g id="ytick_4">
     <g id="line2d_11">
      <g>
       <use xlink:href="#mb94b4abcac" x="45" y="123.264" style="stroke: #000000; stroke-width: 0.8"/>
      </g>
     </g>
     <g id="text_12">
      <!-- 0.6 -->
      <g transform="translate(22.096875 127.063219) scale(0.1 -0.1)">
       <use xlink:href="#DejaVuSans-30"/>
       <use xlink:href="#DejaVuSans-2e" transform="translate(63.623047 0)"/>
       <use xlink:href="#DejaVuSans-36" transform="translate(95.410156 0)"/>
      </g>
     </g>
    </g>
    <g id="ytick_5">
     <g id="line2d_12">
      <g>
       <use xlink:href="#mb94b4abcac" x="45" y="78.912" style="stroke: #000000; stroke-width: 0.8"/>
      </g>
     </g>
     <g id="text_13">
      <!-- 0.8 -->
      <g transform="translate(22.096875 82.711219) scale(0.1 -0.1)">
       <defs>
        <path id="DejaVuSans-38" d="M 2034 2216 
Q 1584 2216 1326 1975 
Q 1069 1734 1069 1313 
Q 1069 891 1326 650 
Q 1584 409 2034 409 
Q 2484 409 2743 651 
Q 3003 894 3003 1313 
Q 3003 1734 2745 1975 
Q 2488 2216 2034 2216 
z
M 1403 2484 
Q 997 2584 770 2862 
Q 544 3141 544 3541 
Q 544 4100 942 4425 
Q 1341 4750 2034 4750 
Q 2731 4750 3128 4425 
Q 3525 4100 3525 3541 
Q 3525 3141 3298 2862 
Q 3072 2584 2669 2484 
Q 3125 2378 3379 2068 
Q 3634 1759 3634 1313 
Q 3634 634 3220 271 
Q 2806 -91 2034 -91 
Q 1263 -91 848 271 
Q 434 634 434 1313 
Q 434 1759 690 2068 
Q 947 2378 1403 2484 
z
M 1172 3481 
Q 1172 3119 1398 2916 
Q 1625 2713 2034 2713 
Q 2441 2713 2670 2916 
Q 2900 3119 2900 3481 
Q 2900 3844 2670 4047 
Q 2441 4250 2034 4250 
Q 1625 4250 1398 4047 
Q 1172 3844 1172 3481 
z
" transform="scale(0.015625)"/>
       </defs>
       <use xlink:href="#DejaVuSans-30"/>
       <use xlink:href="#DejaVuSans-2e" transform="translate(63.623047 0)"/>
       <use xlink:href="#DejaVuSans-38" transform="translate(95.410156 0)"/>
      </g>
     </g>
    </g>
    <g id="ytick_6">
     <g id="line2d_13">
      <g>
       <use xlink:href="#mb94b4abcac" x="45" y="34.56" style="stroke: #000000; stroke-width: 0.8"/>
      </g>
     </g>
     <g id="text_14">
      <!-- 1.0 -->
      <g transform="translate(22.096875 38.359219) scale(0.1 -0.1)">
       <defs>
        <path id="DejaVuSans-31" d="M 794 531 
L 1825 531 
L 1825 4091 
L 703 3866 
L 703 4441 
L 1819 4666 
L 2450 4666 
L 2450 531 
L 3481 531 
L 3481 0 
L 794 0 
L 794 531 
z
" transform="scale(0.015625)"/>
       </defs>
       <use xlink:href="#DejaVuSans-31"/>
       <use xlink:href="#DejaVuSans-2e" transform="translate(63.623047 0)"/>
       <use xlink:href="#DejaVuSans-30" transform="translate(95.410156 0)"/>
      </g>
     </g>
    </g>
    <g id="text_15">
     <!-- PDF,$f_X(x)$ -->
     <g transform="translate(16.017187 167.94) rotate(-90) scale(0.1 -0.1)">
      <defs>
       <path id="DejaVuSans-50" d="M 1259 4147 
L 1259 2394 
L 2053 2394 
Q 2494 2394 2734 2622 
Q 2975 2850 2975 3272 
Q 2975 3691 2734 3919 
Q 2494 4147 2053 4147 
L 1259 4147 
z
M 628 4666 
L 2053 4666 
Q 2838 4666 3239 4311 
Q 3641 3956 3641 3272 
Q 3641 2581 3239 2228 
Q 2838 1875 2053 1875 
L 1259 1875 
L 1259 0 
L 628 0 
L 628 4666 
z
" transform="scale(0.015625)"/>
       <path id="DejaVuSans-44" d="M 1259 4147 
L 1259 519 
L 2022 519 
Q 2988 519 3436 956 
Q 3884 1394 3884 2338 
Q 3884 3275 3436 3711 
Q 2988 4147 2022 4147 
L 1259 4147 
z
M 628 4666 
L 1925 4666 
Q 3281 4666 3915 4102 
Q 4550 3538 4550 2338 
Q 4550 1131 3912 565 
Q 3275 0 1925 0 
L 628 0 
L 628 4666 
z
" transform="scale(0.015625)"/>
       <path id="DejaVuSans-46" d="M 628 4666 
L 3309 4666 
L 3309 4134 
L 1259 4134 
L 1259 2759 
L 3109 2759 
L 3109 2228 
L 1259 2228 
L 1259 0 
L 628 0 
L 628 4666 
z
" transform="scale(0.015625)"/>
       <path id="DejaVuSans-2c" d="M 750 794 
L 1409 794 
L 1409 256 
L 897 -744 
L 494 -744 
L 750 256 
L 750 794 
z
" transform="scale(0.015625)"/>
       <path id="DejaVuSans-Oblique-66" d="M 3059 4863 
L 2969 4384 
L 2419 4384 
Q 2106 4384 1964 4261 
Q 1822 4138 1753 3809 
L 1691 3500 
L 2638 3500 
L 2553 3053 
L 1606 3053 
L 1013 0 
L 434 0 
L 1031 3053 
L 481 3053 
L 563 3500 
L 1113 3500 
L 1159 3744 
Q 1278 4363 1576 4613 
Q 1875 4863 2516 4863 
L 3059 4863 
z
" transform="scale(0.015625)"/>
       <path id="DejaVuSans-Oblique-58" d="M 878 4666 
L 1516 4666 
L 2316 2981 
L 3763 4666 
L 4500 4666 
L 2578 2438 
L 3738 0 
L 3103 0 
L 2163 1966 
L 459 0 
L -275 0 
L 1906 2509 
L 878 4666 
z
" transform="scale(0.015625)"/>
       <path id="DejaVuSans-28" d="M 1984 4856 
Q 1566 4138 1362 3434 
Q 1159 2731 1159 2009 
Q 1159 1288 1364 580 
Q 1569 -128 1984 -844 
L 1484 -844 
Q 1016 -109 783 600 
Q 550 1309 550 2009 
Q 550 2706 781 3412 
Q 1013 4119 1484 4856 
L 1984 4856 
z
" transform="scale(0.015625)"/>
       <path id="DejaVuSans-Oblique-78" d="M 3841 3500 
L 2234 1784 
L 3219 0 
L 2559 0 
L 1819 1388 
L 531 0 
L -166 0 
L 1556 1844 
L 641 3500 
L 1300 3500 
L 1972 2234 
L 3144 3500 
L 3841 3500 
z
" transform="scale(0.015625)"/>
       <path id="DejaVuSans-29" d="M 513 4856 
L 1013 4856 
Q 1481 4119 1714 3412 
Q 1947 2706 1947 2009 
Q 1947 1309 1714 600 
Q 1481 -109 1013 -844 
L 513 -844 
Q 928 -128 1133 580 
Q 1338 1288 1338 2009 
Q 1338 2731 1133 3434 
Q 928 4138 513 4856 
z
" transform="scale(0.015625)"/>
      </defs>
      <use xlink:href="#DejaVuSans-50" transform="translate(0 0.015625)"/>
      <use xlink:href="#DejaVuSans-44" transform="translate(60.302734 0.015625)"/>
      <use xlink:href="#DejaVuSans-46" transform="translate(137.304688 0.015625)"/>
      <use xlink:href="#DejaVuSans-2c" transform="translate(194.824219 0.015625)"/>
      <use xlink:href="#DejaVuSans-Oblique-66" transform="translate(226.611328 0.015625)"/>
      <use xlink:href="#DejaVuSans-Oblique-58" transform="translate(261.816406 -16.390625) scale(0.7)"/>
      <use xlink:href="#DejaVuSans-28" transform="translate(312.504883 0.015625)"/>
      <use xlink:href="#DejaVuSans-Oblique-78" transform="translate(351.518555 0.015625)"/>
      <use xlink:href="#DejaVuSans-29" transform="translate(410.698242 0.015625)"/>
     </g>
    </g>
   </g>
   <g id="line2d_14">
    <path d="M 45 256.32 
L 138.934673 256.238391 
L 143.140704 256.004352 
L 145.944724 255.596791 
L 147.346734 255.248927 
L 148.748744 254.756647 
L 150.150754 254.071058 
L 151.552764 253.131527 
L 152.954774 251.864768 
L 154.356784 250.184626 
L 155.758794 247.992878 
L 157.160804 245.181365 
L 158.562814 241.635738 
L 159.964824 237.241007 
L 161.366834 231.888962 
L 162.768844 225.487302 
L 164.170854 217.970094 
L 165.572864 209.308921 
L 166.974874 199.5238 
L 168.376884 188.692786 
L 171.180905 164.534228 
L 175.386935 126.189292 
L 176.788945 114.322434 
L 178.190955 103.610816 
L 179.592965 94.462599 
L 180.994975 87.243552 
L 182.396985 82.252851 
L 183.798995 79.702526 
L 185.201005 79.702526 
L 186.603015 82.252851 
L 188.005025 87.243552 
L 189.407035 94.462599 
L 190.809045 103.610816 
L 192.211055 114.322434 
L 195.015075 138.786455 
L 199.221106 176.95905 
L 202.025126 199.5238 
L 203.427136 209.308921 
L 204.829146 217.970094 
L 206.231156 225.487302 
L 207.633166 231.888962 
L 209.035176 237.241007 
L 210.437186 241.635738 
L 211.839196 245.181365 
L 213.241206 247.992878 
L 214.643216 250.184626 
L 216.045226 251.864768 
L 217.447236 253.131527 
L 218.849246 254.071058 
L 220.251256 254.756647 
L 221.653266 255.248927 
L 224.457286 255.838726 
L 227.261307 256.115968 
L 231.467337 256.269501 
L 242.683417 256.319357 
L 324 256.32 
L 324 256.32 
" clip-path="url(#p0e79036a3f)" style="fill: none; stroke: #a50026; stroke-width: 1.5; stroke-linecap: square"/>
   </g>
   <g id="line2d_15">
    <path d="M 45 256.319999 
L 98.276382 256.228735 
L 106.688442 255.992954 
L 112.296482 255.607869 
L 116.502513 255.091312 
L 119.306533 254.584331 
L 122.110553 253.903564 
L 124.914573 253.004365 
L 127.718593 251.83625 
L 130.522613 250.344157 
L 133.326633 248.470533 
L 136.130653 246.158349 
L 138.934673 243.35503 
L 141.738693 240.01721 
L 144.542714 236.116087 
L 147.346734 231.64301 
L 150.150754 226.61483 
L 152.954774 221.078447 
L 155.758794 215.11393 
L 159.964824 205.623693 
L 166.974874 189.728733 
L 169.778894 183.919899 
L 172.582915 178.740993 
L 173.984925 176.45106 
L 175.386935 174.39199 
L 176.788945 172.584873 
L 178.190955 171.04853 
L 179.592965 169.799185 
L 180.994975 168.850179 
L 182.396985 168.211732 
L 183.798995 167.890763 
L 185.201005 167.890763 
L 186.603015 168.211732 
L 188.005025 168.850179 
L 189.407035 169.799185 
L 190.809045 171.04853 
L 192.211055 172.584873 
L 193.613065 174.39199 
L 195.015075 176.45106 
L 197.819095 181.238783 
L 200.623116 186.758677 
L 203.427136 192.80336 
L 210.437186 208.835651 
L 214.643216 218.143358 
L 217.447236 223.905961 
L 220.251256 229.196126 
L 223.055276 233.950646 
L 225.859296 238.13814 
L 228.663317 241.755139 
L 231.467337 244.821068 
L 234.271357 247.372704 
L 237.075377 249.458654 
L 239.879397 251.13427 
L 242.683417 252.457276 
L 245.487437 253.484298 
L 248.291457 254.268315 
L 251.095477 254.857002 
L 255.301508 255.462766 
L 259.507538 255.833881 
L 265.115578 256.103151 
L 273.527638 256.26207 
L 291.753769 256.317883 
L 324 256.319999 
L 324 256.319999 
" clip-path="url(#p0e79036a3f)" style="fill: none; stroke: #da362a; stroke-width: 1.5; stroke-linecap: square"/>
   </g>
   <g id="line2d_16">
    <path d="M 45 256.300215 
L 64.628141 256.159575 
L 75.844221 255.859858 
L 82.854271 255.476483 
L 88.462312 254.989479 
L 94.070352 254.274875 
L 98.276382 253.544293 
L 102.482412 252.607122 
L 106.688442 251.425246 
L 110.894472 249.960336 
L 115.100503 248.176321 
L 119.306533 246.042434 
L 123.512563 243.536698 
L 127.718593 240.64964 
L 131.924623 237.387933 
L 136.130653 233.777595 
L 140.336683 229.86635 
L 145.944724 224.308462 
L 158.562814 211.590493 
L 162.768844 207.747595 
L 165.572864 205.416939 
L 168.376884 203.318189 
L 171.180905 201.488512 
L 173.984925 199.961184 
L 176.788945 198.764584 
L 179.592965 197.921317 
L 182.396985 197.447509 
L 185.201005 197.352287 
L 188.005025 197.637492 
L 190.809045 198.297617 
L 193.613065 199.319985 
L 196.417085 200.685155 
L 199.221106 202.367533 
L 202.025126 204.336174 
L 204.829146 206.555724 
L 209.035176 210.270193 
L 213.241206 214.322727 
L 221.653266 222.880707 
L 228.663317 229.86635 
L 232.869347 233.777595 
L 237.075377 237.387933 
L 241.281407 240.64964 
L 245.487437 243.536698 
L 249.693467 246.042434 
L 253.899497 248.176321 
L 258.105528 249.960336 
L 262.311558 251.425246 
L 266.517588 252.607122 
L 270.723618 253.544293 
L 274.929648 254.274875 
L 280.537688 254.989479 
L 286.145729 255.476483 
L 293.155779 255.859858 
L 302.969849 256.135952 
L 316.98995 256.276673 
L 324 256.300215 
L 324 256.300215 
" clip-path="url(#p0e79036a3f)" style="fill: none; stroke: #f67a49; stroke-width: 1.5; stroke-linecap: square"/>
   </g>
   <g id="line2d_17">
    <path d="M 45 255.828597 
L 54.81407 255.414797 
L 63.226131 254.845125 
L 70.236181 254.159409 
L 77.246231 253.226004 
L 82.854271 252.263316 
L 88.462312 251.077896 
L 94.070352 249.643893 
L 99.678392 247.940385 
L 105.286432 245.954076 
L 110.894472 243.682094 
L 116.502513 241.13463 
L 122.110553 238.33714 
L 129.120603 234.554561 
L 140.336683 228.143208 
L 148.748744 223.404315 
L 154.356784 220.467917 
L 158.562814 218.458084 
L 162.768844 216.661384 
L 166.974874 215.117906 
L 171.180905 213.863148 
L 175.386935 212.926661 
L 178.190955 212.490562 
L 180.994975 212.210765 
L 183.798995 212.090306 
L 186.603015 212.130496 
L 189.407035 212.330896 
L 192.211055 212.68933 
L 195.015075 213.201917 
L 199.221106 214.247361 
L 203.427136 215.601962 
L 207.633166 217.234048 
L 211.839196 219.106431 
L 217.447236 221.904962 
L 224.457286 225.740961 
L 245.487437 237.603264 
L 251.095477 240.457343 
L 256.703518 243.070335 
L 262.311558 245.412706 
L 267.919598 247.470632 
L 273.527638 249.243953 
L 279.135678 250.743621 
L 284.743719 251.988912 
L 290.351759 253.004685 
L 295.959799 253.818872 
L 302.969849 254.597074 
L 309.979899 255.159815 
L 318.39196 255.619495 
L 324 255.828597 
L 324 255.828597 
" clip-path="url(#p0e79036a3f)" style="fill: none; stroke: #fdbf71; stroke-width: 1.5; stroke-linecap: square"/>
   </g>
   <g id="line2d_18">
    <path d="M 45 254.333516 
L 53.41206 253.537831 
L 61.824121 252.504201 
L 68.834171 251.433792 
L 75.844221 250.15346 
L 82.854271 248.650019 
L 89.864322 246.917784 
L 96.874372 244.96076 
L 103.884422 242.794557 
L 112.296482 239.960279 
L 123.512563 235.912395 
L 140.336683 229.804772 
L 147.346734 227.470845 
L 154.356784 225.384725 
L 159.964824 223.94852 
L 165.572864 222.759506 
L 171.180905 221.849201 
L 175.386935 221.364499 
L 179.592965 221.058106 
L 183.798995 220.934797 
L 188.005025 220.996505 
L 192.211055 221.242262 
L 196.417085 221.66823 
L 200.623116 222.267798 
L 206.231156 223.320998 
L 211.839196 224.637925 
L 217.447236 226.184136 
L 224.457286 228.379381 
L 232.869347 231.28886 
L 265.115578 242.794557 
L 272.125628 244.96076 
L 279.135678 246.917784 
L 286.145729 248.650019 
L 293.155779 250.15346 
L 300.165829 251.433792 
L 307.175879 252.504201 
L 315.58794 253.537831 
L 324 254.333516 
L 324 254.333516 
" clip-path="url(#p0e79036a3f)" style="fill: none; stroke: #feeda4; stroke-width: 1.5; stroke-linecap: square"/>
   </g>
   <g id="line2d_19">
    <path d="M 45 252.328988 
L 54.81407 251.084024 
L 64.628141 249.585362 
L 74.442211 247.827552 
L 84.256281 245.820862 
L 94.070352 243.594453 
L 106.688442 240.491884 
L 136.130653 233.132892 
L 144.542714 231.292928 
L 152.954774 229.69702 
L 159.964824 228.599346 
L 166.974874 227.746491 
L 173.984925 227.163393 
L 179.592965 226.903074 
L 185.201005 226.831676 
L 190.809045 226.950577 
L 196.417085 227.257482 
L 203.427136 227.896177 
L 210.437186 228.800214 
L 217.447236 229.943273 
L 224.457286 231.292928 
L 232.869347 233.132892 
L 244.085427 235.846014 
L 279.135678 244.572816 
L 288.949749 246.709939 
L 298.763819 248.612375 
L 308.577889 250.25938 
L 318.39196 251.647863 
L 324 252.328988 
L 324 252.328988 
" clip-path="url(#p0e79036a3f)" style="fill: none; stroke: #edf8df; stroke-width: 1.5; stroke-linecap: square"/>
   </g>
   <g id="line2d_20">
    <path d="M 45 250.504618 
L 56.21608 249.024257 
L 68.834171 247.115287 
L 81.452261 244.982721 
L 98.276382 241.901163 
L 126.316583 236.744493 
L 137.532663 234.921289 
L 147.346734 233.544924 
L 155.758794 232.571461 
L 164.170854 231.819609 
L 172.582915 231.312621 
L 180.994975 231.066454 
L 188.005025 231.066454 
L 195.015075 231.253166 
L 203.427136 231.71758 
L 211.839196 232.430052 
L 220.251256 233.36847 
L 230.065327 234.710644 
L 241.281407 236.504796 
L 255.301508 239.008206 
L 294.557789 246.192063 
L 307.175879 248.206257 
L 318.39196 249.790871 
L 324 250.504618 
L 324 250.504618 
" clip-path="url(#p0e79036a3f)" style="fill: none; stroke: #bde2ee; stroke-width: 1.5; stroke-linecap: square"/>
   </g>
   <g id="line2d_21">
    <path d="M 45 249.139544 
L 60.422111 247.237433 
L 78.648241 244.747594 
L 123.512563 238.481843 
L 136.130653 237.000585 
L 147.346734 235.899002 
L 157.160804 235.137959 
L 166.974874 234.591873 
L 176.788945 234.278536 
L 186.603015 234.208294 
L 196.417085 234.383481 
L 206.231156 234.798286 
L 216.045226 235.439079 
L 227.261307 236.421283 
L 238.477387 237.631104 
L 252.497487 239.390318 
L 270.723618 241.929439 
L 307.175879 247.053957 
L 322.59799 248.976157 
L 324 249.139544 
L 324 249.139544 
" clip-path="url(#p0e79036a3f)" style="fill: none; stroke: #7fb6d6; stroke-width: 1.5; stroke-linecap: square"/>
   </g>
   <g id="line2d_22">
    <path d="M 45 248.237584 
L 67.432161 245.807344 
L 115.100503 240.542493 
L 130.522613 239.109895 
L 144.542714 238.042837 
L 157.160804 237.319995 
L 168.376884 236.892185 
L 179.592965 236.681736 
L 190.809045 236.695836 
L 202.025126 236.934004 
L 213.241206 237.388109 
L 225.859296 238.137768 
L 238.477387 239.109895 
L 253.899497 240.542493 
L 272.125628 242.4759 
L 324 248.237584 
L 324 248.237584 
" clip-path="url(#p0e79036a3f)" style="fill: none; stroke: #4a7ab7; stroke-width: 1.5; stroke-linecap: square"/>
   </g>
   <g id="line2d_23">
    <path d="M 45 247.70746 
L 117.904523 241.303757 
L 134.728643 240.1757 
L 148.748744 239.443375 
L 162.768844 238.93258 
L 175.386935 238.680396 
L 188.005025 238.634153 
L 200.623116 238.795475 
L 214.643216 239.211046 
L 228.663317 239.857955 
L 244.085427 240.804199 
L 260.909548 242.063591 
L 281.939698 243.867303 
L 324 247.70746 
L 324 247.70746 
" clip-path="url(#p0e79036a3f)" style="fill: none; stroke: #313695; stroke-width: 1.5; stroke-linecap: square"/>
   </g>
   <g id="patch_3">
    <path d="M 45 256.32 
L 45 34.56 
" style="fill: none; stroke: #000000; stroke-width: 0.8; stroke-linejoin: miter; stroke-linecap: square"/>
   </g>
   <g id="patch_4">
    <path d="M 324 256.32 
L 324 34.56 
" style="fill: none; stroke: #000000; stroke-width: 0.8; stroke-linejoin: miter; stroke-linecap: square"/>
   </g>
   <g id="patch_5">
    <path d="M 45 256.32 
L 324 256.32 
" style="fill: none; stroke: #000000; stroke-width: 0.8; stroke-linejoin: miter; stroke-linecap: square"/>
   </g>
   <g id="patch_6">
    <path d="M 45 34.56 
L 324 34.56 
" style="fill: none; stroke: #000000; stroke-width: 0.8; stroke-linejoin: miter; stroke-linecap: square"/>
   </g>
   <g id="legend_1">
    <g id="patch_7">
     <path d="M 262.7 189.34125 
L 317 189.34125 
Q 319 189.34125 319 187.34125 
L 319 41.56 
Q 319 39.56 317 39.56 
L 262.7 39.56 
Q 260.7 39.56 260.7 41.56 
L 260.7 187.34125 
Q 260.7 189.34125 262.7 189.34125 
z
" style="fill: #ffffff; opacity: 0.8; stroke: #cccccc; stroke-linejoin: miter"/>
    </g>
    <g id="line2d_24">
     <path d="M 264.7 47.658437 
L 274.7 47.658437 
L 284.7 47.658437 
" style="fill: none; stroke: #a50026; stroke-width: 1.5; stroke-linecap: square"/>
    </g>
    <g id="text_16">
     <!-- $\sigma$0.5 -->
     <g transform="translate(292.7 51.158437) scale(0.1 -0.1)">
      <defs>
       <path id="DejaVuSans-Oblique-3c3" d="M 2219 3044 
Q 1744 3044 1422 2700 
Q 1081 2341 969 1747 
Q 844 1119 1044 756 
Q 1241 397 1706 397 
Q 2166 397 2503 759 
Q 2844 1122 2966 1747 
Q 3075 2319 2881 2700 
Q 2700 3044 2219 3044 
z
M 2309 3503 
L 4219 3500 
L 4106 2925 
L 3463 2925 
Q 3706 2438 3575 1747 
Q 3406 888 2884 400 
Q 2359 -91 1609 -91 
Q 856 -91 525 400 
Q 194 888 363 1747 
Q 528 2609 1050 3097 
Q 1484 3503 2309 3503 
z
" transform="scale(0.015625)"/>
       <path id="DejaVuSans-35" d="M 691 4666 
L 3169 4666 
L 3169 4134 
L 1269 4134 
L 1269 2991 
Q 1406 3038 1543 3061 
Q 1681 3084 1819 3084 
Q 2600 3084 3056 2656 
Q 3513 2228 3513 1497 
Q 3513 744 3044 326 
Q 2575 -91 1722 -91 
Q 1428 -91 1123 -41 
Q 819 9 494 109 
L 494 744 
Q 775 591 1075 516 
Q 1375 441 1709 441 
Q 2250 441 2565 725 
Q 2881 1009 2881 1497 
Q 2881 1984 2565 2268 
Q 2250 2553 1709 2553 
Q 1456 2553 1204 2497 
Q 953 2441 691 2322 
L 691 4666 
z
" transform="scale(0.015625)"/>
      </defs>
      <use xlink:href="#DejaVuSans-Oblique-3c3" transform="translate(0 0.78125)"/>
      <use xlink:href="#DejaVuSans-30" transform="translate(63.378906 0.78125)"/>
      <use xlink:href="#DejaVuSans-2e" transform="translate(127.001953 0.78125)"/>
      <use xlink:href="#DejaVuSans-35" transform="translate(158.789062 0.78125)"/>
     </g>
    </g>
    <g id="line2d_25">
     <path d="M 264.7 62.336563 
L 274.7 62.336563 
L 284.7 62.336563 
" style="fill: none; stroke: #da362a; stroke-width: 1.5; stroke-linecap: square"/>
    </g>
    <g id="text_17">
     <!-- $\sigma$1.0 -->
     <g transform="translate(292.7 65.836563) scale(0.1 -0.1)">
      <use xlink:href="#DejaVuSans-Oblique-3c3" transform="translate(0 0.78125)"/>
      <use xlink:href="#DejaVuSans-31" transform="translate(63.378906 0.78125)"/>
      <use xlink:href="#DejaVuSans-2e" transform="translate(127.001953 0.78125)"/>
      <use xlink:href="#DejaVuSans-30" transform="translate(158.789062 0.78125)"/>
     </g>
    </g>
    <g id="line2d_26">
     <path d="M 264.7 77.014688 
L 274.7 77.014688 
L 284.7 77.014688 
" style="fill: none; stroke: #f67a49; stroke-width: 1.5; stroke-linecap: square"/>
    </g>
    <g id="text_18">
     <!-- $\sigma$1.5 -->
     <g transform="translate(292.7 80.514688) scale(0.1 -0.1)">
      <use xlink:href="#DejaVuSans-Oblique-3c3" transform="translate(0 0.09375)"/>
      <use xlink:href="#DejaVuSans-31" transform="translate(63.378906 0.09375)"/>
      <use xlink:href="#DejaVuSans-2e" transform="translate(127.001953 0.09375)"/>
      <use xlink:href="#DejaVuSans-35" transform="translate(158.789062 0.09375)"/>
     </g>
    </g>
    <g id="line2d_27">
     <path d="M 264.7 91.692813 
L 274.7 91.692813 
L 284.7 91.692813 
" style="fill: none; stroke: #fdbf71; stroke-width: 1.5; stroke-linecap: square"/>
    </g>
    <g id="text_19">
     <!-- $\sigma$2.0 -->
     <g transform="translate(292.7 95.192813) scale(0.1 -0.1)">
      <use xlink:href="#DejaVuSans-Oblique-3c3" transform="translate(0 0.78125)"/>
      <use xlink:href="#DejaVuSans-32" transform="translate(63.378906 0.78125)"/>
      <use xlink:href="#DejaVuSans-2e" transform="translate(127.001953 0.78125)"/>
      <use xlink:href="#DejaVuSans-30" transform="translate(158.789062 0.78125)"/>
     </g>
    </g>
    <g id="line2d_28">
     <path d="M 264.7 106.370938 
L 274.7 106.370938 
L 284.7 106.370938 
" style="fill: none; stroke: #feeda4; stroke-width: 1.5; stroke-linecap: square"/>
    </g>
    <g id="text_20">
     <!-- $\sigma$2.5 -->
     <g transform="translate(292.7 109.870938) scale(0.1 -0.1)">
      <use xlink:href="#DejaVuSans-Oblique-3c3" transform="translate(0 0.78125)"/>
      <use xlink:href="#DejaVuSans-32" transform="translate(63.378906 0.78125)"/>
      <use xlink:href="#DejaVuSans-2e" transform="translate(127.001953 0.78125)"/>
      <use xlink:href="#DejaVuSans-35" transform="translate(158.789062 0.78125)"/>
     </g>
    </g>
    <g id="line2d_29">
     <path d="M 264.7 121.049062 
L 274.7 121.049062 
L 284.7 121.049062 
" style="fill: none; stroke: #edf8df; stroke-width: 1.5; stroke-linecap: square"/>
    </g>
    <g id="text_21">
     <!-- $\sigma$3.0 -->
     <g transform="translate(292.7 124.549062) scale(0.1 -0.1)">
      <defs>
       <path id="DejaVuSans-33" d="M 2597 2516 
Q 3050 2419 3304 2112 
Q 3559 1806 3559 1356 
Q 3559 666 3084 287 
Q 2609 -91 1734 -91 
Q 1441 -91 1130 -33 
Q 819 25 488 141 
L 488 750 
Q 750 597 1062 519 
Q 1375 441 1716 441 
Q 2309 441 2620 675 
Q 2931 909 2931 1356 
Q 2931 1769 2642 2001 
Q 2353 2234 1838 2234 
L 1294 2234 
L 1294 2753 
L 1863 2753 
Q 2328 2753 2575 2939 
Q 2822 3125 2822 3475 
Q 2822 3834 2567 4026 
Q 2313 4219 1838 4219 
Q 1578 4219 1281 4162 
Q 984 4106 628 3988 
L 628 4550 
Q 988 4650 1302 4700 
Q 1616 4750 1894 4750 
Q 2613 4750 3031 4423 
Q 3450 4097 3450 3541 
Q 3450 3153 3228 2886 
Q 3006 2619 2597 2516 
z
" transform="scale(0.015625)"/>
      </defs>
      <use xlink:href="#DejaVuSans-Oblique-3c3" transform="translate(0 0.78125)"/>
      <use xlink:href="#DejaVuSans-33" transform="translate(63.378906 0.78125)"/>
      <use xlink:href="#DejaVuSans-2e" transform="translate(127.001953 0.78125)"/>
      <use xlink:href="#DejaVuSans-30" transform="translate(158.789062 0.78125)"/>
     </g>
    </g>
    <g id="line2d_30">
     <path d="M 264.7 135.727188 
L 274.7 135.727188 
L 284.7 135.727188 
" style="fill: none; stroke: #bde2ee; stroke-width: 1.5; stroke-linecap: square"/>
    </g>
    <g id="text_22">
     <!-- $\sigma$3.5 -->
     <g transform="translate(292.7 139.227188) scale(0.1 -0.1)">
      <use xlink:href="#DejaVuSans-Oblique-3c3" transform="translate(0 0.78125)"/>
      <use xlink:href="#DejaVuSans-33" transform="translate(63.378906 0.78125)"/>
      <use xlink:href="#DejaVuSans-2e" transform="translate(127.001953 0.78125)"/>
      <use xlink:href="#DejaVuSans-35" transform="translate(158.789062 0.78125)"/>
     </g>
    </g>
    <g id="line2d_31">
     <path d="M 264.7 150.405312 
L 274.7 150.405312 
L 284.7 150.405312 
" style="fill: none; stroke: #7fb6d6; stroke-width: 1.5; stroke-linecap: square"/>
    </g>
    <g id="text_23">
     <!-- $\sigma$4.0 -->
     <g transform="translate(292.7 153.905312) scale(0.1 -0.1)">
      <use xlink:href="#DejaVuSans-Oblique-3c3" transform="translate(0 0.78125)"/>
      <use xlink:href="#DejaVuSans-34" transform="translate(63.378906 0.78125)"/>
      <use xlink:href="#DejaVuSans-2e" transform="translate(127.001953 0.78125)"/>
      <use xlink:href="#DejaVuSans-30" transform="translate(158.789062 0.78125)"/>
     </g>
    </g>
    <g id="line2d_32">
     <path d="M 264.7 165.083438 
L 274.7 165.083438 
L 284.7 165.083438 
" style="fill: none; stroke: #4a7ab7; stroke-width: 1.5; stroke-linecap: square"/>
    </g>
    <g id="text_24">
     <!-- $\sigma$4.5 -->
     <g transform="translate(292.7 168.583438) scale(0.1 -0.1)">
      <use xlink:href="#DejaVuSans-Oblique-3c3" transform="translate(0 0.09375)"/>
      <use xlink:href="#DejaVuSans-34" transform="translate(63.378906 0.09375)"/>
      <use xlink:href="#DejaVuSans-2e" transform="translate(127.001953 0.09375)"/>
      <use xlink:href="#DejaVuSans-35" transform="translate(158.789062 0.09375)"/>
     </g>
    </g>
    <g id="line2d_33">
     <path d="M 264.7 179.761562 
L 274.7 179.761562 
L 284.7 179.761562 
" style="fill: none; stroke: #313695; stroke-width: 1.5; stroke-linecap: square"/>
    </g>
    <g id="text_25">
     <!-- $\sigma$5.0 -->
     <g transform="translate(292.7 183.261562) scale(0.1 -0.1)">
      <use xlink:href="#DejaVuSans-Oblique-3c3" transform="translate(0 0.78125)"/>
      <use xlink:href="#DejaVuSans-35" transform="translate(63.378906 0.78125)"/>
      <use xlink:href="#DejaVuSans-2e" transform="translate(127.001953 0.78125)"/>
      <use xlink:href="#DejaVuSans-30" transform="translate(158.789062 0.78125)"/>
     </g>
    </g>
   </g>
  </g>
 </g>
 <defs>
  <clipPath id="p0e79036a3f">
   <rect x="45" y="34.56" width="279" height="221.76"/>
  </clipPath>
 </defs>
</svg>
