<?xml version="1.0" encoding="utf-8" standalone="no"?>
<!DOCTYPE svg PUBLIC "-//W3C//DTD SVG 1.1//EN"
  "http://www.w3.org/Graphics/SVG/1.1/DTD/svg11.dtd">
<svg xmlns:xlink="http://www.w3.org/1999/xlink" width="360pt" height="288pt" viewBox="0 0 360 288" xmlns="http://www.w3.org/2000/svg" version="1.1">
 <metadata>
  <rdf:RDF xmlns:dc="http://purl.org/dc/elements/1.1/" xmlns:cc="http://creativecommons.org/ns#" xmlns:rdf="http://www.w3.org/1999/02/22-rdf-syntax-ns#">
   <cc:Work>
    <dc:type rdf:resource="http://purl.org/dc/dcmitype/StillImage"/>
    <dc:date>2025-11-28T14:40:27.518298</dc:date>
    <dc:format>image/svg+xml</dc:format>
    <dc:creator>
     <cc:Agent>
      <dc:title>Matplotlib v3.10.6, https://matplotlib.org/</dc:title>
     </cc:Agent>
    </dc:creator>
   </cc:Work>
  </rdf:RDF>
 </metadata>
 <defs>
  <style type="text/css">*{stroke-linejoin: round; stroke-linecap: butt}</style>
 </defs>
 <g id="figure_1">
  <g id="patch_1">
   <path d="M 0 288 
L 360 288 
L 360 0 
L 0 0 
z
" style="fill: #ffffff"/>
  </g>
  <g id="axes_1">
   <g id="patch_2">
    <path d="M 45 256.32 
L 324 256.32 
L 324 34.56 
L 45 34.56 
z
" style="fill: #ffffff"/>
   </g>
   <g id="matplotlib.axis_1">
    <g id="xtick_1">
     <g id="line2d_1">
      <defs>
       <path id="m10f6a4c890" d="M 0 0 
L 0 3.5 
" style="stroke: #000000; stroke-width: 0.8"/>
      </defs>
      <g>
       <use xlink:href="#m10f6a4c890" x="57.681818" y="256.32" style="stroke: #000000; stroke-width: 0.8"/>
      </g>
     </g>
     <g id="text_1">
      <!-- 0 -->
      <g transform="translate(54.500568 270.918437) scale(0.1 -0.1)">
       <defs>
        <path id="DejaVuSans-30" d="M 2034 4250 
Q 1547 4250 1301 3770 
Q 1056 3291 1056 2328 
Q 1056 1369 1301 889 
Q 1547 409 2034 409 
Q 2525 409 2770 889 
Q 3016 1369 3016 2328 
Q 3016 3291 2770 3770 
Q 2525 4250 2034 4250 
z
M 2034 4750 
Q 2819 4750 3233 4129 
Q 3647 3509 3647 2328 
Q 3647 1150 3233 529 
Q 2819 -91 2034 -91 
Q 1250 -91 836 529 
Q 422 1150 422 2328 
Q 422 3509 836 4129 
Q 1250 4750 2034 4750 
z
" transform="scale(0.015625)"/>
       </defs>
       <use xlink:href="#DejaVuSans-30"/>
      </g>
     </g>
    </g>
    <g id="xtick_2">
     <g id="line2d_2">
      <g>
       <use xlink:href="#m10f6a4c890" x="98.049299" y="256.32" style="stroke: #000000; stroke-width: 0.8"/>
      </g>
     </g>
     <g id="text_2">
      <!-- 1 -->
      <g transform="translate(94.868049 270.918437) scale(0.1 -0.1)">
       <defs>
        <path id="DejaVuSans-31" d="M 794 531 
L 1825 531 
L 1825 4091 
L 703 3866 
L 703 4441 
L 1819 4666 
L 2450 4666 
L 2450 531 
L 3481 531 
L 3481 0 
L 794 0 
L 794 531 
z
" transform="scale(0.015625)"/>
       </defs>
       <use xlink:href="#DejaVuSans-31"/>
      </g>
     </g>
    </g>
    <g id="xtick_3">
     <g id="line2d_3">
      <g>
       <use xlink:href="#m10f6a4c890" x="138.41678" y="256.32" style="stroke: #000000; stroke-width: 0.8"/>
      </g>
     </g>
     <g id="text_3">
      <!-- 2 -->
      <g transform="translate(135.23553 270.918437) scale(0.1 -0.1)">
       <defs>
        <path id="DejaVuSans-32" d="M 1228 531 
L 3431 531 
L 3431 0 
L 469 0 
L 469 531 
Q 828 903 1448 1529 
Q 2069 2156 2228 2338 
Q 2531 2678 2651 2914 
Q 2772 3150 2772 3378 
Q 2772 3750 2511 3984 
Q 2250 4219 1831 4219 
Q 1534 4219 1204 4116 
Q 875 4013 500 3803 
L 500 4441 
Q 881 4594 1212 4672 
Q 1544 4750 1819 4750 
Q 2544 4750 2975 4387 
Q 3406 4025 3406 3419 
Q 3406 3131 3298 2873 
Q 3191 2616 2906 2266 
Q 2828 2175 2409 1742 
Q 1991 1309 1228 531 
z
" transform="scale(0.015625)"/>
       </defs>
       <use xlink:href="#DejaVuSans-32"/>
      </g>
     </g>
    </g>
    <g id="xtick_4">
     <g id="line2d_4">
      <g>
       <use xlink:href="#m10f6a4c890" x="178.784261" y="256.32" style="stroke: #000000; stroke-width: 0.8"/>
      </g>
     </g>
     <g id="text_4">
      <!-- 3 -->
      <g transform="translate(175.603011 270.918437) scale(0.1 -0.1)">
       <defs>
        <path id="DejaVuSans-33" d="M 2597 2516 
Q 3050 2419 3304 2112 
Q 3559 1806 3559 1356 
Q 3559 666 3084 287 
Q 2609 -91 1734 -91 
Q 1441 -91 1130 -33 
Q 819 25 488 141 
L 488 750 
Q 750 597 1062 519 
Q 1375 441 1716 441 
Q 2309 441 2620 675 
Q 2931 909 2931 1356 
Q 2931 1769 2642 2001 
Q 2353 2234 1838 2234 
L 1294 2234 
L 1294 2753 
L 1863 2753 
Q 2328 2753 2575 2939 
Q 2822 3125 2822 3475 
Q 2822 3834 2567 4026 
Q 2313 4219 1838 4219 
Q 1578 4219 1281 4162 
Q 984 4106 628 3988 
L 628 4550 
Q 988 4650 1302 4700 
Q 1616 4750 1894 4750 
Q 2613 4750 3031 4423 
Q 3450 4097 3450 3541 
Q 3450 3153 3228 2886 
Q 3006 2619 2597 2516 
z
" transform="scale(0.015625)"/>
       </defs>
       <use xlink:href="#DejaVuSans-33"/>
      </g>
     </g>
    </g>
    <g id="xtick_5">
     <g id="line2d_5">
      <g>
       <use xlink:href="#m10f6a4c890" x="219.151742" y="256.32" style="stroke: #000000; stroke-width: 0.8"/>
      </g>
     </g>
     <g id="text_5">
      <!-- 4 -->
      <g transform="translate(215.970492 270.918437) scale(0.1 -0.1)">
       <defs>
        <path id="DejaVuSans-34" d="M 2419 4116 
L 825 1625 
L 2419 1625 
L 2419 4116 
z
M 2253 4666 
L 3047 4666 
L 3047 1625 
L 3713 1625 
L 3713 1100 
L 3047 1100 
L 3047 0 
L 2419 0 
L 2419 1100 
L 313 1100 
L 313 1709 
L 2253 4666 
z
" transform="scale(0.015625)"/>
       </defs>
       <use xlink:href="#DejaVuSans-34"/>
      </g>
     </g>
    </g>
    <g id="xtick_6">
     <g id="line2d_6">
      <g>
       <use xlink:href="#m10f6a4c890" x="259.519223" y="256.32" style="stroke: #000000; stroke-width: 0.8"/>
      </g>
     </g>
     <g id="text_6">
      <!-- 5 -->
      <g transform="translate(256.337973 270.918437) scale(0.1 -0.1)">
       <defs>
        <path id="DejaVuSans-35" d="M 691 4666 
L 3169 4666 
L 3169 4134 
L 1269 4134 
L 1269 2991 
Q 1406 3038 1543 3061 
Q 1681 3084 1819 3084 
Q 2600 3084 3056 2656 
Q 3513 2228 3513 1497 
Q 3513 744 3044 326 
Q 2575 -91 1722 -91 
Q 1428 -91 1123 -41 
Q 819 9 494 109 
L 494 744 
Q 775 591 1075 516 
Q 1375 441 1709 441 
Q 2250 441 2565 725 
Q 2881 1009 2881 1497 
Q 2881 1984 2565 2268 
Q 2250 2553 1709 2553 
Q 1456 2553 1204 2497 
Q 953 2441 691 2322 
L 691 4666 
z
" transform="scale(0.015625)"/>
       </defs>
       <use xlink:href="#DejaVuSans-35"/>
      </g>
     </g>
    </g>
    <g id="xtick_7">
     <g id="line2d_7">
      <g>
       <use xlink:href="#m10f6a4c890" x="299.886704" y="256.32" style="stroke: #000000; stroke-width: 0.8"/>
      </g>
     </g>
     <g id="text_7">
      <!-- 6 -->
      <g transform="translate(296.705454 270.918437) scale(0.1 -0.1)">
       <defs>
        <path id="DejaVuSans-36" d="M 2113 2584 
Q 1688 2584 1439 2293 
Q 1191 2003 1191 1497 
Q 1191 994 1439 701 
Q 1688 409 2113 409 
Q 2538 409 2786 701 
Q 3034 994 3034 1497 
Q 3034 2003 2786 2293 
Q 2538 2584 2113 2584 
z
M 3366 4563 
L 3366 3988 
Q 3128 4100 2886 4159 
Q 2644 4219 2406 4219 
Q 1781 4219 1451 3797 
Q 1122 3375 1075 2522 
Q 1259 2794 1537 2939 
Q 1816 3084 2150 3084 
Q 2853 3084 3261 2657 
Q 3669 2231 3669 1497 
Q 3669 778 3244 343 
Q 2819 -91 2113 -91 
Q 1303 -91 875 529 
Q 447 1150 447 2328 
Q 447 3434 972 4092 
Q 1497 4750 2381 4750 
Q 2619 4750 2861 4703 
Q 3103 4656 3366 4563 
z
" transform="scale(0.015625)"/>
       </defs>
       <use xlink:href="#DejaVuSans-36"/>
      </g>
     </g>
    </g>
    <g id="text_8">
     <!-- x -->
     <g transform="translate(181.540625 284.596563) scale(0.1 -0.1)">
      <defs>
       <path id="DejaVuSans-78" d="M 3513 3500 
L 2247 1797 
L 3578 0 
L 2900 0 
L 1881 1375 
L 863 0 
L 184 0 
L 1544 1831 
L 300 3500 
L 978 3500 
L 1906 2253 
L 2834 3500 
L 3513 3500 
z
" transform="scale(0.015625)"/>
      </defs>
      <use xlink:href="#DejaVuSans-78"/>
     </g>
    </g>
   </g>
   <g id="matplotlib.axis_2">
    <g id="ytick_1">
     <g id="line2d_8">
      <defs>
       <path id="maec015bd99" d="M 0 0 
L -3.5 0 
" style="stroke: #000000; stroke-width: 0.8"/>
      </defs>
      <g>
       <use xlink:href="#maec015bd99" x="45" y="246.291816" style="stroke: #000000; stroke-width: 0.8"/>
      </g>
     </g>
     <g id="text_9">
      <!-- −1.00 -->
      <g transform="translate(7.354687 250.091035) scale(0.1 -0.1)">
       <defs>
        <path id="DejaVuSans-2212" d="M 678 2272 
L 4684 2272 
L 4684 1741 
L 678 1741 
L 678 2272 
z
" transform="scale(0.015625)"/>
        <path id="DejaVuSans-2e" d="M 684 794 
L 1344 794 
L 1344 0 
L 684 0 
L 684 794 
z
" transform="scale(0.015625)"/>
       </defs>
       <use xlink:href="#DejaVuSans-2212"/>
       <use xlink:href="#DejaVuSans-31" transform="translate(83.789062 0)"/>
       <use xlink:href="#DejaVuSans-2e" transform="translate(147.412109 0)"/>
       <use xlink:href="#DejaVuSans-30" transform="translate(179.199219 0)"/>
       <use xlink:href="#DejaVuSans-30" transform="translate(242.822266 0)"/>
      </g>
     </g>
    </g>
    <g id="ytick_2">
     <g id="line2d_9">
      <g>
       <use xlink:href="#maec015bd99" x="45" y="221.078862" style="stroke: #000000; stroke-width: 0.8"/>
      </g>
     </g>
     <g id="text_10">
      <!-- −0.75 -->
      <g transform="translate(7.354687 224.878081) scale(0.1 -0.1)">
       <defs>
        <path id="DejaVuSans-37" d="M 525 4666 
L 3525 4666 
L 3525 4397 
L 1831 0 
L 1172 0 
L 2766 4134 
L 525 4134 
L 525 4666 
z
" transform="scale(0.015625)"/>
       </defs>
       <use xlink:href="#DejaVuSans-2212"/>
       <use xlink:href="#DejaVuSans-30" transform="translate(83.789062 0)"/>
       <use xlink:href="#DejaVuSans-2e" transform="translate(147.412109 0)"/>
       <use xlink:href="#DejaVuSans-37" transform="translate(179.199219 0)"/>
       <use xlink:href="#DejaVuSans-35" transform="translate(242.822266 0)"/>
      </g>
     </g>
    </g>
    <g id="ytick_3">
     <g id="line2d_10">
      <g>
       <use xlink:href="#maec015bd99" x="45" y="195.865908" style="stroke: #000000; stroke-width: 0.8"/>
      </g>
     </g>
     <g id="text_11">
      <!-- −0.50 -->
      <g transform="translate(7.354687 199.665127) scale(0.1 -0.1)">
       <use xlink:href="#DejaVuSans-2212"/>
       <use xlink:href="#DejaVuSans-30" transform="translate(83.789062 0)"/>
       <use xlink:href="#DejaVuSans-2e" transform="translate(147.412109 0)"/>
       <use xlink:href="#DejaVuSans-35" transform="translate(179.199219 0)"/>
       <use xlink:href="#DejaVuSans-30" transform="translate(242.822266 0)"/>
      </g>
     </g>
    </g>
    <g id="ytick_4">
     <g id="line2d_11">
      <g>
       <use xlink:href="#maec015bd99" x="45" y="170.652954" style="stroke: #000000; stroke-width: 0.8"/>
      </g>
     </g>
     <g id="text_12">
      <!-- −0.25 -->
      <g transform="translate(7.354687 174.452173) scale(0.1 -0.1)">
       <use xlink:href="#DejaVuSans-2212"/>
       <use xlink:href="#DejaVuSans-30" transform="translate(83.789062 0)"/>
       <use xlink:href="#DejaVuSans-2e" transform="translate(147.412109 0)"/>
       <use xlink:href="#DejaVuSans-32" transform="translate(179.199219 0)"/>
       <use xlink:href="#DejaVuSans-35" transform="translate(242.822266 0)"/>
      </g>
     </g>
    </g>
    <g id="ytick_5">
     <g id="line2d_12">
      <g>
       <use xlink:href="#maec015bd99" x="45" y="145.44" style="stroke: #000000; stroke-width: 0.8"/>
      </g>
     </g>
     <g id="text_13">
      <!-- 0.00 -->
      <g transform="translate(15.734375 149.239219) scale(0.1 -0.1)">
       <use xlink:href="#DejaVuSans-30"/>
       <use xlink:href="#DejaVuSans-2e" transform="translate(63.623047 0)"/>
       <use xlink:href="#DejaVuSans-30" transform="translate(95.410156 0)"/>
       <use xlink:href="#DejaVuSans-30" transform="translate(159.033203 0)"/>
      </g>
     </g>
    </g>
    <g id="ytick_6">
     <g id="line2d_13">
      <g>
       <use xlink:href="#maec015bd99" x="45" y="120.227046" style="stroke: #000000; stroke-width: 0.8"/>
      </g>
     </g>
     <g id="text_14">
      <!-- 0.25 -->
      <g transform="translate(15.734375 124.026265) scale(0.1 -0.1)">
       <use xlink:href="#DejaVuSans-30"/>
       <use xlink:href="#DejaVuSans-2e" transform="translate(63.623047 0)"/>
       <use xlink:href="#DejaVuSans-32" transform="translate(95.410156 0)"/>
       <use xlink:href="#DejaVuSans-35" transform="translate(159.033203 0)"/>
      </g>
     </g>
    </g>
    <g id="ytick_7">
     <g id="line2d_14">
      <g>
       <use xlink:href="#maec015bd99" x="45" y="95.014092" style="stroke: #000000; stroke-width: 0.8"/>
      </g>
     </g>
     <g id="text_15">
      <!-- 0.50 -->
      <g transform="translate(15.734375 98.813311) scale(0.1 -0.1)">
       <use xlink:href="#DejaVuSans-30"/>
       <use xlink:href="#DejaVuSans-2e" transform="translate(63.623047 0)"/>
       <use xlink:href="#DejaVuSans-35" transform="translate(95.410156 0)"/>
       <use xlink:href="#DejaVuSans-30" transform="translate(159.033203 0)"/>
      </g>
     </g>
    </g>
    <g id="ytick_8">
     <g id="line2d_15">
      <g>
       <use xlink:href="#maec015bd99" x="45" y="69.801138" style="stroke: #000000; stroke-width: 0.8"/>
      </g>
     </g>
     <g id="text_16">
      <!-- 0.75 -->
      <g transform="translate(15.734375 73.600357) scale(0.1 -0.1)">
       <use xlink:href="#DejaVuSans-30"/>
       <use xlink:href="#DejaVuSans-2e" transform="translate(63.623047 0)"/>
       <use xlink:href="#DejaVuSans-37" transform="translate(95.410156 0)"/>
       <use xlink:href="#DejaVuSans-35" transform="translate(159.033203 0)"/>
      </g>
     </g>
    </g>
    <g id="ytick_9">
     <g id="line2d_16">
      <g>
       <use xlink:href="#maec015bd99" x="45" y="44.588184" style="stroke: #000000; stroke-width: 0.8"/>
      </g>
     </g>
     <g id="text_17">
      <!-- 1.00 -->
      <g transform="translate(15.734375 48.387403) scale(0.1 -0.1)">
       <use xlink:href="#DejaVuSans-31"/>
       <use xlink:href="#DejaVuSans-2e" transform="translate(63.623047 0)"/>
       <use xlink:href="#DejaVuSans-30" transform="translate(95.410156 0)"/>
       <use xlink:href="#DejaVuSans-30" transform="translate(159.033203 0)"/>
      </g>
     </g>
    </g>
    <g id="text_18">
     <!-- PDF,$f_X(x)$ -->
     <g transform="translate(1.275 167.94) rotate(-90) scale(0.1 -0.1)">
      <defs>
       <path id="DejaVuSans-50" d="M 1259 4147 
L 1259 2394 
L 2053 2394 
Q 2494 2394 2734 2622 
Q 2975 2850 2975 3272 
Q 2975 3691 2734 3919 
Q 2494 4147 2053 4147 
L 1259 4147 
z
M 628 4666 
L 2053 4666 
Q 2838 4666 3239 4311 
Q 3641 3956 3641 3272 
Q 3641 2581 3239 2228 
Q 2838 1875 2053 1875 
L 1259 1875 
L 1259 0 
L 628 0 
L 628 4666 
z
" transform="scale(0.015625)"/>
       <path id="DejaVuSans-44" d="M 1259 4147 
L 1259 519 
L 2022 519 
Q 2988 519 3436 956 
Q 3884 1394 3884 2338 
Q 3884 3275 3436 3711 
Q 2988 4147 2022 4147 
L 1259 4147 
z
M 628 4666 
L 1925 4666 
Q 3281 4666 3915 4102 
Q 4550 3538 4550 2338 
Q 4550 1131 3912 565 
Q 3275 0 1925 0 
L 628 0 
L 628 4666 
z
" transform="scale(0.015625)"/>
       <path id="DejaVuSans-46" d="M 628 4666 
L 3309 4666 
L 3309 4134 
L 1259 4134 
L 1259 2759 
L 3109 2759 
L 3109 2228 
L 1259 2228 
L 1259 0 
L 628 0 
L 628 4666 
z
" transform="scale(0.015625)"/>
       <path id="DejaVuSans-2c" d="M 750 794 
L 1409 794 
L 1409 256 
L 897 -744 
L 494 -744 
L 750 256 
L 750 794 
z
" transform="scale(0.015625)"/>
       <path id="DejaVuSans-Oblique-66" d="M 3059 4863 
L 2969 4384 
L 2419 4384 
Q 2106 4384 1964 4261 
Q 1822 4138 1753 3809 
L 1691 3500 
L 2638 3500 
L 2553 3053 
L 1606 3053 
L 1013 0 
L 434 0 
L 1031 3053 
L 481 3053 
L 563 3500 
L 1113 3500 
L 1159 3744 
Q 1278 4363 1576 4613 
Q 1875 4863 2516 4863 
L 3059 4863 
z
" transform="scale(0.015625)"/>
       <path id="DejaVuSans-Oblique-58" d="M 878 4666 
L 1516 4666 
L 2316 2981 
L 3763 4666 
L 4500 4666 
L 2578 2438 
L 3738 0 
L 3103 0 
L 2163 1966 
L 459 0 
L -275 0 
L 1906 2509 
L 878 4666 
z
" transform="scale(0.015625)"/>
       <path id="DejaVuSans-28" d="M 1984 4856 
Q 1566 4138 1362 3434 
Q 1159 2731 1159 2009 
Q 1159 1288 1364 580 
Q 1569 -128 1984 -844 
L 1484 -844 
Q 1016 -109 783 600 
Q 550 1309 550 2009 
Q 550 2706 781 3412 
Q 1013 4119 1484 4856 
L 1984 4856 
z
" transform="scale(0.015625)"/>
       <path id="DejaVuSans-Oblique-78" d="M 3841 3500 
L 2234 1784 
L 3219 0 
L 2559 0 
L 1819 1388 
L 531 0 
L -166 0 
L 1556 1844 
L 641 3500 
L 1300 3500 
L 1972 2234 
L 3144 3500 
L 3841 3500 
z
" transform="scale(0.015625)"/>
       <path id="DejaVuSans-29" d="M 513 4856 
L 1013 4856 
Q 1481 4119 1714 3412 
Q 1947 2706 1947 2009 
Q 1947 1309 1714 600 
Q 1481 -109 1013 -844 
L 513 -844 
Q 928 -128 1133 580 
Q 1338 1288 1338 2009 
Q 1338 2731 1133 3434 
Q 928 4138 513 4856 
z
" transform="scale(0.015625)"/>
      </defs>
      <use xlink:href="#DejaVuSans-50" transform="translate(0 0.015625)"/>
      <use xlink:href="#DejaVuSans-44" transform="translate(60.302734 0.015625)"/>
      <use xlink:href="#DejaVuSans-46" transform="translate(137.304688 0.015625)"/>
      <use xlink:href="#DejaVuSans-2c" transform="translate(194.824219 0.015625)"/>
      <use xlink:href="#DejaVuSans-Oblique-66" transform="translate(226.611328 0.015625)"/>
      <use xlink:href="#DejaVuSans-Oblique-58" transform="translate(261.816406 -16.390625) scale(0.7)"/>
      <use xlink:href="#DejaVuSans-28" transform="translate(312.504883 0.015625)"/>
      <use xlink:href="#DejaVuSans-Oblique-78" transform="translate(351.518555 0.015625)"/>
      <use xlink:href="#DejaVuSans-29" transform="translate(410.698242 0.015625)"/>
     </g>
    </g>
   </g>
   <g id="line2d_17">
    <path d="M 57.681818 145.44 
L 62.858071 132.543356 
L 68.034323 119.858475 
L 73.210575 107.593641 
L 78.386827 95.950244 
L 83.56308 85.119467 
L 88.739332 75.279151 
L 93.915584 66.590875 
L 99.091837 59.197299 
L 104.268089 53.219826 
L 109.444341 48.756606 
L 114.620594 45.880924 
L 119.796846 44.64 
L 124.973098 45.054209 
L 130.149351 47.11675 
L 135.325603 50.793755 
L 140.501855 56.02485 
L 145.678108 62.724139 
L 150.85436 70.78162 
L 156.030612 80.064989 
L 161.206865 90.421815 
L 166.383117 101.682037 
L 171.559369 113.660764 
L 176.735622 126.161305 
L 181.911874 138.978402 
L 187.088126 151.901598 
L 192.264378 164.718695 
L 197.440631 177.219236 
L 202.616883 189.197963 
L 207.793135 200.458185 
L 212.969388 210.815011 
L 218.14564 220.09838 
L 223.321892 228.155861 
L 228.498145 234.85515 
L 233.674397 240.086245 
L 238.850649 243.76325 
L 244.026902 245.825791 
L 249.203154 246.24 
L 254.379406 244.999076 
L 259.555659 242.123394 
L 264.731911 237.660174 
L 269.908163 231.682701 
L 275.084416 224.289125 
L 280.260668 215.600849 
L 285.43692 205.760533 
L 290.613173 194.929756 
L 295.789425 183.286359 
L 300.965677 171.021525 
L 306.141929 158.336644 
L 311.318182 145.44 
" clip-path="url(#p9a1fb617c3)" style="fill: none; stroke: #08306b; stroke-width: 1.5; stroke-linecap: square"/>
   </g>
   <g id="line2d_18">
    <path d="M 57.681818 145.44 
L 62.858071 133.83302 
L 68.034323 122.416627 
L 73.210575 111.378277 
L 78.386827 100.899219 
L 83.56308 91.15152 
L 88.739332 82.295236 
L 93.915584 74.475788 
L 99.091837 67.821569 
L 104.268089 62.441844 
L 109.444341 58.424945 
L 114.620594 55.836832 
L 119.796846 54.72 
L 124.973098 55.092788 
L 130.149351 56.949075 
L 135.325603 60.25838 
L 140.501855 64.966365 
L 145.678108 70.995725 
L 150.85436 78.247458 
L 156.030612 86.60249 
L 161.206865 95.923633 
L 166.383117 106.057833 
L 171.559369 116.838688 
L 176.735622 128.089175 
L 181.911874 139.624562 
L 187.088126 151.255438 
L 192.264378 162.790825 
L 197.440631 174.041312 
L 202.616883 184.822167 
L 207.793135 194.956367 
L 212.969388 204.27751 
L 218.14564 212.632542 
L 223.321892 219.884275 
L 228.498145 225.913635 
L 233.674397 230.62162 
L 238.850649 233.930925 
L 244.026902 235.787212 
L 249.203154 236.16 
L 254.379406 235.043168 
L 259.555659 232.455055 
L 264.731911 228.438156 
L 269.908163 223.058431 
L 275.084416 216.404212 
L 280.260668 208.584764 
L 285.43692 199.72848 
L 290.613173 189.980781 
L 295.789425 179.501723 
L 300.965677 168.463373 
L 306.141929 157.04698 
L 311.318182 145.44 
" clip-path="url(#p9a1fb617c3)" style="fill: none; stroke: #084d96; stroke-width: 1.5; stroke-linecap: square"/>
   </g>
   <g id="line2d_19">
    <path d="M 57.681818 145.44 
L 62.858071 135.122685 
L 68.034323 124.97478 
L 73.210575 115.162913 
L 78.386827 105.848195 
L 83.56308 97.183573 
L 88.739332 89.311321 
L 93.915584 82.3607 
L 99.091837 76.44584 
L 104.268089 71.663861 
L 109.444341 68.093285 
L 114.620594 65.79274 
L 119.796846 64.8 
L 124.973098 65.131367 
L 130.149351 66.7814 
L 135.325603 69.723004 
L 140.501855 73.90788 
L 145.678108 79.267311 
L 150.85436 85.713296 
L 156.030612 93.139991 
L 161.206865 101.425452 
L 166.383117 110.43363 
L 171.559369 120.016611 
L 176.735622 130.017044 
L 181.911874 140.270722 
L 187.088126 150.609278 
L 192.264378 160.862956 
L 197.440631 170.863389 
L 202.616883 180.44637 
L 207.793135 189.454548 
L 212.969388 197.740009 
L 218.14564 205.166704 
L 223.321892 211.612689 
L 228.498145 216.97212 
L 233.674397 221.156996 
L 238.850649 224.0986 
L 244.026902 225.748633 
L 249.203154 226.08 
L 254.379406 225.08726 
L 259.555659 222.786715 
L 264.731911 219.216139 
L 269.908163 214.43416 
L 275.084416 208.5193 
L 280.260668 201.568679 
L 285.43692 193.696427 
L 290.613173 185.031805 
L 295.789425 175.717087 
L 300.965677 165.90522 
L 306.141929 155.757315 
L 311.318182 145.44 
" clip-path="url(#p9a1fb617c3)" style="fill: none; stroke: #1b69af; stroke-width: 1.5; stroke-linecap: square"/>
   </g>
   <g id="line2d_20">
    <path d="M 57.681818 145.44 
L 62.858071 136.412349 
L 68.034323 127.532932 
L 73.210575 118.947549 
L 78.386827 110.797171 
L 83.56308 103.215627 
L 88.739332 96.327406 
L 93.915584 90.245613 
L 99.091837 85.07011 
L 104.268089 80.885878 
L 109.444341 77.761624 
L 114.620594 75.748647 
L 119.796846 74.88 
L 124.973098 75.169946 
L 130.149351 76.613725 
L 135.325603 79.187629 
L 140.501855 82.849395 
L 145.678108 87.538897 
L 150.85436 93.179134 
L 156.030612 99.677492 
L 161.206865 106.92727 
L 166.383117 114.809426 
L 171.559369 123.194535 
L 176.735622 131.944914 
L 181.911874 140.916881 
L 187.088126 149.963119 
L 192.264378 158.935086 
L 197.440631 167.685465 
L 202.616883 176.070574 
L 207.793135 183.95273 
L 212.969388 191.202508 
L 218.14564 197.700866 
L 223.321892 203.341103 
L 228.498145 208.030605 
L 233.674397 211.692371 
L 238.850649 214.266275 
L 244.026902 215.710054 
L 249.203154 216 
L 254.379406 215.131353 
L 259.555659 213.118376 
L 264.731911 209.994122 
L 269.908163 205.80989 
L 275.084416 200.634387 
L 280.260668 194.552594 
L 285.43692 187.664373 
L 290.613173 180.082829 
L 295.789425 171.932451 
L 300.965677 163.347068 
L 306.141929 154.467651 
L 311.318182 145.44 
" clip-path="url(#p9a1fb617c3)" style="fill: none; stroke: #3787c0; stroke-width: 1.5; stroke-linecap: square"/>
   </g>
   <g id="line2d_21">
    <path d="M 57.681818 145.44 
L 62.858071 137.702014 
L 68.034323 130.091085 
L 73.210575 122.732185 
L 78.386827 115.746146 
L 83.56308 109.24768 
L 88.739332 103.343491 
L 93.915584 98.130525 
L 99.091837 93.69438 
L 104.268089 90.107896 
L 109.444341 87.429964 
L 114.620594 85.704555 
L 119.796846 84.96 
L 124.973098 85.208525 
L 130.149351 86.44605 
L 135.325603 88.652253 
L 140.501855 91.79091 
L 145.678108 95.810483 
L 150.85436 100.644972 
L 156.030612 106.214993 
L 161.206865 112.429089 
L 166.383117 119.185222 
L 171.559369 126.372458 
L 176.735622 133.872783 
L 181.911874 141.563041 
L 187.088126 149.316959 
L 192.264378 157.007217 
L 197.440631 164.507542 
L 202.616883 171.694778 
L 207.793135 178.450911 
L 212.969388 184.665007 
L 218.14564 190.235028 
L 223.321892 195.069517 
L 228.498145 199.08909 
L 233.674397 202.227747 
L 238.850649 204.43395 
L 244.026902 205.671475 
L 249.203154 205.92 
L 254.379406 205.175445 
L 259.555659 203.450036 
L 264.731911 200.772104 
L 269.908163 197.18562 
L 275.084416 192.749475 
L 280.260668 187.536509 
L 285.43692 181.63232 
L 290.613173 175.133854 
L 295.789425 168.147815 
L 300.965677 160.788915 
L 306.141929 153.177986 
L 311.318182 145.44 
" clip-path="url(#p9a1fb617c3)" style="fill: none; stroke: #58a1cf; stroke-width: 1.5; stroke-linecap: square"/>
   </g>
   <g id="line2d_22">
    <path d="M 57.681818 145.44 
L 62.858071 138.991678 
L 68.034323 132.649237 
L 73.210575 126.516821 
L 78.386827 120.695122 
L 83.56308 115.279733 
L 88.739332 110.359576 
L 93.915584 106.015438 
L 99.091837 102.31865 
L 104.268089 99.329913 
L 109.444341 97.098303 
L 114.620594 95.660462 
L 119.796846 95.04 
L 124.973098 95.247104 
L 130.149351 96.278375 
L 135.325603 98.116878 
L 140.501855 100.732425 
L 145.678108 104.082069 
L 150.85436 108.11081 
L 156.030612 112.752495 
L 161.206865 117.930907 
L 166.383117 123.561018 
L 171.559369 129.550382 
L 176.735622 135.800653 
L 181.911874 142.209201 
L 187.088126 148.670799 
L 192.264378 155.079347 
L 197.440631 161.329618 
L 202.616883 167.318982 
L 207.793135 172.949093 
L 212.969388 178.127505 
L 218.14564 182.76919 
L 223.321892 186.797931 
L 228.498145 190.147575 
L 233.674397 192.763122 
L 238.850649 194.601625 
L 244.026902 195.632896 
L 249.203154 195.84 
L 254.379406 195.219538 
L 259.555659 193.781697 
L 264.731911 191.550087 
L 269.908163 188.56135 
L 275.084416 184.864562 
L 280.260668 180.520424 
L 285.43692 175.600267 
L 290.613173 170.184878 
L 295.789425 164.363179 
L 300.965677 158.230763 
L 306.141929 151.888322 
L 311.318182 145.44 
" clip-path="url(#p9a1fb617c3)" style="fill: none; stroke: #82bbdb; stroke-width: 1.5; stroke-linecap: square"/>
   </g>
   <g id="line2d_23">
    <path d="M 57.681818 145.44 
L 62.858071 140.281342 
L 68.034323 135.20739 
L 73.210575 130.301456 
L 78.386827 125.644097 
L 83.56308 121.311787 
L 88.739332 117.375661 
L 93.915584 113.90035 
L 99.091837 110.94292 
L 104.268089 108.551931 
L 109.444341 106.766642 
L 114.620594 105.61637 
L 119.796846 105.12 
L 124.973098 105.285684 
L 130.149351 106.1107 
L 135.325603 107.581502 
L 140.501855 109.67394 
L 145.678108 112.353655 
L 150.85436 115.576648 
L 156.030612 119.289996 
L 161.206865 123.432726 
L 166.383117 127.936815 
L 171.559369 132.728306 
L 176.735622 137.728522 
L 181.911874 142.855361 
L 187.088126 148.024639 
L 192.264378 153.151478 
L 197.440631 158.151694 
L 202.616883 162.943185 
L 207.793135 167.447274 
L 212.969388 171.590004 
L 218.14564 175.303352 
L 223.321892 178.526345 
L 228.498145 181.20606 
L 233.674397 183.298498 
L 238.850649 184.7693 
L 244.026902 185.594316 
L 249.203154 185.76 
L 254.379406 185.26363 
L 259.555659 184.113358 
L 264.731911 182.328069 
L 269.908163 179.93708 
L 275.084416 176.97965 
L 280.260668 173.504339 
L 285.43692 169.568213 
L 290.613173 165.235903 
L 295.789425 160.578544 
L 300.965677 155.67261 
L 306.141929 150.598658 
L 311.318182 145.44 
" clip-path="url(#p9a1fb617c3)" style="fill: none; stroke: #abd0e6; stroke-width: 1.5; stroke-linecap: square"/>
   </g>
   <g id="line2d_24">
    <path d="M 57.681818 145.44 
L 62.858071 141.571007 
L 68.034323 137.765542 
L 73.210575 134.086092 
L 78.386827 130.593073 
L 83.56308 127.34384 
L 88.739332 124.391745 
L 93.915584 121.785263 
L 99.091837 119.56719 
L 104.268089 117.773948 
L 109.444341 116.434982 
L 114.620594 115.572277 
L 119.796846 115.2 
L 124.973098 115.324263 
L 130.149351 115.943025 
L 135.325603 117.046127 
L 140.501855 118.615455 
L 145.678108 120.625242 
L 150.85436 123.042486 
L 156.030612 125.827497 
L 161.206865 128.934544 
L 166.383117 132.312611 
L 171.559369 135.906229 
L 176.735622 139.656392 
L 181.911874 143.501521 
L 187.088126 147.378479 
L 192.264378 151.223608 
L 197.440631 154.973771 
L 202.616883 158.567389 
L 207.793135 161.945456 
L 212.969388 165.052503 
L 218.14564 167.837514 
L 223.321892 170.254758 
L 228.498145 172.264545 
L 233.674397 173.833873 
L 238.850649 174.936975 
L 244.026902 175.555737 
L 249.203154 175.68 
L 254.379406 175.307723 
L 259.555659 174.445018 
L 264.731911 173.106052 
L 269.908163 171.31281 
L 275.084416 169.094737 
L 280.260668 166.488255 
L 285.43692 163.53616 
L 290.613173 160.286927 
L 295.789425 156.793908 
L 300.965677 153.114458 
L 306.141929 149.308993 
L 311.318182 145.44 
" clip-path="url(#p9a1fb617c3)" style="fill: none; stroke: #ccdff1; stroke-width: 1.5; stroke-linecap: square"/>
   </g>
   <g id="line2d_25">
    <path d="M 57.681818 145.44 
L 62.858071 142.860671 
L 68.034323 140.323695 
L 73.210575 137.870728 
L 78.386827 135.542049 
L 83.56308 133.375893 
L 88.739332 131.40783 
L 93.915584 129.670175 
L 99.091837 128.19146 
L 104.268089 126.995965 
L 109.444341 126.103321 
L 114.620594 125.528185 
L 119.796846 125.28 
L 124.973098 125.362842 
L 130.149351 125.77535 
L 135.325603 126.510751 
L 140.501855 127.55697 
L 145.678108 128.896828 
L 150.85436 130.508324 
L 156.030612 132.364998 
L 161.206865 134.436363 
L 166.383117 136.688407 
L 171.559369 139.084153 
L 176.735622 141.584261 
L 181.911874 144.14768 
L 187.088126 146.73232 
L 192.264378 149.295739 
L 197.440631 151.795847 
L 202.616883 154.191593 
L 207.793135 156.443637 
L 212.969388 158.515002 
L 218.14564 160.371676 
L 223.321892 161.983172 
L 228.498145 163.32303 
L 233.674397 164.369249 
L 238.850649 165.10465 
L 244.026902 165.517158 
L 249.203154 165.6 
L 254.379406 165.351815 
L 259.555659 164.776679 
L 264.731911 163.884035 
L 269.908163 162.68854 
L 275.084416 161.209825 
L 280.260668 159.47217 
L 285.43692 157.504107 
L 290.613173 155.337951 
L 295.789425 153.009272 
L 300.965677 150.556305 
L 306.141929 148.019329 
L 311.318182 145.44 
" clip-path="url(#p9a1fb617c3)" style="fill: none; stroke: #e1edf8; stroke-width: 1.5; stroke-linecap: square"/>
   </g>
   <g id="line2d_26">
    <path d="M 57.681818 145.44 
L 62.858071 144.150336 
L 68.034323 142.881847 
L 73.210575 141.655364 
L 78.386827 140.491024 
L 83.56308 139.407947 
L 88.739332 138.423915 
L 93.915584 137.555088 
L 99.091837 136.81573 
L 104.268089 136.217983 
L 109.444341 135.771661 
L 114.620594 135.484092 
L 119.796846 135.36 
L 124.973098 135.401421 
L 130.149351 135.607675 
L 135.325603 135.975376 
L 140.501855 136.498485 
L 145.678108 137.168414 
L 150.85436 137.974162 
L 156.030612 138.902499 
L 161.206865 139.938181 
L 166.383117 141.064204 
L 171.559369 142.262076 
L 176.735622 143.512131 
L 181.911874 144.79384 
L 187.088126 146.08616 
L 192.264378 147.367869 
L 197.440631 148.617924 
L 202.616883 149.815796 
L 207.793135 150.941819 
L 212.969388 151.977501 
L 218.14564 152.905838 
L 223.321892 153.711586 
L 228.498145 154.381515 
L 233.674397 154.904624 
L 238.850649 155.272325 
L 244.026902 155.478579 
L 249.203154 155.52 
L 254.379406 155.395908 
L 259.555659 155.108339 
L 264.731911 154.662017 
L 269.908163 154.06427 
L 275.084416 153.324912 
L 280.260668 152.456085 
L 285.43692 151.472053 
L 290.613173 150.388976 
L 295.789425 149.224636 
L 300.965677 147.998153 
L 306.141929 146.729664 
L 311.318182 145.44 
" clip-path="url(#p9a1fb617c3)" style="fill: none; stroke: #f7fbff; stroke-width: 1.5; stroke-linecap: square"/>
   </g>
   <g id="patch_3">
    <path d="M 45 256.32 
L 45 34.56 
" style="fill: none; stroke: #000000; stroke-width: 0.8; stroke-linejoin: miter; stroke-linecap: square"/>
   </g>
   <g id="patch_4">
    <path d="M 324 256.32 
L 324 34.56 
" style="fill: none; stroke: #000000; stroke-width: 0.8; stroke-linejoin: miter; stroke-linecap: square"/>
   </g>
   <g id="patch_5">
    <path d="M 45 256.32 
L 324 256.32 
" style="fill: none; stroke: #000000; stroke-width: 0.8; stroke-linejoin: miter; stroke-linecap: square"/>
   </g>
   <g id="patch_6">
    <path d="M 45 34.56 
L 324 34.56 
" style="fill: none; stroke: #000000; stroke-width: 0.8; stroke-linejoin: miter; stroke-linecap: square"/>
   </g>
  </g>
 </g>
 <defs>
  <clipPath id="p9a1fb617c3">
   <rect x="45" y="34.56" width="279" height="221.76"/>
  </clipPath>
 </defs>
</svg>
