<?xml version="1.0" encoding="utf-8" standalone="no"?>
<!DOCTYPE svg PUBLIC "-//W3C//DTD SVG 1.1//EN"
  "http://www.w3.org/Graphics/SVG/1.1/DTD/svg11.dtd">
<svg xmlns:xlink="http://www.w3.org/1999/xlink" width="360pt" height="360pt" viewBox="0 0 360 360" xmlns="http://www.w3.org/2000/svg" version="1.1">
 <metadata>
  <rdf:RDF xmlns:dc="http://purl.org/dc/elements/1.1/" xmlns:cc="http://creativecommons.org/ns#" xmlns:rdf="http://www.w3.org/1999/02/22-rdf-syntax-ns#">
   <cc:Work>
    <dc:type rdf:resource="http://purl.org/dc/dcmitype/StillImage"/>
    <dc:date>2025-12-12T12:17:04.559345</dc:date>
    <dc:format>image/svg+xml</dc:format>
    <dc:creator>
     <cc:Agent>
      <dc:title>Matplotlib v3.10.6, https://matplotlib.org/</dc:title>
     </cc:Agent>
    </dc:creator>
   </cc:Work>
  </rdf:RDF>
 </metadata>
 <defs>
  <style type="text/css">*{stroke-linejoin: round; stroke-linecap: butt}</style>
 </defs>
 <g id="figure_1">
  <g id="patch_1">
   <path d="M 0 360 
L 360 360 
L 360 0 
L 0 0 
z
" style="fill: #ffffff"/>
  </g>
  <g id="axes_1">
   <g id="patch_2">
    <path d="M 45.9 320.4 
L 323.1 320.4 
L 323.1 43.2 
L 45.9 43.2 
z
" style="fill: #ffffff"/>
   </g>
   <g id="patch_3">
    <path d="M 184.5 181.8 
L 202.98 181.8 
L 202.98 163.32 
L 184.5 163.32 
z
" clip-path="url(#p74353de098)" style="fill: #92d050; opacity: 0.5; stroke: #92d050; stroke-linejoin: miter"/>
   </g>
   <g id="Quiver_1">
    <path d="M 184.5 180.7605 
L 193.6245 180.7605 
L 192.585 178.6815 
L 202.98 181.8 
L 192.585 184.9185 
L 193.6245 182.8395 
L 184.5 182.8395 
L 184.5 180.7605 
" clip-path="url(#p74353de098)" style="fill: #ff0000"/>
   </g>
   <g id="Quiver_2">
    <path d="M 183.4605 181.8 
L 183.4605 172.6755 
L 181.3815 173.715 
L 184.5 163.32 
L 187.6185 173.715 
L 185.5395 172.6755 
L 185.5395 181.8 
L 183.4605 181.8 
" clip-path="url(#p74353de098)" style="fill: #008000"/>
   </g>
   <g id="matplotlib.axis_1"/>
   <g id="matplotlib.axis_2"/>
   <g id="line2d_1">
    <path clip-path="url(#p74353de098)" style="fill: none; stroke: #cccccc; stroke-width: 0.25; stroke-linecap: square"/>
   </g>
   <g id="line2d_2">
    <path clip-path="url(#p74353de098)" style="fill: none; stroke: #cccccc; stroke-width: 0.25; stroke-linecap: square"/>
   </g>
   <g id="line2d_3">
    <path clip-path="url(#p74353de098)" style="fill: none; stroke: #cccccc; stroke-width: 0.25; stroke-linecap: square"/>
   </g>
   <g id="line2d_4">
    <path clip-path="url(#p74353de098)" style="fill: none; stroke: #cccccc; stroke-width: 0.25; stroke-linecap: square"/>
   </g>
   <g id="line2d_5">
    <path clip-path="url(#p74353de098)" style="fill: none; stroke: #cccccc; stroke-width: 0.25; stroke-linecap: square"/>
   </g>
   <g id="line2d_6">
    <path clip-path="url(#p74353de098)" style="fill: none; stroke: #cccccc; stroke-width: 0.25; stroke-linecap: square"/>
   </g>
   <g id="line2d_7">
    <path clip-path="url(#p74353de098)" style="fill: none; stroke: #cccccc; stroke-width: 0.25; stroke-linecap: square"/>
   </g>
   <g id="line2d_8">
    <path clip-path="url(#p74353de098)" style="fill: none; stroke: #cccccc; stroke-width: 0.25; stroke-linecap: square"/>
   </g>
   <g id="line2d_9">
    <path clip-path="url(#p74353de098)" style="fill: none; stroke: #cccccc; stroke-width: 0.25; stroke-linecap: square"/>
   </g>
   <g id="line2d_10">
    <path clip-path="url(#p74353de098)" style="fill: none; stroke: #cccccc; stroke-width: 0.25; stroke-linecap: square"/>
   </g>
   <g id="line2d_11">
    <path clip-path="url(#p74353de098)" style="fill: none; stroke: #cccccc; stroke-width: 0.25; stroke-linecap: square"/>
   </g>
   <g id="line2d_12">
    <path clip-path="url(#p74353de098)" style="fill: none; stroke: #cccccc; stroke-width: 0.25; stroke-linecap: square"/>
   </g>
   <g id="line2d_13">
    <path clip-path="url(#p74353de098)" style="fill: none; stroke: #cccccc; stroke-width: 0.25; stroke-linecap: square"/>
   </g>
   <g id="line2d_14">
    <path clip-path="url(#p74353de098)" style="fill: none; stroke: #cccccc; stroke-width: 0.25; stroke-linecap: square"/>
   </g>
   <g id="line2d_15">
    <path clip-path="url(#p74353de098)" style="fill: none; stroke: #cccccc; stroke-width: 0.25; stroke-linecap: square"/>
   </g>
   <g id="line2d_16">
    <path clip-path="url(#p74353de098)" style="fill: none; stroke: #cccccc; stroke-width: 0.25; stroke-linecap: square"/>
   </g>
   <g id="line2d_17">
    <path d="M -0.3 361 
L -0.3 320.4 
L -0.3 274.2 
L -0.3 228 
L -0.3 181.8 
L -0.3 135.6 
L -0.3 89.4 
L -0.3 43.2 
L -0.3 -1 
" clip-path="url(#p74353de098)" style="fill: none; stroke: #cccccc; stroke-width: 0.25; stroke-linecap: square"/>
   </g>
   <g id="line2d_18">
    <path d="M 45.9 361 
L 45.9 320.4 
L 45.9 274.2 
L 45.9 228 
L 45.9 181.8 
L 45.9 135.6 
L 45.9 89.4 
L 45.9 43.2 
L 45.9 -1 
" clip-path="url(#p74353de098)" style="fill: none; stroke: #cccccc; stroke-width: 0.25; stroke-linecap: square"/>
   </g>
   <g id="line2d_19">
    <path d="M 92.1 361 
L 92.1 320.4 
L 92.1 274.2 
L 92.1 228 
L 92.1 181.8 
L 92.1 135.6 
L 92.1 89.4 
L 92.1 43.2 
L 92.1 -1 
" clip-path="url(#p74353de098)" style="fill: none; stroke: #cccccc; stroke-width: 0.25; stroke-linecap: square"/>
   </g>
   <g id="line2d_20">
    <path d="M 138.3 361 
L 138.3 320.4 
L 138.3 274.2 
L 138.3 228 
L 138.3 181.8 
L 138.3 135.6 
L 138.3 89.4 
L 138.3 43.2 
L 138.3 -1 
" clip-path="url(#p74353de098)" style="fill: none; stroke: #cccccc; stroke-width: 0.25; stroke-linecap: square"/>
   </g>
   <g id="line2d_21">
    <path d="M 184.5 361 
L 184.5 320.4 
L 184.5 274.2 
L 184.5 228 
L 184.5 181.8 
L 184.5 135.6 
L 184.5 89.4 
L 184.5 43.2 
L 184.5 -1 
" clip-path="url(#p74353de098)" style="fill: none; stroke: #cccccc; stroke-width: 0.25; stroke-linecap: square"/>
   </g>
   <g id="line2d_22">
    <path d="M 230.7 361 
L 230.7 320.4 
L 230.7 274.2 
L 230.7 228 
L 230.7 181.8 
L 230.7 135.6 
L 230.7 89.4 
L 230.7 43.2 
L 230.7 -1 
" clip-path="url(#p74353de098)" style="fill: none; stroke: #cccccc; stroke-width: 0.25; stroke-linecap: square"/>
   </g>
   <g id="line2d_23">
    <path d="M 276.9 361 
L 276.9 320.4 
L 276.9 274.2 
L 276.9 228 
L 276.9 181.8 
L 276.9 135.6 
L 276.9 89.4 
L 276.9 43.2 
L 276.9 -1 
" clip-path="url(#p74353de098)" style="fill: none; stroke: #cccccc; stroke-width: 0.25; stroke-linecap: square"/>
   </g>
   <g id="line2d_24">
    <path d="M 323.1 361 
L 323.1 320.4 
L 323.1 274.2 
L 323.1 228 
L 323.1 181.8 
L 323.1 135.6 
L 323.1 89.4 
L 323.1 43.2 
L 323.1 -1 
" clip-path="url(#p74353de098)" style="fill: none; stroke: #cccccc; stroke-width: 0.25; stroke-linecap: square"/>
   </g>
   <g id="line2d_25">
    <path clip-path="url(#p74353de098)" style="fill: none; stroke: #cccccc; stroke-width: 0.25; stroke-linecap: square"/>
   </g>
   <g id="line2d_26">
    <path clip-path="url(#p74353de098)" style="fill: none; stroke: #cccccc; stroke-width: 0.25; stroke-linecap: square"/>
   </g>
   <g id="line2d_27">
    <path clip-path="url(#p74353de098)" style="fill: none; stroke: #cccccc; stroke-width: 0.25; stroke-linecap: square"/>
   </g>
   <g id="line2d_28">
    <path clip-path="url(#p74353de098)" style="fill: none; stroke: #cccccc; stroke-width: 0.25; stroke-linecap: square"/>
   </g>
   <g id="line2d_29">
    <path clip-path="url(#p74353de098)" style="fill: none; stroke: #cccccc; stroke-width: 0.25; stroke-linecap: square"/>
   </g>
   <g id="line2d_30">
    <path clip-path="url(#p74353de098)" style="fill: none; stroke: #cccccc; stroke-width: 0.25; stroke-linecap: square"/>
   </g>
   <g id="line2d_31">
    <path clip-path="url(#p74353de098)" style="fill: none; stroke: #cccccc; stroke-width: 0.25; stroke-linecap: square"/>
   </g>
   <g id="line2d_32">
    <path clip-path="url(#p74353de098)" style="fill: none; stroke: #cccccc; stroke-width: 0.25; stroke-linecap: square"/>
   </g>
   <g id="line2d_33">
    <path clip-path="url(#p74353de098)" style="fill: none; stroke: #cccccc; stroke-width: 0.25; stroke-linecap: square"/>
   </g>
   <g id="line2d_34">
    <path clip-path="url(#p74353de098)" style="fill: none; stroke: #cccccc; stroke-width: 0.25; stroke-linecap: square"/>
   </g>
   <g id="line2d_35">
    <path clip-path="url(#p74353de098)" style="fill: none; stroke: #cccccc; stroke-width: 0.25; stroke-linecap: square"/>
   </g>
   <g id="line2d_36">
    <path clip-path="url(#p74353de098)" style="fill: none; stroke: #cccccc; stroke-width: 0.25; stroke-linecap: square"/>
   </g>
   <g id="line2d_37">
    <path clip-path="url(#p74353de098)" style="fill: none; stroke: #cccccc; stroke-width: 0.25; stroke-linecap: square"/>
   </g>
   <g id="line2d_38">
    <path clip-path="url(#p74353de098)" style="fill: none; stroke: #cccccc; stroke-width: 0.25; stroke-linecap: square"/>
   </g>
   <g id="line2d_39">
    <path clip-path="url(#p74353de098)" style="fill: none; stroke: #cccccc; stroke-width: 0.25; stroke-linecap: square"/>
   </g>
   <g id="line2d_40">
    <path clip-path="url(#p74353de098)" style="fill: none; stroke: #cccccc; stroke-width: 0.25; stroke-linecap: square"/>
   </g>
   <g id="line2d_41">
    <path clip-path="url(#p74353de098)" style="fill: none; stroke: #cccccc; stroke-width: 0.25; stroke-linecap: square"/>
   </g>
   <g id="line2d_42">
    <path clip-path="url(#p74353de098)" style="fill: none; stroke: #cccccc; stroke-width: 0.25; stroke-linecap: square"/>
   </g>
   <g id="line2d_43">
    <path clip-path="url(#p74353de098)" style="fill: none; stroke: #cccccc; stroke-width: 0.25; stroke-linecap: square"/>
   </g>
   <g id="line2d_44">
    <path clip-path="url(#p74353de098)" style="fill: none; stroke: #cccccc; stroke-width: 0.25; stroke-linecap: square"/>
   </g>
   <g id="line2d_45">
    <path clip-path="url(#p74353de098)" style="fill: none; stroke: #cccccc; stroke-width: 0.25; stroke-linecap: square"/>
   </g>
   <g id="line2d_46">
    <path clip-path="url(#p74353de098)" style="fill: none; stroke: #cccccc; stroke-width: 0.25; stroke-linecap: square"/>
   </g>
   <g id="line2d_47">
    <path clip-path="url(#p74353de098)" style="fill: none; stroke: #cccccc; stroke-width: 0.25; stroke-linecap: square"/>
   </g>
   <g id="line2d_48">
    <path clip-path="url(#p74353de098)" style="fill: none; stroke: #cccccc; stroke-width: 0.25; stroke-linecap: square"/>
   </g>
   <g id="line2d_49">
    <path clip-path="url(#p74353de098)" style="fill: none; stroke: #cccccc; stroke-width: 0.25; stroke-linecap: square"/>
   </g>
   <g id="line2d_50">
    <path clip-path="url(#p74353de098)" style="fill: none; stroke: #cccccc; stroke-width: 0.25; stroke-linecap: square"/>
   </g>
   <g id="line2d_51">
    <path clip-path="url(#p74353de098)" style="fill: none; stroke: #cccccc; stroke-width: 0.25; stroke-linecap: square"/>
   </g>
   <g id="line2d_52">
    <path clip-path="url(#p74353de098)" style="fill: none; stroke: #cccccc; stroke-width: 0.25; stroke-linecap: square"/>
   </g>
   <g id="line2d_53">
    <path clip-path="url(#p74353de098)" style="fill: none; stroke: #cccccc; stroke-width: 0.25; stroke-linecap: square"/>
   </g>
   <g id="line2d_54">
    <path clip-path="url(#p74353de098)" style="fill: none; stroke: #cccccc; stroke-width: 0.25; stroke-linecap: square"/>
   </g>
   <g id="line2d_55">
    <path clip-path="url(#p74353de098)" style="fill: none; stroke: #cccccc; stroke-width: 0.25; stroke-linecap: square"/>
   </g>
   <g id="line2d_56">
    <path clip-path="url(#p74353de098)" style="fill: none; stroke: #cccccc; stroke-width: 0.25; stroke-linecap: square"/>
   </g>
   <g id="line2d_57">
    <path clip-path="url(#p74353de098)" style="fill: none; stroke: #cccccc; stroke-width: 0.25; stroke-linecap: square"/>
   </g>
   <g id="line2d_58">
    <path clip-path="url(#p74353de098)" style="fill: none; stroke: #cccccc; stroke-width: 0.25; stroke-linecap: square"/>
   </g>
   <g id="line2d_59">
    <path d="M -1 320.4 
L -0.3 320.4 
L 45.9 320.4 
L 92.1 320.4 
L 138.3 320.4 
L 184.5 320.4 
L 230.7 320.4 
L 276.9 320.4 
L 323.1 320.4 
L 361 320.4 
" clip-path="url(#p74353de098)" style="fill: none; stroke: #cccccc; stroke-width: 0.25; stroke-linecap: square"/>
   </g>
   <g id="line2d_60">
    <path d="M -1 274.2 
L -0.3 274.2 
L 45.9 274.2 
L 92.1 274.2 
L 138.3 274.2 
L 184.5 274.2 
L 230.7 274.2 
L 276.9 274.2 
L 323.1 274.2 
L 361 274.2 
" clip-path="url(#p74353de098)" style="fill: none; stroke: #cccccc; stroke-width: 0.25; stroke-linecap: square"/>
   </g>
   <g id="line2d_61">
    <path d="M -1 228 
L -0.3 228 
L 45.9 228 
L 92.1 228 
L 138.3 228 
L 184.5 228 
L 230.7 228 
L 276.9 228 
L 323.1 228 
L 361 228 
" clip-path="url(#p74353de098)" style="fill: none; stroke: #cccccc; stroke-width: 0.25; stroke-linecap: square"/>
   </g>
   <g id="line2d_62">
    <path d="M -1 181.8 
L -0.3 181.8 
L 45.9 181.8 
L 92.1 181.8 
L 138.3 181.8 
L 184.5 181.8 
L 230.7 181.8 
L 276.9 181.8 
L 323.1 181.8 
L 361 181.8 
" clip-path="url(#p74353de098)" style="fill: none; stroke: #cccccc; stroke-width: 0.25; stroke-linecap: square"/>
   </g>
   <g id="line2d_63">
    <path d="M -1 135.6 
L -0.3 135.6 
L 45.9 135.6 
L 92.1 135.6 
L 138.3 135.6 
L 184.5 135.6 
L 230.7 135.6 
L 276.9 135.6 
L 323.1 135.6 
L 361 135.6 
" clip-path="url(#p74353de098)" style="fill: none; stroke: #cccccc; stroke-width: 0.25; stroke-linecap: square"/>
   </g>
   <g id="line2d_64">
    <path d="M -1 89.4 
L -0.3 89.4 
L 45.9 89.4 
L 92.1 89.4 
L 138.3 89.4 
L 184.5 89.4 
L 230.7 89.4 
L 276.9 89.4 
L 323.1 89.4 
L 361 89.4 
" clip-path="url(#p74353de098)" style="fill: none; stroke: #cccccc; stroke-width: 0.25; stroke-linecap: square"/>
   </g>
   <g id="line2d_65">
    <path d="M -1 43.2 
L -0.3 43.2 
L 45.9 43.2 
L 92.1 43.2 
L 138.3 43.2 
L 184.5 43.2 
L 230.7 43.2 
L 276.9 43.2 
L 323.1 43.2 
L 361 43.2 
" clip-path="url(#p74353de098)" style="fill: none; stroke: #cccccc; stroke-width: 0.25; stroke-linecap: square"/>
   </g>
   <g id="line2d_66">
    <path clip-path="url(#p74353de098)" style="fill: none; stroke: #cccccc; stroke-width: 0.25; stroke-linecap: square"/>
   </g>
   <g id="line2d_67">
    <path clip-path="url(#p74353de098)" style="fill: none; stroke: #cccccc; stroke-width: 0.25; stroke-linecap: square"/>
   </g>
   <g id="line2d_68">
    <path clip-path="url(#p74353de098)" style="fill: none; stroke: #cccccc; stroke-width: 0.25; stroke-linecap: square"/>
   </g>
   <g id="line2d_69">
    <path clip-path="url(#p74353de098)" style="fill: none; stroke: #cccccc; stroke-width: 0.25; stroke-linecap: square"/>
   </g>
   <g id="line2d_70">
    <path clip-path="url(#p74353de098)" style="fill: none; stroke: #cccccc; stroke-width: 0.25; stroke-linecap: square"/>
   </g>
   <g id="line2d_71">
    <path clip-path="url(#p74353de098)" style="fill: none; stroke: #cccccc; stroke-width: 0.25; stroke-linecap: square"/>
   </g>
   <g id="line2d_72">
    <path clip-path="url(#p74353de098)" style="fill: none; stroke: #cccccc; stroke-width: 0.25; stroke-linecap: square"/>
   </g>
   <g id="line2d_73">
    <path clip-path="url(#p74353de098)" style="fill: none; stroke: #cccccc; stroke-width: 0.25; stroke-linecap: square"/>
   </g>
   <g id="line2d_74">
    <path clip-path="url(#p74353de098)" style="fill: none; stroke: #cccccc; stroke-width: 0.25; stroke-linecap: square"/>
   </g>
   <g id="line2d_75">
    <path clip-path="url(#p74353de098)" style="fill: none; stroke: #cccccc; stroke-width: 0.25; stroke-linecap: square"/>
   </g>
   <g id="line2d_76">
    <path clip-path="url(#p74353de098)" style="fill: none; stroke: #cccccc; stroke-width: 0.25; stroke-linecap: square"/>
   </g>
   <g id="line2d_77">
    <path clip-path="url(#p74353de098)" style="fill: none; stroke: #cccccc; stroke-width: 0.25; stroke-linecap: square"/>
   </g>
   <g id="line2d_78">
    <path clip-path="url(#p74353de098)" style="fill: none; stroke: #cccccc; stroke-width: 0.25; stroke-linecap: square"/>
   </g>
   <g id="line2d_79">
    <path clip-path="url(#p74353de098)" style="fill: none; stroke: #cccccc; stroke-width: 0.25; stroke-linecap: square"/>
   </g>
   <g id="line2d_80">
    <path clip-path="url(#p74353de098)" style="fill: none; stroke: #cccccc; stroke-width: 0.25; stroke-linecap: square"/>
   </g>
   <g id="line2d_81">
    <path clip-path="url(#p74353de098)" style="fill: none; stroke: #cccccc; stroke-width: 0.25; stroke-linecap: square"/>
   </g>
   <g id="line2d_82">
    <path clip-path="url(#p74353de098)" style="fill: none; stroke: #cccccc; stroke-width: 0.25; stroke-linecap: square"/>
   </g>
   <g id="line2d_83">
    <path clip-path="url(#p74353de098)" style="fill: none; stroke: #0070c0; stroke-width: 0.25; stroke-linecap: square"/>
   </g>
   <g id="line2d_84">
    <path clip-path="url(#p74353de098)" style="fill: none; stroke: #0070c0; stroke-width: 0.25; stroke-linecap: square"/>
   </g>
   <g id="line2d_85">
    <path clip-path="url(#p74353de098)" style="fill: none; stroke: #0070c0; stroke-width: 0.25; stroke-linecap: square"/>
   </g>
   <g id="line2d_86">
    <path clip-path="url(#p74353de098)" style="fill: none; stroke: #0070c0; stroke-width: 0.25; stroke-linecap: square"/>
   </g>
   <g id="line2d_87">
    <path clip-path="url(#p74353de098)" style="fill: none; stroke: #0070c0; stroke-width: 0.25; stroke-linecap: square"/>
   </g>
   <g id="line2d_88">
    <path clip-path="url(#p74353de098)" style="fill: none; stroke: #0070c0; stroke-width: 0.25; stroke-linecap: square"/>
   </g>
   <g id="line2d_89">
    <path clip-path="url(#p74353de098)" style="fill: none; stroke: #0070c0; stroke-width: 0.25; stroke-linecap: square"/>
   </g>
   <g id="line2d_90">
    <path clip-path="url(#p74353de098)" style="fill: none; stroke: #0070c0; stroke-width: 0.25; stroke-linecap: square"/>
   </g>
   <g id="line2d_91">
    <path clip-path="url(#p74353de098)" style="fill: none; stroke: #0070c0; stroke-width: 0.25; stroke-linecap: square"/>
   </g>
   <g id="line2d_92">
    <path clip-path="url(#p74353de098)" style="fill: none; stroke: #0070c0; stroke-width: 0.25; stroke-linecap: square"/>
   </g>
   <g id="line2d_93">
    <path d="M -0.3 361 
L -0.3 348.12 
L -0.3 329.64 
L -0.3 311.16 
L -0.3 292.68 
L -0.3 274.2 
L -0.3 255.72 
L -0.3 237.24 
L -0.3 218.76 
L -0.3 200.28 
L -0.3 181.8 
L -0.3 163.32 
L -0.3 144.84 
L -0.3 126.36 
L -0.3 107.88 
L -0.3 89.4 
L -0.3 70.92 
L -0.3 52.44 
L -0.3 33.96 
L -0.3 15.48 
L -0.3 -1 
" clip-path="url(#p74353de098)" style="fill: none; stroke: #0070c0; stroke-width: 0.25; stroke-linecap: square"/>
   </g>
   <g id="line2d_94">
    <path d="M 18.18 361 
L 18.18 348.12 
L 18.18 329.64 
L 18.18 311.16 
L 18.18 292.68 
L 18.18 274.2 
L 18.18 255.72 
L 18.18 237.24 
L 18.18 218.76 
L 18.18 200.28 
L 18.18 181.8 
L 18.18 163.32 
L 18.18 144.84 
L 18.18 126.36 
L 18.18 107.88 
L 18.18 89.4 
L 18.18 70.92 
L 18.18 52.44 
L 18.18 33.96 
L 18.18 15.48 
L 18.18 -1 
" clip-path="url(#p74353de098)" style="fill: none; stroke: #0070c0; stroke-width: 0.25; stroke-linecap: square"/>
   </g>
   <g id="line2d_95">
    <path d="M 36.66 361 
L 36.66 348.12 
L 36.66 329.64 
L 36.66 311.16 
L 36.66 292.68 
L 36.66 274.2 
L 36.66 255.72 
L 36.66 237.24 
L 36.66 218.76 
L 36.66 200.28 
L 36.66 181.8 
L 36.66 163.32 
L 36.66 144.84 
L 36.66 126.36 
L 36.66 107.88 
L 36.66 89.4 
L 36.66 70.92 
L 36.66 52.44 
L 36.66 33.96 
L 36.66 15.48 
L 36.66 -1 
" clip-path="url(#p74353de098)" style="fill: none; stroke: #0070c0; stroke-width: 0.25; stroke-linecap: square"/>
   </g>
   <g id="line2d_96">
    <path d="M 55.14 361 
L 55.14 348.12 
L 55.14 329.64 
L 55.14 311.16 
L 55.14 292.68 
L 55.14 274.2 
L 55.14 255.72 
L 55.14 237.24 
L 55.14 218.76 
L 55.14 200.28 
L 55.14 181.8 
L 55.14 163.32 
L 55.14 144.84 
L 55.14 126.36 
L 55.14 107.88 
L 55.14 89.4 
L 55.14 70.92 
L 55.14 52.44 
L 55.14 33.96 
L 55.14 15.48 
L 55.14 -1 
" clip-path="url(#p74353de098)" style="fill: none; stroke: #0070c0; stroke-width: 0.25; stroke-linecap: square"/>
   </g>
   <g id="line2d_97">
    <path d="M 73.62 361 
L 73.62 348.12 
L 73.62 329.64 
L 73.62 311.16 
L 73.62 292.68 
L 73.62 274.2 
L 73.62 255.72 
L 73.62 237.24 
L 73.62 218.76 
L 73.62 200.28 
L 73.62 181.8 
L 73.62 163.32 
L 73.62 144.84 
L 73.62 126.36 
L 73.62 107.88 
L 73.62 89.4 
L 73.62 70.92 
L 73.62 52.44 
L 73.62 33.96 
L 73.62 15.48 
L 73.62 -1 
" clip-path="url(#p74353de098)" style="fill: none; stroke: #0070c0; stroke-width: 0.25; stroke-linecap: square"/>
   </g>
   <g id="line2d_98">
    <path d="M 92.1 361 
L 92.1 348.12 
L 92.1 329.64 
L 92.1 311.16 
L 92.1 292.68 
L 92.1 274.2 
L 92.1 255.72 
L 92.1 237.24 
L 92.1 218.76 
L 92.1 200.28 
L 92.1 181.8 
L 92.1 163.32 
L 92.1 144.84 
L 92.1 126.36 
L 92.1 107.88 
L 92.1 89.4 
L 92.1 70.92 
L 92.1 52.44 
L 92.1 33.96 
L 92.1 15.48 
L 92.1 -1 
" clip-path="url(#p74353de098)" style="fill: none; stroke: #0070c0; stroke-width: 0.25; stroke-linecap: square"/>
   </g>
   <g id="line2d_99">
    <path d="M 110.58 361 
L 110.58 348.12 
L 110.58 329.64 
L 110.58 311.16 
L 110.58 292.68 
L 110.58 274.2 
L 110.58 255.72 
L 110.58 237.24 
L 110.58 218.76 
L 110.58 200.28 
L 110.58 181.8 
L 110.58 163.32 
L 110.58 144.84 
L 110.58 126.36 
L 110.58 107.88 
L 110.58 89.4 
L 110.58 70.92 
L 110.58 52.44 
L 110.58 33.96 
L 110.58 15.48 
L 110.58 -1 
" clip-path="url(#p74353de098)" style="fill: none; stroke: #0070c0; stroke-width: 0.25; stroke-linecap: square"/>
   </g>
   <g id="line2d_100">
    <path d="M 129.06 361 
L 129.06 348.12 
L 129.06 329.64 
L 129.06 311.16 
L 129.06 292.68 
L 129.06 274.2 
L 129.06 255.72 
L 129.06 237.24 
L 129.06 218.76 
L 129.06 200.28 
L 129.06 181.8 
L 129.06 163.32 
L 129.06 144.84 
L 129.06 126.36 
L 129.06 107.88 
L 129.06 89.4 
L 129.06 70.92 
L 129.06 52.44 
L 129.06 33.96 
L 129.06 15.48 
L 129.06 -1 
" clip-path="url(#p74353de098)" style="fill: none; stroke: #0070c0; stroke-width: 0.25; stroke-linecap: square"/>
   </g>
   <g id="line2d_101">
    <path d="M 147.54 361 
L 147.54 348.12 
L 147.54 329.64 
L 147.54 311.16 
L 147.54 292.68 
L 147.54 274.2 
L 147.54 255.72 
L 147.54 237.24 
L 147.54 218.76 
L 147.54 200.28 
L 147.54 181.8 
L 147.54 163.32 
L 147.54 144.84 
L 147.54 126.36 
L 147.54 107.88 
L 147.54 89.4 
L 147.54 70.92 
L 147.54 52.44 
L 147.54 33.96 
L 147.54 15.48 
L 147.54 -1 
" clip-path="url(#p74353de098)" style="fill: none; stroke: #0070c0; stroke-width: 0.25; stroke-linecap: square"/>
   </g>
   <g id="line2d_102">
    <path d="M 166.02 361 
L 166.02 348.12 
L 166.02 329.64 
L 166.02 311.16 
L 166.02 292.68 
L 166.02 274.2 
L 166.02 255.72 
L 166.02 237.24 
L 166.02 218.76 
L 166.02 200.28 
L 166.02 181.8 
L 166.02 163.32 
L 166.02 144.84 
L 166.02 126.36 
L 166.02 107.88 
L 166.02 89.4 
L 166.02 70.92 
L 166.02 52.44 
L 166.02 33.96 
L 166.02 15.48 
L 166.02 -1 
" clip-path="url(#p74353de098)" style="fill: none; stroke: #0070c0; stroke-width: 0.25; stroke-linecap: square"/>
   </g>
   <g id="line2d_103">
    <path d="M 184.5 361 
L 184.5 348.12 
L 184.5 329.64 
L 184.5 311.16 
L 184.5 292.68 
L 184.5 274.2 
L 184.5 255.72 
L 184.5 237.24 
L 184.5 218.76 
L 184.5 200.28 
L 184.5 181.8 
L 184.5 163.32 
L 184.5 144.84 
L 184.5 126.36 
L 184.5 107.88 
L 184.5 89.4 
L 184.5 70.92 
L 184.5 52.44 
L 184.5 33.96 
L 184.5 15.48 
L 184.5 -1 
" clip-path="url(#p74353de098)" style="fill: none; stroke: #0070c0; stroke-width: 0.25; stroke-linecap: square"/>
   </g>
   <g id="line2d_104">
    <path d="M 202.98 361 
L 202.98 348.12 
L 202.98 329.64 
L 202.98 311.16 
L 202.98 292.68 
L 202.98 274.2 
L 202.98 255.72 
L 202.98 237.24 
L 202.98 218.76 
L 202.98 200.28 
L 202.98 181.8 
L 202.98 163.32 
L 202.98 144.84 
L 202.98 126.36 
L 202.98 107.88 
L 202.98 89.4 
L 202.98 70.92 
L 202.98 52.44 
L 202.98 33.96 
L 202.98 15.48 
L 202.98 -1 
" clip-path="url(#p74353de098)" style="fill: none; stroke: #0070c0; stroke-width: 0.25; stroke-linecap: square"/>
   </g>
   <g id="line2d_105">
    <path d="M 221.46 361 
L 221.46 348.12 
L 221.46 329.64 
L 221.46 311.16 
L 221.46 292.68 
L 221.46 274.2 
L 221.46 255.72 
L 221.46 237.24 
L 221.46 218.76 
L 221.46 200.28 
L 221.46 181.8 
L 221.46 163.32 
L 221.46 144.84 
L 221.46 126.36 
L 221.46 107.88 
L 221.46 89.4 
L 221.46 70.92 
L 221.46 52.44 
L 221.46 33.96 
L 221.46 15.48 
L 221.46 -1 
" clip-path="url(#p74353de098)" style="fill: none; stroke: #0070c0; stroke-width: 0.25; stroke-linecap: square"/>
   </g>
   <g id="line2d_106">
    <path d="M 239.94 361 
L 239.94 348.12 
L 239.94 329.64 
L 239.94 311.16 
L 239.94 292.68 
L 239.94 274.2 
L 239.94 255.72 
L 239.94 237.24 
L 239.94 218.76 
L 239.94 200.28 
L 239.94 181.8 
L 239.94 163.32 
L 239.94 144.84 
L 239.94 126.36 
L 239.94 107.88 
L 239.94 89.4 
L 239.94 70.92 
L 239.94 52.44 
L 239.94 33.96 
L 239.94 15.48 
L 239.94 -1 
" clip-path="url(#p74353de098)" style="fill: none; stroke: #0070c0; stroke-width: 0.25; stroke-linecap: square"/>
   </g>
   <g id="line2d_107">
    <path d="M 258.42 361 
L 258.42 348.12 
L 258.42 329.64 
L 258.42 311.16 
L 258.42 292.68 
L 258.42 274.2 
L 258.42 255.72 
L 258.42 237.24 
L 258.42 218.76 
L 258.42 200.28 
L 258.42 181.8 
L 258.42 163.32 
L 258.42 144.84 
L 258.42 126.36 
L 258.42 107.88 
L 258.42 89.4 
L 258.42 70.92 
L 258.42 52.44 
L 258.42 33.96 
L 258.42 15.48 
L 258.42 -1 
" clip-path="url(#p74353de098)" style="fill: none; stroke: #0070c0; stroke-width: 0.25; stroke-linecap: square"/>
   </g>
   <g id="line2d_108">
    <path d="M 276.9 361 
L 276.9 348.12 
L 276.9 329.64 
L 276.9 311.16 
L 276.9 292.68 
L 276.9 274.2 
L 276.9 255.72 
L 276.9 237.24 
L 276.9 218.76 
L 276.9 200.28 
L 276.9 181.8 
L 276.9 163.32 
L 276.9 144.84 
L 276.9 126.36 
L 276.9 107.88 
L 276.9 89.4 
L 276.9 70.92 
L 276.9 52.44 
L 276.9 33.96 
L 276.9 15.48 
L 276.9 -1 
" clip-path="url(#p74353de098)" style="fill: none; stroke: #0070c0; stroke-width: 0.25; stroke-linecap: square"/>
   </g>
   <g id="line2d_109">
    <path d="M 295.38 361 
L 295.38 348.12 
L 295.38 329.64 
L 295.38 311.16 
L 295.38 292.68 
L 295.38 274.2 
L 295.38 255.72 
L 295.38 237.24 
L 295.38 218.76 
L 295.38 200.28 
L 295.38 181.8 
L 295.38 163.32 
L 295.38 144.84 
L 295.38 126.36 
L 295.38 107.88 
L 295.38 89.4 
L 295.38 70.92 
L 295.38 52.44 
L 295.38 33.96 
L 295.38 15.48 
L 295.38 -1 
" clip-path="url(#p74353de098)" style="fill: none; stroke: #0070c0; stroke-width: 0.25; stroke-linecap: square"/>
   </g>
   <g id="line2d_110">
    <path d="M 313.86 361 
L 313.86 348.12 
L 313.86 329.64 
L 313.86 311.16 
L 313.86 292.68 
L 313.86 274.2 
L 313.86 255.72 
L 313.86 237.24 
L 313.86 218.76 
L 313.86 200.28 
L 313.86 181.8 
L 313.86 163.32 
L 313.86 144.84 
L 313.86 126.36 
L 313.86 107.88 
L 313.86 89.4 
L 313.86 70.92 
L 313.86 52.44 
L 313.86 33.96 
L 313.86 15.48 
L 313.86 -1 
" clip-path="url(#p74353de098)" style="fill: none; stroke: #0070c0; stroke-width: 0.25; stroke-linecap: square"/>
   </g>
   <g id="line2d_111">
    <path d="M 332.34 361 
L 332.34 348.12 
L 332.34 329.64 
L 332.34 311.16 
L 332.34 292.68 
L 332.34 274.2 
L 332.34 255.72 
L 332.34 237.24 
L 332.34 218.76 
L 332.34 200.28 
L 332.34 181.8 
L 332.34 163.32 
L 332.34 144.84 
L 332.34 126.36 
L 332.34 107.88 
L 332.34 89.4 
L 332.34 70.92 
L 332.34 52.44 
L 332.34 33.96 
L 332.34 15.48 
L 332.34 -1 
" clip-path="url(#p74353de098)" style="fill: none; stroke: #0070c0; stroke-width: 0.25; stroke-linecap: square"/>
   </g>
   <g id="line2d_112">
    <path d="M 350.82 361 
L 350.82 348.12 
L 350.82 329.64 
L 350.82 311.16 
L 350.82 292.68 
L 350.82 274.2 
L 350.82 255.72 
L 350.82 237.24 
L 350.82 218.76 
L 350.82 200.28 
L 350.82 181.8 
L 350.82 163.32 
L 350.82 144.84 
L 350.82 126.36 
L 350.82 107.88 
L 350.82 89.4 
L 350.82 70.92 
L 350.82 52.44 
L 350.82 33.96 
L 350.82 15.48 
L 350.82 -1 
" clip-path="url(#p74353de098)" style="fill: none; stroke: #0070c0; stroke-width: 0.25; stroke-linecap: square"/>
   </g>
   <g id="line2d_113">
    <path clip-path="url(#p74353de098)" style="fill: none; stroke: #0070c0; stroke-width: 0.25; stroke-linecap: square"/>
   </g>
   <g id="line2d_114">
    <path clip-path="url(#p74353de098)" style="fill: none; stroke: #0070c0; stroke-width: 0.25; stroke-linecap: square"/>
   </g>
   <g id="line2d_115">
    <path clip-path="url(#p74353de098)" style="fill: none; stroke: #0070c0; stroke-width: 0.25; stroke-linecap: square"/>
   </g>
   <g id="line2d_116">
    <path clip-path="url(#p74353de098)" style="fill: none; stroke: #0070c0; stroke-width: 0.25; stroke-linecap: square"/>
   </g>
   <g id="line2d_117">
    <path clip-path="url(#p74353de098)" style="fill: none; stroke: #0070c0; stroke-width: 0.25; stroke-linecap: square"/>
   </g>
   <g id="line2d_118">
    <path clip-path="url(#p74353de098)" style="fill: none; stroke: #0070c0; stroke-width: 0.25; stroke-linecap: square"/>
   </g>
   <g id="line2d_119">
    <path clip-path="url(#p74353de098)" style="fill: none; stroke: #0070c0; stroke-width: 0.25; stroke-linecap: square"/>
   </g>
   <g id="line2d_120">
    <path clip-path="url(#p74353de098)" style="fill: none; stroke: #0070c0; stroke-width: 0.25; stroke-linecap: square"/>
   </g>
   <g id="line2d_121">
    <path clip-path="url(#p74353de098)" style="fill: none; stroke: #0070c0; stroke-width: 0.25; stroke-linecap: square"/>
   </g>
   <g id="line2d_122">
    <path clip-path="url(#p74353de098)" style="fill: none; stroke: #0070c0; stroke-width: 0.25; stroke-linecap: square"/>
   </g>
   <g id="line2d_123">
    <path clip-path="url(#p74353de098)" style="fill: none; stroke: #0070c0; stroke-width: 0.25; stroke-linecap: square"/>
   </g>
   <g id="line2d_124">
    <path clip-path="url(#p74353de098)" style="fill: none; stroke: #0070c0; stroke-width: 0.25; stroke-linecap: square"/>
   </g>
   <g id="line2d_125">
    <path clip-path="url(#p74353de098)" style="fill: none; stroke: #0070c0; stroke-width: 0.25; stroke-linecap: square"/>
   </g>
   <g id="line2d_126">
    <path clip-path="url(#p74353de098)" style="fill: none; stroke: #0070c0; stroke-width: 0.25; stroke-linecap: square"/>
   </g>
   <g id="line2d_127">
    <path clip-path="url(#p74353de098)" style="fill: none; stroke: #0070c0; stroke-width: 0.25; stroke-linecap: square"/>
   </g>
   <g id="line2d_128">
    <path clip-path="url(#p74353de098)" style="fill: none; stroke: #0070c0; stroke-width: 0.25; stroke-linecap: square"/>
   </g>
   <g id="line2d_129">
    <path clip-path="url(#p74353de098)" style="fill: none; stroke: #0070c0; stroke-width: 0.25; stroke-linecap: square"/>
   </g>
   <g id="line2d_130">
    <path clip-path="url(#p74353de098)" style="fill: none; stroke: #0070c0; stroke-width: 0.25; stroke-linecap: square"/>
   </g>
   <g id="line2d_131">
    <path clip-path="url(#p74353de098)" style="fill: none; stroke: #0070c0; stroke-width: 0.25; stroke-linecap: square"/>
   </g>
   <g id="line2d_132">
    <path clip-path="url(#p74353de098)" style="fill: none; stroke: #0070c0; stroke-width: 0.25; stroke-linecap: square"/>
   </g>
   <g id="line2d_133">
    <path clip-path="url(#p74353de098)" style="fill: none; stroke: #0070c0; stroke-width: 0.25; stroke-linecap: square"/>
   </g>
   <g id="line2d_134">
    <path clip-path="url(#p74353de098)" style="fill: none; stroke: #0070c0; stroke-width: 0.25; stroke-linecap: square"/>
   </g>
   <g id="line2d_135">
    <path d="M -1 348.12 
L -0.3 348.12 
L 18.18 348.12 
L 36.66 348.12 
L 55.14 348.12 
L 73.62 348.12 
L 92.1 348.12 
L 110.58 348.12 
L 129.06 348.12 
L 147.54 348.12 
L 166.02 348.12 
L 184.5 348.12 
L 202.98 348.12 
L 221.46 348.12 
L 239.94 348.12 
L 258.42 348.12 
L 276.9 348.12 
L 295.38 348.12 
L 313.86 348.12 
L 332.34 348.12 
L 350.82 348.12 
L 361 348.12 
" clip-path="url(#p74353de098)" style="fill: none; stroke: #0070c0; stroke-width: 0.25; stroke-linecap: square"/>
   </g>
   <g id="line2d_136">
    <path d="M -1 329.64 
L -0.3 329.64 
L 18.18 329.64 
L 36.66 329.64 
L 55.14 329.64 
L 73.62 329.64 
L 92.1 329.64 
L 110.58 329.64 
L 129.06 329.64 
L 147.54 329.64 
L 166.02 329.64 
L 184.5 329.64 
L 202.98 329.64 
L 221.46 329.64 
L 239.94 329.64 
L 258.42 329.64 
L 276.9 329.64 
L 295.38 329.64 
L 313.86 329.64 
L 332.34 329.64 
L 350.82 329.64 
L 361 329.64 
" clip-path="url(#p74353de098)" style="fill: none; stroke: #0070c0; stroke-width: 0.25; stroke-linecap: square"/>
   </g>
   <g id="line2d_137">
    <path d="M -1 311.16 
L -0.3 311.16 
L 18.18 311.16 
L 36.66 311.16 
L 55.14 311.16 
L 73.62 311.16 
L 92.1 311.16 
L 110.58 311.16 
L 129.06 311.16 
L 147.54 311.16 
L 166.02 311.16 
L 184.5 311.16 
L 202.98 311.16 
L 221.46 311.16 
L 239.94 311.16 
L 258.42 311.16 
L 276.9 311.16 
L 295.38 311.16 
L 313.86 311.16 
L 332.34 311.16 
L 350.82 311.16 
L 361 311.16 
" clip-path="url(#p74353de098)" style="fill: none; stroke: #0070c0; stroke-width: 0.25; stroke-linecap: square"/>
   </g>
   <g id="line2d_138">
    <path d="M -1 292.68 
L -0.3 292.68 
L 18.18 292.68 
L 36.66 292.68 
L 55.14 292.68 
L 73.62 292.68 
L 92.1 292.68 
L 110.58 292.68 
L 129.06 292.68 
L 147.54 292.68 
L 166.02 292.68 
L 184.5 292.68 
L 202.98 292.68 
L 221.46 292.68 
L 239.94 292.68 
L 258.42 292.68 
L 276.9 292.68 
L 295.38 292.68 
L 313.86 292.68 
L 332.34 292.68 
L 350.82 292.68 
L 361 292.68 
" clip-path="url(#p74353de098)" style="fill: none; stroke: #0070c0; stroke-width: 0.25; stroke-linecap: square"/>
   </g>
   <g id="line2d_139">
    <path d="M -1 274.2 
L -0.3 274.2 
L 18.18 274.2 
L 36.66 274.2 
L 55.14 274.2 
L 73.62 274.2 
L 92.1 274.2 
L 110.58 274.2 
L 129.06 274.2 
L 147.54 274.2 
L 166.02 274.2 
L 184.5 274.2 
L 202.98 274.2 
L 221.46 274.2 
L 239.94 274.2 
L 258.42 274.2 
L 276.9 274.2 
L 295.38 274.2 
L 313.86 274.2 
L 332.34 274.2 
L 350.82 274.2 
L 361 274.2 
" clip-path="url(#p74353de098)" style="fill: none; stroke: #0070c0; stroke-width: 0.25; stroke-linecap: square"/>
   </g>
   <g id="line2d_140">
    <path d="M -1 255.72 
L -0.3 255.72 
L 18.18 255.72 
L 36.66 255.72 
L 55.14 255.72 
L 73.62 255.72 
L 92.1 255.72 
L 110.58 255.72 
L 129.06 255.72 
L 147.54 255.72 
L 166.02 255.72 
L 184.5 255.72 
L 202.98 255.72 
L 221.46 255.72 
L 239.94 255.72 
L 258.42 255.72 
L 276.9 255.72 
L 295.38 255.72 
L 313.86 255.72 
L 332.34 255.72 
L 350.82 255.72 
L 361 255.72 
" clip-path="url(#p74353de098)" style="fill: none; stroke: #0070c0; stroke-width: 0.25; stroke-linecap: square"/>
   </g>
   <g id="line2d_141">
    <path d="M -1 237.24 
L -0.3 237.24 
L 18.18 237.24 
L 36.66 237.24 
L 55.14 237.24 
L 73.62 237.24 
L 92.1 237.24 
L 110.58 237.24 
L 129.06 237.24 
L 147.54 237.24 
L 166.02 237.24 
L 184.5 237.24 
L 202.98 237.24 
L 221.46 237.24 
L 239.94 237.24 
L 258.42 237.24 
L 276.9 237.24 
L 295.38 237.24 
L 313.86 237.24 
L 332.34 237.24 
L 350.82 237.24 
L 361 237.24 
" clip-path="url(#p74353de098)" style="fill: none; stroke: #0070c0; stroke-width: 0.25; stroke-linecap: square"/>
   </g>
   <g id="line2d_142">
    <path d="M -1 218.76 
L -0.3 218.76 
L 18.18 218.76 
L 36.66 218.76 
L 55.14 218.76 
L 73.62 218.76 
L 92.1 218.76 
L 110.58 218.76 
L 129.06 218.76 
L 147.54 218.76 
L 166.02 218.76 
L 184.5 218.76 
L 202.98 218.76 
L 221.46 218.76 
L 239.94 218.76 
L 258.42 218.76 
L 276.9 218.76 
L 295.38 218.76 
L 313.86 218.76 
L 332.34 218.76 
L 350.82 218.76 
L 361 218.76 
" clip-path="url(#p74353de098)" style="fill: none; stroke: #0070c0; stroke-width: 0.25; stroke-linecap: square"/>
   </g>
   <g id="line2d_143">
    <path d="M -1 200.28 
L -0.3 200.28 
L 18.18 200.28 
L 36.66 200.28 
L 55.14 200.28 
L 73.62 200.28 
L 92.1 200.28 
L 110.58 200.28 
L 129.06 200.28 
L 147.54 200.28 
L 166.02 200.28 
L 184.5 200.28 
L 202.98 200.28 
L 221.46 200.28 
L 239.94 200.28 
L 258.42 200.28 
L 276.9 200.28 
L 295.38 200.28 
L 313.86 200.28 
L 332.34 200.28 
L 350.82 200.28 
L 361 200.28 
" clip-path="url(#p74353de098)" style="fill: none; stroke: #0070c0; stroke-width: 0.25; stroke-linecap: square"/>
   </g>
   <g id="line2d_144">
    <path d="M -1 181.8 
L -0.3 181.8 
L 18.18 181.8 
L 36.66 181.8 
L 55.14 181.8 
L 73.62 181.8 
L 92.1 181.8 
L 110.58 181.8 
L 129.06 181.8 
L 147.54 181.8 
L 166.02 181.8 
L 184.5 181.8 
L 202.98 181.8 
L 221.46 181.8 
L 239.94 181.8 
L 258.42 181.8 
L 276.9 181.8 
L 295.38 181.8 
L 313.86 181.8 
L 332.34 181.8 
L 350.82 181.8 
L 361 181.8 
" clip-path="url(#p74353de098)" style="fill: none; stroke: #0070c0; stroke-width: 0.25; stroke-linecap: square"/>
   </g>
   <g id="line2d_145">
    <path d="M -1 163.32 
L -0.3 163.32 
L 18.18 163.32 
L 36.66 163.32 
L 55.14 163.32 
L 73.62 163.32 
L 92.1 163.32 
L 110.58 163.32 
L 129.06 163.32 
L 147.54 163.32 
L 166.02 163.32 
L 184.5 163.32 
L 202.98 163.32 
L 221.46 163.32 
L 239.94 163.32 
L 258.42 163.32 
L 276.9 163.32 
L 295.38 163.32 
L 313.86 163.32 
L 332.34 163.32 
L 350.82 163.32 
L 361 163.32 
" clip-path="url(#p74353de098)" style="fill: none; stroke: #0070c0; stroke-width: 0.25; stroke-linecap: square"/>
   </g>
   <g id="line2d_146">
    <path d="M -1 144.84 
L -0.3 144.84 
L 18.18 144.84 
L 36.66 144.84 
L 55.14 144.84 
L 73.62 144.84 
L 92.1 144.84 
L 110.58 144.84 
L 129.06 144.84 
L 147.54 144.84 
L 166.02 144.84 
L 184.5 144.84 
L 202.98 144.84 
L 221.46 144.84 
L 239.94 144.84 
L 258.42 144.84 
L 276.9 144.84 
L 295.38 144.84 
L 313.86 144.84 
L 332.34 144.84 
L 350.82 144.84 
L 361 144.84 
" clip-path="url(#p74353de098)" style="fill: none; stroke: #0070c0; stroke-width: 0.25; stroke-linecap: square"/>
   </g>
   <g id="line2d_147">
    <path d="M -1 126.36 
L -0.3 126.36 
L 18.18 126.36 
L 36.66 126.36 
L 55.14 126.36 
L 73.62 126.36 
L 92.1 126.36 
L 110.58 126.36 
L 129.06 126.36 
L 147.54 126.36 
L 166.02 126.36 
L 184.5 126.36 
L 202.98 126.36 
L 221.46 126.36 
L 239.94 126.36 
L 258.42 126.36 
L 276.9 126.36 
L 295.38 126.36 
L 313.86 126.36 
L 332.34 126.36 
L 350.82 126.36 
L 361 126.36 
" clip-path="url(#p74353de098)" style="fill: none; stroke: #0070c0; stroke-width: 0.25; stroke-linecap: square"/>
   </g>
   <g id="line2d_148">
    <path d="M -1 107.88 
L -0.3 107.88 
L 18.18 107.88 
L 36.66 107.88 
L 55.14 107.88 
L 73.62 107.88 
L 92.1 107.88 
L 110.58 107.88 
L 129.06 107.88 
L 147.54 107.88 
L 166.02 107.88 
L 184.5 107.88 
L 202.98 107.88 
L 221.46 107.88 
L 239.94 107.88 
L 258.42 107.88 
L 276.9 107.88 
L 295.38 107.88 
L 313.86 107.88 
L 332.34 107.88 
L 350.82 107.88 
L 361 107.88 
" clip-path="url(#p74353de098)" style="fill: none; stroke: #0070c0; stroke-width: 0.25; stroke-linecap: square"/>
   </g>
   <g id="line2d_149">
    <path d="M -1 89.4 
L -0.3 89.4 
L 18.18 89.4 
L 36.66 89.4 
L 55.14 89.4 
L 73.62 89.4 
L 92.1 89.4 
L 110.58 89.4 
L 129.06 89.4 
L 147.54 89.4 
L 166.02 89.4 
L 184.5 89.4 
L 202.98 89.4 
L 221.46 89.4 
L 239.94 89.4 
L 258.42 89.4 
L 276.9 89.4 
L 295.38 89.4 
L 313.86 89.4 
L 332.34 89.4 
L 350.82 89.4 
L 361 89.4 
" clip-path="url(#p74353de098)" style="fill: none; stroke: #0070c0; stroke-width: 0.25; stroke-linecap: square"/>
   </g>
   <g id="line2d_150">
    <path d="M -1 70.92 
L -0.3 70.92 
L 18.18 70.92 
L 36.66 70.92 
L 55.14 70.92 
L 73.62 70.92 
L 92.1 70.92 
L 110.58 70.92 
L 129.06 70.92 
L 147.54 70.92 
L 166.02 70.92 
L 184.5 70.92 
L 202.98 70.92 
L 221.46 70.92 
L 239.94 70.92 
L 258.42 70.92 
L 276.9 70.92 
L 295.38 70.92 
L 313.86 70.92 
L 332.34 70.92 
L 350.82 70.92 
L 361 70.92 
" clip-path="url(#p74353de098)" style="fill: none; stroke: #0070c0; stroke-width: 0.25; stroke-linecap: square"/>
   </g>
   <g id="line2d_151">
    <path d="M -1 52.44 
L -0.3 52.44 
L 18.18 52.44 
L 36.66 52.44 
L 55.14 52.44 
L 73.62 52.44 
L 92.1 52.44 
L 110.58 52.44 
L 129.06 52.44 
L 147.54 52.44 
L 166.02 52.44 
L 184.5 52.44 
L 202.98 52.44 
L 221.46 52.44 
L 239.94 52.44 
L 258.42 52.44 
L 276.9 52.44 
L 295.38 52.44 
L 313.86 52.44 
L 332.34 52.44 
L 350.82 52.44 
L 361 52.44 
" clip-path="url(#p74353de098)" style="fill: none; stroke: #0070c0; stroke-width: 0.25; stroke-linecap: square"/>
   </g>
   <g id="line2d_152">
    <path d="M -1 33.96 
L -0.3 33.96 
L 18.18 33.96 
L 36.66 33.96 
L 55.14 33.96 
L 73.62 33.96 
L 92.1 33.96 
L 110.58 33.96 
L 129.06 33.96 
L 147.54 33.96 
L 166.02 33.96 
L 184.5 33.96 
L 202.98 33.96 
L 221.46 33.96 
L 239.94 33.96 
L 258.42 33.96 
L 276.9 33.96 
L 295.38 33.96 
L 313.86 33.96 
L 332.34 33.96 
L 350.82 33.96 
L 361 33.96 
" clip-path="url(#p74353de098)" style="fill: none; stroke: #0070c0; stroke-width: 0.25; stroke-linecap: square"/>
   </g>
   <g id="line2d_153">
    <path d="M -1 15.48 
L -0.3 15.48 
L 18.18 15.48 
L 36.66 15.48 
L 55.14 15.48 
L 73.62 15.48 
L 92.1 15.48 
L 110.58 15.48 
L 129.06 15.48 
L 147.54 15.48 
L 166.02 15.48 
L 184.5 15.48 
L 202.98 15.48 
L 221.46 15.48 
L 239.94 15.48 
L 258.42 15.48 
L 276.9 15.48 
L 295.38 15.48 
L 313.86 15.48 
L 332.34 15.48 
L 350.82 15.48 
L 361 15.48 
" clip-path="url(#p74353de098)" style="fill: none; stroke: #0070c0; stroke-width: 0.25; stroke-linecap: square"/>
   </g>
   <g id="line2d_154">
    <path clip-path="url(#p74353de098)" style="fill: none; stroke: #0070c0; stroke-width: 0.25; stroke-linecap: square"/>
   </g>
   <g id="line2d_155">
    <path clip-path="url(#p74353de098)" style="fill: none; stroke: #0070c0; stroke-width: 0.25; stroke-linecap: square"/>
   </g>
   <g id="line2d_156">
    <path clip-path="url(#p74353de098)" style="fill: none; stroke: #0070c0; stroke-width: 0.25; stroke-linecap: square"/>
   </g>
   <g id="line2d_157">
    <path clip-path="url(#p74353de098)" style="fill: none; stroke: #0070c0; stroke-width: 0.25; stroke-linecap: square"/>
   </g>
   <g id="line2d_158">
    <path clip-path="url(#p74353de098)" style="fill: none; stroke: #0070c0; stroke-width: 0.25; stroke-linecap: square"/>
   </g>
   <g id="line2d_159">
    <path clip-path="url(#p74353de098)" style="fill: none; stroke: #0070c0; stroke-width: 0.25; stroke-linecap: square"/>
   </g>
   <g id="line2d_160">
    <path clip-path="url(#p74353de098)" style="fill: none; stroke: #0070c0; stroke-width: 0.25; stroke-linecap: square"/>
   </g>
   <g id="line2d_161">
    <path clip-path="url(#p74353de098)" style="fill: none; stroke: #0070c0; stroke-width: 0.25; stroke-linecap: square"/>
   </g>
   <g id="line2d_162">
    <path clip-path="url(#p74353de098)" style="fill: none; stroke: #0070c0; stroke-width: 0.25; stroke-linecap: square"/>
   </g>
   <g id="line2d_163">
    <path clip-path="url(#p74353de098)" style="fill: none; stroke: #0070c0; stroke-width: 0.25; stroke-linecap: square"/>
   </g>
   <g id="line2d_164">
    <path clip-path="url(#p74353de098)" style="fill: none; stroke: #0070c0; stroke-width: 0.25; stroke-linecap: square"/>
   </g>
   <g id="line2d_165">
    <path d="M 45.9 181.8 
L 323.1 181.8 
" clip-path="url(#p74353de098)" style="fill: none; stroke: #000000; stroke-width: 1.5; stroke-linecap: square"/>
   </g>
   <g id="line2d_166">
    <path d="M 184.5 320.4 
L 184.5 43.2 
" clip-path="url(#p74353de098)" style="fill: none; stroke: #000000; stroke-width: 1.5; stroke-linecap: square"/>
   </g>
  </g>
 </g>
 <defs>
  <clipPath id="p74353de098">
   <rect x="45.9" y="43.2" width="277.2" height="277.2"/>
  </clipPath>
 </defs>
</svg>
