<?xml version="1.0" encoding="utf-8" standalone="no"?>
<!DOCTYPE svg PUBLIC "-//W3C//DTD SVG 1.1//EN"
  "http://www.w3.org/Graphics/SVG/1.1/DTD/svg11.dtd">
<svg xmlns:xlink="http://www.w3.org/1999/xlink" width="432pt" height="432pt" viewBox="0 0 432 432" xmlns="http://www.w3.org/2000/svg" version="1.1">
 <metadata>
  <rdf:RDF xmlns:dc="http://purl.org/dc/elements/1.1/" xmlns:cc="http://creativecommons.org/ns#" xmlns:rdf="http://www.w3.org/1999/02/22-rdf-syntax-ns#">
   <cc:Work>
    <dc:type rdf:resource="http://purl.org/dc/dcmitype/StillImage"/>
    <dc:date>2025-11-28T17:55:33.594055</dc:date>
    <dc:format>image/svg+xml</dc:format>
    <dc:creator>
     <cc:Agent>
      <dc:title>Matplotlib v3.10.6, https://matplotlib.org/</dc:title>
     </cc:Agent>
    </dc:creator>
   </cc:Work>
  </rdf:RDF>
 </metadata>
 <defs>
  <style type="text/css">*{stroke-linejoin: round; stroke-linecap: butt}</style>
 </defs>
 <g id="figure_1">
  <g id="patch_1">
   <path d="M 0 432 
L 432 432 
L 432 0 
L 0 0 
z
" style="fill: #ffffff"/>
  </g>
  <g id="axes_1">
   <g id="line2d_1">
    <path d="M 55.08 384.48 
L 387.72 384.48 
L 221.4 96.40531 
L 55.08 384.48 
" clip-path="url(#pd4580b4ac0)" style="fill: none; stroke: #8000ff; stroke-width: 0.25; stroke-linecap: square"/>
   </g>
   <g id="line2d_2">
    <path d="M 88.344 384.48 
L 371.088 355.672531 
L 204.768 125.212779 
L 88.344 384.48 
" clip-path="url(#pd4580b4ac0)" style="fill: none; stroke: #4e4dfc; stroke-width: 0.25; stroke-linecap: square"/>
   </g>
   <g id="line2d_3">
    <path d="M 121.608 384.48 
L 354.456 326.865062 
L 188.136 154.020248 
L 121.608 384.48 
" clip-path="url(#pd4580b4ac0)" style="fill: none; stroke: #1996f3; stroke-width: 0.25; stroke-linecap: square"/>
   </g>
   <g id="line2d_4">
    <path d="M 154.872 384.48 
L 337.824 298.057593 
L 171.504 182.827717 
L 154.872 384.48 
" clip-path="url(#pd4580b4ac0)" style="fill: none; stroke: #18cde4; stroke-width: 0.25; stroke-linecap: square"/>
   </g>
   <g id="line2d_5">
    <path d="M 188.136 384.48 
L 321.192 269.250124 
L 154.872 211.635186 
L 188.136 384.48 
" clip-path="url(#pd4580b4ac0)" style="fill: none; stroke: #4df3ce; stroke-width: 0.25; stroke-linecap: square"/>
   </g>
   <g id="line2d_6">
    <path d="M 221.4 384.48 
L 304.56 240.442655 
L 138.24 240.442655 
L 221.4 384.48 
" clip-path="url(#pd4580b4ac0)" style="fill: none; stroke: #80ffb4; stroke-width: 0.25; stroke-linecap: square"/>
   </g>
   <g id="line2d_7">
    <path d="M 254.664 384.48 
L 287.928 211.635186 
L 121.608 269.250124 
L 254.664 384.48 
" clip-path="url(#pd4580b4ac0)" style="fill: none; stroke: #b2f396; stroke-width: 0.25; stroke-linecap: square"/>
   </g>
   <g id="line2d_8">
    <path d="M 287.928 384.48 
L 271.296 182.827717 
L 104.976 298.057593 
L 287.928 384.48 
" clip-path="url(#pd4580b4ac0)" style="fill: none; stroke: #e6cd73; stroke-width: 0.25; stroke-linecap: square"/>
   </g>
   <g id="line2d_9">
    <path d="M 321.192 384.48 
L 254.664 154.020248 
L 88.344 326.865062 
L 321.192 384.48 
" clip-path="url(#pd4580b4ac0)" style="fill: none; stroke: #ff964f; stroke-width: 0.25; stroke-linecap: square"/>
   </g>
   <g id="line2d_10">
    <path d="M 354.456 384.48 
L 238.032 125.212779 
L 71.712 355.672531 
L 354.456 384.48 
" clip-path="url(#pd4580b4ac0)" style="fill: none; stroke: #ff4d27; stroke-width: 0.25; stroke-linecap: square"/>
   </g>
   <g id="line2d_11">
    <path d="M 387.72 384.48 
L 221.4 96.40531 
L 55.08 384.48 
L 387.72 384.48 
" clip-path="url(#pd4580b4ac0)" style="fill: none; stroke: #ff0000; stroke-width: 0.25; stroke-linecap: square"/>
   </g>
  </g>
 </g>
 <defs>
  <clipPath id="pd4580b4ac0">
   <rect x="55.08" y="51.84" width="332.64" height="332.64"/>
  </clipPath>
 </defs>
</svg>
