<?xml version="1.0" encoding="utf-8" standalone="no"?>
<!DOCTYPE svg PUBLIC "-//W3C//DTD SVG 1.1//EN"
  "http://www.w3.org/Graphics/SVG/1.1/DTD/svg11.dtd">
<svg xmlns:xlink="http://www.w3.org/1999/xlink" width="432pt" height="432pt" viewBox="0 0 432 432" xmlns="http://www.w3.org/2000/svg" version="1.1">
 <metadata>
  <rdf:RDF xmlns:dc="http://purl.org/dc/elements/1.1/" xmlns:cc="http://creativecommons.org/ns#" xmlns:rdf="http://www.w3.org/1999/02/22-rdf-syntax-ns#">
   <cc:Work>
    <dc:type rdf:resource="http://purl.org/dc/dcmitype/StillImage"/>
    <dc:date>2025-11-28T17:56:44.758134</dc:date>
    <dc:format>image/svg+xml</dc:format>
    <dc:creator>
     <cc:Agent>
      <dc:title>Matplotlib v3.10.6, https://matplotlib.org/</dc:title>
     </cc:Agent>
    </dc:creator>
   </cc:Work>
  </rdf:RDF>
 </metadata>
 <defs>
  <style type="text/css">*{stroke-linejoin: round; stroke-linecap: butt}</style>
 </defs>
 <g id="figure_1">
  <g id="patch_1">
   <path d="M 0 432 
L 432 432 
L 432 0 
L 0 0 
z
" style="fill: #ffffff"/>
  </g>
  <g id="axes_1">
   <g id="line2d_1">
    <path d="M 55.08 384.48 
L 387.72 384.48 
L 387.72 51.84 
L 55.08 384.48 
" clip-path="url(#pa4af43db73)" style="fill: none; stroke: #8000ff; stroke-width: 0.25; stroke-linecap: square"/>
   </g>
   <g id="line2d_2">
    <path d="M 58.4064 384.48 
L 387.72 381.1536 
L 384.3936 55.1664 
L 58.4064 384.48 
" clip-path="url(#pa4af43db73)" style="fill: none; stroke: #7c06ff; stroke-width: 0.25; stroke-linecap: square"/>
   </g>
   <g id="line2d_3">
    <path d="M 61.7328 384.48 
L 387.72 377.8272 
L 381.0672 58.4928 
L 61.7328 384.48 
" clip-path="url(#pa4af43db73)" style="fill: none; stroke: #7610ff; stroke-width: 0.25; stroke-linecap: square"/>
   </g>
   <g id="line2d_4">
    <path d="M 65.0592 384.48 
L 387.72 374.5008 
L 377.7408 61.8192 
L 65.0592 384.48 
" clip-path="url(#pa4af43db73)" style="fill: none; stroke: #7216ff; stroke-width: 0.25; stroke-linecap: square"/>
   </g>
   <g id="line2d_5">
    <path d="M 68.3856 384.48 
L 387.72 371.1744 
L 374.4144 65.1456 
L 68.3856 384.48 
" clip-path="url(#pa4af43db73)" style="fill: none; stroke: #6c1fff; stroke-width: 0.25; stroke-linecap: square"/>
   </g>
   <g id="line2d_6">
    <path d="M 71.712 384.48 
L 387.72 367.848 
L 371.088 68.472 
L 71.712 384.48 
" clip-path="url(#pa4af43db73)" style="fill: none; stroke: #6826fe; stroke-width: 0.25; stroke-linecap: square"/>
   </g>
   <g id="line2d_7">
    <path d="M 75.0384 384.48 
L 387.72 364.5216 
L 367.7616 71.7984 
L 75.0384 384.48 
" clip-path="url(#pa4af43db73)" style="fill: none; stroke: #622ffe; stroke-width: 0.25; stroke-linecap: square"/>
   </g>
   <g id="line2d_8">
    <path d="M 78.3648 384.48 
L 387.72 361.1952 
L 364.4352 75.1248 
L 78.3648 384.48 
" clip-path="url(#pa4af43db73)" style="fill: none; stroke: #5e35fe; stroke-width: 0.25; stroke-linecap: square"/>
   </g>
   <g id="line2d_9">
    <path d="M 81.6912 384.48 
L 387.72 357.8688 
L 361.1088 78.4512 
L 81.6912 384.48 
" clip-path="url(#pa4af43db73)" style="fill: none; stroke: #583efd; stroke-width: 0.25; stroke-linecap: square"/>
   </g>
   <g id="line2d_10">
    <path d="M 85.0176 384.48 
L 387.72 354.5424 
L 357.7824 81.7776 
L 85.0176 384.48 
" clip-path="url(#pa4af43db73)" style="fill: none; stroke: #5247fc; stroke-width: 0.25; stroke-linecap: square"/>
   </g>
   <g id="line2d_11">
    <path d="M 88.344 384.48 
L 387.72 351.216 
L 354.456 85.104 
L 88.344 384.48 
" clip-path="url(#pa4af43db73)" style="fill: none; stroke: #4e4dfc; stroke-width: 0.25; stroke-linecap: square"/>
   </g>
   <g id="line2d_12">
    <path d="M 91.6704 384.48 
L 387.72 347.8896 
L 351.1296 88.4304 
L 91.6704 384.48 
" clip-path="url(#pa4af43db73)" style="fill: none; stroke: #4856fb; stroke-width: 0.25; stroke-linecap: square"/>
   </g>
   <g id="line2d_13">
    <path d="M 94.9968 384.48 
L 387.72 344.5632 
L 347.8032 91.7568 
L 94.9968 384.48 
" clip-path="url(#pa4af43db73)" style="fill: none; stroke: #445cfb; stroke-width: 0.25; stroke-linecap: square"/>
   </g>
   <g id="line2d_14">
    <path d="M 98.3232 384.48 
L 387.72 341.2368 
L 344.4768 95.0832 
L 98.3232 384.48 
" clip-path="url(#pa4af43db73)" style="fill: none; stroke: #3e65fa; stroke-width: 0.25; stroke-linecap: square"/>
   </g>
   <g id="line2d_15">
    <path d="M 101.6496 384.48 
L 387.72 337.9104 
L 341.1504 98.4096 
L 101.6496 384.48 
" clip-path="url(#pa4af43db73)" style="fill: none; stroke: #396bf9; stroke-width: 0.25; stroke-linecap: square"/>
   </g>
   <g id="line2d_16">
    <path d="M 104.976 384.48 
L 387.72 334.584 
L 337.824 101.736 
L 104.976 384.48 
" clip-path="url(#pa4af43db73)" style="fill: none; stroke: #3473f8; stroke-width: 0.25; stroke-linecap: square"/>
   </g>
   <g id="line2d_17">
    <path d="M 108.3024 384.48 
L 387.72 331.2576 
L 334.4976 105.0624 
L 108.3024 384.48 
" clip-path="url(#pa4af43db73)" style="fill: none; stroke: #3079f7; stroke-width: 0.25; stroke-linecap: square"/>
   </g>
   <g id="line2d_18">
    <path d="M 111.6288 384.48 
L 387.72 327.9312 
L 331.1712 108.3888 
L 111.6288 384.48 
" clip-path="url(#pa4af43db73)" style="fill: none; stroke: #2981f6; stroke-width: 0.25; stroke-linecap: square"/>
   </g>
   <g id="line2d_19">
    <path d="M 114.9552 384.48 
L 387.72 324.6048 
L 327.8448 111.7152 
L 114.9552 384.48 
" clip-path="url(#pa4af43db73)" style="fill: none; stroke: #2489f5; stroke-width: 0.25; stroke-linecap: square"/>
   </g>
   <g id="line2d_20">
    <path d="M 118.2816 384.48 
L 387.72 321.2784 
L 324.5184 115.0416 
L 118.2816 384.48 
" clip-path="url(#pa4af43db73)" style="fill: none; stroke: #208ef4; stroke-width: 0.25; stroke-linecap: square"/>
   </g>
   <g id="line2d_21">
    <path d="M 121.608 384.48 
L 387.72 317.952 
L 321.192 118.368 
L 121.608 384.48 
" clip-path="url(#pa4af43db73)" style="fill: none; stroke: #1996f3; stroke-width: 0.25; stroke-linecap: square"/>
   </g>
   <g id="line2d_22">
    <path d="M 124.9344 384.48 
L 387.72 314.6256 
L 317.8656 121.6944 
L 124.9344 384.48 
" clip-path="url(#pa4af43db73)" style="fill: none; stroke: #169bf2; stroke-width: 0.25; stroke-linecap: square"/>
   </g>
   <g id="line2d_23">
    <path d="M 128.2608 384.48 
L 387.72 311.2992 
L 314.5392 125.0208 
L 128.2608 384.48 
" clip-path="url(#pa4af43db73)" style="fill: none; stroke: #10a2f0; stroke-width: 0.25; stroke-linecap: square"/>
   </g>
   <g id="line2d_24">
    <path d="M 131.5872 384.48 
L 387.72 307.9728 
L 311.2128 128.3472 
L 131.5872 384.48 
" clip-path="url(#pa4af43db73)" style="fill: none; stroke: #0ca7ef; stroke-width: 0.25; stroke-linecap: square"/>
   </g>
   <g id="line2d_25">
    <path d="M 134.9136 384.48 
L 387.72 304.6464 
L 307.8864 131.6736 
L 134.9136 384.48 
" clip-path="url(#pa4af43db73)" style="fill: none; stroke: #06aeed; stroke-width: 0.25; stroke-linecap: square"/>
   </g>
   <g id="line2d_26">
    <path d="M 138.24 384.48 
L 387.72 301.32 
L 304.56 135 
L 138.24 384.48 
" clip-path="url(#pa4af43db73)" style="fill: none; stroke: #00b5eb; stroke-width: 0.25; stroke-linecap: square"/>
   </g>
   <g id="line2d_27">
    <path d="M 141.5664 384.48 
L 387.72 297.9936 
L 301.2336 138.3264 
L 141.5664 384.48 
" clip-path="url(#pa4af43db73)" style="fill: none; stroke: #04b9ea; stroke-width: 0.25; stroke-linecap: square"/>
   </g>
   <g id="line2d_28">
    <path d="M 144.8928 384.48 
L 387.72 294.6672 
L 297.9072 141.6528 
L 144.8928 384.48 
" clip-path="url(#pa4af43db73)" style="fill: none; stroke: #0ac0e8; stroke-width: 0.25; stroke-linecap: square"/>
   </g>
   <g id="line2d_29">
    <path d="M 148.2192 384.48 
L 387.72 291.3408 
L 294.5808 144.9792 
L 148.2192 384.48 
" clip-path="url(#pa4af43db73)" style="fill: none; stroke: #0fc4e7; stroke-width: 0.25; stroke-linecap: square"/>
   </g>
   <g id="line2d_30">
    <path d="M 151.5456 384.48 
L 387.72 288.0144 
L 291.2544 148.3056 
L 151.5456 384.48 
" clip-path="url(#pa4af43db73)" style="fill: none; stroke: #14cae5; stroke-width: 0.25; stroke-linecap: square"/>
   </g>
   <g id="line2d_31">
    <path d="M 154.872 384.48 
L 387.72 284.688 
L 287.928 151.632 
L 154.872 384.48 
" clip-path="url(#pa4af43db73)" style="fill: none; stroke: #18cde4; stroke-width: 0.25; stroke-linecap: square"/>
   </g>
   <g id="line2d_32">
    <path d="M 158.1984 384.48 
L 387.72 281.3616 
L 284.6016 154.9584 
L 158.1984 384.48 
" clip-path="url(#pa4af43db73)" style="fill: none; stroke: #1fd3e1; stroke-width: 0.25; stroke-linecap: square"/>
   </g>
   <g id="line2d_33">
    <path d="M 161.5248 384.48 
L 387.72 278.0352 
L 281.2752 158.2848 
L 161.5248 384.48 
" clip-path="url(#pa4af43db73)" style="fill: none; stroke: #22d6e0; stroke-width: 0.25; stroke-linecap: square"/>
   </g>
   <g id="line2d_34">
    <path d="M 164.8512 384.48 
L 387.72 274.7088 
L 277.9488 161.6112 
L 164.8512 384.48 
" clip-path="url(#pa4af43db73)" style="fill: none; stroke: #28dbde; stroke-width: 0.25; stroke-linecap: square"/>
   </g>
   <g id="line2d_35">
    <path d="M 168.1776 384.48 
L 387.72 271.3824 
L 274.6224 164.9376 
L 168.1776 384.48 
" clip-path="url(#pa4af43db73)" style="fill: none; stroke: #2fe0db; stroke-width: 0.25; stroke-linecap: square"/>
   </g>
   <g id="line2d_36">
    <path d="M 171.504 384.48 
L 387.72 268.056 
L 271.296 168.264 
L 171.504 384.48 
" clip-path="url(#pa4af43db73)" style="fill: none; stroke: #32e3da; stroke-width: 0.25; stroke-linecap: square"/>
   </g>
   <g id="line2d_37">
    <path d="M 174.8304 384.48 
L 387.72 264.7296 
L 267.9696 171.5904 
L 174.8304 384.48 
" clip-path="url(#pa4af43db73)" style="fill: none; stroke: #38e7d7; stroke-width: 0.25; stroke-linecap: square"/>
   </g>
   <g id="line2d_38">
    <path d="M 178.1568 384.48 
L 387.72 261.4032 
L 264.6432 174.9168 
L 178.1568 384.48 
" clip-path="url(#pa4af43db73)" style="fill: none; stroke: #3dead5; stroke-width: 0.25; stroke-linecap: square"/>
   </g>
   <g id="line2d_39">
    <path d="M 181.4832 384.48 
L 387.72 258.0768 
L 261.3168 178.2432 
L 181.4832 384.48 
" clip-path="url(#pa4af43db73)" style="fill: none; stroke: #42edd3; stroke-width: 0.25; stroke-linecap: square"/>
   </g>
   <g id="line2d_40">
    <path d="M 184.8096 384.48 
L 387.72 254.7504 
L 257.9904 181.5696 
L 184.8096 384.48 
" clip-path="url(#pa4af43db73)" style="fill: none; stroke: #46efd1; stroke-width: 0.25; stroke-linecap: square"/>
   </g>
   <g id="line2d_41">
    <path d="M 188.136 384.48 
L 387.72 251.424 
L 254.664 184.896 
L 188.136 384.48 
" clip-path="url(#pa4af43db73)" style="fill: none; stroke: #4df3ce; stroke-width: 0.25; stroke-linecap: square"/>
   </g>
   <g id="line2d_42">
    <path d="M 191.4624 384.48 
L 387.72 248.0976 
L 251.3376 188.2224 
L 191.4624 384.48 
" clip-path="url(#pa4af43db73)" style="fill: none; stroke: #50f4cc; stroke-width: 0.25; stroke-linecap: square"/>
   </g>
   <g id="line2d_43">
    <path d="M 194.7888 384.48 
L 387.72 244.7712 
L 248.0112 191.5488 
L 194.7888 384.48 
" clip-path="url(#pa4af43db73)" style="fill: none; stroke: #56f7ca; stroke-width: 0.25; stroke-linecap: square"/>
   </g>
   <g id="line2d_44">
    <path d="M 198.1152 384.48 
L 387.72 241.4448 
L 244.6848 194.8752 
L 198.1152 384.48 
" clip-path="url(#pa4af43db73)" style="fill: none; stroke: #5df9c7; stroke-width: 0.25; stroke-linecap: square"/>
   </g>
   <g id="line2d_45">
    <path d="M 201.4416 384.48 
L 387.72 238.1184 
L 241.3584 198.2016 
L 201.4416 384.48 
" clip-path="url(#pa4af43db73)" style="fill: none; stroke: #60fac5; stroke-width: 0.25; stroke-linecap: square"/>
   </g>
   <g id="line2d_46">
    <path d="M 204.768 384.48 
L 387.72 234.792 
L 238.032 201.528 
L 204.768 384.48 
" clip-path="url(#pa4af43db73)" style="fill: none; stroke: #66fcc2; stroke-width: 0.25; stroke-linecap: square"/>
   </g>
   <g id="line2d_47">
    <path d="M 208.0944 384.48 
L 387.72 231.4656 
L 234.7056 204.8544 
L 208.0944 384.48 
" clip-path="url(#pa4af43db73)" style="fill: none; stroke: #6afdc0; stroke-width: 0.25; stroke-linecap: square"/>
   </g>
   <g id="line2d_48">
    <path d="M 211.4208 384.48 
L 387.72 228.1392 
L 231.3792 208.1808 
L 211.4208 384.48 
" clip-path="url(#pa4af43db73)" style="fill: none; stroke: #70febc; stroke-width: 0.25; stroke-linecap: square"/>
   </g>
   <g id="line2d_49">
    <path d="M 214.7472 384.48 
L 387.72 224.8128 
L 228.0528 211.5072 
L 214.7472 384.48 
" clip-path="url(#pa4af43db73)" style="fill: none; stroke: #74feba; stroke-width: 0.25; stroke-linecap: square"/>
   </g>
   <g id="line2d_50">
    <path d="M 218.0736 384.48 
L 387.72 221.4864 
L 224.7264 214.8336 
L 218.0736 384.48 
" clip-path="url(#pa4af43db73)" style="fill: none; stroke: #7affb7; stroke-width: 0.25; stroke-linecap: square"/>
   </g>
   <g id="line2d_51">
    <path d="M 221.4 384.48 
L 387.72 218.16 
L 221.4 218.16 
L 221.4 384.48 
" clip-path="url(#pa4af43db73)" style="fill: none; stroke: #80ffb4; stroke-width: 0.25; stroke-linecap: square"/>
   </g>
   <g id="line2d_52">
    <path d="M 224.7264 384.48 
L 387.72 214.8336 
L 218.0736 221.4864 
L 224.7264 384.48 
" clip-path="url(#pa4af43db73)" style="fill: none; stroke: #84ffb2; stroke-width: 0.25; stroke-linecap: square"/>
   </g>
   <g id="line2d_53">
    <path d="M 228.0528 384.48 
L 387.72 211.5072 
L 214.7472 224.8128 
L 228.0528 384.48 
" clip-path="url(#pa4af43db73)" style="fill: none; stroke: #8bfeae; stroke-width: 0.25; stroke-linecap: square"/>
   </g>
   <g id="line2d_54">
    <path d="M 231.3792 384.48 
L 387.72 208.1808 
L 211.4208 228.1392 
L 231.3792 384.48 
" clip-path="url(#pa4af43db73)" style="fill: none; stroke: #8efeac; stroke-width: 0.25; stroke-linecap: square"/>
   </g>
   <g id="line2d_55">
    <path d="M 234.7056 384.48 
L 387.72 204.8544 
L 208.0944 231.4656 
L 234.7056 384.48 
" clip-path="url(#pa4af43db73)" style="fill: none; stroke: #94fda8; stroke-width: 0.25; stroke-linecap: square"/>
   </g>
   <g id="line2d_56">
    <path d="M 238.032 384.48 
L 387.72 201.528 
L 204.768 234.792 
L 238.032 384.48 
" clip-path="url(#pa4af43db73)" style="fill: none; stroke: #99fca6; stroke-width: 0.25; stroke-linecap: square"/>
   </g>
   <g id="line2d_57">
    <path d="M 241.3584 384.48 
L 387.72 198.2016 
L 201.4416 238.1184 
L 241.3584 384.48 
" clip-path="url(#pa4af43db73)" style="fill: none; stroke: #9efaa2; stroke-width: 0.25; stroke-linecap: square"/>
   </g>
   <g id="line2d_58">
    <path d="M 244.6848 384.48 
L 387.72 194.8752 
L 198.1152 241.4448 
L 244.6848 384.48 
" clip-path="url(#pa4af43db73)" style="fill: none; stroke: #a2f9a0; stroke-width: 0.25; stroke-linecap: square"/>
   </g>
   <g id="line2d_59">
    <path d="M 248.0112 384.48 
L 387.72 191.5488 
L 194.7888 244.7712 
L 248.0112 384.48 
" clip-path="url(#pa4af43db73)" style="fill: none; stroke: #a8f79c; stroke-width: 0.25; stroke-linecap: square"/>
   </g>
   <g id="line2d_60">
    <path d="M 251.3376 384.48 
L 387.72 188.2224 
L 191.4624 248.0976 
L 251.3376 384.48 
" clip-path="url(#pa4af43db73)" style="fill: none; stroke: #aef498; stroke-width: 0.25; stroke-linecap: square"/>
   </g>
   <g id="line2d_61">
    <path d="M 254.664 384.48 
L 387.72 184.896 
L 188.136 251.424 
L 254.664 384.48 
" clip-path="url(#pa4af43db73)" style="fill: none; stroke: #b2f396; stroke-width: 0.25; stroke-linecap: square"/>
   </g>
   <g id="line2d_62">
    <path d="M 257.9904 384.48 
L 387.72 181.5696 
L 184.8096 254.7504 
L 257.9904 384.48 
" clip-path="url(#pa4af43db73)" style="fill: none; stroke: #b9ef92; stroke-width: 0.25; stroke-linecap: square"/>
   </g>
   <g id="line2d_63">
    <path d="M 261.3168 384.48 
L 387.72 178.2432 
L 181.4832 258.0768 
L 261.3168 384.48 
" clip-path="url(#pa4af43db73)" style="fill: none; stroke: #bced8f; stroke-width: 0.25; stroke-linecap: square"/>
   </g>
   <g id="line2d_64">
    <path d="M 264.6432 384.48 
L 387.72 174.9168 
L 178.1568 261.4032 
L 264.6432 384.48 
" clip-path="url(#pa4af43db73)" style="fill: none; stroke: #c2ea8c; stroke-width: 0.25; stroke-linecap: square"/>
   </g>
   <g id="line2d_65">
    <path d="M 267.9696 384.48 
L 387.72 171.5904 
L 174.8304 264.7296 
L 267.9696 384.48 
" clip-path="url(#pa4af43db73)" style="fill: none; stroke: #c6e789; stroke-width: 0.25; stroke-linecap: square"/>
   </g>
   <g id="line2d_66">
    <path d="M 271.296 384.48 
L 387.72 168.264 
L 171.504 268.056 
L 271.296 384.48 
" clip-path="url(#pa4af43db73)" style="fill: none; stroke: #cce385; stroke-width: 0.25; stroke-linecap: square"/>
   </g>
   <g id="line2d_67">
    <path d="M 274.6224 384.48 
L 387.72 164.9376 
L 168.1776 271.3824 
L 274.6224 384.48 
" clip-path="url(#pa4af43db73)" style="fill: none; stroke: #d0e082; stroke-width: 0.25; stroke-linecap: square"/>
   </g>
   <g id="line2d_68">
    <path d="M 277.9488 384.48 
L 387.72 161.6112 
L 164.8512 274.7088 
L 277.9488 384.48 
" clip-path="url(#pa4af43db73)" style="fill: none; stroke: #d6db7e; stroke-width: 0.25; stroke-linecap: square"/>
   </g>
   <g id="line2d_69">
    <path d="M 281.2752 384.48 
L 387.72 158.2848 
L 161.5248 278.0352 
L 281.2752 384.48 
" clip-path="url(#pa4af43db73)" style="fill: none; stroke: #dcd67a; stroke-width: 0.25; stroke-linecap: square"/>
   </g>
   <g id="line2d_70">
    <path d="M 284.6016 384.48 
L 387.72 154.9584 
L 158.1984 281.3616 
L 284.6016 384.48 
" clip-path="url(#pa4af43db73)" style="fill: none; stroke: #e0d377; stroke-width: 0.25; stroke-linecap: square"/>
   </g>
   <g id="line2d_71">
    <path d="M 287.928 384.48 
L 387.72 151.632 
L 154.872 284.688 
L 287.928 384.48 
" clip-path="url(#pa4af43db73)" style="fill: none; stroke: #e6cd73; stroke-width: 0.25; stroke-linecap: square"/>
   </g>
   <g id="line2d_72">
    <path d="M 291.2544 384.48 
L 387.72 148.3056 
L 151.5456 288.0144 
L 291.2544 384.48 
" clip-path="url(#pa4af43db73)" style="fill: none; stroke: #ebca70; stroke-width: 0.25; stroke-linecap: square"/>
   </g>
   <g id="line2d_73">
    <path d="M 294.5808 384.48 
L 387.72 144.9792 
L 148.2192 291.3408 
L 294.5808 384.48 
" clip-path="url(#pa4af43db73)" style="fill: none; stroke: #f0c46c; stroke-width: 0.25; stroke-linecap: square"/>
   </g>
   <g id="line2d_74">
    <path d="M 297.9072 384.48 
L 387.72 141.6528 
L 144.8928 294.6672 
L 297.9072 384.48 
" clip-path="url(#pa4af43db73)" style="fill: none; stroke: #f4c069; stroke-width: 0.25; stroke-linecap: square"/>
   </g>
   <g id="line2d_75">
    <path d="M 301.2336 384.48 
L 387.72 138.3264 
L 141.5664 297.9936 
L 301.2336 384.48 
" clip-path="url(#pa4af43db73)" style="fill: none; stroke: #fbb965; stroke-width: 0.25; stroke-linecap: square"/>
   </g>
   <g id="line2d_76">
    <path d="M 304.56 384.48 
L 387.72 135 
L 138.24 301.32 
L 304.56 384.48 
" clip-path="url(#pa4af43db73)" style="fill: none; stroke: #ffb360; stroke-width: 0.25; stroke-linecap: square"/>
   </g>
   <g id="line2d_77">
    <path d="M 307.8864 384.48 
L 387.72 131.6736 
L 134.9136 304.6464 
L 307.8864 384.48 
" clip-path="url(#pa4af43db73)" style="fill: none; stroke: #ffae5e; stroke-width: 0.25; stroke-linecap: square"/>
   </g>
   <g id="line2d_78">
    <path d="M 311.2128 384.48 
L 387.72 128.3472 
L 131.5872 307.9728 
L 311.2128 384.48 
" clip-path="url(#pa4af43db73)" style="fill: none; stroke: #ffa759; stroke-width: 0.25; stroke-linecap: square"/>
   </g>
   <g id="line2d_79">
    <path d="M 314.5392 384.48 
L 387.72 125.0208 
L 128.2608 311.2992 
L 314.5392 384.48 
" clip-path="url(#pa4af43db73)" style="fill: none; stroke: #ffa256; stroke-width: 0.25; stroke-linecap: square"/>
   </g>
   <g id="line2d_80">
    <path d="M 317.8656 384.48 
L 387.72 121.6944 
L 124.9344 314.6256 
L 317.8656 384.48 
" clip-path="url(#pa4af43db73)" style="fill: none; stroke: #ff9b52; stroke-width: 0.25; stroke-linecap: square"/>
   </g>
   <g id="line2d_81">
    <path d="M 321.192 384.48 
L 387.72 118.368 
L 121.608 317.952 
L 321.192 384.48 
" clip-path="url(#pa4af43db73)" style="fill: none; stroke: #ff964f; stroke-width: 0.25; stroke-linecap: square"/>
   </g>
   <g id="line2d_82">
    <path d="M 324.5184 384.48 
L 387.72 115.0416 
L 118.2816 321.2784 
L 324.5184 384.48 
" clip-path="url(#pa4af43db73)" style="fill: none; stroke: #ff8e4a; stroke-width: 0.25; stroke-linecap: square"/>
   </g>
   <g id="line2d_83">
    <path d="M 327.8448 384.48 
L 387.72 111.7152 
L 114.9552 324.6048 
L 327.8448 384.48 
" clip-path="url(#pa4af43db73)" style="fill: none; stroke: #ff8947; stroke-width: 0.25; stroke-linecap: square"/>
   </g>
   <g id="line2d_84">
    <path d="M 331.1712 384.48 
L 387.72 108.3888 
L 111.6288 327.9312 
L 331.1712 384.48 
" clip-path="url(#pa4af43db73)" style="fill: none; stroke: #ff8143; stroke-width: 0.25; stroke-linecap: square"/>
   </g>
   <g id="line2d_85">
    <path d="M 334.4976 384.48 
L 387.72 105.0624 
L 108.3024 331.2576 
L 334.4976 384.48 
" clip-path="url(#pa4af43db73)" style="fill: none; stroke: #ff793e; stroke-width: 0.25; stroke-linecap: square"/>
   </g>
   <g id="line2d_86">
    <path d="M 337.824 384.48 
L 387.72 101.736 
L 104.976 334.584 
L 337.824 384.48 
" clip-path="url(#pa4af43db73)" style="fill: none; stroke: #ff733b; stroke-width: 0.25; stroke-linecap: square"/>
   </g>
   <g id="line2d_87">
    <path d="M 341.1504 384.48 
L 387.72 98.4096 
L 101.6496 337.9104 
L 341.1504 384.48 
" clip-path="url(#pa4af43db73)" style="fill: none; stroke: #ff6b37; stroke-width: 0.25; stroke-linecap: square"/>
   </g>
   <g id="line2d_88">
    <path d="M 344.4768 384.48 
L 387.72 95.0832 
L 98.3232 341.2368 
L 344.4768 384.48 
" clip-path="url(#pa4af43db73)" style="fill: none; stroke: #ff6533; stroke-width: 0.25; stroke-linecap: square"/>
   </g>
   <g id="line2d_89">
    <path d="M 347.8032 384.48 
L 387.72 91.7568 
L 94.9968 344.5632 
L 347.8032 384.48 
" clip-path="url(#pa4af43db73)" style="fill: none; stroke: #ff5c2f; stroke-width: 0.25; stroke-linecap: square"/>
   </g>
   <g id="line2d_90">
    <path d="M 351.1296 384.48 
L 387.72 88.4304 
L 91.6704 347.8896 
L 351.1296 384.48 
" clip-path="url(#pa4af43db73)" style="fill: none; stroke: #ff562c; stroke-width: 0.25; stroke-linecap: square"/>
   </g>
   <g id="line2d_91">
    <path d="M 354.456 384.48 
L 387.72 85.104 
L 88.344 351.216 
L 354.456 384.48 
" clip-path="url(#pa4af43db73)" style="fill: none; stroke: #ff4d27; stroke-width: 0.25; stroke-linecap: square"/>
   </g>
   <g id="line2d_92">
    <path d="M 357.7824 384.48 
L 387.72 81.7776 
L 85.0176 354.5424 
L 357.7824 384.48 
" clip-path="url(#pa4af43db73)" style="fill: none; stroke: #ff4724; stroke-width: 0.25; stroke-linecap: square"/>
   </g>
   <g id="line2d_93">
    <path d="M 361.1088 384.48 
L 387.72 78.4512 
L 81.6912 357.8688 
L 361.1088 384.48 
" clip-path="url(#pa4af43db73)" style="fill: none; stroke: #ff3e1f; stroke-width: 0.25; stroke-linecap: square"/>
   </g>
   <g id="line2d_94">
    <path d="M 364.4352 384.48 
L 387.72 75.1248 
L 78.3648 361.1952 
L 364.4352 384.48 
" clip-path="url(#pa4af43db73)" style="fill: none; stroke: #ff351b; stroke-width: 0.25; stroke-linecap: square"/>
   </g>
   <g id="line2d_95">
    <path d="M 367.7616 384.48 
L 387.72 71.7984 
L 75.0384 364.5216 
L 367.7616 384.48 
" clip-path="url(#pa4af43db73)" style="fill: none; stroke: #ff2f18; stroke-width: 0.25; stroke-linecap: square"/>
   </g>
   <g id="line2d_96">
    <path d="M 371.088 384.48 
L 387.72 68.472 
L 71.712 367.848 
L 371.088 384.48 
" clip-path="url(#pa4af43db73)" style="fill: none; stroke: #ff2613; stroke-width: 0.25; stroke-linecap: square"/>
   </g>
   <g id="line2d_97">
    <path d="M 374.4144 384.48 
L 387.72 65.1456 
L 68.3856 371.1744 
L 374.4144 384.48 
" clip-path="url(#pa4af43db73)" style="fill: none; stroke: #ff1f10; stroke-width: 0.25; stroke-linecap: square"/>
   </g>
   <g id="line2d_98">
    <path d="M 377.7408 384.48 
L 387.72 61.8192 
L 65.0592 374.5008 
L 377.7408 384.48 
" clip-path="url(#pa4af43db73)" style="fill: none; stroke: #ff160b; stroke-width: 0.25; stroke-linecap: square"/>
   </g>
   <g id="line2d_99">
    <path d="M 381.0672 384.48 
L 387.72 58.4928 
L 61.7328 377.8272 
L 381.0672 384.48 
" clip-path="url(#pa4af43db73)" style="fill: none; stroke: #ff1008; stroke-width: 0.25; stroke-linecap: square"/>
   </g>
   <g id="line2d_100">
    <path d="M 384.3936 384.48 
L 387.72 55.1664 
L 58.4064 381.1536 
L 384.3936 384.48 
" clip-path="url(#pa4af43db73)" style="fill: none; stroke: #ff0603; stroke-width: 0.25; stroke-linecap: square"/>
   </g>
   <g id="line2d_101">
    <path d="M 387.72 384.48 
L 387.72 51.84 
L 55.08 384.48 
L 387.72 384.48 
" clip-path="url(#pa4af43db73)" style="fill: none; stroke: #ff0000; stroke-width: 0.25; stroke-linecap: square"/>
   </g>
  </g>
 </g>
 <defs>
  <clipPath id="pa4af43db73">
   <rect x="55.08" y="51.84" width="332.64" height="332.64"/>
  </clipPath>
 </defs>
</svg>
