<?xml version="1.0" encoding="utf-8" standalone="no"?>
<!DOCTYPE svg PUBLIC "-//W3C//DTD SVG 1.1//EN"
  "http://www.w3.org/Graphics/SVG/1.1/DTD/svg11.dtd">
<svg xmlns:xlink="http://www.w3.org/1999/xlink" width="360pt" height="360pt" viewBox="0 0 360 360" xmlns="http://www.w3.org/2000/svg" version="1.1">
 <metadata>
  <rdf:RDF xmlns:dc="http://purl.org/dc/elements/1.1/" xmlns:cc="http://creativecommons.org/ns#" xmlns:rdf="http://www.w3.org/1999/02/22-rdf-syntax-ns#">
   <cc:Work>
    <dc:type rdf:resource="http://purl.org/dc/dcmitype/StillImage"/>
    <dc:date>2025-11-29T13:35:29.984433</dc:date>
    <dc:format>image/svg+xml</dc:format>
    <dc:creator>
     <cc:Agent>
      <dc:title>Matplotlib v3.10.6, https://matplotlib.org/</dc:title>
     </cc:Agent>
    </dc:creator>
   </cc:Work>
  </rdf:RDF>
 </metadata>
 <defs>
  <style type="text/css">*{stroke-linejoin: round; stroke-linecap: butt}</style>
 </defs>
 <g id="figure_1">
  <g id="patch_1">
   <path d="M 0 360 
L 360 360 
L 360 0 
L 0 0 
z
" style="fill: #ffffff"/>
  </g>
  <g id="axes_1">
   <g id="patch_2">
    <path d="M 323.1 181.8 
C 323.1 163.599215 319.514842 145.575409 312.549703 128.760076 
C 305.584564 111.944743 295.374899 96.664899 282.505 83.795 
C 269.635101 70.925101 254.355257 60.715436 237.539924 53.750297 
C 220.724591 46.785158 202.700785 43.2 184.5 43.2 
C 166.299215 43.2 148.275409 46.785158 131.460076 53.750297 
C 114.644743 60.715436 99.364899 70.925101 86.495 83.795 
C 73.625101 96.664899 63.415436 111.944743 56.450297 128.760076 
C 49.485158 145.575409 45.9 163.599215 45.9 181.8 
C 45.9 200.000785 49.485158 218.024591 56.450297 234.839924 
C 63.415436 251.655257 73.625101 266.935101 86.495 279.805 
C 99.364899 292.674899 114.644743 302.884564 131.460076 309.849703 
C 148.275409 316.814842 166.299215 320.4 184.5 320.4 
C 202.700785 320.4 220.724591 316.814842 237.539924 309.849703 
C 254.355257 302.884564 269.635101 292.674899 282.505 279.805 
C 295.374899 266.935101 305.584564 251.655257 312.549703 234.839924 
C 319.514842 218.024591 323.1 200.000785 323.1 181.8 
M 184.5 181.8 
C 184.5 181.8 184.5 181.8 184.5 181.8 
C 184.5 181.8 184.5 181.8 184.5 181.8 
C 184.5 181.8 184.5 181.8 184.5 181.8 
C 184.5 181.8 184.5 181.8 184.5 181.8 
C 184.5 181.8 184.5 181.8 184.5 181.8 
C 184.5 181.8 184.5 181.8 184.5 181.8 
C 184.5 181.8 184.5 181.8 184.5 181.8 
C 184.5 181.8 184.5 181.8 184.5 181.8 
C 184.5 181.8 184.5 181.8 184.5 181.8 
C 184.5 181.8 184.5 181.8 184.5 181.8 
C 184.5 181.8 184.5 181.8 184.5 181.8 
C 184.5 181.8 184.5 181.8 184.5 181.8 
C 184.5 181.8 184.5 181.8 184.5 181.8 
C 184.5 181.8 184.5 181.8 184.5 181.8 
C 184.5 181.8 184.5 181.8 184.5 181.8 
C 184.5 181.8 184.5 181.8 184.5 181.8 
z
" style="fill: #ffffff"/>
   </g>
   <g id="matplotlib.axis_1">
    <g id="xtick_1">
     <g id="line2d_1">
      <path d="M 184.5 181.8 
L 323.1 181.8 
" clip-path="url(#pfb77ac562d)" style="fill: none; stroke: #b0b0b0; stroke-width: 0.8; stroke-linecap: square"/>
     </g>
     <g id="text_1">
      <!-- 0° -->
      <g transform="translate(331.41875 184.559375) scale(0.1 -0.1)">
       <defs>
        <path id="DejaVuSans-30" d="M 2034 4250 
Q 1547 4250 1301 3770 
Q 1056 3291 1056 2328 
Q 1056 1369 1301 889 
Q 1547 409 2034 409 
Q 2525 409 2770 889 
Q 3016 1369 3016 2328 
Q 3016 3291 2770 3770 
Q 2525 4250 2034 4250 
z
M 2034 4750 
Q 2819 4750 3233 4129 
Q 3647 3509 3647 2328 
Q 3647 1150 3233 529 
Q 2819 -91 2034 -91 
Q 1250 -91 836 529 
Q 422 1150 422 2328 
Q 422 3509 836 4129 
Q 1250 4750 2034 4750 
z
" transform="scale(0.015625)"/>
        <path id="DejaVuSans-b0" d="M 1600 4347 
Q 1350 4347 1178 4173 
Q 1006 4000 1006 3750 
Q 1006 3503 1178 3333 
Q 1350 3163 1600 3163 
Q 1850 3163 2022 3333 
Q 2194 3503 2194 3750 
Q 2194 3997 2020 4172 
Q 1847 4347 1600 4347 
z
M 1600 4750 
Q 1800 4750 1984 4673 
Q 2169 4597 2303 4453 
Q 2447 4313 2519 4134 
Q 2591 3956 2591 3750 
Q 2591 3338 2302 3052 
Q 2013 2766 1594 2766 
Q 1172 2766 890 3047 
Q 609 3328 609 3750 
Q 609 4169 896 4459 
Q 1184 4750 1600 4750 
z
" transform="scale(0.015625)"/>
       </defs>
       <use xlink:href="#DejaVuSans-30"/>
       <use xlink:href="#DejaVuSans-b0" transform="translate(63.623047 0)"/>
      </g>
     </g>
    </g>
    <g id="xtick_2">
     <g id="line2d_2">
      <path d="M 184.5 181.8 
L 282.505 83.795 
" clip-path="url(#pfb77ac562d)" style="fill: none; stroke: #b0b0b0; stroke-width: 0.8; stroke-linecap: square"/>
     </g>
     <g id="text_2">
      <!-- 45° -->
      <g transform="translate(283.541995 76.65488) scale(0.1 -0.1)">
       <defs>
        <path id="DejaVuSans-34" d="M 2419 4116 
L 825 1625 
L 2419 1625 
L 2419 4116 
z
M 2253 4666 
L 3047 4666 
L 3047 1625 
L 3713 1625 
L 3713 1100 
L 3047 1100 
L 3047 0 
L 2419 0 
L 2419 1100 
L 313 1100 
L 313 1709 
L 2253 4666 
z
" transform="scale(0.015625)"/>
        <path id="DejaVuSans-35" d="M 691 4666 
L 3169 4666 
L 3169 4134 
L 1269 4134 
L 1269 2991 
Q 1406 3038 1543 3061 
Q 1681 3084 1819 3084 
Q 2600 3084 3056 2656 
Q 3513 2228 3513 1497 
Q 3513 744 3044 326 
Q 2575 -91 1722 -91 
Q 1428 -91 1123 -41 
Q 819 9 494 109 
L 494 744 
Q 775 591 1075 516 
Q 1375 441 1709 441 
Q 2250 441 2565 725 
Q 2881 1009 2881 1497 
Q 2881 1984 2565 2268 
Q 2250 2553 1709 2553 
Q 1456 2553 1204 2497 
Q 953 2441 691 2322 
L 691 4666 
z
" transform="scale(0.015625)"/>
       </defs>
       <use xlink:href="#DejaVuSans-34"/>
       <use xlink:href="#DejaVuSans-35" transform="translate(63.623047 0)"/>
       <use xlink:href="#DejaVuSans-b0" transform="translate(127.246094 0)"/>
      </g>
     </g>
    </g>
    <g id="xtick_3">
     <g id="line2d_3">
      <path d="M 184.5 181.8 
L 184.5 43.2 
" clip-path="url(#pfb77ac562d)" style="fill: none; stroke: #b0b0b0; stroke-width: 0.8; stroke-linecap: square"/>
     </g>
     <g id="text_3">
      <!-- 90° -->
      <g transform="translate(175.6375 31.959375) scale(0.1 -0.1)">
       <defs>
        <path id="DejaVuSans-39" d="M 703 97 
L 703 672 
Q 941 559 1184 500 
Q 1428 441 1663 441 
Q 2288 441 2617 861 
Q 2947 1281 2994 2138 
Q 2813 1869 2534 1725 
Q 2256 1581 1919 1581 
Q 1219 1581 811 2004 
Q 403 2428 403 3163 
Q 403 3881 828 4315 
Q 1253 4750 1959 4750 
Q 2769 4750 3195 4129 
Q 3622 3509 3622 2328 
Q 3622 1225 3098 567 
Q 2575 -91 1691 -91 
Q 1453 -91 1209 -44 
Q 966 3 703 97 
z
M 1959 2075 
Q 2384 2075 2632 2365 
Q 2881 2656 2881 3163 
Q 2881 3666 2632 3958 
Q 2384 4250 1959 4250 
Q 1534 4250 1286 3958 
Q 1038 3666 1038 3163 
Q 1038 2656 1286 2365 
Q 1534 2075 1959 2075 
z
" transform="scale(0.015625)"/>
       </defs>
       <use xlink:href="#DejaVuSans-39"/>
       <use xlink:href="#DejaVuSans-30" transform="translate(63.623047 0)"/>
       <use xlink:href="#DejaVuSans-b0" transform="translate(127.246094 0)"/>
      </g>
     </g>
    </g>
    <g id="xtick_4">
     <g id="line2d_4">
      <path d="M 184.5 181.8 
L 86.495 83.795 
" clip-path="url(#pfb77ac562d)" style="fill: none; stroke: #b0b0b0; stroke-width: 0.8; stroke-linecap: square"/>
     </g>
     <g id="text_4">
      <!-- 135° -->
      <g transform="translate(64.551755 76.65488) scale(0.1 -0.1)">
       <defs>
        <path id="DejaVuSans-31" d="M 794 531 
L 1825 531 
L 1825 4091 
L 703 3866 
L 703 4441 
L 1819 4666 
L 2450 4666 
L 2450 531 
L 3481 531 
L 3481 0 
L 794 0 
L 794 531 
z
" transform="scale(0.015625)"/>
        <path id="DejaVuSans-33" d="M 2597 2516 
Q 3050 2419 3304 2112 
Q 3559 1806 3559 1356 
Q 3559 666 3084 287 
Q 2609 -91 1734 -91 
Q 1441 -91 1130 -33 
Q 819 25 488 141 
L 488 750 
Q 750 597 1062 519 
Q 1375 441 1716 441 
Q 2309 441 2620 675 
Q 2931 909 2931 1356 
Q 2931 1769 2642 2001 
Q 2353 2234 1838 2234 
L 1294 2234 
L 1294 2753 
L 1863 2753 
Q 2328 2753 2575 2939 
Q 2822 3125 2822 3475 
Q 2822 3834 2567 4026 
Q 2313 4219 1838 4219 
Q 1578 4219 1281 4162 
Q 984 4106 628 3988 
L 628 4550 
Q 988 4650 1302 4700 
Q 1616 4750 1894 4750 
Q 2613 4750 3031 4423 
Q 3450 4097 3450 3541 
Q 3450 3153 3228 2886 
Q 3006 2619 2597 2516 
z
" transform="scale(0.015625)"/>
       </defs>
       <use xlink:href="#DejaVuSans-31"/>
       <use xlink:href="#DejaVuSans-33" transform="translate(63.623047 0)"/>
       <use xlink:href="#DejaVuSans-35" transform="translate(127.246094 0)"/>
       <use xlink:href="#DejaVuSans-b0" transform="translate(190.869141 0)"/>
      </g>
     </g>
    </g>
    <g id="xtick_5">
     <g id="line2d_5">
      <path d="M 184.5 181.8 
L 45.9 181.8 
" clip-path="url(#pfb77ac562d)" style="fill: none; stroke: #b0b0b0; stroke-width: 0.8; stroke-linecap: square"/>
     </g>
     <g id="text_5">
      <!-- 180° -->
      <g transform="translate(19.85625 184.559375) scale(0.1 -0.1)">
       <defs>
        <path id="DejaVuSans-38" d="M 2034 2216 
Q 1584 2216 1326 1975 
Q 1069 1734 1069 1313 
Q 1069 891 1326 650 
Q 1584 409 2034 409 
Q 2484 409 2743 651 
Q 3003 894 3003 1313 
Q 3003 1734 2745 1975 
Q 2488 2216 2034 2216 
z
M 1403 2484 
Q 997 2584 770 2862 
Q 544 3141 544 3541 
Q 544 4100 942 4425 
Q 1341 4750 2034 4750 
Q 2731 4750 3128 4425 
Q 3525 4100 3525 3541 
Q 3525 3141 3298 2862 
Q 3072 2584 2669 2484 
Q 3125 2378 3379 2068 
Q 3634 1759 3634 1313 
Q 3634 634 3220 271 
Q 2806 -91 2034 -91 
Q 1263 -91 848 271 
Q 434 634 434 1313 
Q 434 1759 690 2068 
Q 947 2378 1403 2484 
z
M 1172 3481 
Q 1172 3119 1398 2916 
Q 1625 2713 2034 2713 
Q 2441 2713 2670 2916 
Q 2900 3119 2900 3481 
Q 2900 3844 2670 4047 
Q 2441 4250 2034 4250 
Q 1625 4250 1398 4047 
Q 1172 3844 1172 3481 
z
" transform="scale(0.015625)"/>
       </defs>
       <use xlink:href="#DejaVuSans-31"/>
       <use xlink:href="#DejaVuSans-38" transform="translate(63.623047 0)"/>
       <use xlink:href="#DejaVuSans-30" transform="translate(127.246094 0)"/>
       <use xlink:href="#DejaVuSans-b0" transform="translate(190.869141 0)"/>
      </g>
     </g>
    </g>
    <g id="xtick_6">
     <g id="line2d_6">
      <path d="M 184.5 181.8 
L 86.495 279.805 
" clip-path="url(#pfb77ac562d)" style="fill: none; stroke: #b0b0b0; stroke-width: 0.8; stroke-linecap: square"/>
     </g>
     <g id="text_6">
      <!-- 225° -->
      <g transform="translate(64.551755 292.46387) scale(0.1 -0.1)">
       <defs>
        <path id="DejaVuSans-32" d="M 1228 531 
L 3431 531 
L 3431 0 
L 469 0 
L 469 531 
Q 828 903 1448 1529 
Q 2069 2156 2228 2338 
Q 2531 2678 2651 2914 
Q 2772 3150 2772 3378 
Q 2772 3750 2511 3984 
Q 2250 4219 1831 4219 
Q 1534 4219 1204 4116 
Q 875 4013 500 3803 
L 500 4441 
Q 881 4594 1212 4672 
Q 1544 4750 1819 4750 
Q 2544 4750 2975 4387 
Q 3406 4025 3406 3419 
Q 3406 3131 3298 2873 
Q 3191 2616 2906 2266 
Q 2828 2175 2409 1742 
Q 1991 1309 1228 531 
z
" transform="scale(0.015625)"/>
       </defs>
       <use xlink:href="#DejaVuSans-32"/>
       <use xlink:href="#DejaVuSans-32" transform="translate(63.623047 0)"/>
       <use xlink:href="#DejaVuSans-35" transform="translate(127.246094 0)"/>
       <use xlink:href="#DejaVuSans-b0" transform="translate(190.869141 0)"/>
      </g>
     </g>
    </g>
    <g id="xtick_7">
     <g id="line2d_7">
      <path d="M 184.5 181.8 
L 184.5 320.4 
" clip-path="url(#pfb77ac562d)" style="fill: none; stroke: #b0b0b0; stroke-width: 0.8; stroke-linecap: square"/>
     </g>
     <g id="text_7">
      <!-- 270° -->
      <g transform="translate(172.45625 337.159375) scale(0.1 -0.1)">
       <defs>
        <path id="DejaVuSans-37" d="M 525 4666 
L 3525 4666 
L 3525 4397 
L 1831 0 
L 1172 0 
L 2766 4134 
L 525 4134 
L 525 4666 
z
" transform="scale(0.015625)"/>
       </defs>
       <use xlink:href="#DejaVuSans-32"/>
       <use xlink:href="#DejaVuSans-37" transform="translate(63.623047 0)"/>
       <use xlink:href="#DejaVuSans-30" transform="translate(127.246094 0)"/>
       <use xlink:href="#DejaVuSans-b0" transform="translate(190.869141 0)"/>
      </g>
     </g>
    </g>
    <g id="xtick_8">
     <g id="line2d_8">
      <path d="M 184.5 181.8 
L 282.505 279.805 
" clip-path="url(#pfb77ac562d)" style="fill: none; stroke: #b0b0b0; stroke-width: 0.8; stroke-linecap: square"/>
     </g>
     <g id="text_8">
      <!-- 315° -->
      <g transform="translate(280.360745 292.46387) scale(0.1 -0.1)">
       <use xlink:href="#DejaVuSans-33"/>
       <use xlink:href="#DejaVuSans-31" transform="translate(63.623047 0)"/>
       <use xlink:href="#DejaVuSans-35" transform="translate(127.246094 0)"/>
       <use xlink:href="#DejaVuSans-b0" transform="translate(190.869141 0)"/>
      </g>
     </g>
    </g>
   </g>
   <g id="matplotlib.axis_2">
    <g id="ytick_1">
     <g id="line2d_9">
      <path d="M 194.255476 181.8 
C 194.255476 180.518923 194.003132 179.250302 193.512884 178.066741 
C 193.022637 176.88318 192.304022 175.807695 191.398163 174.901837 
C 190.492305 173.995978 189.41682 173.277363 188.233259 172.787116 
C 187.049698 172.296868 185.781077 172.044524 184.5 172.044524 
C 183.218923 172.044524 181.950302 172.296868 180.766741 172.787116 
C 179.58318 173.277363 178.507695 173.995978 177.601837 174.901837 
C 176.695978 175.807695 175.977363 176.88318 175.487116 178.066741 
C 174.996868 179.250302 174.744524 180.518923 174.744524 181.8 
C 174.744524 183.081077 174.996868 184.349698 175.487116 185.533259 
C 175.977363 186.71682 176.695978 187.792305 177.601837 188.698163 
C 178.507695 189.604022 179.58318 190.322637 180.766741 190.812884 
C 181.950302 191.303132 183.218923 191.555476 184.5 191.555476 
C 185.781077 191.555476 187.049698 191.303132 188.233259 190.812884 
C 189.41682 190.322637 190.492305 189.604022 191.398163 188.698163 
C 192.304022 187.792305 193.022637 186.71682 193.512884 185.533259 
C 194.003132 184.349698 194.255476 183.081077 194.255476 181.8 
" clip-path="url(#pfb77ac562d)" style="fill: none; stroke: #b0b0b0; stroke-width: 0.8; stroke-linecap: square"/>
     </g>
    </g>
    <g id="ytick_2">
     <g id="line2d_10">
      <path d="M 213.003651 181.8 
C 213.003651 178.056935 212.266348 174.350266 210.833939 170.892125 
C 209.40153 167.433984 207.301871 164.291622 204.655125 161.644875 
C 202.008378 158.998129 198.866016 156.89847 195.407875 155.466061 
C 191.949734 154.033652 188.243065 153.296349 184.5 153.296349 
C 180.756935 153.296349 177.050266 154.033652 173.592125 155.466061 
C 170.133984 156.89847 166.991622 158.998129 164.344875 161.644875 
C 161.698129 164.291622 159.59847 167.433984 158.166061 170.892125 
C 156.733652 174.350266 155.996349 178.056935 155.996349 181.8 
C 155.996349 185.543065 156.733652 189.249734 158.166061 192.707875 
C 159.59847 196.166016 161.698129 199.308378 164.344875 201.955125 
C 166.991622 204.601871 170.133984 206.70153 173.592125 208.133939 
C 177.050266 209.566348 180.756935 210.303651 184.5 210.303651 
C 188.243065 210.303651 191.949734 209.566348 195.407875 208.133939 
C 198.866016 206.70153 202.008378 204.601871 204.655125 201.955125 
C 207.301871 199.308378 209.40153 196.166016 210.833939 192.707875 
C 212.266348 189.249734 213.003651 185.543065 213.003651 181.8 
" clip-path="url(#pfb77ac562d)" style="fill: none; stroke: #b0b0b0; stroke-width: 0.8; stroke-linecap: square"/>
     </g>
    </g>
    <g id="ytick_3">
     <g id="line2d_11">
      <path d="M 231.751825 181.8 
C 231.751825 175.594947 230.529565 169.450231 228.154994 163.717509 
C 225.780423 157.984788 222.299721 152.775549 217.912086 148.387914 
C 213.524451 144.000279 208.315212 140.519577 202.582491 138.145006 
C 196.849769 135.770435 190.705053 134.548175 184.5 134.548175 
C 178.294947 134.548175 172.150231 135.770435 166.417509 138.145006 
C 160.684788 140.519577 155.475549 144.000279 151.087914 148.387914 
C 146.700279 152.775549 143.219577 157.984788 140.845006 163.717509 
C 138.470435 169.450231 137.248175 175.594947 137.248175 181.8 
C 137.248175 188.005053 138.470435 194.149769 140.845006 199.882491 
C 143.219577 205.615212 146.700279 210.824451 151.087914 215.212086 
C 155.475549 219.599721 160.684788 223.080423 166.417509 225.454994 
C 172.150231 227.829565 178.294947 229.051825 184.5 229.051825 
C 190.705053 229.051825 196.849769 227.829565 202.582491 225.454994 
C 208.315212 223.080423 213.524451 219.599721 217.912086 215.212086 
C 222.299721 210.824451 225.780423 205.615212 228.154994 199.882491 
C 230.529565 194.149769 231.751825 188.005053 231.751825 181.8 
" clip-path="url(#pfb77ac562d)" style="fill: none; stroke: #b0b0b0; stroke-width: 0.8; stroke-linecap: square"/>
     </g>
    </g>
    <g id="ytick_4">
     <g id="line2d_12">
      <path d="M 250.5 181.8 
C 250.5 173.132959 248.792782 164.550195 245.476049 156.542893 
C 242.159316 148.535592 237.297571 141.259476 231.169048 135.130952 
C 225.040524 129.002429 217.764408 124.140684 209.757107 120.823951 
C 201.749805 117.507218 193.167041 115.8 184.5 115.8 
C 175.832959 115.8 167.250195 117.507218 159.242893 120.823951 
C 151.235592 124.140684 143.959476 129.002429 137.830952 135.130952 
C 131.702429 141.259476 126.840684 148.535592 123.523951 156.542893 
C 120.207218 164.550195 118.5 173.132959 118.5 181.8 
C 118.5 190.467041 120.207218 199.049805 123.523951 207.057107 
C 126.840684 215.064408 131.702429 222.340524 137.830952 228.469048 
C 143.959476 234.597571 151.235592 239.459316 159.242893 242.776049 
C 167.250195 246.092782 175.832959 247.8 184.5 247.8 
C 193.167041 247.8 201.749805 246.092782 209.757107 242.776049 
C 217.764408 239.459316 225.040524 234.597571 231.169048 228.469048 
C 237.297571 222.340524 242.159316 215.064408 245.476049 207.057107 
C 248.792782 199.049805 250.5 190.467041 250.5 181.8 
" clip-path="url(#pfb77ac562d)" style="fill: none; stroke: #b0b0b0; stroke-width: 0.8; stroke-linecap: square"/>
     </g>
    </g>
    <g id="ytick_5">
     <g id="line2d_13">
      <path d="M 269.248175 181.8 
C 269.248175 170.670972 267.055999 159.650159 262.797104 149.368278 
C 258.538209 139.086396 252.29542 129.743402 244.426009 121.873991 
C 236.556598 114.00458 227.213604 107.761791 216.931722 103.502896 
C 206.649841 99.244001 195.629028 97.051825 184.5 97.051825 
C 173.370972 97.051825 162.350159 99.244001 152.068278 103.502896 
C 141.786396 107.761791 132.443402 114.00458 124.573991 121.873991 
C 116.70458 129.743402 110.461791 139.086396 106.202896 149.368278 
C 101.944001 159.650159 99.751825 170.670972 99.751825 181.8 
C 99.751825 192.929028 101.944001 203.949841 106.202896 214.231722 
C 110.461791 224.513604 116.70458 233.856598 124.573991 241.726009 
C 132.443402 249.59542 141.786396 255.838209 152.068278 260.097104 
C 162.350159 264.355999 173.370972 266.548175 184.5 266.548175 
C 195.629028 266.548175 206.649841 264.355999 216.931722 260.097104 
C 227.213604 255.838209 236.556598 249.59542 244.426009 241.726009 
C 252.29542 233.856598 258.538209 224.513604 262.797104 214.231722 
C 267.055999 203.949841 269.248175 192.929028 269.248175 181.8 
" clip-path="url(#pfb77ac562d)" style="fill: none; stroke: #b0b0b0; stroke-width: 0.8; stroke-linecap: square"/>
     </g>
    </g>
    <g id="ytick_6">
     <g id="line2d_14">
      <path d="M 287.996349 181.8 
C 287.996349 168.208984 285.319216 154.750123 280.118159 142.193662 
C 274.917102 129.6372 267.29327 118.227329 257.682971 108.617029 
C 248.072671 99.00673 236.6628 91.382898 224.106338 86.181841 
C 211.549877 80.980784 198.091016 78.303651 184.5 78.303651 
C 170.908984 78.303651 157.450123 80.980784 144.893662 86.181841 
C 132.3372 91.382898 120.927329 99.00673 111.317029 108.617029 
C 101.70673 118.227329 94.082898 129.6372 88.881841 142.193662 
C 83.680784 154.750123 81.003651 168.208984 81.003651 181.8 
C 81.003651 195.391016 83.680784 208.849877 88.881841 221.406338 
C 94.082898 233.9628 101.70673 245.372671 111.317029 254.982971 
C 120.927329 264.59327 132.3372 272.217102 144.893662 277.418159 
C 157.450123 282.619216 170.908984 285.296349 184.5 285.296349 
C 198.091016 285.296349 211.549877 282.619216 224.106338 277.418159 
C 236.6628 272.217102 248.072671 264.59327 257.682971 254.982971 
C 267.29327 245.372671 274.917102 233.9628 280.118159 221.406338 
C 285.319216 208.849877 287.996349 195.391016 287.996349 181.8 
" clip-path="url(#pfb77ac562d)" style="fill: none; stroke: #b0b0b0; stroke-width: 0.8; stroke-linecap: square"/>
     </g>
    </g>
    <g id="ytick_7">
     <g id="line2d_15">
      <path d="M 306.744524 181.8 
C 306.744524 165.746996 303.582432 149.850088 297.439214 135.019046 
C 291.295995 120.188004 282.29112 106.711256 270.939932 95.360068 
C 259.588744 84.00888 246.111996 75.004005 231.280954 68.860786 
C 216.449912 62.717568 200.553004 59.555476 184.5 59.555476 
C 168.446996 59.555476 152.550088 62.717568 137.719046 68.860786 
C 122.888004 75.004005 109.411256 84.00888 98.060068 95.360068 
C 86.70888 106.711256 77.704005 120.188004 71.560786 135.019046 
C 65.417568 149.850088 62.255476 165.746996 62.255476 181.8 
C 62.255476 197.853004 65.417568 213.749912 71.560786 228.580954 
C 77.704005 243.411996 86.70888 256.888744 98.060068 268.239932 
C 109.411256 279.59112 122.888004 288.595995 137.719046 294.739214 
C 152.550088 300.882432 168.446996 304.044524 184.5 304.044524 
C 200.553004 304.044524 216.449912 300.882432 231.280954 294.739214 
C 246.111996 288.595995 259.588744 279.59112 270.939932 268.239932 
C 282.29112 256.888744 291.295995 243.411996 297.439214 228.580954 
C 303.582432 213.749912 306.744524 197.853004 306.744524 181.8 
" clip-path="url(#pfb77ac562d)" style="fill: none; stroke: #b0b0b0; stroke-width: 0.8; stroke-linecap: square"/>
     </g>
    </g>
   </g>
   <g id="line2d_16">
    <path d="M 250.5 181.8 
L 245.540012 180.456772 
L 240.583939 179.330471 
L 235.667314 178.417714 
L 230.141286 177.628156 
L 224.762646 177.096347 
L 219.579408 176.80493 
L 214.636629 176.732646 
L 209.415007 176.882247 
L 204.603231 177.237678 
L 199.792966 177.820102 
L 195.212163 178.613021 
L 191.120256 179.555385 
L 187.588123 180.599056 
L 184.870989 181.628167 
L 184.5 181.8 
L 185.455439 181.246708 
L 187.711398 179.71796 
L 190.322057 177.678112 
L 193.19493 175.138091 
L 196.096091 172.261393 
L 198.860365 169.210456 
L 201.660875 165.773959 
L 204.146763 162.383457 
L 206.542959 158.746945 
L 208.798395 154.904705 
L 210.86659 150.901659 
L 212.514388 147.247694 
L 213.956633 143.541215 
L 215.172289 139.819537 
L 216.144488 136.120606 
L 216.860661 132.482415 
L 217.312591 128.942412 
L 217.488119 125.954055 
L 217.458392 123.092019 
L 217.225916 120.378347 
L 216.795513 117.833559 
L 216.174188 115.476412 
L 215.37097 113.323677 
L 214.396728 111.389944 
L 213.26397 109.687448 
L 212.17739 108.419667 
L 210.994028 107.333585 
L 209.723876 106.43237 
L 208.377327 105.717713 
L 206.965059 105.189821 
L 205.497909 104.847416 
L 203.731378 104.678628 
L 201.922062 104.751656 
L 200.086665 105.057062 
L 198.241233 105.582936 
L 196.139277 106.43554 
L 194.0648 107.532786 
L 192.036345 108.846754 
L 189.82905 110.545652 
L 187.490346 112.651761 
L 185.076078 115.154501 
L 182.644502 117.998739 
L 179.725488 121.767376 
L 175.037901 127.862431 
L 173.455378 129.529533 
L 172.158464 130.597683 
L 170.976407 131.302811 
L 169.742516 131.765483 
L 168.601687 131.965525 
L 167.387175 131.972175 
L 165.889101 131.743958 
L 164.252473 131.269461 
L 162.220111 130.453752 
L 159.424805 129.08136 
L 154.674088 126.451618 
L 144.653857 120.865989 
L 139.392595 118.193027 
L 134.168569 115.787124 
L 129.12407 113.719585 
L 124.3805 112.01649 
L 120.034218 110.66946 
L 115.5979 109.513436 
L 111.105741 108.578555 
L 107.158362 107.963427 
L 103.22291 107.554663 
L 99.326885 107.366256 
L 95.498658 107.409862 
L 91.767186 107.694654 
L 88.667948 108.135783 
L 85.67968 108.761562 
L 82.820623 109.573091 
L 80.108709 110.569989 
L 77.561415 111.750387 
L 75.195617 113.110946 
L 73.027448 114.646885 
L 71.072166 116.352017 
L 69.615697 117.896808 
L 68.324628 119.548835 
L 67.206011 121.302461 
L 66.266263 123.151489 
L 65.511119 125.089205 
L 64.945596 127.108411 
L 64.573963 129.201477 
L 64.399703 131.360378 
L 64.425496 133.576751 
L 64.653191 135.841936 
L 65.083788 138.147038 
L 65.717433 140.482973 
L 66.553401 142.840525 
L 67.821322 145.685041 
L 69.373839 148.531228 
L 71.204759 151.363102 
L 73.306132 154.16492 
L 75.668298 156.921311 
L 78.279944 159.617411 
L 81.128171 162.238991 
L 84.198583 164.772584 
L 87.475379 167.205594 
L 90.941463 169.526411 
L 94.578556 171.724506 
L 99.012127 174.121431 
L 103.619855 176.325944 
L 108.368094 178.327817 
L 113.222129 180.119403 
L 118.146512 181.69572 
L 123.10541 183.054501 
L 128.062947 184.196216 
L 132.983555 185.124057 
L 138.517143 185.930206 
L 143.906429 186.477658 
L 149.103234 186.783516 
L 154.062297 186.868804 
L 159.305197 186.731854 
L 164.141014 186.386732 
L 168.980722 185.812763 
L 173.596508 185.025257 
L 177.728675 184.083977 
L 181.309007 183.03518 
L 184.01826 182.020378 
L 184.499592 181.800206 
L 183.595197 182.322072 
L 181.376356 183.818181 
L 178.789032 185.82978 
L 175.931764 188.343494 
L 173.03971 191.196743 
L 170.279382 194.227558 
L 167.478773 197.645621 
L 164.98948 201.02138 
L 162.586923 204.645235 
L 160.322402 208.477186 
L 158.242672 212.472545 
L 156.582817 216.122013 
L 155.127067 219.826293 
L 153.896711 223.548129 
L 152.908882 227.249597 
L 152.176422 230.892691 
L 151.707818 234.439909 
L 151.517597 237.436411 
L 151.532718 240.308217 
L 151.750845 243.033187 
L 152.167317 245.590682 
L 152.775281 247.961813 
L 153.565847 250.129659 
L 154.52827 252.07947 
L 155.650151 253.798836 
L 156.917662 255.277833 
L 158.108644 256.34861 
L 159.385564 257.234323 
L 160.738001 257.933404 
L 162.155258 258.445769 
L 163.626489 258.772821 
L 165.39664 258.924078 
L 167.208367 258.834108 
L 169.045004 258.512531 
L 170.89056 257.971427 
L 172.991388 257.102775 
L 175.063506 255.991134 
L 177.088527 254.664615 
L 179.290891 252.953999 
L 181.623114 250.838059 
L 184.029494 248.32857 
L 186.644504 245.243324 
L 189.699695 241.262685 
L 193.74376 235.993028 
L 195.329707 234.275311 
L 196.623763 233.16063 
L 197.798721 232.41123 
L 199.021091 231.902398 
L 200.148183 231.661089 
L 201.345586 231.612962 
L 202.820105 231.794268 
L 204.429134 232.223205 
L 206.426023 232.990322 
L 209.172468 234.308756 
L 213.527068 236.694544 
L 224.977452 243.066852 
L 230.298056 245.73985 
L 235.571206 248.132167 
L 240.654189 250.176129 
L 245.426099 251.849158 
L 249.791722 253.162788 
L 254.241207 254.279563 
L 258.73979 255.169852 
L 262.686875 255.742049 
L 266.616227 256.104694 
L 270.500137 256.244282 
L 274.310082 256.149679 
L 278.017022 255.812259 
L 281.090239 255.325151 
L 284.047905 254.652981 
L 286.871842 253.795015 
L 289.544218 252.752009 
L 292.047694 251.526201 
L 294.365565 250.121293 
L 296.481905 248.542422 
L 298.08071 247.098478 
L 299.520974 245.542727 
L 300.795105 243.880276 
L 301.896113 242.116823 
L 302.817647 240.258615 
L 303.554043 238.312419 
L 304.100356 236.285476 
L 304.452396 234.18546 
L 304.606757 232.02043 
L 304.560843 229.798782 
L 304.312889 227.529201 
L 303.861979 225.220605 
L 303.208055 222.882092 
L 302.351929 220.522888 
L 301.060098 217.677619 
L 299.48412 214.832017 
L 297.630335 212.00205 
L 295.506836 209.203437 
L 293.123426 206.45151 
L 290.491551 203.761087 
L 287.624239 201.146335 
L 284.536006 198.620657 
L 281.242765 196.196567 
L 277.761718 193.88559 
L 274.111233 191.698161 
L 269.664134 189.314588 
L 265.045239 187.12424 
L 260.288281 185.137164 
L 255.42804 183.360821 
L 250.5 181.8 
L 250.5 181.8 
" clip-path="url(#pfb77ac562d)" style="fill: none; stroke: #1f77b4; stroke-width: 1.5; stroke-linecap: square"/>
   </g>
   <g id="patch_3">
    <path d="M 323.1 181.8 
C 323.1 163.599215 319.514842 145.575409 312.549703 128.760076 
C 305.584564 111.944743 295.374899 96.664899 282.505 83.795 
C 269.635101 70.925101 254.355257 60.715436 237.539924 53.750297 
C 220.724591 46.785158 202.700785 43.2 184.5 43.2 
C 166.299215 43.2 148.275409 46.785158 131.460076 53.750297 
C 114.644743 60.715436 99.364899 70.925101 86.495 83.795 
C 73.625101 96.664899 63.415436 111.944743 56.450297 128.760076 
C 49.485158 145.575409 45.9 163.599215 45.9 181.8 
C 45.9 200.000785 49.485158 218.024591 56.450297 234.839924 
C 63.415436 251.655257 73.625101 266.935101 86.495 279.805 
C 99.364899 292.674899 114.644743 302.884564 131.460076 309.849703 
C 148.275409 316.814842 166.299215 320.4 184.5 320.4 
C 202.700785 320.4 220.724591 316.814842 237.539924 309.849703 
C 254.355257 302.884564 269.635101 292.674899 282.505 279.805 
C 295.374899 266.935101 305.584564 251.655257 312.549703 234.839924 
C 319.514842 218.024591 323.1 200.000785 323.1 181.8 
" style="fill: none; stroke: #000000; stroke-width: 0.8; stroke-linejoin: miter; stroke-linecap: square"/>
   </g>
  </g>
 </g>
 <defs>
  <clipPath id="pfb77ac562d">
   <path d="M 323.1 181.8 
C 323.1 163.599215 319.514842 145.575409 312.549703 128.760076 
C 305.584564 111.944743 295.374899 96.664899 282.505 83.795 
C 269.635101 70.925101 254.355257 60.715436 237.539924 53.750297 
C 220.724591 46.785158 202.700785 43.2 184.5 43.2 
C 166.299215 43.2 148.275409 46.785158 131.460076 53.750297 
C 114.644743 60.715436 99.364899 70.925101 86.495 83.795 
C 73.625101 96.664899 63.415436 111.944743 56.450297 128.760076 
C 49.485158 145.575409 45.9 163.599215 45.9 181.8 
C 45.9 200.000785 49.485158 218.024591 56.450297 234.839924 
C 63.415436 251.655257 73.625101 266.935101 86.495 279.805 
C 99.364899 292.674899 114.644743 302.884564 131.460076 309.849703 
C 148.275409 316.814842 166.299215 320.4 184.5 320.4 
C 202.700785 320.4 220.724591 316.814842 237.539924 309.849703 
C 254.355257 302.884564 269.635101 292.674899 282.505 279.805 
C 295.374899 266.935101 305.584564 251.655257 312.549703 234.839924 
C 319.514842 218.024591 323.1 200.000785 323.1 181.8 
M 184.5 181.8 
C 184.5 181.8 184.5 181.8 184.5 181.8 
C 184.5 181.8 184.5 181.8 184.5 181.8 
C 184.5 181.8 184.5 181.8 184.5 181.8 
C 184.5 181.8 184.5 181.8 184.5 181.8 
C 184.5 181.8 184.5 181.8 184.5 181.8 
C 184.5 181.8 184.5 181.8 184.5 181.8 
C 184.5 181.8 184.5 181.8 184.5 181.8 
C 184.5 181.8 184.5 181.8 184.5 181.8 
C 184.5 181.8 184.5 181.8 184.5 181.8 
C 184.5 181.8 184.5 181.8 184.5 181.8 
C 184.5 181.8 184.5 181.8 184.5 181.8 
C 184.5 181.8 184.5 181.8 184.5 181.8 
C 184.5 181.8 184.5 181.8 184.5 181.8 
C 184.5 181.8 184.5 181.8 184.5 181.8 
C 184.5 181.8 184.5 181.8 184.5 181.8 
C 184.5 181.8 184.5 181.8 184.5 181.8 
z
"/>
  </clipPath>
 </defs>
</svg>
