<?xml version="1.0" encoding="utf-8" standalone="no"?>
<!DOCTYPE svg PUBLIC "-//W3C//DTD SVG 1.1//EN"
  "http://www.w3.org/Graphics/SVG/1.1/DTD/svg11.dtd">
<svg xmlns:xlink="http://www.w3.org/1999/xlink" width="360pt" height="216pt" viewBox="0 0 360 216" xmlns="http://www.w3.org/2000/svg" version="1.1">
 <metadata>
  <rdf:RDF xmlns:dc="http://purl.org/dc/elements/1.1/" xmlns:cc="http://creativecommons.org/ns#" xmlns:rdf="http://www.w3.org/1999/02/22-rdf-syntax-ns#">
   <cc:Work>
    <dc:type rdf:resource="http://purl.org/dc/dcmitype/StillImage"/>
    <dc:date>2025-11-27T17:33:32.906727</dc:date>
    <dc:format>image/svg+xml</dc:format>
    <dc:creator>
     <cc:Agent>
      <dc:title>Matplotlib v3.10.6, https://matplotlib.org/</dc:title>
     </cc:Agent>
    </dc:creator>
   </cc:Work>
  </rdf:RDF>
 </metadata>
 <defs>
  <style type="text/css">*{stroke-linejoin: round; stroke-linecap: butt}</style>
 </defs>
 <g id="figure_1">
  <g id="patch_1">
   <path d="M 0 216 
L 360 216 
L 360 0 
L 0 0 
z
" style="fill: #ffffff"/>
  </g>
  <g id="axes_1">
   <g id="patch_2">
    <path d="M 45 192.24 
L 324 192.24 
L 324 25.92 
L 45 25.92 
z
" style="fill: #ffffff"/>
   </g>
   <g id="matplotlib.axis_1">
    <g id="xtick_1">
     <g id="line2d_1">
      <defs>
       <path id="mee8f862b3e" d="M 0 0 
L 0 3.5 
" style="stroke: #000000; stroke-width: 0.8"/>
      </defs>
      <g>
       <use xlink:href="#mee8f862b3e" x="45" y="192.24" style="stroke: #000000; stroke-width: 0.8"/>
      </g>
     </g>
     <g id="text_1">
      <!-- 0 -->
      <g transform="translate(41.81875 206.838437) scale(0.1 -0.1)">
       <defs>
        <path id="DejaVuSans-30" d="M 2034 4250 
Q 1547 4250 1301 3770 
Q 1056 3291 1056 2328 
Q 1056 1369 1301 889 
Q 1547 409 2034 409 
Q 2525 409 2770 889 
Q 3016 1369 3016 2328 
Q 3016 3291 2770 3770 
Q 2525 4250 2034 4250 
z
M 2034 4750 
Q 2819 4750 3233 4129 
Q 3647 3509 3647 2328 
Q 3647 1150 3233 529 
Q 2819 -91 2034 -91 
Q 1250 -91 836 529 
Q 422 1150 422 2328 
Q 422 3509 836 4129 
Q 1250 4750 2034 4750 
z
" transform="scale(0.015625)"/>
       </defs>
       <use xlink:href="#DejaVuSans-30"/>
      </g>
     </g>
    </g>
    <g id="xtick_2">
     <g id="line2d_2">
      <g>
       <use xlink:href="#mee8f862b3e" x="89.404229" y="192.24" style="stroke: #000000; stroke-width: 0.8"/>
      </g>
     </g>
     <g id="text_2">
      <!-- 2 -->
      <g transform="translate(86.222979 206.838437) scale(0.1 -0.1)">
       <defs>
        <path id="DejaVuSans-32" d="M 1228 531 
L 3431 531 
L 3431 0 
L 469 0 
L 469 531 
Q 828 903 1448 1529 
Q 2069 2156 2228 2338 
Q 2531 2678 2651 2914 
Q 2772 3150 2772 3378 
Q 2772 3750 2511 3984 
Q 2250 4219 1831 4219 
Q 1534 4219 1204 4116 
Q 875 4013 500 3803 
L 500 4441 
Q 881 4594 1212 4672 
Q 1544 4750 1819 4750 
Q 2544 4750 2975 4387 
Q 3406 4025 3406 3419 
Q 3406 3131 3298 2873 
Q 3191 2616 2906 2266 
Q 2828 2175 2409 1742 
Q 1991 1309 1228 531 
z
" transform="scale(0.015625)"/>
       </defs>
       <use xlink:href="#DejaVuSans-32"/>
      </g>
     </g>
    </g>
    <g id="xtick_3">
     <g id="line2d_3">
      <g>
       <use xlink:href="#mee8f862b3e" x="133.808458" y="192.24" style="stroke: #000000; stroke-width: 0.8"/>
      </g>
     </g>
     <g id="text_3">
      <!-- 4 -->
      <g transform="translate(130.627208 206.838437) scale(0.1 -0.1)">
       <defs>
        <path id="DejaVuSans-34" d="M 2419 4116 
L 825 1625 
L 2419 1625 
L 2419 4116 
z
M 2253 4666 
L 3047 4666 
L 3047 1625 
L 3713 1625 
L 3713 1100 
L 3047 1100 
L 3047 0 
L 2419 0 
L 2419 1100 
L 313 1100 
L 313 1709 
L 2253 4666 
z
" transform="scale(0.015625)"/>
       </defs>
       <use xlink:href="#DejaVuSans-34"/>
      </g>
     </g>
    </g>
    <g id="xtick_4">
     <g id="line2d_4">
      <g>
       <use xlink:href="#mee8f862b3e" x="178.212687" y="192.24" style="stroke: #000000; stroke-width: 0.8"/>
      </g>
     </g>
     <g id="text_4">
      <!-- 6 -->
      <g transform="translate(175.031437 206.838437) scale(0.1 -0.1)">
       <defs>
        <path id="DejaVuSans-36" d="M 2113 2584 
Q 1688 2584 1439 2293 
Q 1191 2003 1191 1497 
Q 1191 994 1439 701 
Q 1688 409 2113 409 
Q 2538 409 2786 701 
Q 3034 994 3034 1497 
Q 3034 2003 2786 2293 
Q 2538 2584 2113 2584 
z
M 3366 4563 
L 3366 3988 
Q 3128 4100 2886 4159 
Q 2644 4219 2406 4219 
Q 1781 4219 1451 3797 
Q 1122 3375 1075 2522 
Q 1259 2794 1537 2939 
Q 1816 3084 2150 3084 
Q 2853 3084 3261 2657 
Q 3669 2231 3669 1497 
Q 3669 778 3244 343 
Q 2819 -91 2113 -91 
Q 1303 -91 875 529 
Q 447 1150 447 2328 
Q 447 3434 972 4092 
Q 1497 4750 2381 4750 
Q 2619 4750 2861 4703 
Q 3103 4656 3366 4563 
z
" transform="scale(0.015625)"/>
       </defs>
       <use xlink:href="#DejaVuSans-36"/>
      </g>
     </g>
    </g>
    <g id="xtick_5">
     <g id="line2d_5">
      <g>
       <use xlink:href="#mee8f862b3e" x="222.616916" y="192.24" style="stroke: #000000; stroke-width: 0.8"/>
      </g>
     </g>
     <g id="text_5">
      <!-- 8 -->
      <g transform="translate(219.435666 206.838437) scale(0.1 -0.1)">
       <defs>
        <path id="DejaVuSans-38" d="M 2034 2216 
Q 1584 2216 1326 1975 
Q 1069 1734 1069 1313 
Q 1069 891 1326 650 
Q 1584 409 2034 409 
Q 2484 409 2743 651 
Q 3003 894 3003 1313 
Q 3003 1734 2745 1975 
Q 2488 2216 2034 2216 
z
M 1403 2484 
Q 997 2584 770 2862 
Q 544 3141 544 3541 
Q 544 4100 942 4425 
Q 1341 4750 2034 4750 
Q 2731 4750 3128 4425 
Q 3525 4100 3525 3541 
Q 3525 3141 3298 2862 
Q 3072 2584 2669 2484 
Q 3125 2378 3379 2068 
Q 3634 1759 3634 1313 
Q 3634 634 3220 271 
Q 2806 -91 2034 -91 
Q 1263 -91 848 271 
Q 434 634 434 1313 
Q 434 1759 690 2068 
Q 947 2378 1403 2484 
z
M 1172 3481 
Q 1172 3119 1398 2916 
Q 1625 2713 2034 2713 
Q 2441 2713 2670 2916 
Q 2900 3119 2900 3481 
Q 2900 3844 2670 4047 
Q 2441 4250 2034 4250 
Q 1625 4250 1398 4047 
Q 1172 3844 1172 3481 
z
" transform="scale(0.015625)"/>
       </defs>
       <use xlink:href="#DejaVuSans-38"/>
      </g>
     </g>
    </g>
    <g id="xtick_6">
     <g id="line2d_6">
      <g>
       <use xlink:href="#mee8f862b3e" x="267.021146" y="192.24" style="stroke: #000000; stroke-width: 0.8"/>
      </g>
     </g>
     <g id="text_6">
      <!-- 10 -->
      <g transform="translate(260.658646 206.838437) scale(0.1 -0.1)">
       <defs>
        <path id="DejaVuSans-31" d="M 794 531 
L 1825 531 
L 1825 4091 
L 703 3866 
L 703 4441 
L 1819 4666 
L 2450 4666 
L 2450 531 
L 3481 531 
L 3481 0 
L 794 0 
L 794 531 
z
" transform="scale(0.015625)"/>
       </defs>
       <use xlink:href="#DejaVuSans-31"/>
       <use xlink:href="#DejaVuSans-30" transform="translate(63.623047 0)"/>
      </g>
     </g>
    </g>
    <g id="xtick_7">
     <g id="line2d_7">
      <g>
       <use xlink:href="#mee8f862b3e" x="311.425375" y="192.24" style="stroke: #000000; stroke-width: 0.8"/>
      </g>
     </g>
     <g id="text_7">
      <!-- 12 -->
      <g transform="translate(305.062875 206.838437) scale(0.1 -0.1)">
       <use xlink:href="#DejaVuSans-31"/>
       <use xlink:href="#DejaVuSans-32" transform="translate(63.623047 0)"/>
      </g>
     </g>
    </g>
    <g id="text_8">
     <!-- x -->
     <g transform="translate(181.540625 220.516562) scale(0.1 -0.1)">
      <defs>
       <path id="DejaVuSans-78" d="M 3513 3500 
L 2247 1797 
L 3578 0 
L 2900 0 
L 1881 1375 
L 863 0 
L 184 0 
L 1544 1831 
L 300 3500 
L 978 3500 
L 1906 2253 
L 2834 3500 
L 3513 3500 
z
" transform="scale(0.015625)"/>
      </defs>
      <use xlink:href="#DejaVuSans-78"/>
     </g>
    </g>
   </g>
   <g id="matplotlib.axis_2">
    <g id="ytick_1">
     <g id="line2d_8">
      <defs>
       <path id="m7a034780e4" d="M 0 0 
L -3.5 0 
" style="stroke: #000000; stroke-width: 0.8"/>
      </defs>
      <g>
       <use xlink:href="#m7a034780e4" x="45" y="178.38" style="stroke: #000000; stroke-width: 0.8"/>
      </g>
     </g>
     <g id="text_9">
      <!-- −1.0 -->
      <g transform="translate(13.717187 182.179219) scale(0.1 -0.1)">
       <defs>
        <path id="DejaVuSans-2212" d="M 678 2272 
L 4684 2272 
L 4684 1741 
L 678 1741 
L 678 2272 
z
" transform="scale(0.015625)"/>
        <path id="DejaVuSans-2e" d="M 684 794 
L 1344 794 
L 1344 0 
L 684 0 
L 684 794 
z
" transform="scale(0.015625)"/>
       </defs>
       <use xlink:href="#DejaVuSans-2212"/>
       <use xlink:href="#DejaVuSans-31" transform="translate(83.789062 0)"/>
       <use xlink:href="#DejaVuSans-2e" transform="translate(147.412109 0)"/>
       <use xlink:href="#DejaVuSans-30" transform="translate(179.199219 0)"/>
      </g>
     </g>
    </g>
    <g id="ytick_2">
     <g id="line2d_9">
      <g>
       <use xlink:href="#m7a034780e4" x="45" y="143.73" style="stroke: #000000; stroke-width: 0.8"/>
      </g>
     </g>
     <g id="text_10">
      <!-- −0.5 -->
      <g transform="translate(13.717187 147.529219) scale(0.1 -0.1)">
       <defs>
        <path id="DejaVuSans-35" d="M 691 4666 
L 3169 4666 
L 3169 4134 
L 1269 4134 
L 1269 2991 
Q 1406 3038 1543 3061 
Q 1681 3084 1819 3084 
Q 2600 3084 3056 2656 
Q 3513 2228 3513 1497 
Q 3513 744 3044 326 
Q 2575 -91 1722 -91 
Q 1428 -91 1123 -41 
Q 819 9 494 109 
L 494 744 
Q 775 591 1075 516 
Q 1375 441 1709 441 
Q 2250 441 2565 725 
Q 2881 1009 2881 1497 
Q 2881 1984 2565 2268 
Q 2250 2553 1709 2553 
Q 1456 2553 1204 2497 
Q 953 2441 691 2322 
L 691 4666 
z
" transform="scale(0.015625)"/>
       </defs>
       <use xlink:href="#DejaVuSans-2212"/>
       <use xlink:href="#DejaVuSans-30" transform="translate(83.789062 0)"/>
       <use xlink:href="#DejaVuSans-2e" transform="translate(147.412109 0)"/>
       <use xlink:href="#DejaVuSans-35" transform="translate(179.199219 0)"/>
      </g>
     </g>
    </g>
    <g id="ytick_3">
     <g id="line2d_10">
      <g>
       <use xlink:href="#m7a034780e4" x="45" y="109.08" style="stroke: #000000; stroke-width: 0.8"/>
      </g>
     </g>
     <g id="text_11">
      <!-- 0.0 -->
      <g transform="translate(22.096875 112.879219) scale(0.1 -0.1)">
       <use xlink:href="#DejaVuSans-30"/>
       <use xlink:href="#DejaVuSans-2e" transform="translate(63.623047 0)"/>
       <use xlink:href="#DejaVuSans-30" transform="translate(95.410156 0)"/>
      </g>
     </g>
    </g>
    <g id="ytick_4">
     <g id="line2d_11">
      <g>
       <use xlink:href="#m7a034780e4" x="45" y="74.43" style="stroke: #000000; stroke-width: 0.8"/>
      </g>
     </g>
     <g id="text_12">
      <!-- 0.5 -->
      <g transform="translate(22.096875 78.229219) scale(0.1 -0.1)">
       <use xlink:href="#DejaVuSans-30"/>
       <use xlink:href="#DejaVuSans-2e" transform="translate(63.623047 0)"/>
       <use xlink:href="#DejaVuSans-35" transform="translate(95.410156 0)"/>
      </g>
     </g>
    </g>
    <g id="ytick_5">
     <g id="line2d_12">
      <g>
       <use xlink:href="#m7a034780e4" x="45" y="39.78" style="stroke: #000000; stroke-width: 0.8"/>
      </g>
     </g>
     <g id="text_13">
      <!-- 1.0 -->
      <g transform="translate(22.096875 43.579219) scale(0.1 -0.1)">
       <use xlink:href="#DejaVuSans-31"/>
       <use xlink:href="#DejaVuSans-2e" transform="translate(63.623047 0)"/>
       <use xlink:href="#DejaVuSans-30" transform="translate(95.410156 0)"/>
      </g>
     </g>
    </g>
    <g id="text_14">
     <!-- f(x) -->
     <g transform="translate(7.6375 117.701094) rotate(-90) scale(0.1 -0.1)">
      <defs>
       <path id="DejaVuSans-66" d="M 2375 4863 
L 2375 4384 
L 1825 4384 
Q 1516 4384 1395 4259 
Q 1275 4134 1275 3809 
L 1275 3500 
L 2222 3500 
L 2222 3053 
L 1275 3053 
L 1275 0 
L 697 0 
L 697 3053 
L 147 3053 
L 147 3500 
L 697 3500 
L 697 3744 
Q 697 4328 969 4595 
Q 1241 4863 1831 4863 
L 2375 4863 
z
" transform="scale(0.015625)"/>
       <path id="DejaVuSans-28" d="M 1984 4856 
Q 1566 4138 1362 3434 
Q 1159 2731 1159 2009 
Q 1159 1288 1364 580 
Q 1569 -128 1984 -844 
L 1484 -844 
Q 1016 -109 783 600 
Q 550 1309 550 2009 
Q 550 2706 781 3412 
Q 1013 4119 1484 4856 
L 1984 4856 
z
" transform="scale(0.015625)"/>
       <path id="DejaVuSans-29" d="M 513 4856 
L 1013 4856 
Q 1481 4119 1714 3412 
Q 1947 2706 1947 2009 
Q 1947 1309 1714 600 
Q 1481 -109 1013 -844 
L 513 -844 
Q 928 -128 1133 580 
Q 1338 1288 1338 2009 
Q 1338 2731 1133 3434 
Q 928 4138 513 4856 
z
" transform="scale(0.015625)"/>
      </defs>
      <use xlink:href="#DejaVuSans-66"/>
      <use xlink:href="#DejaVuSans-28" transform="translate(35.205078 0)"/>
      <use xlink:href="#DejaVuSans-78" transform="translate(74.21875 0)"/>
      <use xlink:href="#DejaVuSans-29" transform="translate(133.398438 0)"/>
     </g>
    </g>
   </g>
   <g id="line2d_13">
    <path d="M 45 109.08 
L 47.79 100.394407 
L 50.58 91.845791 
L 53.37 83.568968 
L 56.16 75.69447 
L 58.95 68.346482 
L 61.74 61.640886 
L 64.53 55.683432 
L 67.32 50.568075 
L 70.11 46.375485 
L 72.9 43.171783 
L 75.69 41.007494 
L 78.48 39.916748 
L 81.27 39.916748 
L 84.06 41.007494 
L 86.85 43.171783 
L 89.64 46.375485 
L 92.43 50.568075 
L 95.22 55.683432 
L 98.01 61.640886 
L 100.8 68.346482 
L 103.59 75.69447 
L 106.38 83.568968 
L 109.17 91.845791 
L 111.96 100.394407 
L 114.75 109.08 
L 117.54 117.765593 
L 120.33 126.314209 
L 123.12 134.591032 
L 125.91 142.46553 
L 128.7 149.813518 
L 131.49 156.519114 
L 134.28 162.476568 
L 137.07 167.591925 
L 139.86 171.784515 
L 142.65 174.988217 
L 145.44 177.152506 
L 148.23 178.243252 
L 151.02 178.243252 
L 153.81 177.152506 
L 156.6 174.988217 
L 159.39 171.784515 
L 162.18 167.591925 
L 164.97 162.476568 
L 167.76 156.519114 
L 170.55 149.813518 
L 173.34 142.46553 
L 176.13 134.591032 
L 178.92 126.314209 
L 181.71 117.765593 
L 184.5 109.08 
L 187.29 100.394407 
L 190.08 91.845791 
L 192.87 83.568968 
L 195.66 75.69447 
L 198.45 68.346482 
L 201.24 61.640886 
L 204.03 55.683432 
L 206.82 50.568075 
L 209.61 46.375485 
L 212.4 43.171783 
L 215.19 41.007494 
L 217.98 39.916748 
L 220.77 39.916748 
L 223.56 41.007494 
L 226.35 43.171783 
L 229.14 46.375485 
L 231.93 50.568075 
L 234.72 55.683432 
L 237.51 61.640886 
L 240.3 68.346482 
L 243.09 75.69447 
L 245.88 83.568968 
L 248.67 91.845791 
L 251.46 100.394407 
L 254.25 109.08 
L 257.04 117.765593 
L 259.83 126.314209 
L 262.62 134.591032 
L 265.41 142.46553 
L 268.2 149.813518 
L 270.99 156.519114 
L 273.78 162.476568 
L 276.57 167.591925 
L 279.36 171.784515 
L 282.15 174.988217 
L 284.94 177.152506 
L 287.73 178.243252 
L 290.52 178.243252 
L 293.31 177.152506 
L 296.1 174.988217 
L 298.89 171.784515 
L 301.68 167.591925 
L 304.47 162.476568 
L 307.26 156.519114 
L 310.05 149.813518 
L 312.84 142.46553 
L 315.63 134.591032 
L 318.42 126.314209 
L 321.21 117.765593 
L 324 109.08 
" clip-path="url(#p691aa08100)" style="fill: none; stroke-dasharray: 5.55,2.4; stroke-dashoffset: 0; stroke: #888888; stroke-width: 1.5"/>
   </g>
   <g id="line2d_14">
    <path d="M 45 109.08 
L 45 74.43 
L 56.625 74.43 
L 56.625 49.06444 
L 68.25 49.06444 
L 68.25 39.78 
L 79.875 39.78 
L 79.875 49.06444 
L 91.5 49.06444 
L 91.5 74.43 
L 103.125 74.43 
L 103.125 109.08 
L 114.75 109.08 
L 114.75 143.73 
L 126.375 143.73 
L 126.375 169.09556 
L 138 169.09556 
L 138 178.38 
L 149.625 178.38 
L 149.625 169.09556 
L 161.25 169.09556 
L 161.25 143.73 
L 172.875 143.73 
L 172.875 109.08 
L 184.5 109.08 
L 184.5 74.43 
L 196.125 74.43 
L 196.125 49.06444 
L 207.75 49.06444 
L 207.75 39.78 
L 219.375 39.78 
L 219.375 49.06444 
L 231 49.06444 
L 231 74.43 
L 242.625 74.43 
L 242.625 109.08 
L 254.25 109.08 
L 254.25 143.73 
L 265.875 143.73 
L 265.875 169.09556 
L 277.5 169.09556 
L 277.5 178.38 
L 289.125 178.38 
L 289.125 169.09556 
L 300.75 169.09556 
L 300.75 143.73 
L 312.375 143.73 
L 312.375 109.08 
L 324 109.08 
" clip-path="url(#p691aa08100)" style="fill: none; stroke: #0088ff; stroke-width: 1.5; stroke-linecap: square"/>
    <defs>
     <path id="mcd3bbcaa32" d="M 0 2.5 
C 0.663008 2.5 1.29895 2.236584 1.767767 1.767767 
C 2.236584 1.29895 2.5 0.663008 2.5 0 
C 2.5 -0.663008 2.236584 -1.29895 1.767767 -1.767767 
C 1.29895 -2.236584 0.663008 -2.5 0 -2.5 
C -0.663008 -2.5 -1.29895 -2.236584 -1.767767 -1.767767 
C -2.236584 -1.29895 -2.5 -0.663008 -2.5 0 
C -2.5 0.663008 -2.236584 1.29895 -1.767767 1.767767 
C -1.29895 2.236584 -0.663008 2.5 0 2.5 
z
" style="stroke: #0088ff"/>
    </defs>
    <g clip-path="url(#p691aa08100)">
     <use xlink:href="#mcd3bbcaa32" x="45" y="109.08" style="fill: #0088ff; stroke: #0088ff"/>
     <use xlink:href="#mcd3bbcaa32" x="56.625" y="74.43" style="fill: #0088ff; stroke: #0088ff"/>
     <use xlink:href="#mcd3bbcaa32" x="68.25" y="49.06444" style="fill: #0088ff; stroke: #0088ff"/>
     <use xlink:href="#mcd3bbcaa32" x="79.875" y="39.78" style="fill: #0088ff; stroke: #0088ff"/>
     <use xlink:href="#mcd3bbcaa32" x="91.5" y="49.06444" style="fill: #0088ff; stroke: #0088ff"/>
     <use xlink:href="#mcd3bbcaa32" x="103.125" y="74.43" style="fill: #0088ff; stroke: #0088ff"/>
     <use xlink:href="#mcd3bbcaa32" x="114.75" y="109.08" style="fill: #0088ff; stroke: #0088ff"/>
     <use xlink:href="#mcd3bbcaa32" x="126.375" y="143.73" style="fill: #0088ff; stroke: #0088ff"/>
     <use xlink:href="#mcd3bbcaa32" x="138" y="169.09556" style="fill: #0088ff; stroke: #0088ff"/>
     <use xlink:href="#mcd3bbcaa32" x="149.625" y="178.38" style="fill: #0088ff; stroke: #0088ff"/>
     <use xlink:href="#mcd3bbcaa32" x="161.25" y="169.09556" style="fill: #0088ff; stroke: #0088ff"/>
     <use xlink:href="#mcd3bbcaa32" x="172.875" y="143.73" style="fill: #0088ff; stroke: #0088ff"/>
     <use xlink:href="#mcd3bbcaa32" x="184.5" y="109.08" style="fill: #0088ff; stroke: #0088ff"/>
     <use xlink:href="#mcd3bbcaa32" x="196.125" y="74.43" style="fill: #0088ff; stroke: #0088ff"/>
     <use xlink:href="#mcd3bbcaa32" x="207.75" y="49.06444" style="fill: #0088ff; stroke: #0088ff"/>
     <use xlink:href="#mcd3bbcaa32" x="219.375" y="39.78" style="fill: #0088ff; stroke: #0088ff"/>
     <use xlink:href="#mcd3bbcaa32" x="231" y="49.06444" style="fill: #0088ff; stroke: #0088ff"/>
     <use xlink:href="#mcd3bbcaa32" x="242.625" y="74.43" style="fill: #0088ff; stroke: #0088ff"/>
     <use xlink:href="#mcd3bbcaa32" x="254.25" y="109.08" style="fill: #0088ff; stroke: #0088ff"/>
     <use xlink:href="#mcd3bbcaa32" x="265.875" y="143.73" style="fill: #0088ff; stroke: #0088ff"/>
     <use xlink:href="#mcd3bbcaa32" x="277.5" y="169.09556" style="fill: #0088ff; stroke: #0088ff"/>
     <use xlink:href="#mcd3bbcaa32" x="289.125" y="178.38" style="fill: #0088ff; stroke: #0088ff"/>
     <use xlink:href="#mcd3bbcaa32" x="300.75" y="169.09556" style="fill: #0088ff; stroke: #0088ff"/>
     <use xlink:href="#mcd3bbcaa32" x="312.375" y="143.73" style="fill: #0088ff; stroke: #0088ff"/>
     <use xlink:href="#mcd3bbcaa32" x="324" y="109.08" style="fill: #0088ff; stroke: #0088ff"/>
    </g>
   </g>
   <g id="patch_3">
    <path d="M 45 192.24 
L 45 25.92 
" style="fill: none; stroke: #000000; stroke-width: 0.8; stroke-linejoin: miter; stroke-linecap: square"/>
   </g>
   <g id="patch_4">
    <path d="M 324 192.24 
L 324 25.92 
" style="fill: none; stroke: #000000; stroke-width: 0.8; stroke-linejoin: miter; stroke-linecap: square"/>
   </g>
   <g id="patch_5">
    <path d="M 45 192.24 
L 324 192.24 
" style="fill: none; stroke: #000000; stroke-width: 0.8; stroke-linejoin: miter; stroke-linecap: square"/>
   </g>
   <g id="patch_6">
    <path d="M 45 25.92 
L 324 25.92 
" style="fill: none; stroke: #000000; stroke-width: 0.8; stroke-linejoin: miter; stroke-linecap: square"/>
   </g>
  </g>
 </g>
 <defs>
  <clipPath id="p691aa08100">
   <rect x="45" y="25.92" width="279" height="166.32"/>
  </clipPath>
 </defs>
</svg>
