<?xml version="1.0" encoding="utf-8" standalone="no"?>
<!DOCTYPE svg PUBLIC "-//W3C//DTD SVG 1.1//EN"
  "http://www.w3.org/Graphics/SVG/1.1/DTD/svg11.dtd">
<svg xmlns:xlink="http://www.w3.org/1999/xlink" width="360pt" height="360pt" viewBox="0 0 360 360" xmlns="http://www.w3.org/2000/svg" version="1.1">
 <metadata>
  <rdf:RDF xmlns:dc="http://purl.org/dc/elements/1.1/" xmlns:cc="http://creativecommons.org/ns#" xmlns:rdf="http://www.w3.org/1999/02/22-rdf-syntax-ns#">
   <cc:Work>
    <dc:type rdf:resource="http://purl.org/dc/dcmitype/StillImage"/>
    <dc:date>2025-11-29T13:25:17.008911</dc:date>
    <dc:format>image/svg+xml</dc:format>
    <dc:creator>
     <cc:Agent>
      <dc:title>Matplotlib v3.10.6, https://matplotlib.org/</dc:title>
     </cc:Agent>
    </dc:creator>
   </cc:Work>
  </rdf:RDF>
 </metadata>
 <defs>
  <style type="text/css">*{stroke-linejoin: round; stroke-linecap: butt}</style>
 </defs>
 <g id="figure_1">
  <g id="patch_1">
   <path d="M 0 360 
L 360 360 
L 360 0 
L 0 0 
z
" style="fill: #ffffff"/>
  </g>
  <g id="axes_1">
   <g id="patch_2">
    <path d="M 323.1 181.8 
C 323.1 163.599215 319.514842 145.575409 312.549703 128.760076 
C 305.584564 111.944743 295.374899 96.664899 282.505 83.795 
C 269.635101 70.925101 254.355257 60.715436 237.539924 53.750297 
C 220.724591 46.785158 202.700785 43.2 184.5 43.2 
C 166.299215 43.2 148.275409 46.785158 131.460076 53.750297 
C 114.644743 60.715436 99.364899 70.925101 86.495 83.795 
C 73.625101 96.664899 63.415436 111.944743 56.450297 128.760076 
C 49.485158 145.575409 45.9 163.599215 45.9 181.8 
C 45.9 200.000785 49.485158 218.024591 56.450297 234.839924 
C 63.415436 251.655257 73.625101 266.935101 86.495 279.805 
C 99.364899 292.674899 114.644743 302.884564 131.460076 309.849703 
C 148.275409 316.814842 166.299215 320.4 184.5 320.4 
C 202.700785 320.4 220.724591 316.814842 237.539924 309.849703 
C 254.355257 302.884564 269.635101 292.674899 282.505 279.805 
C 295.374899 266.935101 305.584564 251.655257 312.549703 234.839924 
C 319.514842 218.024591 323.1 200.000785 323.1 181.8 
M 184.5 181.8 
C 184.5 181.8 184.5 181.8 184.5 181.8 
C 184.5 181.8 184.5 181.8 184.5 181.8 
C 184.5 181.8 184.5 181.8 184.5 181.8 
C 184.5 181.8 184.5 181.8 184.5 181.8 
C 184.5 181.8 184.5 181.8 184.5 181.8 
C 184.5 181.8 184.5 181.8 184.5 181.8 
C 184.5 181.8 184.5 181.8 184.5 181.8 
C 184.5 181.8 184.5 181.8 184.5 181.8 
C 184.5 181.8 184.5 181.8 184.5 181.8 
C 184.5 181.8 184.5 181.8 184.5 181.8 
C 184.5 181.8 184.5 181.8 184.5 181.8 
C 184.5 181.8 184.5 181.8 184.5 181.8 
C 184.5 181.8 184.5 181.8 184.5 181.8 
C 184.5 181.8 184.5 181.8 184.5 181.8 
C 184.5 181.8 184.5 181.8 184.5 181.8 
C 184.5 181.8 184.5 181.8 184.5 181.8 
z
" style="fill: #ffffff"/>
   </g>
   <g id="matplotlib.axis_1">
    <g id="xtick_1">
     <g id="line2d_1">
      <path d="M 184.5 181.8 
L 323.1 181.8 
" clip-path="url(#pd4ce06ad48)" style="fill: none; stroke: #b0b0b0; stroke-width: 0.8; stroke-linecap: square"/>
     </g>
     <g id="text_1">
      <!-- 0° -->
      <g transform="translate(331.41875 184.559375) scale(0.1 -0.1)">
       <defs>
        <path id="DejaVuSans-30" d="M 2034 4250 
Q 1547 4250 1301 3770 
Q 1056 3291 1056 2328 
Q 1056 1369 1301 889 
Q 1547 409 2034 409 
Q 2525 409 2770 889 
Q 3016 1369 3016 2328 
Q 3016 3291 2770 3770 
Q 2525 4250 2034 4250 
z
M 2034 4750 
Q 2819 4750 3233 4129 
Q 3647 3509 3647 2328 
Q 3647 1150 3233 529 
Q 2819 -91 2034 -91 
Q 1250 -91 836 529 
Q 422 1150 422 2328 
Q 422 3509 836 4129 
Q 1250 4750 2034 4750 
z
" transform="scale(0.015625)"/>
        <path id="DejaVuSans-b0" d="M 1600 4347 
Q 1350 4347 1178 4173 
Q 1006 4000 1006 3750 
Q 1006 3503 1178 3333 
Q 1350 3163 1600 3163 
Q 1850 3163 2022 3333 
Q 2194 3503 2194 3750 
Q 2194 3997 2020 4172 
Q 1847 4347 1600 4347 
z
M 1600 4750 
Q 1800 4750 1984 4673 
Q 2169 4597 2303 4453 
Q 2447 4313 2519 4134 
Q 2591 3956 2591 3750 
Q 2591 3338 2302 3052 
Q 2013 2766 1594 2766 
Q 1172 2766 890 3047 
Q 609 3328 609 3750 
Q 609 4169 896 4459 
Q 1184 4750 1600 4750 
z
" transform="scale(0.015625)"/>
       </defs>
       <use xlink:href="#DejaVuSans-30"/>
       <use xlink:href="#DejaVuSans-b0" transform="translate(63.623047 0)"/>
      </g>
     </g>
    </g>
    <g id="xtick_2">
     <g id="line2d_2">
      <path d="M 184.5 181.8 
L 282.505 83.795 
" clip-path="url(#pd4ce06ad48)" style="fill: none; stroke: #b0b0b0; stroke-width: 0.8; stroke-linecap: square"/>
     </g>
     <g id="text_2">
      <!-- 45° -->
      <g transform="translate(283.541995 76.65488) scale(0.1 -0.1)">
       <defs>
        <path id="DejaVuSans-34" d="M 2419 4116 
L 825 1625 
L 2419 1625 
L 2419 4116 
z
M 2253 4666 
L 3047 4666 
L 3047 1625 
L 3713 1625 
L 3713 1100 
L 3047 1100 
L 3047 0 
L 2419 0 
L 2419 1100 
L 313 1100 
L 313 1709 
L 2253 4666 
z
" transform="scale(0.015625)"/>
        <path id="DejaVuSans-35" d="M 691 4666 
L 3169 4666 
L 3169 4134 
L 1269 4134 
L 1269 2991 
Q 1406 3038 1543 3061 
Q 1681 3084 1819 3084 
Q 2600 3084 3056 2656 
Q 3513 2228 3513 1497 
Q 3513 744 3044 326 
Q 2575 -91 1722 -91 
Q 1428 -91 1123 -41 
Q 819 9 494 109 
L 494 744 
Q 775 591 1075 516 
Q 1375 441 1709 441 
Q 2250 441 2565 725 
Q 2881 1009 2881 1497 
Q 2881 1984 2565 2268 
Q 2250 2553 1709 2553 
Q 1456 2553 1204 2497 
Q 953 2441 691 2322 
L 691 4666 
z
" transform="scale(0.015625)"/>
       </defs>
       <use xlink:href="#DejaVuSans-34"/>
       <use xlink:href="#DejaVuSans-35" transform="translate(63.623047 0)"/>
       <use xlink:href="#DejaVuSans-b0" transform="translate(127.246094 0)"/>
      </g>
     </g>
    </g>
    <g id="xtick_3">
     <g id="line2d_3">
      <path d="M 184.5 181.8 
L 184.5 43.2 
" clip-path="url(#pd4ce06ad48)" style="fill: none; stroke: #b0b0b0; stroke-width: 0.8; stroke-linecap: square"/>
     </g>
     <g id="text_3">
      <!-- 90° -->
      <g transform="translate(175.6375 31.959375) scale(0.1 -0.1)">
       <defs>
        <path id="DejaVuSans-39" d="M 703 97 
L 703 672 
Q 941 559 1184 500 
Q 1428 441 1663 441 
Q 2288 441 2617 861 
Q 2947 1281 2994 2138 
Q 2813 1869 2534 1725 
Q 2256 1581 1919 1581 
Q 1219 1581 811 2004 
Q 403 2428 403 3163 
Q 403 3881 828 4315 
Q 1253 4750 1959 4750 
Q 2769 4750 3195 4129 
Q 3622 3509 3622 2328 
Q 3622 1225 3098 567 
Q 2575 -91 1691 -91 
Q 1453 -91 1209 -44 
Q 966 3 703 97 
z
M 1959 2075 
Q 2384 2075 2632 2365 
Q 2881 2656 2881 3163 
Q 2881 3666 2632 3958 
Q 2384 4250 1959 4250 
Q 1534 4250 1286 3958 
Q 1038 3666 1038 3163 
Q 1038 2656 1286 2365 
Q 1534 2075 1959 2075 
z
" transform="scale(0.015625)"/>
       </defs>
       <use xlink:href="#DejaVuSans-39"/>
       <use xlink:href="#DejaVuSans-30" transform="translate(63.623047 0)"/>
       <use xlink:href="#DejaVuSans-b0" transform="translate(127.246094 0)"/>
      </g>
     </g>
    </g>
    <g id="xtick_4">
     <g id="line2d_4">
      <path d="M 184.5 181.8 
L 86.495 83.795 
" clip-path="url(#pd4ce06ad48)" style="fill: none; stroke: #b0b0b0; stroke-width: 0.8; stroke-linecap: square"/>
     </g>
     <g id="text_4">
      <!-- 135° -->
      <g transform="translate(64.551755 76.65488) scale(0.1 -0.1)">
       <defs>
        <path id="DejaVuSans-31" d="M 794 531 
L 1825 531 
L 1825 4091 
L 703 3866 
L 703 4441 
L 1819 4666 
L 2450 4666 
L 2450 531 
L 3481 531 
L 3481 0 
L 794 0 
L 794 531 
z
" transform="scale(0.015625)"/>
        <path id="DejaVuSans-33" d="M 2597 2516 
Q 3050 2419 3304 2112 
Q 3559 1806 3559 1356 
Q 3559 666 3084 287 
Q 2609 -91 1734 -91 
Q 1441 -91 1130 -33 
Q 819 25 488 141 
L 488 750 
Q 750 597 1062 519 
Q 1375 441 1716 441 
Q 2309 441 2620 675 
Q 2931 909 2931 1356 
Q 2931 1769 2642 2001 
Q 2353 2234 1838 2234 
L 1294 2234 
L 1294 2753 
L 1863 2753 
Q 2328 2753 2575 2939 
Q 2822 3125 2822 3475 
Q 2822 3834 2567 4026 
Q 2313 4219 1838 4219 
Q 1578 4219 1281 4162 
Q 984 4106 628 3988 
L 628 4550 
Q 988 4650 1302 4700 
Q 1616 4750 1894 4750 
Q 2613 4750 3031 4423 
Q 3450 4097 3450 3541 
Q 3450 3153 3228 2886 
Q 3006 2619 2597 2516 
z
" transform="scale(0.015625)"/>
       </defs>
       <use xlink:href="#DejaVuSans-31"/>
       <use xlink:href="#DejaVuSans-33" transform="translate(63.623047 0)"/>
       <use xlink:href="#DejaVuSans-35" transform="translate(127.246094 0)"/>
       <use xlink:href="#DejaVuSans-b0" transform="translate(190.869141 0)"/>
      </g>
     </g>
    </g>
    <g id="xtick_5">
     <g id="line2d_5">
      <path d="M 184.5 181.8 
L 45.9 181.8 
" clip-path="url(#pd4ce06ad48)" style="fill: none; stroke: #b0b0b0; stroke-width: 0.8; stroke-linecap: square"/>
     </g>
     <g id="text_5">
      <!-- 180° -->
      <g transform="translate(19.85625 184.559375) scale(0.1 -0.1)">
       <defs>
        <path id="DejaVuSans-38" d="M 2034 2216 
Q 1584 2216 1326 1975 
Q 1069 1734 1069 1313 
Q 1069 891 1326 650 
Q 1584 409 2034 409 
Q 2484 409 2743 651 
Q 3003 894 3003 1313 
Q 3003 1734 2745 1975 
Q 2488 2216 2034 2216 
z
M 1403 2484 
Q 997 2584 770 2862 
Q 544 3141 544 3541 
Q 544 4100 942 4425 
Q 1341 4750 2034 4750 
Q 2731 4750 3128 4425 
Q 3525 4100 3525 3541 
Q 3525 3141 3298 2862 
Q 3072 2584 2669 2484 
Q 3125 2378 3379 2068 
Q 3634 1759 3634 1313 
Q 3634 634 3220 271 
Q 2806 -91 2034 -91 
Q 1263 -91 848 271 
Q 434 634 434 1313 
Q 434 1759 690 2068 
Q 947 2378 1403 2484 
z
M 1172 3481 
Q 1172 3119 1398 2916 
Q 1625 2713 2034 2713 
Q 2441 2713 2670 2916 
Q 2900 3119 2900 3481 
Q 2900 3844 2670 4047 
Q 2441 4250 2034 4250 
Q 1625 4250 1398 4047 
Q 1172 3844 1172 3481 
z
" transform="scale(0.015625)"/>
       </defs>
       <use xlink:href="#DejaVuSans-31"/>
       <use xlink:href="#DejaVuSans-38" transform="translate(63.623047 0)"/>
       <use xlink:href="#DejaVuSans-30" transform="translate(127.246094 0)"/>
       <use xlink:href="#DejaVuSans-b0" transform="translate(190.869141 0)"/>
      </g>
     </g>
    </g>
    <g id="xtick_6">
     <g id="line2d_6">
      <path d="M 184.5 181.8 
L 86.495 279.805 
" clip-path="url(#pd4ce06ad48)" style="fill: none; stroke: #b0b0b0; stroke-width: 0.8; stroke-linecap: square"/>
     </g>
     <g id="text_6">
      <!-- 225° -->
      <g transform="translate(64.551755 292.46387) scale(0.1 -0.1)">
       <defs>
        <path id="DejaVuSans-32" d="M 1228 531 
L 3431 531 
L 3431 0 
L 469 0 
L 469 531 
Q 828 903 1448 1529 
Q 2069 2156 2228 2338 
Q 2531 2678 2651 2914 
Q 2772 3150 2772 3378 
Q 2772 3750 2511 3984 
Q 2250 4219 1831 4219 
Q 1534 4219 1204 4116 
Q 875 4013 500 3803 
L 500 4441 
Q 881 4594 1212 4672 
Q 1544 4750 1819 4750 
Q 2544 4750 2975 4387 
Q 3406 4025 3406 3419 
Q 3406 3131 3298 2873 
Q 3191 2616 2906 2266 
Q 2828 2175 2409 1742 
Q 1991 1309 1228 531 
z
" transform="scale(0.015625)"/>
       </defs>
       <use xlink:href="#DejaVuSans-32"/>
       <use xlink:href="#DejaVuSans-32" transform="translate(63.623047 0)"/>
       <use xlink:href="#DejaVuSans-35" transform="translate(127.246094 0)"/>
       <use xlink:href="#DejaVuSans-b0" transform="translate(190.869141 0)"/>
      </g>
     </g>
    </g>
    <g id="xtick_7">
     <g id="line2d_7">
      <path d="M 184.5 181.8 
L 184.5 320.4 
" clip-path="url(#pd4ce06ad48)" style="fill: none; stroke: #b0b0b0; stroke-width: 0.8; stroke-linecap: square"/>
     </g>
     <g id="text_7">
      <!-- 270° -->
      <g transform="translate(172.45625 337.159375) scale(0.1 -0.1)">
       <defs>
        <path id="DejaVuSans-37" d="M 525 4666 
L 3525 4666 
L 3525 4397 
L 1831 0 
L 1172 0 
L 2766 4134 
L 525 4134 
L 525 4666 
z
" transform="scale(0.015625)"/>
       </defs>
       <use xlink:href="#DejaVuSans-32"/>
       <use xlink:href="#DejaVuSans-37" transform="translate(63.623047 0)"/>
       <use xlink:href="#DejaVuSans-30" transform="translate(127.246094 0)"/>
       <use xlink:href="#DejaVuSans-b0" transform="translate(190.869141 0)"/>
      </g>
     </g>
    </g>
    <g id="xtick_8">
     <g id="line2d_8">
      <path d="M 184.5 181.8 
L 282.505 279.805 
" clip-path="url(#pd4ce06ad48)" style="fill: none; stroke: #b0b0b0; stroke-width: 0.8; stroke-linecap: square"/>
     </g>
     <g id="text_8">
      <!-- 315° -->
      <g transform="translate(280.360745 292.46387) scale(0.1 -0.1)">
       <use xlink:href="#DejaVuSans-33"/>
       <use xlink:href="#DejaVuSans-31" transform="translate(63.623047 0)"/>
       <use xlink:href="#DejaVuSans-35" transform="translate(127.246094 0)"/>
       <use xlink:href="#DejaVuSans-b0" transform="translate(190.869141 0)"/>
      </g>
     </g>
    </g>
   </g>
   <g id="matplotlib.axis_2">
    <g id="ytick_1">
     <g id="line2d_9">
      <path d="M 201.041353 181.8 
C 201.041353 179.627809 200.613479 177.476741 199.782218 175.469898 
C 198.950956 173.463056 197.732474 171.639468 196.196503 170.103497 
C 194.660532 168.567526 192.836944 167.349044 190.830102 166.517782 
C 188.823259 165.686521 186.672191 165.258647 184.5 165.258647 
C 182.327809 165.258647 180.176741 165.686521 178.169898 166.517782 
C 176.163056 167.349044 174.339468 168.567526 172.803497 170.103497 
C 171.267526 171.639468 170.049044 173.463056 169.217782 175.469898 
C 168.386521 177.476741 167.958647 179.627809 167.958647 181.8 
C 167.958647 183.972191 168.386521 186.123259 169.217782 188.130102 
C 170.049044 190.136944 171.267526 191.960532 172.803497 193.496503 
C 174.339468 195.032474 176.163056 196.250956 178.169898 197.082218 
C 180.176741 197.913479 182.327809 198.341353 184.5 198.341353 
C 186.672191 198.341353 188.823259 197.913479 190.830102 197.082218 
C 192.836944 196.250956 194.660532 195.032474 196.196503 193.496503 
C 197.732474 191.960532 198.950956 190.136944 199.782218 188.130102 
C 200.613479 186.123259 201.041353 183.972191 201.041353 181.8 
" clip-path="url(#pd4ce06ad48)" style="fill: none; stroke: #b0b0b0; stroke-width: 0.8; stroke-linecap: square"/>
     </g>
    </g>
    <g id="ytick_2">
     <g id="line2d_10">
      <path d="M 217.582707 181.8 
C 217.582707 177.455619 216.726958 173.153481 215.064436 169.139796 
C 213.401913 165.126111 210.964948 161.478935 207.893006 158.406994 
C 204.821065 155.335052 201.173889 152.898087 197.160204 151.235564 
C 193.146519 149.573042 188.844381 148.717293 184.5 148.717293 
C 180.155619 148.717293 175.853481 149.573042 171.839796 151.235564 
C 167.826111 152.898087 164.178935 155.335052 161.106994 158.406994 
C 158.035052 161.478935 155.598087 165.126111 153.935564 169.139796 
C 152.273042 173.153481 151.417293 177.455619 151.417293 181.8 
C 151.417293 186.144381 152.273042 190.446519 153.935564 194.460204 
C 155.598087 198.473889 158.035052 202.121065 161.106994 205.193006 
C 164.178935 208.264948 167.826111 210.701913 171.839796 212.364436 
C 175.853481 214.026958 180.155619 214.882707 184.5 214.882707 
C 188.844381 214.882707 193.146519 214.026958 197.160204 212.364436 
C 201.173889 210.701913 204.821065 208.264948 207.893006 205.193006 
C 210.964948 202.121065 213.401913 198.473889 215.064436 194.460204 
C 216.726958 190.446519 217.582707 186.144381 217.582707 181.8 
" clip-path="url(#pd4ce06ad48)" style="fill: none; stroke: #b0b0b0; stroke-width: 0.8; stroke-linecap: square"/>
     </g>
    </g>
    <g id="ytick_3">
     <g id="line2d_11">
      <path d="M 234.12406 181.8 
C 234.12406 175.283428 232.840438 168.830222 230.346653 162.809694 
C 227.852869 156.789167 224.197422 151.318403 219.589509 146.710491 
C 214.981597 142.102578 209.510833 138.447131 203.490306 135.953347 
C 197.469778 133.459562 191.016572 132.17594 184.5 132.17594 
C 177.983428 132.17594 171.530222 133.459562 165.509694 135.953347 
C 159.489167 138.447131 154.018403 142.102578 149.410491 146.710491 
C 144.802578 151.318403 141.147131 156.789167 138.653347 162.809694 
C 136.159562 168.830222 134.87594 175.283428 134.87594 181.8 
C 134.87594 188.316572 136.159562 194.769778 138.653347 200.790306 
C 141.147131 206.810833 144.802578 212.281597 149.410491 216.889509 
C 154.018403 221.497422 159.489167 225.152869 165.509694 227.646653 
C 171.530222 230.140438 177.983428 231.42406 184.5 231.42406 
C 191.016572 231.42406 197.469778 230.140438 203.490306 227.646653 
C 209.510833 225.152869 214.981597 221.497422 219.589509 216.889509 
C 224.197422 212.281597 227.852869 206.810833 230.346653 200.790306 
C 232.840438 194.769778 234.12406 188.316572 234.12406 181.8 
" clip-path="url(#pd4ce06ad48)" style="fill: none; stroke: #b0b0b0; stroke-width: 0.8; stroke-linecap: square"/>
     </g>
    </g>
    <g id="ytick_4">
     <g id="line2d_12">
      <path d="M 250.665414 181.8 
C 250.665414 173.111238 248.953917 164.506962 245.628871 156.479592 
C 242.303826 148.452223 237.429895 141.15787 231.286013 135.013987 
C 225.14213 128.870105 217.847777 123.996174 209.820408 120.671129 
C 201.793038 117.346083 193.188762 115.634586 184.5 115.634586 
C 175.811238 115.634586 167.206962 117.346083 159.179592 120.671129 
C 151.152223 123.996174 143.85787 128.870105 137.713987 135.013987 
C 131.570105 141.15787 126.696174 148.452223 123.371129 156.479592 
C 120.046083 164.506962 118.334586 173.111238 118.334586 181.8 
C 118.334586 190.488762 120.046083 199.093038 123.371129 207.120408 
C 126.696174 215.147777 131.570105 222.44213 137.713987 228.586013 
C 143.85787 234.729895 151.152223 239.603826 159.179592 242.928871 
C 167.206962 246.253917 175.811238 247.965414 184.5 247.965414 
C 193.188762 247.965414 201.793038 246.253917 209.820408 242.928871 
C 217.847777 239.603826 225.14213 234.729895 231.286013 228.586013 
C 237.429895 222.44213 242.303826 215.147777 245.628871 207.120408 
C 248.953917 199.093038 250.665414 190.488762 250.665414 181.8 
" clip-path="url(#pd4ce06ad48)" style="fill: none; stroke: #b0b0b0; stroke-width: 0.8; stroke-linecap: square"/>
     </g>
    </g>
    <g id="ytick_5">
     <g id="line2d_13">
      <path d="M 267.206767 181.8 
C 267.206767 170.939047 265.067396 160.183703 260.911089 150.149491 
C 256.754782 140.115278 250.662369 130.997338 242.982516 123.317484 
C 235.302662 115.637631 226.184722 109.545218 216.150509 105.388911 
C 206.116297 101.232604 195.360953 99.093233 184.5 99.093233 
C 173.639047 99.093233 162.883703 101.232604 152.849491 105.388911 
C 142.815278 109.545218 133.697338 115.637631 126.017484 123.317484 
C 118.337631 130.997338 112.245218 140.115278 108.088911 150.149491 
C 103.932604 160.183703 101.793233 170.939047 101.793233 181.8 
C 101.793233 192.660953 103.932604 203.416297 108.088911 213.450509 
C 112.245218 223.484722 118.337631 232.602662 126.017484 240.282516 
C 133.697338 247.962369 142.815278 254.054782 152.849491 258.211089 
C 162.883703 262.367396 173.639047 264.506767 184.5 264.506767 
C 195.360953 264.506767 206.116297 262.367396 216.150509 258.211089 
C 226.184722 254.054782 235.302662 247.962369 242.982516 240.282516 
C 250.662369 232.602662 256.754782 223.484722 260.911089 213.450509 
C 265.067396 203.416297 267.206767 192.660953 267.206767 181.8 
" clip-path="url(#pd4ce06ad48)" style="fill: none; stroke: #b0b0b0; stroke-width: 0.8; stroke-linecap: square"/>
     </g>
    </g>
    <g id="ytick_6">
     <g id="line2d_14">
      <path d="M 283.74812 181.8 
C 283.74812 168.766856 281.180875 155.860443 276.193307 143.819389 
C 271.205739 131.778334 263.894843 120.836805 254.679019 111.620981 
C 245.463195 102.405157 234.521666 95.094261 222.480611 90.106693 
C 210.439557 85.119125 197.533144 82.55188 184.5 82.55188 
C 171.466856 82.55188 158.560443 85.119125 146.519389 90.106693 
C 134.478334 95.094261 123.536805 102.405157 114.320981 111.620981 
C 105.105157 120.836805 97.794261 131.778334 92.806693 143.819389 
C 87.819125 155.860443 85.25188 168.766856 85.25188 181.8 
C 85.25188 194.833144 87.819125 207.739557 92.806693 219.780611 
C 97.794261 231.821666 105.105157 242.763195 114.320981 251.979019 
C 123.536805 261.194843 134.478334 268.505739 146.519389 273.493307 
C 158.560443 278.480875 171.466856 281.04812 184.5 281.04812 
C 197.533144 281.04812 210.439557 278.480875 222.480611 273.493307 
C 234.521666 268.505739 245.463195 261.194843 254.679019 251.979019 
C 263.894843 242.763195 271.205739 231.821666 276.193307 219.780611 
C 281.180875 207.739557 283.74812 194.833144 283.74812 181.8 
" clip-path="url(#pd4ce06ad48)" style="fill: none; stroke: #b0b0b0; stroke-width: 0.8; stroke-linecap: square"/>
     </g>
    </g>
    <g id="ytick_7">
     <g id="line2d_15">
      <path d="M 300.289474 181.8 
C 300.289474 166.594666 297.294354 151.537184 291.475525 137.489287 
C 285.656695 123.44139 277.127317 110.676273 266.375522 99.924478 
C 255.623727 89.172683 242.85861 80.643305 228.810713 74.824475 
C 214.762816 69.005646 199.705334 66.010526 184.5 66.010526 
C 169.294666 66.010526 154.237184 69.005646 140.189287 74.824475 
C 126.14139 80.643305 113.376273 89.172683 102.624478 99.924478 
C 91.872683 110.676273 83.343305 123.44139 77.524475 137.489287 
C 71.705646 151.537184 68.710526 166.594666 68.710526 181.8 
C 68.710526 197.005334 71.705646 212.062816 77.524475 226.110713 
C 83.343305 240.15861 91.872683 252.923727 102.624478 263.675522 
C 113.376273 274.427317 126.14139 282.956695 140.189287 288.775525 
C 154.237184 294.594354 169.294666 297.589474 184.5 297.589474 
C 199.705334 297.589474 214.762816 294.594354 228.810713 288.775525 
C 242.85861 282.956695 255.623727 274.427317 266.375522 263.675522 
C 277.127317 252.923727 285.656695 240.15861 291.475525 226.110713 
C 297.294354 212.062816 300.289474 197.005334 300.289474 181.8 
" clip-path="url(#pd4ce06ad48)" style="fill: none; stroke: #b0b0b0; stroke-width: 0.8; stroke-linecap: square"/>
     </g>
    </g>
    <g id="ytick_8">
     <g id="line2d_16">
      <path d="M 316.830827 181.8 
C 316.830827 164.422475 313.407834 147.213925 306.757743 131.159185 
C 300.107652 115.104445 290.359791 100.515741 278.072025 88.227975 
C 265.784259 75.940209 251.195555 66.192348 235.140815 59.542257 
C 219.086075 52.892166 201.877525 49.469173 184.5 49.469173 
C 167.122475 49.469173 149.913925 52.892166 133.859185 59.542257 
C 117.804445 66.192348 103.215741 75.940209 90.927975 88.227975 
C 78.640209 100.515741 68.892348 115.104445 62.242257 131.159185 
C 55.592166 147.213925 52.169173 164.422475 52.169173 181.8 
C 52.169173 199.177525 55.592166 216.386075 62.242257 232.440815 
C 68.892348 248.495555 78.640209 263.084259 90.927975 275.372025 
C 103.215741 287.659791 117.804445 297.407652 133.859185 304.057743 
C 149.913925 310.707834 167.122475 314.130827 184.5 314.130827 
C 201.877525 314.130827 219.086075 310.707834 235.140815 304.057743 
C 251.195555 297.407652 265.784259 287.659791 278.072025 275.372025 
C 290.359791 263.084259 300.107652 248.495555 306.757743 232.440815 
C 313.407834 216.386075 316.830827 199.177525 316.830827 181.8 
" clip-path="url(#pd4ce06ad48)" style="fill: none; stroke: #b0b0b0; stroke-width: 0.8; stroke-linecap: square"/>
     </g>
    </g>
   </g>
   <g id="line2d_17">
    <path d="M 184.5 181.8 
L 185.156437 181.717073 
L 185.781734 181.470907 
L 186.345571 181.069287 
L 186.819248 180.524983 
L 187.176447 179.855447 
L 187.393951 179.082399 
L 187.45228 178.231307 
L 187.336256 177.330775 
L 187.035468 176.411857 
L 186.544624 175.507295 
L 185.863798 174.650721 
L 184.998547 173.875818 
L 183.959907 173.215469 
L 182.764257 172.700918 
L 181.433064 172.360943 
L 179.992502 172.221079 
L 178.472956 172.302898 
L 176.908424 172.623361 
L 175.335823 173.194265 
L 173.794211 174.021789 
L 172.323949 175.106159 
L 170.96581 176.441435 
L 169.760058 178.015426 
L 168.745517 179.809746 
L 167.958647 181.8 
L 167.432643 183.956109 
L 167.19659 186.242761 
L 167.274667 188.619992 
L 167.685454 191.043875 
L 168.441317 193.467316 
L 169.547922 195.840936 
L 171.003865 198.114025 
L 172.800444 200.235551 
L 174.921567 202.155207 
L 177.343817 203.824467 
L 180.036662 205.197639 
L 182.962813 206.232895 
L 186.078733 206.893243 
L 189.335283 207.147442 
L 192.678495 206.970819 
L 194.364631 206.715214 
L 196.050464 206.345985 
L 197.728304 205.862195 
L 199.390345 205.263429 
L 201.028698 204.549801 
L 202.635431 203.721971 
L 204.202604 202.781142 
L 205.722305 201.729071 
L 207.186691 200.568063 
L 208.588025 199.300974 
L 209.918714 197.931207 
L 211.171349 196.462698 
L 212.338739 194.899916 
L 213.413951 193.247843 
L 214.390348 191.511963 
L 215.261619 189.698241 
L 216.021819 187.813109 
L 216.665403 185.863435 
L 217.187251 183.856508 
L 217.582707 181.8 
L 217.8476 179.701947 
L 217.978277 177.57071 
L 217.971623 175.414946 
L 217.825087 173.243572 
L 217.5367 171.065725 
L 217.105094 168.89073 
L 216.529517 166.728053 
L 215.809845 164.587267 
L 214.946592 162.478005 
L 213.940919 160.40992 
L 212.794637 158.392641 
L 211.510206 156.435728 
L 210.090738 154.548631 
L 208.53999 152.740643 
L 206.862356 151.020857 
L 205.062857 149.398122 
L 203.147127 147.881002 
L 201.121399 146.477729 
L 198.992482 145.196168 
L 196.767742 144.043771 
L 194.455075 143.027543 
L 192.062879 142.154 
L 189.600026 141.429137 
L 187.075828 140.858392 
L 184.5 140.446617 
L 181.882627 140.198044 
L 179.234119 140.116264 
L 176.565176 140.204197 
L 173.886738 140.464075 
L 171.209946 140.897419 
L 168.546091 141.505025 
L 165.90657 142.286951 
L 163.302838 143.242506 
L 160.746355 144.370245 
L 158.248538 145.667963 
L 155.820713 147.132697 
L 153.47406 148.76073 
L 151.219568 150.547594 
L 149.067977 152.488082 
L 147.029739 154.576262 
L 145.114959 156.805493 
L 143.333352 159.168444 
L 141.694197 161.657118 
L 140.206287 164.262878 
L 138.87789 166.976478 
L 137.716705 169.788091 
L 136.72982 172.687351 
L 135.923677 175.663383 
L 135.304036 178.704852 
L 134.87594 181.8 
L 134.643687 184.936693 
L 134.610804 188.102471 
L 134.780017 191.284594 
L 135.153237 194.470095 
L 135.731538 197.645834 
L 136.515144 200.798548 
L 137.503419 203.914912 
L 138.694857 206.981591 
L 140.087081 209.985295 
L 141.676845 212.912843 
L 143.460031 215.751215 
L 145.431666 218.487607 
L 147.585926 221.109496 
L 149.916154 223.604688 
L 152.41488 225.961379 
L 155.073843 228.168204 
L 157.884015 230.214297 
L 160.835635 232.089335 
L 163.918239 233.783594 
L 167.120698 235.287991 
L 170.431258 236.594133 
L 173.837581 237.69436 
L 177.326793 238.581783 
L 180.885532 239.250321 
L 184.5 239.694737 
L 188.156013 239.910669 
L 191.839062 239.894656 
L 195.534364 239.644164 
L 199.226929 239.157601 
L 202.901613 238.434343 
L 206.543188 237.474736 
L 210.136395 236.280113 
L 213.666019 234.852792 
L 217.116945 233.196082 
L 220.474225 231.314273 
L 223.723142 229.212634 
L 226.849275 226.897397 
L 229.83856 224.375742 
L 232.677354 221.655774 
L 235.352497 218.746502 
L 237.851368 215.657807 
L 240.161946 212.400414 
L 242.272867 208.985848 
L 244.173474 205.4264 
L 245.853872 201.735081 
L 247.304971 197.925576 
L 248.518541 194.01219 
L 249.487243 190.009798 
L 250.204677 185.933788 
L 250.665414 181.8 
L 250.865025 177.624667 
L 250.800116 173.424348 
L 250.468344 169.215865 
L 249.86844 165.016237 
L 249.000224 160.842607 
L 247.864617 156.712173 
L 246.463645 152.642122 
L 244.800442 148.649552 
L 242.879245 144.751404 
L 240.705391 140.964393 
L 238.2853 137.30493 
L 235.626461 133.789057 
L 232.73741 130.432376 
L 229.627701 127.24998 
L 226.307883 124.256385 
L 222.789458 121.465469 
L 219.084843 118.890405 
L 215.207331 116.543601 
L 211.171039 114.436645 
L 206.990861 112.580248 
L 202.682409 110.984191 
L 198.26196 109.657279 
L 193.746389 108.607297 
L 189.153108 107.840967 
L 184.5 107.36391 
L 179.805346 107.180618 
L 175.087757 107.294424 
L 170.366095 107.707476 
L 165.659404 108.420722 
L 160.986827 109.433895 
L 156.367534 110.745502 
L 151.820639 112.352823 
L 147.365123 114.251909 
L 143.019754 116.437592 
L 138.803011 118.903491 
L 134.733002 121.642034 
L 130.827389 124.644475 
L 127.103312 127.900923 
L 123.577314 131.400371 
L 120.265267 135.130735 
L 117.182306 139.078892 
L 114.342755 143.230728 
L 111.760069 147.571187 
L 109.446764 152.084322 
L 107.414367 156.753359 
L 105.673352 161.560757 
L 104.233099 166.48827 
L 103.101837 171.517021 
L 102.28661 176.627572 
L 101.793233 181.8 
L 101.626262 187.013974 
L 101.788964 192.248834 
L 102.283296 197.483675 
L 103.109884 202.69743 
L 104.268014 207.868952 
L 105.755622 212.977105 
L 107.569291 218.000844 
L 109.70426 222.919306 
L 112.154428 227.711896 
L 114.912373 232.358371 
L 117.969368 236.838926 
L 121.315411 241.134278 
L 124.939255 245.225752 
L 128.828443 249.095352 
L 132.969353 252.725851 
L 137.347242 256.100857 
L 141.9463 259.204894 
L 146.749704 262.023463 
L 151.739683 264.543116 
L 156.89758 266.751514 
L 162.203923 268.637486 
L 167.638499 270.191081 
L 173.18043 271.403622 
L 178.808252 272.267746 
L 184.5 272.777444 
L 190.233294 272.928095 
L 195.985424 272.716496 
L 201.733445 272.140885 
L 207.454264 271.200954 
L 213.124732 269.897867 
L 218.721744 268.234259 
L 224.222327 266.214241 
L 229.603735 263.843389 
L 234.843546 261.128735 
L 239.919752 258.078745 
L 244.810853 254.703298 
L 249.495946 251.013653 
L 253.954815 247.022413 
L 258.168018 242.743485 
L 262.116969 238.192029 
L 265.784021 233.384408 
L 269.152543 228.338129 
L 272.206995 223.071779 
L 274.932997 217.604956 
L 277.317395 211.9582 
L 279.348324 206.15291 
L 281.015262 200.211271 
L 282.309082 194.156161 
L 283.222103 188.011068 
L 283.74812 181.8 
L 283.882451 175.547386 
L 283.621956 169.277985 
L 282.965065 163.016784 
L 281.911792 156.788903 
L 280.463748 150.619488 
L 278.62414 144.533617 
L 276.397773 138.55619 
L 273.791039 132.711836 
L 270.811898 127.024804 
L 267.469863 121.518866 
L 263.775964 116.217219 
L 259.742717 111.142386 
L 255.384081 106.316121 
L 250.715412 101.759316 
L 245.753411 97.491913 
L 240.516058 93.532816 
L 235.022558 89.899808 
L 229.293262 86.609473 
L 223.349596 83.677122 
L 217.21398 81.116724 
L 210.909744 78.940838 
L 204.461041 77.160558 
L 197.892751 75.785458 
L 191.230388 74.823541 
L 184.5 74.281203 
L 177.728066 74.163193 
L 170.941394 74.472584 
L 164.167014 75.210755 
L 157.432069 76.37737 
L 150.763709 77.970371 
L 144.188978 79.985979 
L 137.734708 82.418695 
L 131.427407 85.261312 
L 125.293154 88.504938 
L 119.357484 92.139019 
L 113.645291 96.15137 
L 108.180718 100.528219 
L 102.987057 105.254251 
L 98.08665 110.31266 
L 93.500795 115.685208 
L 89.249653 121.352291 
L 85.352158 127.293013 
L 81.825941 133.485255 
L 78.687241 139.905765 
L 75.950843 146.530241 
L 73.63 153.333422 
L 71.736378 160.289189 
L 70.279998 167.370658 
L 69.269185 174.550292 
L 68.710526 181.8 
L 68.608836 189.091254 
L 68.967124 196.395196 
L 69.786575 203.682756 
L 71.066531 210.924765 
L 72.80449 218.092071 
L 74.996099 225.155662 
L 77.635163 232.086775 
L 80.713663 238.857022 
L 84.221775 245.438497 
L 88.147901 251.803898 
L 92.478704 257.926636 
L 97.199156 263.78095 
L 102.292584 269.342007 
L 107.740732 274.586016 
L 113.523826 279.490323 
L 119.620641 284.033511 
L 126.008584 288.195491 
L 132.663772 291.957591 
L 139.561126 295.302639 
L 146.674461 298.215038 
L 153.976589 300.680839 
L 161.439418 302.687802 
L 169.034067 304.225462 
L 176.730972 305.285172 
L 184.5 305.86015 
L 192.310574 305.94552 
L 200.131787 305.538336 
L 207.932526 304.637606 
L 215.681598 303.244307 
L 223.347851 301.361391 
L 230.900301 298.993782 
L 238.308258 296.148369 
L 245.54145 292.833986 
L 252.570147 289.061388 
L 259.36528 284.843217 
L 265.898564 280.193962 
L 272.142617 275.129908 
L 278.071071 269.669084 
L 283.658682 263.831196 
L 288.881441 257.637556 
L 293.716674 251.111009 
L 298.14314 244.275845 
L 302.141123 237.157711 
L 305.69252 229.783513 
L 308.780919 222.181319 
L 311.391677 214.380245 
L 313.511983 206.410352 
L 315.130922 198.302523 
L 316.239528 190.088349 
L 316.239528 190.088349 
" clip-path="url(#pd4ce06ad48)" style="fill: none; stroke: #1f77b4; stroke-width: 1.5; stroke-linecap: square"/>
   </g>
   <g id="patch_3">
    <path d="M 323.1 181.8 
C 323.1 163.599215 319.514842 145.575409 312.549703 128.760076 
C 305.584564 111.944743 295.374899 96.664899 282.505 83.795 
C 269.635101 70.925101 254.355257 60.715436 237.539924 53.750297 
C 220.724591 46.785158 202.700785 43.2 184.5 43.2 
C 166.299215 43.2 148.275409 46.785158 131.460076 53.750297 
C 114.644743 60.715436 99.364899 70.925101 86.495 83.795 
C 73.625101 96.664899 63.415436 111.944743 56.450297 128.760076 
C 49.485158 145.575409 45.9 163.599215 45.9 181.8 
C 45.9 200.000785 49.485158 218.024591 56.450297 234.839924 
C 63.415436 251.655257 73.625101 266.935101 86.495 279.805 
C 99.364899 292.674899 114.644743 302.884564 131.460076 309.849703 
C 148.275409 316.814842 166.299215 320.4 184.5 320.4 
C 202.700785 320.4 220.724591 316.814842 237.539924 309.849703 
C 254.355257 302.884564 269.635101 292.674899 282.505 279.805 
C 295.374899 266.935101 305.584564 251.655257 312.549703 234.839924 
C 319.514842 218.024591 323.1 200.000785 323.1 181.8 
" style="fill: none; stroke: #000000; stroke-width: 0.8; stroke-linejoin: miter; stroke-linecap: square"/>
   </g>
  </g>
 </g>
 <defs>
  <clipPath id="pd4ce06ad48">
   <path d="M 323.1 181.8 
C 323.1 163.599215 319.514842 145.575409 312.549703 128.760076 
C 305.584564 111.944743 295.374899 96.664899 282.505 83.795 
C 269.635101 70.925101 254.355257 60.715436 237.539924 53.750297 
C 220.724591 46.785158 202.700785 43.2 184.5 43.2 
C 166.299215 43.2 148.275409 46.785158 131.460076 53.750297 
C 114.644743 60.715436 99.364899 70.925101 86.495 83.795 
C 73.625101 96.664899 63.415436 111.944743 56.450297 128.760076 
C 49.485158 145.575409 45.9 163.599215 45.9 181.8 
C 45.9 200.000785 49.485158 218.024591 56.450297 234.839924 
C 63.415436 251.655257 73.625101 266.935101 86.495 279.805 
C 99.364899 292.674899 114.644743 302.884564 131.460076 309.849703 
C 148.275409 316.814842 166.299215 320.4 184.5 320.4 
C 202.700785 320.4 220.724591 316.814842 237.539924 309.849703 
C 254.355257 302.884564 269.635101 292.674899 282.505 279.805 
C 295.374899 266.935101 305.584564 251.655257 312.549703 234.839924 
C 319.514842 218.024591 323.1 200.000785 323.1 181.8 
M 184.5 181.8 
C 184.5 181.8 184.5 181.8 184.5 181.8 
C 184.5 181.8 184.5 181.8 184.5 181.8 
C 184.5 181.8 184.5 181.8 184.5 181.8 
C 184.5 181.8 184.5 181.8 184.5 181.8 
C 184.5 181.8 184.5 181.8 184.5 181.8 
C 184.5 181.8 184.5 181.8 184.5 181.8 
C 184.5 181.8 184.5 181.8 184.5 181.8 
C 184.5 181.8 184.5 181.8 184.5 181.8 
C 184.5 181.8 184.5 181.8 184.5 181.8 
C 184.5 181.8 184.5 181.8 184.5 181.8 
C 184.5 181.8 184.5 181.8 184.5 181.8 
C 184.5 181.8 184.5 181.8 184.5 181.8 
C 184.5 181.8 184.5 181.8 184.5 181.8 
C 184.5 181.8 184.5 181.8 184.5 181.8 
C 184.5 181.8 184.5 181.8 184.5 181.8 
C 184.5 181.8 184.5 181.8 184.5 181.8 
z
"/>
  </clipPath>
 </defs>
</svg>
