<?xml version="1.0" encoding="utf-8" standalone="no"?>
<!DOCTYPE svg PUBLIC "-//W3C//DTD SVG 1.1//EN"
  "http://www.w3.org/Graphics/SVG/1.1/DTD/svg11.dtd">
<svg xmlns:xlink="http://www.w3.org/1999/xlink" width="460.8pt" height="345.6pt" viewBox="0 0 460.8 345.6" xmlns="http://www.w3.org/2000/svg" version="1.1">
 <metadata>
  <rdf:RDF xmlns:dc="http://purl.org/dc/elements/1.1/" xmlns:cc="http://creativecommons.org/ns#" xmlns:rdf="http://www.w3.org/1999/02/22-rdf-syntax-ns#">
   <cc:Work>
    <dc:type rdf:resource="http://purl.org/dc/dcmitype/StillImage"/>
    <dc:date>2025-11-30T14:55:38.561788</dc:date>
    <dc:format>image/svg+xml</dc:format>
    <dc:creator>
     <cc:Agent>
      <dc:title>Matplotlib v3.10.6, https://matplotlib.org/</dc:title>
     </cc:Agent>
    </dc:creator>
   </cc:Work>
  </rdf:RDF>
 </metadata>
 <defs>
  <style type="text/css">*{stroke-linejoin: round; stroke-linecap: butt}</style>
 </defs>
 <g id="figure_1">
  <g id="patch_1">
   <path d="M 0 345.6 
L 460.8 345.6 
L 460.8 0 
L 0 0 
z
" style="fill: #ffffff"/>
  </g>
  <g id="axes_1">
   <g id="patch_2">
    <path d="M 103.104 307.584 
L 369.216 307.584 
L 369.216 41.472 
L 103.104 41.472 
z
" style="fill: #ffffff"/>
   </g>
   <g id="PathCollection_1">
    <defs>
     <path id="m7d4a6dbbde" d="M 0 1.5 
C 0.397805 1.5 0.77937 1.341951 1.06066 1.06066 
C 1.341951 0.77937 1.5 0.397805 1.5 0 
C 1.5 -0.397805 1.341951 -0.77937 1.06066 -1.06066 
C 0.77937 -1.341951 0.397805 -1.5 0 -1.5 
C -0.397805 -1.5 -0.77937 -1.341951 -1.06066 -1.06066 
C -1.341951 -0.77937 -1.5 -0.397805 -1.5 0 
C -1.5 0.397805 -1.341951 0.77937 -1.06066 1.06066 
C -0.77937 1.341951 -0.397805 1.5 0 1.5 
z
" style="stroke: #000000"/>
    </defs>
    <g clip-path="url(#pb5c154d067)">
     <use xlink:href="#m7d4a6dbbde" x="103.104" y="307.584" style="stroke: #000000"/>
     <use xlink:href="#m7d4a6dbbde" x="147.456" y="307.584" style="stroke: #000000"/>
     <use xlink:href="#m7d4a6dbbde" x="191.808" y="307.584" style="stroke: #000000"/>
     <use xlink:href="#m7d4a6dbbde" x="236.16" y="307.584" style="stroke: #000000"/>
     <use xlink:href="#m7d4a6dbbde" x="280.512" y="307.584" style="stroke: #000000"/>
     <use xlink:href="#m7d4a6dbbde" x="324.864" y="307.584" style="stroke: #000000"/>
     <use xlink:href="#m7d4a6dbbde" x="369.216" y="307.584" style="stroke: #000000"/>
     <use xlink:href="#m7d4a6dbbde" x="103.104" y="263.232" style="stroke: #000000"/>
     <use xlink:href="#m7d4a6dbbde" x="147.456" y="263.232" style="stroke: #000000"/>
     <use xlink:href="#m7d4a6dbbde" x="191.808" y="263.232" style="stroke: #000000"/>
     <use xlink:href="#m7d4a6dbbde" x="236.16" y="263.232" style="stroke: #000000"/>
     <use xlink:href="#m7d4a6dbbde" x="280.512" y="263.232" style="stroke: #000000"/>
     <use xlink:href="#m7d4a6dbbde" x="324.864" y="263.232" style="stroke: #000000"/>
     <use xlink:href="#m7d4a6dbbde" x="369.216" y="263.232" style="stroke: #000000"/>
     <use xlink:href="#m7d4a6dbbde" x="103.104" y="218.88" style="stroke: #000000"/>
     <use xlink:href="#m7d4a6dbbde" x="147.456" y="218.88" style="stroke: #000000"/>
     <use xlink:href="#m7d4a6dbbde" x="191.808" y="218.88" style="stroke: #000000"/>
     <use xlink:href="#m7d4a6dbbde" x="236.16" y="218.88" style="stroke: #000000"/>
     <use xlink:href="#m7d4a6dbbde" x="280.512" y="218.88" style="stroke: #000000"/>
     <use xlink:href="#m7d4a6dbbde" x="324.864" y="218.88" style="stroke: #000000"/>
     <use xlink:href="#m7d4a6dbbde" x="369.216" y="218.88" style="stroke: #000000"/>
     <use xlink:href="#m7d4a6dbbde" x="103.104" y="174.528" style="stroke: #000000"/>
     <use xlink:href="#m7d4a6dbbde" x="147.456" y="174.528" style="stroke: #000000"/>
     <use xlink:href="#m7d4a6dbbde" x="191.808" y="174.528" style="stroke: #000000"/>
     <use xlink:href="#m7d4a6dbbde" x="236.16" y="174.528" style="stroke: #000000"/>
     <use xlink:href="#m7d4a6dbbde" x="280.512" y="174.528" style="stroke: #000000"/>
     <use xlink:href="#m7d4a6dbbde" x="324.864" y="174.528" style="stroke: #000000"/>
     <use xlink:href="#m7d4a6dbbde" x="369.216" y="174.528" style="stroke: #000000"/>
     <use xlink:href="#m7d4a6dbbde" x="103.104" y="130.176" style="stroke: #000000"/>
     <use xlink:href="#m7d4a6dbbde" x="147.456" y="130.176" style="stroke: #000000"/>
     <use xlink:href="#m7d4a6dbbde" x="191.808" y="130.176" style="stroke: #000000"/>
     <use xlink:href="#m7d4a6dbbde" x="236.16" y="130.176" style="stroke: #000000"/>
     <use xlink:href="#m7d4a6dbbde" x="280.512" y="130.176" style="stroke: #000000"/>
     <use xlink:href="#m7d4a6dbbde" x="324.864" y="130.176" style="stroke: #000000"/>
     <use xlink:href="#m7d4a6dbbde" x="369.216" y="130.176" style="stroke: #000000"/>
     <use xlink:href="#m7d4a6dbbde" x="103.104" y="85.824" style="stroke: #000000"/>
     <use xlink:href="#m7d4a6dbbde" x="147.456" y="85.824" style="stroke: #000000"/>
     <use xlink:href="#m7d4a6dbbde" x="191.808" y="85.824" style="stroke: #000000"/>
     <use xlink:href="#m7d4a6dbbde" x="236.16" y="85.824" style="stroke: #000000"/>
     <use xlink:href="#m7d4a6dbbde" x="280.512" y="85.824" style="stroke: #000000"/>
     <use xlink:href="#m7d4a6dbbde" x="324.864" y="85.824" style="stroke: #000000"/>
     <use xlink:href="#m7d4a6dbbde" x="369.216" y="85.824" style="stroke: #000000"/>
     <use xlink:href="#m7d4a6dbbde" x="103.104" y="41.472" style="stroke: #000000"/>
     <use xlink:href="#m7d4a6dbbde" x="147.456" y="41.472" style="stroke: #000000"/>
     <use xlink:href="#m7d4a6dbbde" x="191.808" y="41.472" style="stroke: #000000"/>
     <use xlink:href="#m7d4a6dbbde" x="236.16" y="41.472" style="stroke: #000000"/>
     <use xlink:href="#m7d4a6dbbde" x="280.512" y="41.472" style="stroke: #000000"/>
     <use xlink:href="#m7d4a6dbbde" x="324.864" y="41.472" style="stroke: #000000"/>
     <use xlink:href="#m7d4a6dbbde" x="369.216" y="41.472" style="stroke: #000000"/>
    </g>
   </g>
   <g id="matplotlib.axis_1">
    <g id="text_1">
     <!-- $\it{x_2}$ -->
     <g transform="translate(230.81 319.182437) scale(0.1 -0.1)">
      <defs>
       <path id="DejaVuSans-Oblique-78" d="M 3841 3500 
L 2234 1784 
L 3219 0 
L 2559 0 
L 1819 1388 
L 531 0 
L -166 0 
L 1556 1844 
L 641 3500 
L 1300 3500 
L 1972 2234 
L 3144 3500 
L 3841 3500 
z
" transform="scale(0.015625)"/>
       <path id="DejaVuSans-32" d="M 1228 531 
L 3431 531 
L 3431 0 
L 469 0 
L 469 531 
Q 828 903 1448 1529 
Q 2069 2156 2228 2338 
Q 2531 2678 2651 2914 
Q 2772 3150 2772 3378 
Q 2772 3750 2511 3984 
Q 2250 4219 1831 4219 
Q 1534 4219 1204 4116 
Q 875 4013 500 3803 
L 500 4441 
Q 881 4594 1212 4672 
Q 1544 4750 1819 4750 
Q 2544 4750 2975 4387 
Q 3406 4025 3406 3419 
Q 3406 3131 3298 2873 
Q 3191 2616 2906 2266 
Q 2828 2175 2409 1742 
Q 1991 1309 1228 531 
z
" transform="scale(0.015625)"/>
      </defs>
      <use xlink:href="#DejaVuSans-Oblique-78" transform="translate(0 0.3125)"/>
      <use xlink:href="#DejaVuSans-32" transform="translate(59.179688 -16.09375) scale(0.7)"/>
     </g>
    </g>
   </g>
   <g id="matplotlib.axis_2"/>
   <g id="QuadContourSet_1">
    <path clip-path="url(#pb5c154d067)" style="fill: none; stroke: #313695"/>
    <path clip-path="url(#pb5c154d067)" style="fill: none; stroke: #3d5ba7"/>
    <path clip-path="url(#pb5c154d067)" style="fill: none; stroke: #4d7fb9"/>
    <path clip-path="url(#pb5c154d067)" style="fill: none; stroke: #69a0ca"/>
    <path d="M 236.16 270.694429 
L 228.075909 263.232 
L 236.16 254.88394 
L 248.838588 263.232 
L 236.16 270.694429 
z
" clip-path="url(#pb5c154d067)" style="fill: none; stroke: #87bdd9"/>
    <path d="M 236.16 280.518429 
L 217.433516 263.232 
L 236.16 243.894041 
L 265.52946 263.232 
L 236.16 280.518429 
z
" clip-path="url(#pb5c154d067)" style="fill: none; stroke: #a8d6e8"/>
    <path d="M 236.16 290.342429 
L 206.791123 263.232 
L 236.16 232.904142 
L 280.512 260.750641 
L 282.736462 263.232 
L 280.512 265.510409 
L 236.16 290.342429 
z
" clip-path="url(#pb5c154d067)" style="fill: none; stroke: #c7e7f1"/>
    <path d="M 236.16 300.166429 
L 196.14873 263.232 
L 236.16 221.914243 
L 280.512 236.507087 
L 304.470058 263.232 
L 280.512 287.77109 
L 236.16 300.166429 
M 147.456 186.797273 
L 136.072211 174.528 
L 147.456 157.207964 
L 191.808 159.148383 
L 202.795049 174.528 
L 191.808 182.775112 
L 147.456 186.797273 
" clip-path="url(#pb5c154d067)" style="fill: none; stroke: #e4f4f1"/>
    <path d="M 151.962025 307.584 
L 150.706956 263.232 
L 191.808 252.504114 
L 223.714573 218.88 
L 236.16 200.048193 
L 280.512 215.108981 
L 296.180048 218.88 
L 324.864 258.361227 
L 368.917104 263.232 
L 369.216 306.970706 
M 103.104 85.874199 
L 147.456 92.128896 
L 177.502313 130.176 
L 191.808 135.572505 
L 219.637427 174.528 
L 191.808 195.417359 
L 150.360466 218.88 
L 147.456 251.488755 
L 103.104 259.746318 
" clip-path="url(#pb5c154d067)" style="fill: none; stroke: #f6fbd0"/>
    <path d="M 191.808 234.386616 
L 206.522528 218.88 
L 191.808 208.059606 
L 172.693414 218.88 
L 191.808 234.386616 
z
M 280.512 201.291499 
L 324.864 194.560522 
L 338.119761 174.528 
L 324.864 152.548883 
L 314.823894 130.176 
L 306.347733 85.824 
L 280.512 60.261054 
L 236.16 47.057659 
L 191.808 61.341987 
L 167.693156 85.824 
L 191.808 111.865568 
L 201.693121 130.176 
L 236.16 174.216965 
L 236.590571 174.528 
L 280.512 201.291499 
z
" clip-path="url(#pb5c154d067)" style="fill: none; stroke: #fff6b1"/>
    <path d="M 280.512 187.474017 
L 307.765133 174.528 
L 290.892973 130.176 
L 284.994737 85.824 
L 280.512 81.388594 
L 236.16 55.035703 
L 191.808 83.665759 
L 189.682127 85.824 
L 191.808 88.119725 
L 214.512618 130.176 
L 236.16 157.836514 
L 259.266363 174.528 
L 280.512 187.474017 
z
" clip-path="url(#pb5c154d067)" style="fill: none; stroke: #fee496"/>
    <path d="M 236.16 141.456063 
L 260.499428 130.176 
L 270.909613 85.824 
L 236.16 63.013747 
L 202.456406 85.824 
L 227.332115 130.176 
L 236.16 141.456063 
z
" clip-path="url(#pb5c154d067)" style="fill: none; stroke: #fec87a"/>
    <path d="M 236.16 123.813454 
L 258.755696 85.824 
L 236.16 70.99179 
L 214.244471 85.824 
L 236.16 123.813454 
z
" clip-path="url(#pb5c154d067)" style="fill: none; stroke: #fcaa5f"/>
    <path d="M 236.16 103.379444 
L 246.601779 85.824 
L 236.16 78.969834 
L 226.032535 85.824 
L 236.16 103.379444 
z
" clip-path="url(#pb5c154d067)" style="fill: none; stroke: #f7844e"/>
    <path clip-path="url(#pb5c154d067)" style="fill: none; stroke: #ed5f3c"/>
    <path clip-path="url(#pb5c154d067)" style="fill: none; stroke: #dc3b2c"/>
    <path clip-path="url(#pb5c154d067)" style="fill: none; stroke: #c21c27"/>
    <path clip-path="url(#pb5c154d067)" style="fill: none; stroke: #a50026"/>
   </g>
   <g id="patch_3">
    <path d="M 103.104 307.584 
L 103.104 41.472 
" style="fill: none; stroke: #000000; stroke-width: 0.8; stroke-linejoin: miter; stroke-linecap: square"/>
   </g>
   <g id="patch_4">
    <path d="M 369.216 307.584 
L 369.216 41.472 
" style="fill: none; stroke: #000000; stroke-width: 0.8; stroke-linejoin: miter; stroke-linecap: square"/>
   </g>
   <g id="patch_5">
    <path d="M 103.104 307.584 
L 369.216 307.584 
" style="fill: none; stroke: #000000; stroke-width: 0.8; stroke-linejoin: miter; stroke-linecap: square"/>
   </g>
   <g id="patch_6">
    <path d="M 103.104 41.472 
L 369.216 41.472 
" style="fill: none; stroke: #000000; stroke-width: 0.8; stroke-linejoin: miter; stroke-linecap: square"/>
   </g>
  </g>
 </g>
 <defs>
  <clipPath id="pb5c154d067">
   <rect x="103.104" y="41.472" width="266.112" height="266.112"/>
  </clipPath>
 </defs>
</svg>
